<?xml version="1.0" encoding="utf-8"?>
<!-- Generator: Adobe Illustrator 18.0.0, SVG Export Plug-In . SVG Version: 6.00 Build 0)  -->
<!DOCTYPE svg PUBLIC "-//W3C//DTD SVG 1.1//EN" "http://www.w3.org/Graphics/SVG/1.1/DTD/svg11.dtd">
<svg version="1.1" id="Layer_1" xmlns="http://www.w3.org/2000/svg" xmlns:xlink="http://www.w3.org/1999/xlink" x="0px" y="0px"
	 viewBox="0 0 652 621.2" enable-background="new 0 0 652 621.2" xml:space="preserve">
<g>
	<path fill="#FDFDFD" d="M326,621.2c-107.5,0-215,0-322.5,0.1c-2.8,0-3.4-0.6-3.4-3.4C0.1,413,0.1,208.2,0,3.4C0,0.6,0.6,0,3.4,0
		c215,0.1,430.1,0.1,645.1,0c2.8,0,3.4,0.6,3.4,3.4c-0.1,204.8-0.1,409.6,0,614.3c0,2.8-0.6,3.4-3.4,3.4
		C541,621.1,433.5,621.2,326,621.2z"/>
	<path d="M225.8,415.7c-15-14.5-21.7-31.9-17.3-52.5c4.3-20,24.7-32.8,42.9-34.7c2.8-0.3,5.5-0.3,8.4,0.2c2.8,0.5,4.9-1.4,7.2-2.7
		c3.9-2.2,7.2-5.3,10.6-8.3c0.9-0.8,1.9-1.6,2.8-2.4c12.3-10.7,21.7-8.9,33.4,3.1c0.6,0.6,1.3,1.2,1.8,1.9c1.6,2.4,3.1,1.9,5.2,0.4
		c24.1-16.4,48.4-32.8,72.6-49.1c7.8-5.2,15.5-10.5,23.3-15.7c1.2-0.8,2.4-1.5,1.5-3.2c-3.6-7.1,0-12.2,4.9-16.8
		c0.6-0.6,1.4-1.1,2-1.6c0.6-0.4,1.5-0.8,0.9-1.7c-0.6-1-1.3,0-1.9,0.3c-4.4,1.8-8.5,1.2-11.4-1.9c-2.3-2.4-3.4-5.3-2.3-8.6
		c1.3-3.9,3.8-6.8,8-7.7c3.4-0.7,6.7-0.4,9.5,2.1c2.9,2.5,3.5,5,1.5,9.3c-0.6,1.4-0.5,2.2,0.4,3.3c0.8,1.1,1.6,1.4,2.9,0.9
		c5.5-1.9,11.3-3.2,17-4.5c0.7-0.2,1.6-0.3,1.6-1.2c-0.1-1-1.1-0.8-1.8-1c-4.8-1.5-7.5-5.9-6.5-10.3c0.8-3.8,5-6.6,9.5-6.3
		c4.5,0.4,9,4.5,9.2,8.5c0.2,3-1.4,4.9-4,6.2c-0.8,0.4-1.7,0.6-1.4,1.8c0.4,1.4,1.5,0.7,2.2,0.6c4.8-0.8,9.5-1.5,13.3,2.6
		c5.2,5.6,9.2,11.9,10.1,19.6c0.4,3.2-2.3,5.1-4.2,7.1c-0.7,0.7-2.7,1.1-1.3,2.8c1.1,1.4,2.2,2.7,4.3,1.3c1.9-1.3,3.9-2.1,6.2-2.3
		c2.5-0.2,4.3,1,4.6,3.3c0.5,3.2,0.6,6.5,0,9.7c-0.5,2.4-1.7,4.5-4.2,5.4c-1.4,0.5-2.1,1.7-3.1,2.6c-1.8,1.7-3.7,3.1-6.3,2.2
		c-2.2-0.8-3-3-3.4-5c-0.6-3.2-1.7-6.6,0.2-9.9c1.3-2.2-1.1-3-2-4.3c-1-1.6-2.1-0.3-3.1,0.3c-3.9,2.5-7.8,4.9-11.6,7.5
		c-1.1,0.7-2.8,1.2-1.9,3.4c0.8,1.8,1.4,3,3.7,2.5c1.3-0.3,2.7-0.3,4.1-0.2c4.8,0.4,6.6,2.7,4.9,7.2c-0.7,1.9,1.3,4.1-1.3,5.9
		c-4.3,2.9-8.8,5.2-13.7,6.5c-3.8,1-5.8-0.8-5.8-4.6c0-4,0.4-8.1,3.6-11c1.3-1.2,1.3-2.2,0.6-3.6c-0.6-1.3-0.7-2.9-3-2.3
		c-1.5,0.4-2.6-0.9-3.3-2c-1.8-2.4-3.4-1.9-5.7-0.7c-25.1,13.5-48.6,29.6-72,45.7c-11.6,8-23.1,16.2-34.8,24
		c-2.4,1.6-3.1,2.8-1.9,5.6c3.1,8,4.1,16.2,0.7,24.4c-3.2,7.8-9,12.6-17.3,14.6c-2.1,0.5-4.2,0.8-6.2,1.4c-3.7,1.2-7.2,3.1-8.1,7.1
		c-3.1,14.8-13.5,23.1-26,29.4c-13.8,7-27.7,7.3-41.6,0.2C229.8,419.8,227.5,418.2,225.8,415.7z"/>
	<path d="M457.5,465.1c0.6-12.9,3.8-24.9,12.7-34.7c2-2.2,1.3-3.1-0.6-4.5c-6.8-5-13-10.6-17.8-17.5c-7.7-11-7.6-21.2,1.1-31.5
		c8.8-10.4,19.7-16.6,33.8-15.4c6.7,0.6,12.7,3.4,18.8,6c1.4,0.6,2.6,1.5,4.1,1.9c1.6,0.4,3.4,2.7,4.6,1.4c1.7-1.8,1.7-4.6,0.6-7.1
		c-0.9-2.1-2-4.2-4.9-3.7c-4.6,0.7-8.4-0.3-11.2-4.2c-4-5.4-1-13.7,5.6-15.2c8.9-2.1,19,3.6,21.8,12.3c2.4,7.4,2.5,14.8-0.5,22
		c-1.3,3.1-0.6,5,1.5,7.1c3.5,3.4,5.4,7.7,6.4,12.4c1.7,8.4-0.7,15.9-5.9,22.3c-7.3,8.9-16.6,13.3-28.4,10.2c-2.3-0.6-4-2-6-3.1
		c-0.8-0.4-1.6-1.6-2.5-0.3c-0.7,1,0.3,1.6,0.8,2.2c2.9,3.7,5.6,7.6,7.9,11.8c8.8,16.4,6.2,41.2-5.6,54.7
		c-10.5,12-21.4,9.5-29.1-2.7C459.8,482.2,457.1,474.1,457.5,465.1z"/>
	<path fill="#0A0066" d="M106.4,410.3c-1.8,0-3.6,0.1-5.4,0.1c-4.5,0.5-9,0.5-13.6,0c-3.1,0.3-6.2-0.3-9.2-0.9
		c-2.1-0.4-2.8-1.6-2.4-3.6c1.6-8.5,3-17.1,4-25.7c1.4-12.3-0.9-24.3-3.9-36.1c-0.5-1.9-2-2-3.5-2.1c-6.5-0.7-12.9-2-18.9-4.9
		c-5.7-2.8-9.8-7.2-12.4-12.9c-1.8-4-3.1-8.2-4.5-12.3c-0.5-1.3-0.7-2.7-0.2-4c2.6-7.5,6.3-14.1,13-18.7c6.7-4.6,13.3-4.2,20.2-0.2
		c9.9,5.7,18.6,12.5,23.7,23c2.6,5.5,4.1,11.3,5.2,17.3c1.5,8.7,2,17.6,2.4,26.4c0.1,1.6,0.5,2.5,2.2,2.7c5.1,0.5,10.1,1.5,15.2,1.8
		c3.5,0.2,4.5-1.2,4.8-4.3c0.6-7,1.6-14.1,2.2-21.1c0.6-7,0.9-14.1,1.6-21.1c0.3-2.6-0.7-3.5-3.1-3.9c-6.9-1.1-13.4-3.7-19.5-7
		c-7.7-4.2-11.6-11.1-12.6-19.5c-1.2-10.9,1.3-21,6.7-30.5c1.8-3.2,5.3-4.1,8.4-5c4.3-1.3,8.7-2.1,13.1-3c9.6-1.9,16,3.3,21.5,10.1
		c3.9,4.8,6.5,10.5,8.5,16.3c1.6,4.5,2,9.4,2.6,14.2c0.7,5.7,1.1,11.3,0.9,17.1c-0.5,14.9-2.6,29.5-5.7,44.1
		c-1.7,7.8-1.9,15.8-3.2,23.6c-1.8,11.2-2.9,22.5-6.3,33.4c-1.8,5.7-3.6,9.7-11.7,7.1c-3.9-1.2-7.9-0.5-11.9-0.8
		C111.8,410.5,109,409.4,106.4,410.3z"/>
	<path d="M536.4,279c2.6,6.7,8.9,8.4,13.7,4.1c7.7-6.9,15.3-13.9,23-20.9c1.8-1.6,3.7-2.7,6.1-1.4c2.5,1.4,2.8,3.9,2.1,6.2
		c-4.2,15.6-11.7,28.9-26.6,36.6c-5.9,3.1-12.3,3.9-18.8,1.8c-2.2-0.7-3.4-0.1-4.8,1.4c-3.8,4-7,4.8-12.3,1.1
		c-0.7-0.5-0.9-1.1-1.2-1.8c-3.9-10.4-5.2-21.3-6-32.2c-1-12.8-0.8-25.7-1-38.6c0-3-0.6-4.7-4.1-4.3c-8.4,1-14-4.2-19.7-9.1
		c-9.4-7.9-15.5-17.4-15.7-30.1c-0.2-16.7,12.3-30.9,29.3-33.5c24.1-3.6,39.6,12.9,42.2,35.8c1.3,11.1-0.9,21.9-2.6,32.7
		c-1.3,8.7-2.3,17.3-0.3,26c0.4,1.6,0.3,3.7,2.2,4.5c2.2,0.9,3.4-1.1,4.7-2.3c4.7-4.5,8.8-9.5,13.9-13.6c1.4-1.1,2.9-2.7,5-1.7
		c2.3,1.1,3.4,3.1,3.6,5.7c0.9,11.8-10.1,30.6-22,33.7C543.5,280.2,540.2,280,536.4,279z"/>
	<path d="M374.2,463.8c4.2,0.5,8.3,0.8,12.5,1.2c7.9,0.8,13.2,6.1,15,13.7c2.1,8.9-0.9,14.9-8.2,19.6c-8.1,5.3-16.4,7.2-25.4,2.9
		c-3.4-1.6-6.9-3.3-9.5-6.3c-1.7-2-3.7-1.9-6-0.8c-7.2,3.5-12.4,9.2-17.1,15.4c-4.2,5.6-8.2,11.3-13.8,15.7
		c-1.4,1.2-2.3,1.4-3.7,0.1c-9.8-9.5-19.5-18.9-29.7-27.9c-4-3.5-4.2-5.2-1.3-9.4c15.4-21.7,29.8-44.1,49.6-62.2
		c9.4-8.6,20.2-14.5,33.6-14c11.3,0.4,20.1,7.2,22.1,18.5c2.1,11.8-0.8,22.2-10.7,30C379.4,462,376.6,462.2,374.2,463.8z"/>
	<path fill="#000100" d="M214.8,145.7c12.4-0.6,24.4,1,35.6,6.6c16.1,8.2,25.8,20.6,28.4,39c0.9,6.4,1.3,12.7,0.3,18.7
		c-2.5,15.1-7.7,29.6-21.3,37.9c-10.3,6.3-21.9,8.1-34.2,2.3c-21.7-10.4-21.7-38.5-10.3-51.6c4.5-5.1,9.4-9.6,14.7-13.7
		c2.5-1.9,2.3-3.2-0.1-5.1c-3-2.3-6.5-2.5-9.9-3c-3.7-0.6-7.5-0.5-11.2-1c-4.9-0.7-8.6,1.2-12.1,4.3c-10.3,9.1-17.7,20.2-22.2,33.2
		c-2.2,6.5-4,13.1-7,19.3c-0.5,1.1-0.7,2.5-2.3,2.6c-1.7,0-2.2-1.4-2.8-2.6c-1.5-3-2.2-6.2-1.7-9.4c2.4-16.4,5.5-32.6,13.7-47.4
		c6-10.8,14-19.6,23.6-27.3c2.6-2.1,5.8-2.3,8.9-2.6C208.1,145.5,211.4,145.7,214.8,145.7z"/>
	<path d="M231.9,421.6c13.2,14.1,16.7,33.8-1.1,50.4c-5.1,4.8-11.2,5.7-17.5,6.4c-3.1,0.4-3.4,1.7-3.4,4.3c0.2,17.2,1.4,34.4,1,51.7
		c-0.2,6-0.5,12-1.6,17.9c-0.4,2.1-0.9,4.1-1.9,6c-2.1,4.1-2,4.2-5.7,1.2c-6.2-4.9-12.7-9.2-20.1-12.1c-1.7-0.6-3-0.5-4.6,0.2
		c-6.7,3.2-10.9,8.1-11.3,15.8c-0.1,1.8,0.5,4.7-2,5c-2,0.2-2.4-2.5-3.2-4.1c-6.2-12.4-4.3-23.5,4.4-33.9c6.3-7.6,14.7-7.5,23.1-7.9
		c5-0.3,5.1,0,4.7-5.2c-1.4-18.2-4.7-36.1-8.4-53.9c-2.5-11.9-2.2-23.7,4.8-34.3c4.8-7.3,10.7-13.4,19.8-15.4
		c5.6-1.2,10.6,0.2,15.5,2.6C227.5,417.2,230,419,231.9,421.6z"/>
	<path fill="#010100" d="M440.2,121.5c0.2,9.2-3.2,15.4-7.9,21.1c-6,7.3-13.6,12.8-21.5,17.9c-13.7,8.9-27.5,17.6-41.1,26.7
		c-3.4,2.3-6,2.7-9.6,0c-6.6-4.9-12.8-10.3-19-15.7c-3.7-3.2-7.3-6.3-11.9-8.3c-4.5-2-4.7-4-1.3-7.6c2.7-2.9,6-5.2,9.3-7.5
		c7.7-5.4,15.9-9.9,22.7-16.4c2.6-2.5,3.2-4.5,0.8-7.6c-2.8-3.6-5.1-7.5-6.3-12.2c-3-12.5,8.8-25.9,21.7-23.5
		c7.5,1.4,18.4,8,18.3,18c0,5.1-1.7,9.7-3.9,14.2c-4.8,9.8-13.3,16.3-21.1,23.3c-1.6,1.4-2,2-0.1,3.5c3.1,2.3,5.8,5.1,8.8,7.6
		c3.4,2.8,6.8,2.9,10.7,0.7c5-2.9,8.7-7.6,13.7-10.3c2-1.1,0.2-2.1-0.4-2.9c-2.8-3.9-5.4-7.8-6.6-12.5c-1.1-4.5-0.7-8.6,2.1-12.4
		c2.4-3.3,4.1-7.2,7.5-9.7c8.1-5.9,19.5-4.5,28.6,3C437.8,113.9,440.3,117.6,440.2,121.5z"/>
	<path fill="#030503" d="M296.4,155.9c0.3,7.7-5.3,14-13.3,13.2c-6.2-0.6-10.2-4.2-13.3-9.1c-2.3-3.6,0-7,1.2-10.2
		c2.8-7.7,11.2-11.5,16.9-7.6C293.2,145.8,295.7,151.1,296.4,155.9z"/>
	<path fill="#040704" d="M255.2,124.9c7.6,0.1,12.1,4,13.1,11.5c0.3,2.1,0.1,4.2-0.3,6.3c-0.9,4.6-2.4,8.8-7.7,9.9
		c-5.1,1.1-9-1.4-12.1-5.1c-2.6-3-4-6.6-4.4-10.8C243,129.2,246.4,126.1,255.2,124.9z"/>
	<path fill="#AFC4C4" d="M231.9,421.6c-2.5-1.7-5-3.5-7.5-5.2c0.5-0.2,0.9-0.4,1.4-0.7c2.5,1.4,4.8,3.1,6.8,5.2
		C232.4,421.1,232.1,421.3,231.9,421.6z"/>
	<path fill="#545454" d="M87.4,410.4c4.5,0,9,0,13.6,0C96.5,411.2,91.9,411.4,87.4,410.4z"/>
	<path fill="#545454" d="M106.4,410.3c2.6-1.3,5.4-0.8,8.1-0.6C111.8,410.4,109.1,410.4,106.4,410.3z"/>
	<path fill="#FEB9FB" d="M209.3,373.7c-0.2-10.2,3-19.5,9.9-26.7c9.8-10.4,22-17.3,36.7-16.3c6.9,0.4,12.1-1.6,17-5.7
		c2.8-2.3,5.4-4.8,8.2-7.1c11.7-10.1,18.7-10,30.2,0.5c0.7,0.7,1.4,1.4,2.1,2.1c2,2,2.6,3.1-0.1,5.9c-9.6,9.7-21.8,15.6-32.7,23.4
		c-11.4,8.1-23.3,15.5-34.8,23.4c-1.9,1.3-3.1,1.5-4.5-0.7c-0.9-1.4-2.3-2.6-3.7-3.7c-2.1-1.6-4.5-3.3-7.1-1.7
		c-2.9,1.8-4.2,5.2-3.2,8.1c3.9,11.2,9.3,21.6,18.4,29.4c3.5,3,6.4,2.9,9.1,0.5c2.6-2.3,3-5.4,1.4-9.2c-1.1-2.6-4-5.2-3.1-7.5
		c0.8-2.1,4.2-3.2,6.5-4.7c19-12.6,38.1-25.1,57.2-37.7c1.3-0.9,2.4-1.9,4.3-1c2,0.9,3.4-1,4.9-1.9c0.8-0.4,1.4-1.4,2.4,0
		c6.4,9.5,3,27.3-6.5,33.9c-3.4,2.4-7.2,3.3-11.1,4.1c-7.4,1.4-12.3,5.2-13.8,13.1c-1.3,6.9-5.9,12-11.2,16.4
		c-8.8,7.4-18.9,12.2-30.4,13.1c-11,0.9-20.7-3-28.7-10.4C215.1,402.6,209.6,389.2,209.3,373.7z"/>
	<path fill="#FDB9FA" d="M442.8,262.8c1.7-1.1,3.4-2.1,5-3.3c1.2-1,2.1-1,3.6-0.3c3.5,1.8,7.5,0.2,8.6-3.3c1.3-4-2.1-4.6-5.2-6.2
		c2.1-1.4,3.9-2.5,5.6-3.8c1.2-0.9,1.7,0.3,2.5,0.7c2.2,1,4.4,3.3,7,0.8c1.5-1.4,2.7-3.2,1.9-5.3c-1-2.7-3.5-1.6-5.5-1.8
		c-0.5-1.3,0.7-2,0.9-3.1c0.4-2.2-0.2-3.6-2.6-4.1c-3.9-0.8-6.8,0.5-8.6,4.2c-0.7,1.5-2,2.2-3.2,3c-3.2,2.2-6.5,4.3-9.7,6.4
		c-0.2,0.1-0.5,0.1-1,0.3c0.4-1.9,1.7-3.4,1.9-5.2c0.2-2-0.3-3.5-2.1-4.3c-2.6-1.3-10.8,0.9-12.4,3.3c-2.1,3-1.5,5,2.7,8.2
		c-3.3,2.2-6.4,4.2-10,6.6c-0.5-6.7-2.5-13.1,2.9-18.4c3.8-3.8,8.7-5.4,13.6-6.5c4.8-1.1,9.4-2.8,14.5-2.9c3.4-0.1,6.5-2.1,10.1-2
		c2.7,0,4.8,0.6,6.7,2.6c4.3,4.3,7.3,9.4,9.2,15.2c0.9,2.9,0.4,5.3-1.9,7.5c-7,6.3-14.5,11.7-23.1,15.8c-2.6,1.3-4.5,1.3-6.6-0.9
		c-0.8-0.9-1.8-2.1-3.4-1.7C443.9,263.5,442.3,264.1,442.8,262.8z"/>
	<path fill="#FDB9FA" d="M229.1,374.2c0.5-2.3,0.5-4.5,2.7-5.4c1.9-0.8,3.3,0.7,4.6,1.8c8.3,7.5,13.4,17.3,18.4,27
		c1.2,2.3-0.6,4.1-2,5.6c-1.4,1.5-3.1,1-4.8,0.1c-2-1.1-3.5-2.8-5-4.5c-5.8-6.8-10-14.5-13.4-22.8
		C229.4,375.3,229.3,374.6,229.1,374.2z"/>
	<path fill="#C791C5" d="M459.7,242c-47.6,31.3-95.1,62.6-142.7,94c-0.2-0.3-0.5-0.7-0.7-1c47.5-31.4,95.1-62.8,142.6-94.2
		C459.2,241.1,459.5,241.6,459.7,242z"/>
	<path fill="#F9B6F6" d="M420.7,229.3c-3.7,0-6.3-2-6.4-4.9c0-3.6,3.3-6.8,7.2-6.6c1.8,0.1,4.7-0.4,4.8,2.6
		C426.5,227.6,425.2,229.3,420.7,229.3z"/>
	<path fill="#FBB7F8" d="M484.3,259.6c1.9,0.5,4.6,0.5,4.3,3.8c-0.2,3.5-3.7,9-5.6,8.8c-3.3-0.2-6.9-3.8-6.5-6.5
		C476.8,263.3,481.7,259.3,484.3,259.6z"/>
	<path fill="#AF7EAC" d="M247.5,380.4c22.1-14.6,44.2-29.2,66.4-43.9c0.2,0.4,0.5,0.7,0.7,1.1c-22.1,14.6-44.3,29.2-66.4,43.8
		C248,381,247.7,380.7,247.5,380.4z"/>
	<path fill="#FAB7F7" d="M452.6,220.5c-3.3,0-6.8-2.5-6.8-5.5c0-2.4,2.9-4.5,6-4.4c3.5,0.1,7.5,3.2,7.1,5.9
		C458.6,219.4,456.4,220.6,452.6,220.5z"/>
	<path fill="#684A66" d="M390,293.2c-23.5,15.6-47,31.1-70.9,46.9c-0.1-2.2,1.3-2.4,2.1-2.9c22.2-14.7,44.5-29.3,66.8-44
		c0.4-0.3,0.9-0.5,1.3-0.7C390.1,292.2,390.2,292.6,390,293.2z"/>
	<path fill="#765474" d="M250,384.2c22.2-14.6,44.3-29.2,66.5-43.8c0.2,0.3,0.4,0.6,0.6,1c-22.1,14.6-44.3,29.2-66.4,43.8
		C250.5,384.9,250.2,384.5,250,384.2z"/>
	<path fill="#FAB6F7" d="M463.3,281.3c0.3,2.3-3.1,6.6-5.4,6.6c-3,0-3.9-2.2-4.2-4.7c-0.5-3.7,1.4-6.7,4.3-7.1
		c1.8-0.2,3.4,0.1,5,1.1C465.2,278.5,462,280.2,463.3,281.3z"/>
	<path fill="#543B53" d="M390,293.2c-0.2-0.2-0.5-0.4-0.7-0.6c12.7-8.5,25.4-17,38.2-25.4c6.6-4.4,13.3-8.6,20-13
		c0.8,1.1-0.2,1.2-0.5,1.4C428.1,268.1,409.1,280.7,390,293.2z"/>
	<path fill="#F9B6F6" d="M438.8,239.2c2.6-0.1,3.3,1.1,2.4,3.4c-0.7,1.9-1.7,3.6-3.6,4.5c-1.8,0.9-6.1-0.2-6.9-2.1
		c-1.1-2.6,1.2-3.3,2.8-4.3C435.1,239.8,436.9,239.3,438.8,239.2z"/>
	<path fill="#EDADEA" d="M453.3,252.1c1.7,0.6,4.3,0.3,4.3,2.6c0,1.9-2.1,3.1-4,3.2c-2.4,0.1-3.1-2.1-3.2-3.8
		C450.1,252.2,452.1,252.5,453.3,252.1z"/>
	<path fill="#DDA1DA" d="M464.9,236.4c-0.8,1.9-1.7,3.7-4,3.4c-1.1-0.1-3.1-0.6-2.9-1.8c0.5-2.5,3.1-2.4,5.1-2.9
		C464.1,234.9,464.8,235.5,464.9,236.4z"/>
	<path fill="#745373" d="M334.8,333.7c-3.7,4.2-8.2,7.1-12.8,10c-0.2-0.4-0.5-0.7-0.7-1.1C325.8,339.6,330.3,336.6,334.8,333.7z"/>
	<path fill="#D99ED6" d="M469.5,243.6c-0.5,1.3-1.1,2.6-2.7,2.6c-1.2,0-3-0.3-2.8-1.7c0.2-1.6,2.2-1.7,3.6-2
		C468.4,242.3,469.4,242.2,469.5,243.6z"/>
	<path fill="#D9D4D9" d="M482.4,274.7c-3.7,3-3.8,2.9-6.8-1.5C478,273.7,480.4,273,482.4,274.7z"/>
	<path fill="#EAE7EA" d="M452.9,287.6c0.6,0.7,1.2,1.4,1.9,2.2c-4.2,1.8-4.7,1.5-5.3-3.1C451,285.6,452,286.6,452.9,287.6z"/>
	<path fill="#8B6889" d="M452.9,287.6c-1.1-0.3-2.3-0.6-3.4-0.9c0.2-2.1,0.4-4.2,1.7-7C451.8,282.8,451.7,285.4,452.9,287.6z"/>
	<path fill="#866084" d="M442.8,262.8c0.4,0.5,0.9,0.9,1.3,1.4c-2.3,0-3.9,2.1-6.4,2.1C439.2,264.8,440.7,263.4,442.8,262.8z"/>
	<path fill="#FE005F" d="M478.7,432.1c1.9,0.7,2.3-1.1,3.1-2c1.8-1.8,3.4-3.8,5.3-5.6c-4,7.5-8.1,14.8-10.1,23.1
		c-1.2,5-1.2,9.9,0.1,14.8c0.4,1.4,1.1,3,2.9,3c1.8,0,2.6-1.3,3.2-2.7c3.1-7.4,3.6-15,1.4-22.7c-0.2-0.8-0.5-1.7-0.9-2.5
		c-0.7-1.4-0.2-2.7,0.8-3.2c1.1-0.6,1.6,0.9,2.1,1.6c5.6,8.1,6.2,16.6,2.3,25.5c-1.5,3.3-3.2,6.5-5.1,9.6c-0.4,0.7-1.2,1.5,0,2.1
		c1,0.5,1.2-0.6,1.5-1.2c9-13.1,12.5-26.4,1.6-39.9c-0.4-0.4-0.9-1-0.4-1.7c1.2-0.5,1.3,0.7,1.9,1.2c2.1,1.6,2.9,5,6.5,4.6
		c0.4-0.1,1.1,1.2,1.5,2c6.9,14,7.2,28.1,1.1,42.6c-2.3,5.4-5.3,10-9.8,13.6c-6.2,4.9-13.2,4.2-18.2-1.9
		c-11.7-14.4-11.9-30.3-6-46.9c2.4-6.8,6.7-12.5,12.2-17.7c0.3,1-0.8,2.3,0.6,2.8C477.2,431.1,478.2,431.2,478.7,432.1z"/>
	<path fill="#FE005F" d="M498.1,369.1c-0.5,1.8,1,2,2.1,2.5c3,1.3,5.9,2.6,9,3.7c1.8,0.7,2.1,1.5,1,3c-0.2,0.2-0.2,0.4-0.4,0.6
		c-1.2,1.9-1.9,4.6-3.6,5.5c-2.2,1.2-3.4-2-5.2-3c-12.1-7.3-24.2-1.1-27.1,14c-0.2,4.1-0.6,8.3,1.1,12.3c1.8,3.1,3.2,6.4,5.6,9.1
		c0.6,0.7,1.7,1.6,0.5,2.5c-0.9,0.7-1.6-0.4-2.1-0.9c-1.8-1.9-3.6-3.8-5.4-5.7c-0.6-0.7-1.2-1.8-2.4-0.6c-1.2,1.2-0.1,1.7,0.6,2.4
		c2,1.9,4,3.7,6,5.6c0.5,0.5,1.2,1.1,0.6,1.9c-0.8,1.1-1.5,0.4-2.2-0.2c-2.4-2.1-4.8-4.4-7.3-6.4c-0.7-0.6-1.4-2.7-2.9-1
		c-1.5,1.6,0.5,2.1,1.3,2.7c2.4,2,4.8,4,7.2,5.9c0.7,0.6,1.5,1,0.7,2.1c-0.8,1-1.5,0.9-2.5,0.2c-9-6.8-17.9-13.9-22.6-24.4
		c-1.9-4.3-2.2-9.2-0.5-13.9c4.4-12.4,21-23.9,34.2-23.6c5,0.1,9.8,1.5,14.4,3.6C498.8,367.6,498.7,368.4,498.1,369.1z"/>
	<path fill="#FC005E" d="M515.7,390.1c2.5,3.8,2.3,7.8,1.6,11.8c-0.2,1.1-1.4,2.7,0.6,3.1c2.3,0.5,1.7-1.8,1.9-2.9
		c0.7-4,0.5-8-1.5-11.7c-0.5-0.9-1.4-1.8-0.9-3.1c1-2.7,2.7-3,4.6-0.8c9.2,10.8,2.6,27.9-12,31.2c-4.1,0.9-8.2,0.8-12.2-0.4
		c-0.8-0.2-1.9-0.6-2.1,0.6c-0.2,1,1,0.9,1.6,1.1c14.2,5.1,30.2-4.9,31.3-19.8c0.4-5.3-1.4-10.1-4.6-14.3c-0.8-1-1.6-2-2-3.5
		c2.2,1.4,4.2,2.9,5.6,5.2c8.1,13,2.4,27.5-8.6,35c-8.1,5.5-16.3,6.2-24.9,0.8c-1.7-1.1-1.9-1.9-0.8-3.4c1.3-1.7,2.3-3.6,3.7-5.2
		c0.7-0.9,1.4-3.9,3.1-0.5c0.2,0.3,1.7,0.2,2.5,0c6.1-1.3,11.5-9.5,10.3-15.5C512.1,393.6,512.1,393.6,515.7,390.1z"/>
	<path fill="#FDFDFD" d="M481,414.1c-7.4-10.1-6.9-22.6,1-30c5.9-5.4,18.1-3.7,21.9,3.1c0.5,0.8,0.1,1.4-0.3,2
		c-2.8,4.5-5.5,8.9-8.3,13.4c-1.1,1.7-2.3,3.3-3.5,5c-2.7-2.6-2.9-6-3.9-9c-0.4-1-0.6-2.2-0.8-3.3c-0.3-1.5-0.5-3.1-2.4-3.2
		c-2-0.1-3.2,1.1-4,2.8c-1.3,3.1-1,6.4-0.5,9.6c0.4,2.6,0.4,5.4,1.6,7.9C482,413.3,482.3,414,481,414.1z"/>
	<path fill="#FD005E" d="M524.4,363.9c-2.4,0.6-3.9-0.3-4.8-2.6c-1.1-3.1-3.8-5.1-6.5-6.6c-2.4-1.4-5.1-1-7.4,0.7
		c-1.5,1.1-2.6,2.7-4.4,0.3c-1.6-2.1-3.7-3.9-1.5-6.8c1.7-2.2,1.7-6.3,5.7-6c5.7,0.4,11.6,0.2,15.7,5.4c2.7,3.4,3.9,7.5,4.1,11.8
		C525.2,361.3,526.5,363,524.4,363.9z"/>
	<path fill="#F2005A" d="M498.9,401.4c4.8-8,9.6-15.9,14.3-23.9c1.3-2.1,2.6-4.2,3.5-6.6c1.7-4.3,0.5-8.1-1.6-12
		c3.8,3.4,5.5,7.4,4.1,12.4c-1.6,5.5-4.6,10.1-7.8,14.8C507.7,391.7,503.6,396.9,498.9,401.4z"/>
	<path fill="#F8F8F8" d="M482.3,439.5c2.5,7.7,2.4,15.2-1,22.7c-0.2,0.5-0.6,1.3-1.3,1.1c-0.9-0.3-1-1.3-1.2-2.1
		C476.7,453.5,478.9,446.4,482.3,439.5z"/>
	<path fill="#F9F9F9" d="M500,410.5c3.4-4.7,6.7-9.2,10.1-13.8C512.5,403.3,506.8,411.1,500,410.5z"/>
	<path fill="#620020" d="M478.7,432.1c-0.7-0.5-1.5-1-2.2-1.5c3.8-2.1,5.9-5.8,8.8-8.9c3.7-3.9,7.1-8,10.6-12.1
		c0.3,0.2,0.5,0.4,0.8,0.6c-2.1,2.6-4.3,5.1-6.4,7.7C486.4,422.7,481.9,426.8,478.7,432.1z"/>
	<path fill="#A4003A" d="M483.3,394.8c1,1.4,0.4,2.4,0.2,3.5c-0.8,4.9-0.3,9.5,2.9,13.4c0.8,1,1.5,2-0.1,2.7
		c-1.5,0.7-1.6-0.8-1.9-1.6c-1.6-4.3-2.7-8.8-2.7-13.5C481.8,397.7,482.1,396.1,483.3,394.8z"/>
	<path fill="#AA003D" d="M524.4,363.9c1.4-1.1,0.4-2.7,0.9-3.9c1.4,7.3-0.5,13.9-4.8,19.8C521.9,374.5,524.3,369.5,524.4,363.9z"/>
	<path fill="#CF004C" d="M498.1,369.1c0-0.7,0-1.5,0-2.2c5.3,1.5,10.1,4,14.7,6.9c-2.9,0.2-5.2-1.7-7.7-2.5
		C502.8,370.6,501,368.1,498.1,369.1z"/>
	<path fill="#D4145B" d="M485.4,399.3c1.8,2.1,1.8,4.6,2.9,6.6c0.4,0.7-0.3,1.5-1,1.8c-1.1,0.5-1.2-0.6-1.4-1.2
		C485.1,404.3,485,402,485.4,399.3z"/>
	<path fill="#89002F" d="M493.1,433.2c-1.8-1.9-4.2-3.3-5.2-6.6C490.9,428.4,492.2,430.6,493.1,433.2z"/>
	<path fill="#A3A3A3" d="M475,407.6c-2.6-3.9-1.5-8.1-1.1-12.3C474.2,399.4,474.6,403.5,475,407.6z"/>
	<path fill="#D0004C" d="M512.9,357.8c-1.9,0-3.9,0-6.2,0C508.9,355.9,510.8,355.6,512.9,357.8z"/>
	<path fill="#B2B2B2" d="M481,414.1c0.2-0.5,0.5-1,0.7-1.5c0.7,1.4,1.4,2.8,2.5,4.8C482.1,416.4,481.5,415.3,481,414.1z"/>
	<path fill="#620020" d="M500.5,404.8c-0.7,1.1-0.9,2.6-2.9,3.4C498.2,406.3,499,405.3,500.5,404.8z"/>
	<path fill="#2500F4" d="M129.1,307c-6-1.3-12.1-2.5-18-4.1c-10.8-2.8-16.9-11.5-17.2-22.7c-0.2-8.4,1.2-16.3,5.1-23.7
		c0.7-1.3,1.4-2.4,3.1-2.9c6.4-2.2,13-3.5,19.7-2.9c4.9,0.5,8.7,3.3,12.1,6.7c1.2,1.2,2.7,4.1,4.2,2.6c1.6-1.5-1.4-2.9-2.5-4.1
		c-4.4-4.7-9.6-8.1-16.5-7.9c0.2-1.3,1-1,1.4-1.1c0.6-0.1,1.2-0.2,1.9-0.2c2.9-0.6,5.4,0.5,8,1.7c11.3,7.6,16,19.1,18.8,31.7
		c1.1,5.1,1.8,10.2,1.6,15.5c0.7,3.5,0.4,7,0.1,10.5c-0.3,6-1,12-2.1,18.9c-0.5-10.6,1.2-20.4,0.7-30.1c-0.1-1.7,0.2-3.5-2.4-2.9
		c-0.9,3.5-0.2,7.1-0.4,10.6c-0.1,1.4,0.4,2.9-0.4,4.3c-0.6,12.4-1.2,24.7-2.2,37.1c-1,12.9-2.3,25.8-4,38.6c-1.1,8-2,16-5.8,23.4
		c-1.3,2.6-3.1,3.2-5.4,2.6c-8.9-2.4-17.7-0.9-26.5,0.1c-0.4,0-0.7-0.1-1.1-0.1c-5.3-0.2-10.5-0.2-15.8,0c-0.1,0-0.3,0.1-0.4,0
		c-7.8-2.2-7.8-2.2-5.9-10.3c1.8-8.1,3.1-16.4,3.2-24.7c0.1-9-1.3-18-3.7-26.8c-0.1-0.5-0.3-0.9-0.4-1.4c-1.7-7.1-1.7-7.1-9-7.3
		c-14.5-0.4-22.8-7.2-28.2-20.6c-3.6-8.8,0.2-14.4,5.4-20c5.3-5.7,11.9-5.3,18.7-2.9c3,1.1,5.7,2.6,8.3,4.2c0.7,0.4,1.5,1.4,2.2,0.4
		c0.9-1.2-0.3-1.7-1.1-2.3c-6.3-5-15.2-7.3-22.8-6.1c2.5-2.7,9.6-4.1,13.1-2c7.5,4.5,15,8.9,20.7,15.8c6.6,8.1,9.6,17.6,11.3,27.8
		c1.3,7.5,1,15.1,1.9,22.5c0.1,0.7,0.3,1.6-0.8,1.8c-1.2,0.2-1-0.8-1-1.5c-0.3-9.4-3.6-18.4-4.4-27.7c-0.1-1.2-0.1-2.4-1.8-2.2
		c-1.8,0.3-1,1.7-1,2.7c0.4,7.7,3.1,14.9,4.2,22.4c1.4,9.2,1.6,9.2,10.9,10.8c5.2,0.9,10.4,1.5,15.6,1.6c2.9,0,4.4-1.5,4.7-4.2
		c0.9-7.8,2.1-15.5,2.5-23.3c0.3-6.7,1.4-13.3,1.4-20.1C129.5,312.6,129.9,309.7,129.1,307z"/>
	<path fill="#949494" d="M85.6,408.6c5.3-0.9,10.5-0.8,15.8,0C96.1,409,90.8,409,85.6,408.6z"/>
	<path fill="#120091" d="M146.3,306.9c0.5-5-0.9-10,0.8-14.9C146.6,296.9,147.8,301.9,146.3,306.9z"/>
	<path fill="#11037D" d="M151,306.1c0-3.5-0.1-7-0.1-10.5C152.1,299.1,151.8,302.6,151,306.1z"/>
	<path fill="#B4B4B4" d="M130.4,248.4c-2.7-0.6-5.3-1.1-8-1.7C125.4,245.6,128,246.5,130.4,248.4z"/>
	<path fill="#0E007C" d="M129.1,307c1.4,2.8,0.7,5.6,0.2,8.4C129.2,312.6,129.1,309.8,129.1,307z"/>
	<path fill="#FEDB00" d="M523,280c-0.3-15.1,1.8-30.2,1.6-45.3c0-0.9,0-1.8,0-2.6c-0.2-2.1,0.3-4.4-1-6.2c-1.8-2.5-3.9,0-5.8,0.3
		c-16.6,3-27.2-9.1-29.8-22.1c-2.4-12.3-0.2-23.6,6.9-33.8c9.1-12.9,21.6-12,32.2-2.7c11.5,10.1,13.9,23.8,13.1,38.2
		c-0.6,11-3.6,21.7-4.3,32.6c-0.3,5.9-0.1,11.7,1.6,17.4c1.5,4.7,4.8,5.8,9.1,3.4c4.1-2.3,7.3-5.5,10.1-9.3c1.6-2.1,3.5-3.9,5.3-5.8
		c0.8-0.8,1.8-1.8,2.9-1.4c1.4,0.4,1.3,2,1.5,3.2c0.4,2.5-0.1,5-0.8,7.4c-2.5,8.8-6.9,16.2-14.4,21.7c-2,1.4-4.3,2-6.5,2.8
		c-3.3,1.2-5.3-1.1-7.5-2.9c-0.9-0.8-1.5-1.8-3.1-0.9c-1.5,0.9-1.1,2.1-1,3.2c0.6,5.6,4.3,8.9,9.1,10.2c4,1.1,8.3,0.7,11.7-2.8
		c6.2-6.5,12.6-12.8,19.1-19.1c1.3-1.3,3-3.7,4.9-2.6c2,1.2,1,3.9,0.4,5.9c-4.3,13.7-11.2,25.6-24.4,32.7c-5.2,2.8-10.8,4-16.5,1.4
		c-3.4-1.5-6.2-1.1-8.5,2.1c-1.7,2.3-2.8,1.3-3.6-0.8c-1.4-3.4-2.2-6.9-2.4-10.5C522.9,289.2,523,284.6,523,280z"/>
	<path fill="#FDDB00" d="M503.3,228.3c-8.7-1.2-14.3-7.3-20-12.9c-8.9-8.8-11.9-20-8.9-32c2.6-10.4,9.8-17.3,19.9-21.1
		c1.6-0.6,3.3-1,5-1.5c0.5-0.1,1-0.1,2.4-0.1c-11.8,9.1-16.4,20.9-16.5,34.7c-0.1,14.5,5.6,25.5,18.9,32
		C504.3,228.1,504.1,228.5,503.3,228.3z"/>
	<path fill="#FBD800" d="M524.3,307.9c-3.6-1.4-4.7-3.7-5.1-6.6c-2.6-15.1-2.8-30.3-2.9-45.5c0-7.5,0.1-15-0.6-22.4
		c-0.2-2.3,2.8-5.5,5.2-5.7c1.8-0.2,1.6,1.2,1.7,2.2c0.5,4.6,0.2,9.2,0,13.8c-0.9,15.8-2.6,31.6-2,47.4
		C520.7,296.8,521.6,302.1,524.3,307.9z"/>
	<path fill="#808080" d="M514.2,247.9c0,8.9,0,17.9,0,27.8c-1.5-3.4-1.2-6.1-1-8.7c0.9-5.4-0.3-10.8-0.1-16.1
		C513.3,249.8,512.8,248.5,514.2,247.9z"/>
	<path fill="#E7C700" d="M514.2,247.9c-0.1,1-0.3,2-0.4,2.9c-2.3-2-0.3-4.7-1.2-7c0-4.1,0-8.1,0-12.2
		C514.5,237,513.9,242.5,514.2,247.9z"/>
	<path fill="#F1F1F1" d="M512.6,243.9c1.3,2.2-0.7,4.9,1.2,7c-0.3,5.4,0.5,10.8-0.6,16.2C513.1,259.3,512.2,251.6,512.6,243.9z"/>
	<path fill="#A99100" d="M503.3,228.3c0.3-0.3,0.6-0.6,0.9-0.9c3.6,1,7.3,0.6,11,1.2C511.1,229.1,507.2,229.4,503.3,228.3z"/>
	<path fill="#DF00FE" d="M320.2,446.9c8.3-10.9,17.4-20.9,29.4-27.8c3-1.7,6.1-3,9.3-3.8c1.4-0.3,4.2-2.7,4.6,1.4
		c0,0.3,2,0.4,3.1,0.6c8.7,1.2,16,4.7,20.2,12.9c5.6,11.1-0.1,22.4-11.1,27.3c-13.6,6.1-22.3,0.6-31.8-9.6c-2.2-2.4-3.6-3-6-0.5
		c-8.7,9.5-16.5,19.8-24.4,29.9c-1.5,1.9-0.9,3.4,0.6,4.9c4.6,4.8,10.2,8.4,15.7,12.1c1.7,1.2,4.2,0.9,6-0.5
		c4.3-3.4,8.5-6.9,12.8-10.4c0.5-0.4,1.2-1.2,0.5-1.4c-4.1-1.6-0.2-2.8,0.4-3.5c10.7-11.9,24-14.8,39.2-10.9
		c4.4,1.1,7.6,3.8,9.1,8.4c-4.1-3-8.4-5.5-13.2-7.1c-0.9-0.3-1.9-0.6-2.9-0.8c-0.6-0.1-1.4-0.3-1.6,0.4c-0.3,1.1,0.6,1.1,1.3,1.3
		c5,1.5,9.6,3.6,13.5,6.9c5.6,4.8,5.6,12.8-0.1,17.7c-11.3,9.7-24.3,9.2-34.8-1.3c-4.6-4.6-4.6-4.6-10-1.1
		c-11.6,7.5-21,17.2-29.2,28.2c-1.6,2.2-2.5,2.7-4.6,0.4c-7.4-7.7-15.1-15.3-22.8-22.8c-1.8-1.8-1.8-2.8-0.3-4.8
		c4.3-5.7,6.5-12.6,10.4-18.5c7.9-11.8,16.8-22.6,26.6-32.8c0.7-0.7,2.6-1.3,1.3-2.9c-1.6-1.8-2.3,0.3-3.1,1.1
		c-2.5,2.6-5,5.3-7.4,7.9C320.4,448.1,320,447.8,320.2,446.9z"/>
	<path fill="#FEFEFE" d="M356.4,469.6c-6.1,4.5-10.7,10.4-16.2,15.5c-3.8,3.5-4.7,3.5-8-0.4c-2.4-2.9-6-4-8.9-6.1
		c-4.1-3-4.3-3.8-1.1-7.7c5.8-7,12.4-13.3,18.9-19.7c0.7-0.7,1.2-1.6,2.4-0.4c4.7,5,10.8,7.8,16.6,11.2c0.8,0.9,3,0.1,2.7,2.2
		c-0.2,1.6-1.4,2.3-2.7,2.8C358.7,467.6,357.2,468.1,356.4,469.6z"/>
	<path fill="#DA00F8" d="M318,477.3c0.2,0.1,0.3,0.1,0.4,0.2c4.1,4.7,10.9,6,14.6,11.4c0.9,1.4,0.1,2.1-0.4,3
		c-0.7,1.3-1.4,0.3-2.1-0.2c-4.6-3.2-9.4-6.2-13.5-10c-0.8-0.8-1.8-1.5-0.9-2.8C316.6,478.2,317.1,477.3,318,477.3z"/>
	<path fill="#D800F6" d="M300.1,476.4c-2.6,5.5-4.9,11.1-8.5,16c-0.6,0.8-1.2,2.6-2.8,1.6c-1.4-0.9-1-2.3-0.3-3.6
		c3.1-5.5,6.7-10.7,10.7-15.6C300.6,474.7,300.6,475.4,300.1,476.4z"/>
	<path fill="#B200CB" d="M300.1,476.4c-0.1-0.6-0.1-1.3-0.8-1.5c6.8-9.4,13.4-19,21-27.9c0.3,0.3,0.7,0.7,1,1
		C313.9,457.2,306.6,466.5,300.1,476.4z"/>
	<path fill="#D107EC" d="M387.9,426.7c-5.5-7.3-12.8-11.2-22.3-12.1c7.8-2.2,17.2,1.6,21.5,8.2C387.5,424.1,388.9,425.1,387.9,426.7
		z"/>
	<path fill="#FDFDFD" d="M356.4,469.6c0.2-1.7,1.2-2.7,2.9-3c1.5-0.2,2.6-0.9,3-2.4c0.4-1.6-1.8-1.1-2.1-2.3
		c3.9,0.5,7.7,2.2,11.8,1.9C366.4,464.9,361.3,467,356.4,469.6z"/>
	<path fill="#A413B8" d="M384,455.3c-3.3,4.2-7.5,6.5-12.9,6.3C375.5,459.7,380,458,384,455.3z"/>
	<path fill="#95549E" d="M387.9,426.7c-0.3-1.3-0.5-2.6-0.8-3.9c2.4,2.2,2.8,5.2,3.6,8.9C388.9,429.9,388.4,428.2,387.9,426.7z"/>
	<path fill="#5CFE53" d="M208.1,214.4c1.7-9.7,7.6-16.6,15-22.5c3-2.4,6-4.8,8.5-7.9c1.4-1.7,1.2-2.9,0-4.2c-5-6-10.8-9.7-19.3-9.6
		c-12.2,0.1-21.2,4.6-28.1,14.6c-5,7.2-10.2,14.2-14.9,21.6c-0.5,0.8-0.6,1.7-0.9,2.7c-1.6,7.4-3.4,14.7-5.4,22.7
		c-3.1-4.7-2-8.9-1.5-13c2.6-21.7,11.7-40.5,24.9-57.6c5.5-7,11.8-11.1,21.3-10.7c8.6,0.4,17.2-0.3,25.6,2.1
		c24.9,7.2,41.9,29.3,38.3,55.8c-2.1,15.9-10.1,28.4-21.5,39.2c-2.3,2.2-5.1,3.2-8.1,3.5c-12.9,1-24.2-3.5-31.5-16.3
		c-2.1-3.6-2.5-7.8-2.6-11.9C208.5,220.1,208.2,217.2,208.1,214.4z"/>
	<path fill="#5AFA51" d="M230.4,148.6c11.1,1.5,21.1,5.6,29.9,12.5c10.3,8.2,15.7,19,16.5,31.9c1,15.3-2.3,29.8-9.9,43.1
		c-2.5,4.5-5.9,8.3-11.8,10.5c2.7-3.4,4.9-6.2,7-9c9.6-13,14.4-27.3,12.1-43.6c-2.2-15.6-10.5-27.5-23.4-36.2
		c-6.4-4.3-13.4-6.9-20.8-8.7C229.5,148.6,229.6,148.2,230.4,148.6z"/>
	<path fill="#47C041" d="M207.1,173.5c5.2-0.7,10.6-2.1,15.2,1.7C217.2,174.7,212.2,173.9,207.1,173.5z"/>
	<path fill="#265324" d="M206,148.5c3.1-1.8,5.2-1.5,8.1-0.9C211.4,149.1,209.2,148.5,206,148.5z"/>
	<path fill="#2D8728" d="M230.4,148.6c-0.2,0.2-0.4,0.4-0.7,0.7c-1.9,0.3-3.6-0.1-5.3-1.2C226.4,148.1,228.4,147.2,230.4,148.6z"/>
	<path fill="#E5E5E5" d="M208.1,214.4c0.5,2.8,1,5.7-0.2,8.5C207.7,220,207.7,217.2,208.1,214.4z"/>
	<path fill="#9FFEFE" d="M162.5,562.9c-6.6-12.1-3.6-25.9,7.2-33.7c2.9-2.1,6.2-3.2,9.8-3.2c4.4,0,8.7,0,13.1,0.1
		c2.6,0.1,3.6-0.9,3.3-3.6c-1.1-12.2-1.3-24.5-3.4-36.5c-0.9-5-3.1-10-4.3-15.2c-2.3-10.3-4.3-20.5-1.4-31.1c1.4-5,3.9-9.4,7.2-13.4
		c0.4-0.5,1.3-1.1,1.4-1c3.4,3.6,5.2-0.6,7.4-1.7c7.5-3.7,15-5.9,23.3-2.8c2.7,1,4.2,3,5.9,4.9c12.6,13.6,6.9,31.4-2.4,41.6
		c-5.5,6-12.4,6.9-19.6,7.4c-1.8,0.1-2.4,0.4-3,2.5c-2.5,7.9-1.4,15.8-1.2,23.8c0.5,14.1,1.6,28.2,1.3,42.3
		c-0.1,3.7-0.2,7.5-1.4,11.1c-0.7,2.1-1.3,1.9-3.4,1.1c-7.6-2.9-13.5-8.8-21.4-11.1c-1.6-0.5-3.1-0.2-4.6,0.5
		c-6.8,3.3-11.4,8.3-13,15.9C163.1,561.5,162.8,562.2,162.5,562.9z"/>
	<path fill="#8BDCDC" d="M218.5,417c-8.8-0.1-15.5,3.6-22.9,8.1C201.7,417.1,211.8,413.6,218.5,417z"/>
	<path fill="#436F6F" d="M207.6,486.1c1.4,7,0.9,14.1,0.8,21.2C206.9,500.3,207,493.2,207.6,486.1z"/>
	<path fill="#FEAB7A" d="M382.6,126.8c-1.5-1.8-2.5-0.5-3.6,0.6c-4.9,5-9.1,10.6-14.7,14.9c-1.5,1.1-1.5,2.7,0.1,4
		c4.1,3.5,8.1,7.1,12.3,10.4c4.5,3.6,8.4,3.7,13.5,0.8c5.7-3.3,10.1-8.5,15.8-11.9c2.7-1.7,2-4.6,1.2-7.1c-0.7-2.1-2.2-3.6-3.5-5.3
		c-7-8.3-5.4-18.4,3.8-24.5c5.8-3.9,11.7-3.3,17.8-0.9c14.1,5.5,14.8,18.2,9,28.2c-4.4,7.6-11.1,13.1-17.9,18.4
		c-0.9,0.7-1.7,0.7-2.6,0.1c-1.6-0.9,0.3-1.2,0.4-1.8c0.1-0.5,0.3-0.9-0.3-1.2c-0.5-0.3-0.9-0.2-1.3,0.2c-1.4,1.4-3,2.7-4.1,4.4
		c-4.2,5.9-10.2,9.7-16.1,13.6c-8.1,5.4-16.2,10.7-24.3,16.2c-2.1,1.5-3.8,1.4-6-0.1c-7.5-5.2-14.2-11.4-21-17.4
		c-3.2-2.8-6.4-5.6-10.5-6.9c-3.1-1-2.8-2.5-0.9-4.5c5.1-5.3,11.4-8.8,17.4-12.8c5-3.3,10-6.5,14.4-10.7c4.4-4.2,4.9-6.3,2.4-11.8
		c-1.1-2.5-2.4-4.9-3.7-7.3c-7.1-13.4,1.7-22,14.3-22.1c6.9-0.1,9.6,1.9,12,8.3c0.5,1.4,0.8,2.9,1.2,4.3c0.2,0.8,0.4,1.8,1.7,1.4
		c1.2-0.4,1-1.2,0.8-2.1c-0.3-1.2-0.5-2.4-0.8-3.7c2.4,0.3,1.7,2.5,2.3,3.9c0.7,1.7,0.4,3.6,0.6,5.4c-0.9,6.6-4.4,11.8-8.1,17.1
		C383.6,127.2,383.1,127.3,382.6,126.8z"/>
	<path fill="#CE8A61" d="M398.9,132c2.7,2.4,5.5,4.8,6.5,9.6C402,138.6,400.4,135.4,398.9,132z"/>
	<path fill="#C1815B" d="M382.6,126.8c0.5,0,0.9,0,1.4,0c-1.6,3.8-4.7,6.1-8.5,7.9C377.9,132.1,380.3,129.4,382.6,126.8z"/>
	<path fill="#DFDFDF" d="M392.1,109.7c-1.2-3-0.8-6.6-2.9-9.3c-0.2-0.6-0.4-1.1-0.6-1.7C392.5,101.6,392.6,105.6,392.1,109.7z"/>
	<path fill="#5BFE53" d="M294.2,157.5c0.1,5.3-4.2,9.6-9.7,9.6c-5.4,0-13-5.5-13-9.3c0.1-7.1,6.1-14.9,11.6-15
		C287.8,142.8,294.1,151.1,294.2,157.5z"/>
	<path fill="#5BFD52" d="M266.1,140c-0.5,2.4-0.4,5.4-2.2,7.8c-2.5,3.2-5.8,3.9-9.6,2.1c-5.3-2.5-9.5-10.7-8.6-16.7
		c0.1-0.8,0.3-1.4,0.9-1.9c3.2-3.3,9.5-4.7,13.5-3C264,129.8,266.3,134.2,266.1,140z"/>
	<path fill="#0B0003" d="M472.4,453.1c1.1,0,1.1,0.7,1.3,1.5c1,5.6,2.5,11.1,5.4,16.2c0.3,0.6,0.6,1.2,0,1.6
		c-0.9,0.7-1.3-0.1-1.7-0.7c-3.2-5.1-5-10.8-6.2-16.7C470.9,454,471.2,453.2,472.4,453.1z"/>
	<path fill="#110005" d="M469,472.2c0.9,0,1.1,0.8,1.5,1.4c1.6,3.1,3.2,6.2,4.9,9.3c0.5,0.9,1.1,1.8-0.3,2.5
		c-1.2,0.6-1.5-0.3-1.9-1.1c-1.6-3.4-3.2-6.8-4.7-10.2C468.1,473.2,468,472.6,469,472.2z"/>
	<path fill="#0B0003" d="M498.7,463.6c-2,3.6-4.1,7.1-6.2,10.7c-0.3,0.5-0.8,0.5-1.3,0.2c-0.5-0.3-0.6-0.7-0.3-1.2
		c1.8-3.4,3.5-6.9,5.3-10.3c0.3-0.6,0.8-1,1.5-0.6C498.3,462.5,498.9,462.7,498.7,463.6z"/>
	<path fill="#080003" d="M482.9,371.5c0.3,0.3,0.8,0.5,1.1,0.9c0.4,0.5,0.6,1.1-0.1,1.6c-0.3,0.2-0.6,0.4-0.9,0.6
		c-10.6,5.9-14.7,15.4-15.5,26.9c-0.1,0.8,0.5,2.3-1.1,2.2c-1.1,0-0.7-1.1-0.7-1.8c0.3-12.3,4.4-22.7,15.6-29.3
		C481.7,372.3,482.2,372,482.9,371.5z"/>
	<path fill="#0F0005" d="M482.2,366.9c0.1,0.7-0.3,0.9-0.8,1.2c-4.4,2.2-8.9,4.3-13.3,6.5c-0.7,0.3-1.3,0.5-1.8-0.5
		c-0.4-0.9-0.3-1.4,0.6-1.8c4.6-2,9.3-4.1,13.9-6.1C481.5,365.9,482,366.3,482.2,366.9z"/>
	<path fill="#010105" d="M102.7,377.3c3,0.3,7.9,1,12.9,1.3c3.1,0.2,4.3,1.9,4.7,4.7c0.4,3.1,0,5.8-3.2,7.2c-3.1,1.4-6.3,1.4-9.5,1
		c-3.5-0.4-6.9-1-10.3-1.4c-2-0.2-2.8-1.6-3.1-3.2c-0.3-1.7-0.3-3.5-0.2-5.2C94.3,377.8,95.3,377.2,102.7,377.3z"/>
	<path fill="#030103" d="M326.1,501.2c-2.1,4.1-3.8,8.5-6.9,12.1c-1.2,1.3-2.7-0.1-3.2-0.6c-4.4-4.7-10.5-8.1-12.4-15.1
		c-0.5-1.7-0.3-2.7,0.5-3.9c4.8-7.8,3.9-8.4,11.7-2.3c2.7,2.2,5.5,4.3,8.3,6.4C325.3,498.7,326.3,499.5,326.1,501.2z"/>
	<path fill="#030302" d="M367.2,171.5c-1.5-0.3-3.1-0.8-4.6-1.7c-5.1-2.8-9.6-6.6-14.6-9.7c-1.2-0.7-1.5-1.5-1-2.7
		c0.7-1.7,7.1-3.7,8.8-3.2c6.3,1.6,10.5,5.7,14.6,10.3c1.8,2,0.1,3.4,0.1,5C370.5,171.2,368.8,171.3,367.2,171.5z"/>
	<path fill="#FCFCFC" d="M103.3,379.4c4.7,0.6,8.1,1.1,11.6,1.5c1.6,0.2,3,0.4,3,2.5c0,2,0,4.4-2,5.1c-5.6,1.9-11.3,0.4-16.9-0.7
		c-0.8-0.1-0.8-0.7-0.7-1.4c0.2-0.7,0.3-1.5,0.4-2.2C99.1,380.6,100.1,378,103.3,379.4z"/>
	<path fill="#0F0083" d="M96.8,379.9c0.3,1.6,0.2,3.2-0.6,5.2C94.9,382.9,95.5,381.4,96.8,379.9z"/>
	<path fill="#FAF9FA" d="M310.2,492.5c-0.1-0.8,0-1.7,0.7-1.9c0.4-0.1,1.1,0.4,1.6,0.7c3,2.4,5.9,4.9,8.9,7.3c1.3,1,1.2,2,0.5,3.2
		c-0.6,1.1-1.2,2.1-2.8,1.8C315.4,502.8,310.2,496.4,310.2,492.5z"/>
	<path fill="#D400F2" d="M317.2,509.9c-10.2-7.2-12.6-11.1-9.7-16.3c1.7,5.3,4.6,9.3,9.7,11.8C319.6,506.6,317.4,508.3,317.2,509.9z
		"/>
	<path fill="#F8F8F8" d="M350.5,158.6c2.8-2.5,5-2.5,7.6-0.3c2.7,2.4,5.6,4.5,8.5,6.6c1.4,1,2.4,2.3,1.6,3.6
		c-0.9,1.4-2.6,0.2-3.7-0.4C359.5,165.5,355.1,162.1,350.5,158.6z"/>
</g>
</svg>
