<?xml version="1.0" encoding="utf-8"?>
<!-- Generator: Adobe Illustrator 18.0.0, SVG Export Plug-In . SVG Version: 6.00 Build 0)  -->
<!DOCTYPE svg PUBLIC "-//W3C//DTD SVG 1.1//EN" "http://www.w3.org/Graphics/SVG/1.1/DTD/svg11.dtd">
<svg version="1.1" id="Layer_1" xmlns="http://www.w3.org/2000/svg" xmlns:xlink="http://www.w3.org/1999/xlink" x="0px" y="0px"
	 viewBox="0 0 703 682" enable-background="new 0 0 703 682" xml:space="preserve">
<g>
	<path fill="#FDFDFD" d="M351.5,0.1c116,0,232,0,348-0.1c2.8,0,3.4,0.6,3.4,3.4c-0.1,225-0.1,450.1,0,675.1c0,2.8-0.6,3.4-3.4,3.4
		c-232-0.1-464.1-0.1-696.1,0c-2.8,0-3.4-0.6-3.4-3.4c0.1-225,0.1-450.1,0-675.1C0,0.6,0.6,0,3.4,0C119.5,0.1,235.5,0.1,351.5,0.1z"
		/>
	<path d="M487.7,316.9c0.2,4.4-0.4,8.6-5.6,10.8c-1.7,0.7-2.6,3-4.5,3.8c-2.5,1.1-4.6,0.9-5.9-1.7c-1.9-3.9-3.1-8.1-1.2-12.2
		c1.2-2.7-0.8-3.6-2-5c-1.4-1.7-2.4,0.2-3.4,0.8c-3.7,2.3-7.4,4.6-11,7.1c-1.2,0.8-3,1.2-2,3.6c0.8,2,1.7,2.7,3.8,2.3
		c1.3-0.3,2.7-0.3,4.1-0.1c4.6,0.4,6.4,2.8,4.8,7c-0.8,2,1.3,4.4-1.5,6.2c-4.4,2.8-8.8,5.2-13.8,6.4c-3.7,0.9-5.5-0.7-5.6-4.4
		c0-4.1,0.4-8.3,3.7-11.3c1.4-1.3,1-2.3,0.4-3.6c-0.5-1.2-0.6-2.8-2.7-2.2c-1.7,0.5-2.8-0.9-3.7-2.1c-1.7-2.2-3.2-1.8-5.4-0.7
		c-21.6,11.6-42,25.1-62.1,38.9c-15.2,10.4-30.4,21-45.6,31.5c-1.9,1.3-2.2,2.4-1.3,4.5c3.2,8.2,4.4,16.6,0.8,25.1
		c-3.2,7.7-8.9,12.4-17,14.4c-2.2,0.5-4.4,0.8-6.6,1.5c-3.7,1.2-7.1,3.1-8,7.2c-2.6,12.7-11,20.6-21.5,26.9
		c-7.6,4.7-15.9,7.5-24.7,7.8c-12.2,0.4-22.6-4.4-31.1-13.2c-9.5-9.9-14.8-21.8-15.7-35.5c-0.8-13.8,3.4-25.7,13.9-35.2
		c9.6-8.7,21.2-14.5,33.7-13.9c10.2,0.5,15.5-5,22-10.1c2.8-2.2,5.5-4.8,8.5-6.7c7.5-4.7,14.7-4.4,21.8,1c3,2.3,5.9,4.6,8.2,7.6
		c1.6,2.1,2.9,2.2,5.2,0.6c24.1-16.5,48.3-32.8,72.5-49.1c7.8-5.2,15.5-10.5,23.3-15.7c1.2-0.8,2.6-1.4,1.7-3.1
		c-3.9-8,0.6-13.2,6.1-18.1c0.4-0.3,0.9-0.5,1.2-0.9c0.3-0.3,0.8-0.7,0.5-1.2c-0.4-0.7-0.9-0.5-1.5-0.1c-2.5,1.5-5.2,1.8-7.9,0.8
		c-4-1.4-6.8-5.2-6.6-9c0.2-4.2,4-8.7,8.2-9.7c4.4-1,9.2,0.7,11.3,3.9c1.6,2.5,1.3,5.1-0.1,7.4c-0.9,1.5-0.5,2.4,0.4,3.6
		c0.9,1.1,1.8,1.1,2.9,0.7c5.4-1.9,11-3.1,16.6-4.4c0.8-0.2,1.7-0.3,1.8-1.1c0.1-0.9-0.9-0.9-1.6-1.1c-5-1.6-7.6-5.7-6.7-10.2
		c0.7-3.9,4.9-6.7,9.3-6.4c4.5,0.3,9.1,4.3,9.4,8.3c0.2,3.1-1.4,5.2-4.1,6.5c-0.9,0.4-1.6,0.8-1.2,1.9c0.4,1,1.3,0.5,1.9,0.5
		c3.9-0.4,8-1.8,11.6,1c5.3,4.2,8.5,9.9,11,16.2c1.9,4.8,0.9,8.7-3.1,11.9c-0.8,0.7-2.9,1.2-1.3,3.1c1.2,1.5,2.4,2.4,4.4,1.1
		c1.4-0.9,2.9-1.7,4.8-2c4.2-0.6,6,0.8,6.1,5.1C487.7,314.8,487.7,315.7,487.7,316.9z"/>
	<path d="M138.1,392.5c-3.5,0-7,0.1-10.5,0c-1.9-0.1-2.6,0.3-2.3,2.5c0.7,6.1,2.8,7.8,8.8,7c4-0.5,7.8-2.2,12-0.1
		c4.1,2,6.6,4.6,6.6,8.2c0,3.8-2.9,7.8-6.5,9.3c-5,2.1-9.9,5-15.7,2.7c-7.1-2.8-11.9-8.1-15.7-14.4c-2.8-4.7-4.5-9.7-3.7-15.3
		c0.3-2.1-0.2-3.3-2.4-4.2c-22.2-8.9-21.8-36.2-7.2-49.3c6.4-5.7,13.7-7.7,22-6.5c1,0.1,2.4,1,2.8-0.6c0.4-1.6-1.2-1.7-2-2.2
		c-8.7-4.4-16.5-9.7-22.4-17.7c-7.8-10.6-8.7-22.8-8.5-35.3c0.1-3.7,0.3-7.5,1.1-11.2c2.6-13.3,11.6-16.6,23-12.2
		c7.7,3,13,9.2,17.6,15.7c7.5,10.6,9.9,22.6,9.5,35.3c-0.1,3.9-1.1,7.8-2,11.7c-0.6,2.7-0.1,3.9,2.8,4.4c6.3,1,12.4,2.7,18.3,5.3
		c9,3.9,17,9.1,20.4,19c2.2,6.3,2,12.6-0.2,18.7c-8,23.2-23.8,29.7-42.9,29.6c-1,0-2,0-3,0C138.1,392.8,138.1,392.7,138.1,392.5z"/>
	<path fill="#000001" d="M614.9,301.3c-7.1-0.1-13.7-2.4-20.2-4.9c-11.6-4.4-20.3-12.4-26.9-22.6c-5.7-8.8-10.8-18-15.2-27.5
		c-1.5-3.4-3.3-4-6.5-3c-5,1.6-10,2.9-15,4.4c-2.6,0.8-3.8,2.4-3,5.3c4.5,15.7,8.5,31.5,14.3,46.8c1,2.6,2,3.3,4.9,2.3
		c10.2-3.5,20.6-4.1,30.7,0.4c12.1,5.4,17.6,16,20.7,28.2c0.4,1.6,0.5,3.2,0.8,4.8c2.2,11.6-1.6,20.4-11.7,26.8
		c-5.1,3.2-9.5,7.7-16,8.5c-8.5,1.1-15.6-2.6-22.1-7.4c-14.4-10.6-23.3-25-29.2-41.6c-6.3-17.6-10-35.9-14.2-54.1
		c-2.6-11.3-6.3-22.3-9.2-33.5c-2.2-8.4-4.2-16.9-4.4-25.7c-0.1-3.7,1.4-5.5,4.5-6.7c10.9-4.3,21.8-8.5,32.7-12.9
		c6.7-2.7,13.4-5.5,19.9-8.5c3.4-1.6,4.6-0.3,5.5,2.8c2.4,8,3.3,16.4,6,24.3c4.7,14,11.8,26.6,20.6,38.4c1,1.3,1.8,1.5,3.4,1
		c5.5-1.7,11.1-2.7,16.7-4c10.6-2.6,18.7,1.4,25.9,8.6c4.4,4.4,7.8,9.8,10.1,15.3c1.8,4.3,2.4,9.9,1.1,15.1
		C636.2,294.5,627.7,301.2,614.9,301.3z"/>
	<path fill="#010000" d="M140.9,501.9c-3.5-3.7-8.6-4.9-12.5-3.5c-1.5,0.6-1.9,1.9-2.5,3.1c-4.5,8.5-6.9,17.9-10.7,26.7
		c-0.4,1-0.8,2.1-1.3,3.1c-1.3,2.7-2.4,5.7-6.3,5.4c-2.9-0.2-6.2-3.3-7.3-6.7c-1.6-5.1-1.8-10.3-1.1-15.6c1.8-13.2,6.5-25,16.8-34.1
		c4.5-3.9,9.7-6.1,15.5-6.7c1.6-0.2,2.6-0.4,3.4-2.1c2.7-6,6-7.5,11.9-5.9c0.9,0.2,1,1,1.5,1.6c12.6,13.5,19.9,30,27.5,46.4
		c4,8.7,7.9,17.5,11.7,26.3c0.9,2.1,1.8,2.5,3.9,1.9c14.6-3.7,27.8-0.1,39.2,9.2c9.3,7.6,14.7,17.9,15.6,30c0.6,8.2-0.6,16-5.4,23.1
		c-4.4,6.5-10.2,10.6-17.3,13.6c-15.2,6.3-35.1-2-44.8-13.8c-8.6-10.4-12.5-22.9-15.8-35.6c-3.4-13-6.3-26.2-13.6-37.8
		c-1.2-1.9-2.1-4.9-4.6-4.9c-3.2,0.1-3.3,3.6-4.3,5.9c-2.4,5.6-4,11.5-6.9,16.9c-1.5,2.7-3.1,5.8-6.8,5.5c-3.8-0.4-4.3-4-4.9-6.8
		c-2.3-11.1-1.5-22,2.4-32.8c1.3-3.5,4.6-5.6,5.6-9.1c0.2-0.6,1.9-0.8,3-1.1C135.4,503.3,137.9,502.7,140.9,501.9z"/>
	<path d="M246.2,294.8c-7.4,0.3-13.5-2.8-19.3-6.9c-11.9-8.3-14.4-18.6-8.8-31.9c2.8-6.9,6.9-11.7,13.7-14.3
		c7.7-2.9,15.6-3.4,23.5-0.7c8.1,2.8,8.1,2.9,11.7-4.9c3.8-8.3,7.5-16.6,8.8-25.7c0.2-1.7,0.3-2.8-1.7-3.3
		c-6.2-1.8-12.4-3.7-18.6-5.6c-2.7-0.8-2.3,1.2-2.8,2.7c-3.5,11.3-8.8,21.7-16.3,30.7c-5.5,6.6-13.3,9.4-21.5,11.3
		c-2,0.5-4.1,1-6.1,1.5c-6.3,1.4-12.4-2.3-16.8-8.7c-5.3-7.7-5.2-14.8-0.6-22.6c4.3-7.3,9.4-12.9,18.2-14.7c6-1.2,11.4,0.7,16.8,2.1
		c5.2,1.4,8.1-0.2,11-4c4.6-6,7-12.9,8.9-20c2.1-7.8,3.4-15.8,6.6-23.3c0.7-1.7,1.6-2.5,3.4-1.7c11.3,5.3,23.5,8.4,35,13.2
		c2.8,1.2,5.5,2.4,8.3,3.5c3,1.2,4,3,3.4,6.4c-3.3,20.3-8.5,40.2-13.6,60.1c-3.4,13.2-7.4,26.1-15,37.7c-3.7,5.6-8.3,10.2-14,13.8
		c-3.5,3-7.8,3.6-12,4.7C247.5,294.3,246.7,294.3,246.2,294.8z"/>
	<path d="M481.5,505.7c-13.3-0.8-24.3-6.4-33.6-15.9c-13-13.2-18.6-29.2-19.2-47.3c-0.3-9.1,2.3-17.7,5.6-26
		c6.5-16.1,19.9-21.3,35.6-23.6c6.2-0.9,10.4,2.3,15,4.9c15.2,8.5,22.7,33.7,15.5,49.9c-2.1,4.8-4.2,9.6-6.8,14.1
		c-1,1.8-0.7,2.1,1.3,2.5c16.5,3.1,28.4-4,35.5-20.9c4.3-10.3,6.4-21.2,8-32.2c0.8-5.6-0.7-11.2-2-16.6c-0.9-4-1.8-8-1.7-12.2
		c0-1.1-0.3-2.4,1.1-2.9c1.4-0.5,2.4,0.4,3.2,1.4c3.5,4.4,5.7,9.3,7.3,14.6c4.9,17,6.4,34.3,4.7,51.9c-0.7,7.5-2.1,14.8-4.1,21.9
		c-3,10.7-9.1,18.8-19.4,23.8c-11,5.4-22.4,9.7-34.4,12.2c-1.5,0.3-2.9,0.5-4.4,0.4C486.2,505.5,483.8,507.6,481.5,505.7z"/>
	<path d="M363.9,195.9c0-3.2-0.2-6.4,0.5-9.7c1.3-6.4,4.6-11.2,10.2-14.6c1.9-1.2,3.9-2.3,5.7-3.5c5.7-4.1,6-5,3-11.3
		c-7.1-14.4-14.2-28.9-20.7-43.6c-3.6-8.2-7.1-16.5-8.6-25.4c-0.5-2.9-1.6-6.4,1-8.4c2.4-1.9,5.3,0.3,7.7,1.3
		c7.9,3.4,16.2,2.6,23.9,0.7c4.7-1.2,6.9-7.1,8-12.3c0.9-4.5,0.7-8.9-0.5-13.3c-0.3-1.1-0.8-2.7,0.5-3.4c1.1-0.6,1.9,0.8,2.7,1.5
		c7.5,6.6,13.6,14,14.1,24.6c0.6,14.3-7.5,26-21.1,30.8c-6.9,2.4-6.7,2.4-3.3,8.8c8.6,16.4,18.6,31.8,30.2,46.3
		c8.7,10.9,13.2,23.4,12.2,37.5c-0.6,8.9-4.8,16.2-11.7,21.7c-6.8,5.4-14.8,8.1-23.7,7.7c-11.9-0.6-23.1-7.5-27.3-19.6
		C364.7,206.5,363.4,201.3,363.9,195.9z"/>
	<path fill="#010000" d="M357.7,599.9c0-10.4,2.4-18,5.8-25.5c2-4.2,2.3-9.1,5-13.1c0.6-0.9,0-1.3-0.8-1.5c-4.7-1.3-9.2-3.1-14-3.9
		c-4.3-0.7-7.5,0.8-10.2,4.1c-3.9,4.8-5.6,10.9-9.4,15.7c-1.1,1.4,0.4,1.6,1.2,2c2.6,1.7,5.2,3.4,7.9,5c5.8,3.7,11,16.6,8.6,22.1
		c-2.4,5.5-6.3,9.8-10.7,13.8c-0.9,0.8-1.9,1.6-2.9,2.4c-9.6,8.1-17.9,7.6-27.6-0.6c-9.4-7.9-8.7-17.3-5.4-27.5
		c3-9.6,7.5-18.5,13-26.9c9.5-14.7,19-29.3,28.8-43.8c5.4-8.1,7-8.4,16.2-5.9c2.3,0.6,4.6,1.2,6.8,2.1c8.6,3.6,17.5,5.7,26.6,7.3
		c10,1.8,10.5,3,4.8,11c-8,11.2-15.2,22.8-19.5,36c-0.8,2.4-0.7,3.7,1.8,5c8.4,4.4,13.9,11,15,20.8c1.2,10.6-6.7,22.2-18.4,22.9
		c-5.5,0.3-10.2,0.1-14.5-3.2C358.9,613.3,357.9,605.7,357.7,599.9z"/>
	<path fill="#040603" d="M481.5,505.7c2.4,0,4.8,0,7.2,0c-1.2,0.3-2.3,0.6-3.7,1c8.1,2.2,12.6,7.7,14.9,15.3c1,3.3-2.2,9.5-6.1,11.9
		c-7,4.5-13.1,4.4-17.7-0.3c-5.2-5.2-6.9-16.5-3.3-21.9c1.6-2.4,3.7-4,6.5-4.7C480.1,506.8,481.4,507.3,481.5,505.7z"/>
	<path fill="#020402" d="M435.7,516.5c-0.3-8.4,7.2-17.2,19.5-13.2c3.3,1.1,7.3,1.9,8.5,5.4c1.8,5.3,2,10.9-0.3,16.4
		c-3.8,8.9-11.2,11.1-19,5.5C439.5,527.1,435.7,523,435.7,516.5z"/>
	<path fill="#C300DE" d="M246.2,294.8c-0.1-1.2,0.7-1.4,1.6-1.5c4.5-0.4,8.4-2.3,12.4-4c0.1,1.2-0.9,2-1.6,2.2
		C254.4,292.5,250.7,295.1,246.2,294.8z"/>
	<path fill="#FEB9FB" d="M323.7,395.5c6.4,12.4,5.5,29-8.2,36.3c-2.7,1.4-5.6,1.9-8.6,2.5c-7.4,1.4-12.5,5.1-13.8,13.1
		c-0.7,4.5-3.3,8.4-6.4,11.7c-9.7,10.3-21.5,16.8-35.6,17.8c-13.2,0.9-23.9-4.7-32.4-14.7c-11-12.9-15.4-27.9-12.2-44.6
		c2.2-11.6,9.4-20.1,19.5-26.2c9.2-5.6,18.8-8.9,29.8-7.3c5.4,0.8,9.3-2.8,13.2-5.9c3.8-3,7.3-6.4,11.1-9.5
		c8.4-6.8,15.1-6.8,23.5-0.2c2.4,1.9,4.8,3.9,6.9,6.3c1.4,1.6,1.5,2.2-0.2,4c-10.9,11.2-25,18-37.6,26.9
		c-10.1,7.2-20.6,13.7-30.8,20.6c-1.9,1.3-3.1,1.7-4.5-0.6c-0.9-1.4-2.3-2.7-3.7-3.7c-2.2-1.6-4.6-3.5-7.4-1.6
		c-2.8,1.9-4,5.2-2.9,8.3c3.8,10.8,9.1,20.8,17.7,28.7c4.7,4.3,9.3,3.3,11.8-2c1.1-2.4,0.1-4.3-0.8-6.4c-1.1-2.5-3.8-5-3-7.2
		c0.7-2,4-3,6.2-4.5c19.1-12.6,38.3-25.3,57.5-37.9c1.3-0.8,2.4-1.8,4.3-1.1C319.9,399.1,321.4,396.1,323.7,395.5z"/>
	<path fill="#FDB9FA" d="M439,316c1.7-1.1,3.4-2.1,5-3.3c1.2-1,2.1-1,3.6-0.3c3.5,1.8,7.5,0.2,8.6-3.3c1.3-4-2.1-4.6-5.2-6.2
		c2.1-1.4,3.9-2.5,5.6-3.8c1.2-0.9,1.7,0.3,2.5,0.7c2.2,1,4.4,3.3,7,0.8c1.5-1.4,2.7-3.2,1.9-5.3c-1-2.6-3.5-1.7-5.5-1.8
		c-0.5-1.4,0.6-2.1,0.8-3.2c0.4-2.2-0.2-3.6-2.6-4.1c-3.9-0.8-6.8,0.5-8.6,4.2c-0.7,1.5-2,2.2-3.2,3c-3.2,2.2-6.5,4.3-9.7,6.4
		c-0.2,0.1-0.5,0.1-1,0.3c0.4-1.9,1.7-3.4,1.9-5.2c0.2-2-0.3-3.5-2.1-4.3c-2.6-1.3-10.8,0.9-12.4,3.3c-2.1,3-1.5,5,2.7,8.2
		c-3.3,2.2-6.4,4.2-10,6.6c-0.5-6.7-2.5-13.1,2.9-18.4c3.8-3.8,8.7-5.4,13.6-6.5c4.8-1.1,9.4-2.8,14.5-2.9c3.4-0.1,6.5-2.1,10.1-2
		c2.7,0,4.8,0.6,6.7,2.6c4.3,4.3,7.3,9.4,9.2,15.2c0.9,2.9,0.4,5.3-1.9,7.5c-7,6.3-14.5,11.7-23.1,15.8c-2.6,1.3-4.5,1.3-6.6-0.9
		c-0.8-0.9-1.8-2.1-3.4-1.7C440.1,316.7,438.6,317.3,439,316z"/>
	<path fill="#FDB9FA" d="M225.4,427.5c0.5-2,0.4-4.3,2.5-5.3c2-1,3.4,0.5,4.6,1.6c8.4,7.6,13.6,17.4,18.6,27.3
		c1.1,2.3-0.7,4-2.1,5.5c-1.3,1.4-3,1-4.5,0.1c-2.4-1.4-4.3-3.4-6-5.6c-5.2-6.4-9.1-13.7-12.4-21.2
		C225.8,429.1,225.6,428.2,225.4,427.5z"/>
	<path fill="#C791C5" d="M456,295.2c-47.6,31.3-95.2,62.7-142.8,94c-0.2-0.3-0.5-0.7-0.7-1c47.5-31.4,95.1-62.8,142.6-94.2
		C455.5,294.4,455.8,294.8,456,295.2z"/>
	<path fill="#FAB6F7" d="M417.1,282.5c-3.7,0.1-6.4-1.9-6.5-4.8c-0.1-3.5,3.2-6.9,7.1-6.7c1.9,0.1,4.8-0.5,4.9,2.5
		C423,280.3,421.5,282.4,417.1,282.5z"/>
	<path fill="#FBB7F8" d="M472.7,319.3c0.1-2.3,4.9-6.9,7.3-6.5c2.2,0.3,5.1,0.3,4.9,3.8c-0.2,3.5-3.7,9-5.6,8.8
		C476.1,325.3,472.6,322,472.7,319.3z"/>
	<path fill="#AF7EAC" d="M310.9,390.8c-22.2,14.6-44.3,29.2-66.5,43.8c-0.2-0.3-0.4-0.7-0.7-1c22.1-14.6,44.3-29.3,66.4-43.9
		C310.4,390.1,310.7,390.5,310.9,390.8z"/>
	<path fill="#FAB7F7" d="M449.2,273.8c-3.7,0-7.2-2.6-7.1-5.6c0.1-2.4,3-4.4,6.1-4.4c3.4,0.1,7.5,3.3,7,6
		C454.8,272.7,452.6,273.9,449.2,273.8z"/>
	<path fill="#684A66" d="M386.3,346.5c-23.5,15.6-47,31.1-70.6,46.8c-0.6-1.9,0.7-1.9,1.3-2.3c22.5-14.9,45.1-29.7,67.7-44.6
		c0.3-0.2,0.7-0.3,1-0.5C386.4,345.4,386.4,345.9,386.3,346.5z"/>
	<path fill="#765474" d="M313.4,394.6c-22.1,14.6-44.3,29.2-66.4,43.8c-0.2-0.3-0.4-0.7-0.7-1c22.2-14.6,44.3-29.2,66.5-43.8
		C313,394,313.2,394.3,313.4,394.6z"/>
	<path fill="#FAB6F7" d="M455.9,329.4c1.4,0.5,4.1-0.2,4,2.7c-0.1,4.8-3.4,9.5-6.2,9.1c-3.2-0.5-3.8-3.2-3.8-6
		C449.9,331.5,452.1,329.3,455.9,329.4z"/>
	<path fill="#543B53" d="M386.3,346.5c-0.2-0.2-0.5-0.4-0.7-0.6c12.7-8.5,25.4-17,38.2-25.4c6.6-4.4,13.3-8.6,20-13
		c0.8,1.1-0.2,1.2-0.5,1.4C424.3,321.4,405.3,333.9,386.3,346.5z"/>
	<path fill="#F9B6F6" d="M431.5,300.8c-1.9-0.6-4.5-0.9-4.8-3.6c-0.3-2.1,6.1-5.3,9.3-4.8c1.5,0.2,2.1,0.9,1.9,2.5
		C437.3,298.2,434.2,301.2,431.5,300.8z"/>
	<path fill="#EDADEA" d="M449.4,305.4c1.8,0.5,4.4,0.2,4.5,2.5c0.1,1.9-2,3.1-3.9,3.3c-2.4,0.3-3.1-2-3.4-3.7
		C446.3,305.5,448.2,305.8,449.4,305.4z"/>
	<path fill="#DDA1DA" d="M461.1,289.8c-0.9,1.8-1.7,3.7-4.1,3.3c-1.1-0.2-3.1-0.6-2.8-1.9c0.6-2.4,3.2-2.4,5.2-2.8
		C460.5,288.2,461.1,288.8,461.1,289.8z"/>
	<path fill="#745373" d="M317.5,395.8c4.5-3,9-5.9,13.5-8.9c-3.6,4.2-8.3,7-12.8,10C318,396.6,317.7,396.2,317.5,395.8z"/>
	<path fill="#D99ED6" d="M465.8,296.8c-0.5,1.3-1.1,2.6-2.7,2.6c-1.2,0-3-0.3-2.8-1.7c0.2-1.6,2.2-1.7,3.6-2
		C464.7,295.6,465.7,295.5,465.8,296.8z"/>
	<path fill="#D9D4D9" d="M471.7,326.1c2.6,1,4.9,0.2,6.8,1.6C475.4,331.1,474.9,331,471.7,326.1z"/>
	<path fill="#EAE7EA" d="M449.2,340.8c0.6,0.7,1.2,1.4,1.9,2.2c-4.2,1.8-4.7,1.5-5.3-3.1C447.3,338.9,448.2,339.8,449.2,340.8z"/>
	<path fill="#8B6889" d="M449.2,340.8c-1.1-0.3-2.3-0.6-3.4-0.9c0.3-1.8,0.5-3.6,0.9-5.3c0.1-0.3,0.4-0.6,0.9-1.3
		C448,336.1,447.9,338.6,449.2,340.8z"/>
	<path fill="#866084" d="M439,316c0.4,0.5,0.9,0.9,1.3,1.4c-2.3,0-3.9,2.1-6.4,2.1C435.4,318,436.9,316.7,439,316z"/>
	<path fill="#FE005F" d="M134.9,320.3c-0.9-1.6-1.6-1.8-2.2,0.3c-0.9,3.2-2.1,6.3-3.4,9.5c0.3-5.6,1.5-11.2,1.5-16.8
		c0-8.7-1.3-16.9-7.3-23.7c-1.3-1.5-2.6-3.6-4.8-2.8c-2.4,0.8-2.4,3.3-2.3,5.4c0.7,8.7,3.7,16.6,10.1,22.7c1.8,1.7,2.1,3.1,1.3,5.4
		c-18.1-7.6-18.2-22.7-16.2-38.9c-3.3,5.2-3.7,17.8-1.2,24.8c3,8.5,9.7,13.4,17.1,17.8c-5.9-2.7-12.8-1.8-17.9-6.9
		c-8.4-8.3-13.1-18.1-13.6-29.9c-0.4-7.2-0.8-14.5,0.7-21.7c2.3-10.9,9.9-14.7,20.2-10.2c7.2,3.2,12.3,8.9,16.5,15.3
		c9.5,14.5,10.2,30.3,6.7,46.8c-0.6,3-3,2-4.5,2.9C135.5,320.6,135.2,320.6,134.9,320.3z"/>
	<path fill="#FE005F" d="M149.7,342.1c-2.5-3.3-6.1-5.2-9.5-7.4c-0.9-0.6-2.6-0.8-1.8-2.2c0.8-1.5,2,0,2.9,0.3
		c2.2,0.8,4.4,1.8,6.6,2.6c0.9,0.3,2.1,1.7,2.8,0c0.8-1.9-1.2-1.8-2.2-2.2c-2.4-1-4.9-1.8-7.4-2.7c-1-0.4-2.4-0.7-1.6-2.3
		c0.7-1.5,1.8-0.4,2.6-0.2c3.5,1,6.9,2.2,10.3,3.3c1.2,0.4,2.3,0.7,2.7-0.9c0.4-1.7-1.2-1.3-2-1.5c-3.7-1.1-7.4-2.1-11.2-3.1
		c-1.2-0.3-1.7-1-1.3-2.2c0.3-1.1,0.8-1.7,2.1-1.4c11,2.5,21.9,4.9,31.1,12.1c8.4,6.5,10.7,15.1,8.7,25c-2.8,14.4-14.2,30.6-36,31.4
		c-7,0.3-14,0-21.1-0.4c3-1.2,6.2-0.6,9.3-0.5c1.7,0.1,3.5,0.2,5.2,0.3c0.9,0,1.8,0.2,1.9-1.1c0-1.3-0.9-1.3-1.8-1.3
		c-4,0-8-0.2-12,0c-2.5,0.1-3.1-0.9-2.6-3.1c0.1-0.4,0.1-0.7,0.2-1.1c0.5-2.6,0.1-5.9,1.6-7.5c1.7-1.8,4.4,1,6.7,1.4
		c18.3,2.8,25.1-13.4,20.9-25.5c-0.6-1.6-1.2-3.3-1.9-4.9C152.4,345,151.4,343.3,149.7,342.1z"/>
	<path fill="#FDFDFD" d="M138.3,337.1c1.2-0.5,2.2-0.2,3.2,0.4c8.1,5.8,13.3,13.1,12.3,23.6c-1,10.3-10.2,16.3-20.3,13.3
		c-5.7-1.7-5.6-1.7-4.5-7.5c1.1-5.9,2.4-11.7,4-17.4c0.1-0.5,0.4-0.9,0.7-1.5c3.6,2.5,5.6,6.2,8.1,9.3c1.1,1.3,1.8,3.7,4.3,2.5
		c2.4-1.1,2.9-3.4,2.3-5.7C146.9,347.5,142.9,342.1,138.3,337.1z"/>
	<path fill="#FD005E" d="M114.6,374.8c-4.3-3-5-7-6.2-10.8c-0.2-0.8,0.3-2.3-1.5-1.9c-1.9,0.4-1,1.7-0.8,2.6c1,4.2,2.6,8.1,6.1,10.9
		c2.5,2,1.1,4.3,0.2,6c-0.8,1.5-2.4-0.1-3.4-0.7c-8.9-5.6-12-16.1-7.3-25.5c4-7.9,10.6-12.8,19.5-14.1c0.8-0.1,2.2-1.1,2.5,0.3
		c0.3,1.2,0,2.7-1.5,3.4c-8.5,4.3-11.2,12.4-6.7,20.8C117.1,369.2,114.4,371.4,114.6,374.8z"/>
	<path fill="#FB005D" d="M116.3,378c-0.3,7-1.5,13.9-0.1,20.9c0.3,1.3,0.5,2.7,0.8,4c0.7,2.7,0.8,2.8,3.2,1.4c1-0.6,1.4,0.3,1.7,0.6
		c2.9,3.4,7.4,4,11,6.1c2.3,1.3,5.9-0.7,7.5-4.7c1.2-2.9,2.9-3.1,5.2-1.9c2.2,1.2,4.7,1.6,4.1,5.8c-0.7,4.6-2.8,6.9-6.5,8.6
		c-4.5,2-9.1,2.4-13.7,0.2c-11.1-5.4-17.8-18.7-15.5-30.9C114.5,384.7,114.8,381.2,116.3,378z"/>
	<path fill="#FC005E" d="M111.7,385.5c-7.2,0-16.2-8.7-17.9-18.1c-2.3-12.3,4.3-26.7,16-31.7c4.4-1.9,8.9-2.3,13.5-1.5
		c1.2,0.2,2.5,0.5,1.9,2c-0.5,1.1,0.5,3-2.3,3.1c-13.3,0.7-24,10.8-25.4,23.6c-1,8.6,3.6,16.8,11.9,21.1
		C110.1,384.6,110.9,385.1,111.7,385.5z"/>
	<path fill="#FB005D" d="M131.3,345.9c-0.1,5.7-2.6,10.8-3.5,16.3c-1.7,10.2-4.8,20.1-4.6,30.6c0.1,4.5,0.6,9,5.7,11.1
		c1.7,0.7,0.5,2.7,1.2,4c-3.2-1.3-5.8-3.2-8-5.5c-2-2-2.5-4.4-2.1-7.2c2.4-16.7,5.8-33.1,10.6-49.2
		C130.9,345.5,131.1,345.5,131.3,345.9z"/>
	<path fill="#F9F9F9" d="M128.3,313.5c-6.7-6.1-9.8-13.8-9.8-22.8c0-0.7-0.1-1.7,0.8-1.9c1.2-0.2,1.7,0.9,2.4,1.6
		C127.5,297,128.7,305,128.3,313.5z"/>
	<path fill="#D3004D" d="M134.9,320.3c0.3,0,0.5,0,0.8,0c-3.4,11.7-7.3,23.3-10.1,35.1c-2.5,10.5-4.8,21.1-6.4,31.9
		c-0.1,0.9-0.5,1.9-1,2.7c-0.3-6.9,0.8-13.7,2.2-20.4c3-14.4,7.5-28.4,12.2-42.3C133.4,325,133.5,322.5,134.9,320.3z"/>
	<path fill="#EFEFEF" d="M117.1,364.8c-3.2-6.6-1.2-13.5,5.1-17.2C120.5,353.6,118.9,359,117.1,364.8z"/>
	<path fill="#B60042" d="M131.3,345.9c-0.2,0-0.5,0-0.7,0c1.8-8.4,5-16.3,8-24.3C137.3,330,134.7,338.1,131.3,345.9z"/>
	<path fill="#C30047" d="M145.6,358c-0.7-2.4-1.2-3.8-1.5-5.1c-1.2-4.3-2.9-8.2-7.1-10.4c-1.2-0.7-1.8-1.7-0.9-2.7
		c1-1.1,1.7,0.3,2.3,0.9c3.1,3.6,5.8,7.4,7.4,11.9C146.3,354,146.7,355.4,145.6,358z"/>
	<path fill="#EE0058" d="M138.7,404c-0.9,2.7-1.9,4.8-4.7,4.9c-1.2,0-2.3-1.6-1.9-2.4C133.4,404,136,404.3,138.7,404z"/>
	<path fill="#D9165E" d="M141.2,353.3c-1.6-1.7-3.1-3.5-4.7-5.2c-0.7-0.7-0.9-1.5-0.3-2.3c0.9-1.2,1.6,0,2.1,0.5
		C140.2,348.1,141.5,350.3,141.2,353.3z"/>
	<path fill="#CFCFCF" d="M149.7,342.1c2.3,0.8,3.7,2.3,3.4,4.9C152,345.4,150.8,343.7,149.7,342.1z"/>
	<path fill="#2700FE" d="M495.2,213c-0.1-0.5-0.2-1-0.2-1.5c-0.5-6-0.4-6.5,5.1-8.6c16.8-6.4,33.4-13.2,49.8-20.4
		c2.8-1.2,3.1,0.3,3.7,2.2c2.4,8.8,3.6,17.8,6.8,26.4c5.1,13.7,12.5,26.1,21.3,37.6c1.7,2.2,3.5,2.7,6,1.6
		c5.7-2.6,11.7-4.2,17.9-5.5c2.3-0.5,4.7-0.4,7,0.3c2.5,0.8,4.9,1.8,7.2,3c7.9,4.9,13.1,12,15.7,20.7c4,13.4-6.4,25.8-20.3,24.9
		c-3.1-0.2-6.2-0.7-9.3-1c-1.1-0.1-2.4-0.9-3.8,1.1c10,2,19.6,3.9,28.8-2.1c0.2,0.2,0.3,0.4,0.3,0.6c0,0.2-0.1,0.3-0.2,0.3
		c-6.6,6.9-14.9,7.6-23.4,5.5c-16.8-4.2-30.7-12.8-39.8-28.1c-5-8.4-9.7-16.9-14.1-25.6c-0.4-0.8-1.8-2-0.1-2.7
		c1.4-0.7,1.9,0.6,2.4,1.7c4.6,9.9,12.3,17.9,17.1,27.7c0.4,0.9,0.8,1.5,2,1c1.5-0.8,0.5-1.7,0.1-2.5c-2.5-5-5.9-9.6-9.2-14.1
		c-3.2-4.3-6.2-8.8-8.5-13.6c-1.1-2.4-2.6-3.4-5.5-2.6c-7,2-14.5,2.7-21.2,5.7c-5.4,2.4-6.2,3.6-4.7,9.2
		c4.3,15.6,8.4,31.3,14.3,46.5c0.5,1.3,1.2,2.5,1.7,3.7c1.1,2.4,2.6,3.4,5.4,2.7c4.6-1.1,9.3-1.8,13.9-3
		c12.2-3.2,21.5,1.2,28.3,11.2c6.5,9.5,9.1,20.1,7.7,31.6c-0.2,1.3-0.4,2.4-1.4,3.3c-4.5,4-8.9,8.1-14.1,11.1
		c-5,2.9-10.4,3.4-15.9,2c-2.6-0.7-5.2-1.8-7.7-2.7c-0.9-0.3-2-1.4-2.5-0.1c-0.5,1.3,1.1,1.4,1.9,1.8c6.6,3.3,13.6,5,21.5,2.8
		c-1.3,1.6-2.4,2.3-3.9,2.5c-3.2,0.4-6.3,1.6-9.6,0.8c-8.5-1.5-14.8-6.8-21-12.3c-12.7-11.3-19.1-26.4-24.4-42
		c-2.9-8.5-5.2-17.2-6.7-26.2c0.4,1.1,0.9,2.2,1.3,3.3c4.5,13,9.1,25.9,14.6,38.5c0.4,1,0.3,3,2.2,2.2c1.9-0.8,0.5-2.1,0.1-3.1
		c-9.1-21.8-16.7-44.1-23.9-66.6c-2.9-9.2-5.9-18.5-8.3-27.8c-1.1-4.5-1.5-9.2-2.7-13.7C496.2,218.3,495.5,215.7,495.2,213z"/>
	<path fill="#A9A9A9" d="M565.4,368.5c3.2,0.3,6.3-1.6,9.6-0.8C571.9,369.5,568.7,369.6,565.4,368.5z"/>
	<path fill="#BDBDBD" d="M619.8,248.3c-2.7-0.4-5.1-1.3-7.2-3C615.5,245.1,617.7,246.5,619.8,248.3z"/>
	<path fill="#B0B0B0" d="M495.2,213c0.9,2.5,1.8,5.1,1.3,7.9C495.4,218.4,495.1,215.8,495.2,213z"/>
	<path fill="#1C099A" d="M631,292.7c0-0.3-0.1-0.6-0.1-0.9c1-1.2,1.9-2.3,2.9-3.5C633.7,290.4,632.4,291.6,631,292.7z"/>
	<path fill="#FEDB00" d="M102,511.5c0.1-0.4,0.1-0.8,0.2-1.3c0.8-2.9,1.4-5.8,2.2-8.7c3.5-9.1,8.4-17.1,16.9-22.7
		c2.5-1.6,4.7-1,7-0.8c4.7,0.4,7.8-0.9,9.2-5.8c1-3.7,2.9-0.9,3.9,0c3.4,3.2,5.6,7.3,7.6,11.5c6.2,13.4,10,27.7,14.6,41.6
		c2.9,8.9,5.4,17.9,10.9,25.8c1.7,2.5,2.9,3.1,6.2,1.4c7.4-3.8,15.2-5.5,23.6-1.3c18.1,9,25.8,24.1,26.4,43.5
		c0.2,5.6-1.3,11.2-4.9,15.8c-5.5,7.1-12.2,8.1-20.8,6.3c-17.3-3.7-27.8-15.1-34-31.1c-5-13-7.3-26.7-11.8-39.8
		c-2.5-7.4-5.6-14.4-10.4-20.6c-2.5-3.2-6.9-2.8-9.4,0.4c-3.7,4.8-5.7,10.1-6.9,16c-0.6,2.8-1.7,5.5-3.5,7.8c-0.6,0.8-1,2.3-2.4,2
		c-1.2-0.3-1.6-1.5-2-2.5c-1.7-4.8-2.2-9.8-2.1-14.8c0.2-6.1,0.9-12.2,3.1-18c0.8-2.1,1.8-4.1,3.4-5.8c4.3-4.8,7.1-5.4,13.2-3.3
		c0.8,0.3,1.7,1.6,2.9,0.1c1-1.3,0.7-2.1,0.1-3.3c-4-7.7-13.1-10.4-20.5-6.1c-1.7,1-2.6,2.5-3.4,4.3c-4.1,9.5-7,19.5-11.6,28.8
		c-0.6,1.3-0.9,3.3-2.6,3.3c-1.8,0-3.1-1.5-3.9-3.1c-1.3-2.5-1.7-5.2-1.8-7.9C102.2,519.1,101.3,515.3,102,511.5z"/>
	<path fill="#FEDB00" d="M225.7,614.4c7.3-8.2,8.1-18,6.5-27.9c-1.9-12.1-7.2-22.7-17-30.6c-9.1-7.4-18.9-11.7-30.7-7.1
		c-0.5,0.2-1.2,0.2-1.9,0.4c0.6-1.8,1.2-3.2,3-3.6c10.8-2.6,21.5-3.8,32.3,0.6c12.2,4.9,20,13.7,24.3,25.8c3,8.5,3.2,17.1-0.1,25.6
		C239,605.3,233.4,610.9,225.7,614.4z"/>
	<path fill="#FDDA00" d="M140.5,467.8c4.2-0.3,6.4,1.4,8.2,4.2c6.7,10.7,12.1,22.1,17.2,33.6c5.3,12.1,10.2,24.4,16,36.3
		c1.1,2.2-1,8-3.2,9c-1.7,0.8-2.2-0.5-2.9-1.5c-3.2-4.6-5-9.8-6.8-14.9c-5.1-14.6-8.9-29.6-14.3-44.1
		C150.6,480,146.7,473.5,140.5,467.8z"/>
	<path fill="#EBCB03" d="M179,525.2c2.3,5.1,4.7,10.2,6.9,15.3c0.3,0.7,1.5,1.8-0.2,2.4c-1.3,0.5-1.7-0.5-2.1-1.4
		c-4.7-10.1-9.2-20.4-13.1-30.9c2.1,0.5,2.3,2.4,3,3.9C175,518.2,176.7,521.8,179,525.2z"/>
	<path fill="#DEDED8" d="M179,525.2c-3.2-2.4-4.2-6.1-5.7-9.5c-0.8-1.8-1.5-3.6-2.8-5.1c-2.1-4.7-4.1-9.3-6.2-13.9
		c-0.3-0.8,0.1-0.9,0.7-0.9C170.1,505.4,174.7,515.2,179,525.2z"/>
	<path fill="#766E3D" d="M165,495.8c-0.2,0.3-0.5,0.6-0.7,0.9c-1.5-2.2-2.5-4.6-3-7.2C163,491.3,164.3,493.4,165,495.8z"/>
	<path fill="#D4D4D4" d="M102,511.5c-0.2,3.8,0.9,7.7-0.5,11.5C101,519.1,100.9,515.2,102,511.5z"/>
	<path fill="#B1B1B1" d="M104.4,501.5c-0.1,3.1-0.7,6-2.2,8.7C102.1,507.1,103.2,504.3,104.4,501.5z"/>
	<path fill="#DF00FE" d="M289.7,226.7c-3.8,16.3-7.7,32.5-16.7,47c-3.3,5.3-7.6,9.5-12.6,13.2c-2.6,1.9-5.4-0.3-8,1.1
		c-3.3,1.7-7,1.6-10.6,1.5c-10.7-0.2-21-9.3-22.5-19.9c-1.6-11.2,4.6-21,15.3-24.8c9.3-3.2,18.2-3,27.3,0.9c6.1,2.6,6.2,2.2,8.4-4
		c4.3-12.4,7.2-25.1,10.4-37.8c0.7-3,0-4.5-2.9-5.6c-6.7-2.4-13.6-4.1-20.6-5.6c-2.3-0.5-4.4,1.1-5.5,3.1c-3,5.3-5.8,10.8-8.6,16.2
		c-0.4,0.7-0.7,1.5,0.2,1.8c1,0.4,1.2-0.6,1.6-1.2c1.7-2.9,3.3-5.8,5.4-9.5c0.2,2.8-0.6,4.6-1.4,6.3c-2.9,5.8-5.7,11.7-8.9,17.3
		c-7.9,13.7-20.7,18.3-35.6,18.6c-3.4,0.1-6-2-8.7-5.1c3.4,0.7,6.2,1.3,9,1.9c3.6,0.7,7.2,0.5,10.8-0.2c0.9-0.2,2.4,0.2,2.2-1.3
		c-0.2-1.7-1.6-0.6-2.4-0.5c-4.8,0.6-9.5,0.6-14.1-0.6c-8.8-2.2-13-8.9-10.1-17.5c2.1-6.4,5.9-12.2,12-15.8
		c6.2-3.7,12.7-2.5,19.2-0.8c3.5,0.9,6.8,2.2,10.6,1.9c2.3-0.2,3.2-1.2,4.3-2.7c9.2-13.1,14.3-27.9,18-43.2c0.7-2.8,1.1-3.6,4.1-2.2
		c11.2,4.9,22.5,9.5,33.9,14.1c1.9,0.8,2.3,1.5,1.7,3.5c-0.8,2.7-1.4,5.6-1.4,8.5c-0.1,17.1-4.7,33.3-9.9,49.3
		c-1.3,4.2-3,8.2-4.3,12.4c-0.3,1-2.2,2.6,0.3,3.3c2.1,0.6,1.9-1.5,2.2-2.6c2.4-7.2,4.8-14.4,7.2-21.6
		C289.6,225.7,290,225.9,289.7,226.7z"/>
	<path fill="#D900F7" d="M256.9,195c6.9,1.9,13.3,3.1,19.4,5.3c2,0.7,1.6,1.8,1.2,3.1c-0.4,1.4-0.9,2-2.6,1.4
		c-5.9-1.9-11.9-3.7-17.9-5.3c-2.1-0.6-1.6-1.8-1.4-3.1C255.6,195,256.4,194.8,256.9,195z"/>
	<path fill="#D600F4" d="M294.7,199.4c0.5-7.1,0.1-14.2,1.6-21.1c0.2-0.7,0.2-1.5,0.5-2.2c0.4-1,0.7-2.2,2.3-1.7
		c1.4,0.5,1.5,1.4,1.2,2.7c-1.2,6.7-2.4,13.4-3.7,20.1c-0.3,1.6-0.8,3.1-1.2,4.7C293.7,201.5,294.7,200.3,294.7,199.4z"/>
	<path fill="#AE00C6" d="M294.7,199.4c0.3,0.8-0.1,1.9,0.8,2.4c-1.4,8.4-3.6,16.7-5.9,24.9c-0.3-0.3-0.5-0.6-0.8-0.8
		C290.8,217,292.8,208.2,294.7,199.4z"/>
	<path fill="#730084" d="M266.4,245.3c-0.4-2.5,0.4-3.7,1.7-4.8C268.2,242,267.8,243.3,266.4,245.3z"/>
	<path fill="#5CFE53" d="M537.1,382.9c3.7,4.2,5.3,8.3,6.6,12.6c5.6,18.3,7.2,37.1,4.3,55.9c-1.5,9.5-4.8,18.8-9.2,27.6
		c-0.9,1.9-2.5,3.1-4.3,4c-10,5.3-19.6,11.6-30.8,14.3c-12.1,2.9-23.9,2.1-35-3.5c-18.7-9.4-28.3-25.2-31.1-45.6
		c-1.6-11.9-0.6-23.4,4.9-34.3c7.1-13.9,22.7-22.3,38.2-16.1c9.7,3.9,15,11.8,18.4,21.4c5.2,14.6,1.3,27.7-6.1,40.3
		c-0.8,1.4-1.5,2.9-2.3,4.3c-0.9,1.7-0.3,3,1.4,3.4c9.4,2.2,18.7,3.3,27.6-1.8c5.4-3.1,9.1-7.8,11.9-13.1
		c6.2-11.8,7.9-24.9,10.4-37.7c1.1-5.7-1.3-10.8-1.9-16.2C539.3,393.6,538.1,388.8,537.1,382.9z"/>
	<path fill="#5AFB52" d="M441.1,411.1c-11.9,23.3-7.4,54.9,10.7,73.5c12.2,12.6,27.4,18.2,45.2,16.3c1.5-0.2,3-0.3,4.7-0.5
		c-3.7,2.4-16.8,4-21.3,3.4c-13.8-1.8-24.9-8.2-34.1-18.4c-7-7.8-10.5-17.1-12.6-27.1c-1.1-5.3-1.5-10.6-2.1-16
		c-1.3-11.8,2.4-22.3,8.7-32.1C441.1,410.1,441.3,410.4,441.1,411.1z"/>
	<path fill="#308A2C" d="M513.5,465.5c5.8-2.8,10.3-7.1,14.3-12.7C526.6,458.6,519.4,464.9,513.5,465.5z"/>
	<path fill="#5E7F5C" d="M518.6,494.1c3.7-2,7.5-3.9,11.2-5.9c-2.9,3.5-7,4.9-10.9,6.7C518.9,494.7,518.8,494.4,518.6,494.1z"/>
	<path fill="#3CAF36" d="M441.1,411.1c-0.3-0.3-0.5-0.5-0.8-0.8c0.9-1.4,1.9-2.7,4.2-3.8C443.4,408.7,442.5,410.1,441.1,411.1z"/>
	<path fill="#9FFEFE" d="M423.1,210.9c-1.4-1.2-2.2-0.7-3.2,0.7c-3.3,4.7-6.9,9.2-11.7,12.5c-7.5,5.1-15.5,6.4-23.6,2.3
		c-7.5-3.8-12.4-10.3-15.1-18.3c-3.6-10.8-2.2-21.1,3.9-30.8c1.4-2.2,3.3-3.7,5.4-5c2.9-1.7,6-3.2,8.8-5c0.8-0.5,5-1.3,0.5-3
		c-0.3-0.1-0.5-0.1-0.1-0.6c2.7-3,0.4-5.7-0.7-8.3c-4.7-12-10.9-23.3-16.4-34.8c-4.5-9.4-9.2-18.8-12.5-28.8
		c-0.2-0.6-0.4-1.2-0.6-1.8c-0.6-2.5-2.2-5.4-0.4-7.5c1.6-1.8,3.9,0.6,5.8,1.1c7.9,2,15.8,1.5,23.8,0.8c1.7-0.2,2.9-1,4-2.4
		c5.4-7.1,8.3-14.7,6.1-23.7c-0.1-0.4,0-0.9,0-1.4c13.1,11.6,15.7,25,7.8,38.7c-3.5,6.1-9.6,7.6-15.2,10.1c-2.6,1.2-5.3,2.2-8,3.2
		c-1.6,0.6-2.4,1.3-1.3,3.2c6.7,12.4,12.9,25.1,20.2,37.1c1.6,2.6,5.2,4.8,7.5,7.7c3.3,4.2,6.7,8.4,9.7,12.8
		c6.9,10.2,10.1,21.5,9.2,33.9c-0.2,2.5-1.6,4.4-2.3,6.7C424.2,210.6,424,211.3,423.1,210.9z"/>
	<path fill="#5F9A9A" d="M372.1,127.6c4.5,8.7,8.9,17.4,12.4,26.5c-5-8.5-9.3-17.5-13.3-26.5C371.6,127.3,371.8,127.3,372.1,127.6z"
		/>
	<path fill="#77BFBF" d="M423.1,210.9c0.5-0.3,1-0.5,1.5-0.8c-1.1,5.3-5.2,8.5-8.8,11.9C417.5,217.8,421.2,215,423.1,210.9z"/>
	<path fill="#395858" d="M372.1,127.6c-0.3,0-0.6,0-0.9,0c-1.8-2-2.3-4.6-3.2-7C370.1,122.5,371.4,124.9,372.1,127.6z"/>
	<path fill="#5E7878" d="M370.8,177.5c-0.9,2.7-1.5,4.3-3.4,6C367.6,180.9,368.5,179.4,370.8,177.5z"/>
	<path fill="#FEAB7A" d="M320.3,569.6c0.7,2-1.8,4.2-0.1,4.7c2.2,0.7,2-2.3,2.5-3.8c6.6-17.7,17.2-33.1,27.5-48.6
		c2.7-4.1,6.1-5.2,10.6-3.8c2.2,0.7,4.6,1.1,6.8,1.9c9.1,3.5,18.4,6.4,28.1,7.6c1.2,0.2,2.4,0.5,3.6,0.9c4.3,1.3,4.4,1.4,1.9,5
		c-9,12.8-17.4,25.9-21.7,41.2c-1.4,4.9-1.4,5.3,3.2,7.7c11.6,5.9,14.6,13.2,12,26.3c-1,5.2-5.3,8.4-10.4,9.7
		c-6,1.6-10.7-1.2-14.7-5.3c-1-1-1.6-2.2-2.6-3.2c-0.6-0.7-1.1-2.3-2.5-1c-1.2,1.1-0.1,1.7,0.4,2.5c1.3,1.8,2.4,3.6,3.3,5.6
		c-3.2-1.9-5.3-4.7-6.4-8.1c-2.4-7.1-2-14.3-0.6-21.4c0.1-0.6,0.5-1.6,0.7-1.6c4.7,0.1,3.9-4.2,4.9-6.6c2.3-5.6,3.9-11.6,6.9-16.9
		c1-1.8,0.9-3.4-1.4-4c-5.9-1.5-11.6-3.8-17.6-4.9c-5.4-1-9.6,0.7-12.9,4.9c-4.7,5.8-7,12.9-11.3,19c-1.8,2.5-0.1,5.1,2.3,6.7
		c3.6,2.5,7.4,4.7,10.9,7.2c3.1,2.2,4.9,4.8,5.6,9.3c0.8,5.2-1.7,7.8-4.1,10.9c-3.3,4.3-7.6,7.5-11.8,11c-2.8,2.3-6,3.4-9.4,2.4
		c-6.7-1.8-12.9-4.4-15.5-11.9c-1-2.7-4.3-4.4-3.4-8.1c0.9-3.7,1.3-7.6,2.4-11.3c2.1-7.2,5.6-13.8,9-20.5
		C317.2,571,319.4,571.5,320.3,569.6z"/>
	<path fill="#DF966A" d="M332.8,579.8c5.4,2.1,10.3,4.8,13.4,9.8C341.7,586.3,335.9,584.9,332.8,579.8z"/>
	<path fill="#AF7552" d="M372.2,561.3c-1.1,2.1-2.2,4.2-3.7,7.3c-0.2-3.8,1.2-5.8,2.7-7.7C371.6,561,371.9,561.1,372.2,561.3z"/>
	<path fill="#784F36" d="M362.7,582.5c0.3-2.3,0.9-4.3,2.5-6.7C365.3,578.9,363.8,580.7,362.7,582.5z"/>
	<path fill="#5CFE53" d="M482.4,508.8c6.4-0.1,15,7.6,15.6,14.1c0.1,0.6-0.1,1.2-0.4,1.8c-2.1,4.1-4.9,7.5-9.3,9.4
		c-4.8,2-9.5,0.4-12.3-4c-2.6-4.1-3.5-8.6-2.9-13.3C473.8,511.8,477.5,508.8,482.4,508.8z"/>
	<path fill="#5CFE53" d="M462.2,515.8c0,4.8-0.7,8.9-3.5,12.4c-1.6,2-3.5,3-6.1,3c-7.6-0.1-15.6-9.2-14.6-16.8
		c0.8-6.2,5.5-10.2,11.9-10.1c3.6,0.1,7,1,9.9,3C462.9,509.5,461.6,513.3,462.2,515.8z"/>
	<path fill="#0A0003" d="M132.4,294.9c-0.3,0.3-0.6,0.7-1,1c-0.7,0.5-1.2,0.1-1.5-0.5c-3.7-5.4-7.8-10.2-13.2-14
		c-0.5-0.3-0.6-0.9-0.4-1.3c0.4-0.7,1-0.5,1.6-0.2c5.6,3.6,10,8.5,13.9,13.8C132.1,294.1,132.2,294.5,132.4,294.9z"/>
	<path fill="#0B0003" d="M115.3,265c0.4,0.3,0.8,0.4,1.1,0.7c3.3,2.8,6.6,5.6,9.9,8.5c0.5,0.4,1,0.9,0.5,1.6
		c-0.5,0.7-1.1,0.3-1.6-0.1c-3.5-2.6-6.9-5.3-10.4-8c-0.5-0.4-0.9-0.9-0.4-1.6C114.6,265.7,114.9,265.4,115.3,265z"/>
	<path fill="#090003" d="M103.6,289.4c-0.2,2.4-0.4,4.7-0.5,7.1c-0.1,0.9-0.1,1.8-1.4,1.6c-1-0.2-1.2-0.8-1.1-1.6
		c0.4-3.8,0.9-7.7,1.3-11.5c0.1-0.6,0.2-1.4,1-1.3c1.1,0,0.9,1,0.9,1.7c0,1.4,0,2.7,0,4.1C103.7,289.4,103.6,289.4,103.6,289.4z"/>
	<path fill="#060002" d="M164.1,359.5c0,7.9-2.9,14.3-7.2,20.2c-0.5,0.7-0.9,1.5-2,0.7c-1-0.7-0.8-1.3-0.2-2.1
		c8.5-10.4,8.5-21.8,4.2-33.8c-0.1-0.4-0.2-0.7-0.4-1.1c-0.3-0.7-0.5-1.5,0.5-1.8c1-0.3,1.2,0.7,1.4,1.3
		C162.4,348.4,163.8,354.1,164.1,359.5z"/>
	<path fill="#0A0003" d="M159.8,385c-1.1-0.4-0.8-1.1-0.3-1.7c3.5-4,7.1-8,10.7-12c0.5-0.6,1.2-0.9,1.9-0.2c0.5,0.5,0.8,1.1,0.2,1.6
		c-3.9,4-7.8,8-11.7,12C160.3,385,160,384.9,159.8,385z"/>
	<path fill="#020205" d="M547.5,217.6c0.1,2.1-0.9,3.1-2.6,3.8c-6.4,2.5-12.9,4.6-19.5,6.5c-3.4,1-5.1-1.2-6.8-3.4
		c-1.7-2.3-1-4.5,0.7-6.5c1.9-2.2,4.4-3.7,7-4.8c4.1-1.7,8.4-3.2,12.5-4.9c3.3-1.3,5.4-0.3,6.6,3.1
		C546.2,213.5,547.2,215.5,547.5,217.6z"/>
	<path fill="#020002" d="M263.4,167.6c6.7,2.6,14.6,4.3,19.9,10.7c1.1,1.3,0.2,2.9,0,4.3c-1.2,9.5-1,9-10,6.5
		c-4.1-1.1-8.2-2.2-12.3-3.2c-2-0.5-3-1.7-2.9-3.6c0.4-4.1,1-8.2,1.4-12.3C259.7,168,261.1,167.6,263.4,167.6z"/>
	<path fill="#030202" d="M377.1,547c-7.1-1.4-14.1-3-20.9-5.4c-3.3-1.2-3.3-3.8-0.4-5.9c3.4-2.4,7.2-3.5,11.3-2.1
		c5.1,1.8,10.2,3.3,15.5,4.1c1.9,0.3,2.4,1.3,2.2,2.7C384.7,542.7,379.6,546.8,377.1,547z"/>
	<path fill="#FCFBFD" d="M521.2,221.5c-0.2-1.6,0.2-2.5,1.3-3.2c5-3.7,10.9-5.2,16.6-7.2c0.2-0.1,0.6-0.2,0.7-0.1
		c1.7,2.1,1.3,4.8,2,7.2c0.4,1.3,0.3,2.1-1.1,2.6c-5.3,2.1-10.8,3.8-16.3,4.9C520.9,226.4,522.4,222.6,521.2,221.5z"/>
	<path fill="#1700AC" d="M545,218.6c-1.4-2.4-2.1-5-2.2-7.8C544.3,213.2,546,215.5,545,218.6z"/>
	<path fill="#F9F9F9" d="M263.6,177.9c5.2,1.5,10.6,2.8,15.6,5c1.7,0.8,0.8,2.1,0.4,3.2c-0.4,1.1-0.7,2.5-2.5,2
		c-4.6-1.4-9.3-2.8-13.9-4.2c-2.5-0.8-1-2.9-1.2-4.4C261.9,178.6,262.4,177.8,263.6,177.9z"/>
	<path fill="#D700F4" d="M280.1,180.4c-4-1.1-8.1-2.3-12.1-3.4c-4.6-1.2-4.7-1.2-4.3-6.6c6,2.6,13.2,3,17,9.2
		C280.5,179.8,280.3,180.1,280.1,180.4z"/>
	<path fill="#F9F8F8" d="M356.2,538.8c3.4-3.3,6.9-4.3,10.9-2.8c4.3,1.6,8.6,3.1,13.2,3.8c-2.1,4.9-2.3,5-7,3.7
		C367.7,542,362.1,540.4,356.2,538.8z"/>
</g>
</svg>
