<?xml version="1.0" encoding="utf-8"?>
<!-- Generator: Adobe Illustrator 18.0.0, SVG Export Plug-In . SVG Version: 6.00 Build 0)  -->
<!DOCTYPE svg PUBLIC "-//W3C//DTD SVG 1.1//EN" "http://www.w3.org/Graphics/SVG/1.1/DTD/svg11.dtd">
<svg version="1.1" id="drums2" xmlns="http://www.w3.org/2000/svg" xmlns:xlink="http://www.w3.org/1999/xlink" x="0px" y="0px"
	 viewBox="0 0 1280 800" enable-background="new 0 0 1280 800" xml:space="preserve">
<path d="M856.5,662.4c-14.6-7.1-29.5-9.8-45.1-8.9c-1.3,0.1-2.2,0.5-3,1.4c-12.8,12.8-27.2,23.4-43,33.4c6.8,3.9,13.1,7.7,18.6,12.6
	c6.7,6.1,13,12.6,18.7,19.6c1.7,2,2,4.4,2.4,7c2.3,14.5-4.9,22.5-17.3,27.9c-23.4,10.3-47.5,17.6-72.9,20.5
	c-27.7,3.1-55.5,5.6-83.4,5.8c-47,0.3-92.8-6.1-136.3-24.8c-8.5-3.6-16.3-8.4-23.8-13.9c-1.6-1.2-2.7-2.5-3-4.5
	c-0.8-4.4-1.7-8.7-2.4-13.1c-0.4-2.5,0.6-4.5,2.2-6.4c12.3-14.1,25.6-26.8,43.8-34c-7.9-5.8-15.5-11.1-22.7-16.9
	c-15.9-12.6-26.7-29.1-35.4-47.1c-9.7-19.9-17.8-40.5-20.8-62.7c-1.5-11.3-1.7-22.6-0.8-34c2.5-31.4,13.4-59.8,30.4-85.9
	c16.3-24.9,37.1-45.6,61.8-62.4c3.2-2.2,6.6-4,9.9-5.9c-0.2-1.2-1-0.9-1.7-0.9c-36.4-0.3-72.7-1.9-109-4.2c-1.7-0.1-3.5,0-5.2-0.2
	c-1.3-0.1-1.9,0.2-2.5,1.6c-2.7,6.2-3.6,6.7-10.4,6.4c-2.2-0.1-3.7-0.3-3.4,3c2.7,24.9,3.9,49.9,7.6,74.6
	c2.3,15.2,4.8,30.3,6.2,45.7c1.8,19.7-2.4,37.8-11.1,55.3c-6.9,13.8-13,28.1-19.6,42.1c-1,2.2-1.1,3.1,1.2,4.7
	c6.7,4.4,8.8,11.5,9.5,19c0.3,3.6,0.4,7.2,0.2,10.8c-0.2,2.9,0.8,3.5,3.6,3.6c15.3,0.6,30.2,3.1,44.1,10.2c7.6,3.9,14.2,9.2,20,15.5
	c3.3,3.7,3.6,10.5,0.8,15.1c-4.4,7.1-10.6,12-18,15.5c-21.2,10.2-44.1,13.2-67.1,15.3c-17.8,1.7-35.6,2.3-53.4,0.9
	c-11.7-0.9-23.4-2.3-34.7-5.9c-2.3-0.7-4.6-1.6-6.7-2.8c-9-5-11.1-12-7.1-21.4c4.4-10.4,12.9-16.7,21.9-22.3
	c13-8.1,27.5-12.3,42.3-15c4-0.7,5.1-2.2,4.8-6.1c-0.4-6.7-0.1-13.5,1.5-20.1c1.1-4.6,3.3-8.3,7.7-10.2c3.3-1.5,5-4.1,6.6-7.1
	c8.8-17.3,16.7-34.9,23.7-53c5.9-15.3,5.6-31.6,5.1-47.7c-1-31.1-4.6-61.9-8-92.7c-0.9-7.7-1.5-15.4-2.2-23.2
	c-0.2-2.4-0.7-4-3.8-3.9c-2.7,0.1-5.7-0.8-6.6-3.3c-1.7-5-5.8-4.4-9.4-4.9c-2.3-0.3-4.3,0.6-6.7-1.2c-5.4-4.1-10.3-8.3-10.5-15.7
	c-0.1-3.3-0.2-6.6,0-9.9c0.3-5.2,2-10.5-0.9-15.5c-1.5-2.6-1.1-5.6-0.7-8.3c0.3-2-0.3-2.9-2.2-3.4c-1.7-0.5-2.4-0.1-3.2,1.5
	c-1.9,3.8-5.2,5.8-9.5,5.3c-4.5-0.6-7.6-3.2-9-7.6c-0.6-1.8-1.4-3.8-1-5.5c1-4.8-2-5.5-5.5-6.7c-17.6-5.9-35-12-50.7-22.2
	c-3-2-5.9-4.2-8.3-6.8c-7.8-8.6-4.7-16.6,4.2-21.3c9.8-5.2,20.6-6.1,31.3-6.7c16.7-0.9,33.3,0,49.9,1.9c5.1,0.6,7-1.3,6.2-6.2
	c-1.7-10.2-3.5-20.3-5.2-30.5c-0.3-2-1.6-3.4-3.2-3.5c-4-0.2-3.6-2.9-3.4-5.4c0.1-1.7,1.2-3.8-1.7-3.5c-2.5,0.2-6-1.5-7,2.8
	c-0.4,2-0.4,4-0.9,6c-1.5,5.6-5.5,7.9-11.1,6.4c-7.2-1.9-9.4-4.3-10.1-11.5c-0.6-6.1-1.3-12.3-0.7-18.5c0-0.3,0-0.6,0-0.9
	c0.6-6.3,4.1-11.3,8.2-11.9c4.3-0.6,9.3,3,11.4,8.9c0.9,2.5,2.1,2.9,4.4,2.5c2-0.4,4-0.4,6-0.4c2.3,0.1,3.4-0.7,3.3-3.2
	c-0.1-7.2,2.4-13.9,3.5-20.9c0.5-3.1-0.2-4.6-2.6-6.4c-22.3-16.5-44.5-32.9-65.6-50.9c-16.7-14.3-32.6-29.5-48.4-44.7
	c-3.6-3.5-6.6-7.5-8.3-12.4c-1.2-3.4-1.2-6.8,1.4-9.2c2.7-2.6,6.5-3.7,10.2-2.9c30.4,6.6,58,19.8,84,36.5c6.4,4.1,12.3,7,20.9,5.7
	c17.1-2.5,32.8,2.4,45,15.5c9.7,10.4,14,23.2,15.3,37.1c0.2,2.6,1.2,4.5,3,6.3c6.9,6.6,13.3,13.5,19.5,20.7c1.6,1.9,2.8,2.7,5.6,1.3
	c7.1-3.7,14.9-0.1,16.9,7.7c0.6,2.3,1.7,3.3,3.5,4.3c23.8,13.1,47.5,26.3,71.3,39.3c5.9,3.2,12.4,5.4,18,9.2c5.4,3.6,7.3,7,5.7,9.8
	c-1.6,2.7-5.6,2.9-11.4,0c-9.3-4.5-17.7-10.6-26.9-15.4c-21.2-11.1-42.3-22.6-63.6-34c-0.3,1.6,0.8,2.2,1.4,3.1
	c4,6.1,8.1,12.2,12.1,18.4c1.5,2.3,2.5,4.6,2.7,7.7c0.5,8.4-3.2,11.9-11.4,9.4c-8.4-2.5-15.8-7.5-23.4-11.7
	c-16.1-8.9-31.5-19-46.7-29.3c-1.1-0.8-2-2-3.8-2c3,9.4,2,18.7,0.5,28.1c-0.9,5.6-2.7,11.1-0.9,17.1c1.8,5.7,2.6,11.8,3.2,17.8
	c0.6,5.8,2.7,9.1,9,10.5c7.6,1.7,14.2,6.1,19,12.6c0.8,1.1,1.8,1.7,3.1,2.1c17.5,5.7,34.3,13.1,49.7,23.4c3,2,6.2,2.6,9.7,2.9
	c12.2,0.9,24.3,2.4,36.3,4.4c6.2,1.1,12.3,3,18.3,4.6c4.4,1.2,7.8,0.3,10.6-3.5c4.7-6.4,12-8,19.1-9.7c39.3-9.5,79-11.3,119-5.1
	c16.7,2.6,32.6,8.1,47.5,16c4.9,2.6,8.6,6.7,12.4,10.6c3.4,3.5,6.8,4.3,11.6,2.7c24.8-8.1,49.4-16.9,75.1-22c22-4.4,44-8.4,66.6-8.2
	c1.6,0,3-0.1,4.2-1.5c1.8-2,4-2.9,6.8-3.1c3.6-0.2,5.2-3.6,3.3-6.6c-7.2-11.6-15-22.8-23.2-33.7c-0.7-1-1.4-2.7-3.1-0.9
	c-0.2,0.2-1.1-0.1-1.6-0.2c-12.2-3.3-24.5-6.3-36-11.5c-2.1-0.9-4.2-1.8-5.9-3.5c-2.9-2.9-2.7-5.1,1-6.8c4.6-2.1,9.6-2.6,14.6-3.1
	c2.7-0.2,5.3-0.5,9.3-0.8c-6.7-6.2-11-13.2-19-15.9c-4-1.3-6.2-4-6.5-7.7c-0.9-11-6.5-20.8-7.9-31.7c-0.3-2.5-1.6-1.1-2.7-0.7
	c-13.1,4.6-26.1,9.5-39.5,13.5c-21.4,6.5-43.2,10.4-65.6,11c-2.7,0.1-5.5,0-8.2-0.5c-10.7-1.7-15.4-9.4-12.1-19.8
	c2.5-7.7,7.9-13.3,13.7-18.4c19.1-16.6,38-33.5,61-44.7c7-3.4,11.6-8.3,15.6-14.9c11.8-19.3,36.1-31.3,59-23.6
	c7.4,2.5,13.4,1.9,20.4-0.3c25.5-7.9,51.6-12.3,78.3-13.5c6.3-0.3,12.6,0,18.9,1.2c17.4,3.5,18.1,19.3,9,29.3
	c-8.1,8.9-18.1,15.5-28.3,21.7c-28.4,17.5-58.1,32.4-88.8,45.4c-2.1,0.9-3.4,1.7-1,3.8c2.6,2.3,4.2,5.4,5.4,8.7
	c1.6,4.2,4.3,0.9,6.5,0.8c2-0.1,3.7-1,2.6-3.6c-0.9-2.2,0-3.5,1.4-5.4c1.9-2.6,3.2-5.7,5.6-8c8.3-8,18.7-5.7,22.3,5.2
	c3.5,10.7,5.8,21.7,5.2,33c-0.1,1.7,0.1,2.2,1.8,2.3c8.9,0.9,17.7,2,26.5,3.1c1.8,0.2,3-0.8,4.3-1.6c8.9-5.4,18.4-9.5,28.8-10.8
	c15.1-1.8,28.7,5.6,36.6,19.9c1.3,2.4,3,4.8,3.6,7.4c1.3,5.9,5.1,8.9,10.2,11.6c18.3,9.5,36,19.7,51.7,33.3c2.6,2.3,5.2,4.5,7.6,7
	c1.5,1.6,3.9,3.5,2.4,5.9c-1.3,2.1-4,2.1-6.5,1.8c-6.7-0.9-13.2-2.6-19.8-4.4c-0.7-0.2-1.4-0.3-3.1-0.8c3.8,2.8,6.8,4.9,9.7,7.2
	c1.6,1.2,3.1,2.6,4.3,4.2c3,4,1.1,7.9-3.8,8.4c-13.3,1.4-26.4-0.4-39.4-2.5c-24.8-4.1-49.2-10-73.6-16c-2.9-0.7-4.4,0.3-6.5,2.3
	c-6.4,6.1-6.2,11.5-2.1,19.3c9.8,18.3,17.1,37.9,25.2,57c1.8,4.2,4.1,7.5,8.4,9c3.2,1.1,4.3,3.5,4.5,6.5c0.9,11.3-1.1,22.3-3,33.4
	c-0.2,1.4-1,2.2-2.4,2.7c-2.4,0.9-4.7,2.4-7.2,2.9c-6.9,1.3-9.5,5.8-11.1,12.2c-5.1,20.1-10.2,40.3-14.8,60.6
	c-4.6,20.2-5.3,40.7-4.3,61.3c1.6,30.3,7.2,60.1,12.2,90c1.3,8.1,2.6,16.2,3.9,24.2c0.3,1.8,0.3,3.7,2.1,5
	c9.3,6.5,11.5,16.3,12.5,26.7c0.4,4.1-1.7,9.4,0.9,12c2.5,2.5,7.7,2.4,11.7,3.4c23.4,6.2,44.2,16.9,60.6,35.1
	c3.8,4.2,7.4,8.8,11,13.2c1.6,2,1.9,4.2,0.9,6.7c-4,9.9-11.5,15.9-21.2,19.4c-15.4,5.6-31.4,6.8-47.5,6.9
	c-32.8,0.2-65.1-3.7-96.6-12.8c-14.7-4.2-28.8-9.8-40.9-19.5c-7-5.6-12.4-12.3-14.6-21.2c-0.6-2.6-0.2-4.4,1.6-6.4
	C824.2,675.5,833.3,669.9,856.5,662.4z"/>
<path fill="#E6E6E6" d="M637,353.7c9.5,0,19,0.1,28.5,0c13.5-0.1,26.3,3.3,39.2,6.8c17.2,4.7,33.3,12.2,48.3,21.3
	c16.3,9.9,30.7,22.4,43.5,36.8c9.5,10.7,17.6,22.5,24.2,35c8.3,15.8,14.3,32.7,18,50.5c3.2,15.5,4.3,31.2,3.7,46.7
	c-0.7,16.6-2.4,33.5-8.1,49.5c-2.5,7.2-4.5,14.5-6.7,21.8c-3.4,11.1-10.1,20.2-18.1,28.5C784.8,676,755,693.7,723,708.1
	c-14.9,6.7-30.7,9-46.6,11.7c-17.6,3-35,0.5-52.3-1.2c-23.2-2.3-45.9-7.2-67.9-15.2c-26.2-9.5-49.7-23.6-70.6-42
	c-14.1-12.4-23-28.4-31-45.1c-6.5-13.6-12.3-27.5-15.7-42.2c-10.2-43.7-2.4-84.6,19.6-123.1c17.1-30,40.3-54.3,69-73.4
	c5.6-3.7,11.5-6.9,18.5-8.5c3.7-0.9,7.6-3.7,11.7-5.1c23.6-8.3,47.9-11.5,72.9-10c2.1,0.1,4.3,0,6.5,0
	C637,353.8,637,353.8,637,353.7z"/>
<path fill="#E6E6E6" d="M528,349.7c-24.3-1-48.6-2.1-72.8-3.1c-1.9-0.1-3.6-0.3-5.4-1.3c-14.6-8.4-28.6-17.7-41.7-28.2
	c-9.1-7.2-8.8-9.4,1.7-13.8c13.2-5.5,27.1-5.8,41.1-4.8c19.5,1.4,38.9,3.3,57.7,9.1c3.9,1.2,7.2,0.4,10.5-1.9
	c17.4-11.7,37.4-15.8,57.7-18.1c32.1-3.7,64.1-2.2,95.5,5.4c14.6,3.5,29,8.3,41.9,16.5c2.6,1.6,5,3.5,6.4,6.2c1.8,3.3,4.4,4.1,8,3.3
	c12.2-2.5,23.6-7.1,35.4-10.9c24.8-8,50.4-12.4,76.1-16.2c13.4-2,26.9-3.2,40.4-2.5c6.9,0.4,13.7,1.1,19.9,4.7
	c5.9,3.4,6.6,7.4,1.9,12.5c-4.8,5.3-10.9,8.9-17,12.3c-17,9.5-35.6,15.1-53.1,23.2c-11.8,5.5-24.1,4.7-36.3,5.4
	c-38.6,2-77.3,3.1-116,3.7c-6.7,0.1-13.2-0.6-19.7-1.7c-9.9-1.7-19.8-0.8-29.7-0.1C596.4,351.6,562.2,350.8,528,349.7z"/>
<path fill="#E6E6E6" d="M934.7,375.6c-5.6,18.8-9.6,37.8-14.5,56.7c-8,30.8-8.7,61.9-5.4,93.3c3.1,29.7,9.1,59,13.8,88.4
	c0.4,2.3,0.9,4.5,1.1,6.8c0.4,3.8,1.8,6.6,4.9,9.3c6.4,5.6,8.3,13.5,9.1,21.7c0.8,8.8,0,17.5,0,26.3c0,1-0.8,2.7,0.9,2.8
	c1.9,0.2,0.9-1.6,1.2-2.6c0-0.1,0-0.3,0-0.4c0.6-10.3,0.6-10.3,10.5-7.7c17.1,4.5,33.3,10.7,47.5,21.6c9.4,7.2,17.4,15.8,24.7,25.1
	c1.3,1.6,1.1,2.9,0.4,4.7c-4.8,12.3-15.1,17.6-27,20.5c-21.5,5.3-43.3,5.2-65.2,3.8c-23.5-1.5-46.8-5-69.5-11.5
	c-15.1-4.4-29.7-10-42.1-20.1c-6-4.9-10.4-11-12.5-18.6c-0.4-1.5,0.1-2.5,0.9-3.5c12-14.3,26.4-24.6,45.3-27.6
	c2.2-0.4,4.2-0.1,6.3,0.7c7.5,2.9,15.1,5.6,22.6,8.3c1.1,0.4,2.4,1.8,3.3-0.1c1.1-2.3-1.2-2.2-2.3-2.6
	c-15.4-5.5-30.8-10.9-46.3-16.3c-6.2-2.2-7.1-3.1-7.7-10.1c17.5,5.8,35,11.6,52.5,17.4c3.9,1.3,5.5,0.2,5.6-4.1
	c0.2-5.7-0.2-11.5,0.8-17.2c1.1-6.5,3.9-11.6,9.5-15.1c2.5-1.5,3.4-3.5,2.9-6.7c-5.3-37.1-11-74.1-16.4-111.2
	c-3.4-23.2-0.1-45,6.5-67c5.5-18.2,11.7-36.2,16-54.8c0.1-0.3,0.1-0.6,0.2-0.8c1-2.9-0.7-7.1,2-8.7c2.4-1.4,6.1-0.8,9.3-0.9
	C927.4,375.1,931,374.8,934.7,375.6z"/>
<path fill="#E6E6E6" d="M628.9,779.2c-42.6,0.3-84.1-5.6-124.2-20.6c-10.7-4-20.7-9.3-30.1-15.7c-2.7-1.9-4.1-4-4.7-7.2
	c-2.3-12.1-2.3-12,6-21.1c10.2-11.1,21.4-20.8,35.4-26.9c2-0.9,3.4-1.2,5.5,0.1c33.2,20,69.7,29.8,108,33.9
	c8.6,0.9,17.2,1.3,25.8,2.3c12.2,1.3,23.9-2.3,35.8-3.6c26-2.8,48.7-14.5,70.9-27.3c3.7-2.1,6.4-2.2,10.1-0.2
	c13.6,7.2,23.9,18.2,33.9,29.4c0.8,0.9,0.6,1.8,0.7,2.8c0,1.9-0.2,3.8,0.1,5.6c1.8,10.7-4.1,16.6-12.9,20.7
	c-22.9,10.8-46.7,18.3-71.9,21.4C688,776.5,658.5,779.1,628.9,779.2z"/>
<path fill="#FEFEFE" d="M735.9,369.8c35.5-0.9,70.7-2.2,105.8-4.9c0.2,0.5,0.4,0.7,0.4,0.9c-3,8.4-1.8,11.7,5.9,16.7
	c3.2,2.1,6.6,3.5,10.3,4.1c9.9,1.8,15.5-1.3,19.3-10.6c1.4-3.5,3.2-6.8,4-10.4c0.9-3.9,3-4.8,6.6-4.8c5,0,10-0.5,15.1-0.8
	c1.6-0.1,2.5,0,2.6,2.2c0.1,2.5-2.7,6.3,3,7.1c1.4,0.2,2.1,4.4,2.1,7.1c0.1,6.9-1.9,13.3-3.7,19.8c-5.6,19.7-12.1,39.2-17.4,59
	c-4.5,16.7-4.9,33.3-2.8,50.3c4.7,38,10.9,75.8,16.2,113.7c0.3,2.4,0,3.7-2.2,5.1c-6.2,3.8-8.9,9.8-10,16.8
	c-0.4,2.8-0.7,5.7-1.1,8.7c-9.6-2.4-19-4.8-28.2-8.1c-1.5-0.5-2.8-1.3-3.8-2.7c-6.1-8.5-14.3-14-24.2-17c-3.1-0.9-3.5-2.5-2.5-5.3
	c2.6-7.6,5-15.2,7.3-22.9c3.1-10.7,3.9-21.7,5.1-32.7c2.4-22,0.4-43.7-4.6-65.3c-6.2-26.4-18-49.9-34.3-71.1
	c-11.9-15.5-26.5-28.5-42.6-39.8c-7-4.9-14.5-8.8-22-12.7C738.8,371.4,737.3,370.6,735.9,369.8z"/>
<path fill="#E6E6E6" d="M404.3,430.7c1.7,17,3.4,34,5.1,51c0.9,8.7,0.8,17.7,2.7,26.1c2.7,11.3-0.5,21.3-4.7,31.2
	c-7.7,18.1-16.3,35.8-24,53.8c-2.1,4.9-5.2,6.7-10,7.2c-1.6,0.2-4.7-0.5-4.5,1.7c0.2,1.9,3.2,0.6,4.9,0.8c2.2,0.2,4.6-0.1,6.2-1.4
	c2.9-2.4,4.6-0.6,6.5,1.1c6.4,5.9,6.9,13.9,7.3,21.9c0.2,5.7-0.2,11.5-0.3,17.2c0,1-0.6,2.7,1.2,2.6c1.5,0,0.9-1.5,1-2.4
	c0.7-7.2,0.7-7.1,7.8-6.6c15.7,1,30.7,4,44.4,12.3c4.4,2.7,8.4,6,12.1,9.6c4.1,3.9,4.5,10,1.5,15c-3.8,6.4-9.6,10.6-16.1,13.8
	c-19.7,9.6-40.9,12.8-62.4,15c-20.6,2.1-41.3,3-62,1c-9.9-0.9-19.7-2.3-29.2-5.2c-0.1,0-0.3-0.1-0.4-0.1
	c-11.5-3.8-19.9-12.2-8.2-26.8c9.3-11.6,21.6-18.7,35.2-23.8c7.9-3,16.2-5,24.4-6.9c2.7-0.6,4.1-0.4,3.7,2.8
	c-0.1,1.1,0.1,2.3,0.1,3.4c0.1,1.1-0.4,2.4,1.5,2.4c1.8-0.1,1.5-1.3,1.5-2.5c-0.2-6.8-0.4-13.5-0.4-20.3c0-4.5,0.6-8.8,1.6-13.2
	c0.9-4,2.8-6.9,6.4-8.6c3.3-1.6,5.4-4.1,7-7.3c9.6-18.6,17.9-37.9,25.4-57.4c2.7-6.9,2.6-14.6,3.7-22c3.1-20-1.1-39.8-2.1-59.6
	c-1.3-26.6-4-53-5.4-79.6c-0.3-5.4-3.7-5.9-6.7-6.6c-7.4-1.6-7.5-1.2-8.7-8.6c-1.4-8.6-1.4-8.1,7.4-7.3c8,0.7,16.1,0.4,24.1,0.2
	c3.3-0.1,5.2,0.3,5.2,4.4c0,3.1,1,6.2,1.9,9.2c0.6,2.1-0.1,2.4-1.9,2.6c-2.6,0.2-5.5-1-7.8,1.1c-0.6,0.4-1.2,0.8-1.9,1.1
	c-1.6,0.8-1,2.2-0.9,3.4c1.5,17.4,3.1,34.8,4.5,52.2c2.1,25.3,4.5,50.5,6.3,75.8c0,0.6,0.3,1.1,0.3,2c-1.3-15.2-2.6-30.1-3.8-45
	c-0.7-8.3-2-16.5-1.7-24.9C402.8,434.7,401.1,431.9,404.3,430.7z"/>
<path fill="#E6E6E6" d="M939.4,41.5c5.9,0.5,11.6,1,17.4,1.4c2.7,0.1,3.3,1.5,3.4,3.8c0.5,8.9-5.1,14.4-11.1,19.3
	c-18.5,15.2-39.6,26.5-60.8,37.5c-16.3,8.5-32.9,16.3-49.8,23.7c-3.6,1.6-5.2,1.4-6.5-2.9c-4.5-16-9.4-32-14.4-47.8
	c-1-3.3,0-4.3,2.6-5.3c7.5-2.9,15-5.8,22.4-8.8c2.4-1,4.5,0.4,6.7,0.6c1,0.1,2.2,0.6,2.7-0.5c0.4-0.7,0.5-1.5-0.8-2.3
	c-1.3-0.8,0.6-1.1,1.2-1.3c19.1-6.1,38.4-11.8,58.3-14.8C920.3,42.5,930,42.5,939.4,41.5z"/>
<path fill="#E6E6E6" d="M701.2,164.1c-3.6,0-8.6,0.1-13.3-2.1c-2.3-1.1-3.1-2.4-2.4-5.1c1.3-5.3,4-9.7,7.4-13.9
	c7.6-9.4,18.1-14.9,28.1-20.9c24.8-15,50.3-28.7,76.6-40.9c2.2-1,3.5-1.8,4.2,1.7c3.4,16.4,7.2,32.8,10.9,49.1c1,4.6-3,5.6-5.6,6.6
	c-16.3,6.2-32.8,12-49.7,16.8C739.5,160.5,721.2,163.2,701.2,164.1z"/>
<path fill="#E6E6E6" d="M850.5,169c-6.5-0.3-12.5,1.1-18.4,2.9c-1,0.3-3.5-0.3-2.5,2.3c0.8,2,2.1,0.6,3.2,0.3
	c5.4-1.5,10.6-3.4,16.7-3c-1.1,3.7-3.7,4.3-6.8,4.3c-1.2,0-2.9-0.1-2.4,2c0.4,2,1.9,0.8,2.7,0.6c1.9-0.6,3.1,0,4.4,1.5
	c18.9,19.7,37.8,39.4,56.8,58.9c2.1,2.1,0.3,4.2,1.4,6.4c6.5,12,12.6,24.2,18.7,36.4c7.1,14,14.1,27.9,21.2,42.2
	c-3.1,0.5-4.1-1-5.2-3c-12.3-23.9-24.6-47.7-36.9-71.5c-0.5-0.9-0.8-1.8-1.4-2.7c-0.3-0.5-0.7-0.9-1.4-0.6c-1,0.4-0.7,1.1-0.4,1.7
	c0.4,0.9,0.9,1.8,1.4,2.7c11.4,22.7,22.8,45.3,34.2,68c0.7,1.4,1.3,2.8,2,4.4c-4.3,0.6-8.3,1-12.2,1.7c-1.8,0.3-2.2-0.8-2.8-2
	c-4.5-9-9-17.9-13.6-26.9c-1.6-3.2-0.5-6.8-1.4-10.2c-0.9-3.7-2.3-6.9-6-8.3c-2.7-1.1-3.1-3.5-4.1-5.5
	c-6.8-12.7-14.8-24.6-23.2-36.3c-11.7-16.3-23.9-32.3-38.3-46.4c-3.8-3.8-7.6-7.8-13.3-9c-2.2-0.5-3.4-2.3-3.6-4.4
	c-1-10.8-5.9-20.6-8.1-31.2c-0.7-3.4,0.1-5.4,3.2-6.8c3.6-1.7,7.1-3.7,11-4.9c6.7-2.1,11-0.5,14.5,5.5c0.4,0.6,0.7,1.3,1,1.9
	c3.7,7.1,5.4,7.7,12.6,3.9c1.8-0.9,2.9-2.3,2.9-4.7c0.1-5.5,2.9-9.8,7.1-13.2c6-4.9,12.9-3.4,15.8,3.8c3.7,9.4,5.5,19.3,5.9,29.4
	c0.2,5.8-3.3,9.3-8.5,11.1c-2.3,0.8-4.7,1.2-7.1,1.4c-6.7,0.4-7.6-0.4-9.1-6.9c-1.4-6.1-2.2-6.6-8.1-5c-4.4,1.2-1.2,4.9-2.5,7.1
	C849.7,167.2,850.2,168.1,850.5,169z"/>
<path fill="#E6E6E6" d="M339.5,145.4c-23.3-17.1-45.9-33.7-67.4-51.9c-16.7-14.2-32.6-29.4-48.5-44.6c-2.7-2.6-5-5.5-6.7-8.9
	c-2-4-1.4-4.9,3.1-5c4.6-0.1,8.8,1.5,12.9,3.3c15.4,6.5,29.2,16,43.1,25.1c23.1,15.1,45.8,30.7,68.1,47.1c2.3,1.7,2.9,3.1,2.2,5.9
	C343.9,125.9,341.9,135.4,339.5,145.4z"/>
<path fill="#E6E6E6" d="M874.4,175.2c3.5-1.4,6.9-2.7,9.4-5.5c1.6-1.7,3.4-1.4,5.2-1.2c8.2,0.7,16.3,1.4,24.5,2.3
	c3.8,0.4,7.1-0.1,10.5-2.2c7.9-5,16.6-8.7,26-9.6c15.1-1.4,26,5.3,33.6,18.1c2.4,4.1,4.7,8.4,5.7,13c0.6,3,2.3,4.2,4.7,5.4
	c18.2,9.6,36.3,19.2,52.4,32.2c1.2,1,2.4,2,3.4,3.4C992.1,209.9,933.8,190.8,874.4,175.2z"/>
<path fill="#E6E6E6" d="M345.1,297.6c-3.5-1.9-5.6-4.4-7-7.4c-1-2.3-2.5-3.8-4.7-4.7c-2.7-1.1-4.8-2.5-7.4,1.4c-2,3-5.4,5.3-7.2,8.8
	c-0.7,1.4-1.6,0.7-2.5,0.4c-18.4-6-36.7-12.2-53.3-22.6c-4-2.5-7.8-5.4-10.3-9.6c-1.6-2.6-2.1-4.5,1.3-6.8
	c6.5-4.5,13.5-6.4,21.3-6.6c19.8-0.6,39.5-0.2,59.2,2.7c-0.1,0.4-0.1,0.7-0.2,0.9c-1.1,0.9-3.9,0.4-3.4,2.3c0.7,2.3,2.6-0.1,4-0.1
	c0.6,0,1.1-0.2,1.7-0.4c9.7-2.1,10.9-1.3,12.9,8.2c1.4,6.6,2.8,13.2,4.2,19.8c0.3,1.2,0.9,2.5-0.8,2.8
	C346.8,287.6,346.6,292.9,345.1,297.6z"/>
<path fill="#E6E6E6" d="M875.5,372.7c-5.2-11.6-16.2-13.8-30.6-5.8c5.3-10,6.9-20.5,12.8-29.4c1.2-1.9,2.9-3.1,5.1-3.7
	c6.2-1.6,12.2-1,18,2c1.5,0.8,3.4,1.8,3.7,3.4c1.1,5,4.1,5,8.4,4.7c5.2-0.3,10.4-2.3,15.7-0.3c1.7,0.6,1.8-0.9,1.7-2.1
	c-0.7-11.7,2.4-10.2,11.8-11.7c9-1.5,18-1.9,27-0.9c5.4,0.6,6.4,1.5,6.6,6.9c0.4,9.7-1.2,19.2-2.7,28.7c-0.3,2.2-2,3-3.7,3.7
	c-7.4,3.1-14.8,6-23.1,4.5c-2.4-0.4-4.9-0.2-7.3,0c-3.8,0.4-5.9-0.2-8.2-4.3c-1.9-3.6-3-6.4-2.4-10.3c0.4-2.6-1.1-4-3.9-3.7
	c-6.4,0.7-13,0.8-19.2,2c-3,0.6-4.7,4.1-6.1,6.9C877.8,366.3,877.5,369.5,875.5,372.7z"/>
<path fill="#E6E6E6" d="M723,313.8c-7.6-8.7-17.9-12.5-28.2-16.4c-34.9-13.1-71.1-15.4-107.8-13.1c-16.2,1-32.2,3.6-47.7,9
	c-6.9,2.4-13.7,5.1-20.1,9.7c-0.6-3.2-1.2-6-1.7-8.7c-0.2-0.9-0.1-1.6,0.7-2.3c6.5-5.8,12.9-11.2,22-13.3c32.9-7.6,66-10.4,99.7-7.7
	c22.3,1.8,43.6,6.9,63.8,16.7c5.3,2.6,8.8,7.4,13.4,10.6C722.7,302.3,725.4,306.8,723,313.8z"/>
<path fill="#E6E6E6" d="M252.6,36.9c18.6,6,35.5,15.5,52,25.6c9.4,5.7,18.7,11.8,28.1,17.6c0.9,0.6,2.2,2.3,3.2,0.5
	c0.7-1.4-1.2-1.7-2-2.2c-2.9-1.9-5.9-3.8-9.4-5.9c34-8.1,61.7,15.5,63.2,49.2c-3.3-3.3-6.1-6.3-9.1-9.2c-0.8-0.7-1.3-3.1-3.2-1.3
	c-2.1,1.9,0.4,2.4,1.1,3.1c16.9,17,34.3,33.5,49,52.6c0.8,1,1.5,2.1,2.3,3.1c0.3,0.9-0.1,1.1-0.9,0.9c-43.2-39.8-88-77.6-137-110.2
	c-12.6-8.4-25.7-15.8-39.1-22.8C250.6,36.2,251.7,36.7,252.6,36.9z"/>
<path fill="#E6E6E6" d="M395.6,334.9c0.6,3.7,2.7,4.7,6.3,4.2c7.7-0.9,7.7-0.8,5.9,6.4c-1.8,7.4-1.8,7.5-9.2,7.1
	c-8.9-0.5-17.8,0.6-26.6-1.9c-1.8-0.5-2.2-0.9-2.1-2.7c0.3-5.3,1.5-7.1,6.7-8.4c1.8-0.4,2.7-2,4.7-2.4c1.8-0.3,0.3-2.3-0.4-3.5
	c-5.8-10.2-11.4-20.5-17.8-30.4c-4.7-7.2-5.7-15.6-7.6-23.6c-5.7-24.3-9-49.1-13.8-73.6c-0.5-2.7,0.3-3.6,3-3.6
	c3.3,0,6.8,0.1,9.8-0.8c3.8-1.2,4.2,0.8,4.7,3.5c5.2,28,10.7,56,15.6,84.1c1.2,6.7,2.8,12.8,6.6,18.4c0.3,0.8-0.1,1.2-0.8,1.4
	c-2.8-0.3-3.3-2.9-4.7-4.6c-1.1-1.3-1.7-3-3.2-3.9c7.1,11.5,16.7,21.6,20.6,35C394.4,336.6,394.4,334.2,395.6,334.9z"/>
<path fill="#E6E6E6" d="M906.2,294.2c-12.3-8.6-25.9-8.4-39.3-7.6c-42.8,2.8-84.4,11.4-124.7,26c-3.9,1.4-8,2.2-12,3.5
	c-2.6,0.8-4.1,0.7-3.8-2.7c0.2-3-1-6.5,0.2-8.8c1.2-2.2,5.2-1.7,7.8-2.7c28.4-10.1,57.1-18.9,86.8-24.3c15.8-2.9,31.7-5.4,47.8-5.3
	c8.4,0,16.9,0.2,25,3.2C904.5,279.4,906.7,281.7,906.2,294.2z"/>
<path fill="#E6E6E6" d="M362.3,124.3c9.7,8.2,18.8,15.6,27.6,23.3c18.5,16.4,36,33.7,51.5,53c1.5,1.9,2.6,3.9,1.4,5.7
	c-1.1,1.6-3.5,0.8-5.2,0.2c-10.2-3.6-19.3-9.3-28.7-14.7c-16.7-9.5-32.7-20.2-48.6-31.1c-2.2-1.5-2.9-3-2.5-5.6
	C359.3,145.3,360.7,135.4,362.3,124.3z"/>
<path fill="#E6E6E6" d="M582.9,353.6c-9.1,2.8-18.7,4.7-27.5,8.5c-9.8,4.2-19.9,4.7-30.3,4.6c-34.8-0.5-69.5-1.9-104.2-3.7
	c-2.3-0.1-5.6,1.2-6.6-2.4c-1.1-4.2-1.5-8.5,0.6-12.6c0.7-1.4,2-0.7,3.1-0.7c54.1,3.2,108.2,5.3,162.4,6
	C581.2,353.4,582,353.5,582.9,353.6z"/>
<path fill="#E6E6E6" d="M1034.9,245.5c-13.9-5.9-27.4-9.7-41-13.3c-31.6-8.3-63.9-13.8-96.1-19.1c-2-0.3-4-0.9-6-0.9
	c-8.8-0.1-15.5-4.1-20.2-11.9c7.1-0.9,14.3-0.3,21.5-0.4c1.4,0,2.9,0.1,4.3,0.1c1.9,0,3.3,0.1,4.7-2.3c1.8-3.2,4.8-4.8,9.4-3.2
	c16.8,5.8,34.2,10.1,50.7,16.6c23,9,46.4,17.6,68,29.8C1031.8,241.7,1033.8,242.3,1034.9,245.5z"/>
<path fill="#E6E6E6" d="M849.8,346.5c-0.1,0.8-0.1,1.3-0.2,1.7c-3.1,10.7-3.1,10.7-14.1,11.7c-15.5,1.4-31,1.9-46.3,4.4
	c-15.9,2.6-31.8,1.9-47.7,2.4c-6.5,0.2-12.8-0.1-19.2-2.9c-9.6-4.1-20-6.5-30.1-10.1C744.7,352.4,797.1,350.1,849.8,346.5z"/>
<path fill="#E6E6E6" d="M400.4,304.7c-0.8-8,2.5-13.7,10-17.1c9.2-4.2,19-5.3,29-5.2c10.9,0.1,21.8,0.9,32.7,2.3
	c11.7,1.5,23.4,2.7,34.6,6.5c0.7,0.2,1.4,0.3,2.1,0.5c2.1,0.7,5.4-0.4,6.3,1.7c1.1,2.8,1.7,6.1,1.4,9.3c-0.2,2.7-1.9,3.3-4.2,3.1
	c-4.9-0.4-9.4-2.4-14.2-3.3c-26.8-5.5-53.6-10.1-81-4.6C411.3,299,406,301.5,400.4,304.7z"/>
<path fill="#E6E6E6" d="M399.6,312.2c-3.3,0-6.4,0-9.6,0c-2.2,0-3.2-1.4-4.3-3c-6.2-9-8.6-19.3-10.5-29.8c-0.9-4.9-1.9-9.9-2.7-14.8
	c-0.8-4.9-0.2-5.3,4.5-4.1c7.9,2.1,15.7,4.7,21.5,11c0.9,1,1.6,1,2.5,0.1c0.9-0.8,0.4-1.5-0.2-2.2c-1.1-1.1-2.2-2.1-4.1-3.9
	c13.8,3.6,26.3,7.5,39.2,13.7c-6.8,1.2-12.7,1.3-18.4,2.9c-4.2,1.2-8.2,2.5-11.8,5.1c-7.8,5.5-10.3,13.8-6.8,22.7
	C399,310.6,399.3,311.4,399.6,312.2z"/>
<path fill="#E4E4E4" d="M957.9,40.8c-11.6-1.2-22.1-1.5-32.8-0.7c-18.4,1.4-36.4,5.1-54,10.4C812,68,757.6,95.6,705.7,128.4
	c-9.4,5.9-17.9,13.9-22.4,25.1c-0.8-4.6,0.5-8.9,4.3-13.9c4.8-6.3,10.7-11.2,17.6-15.3c16.2-9.8,32.3-19.8,49-28.7
	c29.4-15.6,59.8-29,91.3-39.7c28.3-9.6,57.2-16.9,86.6-21.8c6.4-1.1,12.9-0.2,19.1,2.1C953.6,36.8,955.7,37.9,957.9,40.8z"/>
<path fill="#E6E6E6" d="M342.2,163.9c2.3-0.1,1.6-2,1.8-3.2c2.3-13.9,4.6-27.7,6.9-41.6c0.1-0.8-0.6-2.4,1.2-2.1
	c0.9,0.2,1.6,0.6,1.3,2.4c-1.7,11.5-3,23-4.4,34.6c-0.3,2.4-0.6,4.8-0.9,7.3c-0.1,0.7-0.2,1.6,0.7,1.8c1.3,0.3,1.3-0.7,1.4-1.6
	c1.1-8,2.2-15.9,3.3-23.9c0.7-5,1.3-10,2.1-14.9c0.1-0.7-0.3-2.5,1.5-1.9c1.3,0.4,0.6,1.3,0.4,2.3c-1.8,11.9-3.5,23.9-3.8,35.9
	c-0.1,3,0.5,5.4,4.1,6.6c3.7,1.2,3.8,5.2,4.1,8.4c0.7,7.2,0,14.3-1.6,21.4c-0.4,1.8-1.3,2.6-3,3.1c-5.3,1.6-10.8,1.6-16.2,2
	c-2.1,0.1-2.3-1.4-2.7-2.7c-2.7-8.9-1.4-17.9-0.5-26.9c0.1-1,0.8-1.3,1.6-1.7c1.4-0.8,1.2-0.8,0.2-2.5c-0.8-1.3,0.3-2.3,0.9-3.4
	C341.5,162.6,341.7,163.5,342.2,163.9z"/>
<path fill="#E4E4E4" d="M445.5,201.1c-4.1-4.8-8.3-10.1-12.9-15.2c-42.5-47.1-93.5-83.7-146.1-118.4c-14.9-9.8-29.5-20-45.5-27.9
	c-5.8-2.9-11.7-5.5-18.1-6.5c-2.4-0.4-4.8,0.1-7.3,0.2c1.9-4.6,5.3-5.6,10.6-3.4c19,7.8,37.1,17.5,54.6,28.3
	c34,21.1,65.1,46.1,95.7,71.7c17.1,14.4,34.6,28.4,50.4,44.4c6.4,6.5,12.8,13.2,17.2,21.4C445,197.5,446.1,199.4,445.5,201.1z"/>
<path fill="#E5E5E5" d="M1036.4,255c-37.5-0.1-73.1-10.6-109.9-18.3c2-2.6,3.6-4.8,5.1-7c0.8-1.2,1.9-1.2,3.1-0.9
	c32.4,7.4,65.1,13.6,97,23.2C1033.4,252.6,1035.2,253.1,1036.4,255z"/>
<path fill="#E5E5E5" d="M889.9,660.4c-8.7-3-17.5-5.8-26-8.9c-9.3-3.4-18.9-5.9-27.9-10.1c-3-1.4-6.4,0.4-9.6,0.9
	c-0.2,0-0.5,0.7-0.4,1c0.1,0.3,0.6,0.7,0.9,0.7c6.5-1.1,5,4.3,6.5,7.5c-7.1,0-13.9,0-21.4,0c2.8-3.6,5.3-6.6,7.7-9.8
	c3.7-4.8,6.7-10,8.8-15.7c0.7-1.9,1.5-2.4,3.5-1.7c5.9,2,11.6,4.3,16.5,8.2c2.1,1.6,4.3,3.1,4.8,6.2c0.4,2.5,3.1,3.3,5.1,4.2
	c8.3,3.7,17,6,25.7,8.5C890.6,653.1,890.6,653.1,889.9,660.4z"/>
<path fill="#FEFEFE" d="M896.9,340.8c-1.3,0.1-2.6,0-3.9,0.2c-3.2,0.5-6,0.6-6.9-3.5c-0.1-0.6-0.8-1.4-1.3-1.6
	c-4.4-1.8-3.8-5.3-3.3-8.9c0.3-2.2,1.1-3.5,3.2-4.6c5-2.5,9.8-5.4,14.2-8.9c1.5-1.2,2.8-1.5,4.7-1.1c2.9,0.5,5.8,0.4,8.1-1.7
	c1.8-1.7,2.3-0.5,3,0.9c1.8,3.9,3.6,7.8,5.5,11.6c0.8,1.7,0.8,2.6-1.2,3c-1.1,0.2-2.2,0.9-3.3,1.1c-5.5,0.9-7.6,4.6-7.7,9.6
	c-0.1,3-1.3,4-4.1,3.8c-2.3-0.2-4.6,0-6.9,0C896.9,340.7,896.9,340.8,896.9,340.8z"/>
<path fill="#E4E4E4" d="M722,108.7c13-10.7,27.5-19.3,42.4-27c24.3-12.5,49.8-22.3,75.7-31.1c21.4-7.3,43.3-12.2,65.7-15.1
	c1.3-0.2,2.6,0,4.2,0c-11.7,2.9-23.2,5.5-34.6,8.6c-46,12.5-89.8,30.8-131.5,53.9c-6.8,3.8-13.5,7.6-20.3,11.5
	C722.6,110.2,722,110.1,722,108.7z"/>
<path fill="#E6E6E6" d="M830.6,126.6c0.4,1.8-1,1.6-2.1,1.9c-2.8,0.8-5.7,1.3-8.2,2.6c-3.6,1.9-4.8,1.1-5.7-2.9
	c-3.4-15.2-7-30.4-10.8-45.6c-0.8-3.2-0.2-4.5,2.8-5.7c7.2-2.9,7.1-3,9.4,4.2c4.5,14.2,9.1,28.4,13.6,42.6
	C830,124.6,830.3,125.6,830.6,126.6z"/>
<path fill="#E4E4E4" d="M885.1,213.9c13.1,2.1,25.9,4.1,38.6,6.2c27.3,4.6,54.4,9.9,81.1,17.4c11.9,3.4,23.6,7.2,35,11.8
	c1.1,0.4,2.2,0.8,3.1,1.4c1.1,0.7,1.6,1.8,1,3c-0.7,1.3-2,1-3,0.4c-17.6-10.2-37.8-12-57-16.7c-30.6-7.5-61.6-13.4-92.6-19.4
	C889,217.5,886.3,217.6,885.1,213.9z"/>
<path fill="#E5E5E5" d="M303.4,185.1c0.1-5.6,0.2-9.5,2-13.1c2.4-4.8,6.2-5.3,9.7-1.2c1.5,1.7,3.2,3.6,3.4,5.8
	c0.3,3,1.9,3.4,4.3,3.3c2.9-0.2,5.7-0.1,8.6-0.4c2.4-0.2,3.1,0.7,2.7,2.9c-0.1,0.4,0,0.9,0,1.3c-0.1,2.1,0.6,4.8-0.5,6.2
	c-1.3,1.8-4-0.1-6-0.1c-5.2,0-7.5,2.6-7.1,8c0.1,0.8,0.2,1.9-0.2,2.5c-1.7,3-5,4.9-7.8,5.1c-3.1,0.2-6.8-1.7-7.4-5.9
	C304.4,194.2,303.9,188.8,303.4,185.1z"/>
<path fill="#E5E5E5" d="M770.3,75.8c13.7-27.5,45.6-37.2,64.8-26.4c-10.9,4.1-21.6,8.2-32.4,12.3C792,65.8,781.6,70.4,770.3,75.8z"
	/>
<path fill="#E4E4E4" d="M1019.8,225.2c-18.5-3.8-36.1-10.3-54-16c-36.6-11.8-73.2-23.4-110.4-33.1c-1.2-0.3-3.5,0-3.3-1.7
	c0.4-2.4,2.5-1.5,4.2-1.1c50,12.4,99.2,27.5,147.8,44.7c6.1,2.2,12.1,4.4,18.2,6.6C1022,226.5,1020.8,225.5,1019.8,225.2z"/>
<path fill="#FDFDFD" d="M389.2,314.5c4.5,0.4,8.2,0.7,11.9,0.9c0.7,0,1.3,0,1.9,0.6c11.9,11.1,25.8,19.5,39.4,28.2
	c0.5,0.3,1.1,0.5,0.9,1.6c-8.6-0.5-17.3-1.1-26-1.6c-1.4-0.1-1.6-0.9-1.9-1.9c-1.7-5.7-6.1-6.9-11.2-6.3c-4,0.5-6.3,0.3-7.1-4.9
	C396.1,325.4,392.5,320.3,389.2,314.5z"/>
<path fill="#E5E5E5" d="M528.6,219.1c-2.3-0.4-4.7-1.3-6.9-2.6c-28.1-16.9-57.5-31.2-86.3-46.8c-2.6-1.4-2-2.5-1.1-4.6
	c1.3-3,2.7-1.5,4.3-0.6c22.7,12.4,45.3,24.9,68,37.2c5.9,3.2,12.1,5.9,18.1,9c2.3,1.2,4.5,2.6,6.1,4.7c0.6,0.7,1.3,1.6,0.7,2.7
	C531,219.2,529.9,219.1,528.6,219.1z"/>
<path fill="#E6E6E6" d="M861.5,384.3c-5.4-0.2-11-2.6-15.7-6.8c-2.5-2.2-3.1-4.4-0.1-7c5.3-4.6,11.2-6.7,18.2-5.3
	c1.1,0.2,2.2,0.6,3.2,1.1c4.2,2,7.5,7.9,6.5,11.7C872.6,381.7,868.1,384.4,861.5,384.3z"/>
<path fill="#E5E5E5" d="M336.2,295.8c-0.8,3.2,0.8,4.3,3.8,4.8c4.1,0.7,4.9,2.7,3.1,6.6c-1,2.2-2.5,0.8-3.6,0.5
	c-2.2-0.5-4.3-1.2-5,2c-0.7,3.2-2.9,5-6.1,5.1c-3.6,0.1-6-2.1-7.3-5.1c-2.7-6.3-0.7-14.5,4.3-18.8c1.9-1.7,4.2-3.8,6.8-2.4
	C335,289.8,336.9,292.3,336.2,295.8z"/>
<path fill="#E4E4E4" d="M346.8,331.5c1.8,1.4-0.7,5.1,1.6,4.9c2.7-0.3,1.3-3.8,1.6-5.8c0.4-2.8,0.2-5.7,3.9-7.3
	c-0.4,4-0.7,7.5-1,11.1c-0.1,1.1-0.6,2.4,1.3,2.5c1.8,0.1,1.6-1.2,1.7-2.3c0.1-3.1-0.4-6.3,0.8-9.4c0.2-0.5,0.5-1,0.8-1.5
	c0.3,0.2,0.7,0.3,1,0.5c-0.2,3.5-0.5,7.1-0.7,10.6c-0.3,4-0.7,8-1.1,11.9c-0.3,2.9,1.2,4.1,4,3.7c0.7-0.1,1.3-0.5,2-0.7
	c4.9-1.4,4.9-1.4,4.4,3.9c-0.1,1.4,0,2.9,0.1,4.3c0.3,4.6,0,4.9-4.7,4c-1-0.2-2-0.3-2.9-0.6c-2.6-0.8-5.2-0.9-6.2-4.7
	c-0.5-2-1.9-5.4-5.6-5.6c-1.2,0-0.9-1.6-1.1-2.5c-0.2-1.6-0.5-3.1-0.5-4.7C346.2,339.8,346.5,335.6,346.8,331.5z"/>
<path fill="#FBFBFB" d="M897.2,197c-9.4,0-18.8,0-28.2,0c-0.6,0-1.4-0.4-1.8-0.9c-4.7-4.8-9.8-9.2-14.5-15.3
	c15.5,5.4,30.1,10.5,44.8,15.6C897.4,196.6,897.3,196.8,897.2,197z"/>
<path fill="#FCFCFC" d="M369.2,321.4c3,4.5,5.7,7.6,7,11.6c0.7,2.3,0.7,3.7-2.1,4.2c-3.1,0.6-5.4,2.7-5.9,5.6
	c-0.9,4.7-4.7,3.9-7.6,4.6c-1.7,0.5-1.8-1-1.8-2.1c0.2-4.7,1.1-9.4,2.3-14c0.2-0.8,0.4-1.7,1.5-1.8
	C367,329.4,368.6,326.4,369.2,321.4z"/>
<path fill="#E4E4E4" d="M356.3,294.3c2.3,8.8,5.8,15.6,9.9,22.1c0.9,1.4,1.8,2.9,0.8,4.4c-1.2,1.8-2.4-0.2-3.6-0.4
	c-3.4-0.7-6.8-0.6-10.2-0.7c-3.4-0.1-4.5-1.8-3.8-5C351,308,353.5,301.8,356.3,294.3z"/>
<path fill="#D7D7D7" d="M253.4,254c4.8-6,11.6-7.3,18.7-7.9c24.3-1.9,48.4-0.4,72.5,3.5c1.1,0.2,2.4,0,2.7,2
	c-3.1,0.8-6.1-0.4-9.1-0.8c-24.1-3.3-48.3-4-72.5-1.5C261,249.7,257.6,252.8,253.4,254z"/>
<path fill="#D7D7D7" d="M445,279c-1.7,0.8-2.6,0.4-3.5-0.1c-17.2-9.3-36-13.8-54.8-18.4c-4-1-8.1-1.8-12.1-3c-1.4-0.4-4-0.2-3.6-2.2
	c0.5-2.3,3-0.8,4.3-0.6c13.1,2.6,26,5.9,38.5,10.4C424.4,269,434.6,273.4,445,279z"/>
<path fill="#E2E2E2" d="M890.3,220c9.1,1.8,17.5,3.5,26.5,5.3c-1.9,2.4-3.6,4.4-5.1,6.4c-0.9,1.1-1.9,0.8-3,0.8
	C899.8,232.6,895.6,226.3,890.3,220z"/>
<path fill="#E3E3E3" d="M433.4,160.2c-0.1,0.6-0.2,1.4-0.4,2.3c-0.5,2-1.3,4.3-3.1,4.9c-1.6,0.5-2.4-2-3.4-3.3
	c-2.5-2.9-4.7-6.1-7.4-8.9c-1.9-2-1.1-2.8,0.8-3.7C426,148.5,433.4,153.2,433.4,160.2z"/>
<path fill="#DFDFDF" d="M827,211c6.6-0.4,13,1,19.5,1.7c2,0.2,4.5,2.5,6.3-0.7c0.3-0.6,1,0,1.3,0.5c2.1,2.7,4.5,5.1,6.4,8.8
	C848.6,218.4,837.6,215.6,827,211z"/>
<path fill="#DADADA" d="M1049.5,239.5c-15.2-3.2-30.3-6.7-44-14.6C1020.6,228.7,1035.9,231.6,1049.5,239.5z"/>
<path fill="#DCDCDC" d="M390.9,251.9c-7.2-1.6-13.7-2.8-20-4.5c-3.1-0.8-2.5-4.1-2.3-6.1c0.1-1.9,2.4-0.5,3.5-0.1
	C378.9,243.1,385.3,246,390.9,251.9z"/>
<path fill="#D3D3D3" d="M862,180.2c13.8,3.9,27.6,7.8,41.7,11.8c-1.8,3-3.6,2.1-5.5,1.5c-12.6-4.2-25.3-8.3-37.9-12.4
	C860.2,179.3,861.2,180.1,862,180.2z"/>
<path fill="#BBBBBB" d="M397.5,371.9c0.6,0,1.3,0.1,1.9,0.1c-0.1,7.9,1.3,15.7,1.9,23.5c0.9,11.7,2,23.4,3,35.1
	c-1.7,1.9-0.1,4.2-1,6.2c-1.8-0.5-1.8-2.1-1.9-3.5c-0.3-6.7-1.3-13.4-1.7-20.1c-0.8-12.3-2.3-24.5-2.9-36.9
	C396.8,374.9,396.3,373.3,397.5,371.9z"/>
<path fill="#F2F2F2" d="M833.8,344.5c7.1-2.8,14.1-5.7,21.3-8.6c-2.3,7.8-2.8,8.3-10.4,8.9c-3.6,0.3-7.2,0.4-10.7,0.6
	C833.9,345,833.8,344.7,833.8,344.5z"/>
<path fill="#DBDBDB" d="M344.7,312.9c0.8-6.8,2.5-13.4,4.6-20c0.6-1.9,1.7-2.5,3.5-1.9c2.1,0.8,0.7,2.2,0.3,3.2
	c-2.3,6.9-5.4,13.6-6.5,20.9c-0.1,0.7-0.3,1.7-1.1,1.5C343.5,315.9,345.1,314.2,344.7,312.9z"/>
<path fill="#D3D3D3" d="M851.8,210.1c-11-1.3-21.9-1.7-32.9-2.7c-0.5,0-1.1-0.9-0.9-2c8.7-0.4,17.3,0.9,25.9,1.9
	c0.8,0.1,2.2,0.7,2.5,0.3C850.4,203.3,849.9,209.7,851.8,210.1z"/>
<path fill="#D8D8D8" d="M929,228.3c-4.4,6.2-8.8,12.3-13.2,18.5c-0.4,0.6-1,1.7-1.9,1c-0.9-0.7-1.6-1.8-0.7-3
	c4.3-5.6,8.6-11.1,13-16.6C926.9,227.3,927.9,227.3,929,228.3z"/>
<path fill="#919191" d="M342.2,163.9c-0.6-0.3-1.1-0.5-1.7-0.8c-0.6-2.5,0.6-4.8,0.8-7.2c0.8-9.4,1.4-18.8,4.4-27.9
	c0.1-0.4,0-0.9,1.1-0.8c-1.4,10-2.8,19.9-4.3,29.9C342.3,159.4,341.7,161.6,342.2,163.9z"/>
<path fill="#D4D4D4" d="M847.7,204.8c-7.7-0.6-14.6-1.1-21.4-1.6c3.1-1.7,6.5-1.6,9.8-2.1c2-0.3,4.3,0.8,5.8-1.7
	c0.7-1.2,1.4,0.2,1.9,0.7C844.9,201.3,845.9,202.6,847.7,204.8z"/>
<path fill="#C6C6C6" d="M412.2,367.5c-3.2-8.6-4.2-17.3-0.3-27.2c3,5.7-1.5,9.5-1.2,14.1C411.1,358.9,414.6,362.9,412.2,367.5z"/>
<path fill="#A7A7A7" d="M380.1,309c0.4-0.4,0.8-0.8,1.2-1.2c5,7.3,8.9,15.3,13.4,23c0.6,1.1,1.4,2.6,0.9,4.1
	c-1.4,0.5,0.4,5.1-3.3,2.5c1.8-1.8,0.3-3.6-0.2-5.1c-2.2-6.6-6-12.2-9.8-18C381.2,312.7,379.5,311.3,380.1,309z"/>
<path fill="#B9B9B9" d="M923.4,227.2c-3.6,5-7.3,10.1-11,15.1c-0.4,0.5-0.8,1.4-1.6,0.8c-0.7-0.4-0.8-1.2-0.3-1.9
	c3.9-5,7.9-10,11.9-14.9C922.8,226.6,923.1,226.9,923.4,227.2z"/>
<path fill="#BFBFBF" d="M868.6,330.4c2.9-1.4,5-2.5,7.1-3.4c1-0.4,2.4-1.8,3-0.6c0.6,1.4,0.5,3.5,0.1,5c-0.5,1.6-1.9,0.3-2.9,0.2
	C873.7,331.2,871.5,330.8,868.6,330.4z"/>
<path fill="#727272" d="M346.1,247c-7.6-0.9-15.3-1.9-22.9-2.8c7.8-0.7,15.5,0.1,23.1,1.5C346.2,246.2,346.1,246.6,346.1,247z"/>
<path fill="#D2D2D2" d="M905,308.5c1-2.8,3.3-5,3.6-9.1c1.5,2.9,3.8,4.7,2.5,7.2C909.9,308.9,907.6,309.4,905,308.5z"/>
<path fill="#757575" d="M914.3,253.8c3.9,6,6.5,12.6,8.7,19.4c-3.2-6.3-6.4-12.6-9.6-18.9C913.7,254.1,914,253.9,914.3,253.8z"/>
<path fill="#C2C2C2" d="M860.1,171.8c-1.2-0.2-2-0.1-2.6-0.4c-1.5-0.6-3.9-0.1-4-2.4c-0.1-1.6,1.6-1.2,2.6-1.6
	c2.8-1.1,3.1,1.1,3.7,2.8C859.9,170.6,860,171,860.1,171.8z"/>
<path fill="#939393" d="M1019.8,225.2c0.8-0.3,1.9,0.4,2.5-0.7c4.1,0.9,7.9,2.6,11.6,4.7C1029.1,228.1,1024.3,227.2,1019.8,225.2z"
	/>
<path fill="#C4C4C4" d="M1051.8,235.5c2.2,0.9,4.7,1.3,6.5,3c0.5,0.5,1,1.2,0.5,1.8c-0.5,0.6-1.3,0.5-1.9,0.1c-2-1.3-4-2.6-6-3.9
	C1050.7,235.6,1050.9,235.2,1051.8,235.5z"/>
<path fill="#C2C2C2" d="M361.7,324.7c0.7-0.6-1-2.3,1.1-2.1c1.5,0.2,2.8,0.9,3,2.5c0.2,1.7-1.4,2.1-2.6,2.2
	C361,327.5,362.5,325.4,361.7,324.7z"/>
<path fill="#C2C2C2" d="M888.6,271.7c-0.9-0.8-3.4,0.7-3.6-1.7c-0.1-1.1,1.1-2,2.5-1.4c1.3,0.6,3.4,0.6,3.7,2.3
	C891.3,272.3,889.9,272,888.6,271.7z"/>
<path fill="#979797" d="M252.6,36.9c-0.6,0.3-1.5,0-1.8,0.9c-2.8-0.7-5.1-2.1-7.4-3.9C246.6,34.4,249.7,35.4,252.6,36.9z"/>
<path fill="#8C8C8C" d="M862,180.2c-0.6,0.3-1.2,0.6-1.8,0.8c-2.9-1-5.9-1.9-8.8-2.9C855.2,178,858.7,178.6,862,180.2z"/>
<path fill="#959595" d="M722,108.7c0.3,0.9,1.1,0.7,1.7,0.8c-2,1.7-4.3,3-7.9,4.5C718.1,111.3,719.6,109.5,722,108.7z"/>
<path fill="#EAEAEA" d="M852.7,164.9c1.3-1.4,2.3-3.3,4.5-2.6c0.3,0.1,0.5,1.2,0.3,1.6C856.4,166,854.4,165.1,852.7,164.9z"/>
<path fill="#6D6D6D" d="M1051.8,235.5c-0.3,0.3-0.6,0.7-1,1c-2.1-0.5-3.8-1.5-5.3-3.1C1047.8,233.7,1050,234,1051.8,235.5z"/>
<path fill="#535353" d="M934.3,325.9c1.9-1.2,3.9-1.9,6.6-0.2C938.4,326.7,936.3,326.1,934.3,325.9z"/>
<path fill="#A9A9A9" d="M346,323.4c-1-1.7-1.8-2.8-0.5-3.9c0.5-0.4,1.4-0.3,1.9,0.3C348.5,321.5,346.6,322.1,346,323.4z"/>
<path fill="#B5B5B5" d="M903.7,234.8c1.8-1,3.2-0.2,4.5,0.6c0.6,0.4-0.2,1.4-0.8,1.7C905,238.2,905.1,235.4,903.7,234.8z"/>
<path fill="#979797" d="M426.8,170.8c0.3-0.3,0.6-0.6,0.9-0.9c1.9,1.1,2.7,3,4.3,5.4C429.3,174.3,428,172.5,426.8,170.8z"/>
<path fill="#777777" d="M341,297.9c-0.5,0.7-1.2,0.7-1.8,0.3c-0.7-0.4-1.5-0.9-1.1-1.9c0.2-0.6,0.7-0.9,1.3-0.5
	C340.1,296.3,341,296.8,341,297.9z"/>
<path fill="#040404" d="M397.5,371.9c1.4,16.7,2.9,33.4,4.3,50.1c0.4,5,1,9.9,1.5,14.9c1.8,23.5,3.7,47,5.5,70.5
	c0.1,0.7,0.2,1.4,0.2,2.1c0,0.8,0.2,1.9-1.1,1.9c-1.2,0-1-1.1-1.1-1.9c-0.6-6.4-1.2-12.9-1.7-19.3c-2.4-27.9-4.9-55.8-7.3-83.7
	c-0.9-10.6-1.8-21.2-2.9-31.8C394.7,372.5,395.4,371.8,397.5,371.9z"/>
<path fill="#030303" d="M388.7,377c0.9-1.4-2.1-4.8,1.5-4.8c2.5,0,1.3,3.2,1.4,4.9c2.9,37.1,5.6,74.2,8.4,111.3
	c0.5,6.9,1,13.8,1.4,20.6c0.1,1,1,2.6-0.8,2.7c-1.8,0.1-1.2-1.7-1.3-2.6c-1.2-14.9-2.4-29.8-3.6-44.7c-1.9-23.5-3.7-47-5.6-70.4
	C389.6,388.5,389.1,382.9,388.7,377z"/>
<path fill="#070707" d="M365.4,300.3c1.1-0.3,1.4,0.5,1.8,1c6.1,9.4,13.4,17.9,18.4,28c1.1,2.2,2,4.5,2.3,6.9
	c0.1,0.6,0.1,1.1-0.6,1.3c-0.7,0.2-1.1-0.2-1.3-0.8c-4.1-13.1-13.8-22.6-21.1-33.6C363.9,301.7,364.4,300.4,365.4,300.3z"/>
<path fill="#050505" d="M380.1,309c4.3,7.2,9.7,13.8,12.5,21.9c0.6,1.6,1,3.3,1.4,4.9c0.3,1.4-0.5,1.8-1.7,1.6
	c-1-6.4-4.2-11.9-7.7-17.1c-4.1-6.2-8.6-12.2-12.8-18.3c-0.7-1-2.5-2.3-0.3-3.5c1.9-1.1,2,0.9,2.7,1.8
	C376.1,303.1,378.1,306.1,380.1,309z"/>
<path fill="#252525" d="M353.6,347.1c1.3,1.1,1.7,2.7,2.1,4.2c0.3,1-0.5,1.9-1.3,1.5c-1.7-0.7-2.1-2.5-2.6-4
	C351.3,347.8,352.6,347.7,353.6,347.1z"/>
</svg>
