<?xml version="1.0" encoding="utf-8"?>
<!-- Generator: Adobe Illustrator 18.0.0, SVG Export Plug-In . SVG Version: 6.00 Build 0)  -->
<!DOCTYPE svg PUBLIC "-//W3C//DTD SVG 1.1//EN" "http://www.w3.org/Graphics/SVG/1.1/DTD/svg11.dtd">
<svg version="1.1" id="flute1" xmlns="http://www.w3.org/2000/svg" xmlns:xlink="http://www.w3.org/1999/xlink" x="0px" y="0px"
	 viewBox="0 0 751 621.8" enable-background="new 0 0 751 621.8" xml:space="preserve">
<path fill="#FDFDFD" d="M0.5,0.5c250.4,0,500.8,0,751.2,0c0,207.4,0,414.7,0,622.1c-250.4,0-500.8,0-751.2,0
	C0.5,415.2,0.5,207.8,0.5,0.5z"/>
<path fill="#020100" d="M624.9,95.1c0.7,1.1,1.5,0.9,2.4,0.4c2.9-1.6,5.8-3.2,8.7-4.7c6-3.2,12.4-3.9,19-3.2c2,0.2,4.1,0.6,6.1,1
	c1.2,0.6,2.6,0.5,3.9,0.7c2.6,0.4,4.8,1.8,7.1,2.9c3.9,2,7.4,4.5,10.4,7.8c2.8,3,3.8,6.7,5.1,10.3c0.2,0.4,0.3,0.9,0.3,1.4
	c0.4,5.1,0.3,10.2-1.5,15.1c-1.4,3.6-3.2,7-5.5,10.2c-3,4.1-6.6,7.6-10.8,10.3c-3.2,2.1-6.7,3.9-10.2,5.5c-3.2,1.4-6.6,1.7-9.8,2.6
	c-5.4,1.6-10.9,1.4-16.4,1.6c-4.8,0.1-9.6-0.4-14.2-2.5c-3-1.3-5.5-3.1-7.9-5.1c-1.3-1-2.1-2.4-3-3.6c-0.8-1-1.5-2.1-2.4-3
	c-0.5-1.2-1-2.4-1.5-3.7l0-0.2c-0.4-0.7-0.4-1.6-1.1-2.1c-0.2-1.4-1.1-2.7-1.2-4.1c-1-3.6-2.6-7-2.5-10.8c-1-5.3-1.8-10.7-3.1-15.9
	c-0.8-3.5-0.9-7.3-2.8-10.5c-0.4-0.7-0.8-1.4-1.1-2.1c-0.4-0.8-1-1.2-1.9-1.3c-8.5-1.6-17.9,2.1-22.4,10.4c-1.5,2.8-2.9,5.6-3.6,8.7
	c-0.2,0.8-1.1,1.3-1.9,1.7c-1,0.4-2,0.3-3-0.1c-0.9-0.3-1.6-0.7-2.4-1.5c-3.8-4.2-3.3-8.9-2.3-13.7c1.4-6.9,4.4-13.1,8.3-18.8
	c0.1-0.2,0.2-0.4,0.3-0.7c1-1.5,2.3-2.8,3.8-3.9l0,0c2.4-2.4,5.7-2.8,8.8-3.4c2.2-0.4,4.4-0.7,6.6-1.2c-4.2,0.1-8.3,1-12.3,2.3
	c-1.1,0.3-2.1,0.6-3.2,0.8l-0.2,0l-0.1,0.1c-0.4,0.4-1,0.6-1.5,0.9l0,0c-0.7,0.7-1.6,0.9-2.4,1.5c-4,2.2-6.6,5.6-9,9.3
	c-1.9,3-3.6,6-4.7,9.4c-0.2,0.6-0.4,1.5-0.8,1.7c-1.1,0.4-0.9,1.7-1.7,2.2c-0.8,0.6-1.9,0.8-2.8,1.2c-1.5,0.7-3.3-0.2-4.4-2
	c-0.8-1.3-1.3-2.8-1.5-4.3c-0.5-5.5-0.9-11,0.6-16.4c0.9-3.3,2.6-6.2,4.5-8.9c0.4-0.4,0.6-1,1-1.4c4.9-6.1,10.9-10.8,17.7-14.6
	c2.9-1.6,5.9-3.2,9.2-4c1.8-0.4,3.6-0.5,5.4-0.7c4.4-0.5,7-3,8.7-6.8c0.5-1.1,1.3-1.9,2.4-2.5c0.7-0.4,1.4-0.6,2.2-0.7
	c0.3,0,0.6,0,1-0.1c5.5-1.2,8.5,1.8,10.7,6.2c2.2,4.2,3.8,8.6,5.4,13c1.6,4.3,3.1,8.7,4.6,13c2.2,6.3,4.5,12.5,7.6,18.5
	c1.1,2.2,2.5,4.3,3.7,6.4C624.1,93.9,624.3,94.7,624.9,95.1z"/>
<path fill="#020101" d="M211.7,395.1c0.2,0.3,0.3,0.6,0.5,0.9c0.3,0.4,0.5,1,0.1,1.3c-1,0.7-1.3-0.6-1.9-0.8c-1.1-1-2.2-2.1-3.3-3.1
	c-4.5-3.8-9.8-5.4-15.7-4.5c-6.3,1-11.7,3.7-16.7,7.6c-2.2,1.7-3.7,4.1-5.6,6.1c-0.3,0.3-0.5,0.6-0.9,0.6c-0.7,0.6-1.4,0.7-2.2,0.1
	c-0.3-0.3-0.3-0.5,0.1-0.6c1.9-2,1.9-2.6,0.2-4.7c-2.3-3.3-4.2-6.9-6.3-10.3c-2.8-4.6-5.5-9.3-8.2-13.9c-0.4-0.7-1.4-1.1-1.4-2.1
	c-0.3-0.5-0.6-1-0.9-1.5c-3.2-5.5-6.5-11-9.7-16.5c-0.4-0.7-1.4-1.1-1.4-2.1c-0.3-0.5-0.6-1-0.9-1.5c-2.3-3.8-4.4-7.7-6.8-11.5
	c-0.9-1.4-2.2-2.4-3.4-3.6c-6-5.9-12.7-10.9-19.6-15.7c-4.2-3-8.4-5.9-12.7-8.9c-0.4-0.3-0.8-0.6-1.2-0.8c-0.6-0.3-1.1-0.1-1.2,0.6
	c-0.7,3.5-1.5,7-2.2,10.5c-0.6,0.9-0.3,2.1-0.8,3c-0.9,3.9-1.7,7.9-2.7,11.8c-0.3,1.1-0.6,2.3,0.3,3.4c0.7,0.9,0.5,2,0.2,3
	c-0.3,0.9-0.7,1.8-1.2,2.6c-1.1,1.7-1,3.4-0.1,5.2c1.2,2.4,2.7,4.7,3.9,7.1c1.1,2.2,1.3,4.4,0.6,6.7c-0.5,1.6-1.7,2.8-3.3,3.6
	c-1.6,0.8-3.2,1.5-4.9,1.7c-5.3,0.6-10.5,0.6-14.6-3.8c-2.4-2.6-3.2-6.3-1.7-9.5c0.9-1.9,1.9-3.6,2.9-5.4c0.7-1.2,0.8-1.3-0.7-1.7
	c-4-1.2-7.3-3.4-9.8-6.8c-2.1-2.9-1.6-5.7,1.3-7.8c1.8-1.3,3.9-2.1,6-3c2.6-1.1,5.4-1.9,7.9-3.3c1.2-0.7,2.1-1.4,1.6-3
	c-0.2-0.6-0.2-1.4,0.3-1.8c1.5-1.4,1.9-3.3,2.6-5c1.6-3.8,3.2-7.8,4.7-11.6c0.6-0.8,0.7-1.7,0-2.5c-0.8-2.4-2.6-3.9-4.6-5.3
	c-4.6-3.2-9-6.7-13.3-10.3c-4-3.4-8-6.8-10.9-11.2c-1-1.6-2-3.1-2.1-5.2c-0.2-3.3,2.5-5.9,5.7-6c3.9-0.2,7.2,1.3,10,3.8
	c1,0.9,2,1.4,3.3,1.6c2.7,0.3,5.1,1.5,7,3.3c1.7,1.6,3.8,2.9,4.7,5.2c0.1,0.1,0.2,0.3,0.3,0.4c2.2,0.7,3.6,2.8,6.1,3.1
	c3.2,0.5,4.7,2.1,5.1,5.3c0.1,0.8,0.3,1.3,1,1.7c1.6,0.8,2.9,2.2,4.8,2.6c0.8,0.2,1.4,0.9,1.5,1.7c0.2,1.1,0.9,1.7,1.7,2.2
	c4.2,2.6,8.5,5.3,12.7,7.9c8.5,5.2,16.9,10.4,24.9,16.3c3.1,2.3,5.8,4.9,8.2,7.9c0.5,0.4,1,1,1.3,1.5c3.9,5.1,7.6,10.4,11.1,15.8
	c4.1,6.3,7.9,12.7,11.8,19c4.1,6.8,8.2,13.6,12.3,20.4c0.9,1.5,2,2.1,3.7,1.7c3.8-0.9,7.6-0.6,11.3,0.5c3.9,1.2,7.2,3.3,9.9,6.3
	C210.8,394,211.3,394.5,211.7,395.1z"/>
<path fill="#FFFFFF" d="M170.3,427.3c0.5-1.9-1-2.9-1.9-4.1c-0.6-0.8-1.4-1.3-1.2-2.4c0.1-0.4-0.2-0.7-0.4-1.1
	c-1.5-2.3-1.7-5.8-0.6-8.6c0.1-0.1,0.2-0.3,0.2-0.4c-1.1-2,1.1-3.1,1.2-4.7c0-0.3,0.3-0.6,0.5-0.8c3.1-2.5,4.7-6.5,8.4-8.6
	c1.7-1,3.4-2.3,5.1-3.5c1.1-0.8,2.1-1.4,3.7-1.3c1.2,0.1,2.3-1.1,3.6-1.4c1.5-0.4,3.1-0.2,4.5-1c0.4-0.2,1.3-0.2,1.6,0
	c1.2,1,2.7,0.8,4.1,1.1c1.2,0.3,2.2,0.9,3.3,1.3c3.5,1.3,5.6,4.2,7.8,6.8c1,1.2,1.9,2.9,2,4.7c0,0.6,0,1.2,0.5,1.5
	c1.3,0.8,1.1,2.1,0.8,3.2c-0.4,1.9-0.6,3.8,0,5.7c0.1,0.4,0.1,0.8,0.1,1.2c0,1.6-0.1,1.7-1.7,1.4c-0.7-0.1-1.3-0.1-1.8,0.2
	c-1.2,0.7-2.5,1.2-3.1,2.6c-0.2,1.2-1.2,1.4-2,1.8c-4.6,2.6-8.7,5.7-11.6,10.1c-0.3,0.4-0.7,0.8-0.8,1.2c-0.8,3.1-3.1,3.6-5.8,3.1
	c-5.4-0.9-10.6-2.3-15-5.9C171.1,429,169.9,428.6,170.3,427.3z"/>
<path fill="#020101" d="M349,396c-1.8-3.7-3.3-7.5-4-11.6c-1.9-11-0.7-21.8,1.1-32.6c0.6-3.7,1.1-7.4,1.9-11
	c0.9-4.1,1.8-8.2,2.6-12.4c1.2-5.9,2.2-11.7,3.5-17.6c1.2-5.8,2.6-11.6,4-17.4c0.3-1.5,0.7-2.9,1.1-4.4c0.8-3.1,1.5-3.8,4.8-4.3
	c4.1-0.7,8.3-0.6,12.4-0.5c5.4,0.1,10.9,0.1,16.3-0.5c4.1-0.5,8.1-0.4,12.2-0.6c2.1-0.2,4-1,6-1.4c0.2,0,0.4-0.2,0.7-0.2
	c3.7-1,5.3,0.4,5,3.9c-0.4,4.5-1.2,9-2,13.5c-1.4,7.6-3.1,15.1-4.3,22.8c-0.4,2.9-0.9,5.8-1.2,8.8c-0.2,2,0,4,0.1,6
	c0.1,0.8,0.3,1.3,1.6,1.5c6.4,0.6,12.7,1.8,18.1,5.5c4.9,3.4,8.9,7.7,10.3,13.8c0.5,2,0.7,3.9,0.3,5.9c-0.5,2.8-0.6,5.7-1.3,8.5
	c-1,3.7-2.9,6.8-6.2,9c-4.8,3.2-9.9,3.3-15.3,1.9c-3.2-0.8-6-2.3-8.8-4c-3.8-2.4-7-5.5-9.4-9.2c-3-4.6-4.5-9.7-5.6-15
	c-1.1-5.4-0.3-10.6,0.8-15.9c0.1-0.5,0.2-1.1,0.2-1.6c-0.2-2.7-0.2-5.4,0.4-8.1c0.1-0.4,0.1-0.8,0.1-1.2c0.1-2.1,0.1-2.1-2-2.2
	c-6.4-0.3-12.8-0.5-19.1,0.6c-0.1,0-0.2,0-0.2,0c-4,0.6-4.7,1.3-4.7,5.3c0,3.1-0.7,6-1.1,9c-0.8,4.7-1.5,9.5-1.8,14.2
	c-0.1,2.1,0,2.1,2,2.7c2.4,0.7,4.8,1.3,7.1,2.2c6.8,2.7,12.6,6.5,15.9,13.5c2.4,5.2,3.2,10.5,2.3,16.2c-1,6.1-3.7,11.2-8.1,15.2
	c-3.8,3.5-8.5,5.6-14.2,5.1c-6.3-0.6-11.7-3.1-16.6-6.9c-1.4-1.1-2.2-2.7-3.4-4C350,397.3,349.4,396.7,349,396z"/>
<path fill="#010101" d="M400.8,50.9c1.6,1.9,1.5,4.2,1.2,6.4c-0.2,1,0,1.9,0.4,2.8c1.9,4.4,3.9,8.7,7,12.4c3.4,4.1,7.9,5.7,13.2,4.9
	c2.7-0.4,4.4-2.4,6.5-3.9c1.3-1,2.6-2.1,3.9-3.1c0.2-0.2,0.5-0.4,0.8-0.5c0.9-0.5,2-0.9,2.9-0.3c1,0.7,0.7,1.8,0.5,2.9
	c-1.8,8.3-5.9,15.3-12.3,21c-3,2.7-6.6,4.6-10.6,5.6c-4.2,1.1-8.1,0-11.7-1.9c-3.9-2.1-7.2-4.9-10.5-7.8c-3.9-3.3-4.2-3.3-6.9,0.9
	c-1.6,2.6-2.7,5.4-3.9,8.2c-4.2,9.3-8.4,18.7-13.1,27.8c-2.7,5.2-5.6,10.2-8.7,15c-4,6.2-8.7,12-14.4,16.7c-4.3,3.4-9,6.1-14.7,6.9
	c-1.6,0.2-3.1,0.4-4.7,0.2c-5-0.6-9.5-2.4-13.7-5.2c-2.7-1.8-5.2-3.8-7.3-6.4c-2.5-3.2-3.9-6.9-4.6-10.8c-0.5-2.9-0.2-5.8,0.1-8.6
	c0.2-2.2,0.9-4.3,1.7-6.4c2.5-6.5,6.4-12.1,11.7-16.5c2.6-2.2,5.5-3.9,8.7-5.2c5.4-2.3,10.8-2.2,16.4-1.2c2,0.4,3.7,1.5,5.4,2.6
	c1.6,1,3.2,2.1,4.9,2.9c1.6,0.8,1.6,0.9,2.6-0.5c1.9-2.8,3.7-5.5,5.6-8.3c5.1-7.9,10.3-15.6,15.7-23.3c2.7-3.9,5.4-7.9,8.3-11.7
	c3.6-4.7,7.4-9.4,12.1-13.1c1.2-0.9,2.5-1.7,3.8-2.3C398.2,50.3,399.5,50.1,400.8,50.9z"/>
<path fill="#010000" d="M316.9,415.2c3.4-1.6,7.1-2.3,10.9-2.2c3.2,0.1,6.1,1,8.4,3.3c1.3,1.3,2,3,2.2,4.9c0.1,1.8,0.1,3.7-0.7,5.4
	c-0.3,0.6-0.4,1.4-0.6,2c-0.4,0.6-0.4,1.4-0.9,1.9c-1.2,1.6-2.2,3.6-3.8,4.9c-2.3,1.9-5,3.3-8,4.1c-3.9,1-7.7,0.8-11.6,0.8
	c-1.9,0-1.9,0-2.1,2c-0.1,1.4-0.2,2.7-0.3,4.1c-0.2,4.2-1.7,8.2-4.1,11.5c-2.2,3-5.3,4.6-9.1,5c-2.6,0.3-5.1-0.5-7.5-1.2
	c-1.9-0.5-3.5-2-5.2-3.2c-0.6-0.5-1.2-1-1.9-1.4c-3.4-2-4.6-5.6-6.4-8.7c-1.6-2.7-2.7-5.6-3.6-8.5c-0.4-1.3-1.1-1.4-2-0.5
	c-1.5,1.3-1.6,2.1-0.5,3.9c0.9,1.4,1.1,3,1.2,4.6c0,1.4-0.5,2.6-1.8,3.4c-2.6,1.7-5.2,1.6-7.8-0.2c-1-0.7-1.9-1.4-2.6-2.4
	c-1.9-2.6-2.1-5.3-0.8-8.3c1.9-4.3,5.3-6.8,9.2-9c0.7-0.4,1.6-0.3,2.3-0.4c1.1-0.2,1.8-0.7,2-2c0.7-4.4,3.4-7.6,7.2-9.7
	c6.2-3.5,16.1-1.4,20,4.4c0.8,1.1,1.4,2.3,2,3.5c0.5,1.1,0.7,2.4,1.2,4.2c2.5-6.9,6.7-12,12.9-15.1
	C315.5,415.7,316.2,415.7,316.9,415.2z"/>
<path fill="#010001" d="M480,65.7c5.8,1.6,11.4,3.4,16.8,6.1c3,1.5,5.5,3.5,7.4,6.1c1.9,2.6,2.5,5.5,2,8.8c-0.5,3.1-2.2,5.6-3.9,7.8
	c-1.4,1.8-3.3,3.4-5.6,4.4c-1.9,0.8-3.8,1.6-5.8,2c-2.7,0.5-5.3,0.2-7.6-1.2c-2-1.1-3.3-3.1-4-5.1c-1.3-4.2-1.3-8.5-0.3-12.8
	c0.1-0.5,0.2-0.9,0.3-1.4c0.1-0.9-0.1-1.4-1-1.9c-2.9-1.5-6-2.5-9.1-3.5c-3.2-0.9-6.4-1.2-9.7-1.6c-1.4-0.1-2.9-0.1-4.3,0.2
	c-2.1,0.4-4.3,0.6-5.7-1.4c-1.5-2.1-0.8-4.3,0.1-6.4c0.7-1.4,1.6-2.8,2.5-4c1.9-2.5,2.6-5.4,3.2-8.4c0.3-1.8,0.6-3.6,1.2-5.3
	c1.8-5.5,5.6-6.6,9.3-6c9,1.5,18,0.7,27,1.1c3.5,0.2,7,0.6,10.5,1.1c2.7,0.3,5.4,0.6,8,1.2c4,0.9,8.1,1.5,11.9,3.4
	c0.3,0.1,0.6,0.3,0.9,0.4c2.4,0.9,4.4,2.4,6.3,4.1c1.6,1.4,2.2,3,2.9,4.9c1.1,2.9-0.3,5.2-0.9,7.8c-0.7,3.1-3.1,5.2-4.9,7.5
	c-1.3,1.6-2.5,3.2-4.2,4.5c-3.9,2.8-8,3.3-12.1,1.1c-4.3-2.3-7.8-5.5-9.3-10.4c-0.8-2.6-0.9-5.3-0.6-8.1c0.4-3,0.4-3.1-2.7-3.7
	c-3.2-0.5-6.2-1.6-9.4-2c-5.1-0.6-7.8,0.6-9.9,6.3c-0.6,0.7-0.5,1.7-1,2.4l0,0C477.9,65.3,479.4,65.2,480,65.7z"/>
<path fill="#010103" d="M378.5,244.8c0,2-0.2,3.6-1.1,5.1c-1.1,1.9-2.1,3.8-3.1,5.7c-1.3,2.7-3.9,4.1-6,5.9c-2.3,2-5.2,2.3-7.9,3
	c-4,1-7.9-0.1-11.8-0.4c-1.3-0.1-2.7-0.6-4-0.8c-0.8-0.1-1.5-0.2-2-1c-0.6-0.9-1.8-0.6-2.6-1c-6.7-3.4-13.3-7.1-19.3-11.8
	c-3.3-2.6-6.5-5.3-9.5-8.2c-3.1-2.9-6.1-6-8.8-9.3c-2.5-3.1-4.8-6.3-5.8-10.3c-0.3-1,0-1.7,0.5-2.5c0.3-0.5,0.7-1.1,1.3-1.4
	c4-2.8,6.5-6.9,9.5-10.6c3.2-3.9,6.3-8,10.2-11.3c0.2-0.2,0.3-0.4,0.5-0.5c3.5-2.5,4-2.9,7.4,0.4c4.1,4,8.4,8,13.6,10.6
	c1.8,0.9,3.8,1.2,5.8,1.2c1.3,0,2.5-0.6,3.4-1.6c0.9-1,1.9-1.9,2.8-2.9c2.5-2.8,5.6-5.1,8.5-7.5c3-2.4,6.4-4.1,10.6-3.3
	c1.4,0.2,2.7,0.7,3.7,1.6c2.9,2.6,5.3,5.7,6,9.7c0.6,3.2-0.4,6.2-2.3,8.7c-2.5,3.4-6,5.7-9.7,7.6c-3.4,1.8-7,3-10.6,4
	c-3.8,1-7.7,1.2-11.5-0.4c-3.8-1.7-8-1.9-12-2.9c-1.7-0.4-3.4,0.4-4.7,1.4c-2,1.6-3.9,3.5-5.8,5.3c-0.6,0.6-0.6,1.3-0.1,1.9
	c3.9,3.9,7.6,8.1,12.6,10.9c1.2,0.7,2.3,0.7,3.6-0.1c4.5-3,9.2-5.7,14.2-7.6c3.6-1.4,7.4-2.1,11.3-1.8c1.9,0.2,3.5,1,5.1,1.9
	c3.4,2,5.9,4.8,7.4,8.5C378.3,242.4,378.4,243.8,378.5,244.8z"/>
<path fill="#010201" d="M614.3,196c-1.1,0.1-1.8,0.4-2.5,0.7c-1.7,1-3.6,1.2-5.5,1.2c-2.5,0-3.6-1-3.8-3.5c-0.3-3.7,0.9-7.1,3.1-10
	c2-2.6,5.2-3.3,8-1.6c2.3,1.5,4.4,3.1,4.7,6.2c0.1,0.9,0.7,1,1.5,0.2c2-2,4-3.9,6.3-5.5c1.5-1,3-2,4.6-3c0.5-0.3,1-0.5,1.6-0.4
	c2.5,0.7,4.7-0.4,7-0.9c1.3-0.3,2.7-0.5,4-0.1c0.9,0.3,1.9,0.5,2.8,0.5c3.5-0.1,6.1,1.8,8.8,3.6c2.4,1.6,4.5,3.4,6.6,5.4
	c2.6,2.3,4.3,5.1,5.3,8.4c0.7,2.5,0.6,5.1-0.1,7.6c-1.3,4.7-4.5,8.3-7.9,11.6c-1.9,1.8-4.3,2.9-6.7,3.9c-0.7,0.3-1.7,0.7-2,1.2
	c-0.6,1.4-1.4,1.2-2.5,0.9c-0.8-0.2-1.6-0.3-2.4-0.1c-4.2,1-8.2,0-11.6-2.2c-2.2-1.4-4-3.6-5-6.2c-0.3-0.9-0.6-1.8-0.9-2.7
	c-0.2-0.7-0.7-0.5-1.1-0.2c-0.2,0.1-0.3,0.3-0.5,0.5c-3.4,4.5-5.1,9.5-3.9,15.2c1.3,6.4,4.8,11.7,9.1,16.5c1.2,1.3,3,1.7,4.6,2.5
	c2.4,1.2,4.9,2.3,7,4c0.5,0.4,1.2,0.7,0.9,1.4c-0.3,0.7-0.7,1.5-1.7,1.5c-4.5,0.2-8.9-0.1-13.1-2c-3.3-1.4-6.4-3.2-9.4-5.1
	c-1.6-1-2.6-2.6-4-3.7c-3.9-3.2-6.2-7.3-8.1-11.9c-0.8-2-1.3-4-1.4-6.2c-0.2-3.7-0.1-7.3,0.6-11c0.7-3.9,2.4-7.4,3.9-10.9
	C611.6,199.8,613,198.1,614.3,196z"/>
<path fill="#040303" d="M170.3,427.3c1.5,2.1,3.7,3.4,5.9,4.4c4.1,1.9,8.5,3.1,13.1,3.1c1,0,1.3-0.3,1.8-1.3
	c1.7-3.7,4.5-6.7,7.6-9.3c2.5-2.1,5.4-3.5,8.2-5.1c1,0.1,1.8-0.6,2.7-0.9c0.8-0.2,1.5-0.6,2.3-0.6c2.1,0,2.2,0,2.4-1.8
	c1-6.6,0.3-12.9-3.7-18.5c-0.2-0.2-0.2-0.6-0.4-0.9c0.3,0.1,0.6,0.1,0.9,0.3c1.2,0.9,1,0,1-0.7c1.3,1.7,2.6,3.5,2.9,5.7
	c-0.2,0.2-0.4,0.4-0.5,0.7c0.1-0.3,0.3-0.5,0.5-0.8c0.6,1.1,1.1,2.1,1,3.4c-0.2,3.8-0.1,7.7-0.1,11.5c-0.4,1.3,0.1,2.1,1.3,2.8
	c3.5,2,6.8,4.1,10.2,6.1c3.6,2.2,7,4.6,10.1,7.5c4.5,4.2,5.5,9.3,4.5,15.1c-0.3,1.9-0.5,3.8-1.2,5.6c-1.7,4.6-3.6,9.1-7.8,12.2
	c-4.2,3-9.5,2.1-12.5-1.6c-3.3-4-7.3-7.2-10.9-10.9c-4.8-4.9-10-9.3-14.6-14.3c-1.3-1.3-2.6-1.9-4.4-1.8c-5.4,0.2-10.4-1-15.2-3.4
	c-5.2-2.6-9.1-6.4-11.3-11.7c-1.8-4.3-2-8.8-0.7-13.3c0.3-1.1,0.8-2.2,0.9-3.5c0-0.9,0.7-1,1.4-0.9c0.8,0.2,0.7,0.7,0.5,1.3
	c-0.8,1.9-1.1,3.8-1.3,5.8C164.1,417.8,165.6,423.1,170.3,427.3z"/>
<path fill="#050704" d="M630.9,174.1c0.1,1-0.2,2-0.8,2.9c-2.1,2.9-4.3,5.4-7.9,6.7c-2.2,0.8-3.6-0.2-4.9-1.2
	c-2.9-2.1-3.6-5.1-2.2-8.2c1.8-4,5.6-6.9,9.5-6.8C627.9,167.7,630.9,170.6,630.9,174.1z"/>
<path fill="#CCD2D2" d="M567.7,72.4c2.8-1.7,5.9-2.3,9.1-2.9c2.8-0.5,5.6-0.9,8.8-0.6c-0.7,1.1-1.6,1.3-2.6,1.4
	c-3.8,0.6-7.7,0.9-11.4,2.1c-1.3,0.4-2.3,1.5-3.7,1.5C567.7,73.4,569.4,72.8,567.7,72.4z"/>
<path fill="#020101" d="M215.9,416.6c-0.7-0.1-1-0.5-0.9-1.2c0.5-3,0.6-6,0-9.1c-0.1-0.7,0.2-1.2,1-1.3
	C217.2,409,217.1,412.8,215.9,416.6z"/>
<path fill="#C4A027" d="M672.2,92.1c-2.6-0.5-5-1.8-7.5-2.6c-1.2-0.4-2.6,0.1-3.5-1c2,0.2,3.9,0.5,5.9,0.4c1.2,0,2.2,0.6,2.9,1.2
	C670.7,90.8,671.7,91.2,672.2,92.1z"/>
<path fill="#B1A01C" d="M600,121.9c1,3.5,1.9,7.1,2.5,10.8c-0.1,0-0.2,0-0.2-0.1c-1.3-3.3-3-6.5-2.7-10.2
	C599.6,122.2,599.8,122,600,121.9z"/>
<path fill="#CCD2D2" d="M567.8,73.9c-1.2,1.4-2.4,2.8-3.8,3.9C564.7,75.9,565.9,74.6,567.8,73.9z"/>
<path fill="#040303" d="M166.1,397.9c1.5,0.4,1.5,1.6,1.4,2.8c-0.1,0.9-0.3,1.9-1.6,1.9C167.3,400.3,167.3,400.3,166.1,397.9z"/>
<path fill="#AA9595" d="M400.8,50.9c-1.3-0.3-2.5-0.1-3.8-0.1C398.5,49.5,399.4,49.5,400.8,50.9z"/>
<path fill="#9E9937" d="M604.8,139c0.8,1.1,1.6,2.2,1.5,3.7C605.1,141.7,604.6,140.5,604.8,139z"/>
<path fill="#787E7E" d="M89.3,323.6c-0.1-1.1-0.4-2.2,0.8-3C90.2,321.7,90.4,322.8,89.3,323.6z"/>
<path fill="#CCD2D2" d="M563.5,74.9c0.5-1,1.4-1.2,2.4-1.5C565.4,74.4,564.7,75,563.5,74.9z"/>
<path fill="#8C8C8C" d="M480,65.7c-2.1-0.1-2.3-0.4-1.5-1.9C478.5,64.9,479.7,64.9,480,65.7z"/>
<path fill="#6C6E6E" d="M82.6,303.3c1.2,1,1.2,1.3,0,2.5C82.6,305,82.6,304.2,82.6,303.3z"/>
<path fill="#8C8C8C" d="M478.5,63.8c0-0.9-0.1-1.9,1-2.4C479.6,62.4,479.2,63.2,478.5,63.8z"/>
<path fill="#040303" d="M165.8,403.3c0.7,0.2,1.4,0,2.2-0.1C166.9,404.5,166.4,404.6,165.8,403.3z"/>
<path fill="#9C9638" d="M603.7,136.8c1,0.4,1.2,1.1,1.1,2.1C603.8,138.5,603.8,137.6,603.7,136.8z"/>
<path fill="#917B7B" d="M316.9,415.2c-0.5,0.7-1.1,1.1-2,0.9C315.2,415.2,316,415.1,316.9,415.2z"/>
<path fill="#8A7B7B" d="M150.2,329.8c-0.9-0.1-1.1-0.8-1.3-1.5C149.7,328.4,150.1,329,150.2,329.8z"/>
<path fill="#778282" d="M336,430.6c-0.1-0.8,0.2-1.5,0.9-1.9C337.1,429.5,336.9,430.2,336,430.6z"/>
<path fill="#94755A" d="M349,396c0.8,0.4,1.5,0.9,1.4,2C349.5,397.7,349,397,349,396z"/>
<path fill="#897C7C" d="M211.7,395.1c-0.9-0.1-1.1-0.9-1.3-1.6C211.1,393.7,211.7,394.2,211.7,395.1z"/>
<path fill="#CCD2D2" d="M565.9,73.4c0.2-0.7,0.8-0.9,1.5-0.9C567.3,73.5,566.7,73.6,565.9,73.4z"/>
<path fill="#A38B68" d="M624.9,95.1c-0.9-0.1-1.2-0.8-1.4-1.6C624.4,93.6,624.7,94.3,624.9,95.1z"/>
<path fill="#879696" d="M137.3,349.9c0.7,0.3,1.1,0.7,0.9,1.5C137.6,351.1,137.1,350.7,137.3,349.9z"/>
<path fill="#819090" d="M149.3,370.1c0.7,0.3,1.1,0.7,0.9,1.5C149.6,371.2,149.1,370.8,149.3,370.1z"/>
<path fill="#8A7D7D" d="M544.8,65.8c0,0.7-0.2,1.2-1,1.4C543.7,66.4,544.1,66,544.8,65.8z"/>
<path fill="#FFDC00" d="M684.9,123.3c0,1.1-0.3,2.1-0.7,3.2c-1.8,4.8-4.4,9-7.9,12.7c-3.4,3.7-7.4,6.6-11.9,9.1
	c-4.4,2.4-9.1,3.3-13.8,4.3c-5.4,1.2-10.9,1.7-16.4,1.9c-5.8,0.2-11.6-0.7-16.7-3.6c-4.4-2.5-7.7-6.3-9.9-11
	c-3.6-7.7-5.2-16-6.8-24.3c-0.3-1.5-0.6-3-1-4.4c-0.2-0.9-0.3-1.5,0.8-1.8c1.2-0.3,1.3-1.2,0.9-2.2c-1.6-3.8-2.8-7.8-4.7-11.5
	c-0.6-1.3-1-2.7-1.3-4.1c-0.3-1.3-0.5-2.9-2.5-2.8c-0.6,0-1.1-0.6-1.5-1.1c-2.6-2.3-5.5-2.6-8.7-1.3c-2.9,1.2-5.2,3.1-7.4,5.1
	c-3.3,3-6.2,6.4-9.1,9.8c-1.1,1.3-1.8,2.8-2.1,4.5c-0.2,1.4-0.8,2.8-1.8,3.9c-0.9,1-1.8,1-2.6-0.1c-0.5-0.8-1-1.6-1.3-2.5
	c-0.6-2.2-1.3-4.4-1.5-6.7c-0.2-2.3,0.6-4.5,1.3-6.5c1.7-4.8,4-9.3,6.8-13.6c2.9-4.4,7-6.3,12.1-6.7c2.9-0.2,5.7-0.8,8.4-1.5
	c2.1-0.6,3.4-2,3.8-4.2c0.5-2.5-1-4.4-3.6-4.4c-4.3,0-8.4,0.7-12.5,1.8c-8.2,2.3-13.9,8-19.5,14c-3.1,3.4-4.8,7.4-6.5,11.5
	c-0.5,1.2-1.1,2.4-1.9,3.6c-0.8,1.3-1.3,1.3-2.5,0.3c-1.2-1-2.1-2.4-2.2-3.9c-0.2-4.5-0.7-9.1,0.5-13.6c1.2-4.6,3.8-8.6,7-12.1
	c5.7-6.3,12.5-11,20.3-14.4c2.7-1.2,5.5-1.6,8.3-2c4.8-0.6,8.5-2.5,10.3-7.2c0.4-1,1-1,1.9-0.8c2.6,0.7,4.5,2.4,6.1,4.3
	c4.5,5.5,7.1,12,9.7,18.5c3.1,8,5.6,16.3,8.9,24.2c1.2,2.8,2.7,5.4,4.3,8c0.2,0.3,0.4,0.6,0.6,0.7c1.5,0.8,2.4,2.1,3,3.7
	c4.8-2,9.7-3.3,14.1-5.8c2.4-1.4,5.2-2.1,7.2-4.1c0.4-0.4,0.9-0.3,1.4-0.3c1.9-0.1,3.8-0.2,5.7-0.3c0.2,0,0.5-0.1,0.7,0
	c3.3,1.8,7,1.3,10.5,1.8c1.7,0.2,3.3,0.7,4.8,1.4c4.9,2.4,9.1,5.6,11.8,10.4c1.3,2.3,2.1,4.7,2.8,7.3c1.3,5.2,0,10-1.8,14.7
	c-0.9,2.3-2.3,4.4-3.7,6.3c-5.1,6.9-11.7,12.1-19.8,15.1c-3.7,1.4-7.7,2-11.7,2.3c-5,0.4-10.1,0.1-15.1-0.1c-0.5,0-1-0.1-1.4-0.1
	c-1.1-0.1-1.4,0.4-1.4,1.4c0,1,0.4,1.2,1.3,1.2c5.2,0.1,10.4,0.6,15.6,0.2c2.6-0.2,5.1-0.4,7.6-0.9c4.5-0.9,8.8-2.6,12.8-4.9
	c6.3-3.6,11.3-8.6,15.2-14.5c1.8-2.6,3.3-5.5,3.9-8.6c0.1-0.7,0.6-1.3,0.9-2c0.6-3.1,1-6.2,0.3-9.4c-0.3-1.5-0.1-1.6,1.2-1.2l0,0
	C686.2,114.4,686.1,118.9,684.9,123.3z"/>
<path fill="#433900" d="M605.4,55.1c0.3,0.3,0.7,0.6,0.7,0.9c0.1,2.1,1.2,3.7,1.9,5.6c1.9,5.2,3.5,10.5,5.7,15.5
	c0.4,0.9,0.8,1.9,0.7,3c-0.4,0.6,0.3,1.4-0.4,1.9c-1.1-1.6-1.5-3.4-2-5.2c-0.9-3.3-2.3-6.3-3.3-9.5c-0.7-2.2-1.7-4.3-2.3-6.6
	c-0.4-1.5-1.6-2.5-1.6-4.1C605.3,56.3,604.7,55.5,605.4,55.1z"/>
<path fill="#E7C800" d="M596.6,38.9c2.2,1.6,3,4.1,4.3,6.3c0.6,0.5,0.7,1.2,1,1.9c0,0.5,0.3,1,0.6,1.4c0.3,0.8,1.4,1.7-0.1,2.5l0,0
	c-0.5-0.8-0.9-1.6-1.3-2.5c-1.3-1.9-2.6-3.8-4-5.7c-0.8-1-2-1.6-2.9-2.4c-0.3-0.5-1.2-0.7-0.8-1.5c0.3-0.6,0.9-0.4,1.5-0.5
	C595.5,38.4,596.1,38.5,596.6,38.9z"/>
<path fill="#9C8600" d="M614,82c0.1-0.6-0.4-1.4,0.4-1.9c1.1,2.4,2.1,4.9,3.3,7.3c1.4,3.2,3.6,5.9,5.7,9.1c-1.8-0.4-2.8-1.2-3.7-2.4
	C617.1,90.5,615.7,86.2,614,82z"/>
<path fill="#C6AB00" d="M685,109.9c-0.7-0.2-1.2-0.1-0.9,0.7c0.7,2.1,0.4,4.2,0.4,6.3c0,1.2-0.1,2.5-0.9,3.6c0-1.4,0-2.9,0.2-4.3
	c0.4-3.1,0-6.1-1.3-9c-0.2-0.5-0.3-1-0.4-1.6c-0.2-0.5-0.6-1-0.8-1.5c-0.1-0.3-0.1-0.6-0.2-0.9c0-0.2,0-0.5,0.2-0.5
	c0.4-0.1,0.6,0.2,0.8,0.5c0.2,0.2,0.3,0.3,0.5,0.5c0.5,0.3,0.7,0.9,1,1.4C684,106.7,685.1,108.1,685,109.9z"/>
<path fill="#7B6802" d="M574.2,67c2.1-0.5,3.7-1.4,5.5-1.3c1.7,0.1,3.2-0.9,4.9-0.8c0.7,0,1.9-0.4,2,0.7c0.1,1.3-1.1,1.1-1.9,1.1
	c-3.3-0.1-6.5,0.5-9.7,0.9C575,67.6,574.8,67.4,574.2,67z"/>
<path fill="#958406" d="M589.1,88.9c-2.6,1.3-5.2,0.4-7.8,1.3C583,87.4,586.5,86.8,589.1,88.9z"/>
<path fill="#907D00" d="M602.4,50.9c1.2-0.8-0.2-1.6,0.1-2.5c1.5,1.1,1.3,3.1,2.3,4.5c0.4,0.6,0.5,1.5,0.7,2.2
	c-0.1,0.5,0.1,1.2-0.6,1.5C604.3,54.6,602.8,53,602.4,50.9z"/>
<path fill="#C6AB00" d="M684.9,123.3c-0.2-2.3,0.6-4.5,0.5-6.8c-0.1-2.2-0.4-4.4-0.5-6.6c0.1,0.1,0.3,0.2,0.3,0.3
	C686.4,114.6,686.8,119,684.9,123.3z"/>
<path fill="#584E00" d="M682,103.3c-0.3-0.1-0.6-0.5-1,0c-0.8-1-1.7-2-2.5-3c-0.2-0.3-0.3-0.8,0.1-1c0.4-0.3,0.7-0.1,1,0.3
	c0.6,1.1,1.2,2.1,2.3,2.7C682.2,102.3,682.1,102.9,682,103.3z"/>
<path fill="#5E5F00" d="M596.6,38.9c-1,0-2-0.4-3,0c-0.3,0.7,0.5,0.9,0.6,1.4c-0.5,0.1-0.8-0.3-1.2-0.6c-0.3-0.3-0.7-0.7-0.6-1.2
	c0.2-0.7,0.8-0.6,1.4-0.6C594.8,38,596,37.6,596.6,38.9z"/>
<path fill="#907D00" d="M601.1,48.4c0.9,0.6,1.3,1.4,1.3,2.5C601.5,50.3,601.2,49.4,601.1,48.4z"/>
<path fill="#907D00" d="M601.9,47.1c-0.6-0.5-0.8-1.2-1-1.9C601.9,45.5,602,46.2,601.9,47.1z"/>
<path fill="#584E00" d="M681.2,104.1c0.6,0.4,0.9,0.8,0.8,1.5C681.5,105.2,681,104.8,681.2,104.1z"/>
<path fill="#584E00" d="M683.5,105.1c-0.5-0.3-0.9-0.8-1-1.4C683.2,103.9,683.5,104.4,683.5,105.1z"/>
<path fill="#FFFFFF" d="M135.8,343.2c-1.6-2.4-3.2-4.7-4.4-7.3c-0.6-1.3-1.8-2.2-2.8-3.1c-6.1-5.5-12.6-10.6-19.5-15.1
	c-0.5-0.6-1.4-0.8-2-1.4c-4.9-3.2-9.7-6.5-14.4-10c-0.6-0.5-1.2-0.8-2-0.5c-0.4,0.3-0.9,0.2-1.4,0.3c-0.6,0.1-1.1-0.1-1.3-0.7
	c-0.1-0.8,0.2-1.2,1-1.2c0.5,0,0.9-0.3,1.1-0.7c0.8-3.7,3.2-6.1,6.5-6.6c1.3-0.2,2.2,0,3.4,0.7c7.1,4.5,14.3,8.9,21.5,13.2
	c5.5,3.3,10.8,6.9,16.2,10.5c5.2,3.5,9.2,8.1,12.9,12.9c6.8,8.9,12.7,18.4,18.5,27.9c5,8.1,10,16.3,14.9,24.4c0.7,1.1,0.6,1.6-0.4,2
	c-4.4,1.6-7.9,4.5-11.5,7.4c-0.6,0.5-1.1,1-1.6,1.4c-1.1,0.8-1.5,0.8-2.3-0.4c-1.3-2.1-2.6-4.3-4-6.5c-4.2-6.9-8.4-13.8-12.6-20.7
	c-0.4-0.4-0.6-1-1-1.4c-2.4-4-4.8-7.9-7.1-11.9c-2.1-3.5-4.2-7.1-6.4-10.6C136.8,344.8,136.1,344.1,135.8,343.2z"/>
<path fill="#FEFEFE" d="M78.5,366.7c-2.3,0.2-4.5-0.3-6.5-1.2c-5-2.2-5.7-5.9-3.6-10.8c1.4-3.3,3.9-5.9,6.2-8.6
	c0.8-0.9,1.4-2.1,2.4-2.6c1.2-0.6,2,1.1,3.1,1.3c0.5,0.1,1,0.4,1.6,0.6c0.5,0.2,0.8,0.4,0.8,1c-0.2,2.5,1.2,4.4,2.3,6.4
	c1.2,2.2,2.8,4.1,3.4,6.5c0.1,0.5,0.2,1.1-0.5,1c-1.6-0.2-1.4,1-1.4,1.9c0,2.3-0.9,3.4-3.3,3.8C81.4,366.3,79.9,366.5,78.5,366.7z"
	/>
<path fill="#FCFCFC" d="M78.4,277.9c-1.7-0.1-3.1-0.8-4.7-0.6c-0.6,0.1-1.3,0-1.9,0.2c-2.4,0.7-2.7,2.5-1.1,4.3
	c1.5,1.7,3.5,2.6,5.5,3.5c0.6,0.3,1.2,0.1,1.9-0.1c2.7-0.7,5.5-1.1,8.3-0.9c1.4,0.1,2.8,0.4,4.1,1.1c0.8,0.4,1.2,1,1.5,1.8
	c0.4,1.3,0.3,1.6-1,2.2c-2.1,0.8-4.2,1.5-6.1,2.6c-0.4,0.2-1.2,0.1-1.2,1c0.1,1,0.9,1,1.6,1c0.1,0,0.1,0,0.3,0.1
	c0,1.2-1,1.8-1.6,2.6c-0.6,0.9-2.2,0.9-3.2,0.3c-0.7-0.5-1.4-1.1-2.1-1.5c-1.1-0.6-1.5-1.3-0.7-2.5c0.9-1.2-0.2-1.5-1-1.9
	c-2.8-1.3-5.4-3-7.8-5c-2.5-2.1-4.2-4.7-5.3-7.8c-0.8-2.3,0.1-3.9,2.4-4.5c0.8-0.2,1.6-0.7,2.5-0.8c4-0.3,7,1.6,9.6,4.3
	C78.4,277.3,78.3,277.5,78.4,277.9z"/>
<path fill="#FEFEFE" d="M68.1,345.6c-3.3-0.9-5.7-3-7.9-5.4c-1.6-1.7-1.2-3.5,0.7-4.9c2.5-1.8,5.3-2.8,8.1-3.9c2-0.8,4-1.6,5.8-2.8
	c1.1-0.7,1.9-0.4,2.9,0.1c1,0.5,1.4,1.2,1.2,2.3c-0.1,0.9-0.2,1.9-0.2,2.9c0,1.2-0.3,2.3-1.4,3.1c-0.9,0.7-1.5,1.8-1.6,3.1
	c-0.3,2.2-1.7,3.9-3.3,5.4C71,346.5,69.6,346,68.1,345.6z"/>
<path fill="#FAFBFB" d="M61.4,281.8c-0.3-0.1-0.4-0.2-0.5-0.5c-0.3-0.4-0.6-0.7-0.9-1c-1.9-1.6-3.3-3.6-4.8-5.5
	c-0.8-1-1.1-2.3-1.2-3.6c-0.1-2.2,0.8-3.4,2.9-3.9c2.3-0.6,4.4,0.5,6.4,1.2c0.7,0.3,1.3,0.8,2,1.2c0.4,0.2,0.7,0.5,0.6,0.9
	c-0.1,0.6-0.8,0.4-1.2,0.6c-1.1,0.4-1.6,1.6-2.5,2.3l0,0c-0.4,0.4-0.6,1-1,1.4l0,0c0.3,1.8,0,3.6,1,5.2l0,0c0.2,0.6,1.1,1.2,0.4,1.8
	C62.4,282.6,61.9,282.1,61.4,281.8z"/>
<path fill="#DCDCDC" d="M86.4,319.3c0,0.3-0.1,0.6-0.1,0.9c-0.3,1.3-0.6,2.6-0.8,3.9c-0.3,3.2-1.3,6.3-1.8,9.5
	c-0.1,0.9-0.3,1.7-0.5,2.6c-0.3,1.1-0.5,2,0.8,2.5c0.8,0.3,0.7,1.2,0.5,1.9c-0.8,3.1-0.8,3.1-4,1.9c-1-0.4-1.9-1.3-3-0.4
	c-0.7-2.8,1.3-4,2.7-5.3c0.6-0.5,0.8-0.9,1-1.6c1-4.4,2.1-8.8,3.2-13.2c0.2-0.6,0.4-1.2,0.7-1.8c0.4-1,0.3-2.1,1.1-3
	C86.9,317.8,86.7,318.6,86.4,319.3z"/>
<path fill="#E5E5E5" d="M82.6,316.4c0.1,0.9-0.5,1.6-0.7,2.5c-0.4,1.8-1.7,3.4-0.5,5.4c0.3,0.5-0.2,1.5-0.3,2.3
	c-0.1,0.4-0.4,0.5-0.7,0.6c-1.8,0.4-3.8-1.7-3.5-3.4c0.1-0.4,0.2-0.6,0.5-0.7c1.4-0.8,1.9-2.1,2.3-3.5c0.3-1.2,0.9-2.2,1.5-3.2
	c0.5-1.4,0.9-2.9,1.4-4.3l0,0c0.4-0.6,0.6-1.4,0.9-2c0-0.1,0-0.3,0.1-0.4c1.1,0.2,0.8,0.9,0.5,1.5c0,0.1,0,0.3-0.1,0.4
	C83.2,313,83.2,314.8,82.6,316.4z"/>
<path fill="#AFB0B0" d="M86.4,319.3c-0.1-0.5-0.1-1-0.2-1.6c-0.8,0.7-0.5,1.9-1.3,2.5c-0.4-1.4,0.5-2.6,0.7-3.9
	c0.3-2.2,1-4.4,1.6-6.6c0.4-1.3,1-2.5,0.1-4c-0.3-0.5,0.3-1.5,1.2-1.7c0.5-0.1,1.1-0.2,1.6-0.5c0.2,1.1-0.7,0.9-1.3,1.1
	c-0.3,0.1-0.5,0.4-0.5,0.7c0,0.4,0.3,0.5,0.7,0.5c0.5,0,1.1,0.1,1.6,0.1c-1.7,0.6-1.7,2.3-2,3.6c-0.6,2.9-1.2,5.9-1.8,8.8
	C86.9,318.6,86.6,318.9,86.4,319.3z"/>
<path fill="#D9DCDC" d="M72,280.1c0.3-0.4,0.6-0.5,0.9-0.5c2.8-0.2,5.3,0.7,7.8,1.7c0.3,0.1,0.5,0.4,0.4,0.7
	c-0.1,0.2-0.3,0.4-0.5,0.4c-1.6,0.2-3.3,0.7-4.9,0.6C74,282.8,72.8,281.6,72,280.1z"/>
<path fill="#A7A9A9" d="M84.1,311.1c-0.2-0.5,0.1-1.2-0.5-1.5c0.1-1.8,0.8-3.5,1.7-5.1c1.3,1.1,0.4,2.5,0.1,3.4
	C85,309,85.2,310.4,84.1,311.1z"/>
<path fill="#888585" d="M61.4,281.8c0.5-0.2,0.8,0.3,1.2,0.2c0.3-0.6-0.5-1.1-0.2-1.7c0.3,0.1,0.7,0.3,0.7,0.6
	c0.1,0.9,1.7,1.7,0.6,2.4C63,283.8,61.8,282.9,61.4,281.8z"/>
<path fill="#888585" d="M62.4,280.3c-1.1-1.7-1.5-3.6-1-5.2c0.4,0.6,1,1.1,0.5,2.1C61.5,278.2,62.8,279.2,62.4,280.3z"/>
<path fill="#6C5050" d="M68.1,345.6c1.4-0.2,2.9,0.5,4.3-0.1c-0.1,1-0.8,1-1.5,1C69.9,346.5,68.8,346.6,68.1,345.6z"/>
<path fill="#A7A9A9" d="M82.6,316.4c-0.1-1.8,0.2-3.4,1.4-4.8C83.5,313.1,83.7,314.9,82.6,316.4z"/>
<path fill="#A49898" d="M62.4,273.6c0.4-1.2,0.9-2.3,2.5-2.3c-0.1,0.8-1.2,0.9-1.3,1.9C63.6,273.7,62.9,273.6,62.4,273.6z"/>
<path fill="#A7A9A9" d="M82.5,312c0,1.6-0.6,3-1.4,4.3C81.2,314.7,81.5,313.3,82.5,312z"/>
<path fill="#AFB0B0" d="M85.5,324.1c-0.2-1.4,0-2.7,0.8-3.9C86.5,321.6,86.2,322.9,85.5,324.1z"/>
<path fill="#A29797" d="M135.8,343.2c0.9,0.6,1.4,1.4,1.4,2.4C136.4,345.1,135.7,344.4,135.8,343.2z"/>
<path fill="#8B7676" d="M107.1,316.3c0.9,0.1,1.6,0.5,2,1.4C108.1,317.6,107.5,317.1,107.1,316.3z"/>
<path fill="#A7A9A9" d="M83.4,310c0.1,0.9-0.3,1.5-0.9,2C82.5,311.1,82.6,310.4,83.4,310z"/>
<path fill="#888585" d="M61.5,275.1c-0.1-0.7,0.2-1.3,1-1.4C62.4,274.3,62.3,274.9,61.5,275.1z"/>
<path fill="#928787" d="M150.7,368.2c0.8,0.1,1.1,0.6,1,1.4C151,369.4,150.8,368.8,150.7,368.2z"/>
<path fill="#888585" d="M60,280.3c0.6,0,1,0.3,0.9,1C60.3,281.2,60,280.9,60,280.3z"/>
<path fill="#FFAC7A" d="M398.4,349.4c-0.2-4.7-0.4-9.4-0.5-14.1c-0.1-3,0.1-5.9,0.5-8.8c0.1-0.6,0.2-1.1,0.1-1.7
	c-0.1-1.2-1.3-2.5-2.3-2.5c-6,0.1-12-0.4-18,0.2c-2.9,0.3-5.9,0.5-8.7,1.5c-2.2,0.8-3.2,2.3-3.4,4.4c0,0.2,0,0.3,0,0.5
	c0.3,5.5-1.2,10.8-1.9,16.1c-0.4,3.6-0.8,7.1-1,10.7c-0.2,3.1,0.6,4,3.6,4.9c4.6,1.4,9.3,2.7,13.8,4.7c4.1,1.8,6.9,4.6,8.3,9
	c1.4,4.6,2.1,9.3,1.8,13.9c-0.3,5.2-3,9.7-6.7,13.4c-0.3,0.3-0.8,0.6-1.2,0.7c-4.9,1.2-9.7,2.6-14.8,2.5c-4.3-0.1-7.9-1.7-10.9-4.6
	c-1-1-2.2-1.9-2.9-3.2c-0.2-0.3-0.6-0.7-0.9-0.7c-1.7,0.2-2.2-1.2-2.7-2.3c-1.3-2.9-2.4-5.8-3.1-9c-1.5-6.7-1.3-13.3-0.8-20
	c0.4-6,1.4-11.8,2.7-18.1c0.9,2.3,0.8,4.3,1,6.3c0.1,0.6,0.1,1.1,0.1,1.7c0.1,0.4,0.4,0.7,0.8,0.7c0.5,0,0.8-0.2,0.8-0.7
	c0.1-0.4,0-0.8,0-1.2c-0.1-4.6-0.2-9.1-0.3-13.7c0-0.4,0.1-0.9,0-1.2c-1.1-2.4,0-4.7,0.4-7c1.1-6.1,2.2-12.2,3.6-18.3
	c1.1-5,2.2-10.1,3.4-15.1c0.8-3.1,1.5-6.2,2.2-9.3c0.3-1.3,0.9-1.9,2.2-2.1c2.3-0.5,4.6-0.6,6.9-0.6c5,0,9.9,0.3,14.9-0.1
	c6.9-0.5,13.9-0.4,20.8-1.3c2-0.3,4-0.8,6-1.5c1.6-0.6,2.1-0.2,2,1.5c-0.1,4.3-1.1,8.5-1.8,12.8c-1.1,6.3-2.5,12.5-3.6,18.8
	c-0.8,4.6-1.6,9.3-2.1,13.9c-0.2,1.9-0.3,3.9,0,5.7c0.3,2.2,0.6,4.5,3.1,5.5c1.3,0.5,2.8,0.7,4.2,1.1c4.6,1.1,9.1,2.3,13.5,4.1
	c5,2,7.6,5.7,8.5,10.9c0.4,2.1,0.9,4.2,0.8,6.4c-0.2,4.5-1.9,8.5-5.2,11.7c-2.1,2-4.6,2.8-7.4,2.9c-5.4,0.2-10.1-1.8-14.5-4.6
	c-0.8-0.5-1.5-1.5-2.6-0.3c-0.4,0.4-0.9,0.2-1.3-0.2c-0.6-0.5-1.3-0.9-1.8-1.5c-2.2-2.6-4.4-5.2-5.8-8.4c-1.2-2.7-2.6-5.3-2.6-8.4
	c-0.7-2.6-0.7-2.6,1.8-3.2C399,351.7,397.7,350.2,398.4,349.4z"/>
<path fill="#BC7E59" d="M398.4,349.4c0,0.6,0.1,1.3,0.1,1.9c0,0.6-0.3,1-1,1.1c-1.9,0.4-1.9,0.5-2,2.4c0,0.2-0.1,0.3-0.1,0.5
	c-1.4-1.3-0.9-3.1-1.2-4.7c-0.6-3.1,0.3-6.2,0.5-9.3c0-0.5,0.3-0.9,1.1-1c0.4,3,0.1,6,0,8.9c0,0.5-0.1,0.9-0.2,1.4
	c-0.1,0.7,0.1,1.1,0.9,1.2c0.7,0.1,1.3,0,1.4-0.9C398,350.4,397.9,349.8,398.4,349.4z"/>
<path fill="#A0FFFF" d="M372.9,110c0.1,1.5-1,2.7-1.5,3.9c-2.5,5.8-5.5,11.3-8.5,16.8c-3.3,5.9-6.9,11.8-11.4,17
	c-4.6,5.4-9.5,10.5-16.2,13.3c-2.5,1.1-5.2,1.2-7.8,1.9c-0.4,0.1-0.9-0.2-1.4-0.2c-1.6-0.3-3.3-0.8-4.9-0.9c-2.3-0.1-3.9-1.4-5.4-3
	c2.4,0.4,4.8,0.7,7.3,1.2c1.8,0.4,3.7,0.3,5.5,0.4c0.9,0,1.3-0.3,1.3-1.2c0-0.9-0.3-1.3-1.3-1.3c-2.4,0-4.8-0.3-7.2-0.5
	c-7.5-0.7-13.2-4.3-17.4-10.3c-1.8-2.5-1.9-5.4-1.9-8.3c0.2-7.4,2.7-14,7.2-19.8c3-4,6.6-7.2,10.9-9.7c0.4-0.2,0.7-0.7,1.2-0.3
	c1,0.8,1.8,0.2,2.8,0c3.1-0.5,6.1-1.3,9.1-1.8c2.2-0.3,3.9,0.7,5.5,1.8c2.2,1.4,4.3,2.9,6.6,4.3c0.9,0.5,1.9,0.9,2.9,0.9
	c1.3,0,2.6,0.1,3.6-1.4c4.6-6.9,9.6-13.7,14-20.7c5.5-8.7,11.5-16.9,17.9-25c2.9-3.7,5.9-7.3,9.4-10.4c1-0.9,2.1-1.7,3.4-2.2
	c1-0.4,1.5-0.2,1.6,0.9c1,6.6,4.7,11.9,8.3,17.2c1,1.4,2.1,2.7,3.6,3.8c3.3,2.6,7,3.3,11,3c1-0.1,2.1-0.3,3.1,0
	c0.6,0.2,1.1,0,1.6-0.3c2.4-1.4,5.1-2,7.4-3.5c0.3,0.5,0.3,0.8,0.1,1.2c-2,5.2-4.8,9.9-8.8,13.7c-2.9,2.8-6.6,3.8-10.4,4.4
	c-5.4,0.9-10-1.1-14.2-4.2c-2.2-1.6-4.5-3.2-6.8-4.8c-0.6-0.5-1.4-0.8-2-1.4c-1.1-0.5-2.1-1.3-3.3-1.8c-1.6-0.7-1.7-0.8-2.6,0.7
	c-3.1,5-6.2,9.9-9.3,14.9c-1.9,3.1-3.9,6.1-5.9,9.2c-0.3,0.5-0.5,1-1,1.4c-1,1.7-2,3.4-3,5.1c-0.2,0.4-0.5,0.8-0.7,1.2
	c-0.3,0.5-0.1,1,0.3,1.2c0.4,0.3,0.9,0.2,1.2-0.3c0.8-1.2,1.6-2.4,2.3-3.6c0.8-1.2,1.5-2.4,2.3-3.6
	C372.4,108.7,372.5,109.6,372.9,110z"/>
<path fill="#3E6969" d="M372.9,110c-0.8,0.1-0.9-0.7-1.4-1c0.4-2,1.6-3.4,3.3-5C374.8,106.6,372.9,108,372.9,110z"/>
<path fill="#557676" d="M391.1,84.6c1,0,1.5,0.6,2,1.4C392.2,85.8,391.4,85.5,391.1,84.6z"/>
<path fill="#5A8585" d="M369.1,108.9c0.1-0.6,0.4-1.1,1-1.4C370.2,108.3,369.8,108.7,369.1,108.9z"/>
<path fill="#FC005E" d="M294.3,455.1c2.4-0.9,4.5-2.3,6.6-3.8c0.4-0.3,0.9-0.7,0.5-1.4c-0.4-0.7-1-0.7-1.6-0.2
	c-0.3,0.3-0.7,0.5-1,0.7c-1.3,0.7-2.6,1.5-4,2.1c-2.5,1.2-5,1-7.5,0.1c-0.8-0.3-1.6-0.6-2.4-1c-1-0.5-2.1-1.5-2.8,0.4
	c-0.2,0.4-0.8,0.3-1,0c-1.7-2.3-4-4.3-4-7.6c0-1.9-1-3.5-1.4-5.3c-0.4-2.1-0.3-2.4,1.8-2.6c0.7-0.1,1.4-0.1,2.2-0.1
	c0.5,0,0.9,0.1,1.8,0.1c-1.6,1.5-1.1,2.9-0.5,4.4c1.4,3.3,3.6,5.9,6.9,7.7c3.8,2,8.9,0.9,11.6-2.5c0.9-1.2,1.4-2.6,2.7-4
	c0,1.5,0.3,2.2,1.7,2.5c1.1,0.2,1.9,1.4,3.3,1.6c0.5,0,0.4,0.8,0.3,1.3c-0.8,4.2-1.9,8.2-5.4,11.1c-1.1,0.9-2.3,1.6-3.6,1.7
	c-3.1,0.4-6.2,0.3-9-1.4c-0.3-0.5-0.3-1.2-1-1.4l0,0c-0.5-0.5-1.3-0.5-1.9-0.9c-0.3,0-0.4-0.2-0.5-0.4c-0.2-0.3-0.6-0.6-0.4-1
	c0.2-0.4,0.6-0.4,1-0.1l0,0C289.1,455.7,291.7,455.8,294.3,455.1z"/>
<path fill="#FC005E" d="M318.2,417.6c4.4-2.1,8.8-2.9,13.6-1.3c2.3,0.8,4,3.1,4.2,5.6c0.2,3.2-1.1,6-2.7,8.7c-2.4,4-6,6-10.3,7
	c-3.8,0.9-7.7,0.9-11.6,0.5c-0.5,0-1-0.1-1.4-0.3c-0.9-0.4-0.9-1.6-0.1-2.1c0.4-0.2,0.9-0.4,1.3-0.5c2.2-0.2,4.2-1,6.1-1.8
	c0.8-0.6,1.6-0.6,2.5-0.4c1.8,1,2.6-0.5,3.6-1.4c1.2-1.2,2.3-2.5,2.1-4.3c-0.2-0.4-0.5-0.4-0.8-0.2c-0.2,0.2-0.5,0.3-0.8,0.3
	c-0.6,0-1-0.3-1.3-0.7l0,0c-0.7-1.7,1-0.8,1.4-1.4l0,0c0.4-0.4,0.2-0.9,0.2-1.4c-0.1-0.3-0.4-0.4-0.7-0.5c-0.8-0.3-2,0.4-2.5-0.9
	c0.3-0.7,1.5-1.2,0.4-2.1c-1.8-0.6-3.7,0-5.5-0.4c-0.2-0.1-0.4-0.2-0.6-0.4c-0.1-0.2-0.1-0.5,0-0.7c0.1-0.2,0.3-0.4,0.5-0.4
	C316.5,418,317.5,418.1,318.2,417.6z"/>
<path fill="#F6F6F6" d="M288,437c1.9,0.3,3.8,0.1,5.6,0.9c0.1,0.8-0.4,1-0.9,1.3c-0.7,0.5-1.5,1-2.1,1.6c-1.2,1.2-1.3,2.1-0.6,3.2
	c0.8,1.2,1.9,1.5,3.5,1c2.1-0.7,3.5-2.1,5-3.5c0.4-0.4,0.7-0.8,1.1-1.2c0.6,0.6,0.3,1.1,0.1,1.6c-2.9,6.5-9.5,7.5-14,2.4
	c-1.7-2-3-4.3-3-7.1C284.5,436.3,286.2,437.2,288,437z"/>
<path fill="#DE0052" d="M277.4,423.4c1-1.6,2.3-2.3,3.6-2.7c5-1.6,9.9-1.4,14.2,2.1c2.8,2.3,4.3,5.2,4.7,8.8c0,0.5,0.2,1.2-0.6,1.3
	c-0.6,0.1-0.7-0.5-0.8-1c-1.7-5.2-9-10.6-15.7-10C281,422.1,279.4,422.9,277.4,423.4z"/>
<path fill="#F3005A" d="M262.5,437.7c0.3-0.6,0.8-1.1,1.4-1.5c1.1-0.5,1.1,0.5,1.5,1.1l0,0c0.9,0.9,0.8,1.9,0.1,2.9
	c-0.8,1.3-1.3,2.7-1.4,4.3c-0.2,1.9,0.6,3.1,2.3,3.9c0.4,0.2,0.9,0.2,0.8,0.7c-0.1,0.4-0.5,0.6-0.9,0.6c-2.3,0.3-6.7-1.7-6.6-5.4
	c0-0.6,0-1.1,0.1-1.7C260.2,440.7,261.3,439.2,262.5,437.7z"/>
<path fill="#E40054" d="M321.1,422.4c0.8,0.9,2.1-0.1,2.9,0.9c-1.7,0.6-3.4,0.3-5.1,0.2c-2,0-4,0.2-6,0.8c-1.9,1.2-3.8,2.3-5.1,4.2
	c-0.4,0.5-0.8,0.9-1.4,0.4c-0.5-0.4-0.3-0.9,0-1.3c1.8-3.1,3.9-5.8,7-7.6c0.6-0.3,1.1-1.1,1.9-0.5l0,0c0.1,0.2,0.2,0.4,0.2,0.6
	c-0.3,2,0.6,2.4,2.3,1.8C319,421.8,320.2,421.5,321.1,422.4z"/>
<path fill="#DA0051" d="M290.3,426.1c-0.1,0.4-0.4,0.4-0.7,0.5c-1.1,0.1-2.2,0.3-3.2,0.9c-0.8,0.4-1.2-0.1-1.4-0.7
	c-0.5-1.2-1.3-1.2-2.3-0.7c-1.6,0.9-3.4,1.3-4.2,3.3c-0.2,0.5-0.8,0.8-1.4,0.4c-0.6-0.3-0.3-0.8-0.1-1.3c0.7-2.4,2.5-3.7,4.8-4.2
	c2.8-0.7,5.5-0.2,8.1,1C290.1,425.5,290.3,425.8,290.3,426.1z"/>
<path fill="#A3073F" d="M324,425.3c-0.2,0.7-1.5,0.3-1.4,1.4c-2.9-0.1-5.9-0.2-8.5,1.5c-1.6,1-3,2-4.1,3.6c-0.3,0.5-0.7,1-1.4,1.9
	c0.1-3.4,1.8-5.1,3.9-6.6c2-1.5,4.4-1.5,6.8-1.7C320.8,425.2,322.4,425.3,324,425.3z"/>
<path fill="#DDE3E3" d="M292.5,432c-2.1-0.1-4-1.2-6.1-1c-0.3,0-0.6-0.1-0.7-0.5c0-0.3,0.1-0.6,0.4-0.8c1.6-0.9,3.4-1.3,5.3-1
	c0.9,0.1,1.6,0.7,2,1.5c0.2,0.5,0.8,0.9,0.5,1.5C293.6,432.4,293,432,292.5,432z"/>
<path fill="#CCD0D0" d="M311.5,432.5c0-1.4,1.3-1.6,2-2.1c2-1.4,4.1-2.7,7-2.1c-1.8,2.4-4.1,3.3-6.5,4.3
	C313.2,432.9,312.3,433.2,311.5,432.5z"/>
<path fill="#720129" d="M265.4,437.3c-0.5-0.3-0.7-1-1.5-1.1c2.2-2.2,4.9-3.3,7.9-4c0.7-0.2,1.9-0.6,2.1,0.3c0.3,1.3-1,0.7-1.7,0.9
	c-2.1,0.6-4.1,1.5-6.2,2.4C265.3,436.2,265.6,436.8,265.4,437.3z"/>
<path fill="#A3073F" d="M319.6,433.5c-0.8-0.3-1.6-0.2-2.4,0c1.5-1.1,2.9-2.2,4.2-3.6c0.9-1,1.4-1.9,1.1-3.1
	c0.6-0.1,0.9,0.3,1.4,0.5c0.9,1.3,0,2.3-0.8,3.2C322.2,431.5,321,432.6,319.6,433.5z"/>
<path fill="#A4003E" d="M294.3,455.1c-2.6,1.5-5.1,1.3-7.7,0C289.1,455.1,291.7,455.1,294.3,455.1z"/>
<path fill="#950136" d="M284.2,428.5c-0.4,1.1-1.2,1.7-2.1,2c-0.4,0.2-1,0.1-1.2-0.4c-0.2-0.5,0-1,0.5-1.2
	C282.2,428.6,283,427.8,284.2,428.5z"/>
<path fill="#AC003C" d="M313,424.3c1.2-0.9,2.6-1,4-1c2.4,0,4.7,0,7.1,0c0.1,0.2,0.3,0.4,0.4,0.5c-0.2,0.2-0.3,0.2-0.5,0
	C320.3,423.6,316.6,423.7,313,424.3z"/>
<path fill="#FC005E" d="M288,437c-1.7,0-3.5,0.1-5.2,0.1c-0.4-0.6,0.2-0.6,0.4-0.6C284.8,436.5,286.4,436.4,288,437z"/>
<path fill="#A4003E" d="M286.6,455c-0.8,0-0.6,0.6-0.5,1.1c-1,0-1.7-0.7-2.5-1.2c-0.3-0.2-0.3-0.6-0.2-0.9c0.2-0.3,0.5-0.5,0.8-0.3
	C284.9,454.3,285.9,454.3,286.6,455z"/>
<path fill="#B0003E" d="M267,444c0.8,0.1,0.9,0.7,1,1.3c0.1,0.6-0.2,0.9-0.7,1c-0.9,0-1-0.6-1-1.3C266.3,444.6,266.4,444.1,267,444z
	"/>
<path fill="#720129" d="M262.5,437.7c-0.9,1.6-1.9,3.2-2.8,4.8C259.7,440.4,260.8,438.9,262.5,437.7z"/>
<path fill="#720129" d="M265.5,440.2c0.3-1,0-1.9-0.1-2.9c0.6,0.3,1.2,0.5,1.8,0.8C267,439.1,266.3,439.7,265.5,440.2z"/>
<path fill="#675A5A" d="M311.5,432.5c0.8,0,1.6,0.1,2.4,0.1c-0.6,0.9-1.5,1-2.4,0.8C311.1,433.2,311.2,432.8,311.5,432.5z"/>
<path fill="#AC003C" d="M318.2,417.6c-0.6,0.8-1.4,1.1-2.4,0.9C316.3,417.5,317.3,417.6,318.2,417.6z"/>
<path fill="#A4003E" d="M286.5,456.5c0.9-0.2,1.5,0.1,1.9,0.9C287.6,457.5,287,457.2,286.5,456.5z"/>
<path fill="#AC003C" d="M315.4,419.5c-0.6,0.2-1.3,0.3-1.9,0.5c0.4-0.8,1-1,1.8-1.1C315.3,419.1,315.3,419.3,315.4,419.5z"/>
<path fill="#A4003E" d="M288.5,457.5c1.1-0.1,1,0.7,1,1.4C288.8,458.7,288.8,457.9,288.5,457.5z"/>
<path fill="#A3073F" d="M324,423.9c0.2,0,0.3,0,0.5,0c0.1,0.5,0.2,1.1-0.4,1.4C324,424.8,324,424.3,324,423.9z"/>
<path fill="#E000FF" d="M503,51.4c-2.6,0-5.2-0.6-7.8-1.1c-4.3-0.7-8.6-1.7-13-0.7c-1.5,0.3-2.6,1.6-4.2,1.5c-0.4,0-1,0.5-0.9,1
	c0.1,1.8-1.1,3.1-1.8,4.6c-1,2.1-1.7,4.3-2.4,6.5c-0.5,1.6,0.4,3.6,2,3.9c3.2,0.7,6.1,2.2,9.2,3.2c1.5,0.5,3.4,0.3,5,0.9
	c3.2,1.1,6.2,2.9,9.2,4.3c0.9,0.4,1.5,1.6,2.3,2.4c1.3,1,2.4,2.2,2.8,3.9l0,0.1c0.4,1.5,0.9,2.9-0.1,4.5c-1-0.8-0.3-1.9-0.9-2.6l0,0
	c-0.3-0.8-0.5-2-1.6-1.5c-0.9,0.3-0.6,1.5-0.4,2.1c0.7,2.8,0.5,5.5-0.8,8.1c-1.5,3.7-5.7,5.6-9.3,5.2c-3.7-0.4-6.9-3.2-7.9-7
	c-1.2-4.2-0.7-8.4,0.4-12.5c0.3-1,0-1.5-0.4-2.4c-1.9-3.8-5.7-4.4-9.2-5.2c-5.8-1.4-11.8-1.9-17.8-2.3c-1.6-0.1-1.9-0.4-1.3-1.9
	c0.9-2.4,1.9-4.9,3-7.3c1.6-3.7,3.1-7.5,4.2-11.4c0.3-1.1,0.8-1.5,1.8-1.5c2.8-0.1,5.6-0.3,8.4-0.3c6.2,0,12.3-0.1,18.5,0.1
	c4.2,0.1,8.4,0.5,12.6,1.2c2.8,0.5,5.7,0.4,8.5,0.9c5.1,1,10,2.5,14.8,4.6c0.6,0.3,1.3,0.7,1.4,1.3c0.2,1.7,1.3,3.1,1.6,4.7
	c1.3,6.6-2.2,11-7.4,13.8c-2.7,1.4-5.6,2.4-8.8,2.5c-4.3,0.2-6.4-1.6-7.7-6.1c-0.7-2.4-1.2-4.9-0.9-7.5c0.3-2.9,0.3-5.8,0.3-8.7
	C504.2,51.6,503.5,51.7,503,51.4z"/>
<path fill="#AD06C6" d="M503,51.4c1-0.2,1.5,0.2,1.5,1.2c0,2.8,0.2,5.6-0.1,8.4c-0.3,2.2,0.1,4.2,0.4,6.3c0.1,0.5,0.2,0.9,0.1,1.4
	c-1.2-1.3-1.2-2.9-1.3-4.4c-0.2-2.3-0.2-4.6,0.3-6.9c0.1-0.5,0.2-1.1,0.2-1.7c0-0.6-0.4-1.2-1.1-0.9c-2.1,0.9-4-0.3-6-0.6
	c-2.9-0.4-5.8-1.2-8.7-1.3c-5.1-0.3-7.6,1.7-9.9,6.6c-0.6,1.2-1.2,2.4-1.4,3.8c-0.1,0.5-0.2,1.3-1,1.1c-0.6-0.1-0.4-0.8-0.4-1.2
	c0.1-0.6,0.2-1.3,0.3-1.9c1-3.1,2.5-6,4.8-8.4c0.9-0.9,2.1-1.4,3.4-1.5c2.5-0.3,5-0.1,7.4,0.4c3.3,0.6,6.6,1,9.9,1.4
	c0.3,0,0.6,0.1,1,0.1c0.6,0,1.2,0.1,1.3-0.7C503.9,51.9,503.3,51.8,503,51.4z"/>
<path fill="#AD00CA" d="M473.3,72.3c1.9,0,3.5,1,5.2,1.6c0.6,0.2,0.9,0.6,1.2,1.1c0.3,0.3,0.4,0.7,0.1,1.1c-0.3,0.4-0.8,0.2-1.1,0
	c-2.8-1.7-6.1-2.2-9.1-3.4c-0.6-0.3-1.4-0.2-2.1-0.2c1.3-1.9,3.1-0.2,4.7-0.5C472.6,71.8,472.9,72.3,473.3,72.3z"/>
<path fill="#B007D3" d="M512.9,77.7c-0.2-0.1-0.5-0.2-0.3-0.4c0.3-0.5,0.8-0.4,1.3-0.4c3.3-0.4,6.4-1.4,9.3-3
	c0.9-0.3,1.4-0.2,0.9,0.9c-0.2,0.2-0.3,0.3-0.5,0.5c-0.3,0.3-0.6,0.6-1,0.9c-0.1,0.1-0.2,0.1-0.4,0.2
	C519.3,77.9,516.3,79,512.9,77.7z"/>
<path fill="#3F004F" d="M473.3,72.3c-1.5-0.2-3-0.5-4.6-0.4c-0.5,0-0.9,0-1.2,0.5c-2.8-0.3-5.6-0.6-8.3-1.4c1.5-0.9,3.1-0.4,4.6-0.3
	c2.4,0.2,4.9,0.2,7.3,0.7C472,71.7,472.8,71.5,473.3,72.3z"/>
<path fill="#5B006A" d="M457.7,70.8c-1.6,1.2-3.3,1.3-5.1,1.2c-0.4,0-0.8-0.2-0.8-0.7c-0.1-0.5,0.2-1,0.7-1.1
	C454.2,70.1,456,69.7,457.7,70.8z"/>
<path fill="#A68494" d="M512.9,77.7c3.3,0.5,6.3-0.7,9.4-1.4C519.7,78.9,515.8,79.5,512.9,77.7z"/>
<path fill="#891F98" d="M502.5,83.6c0.7,0.4,0.3,1.3,0.8,1.9c0.5-1.3-0.1-2.6,0.1-3.8c1.3,2.3,1.1,5.2-0.7,7.3
	C502.6,86.9,502.5,85.3,502.5,83.6z"/>
<path fill="#891F98" d="M499.7,92.1c0.6-2.7,1.4-5.4,0.5-8.1c0-0.1,0-0.3-0.1-0.5c-0.1-1.6,0.2-2.1,1.2-2.1c1.4,0,1.4,1,1.2,2
	c-0.2-0.2-0.4-0.5-0.6-0.7c-0.2-0.3-0.5-0.7-0.9-0.6c-0.6,0.2-0.5,0.7-0.5,1.2c0.1,0.5,0.3,0.9,0.4,1.4
	C501.3,87.3,501.5,89.9,499.7,92.1z"/>
<path fill="#891F98" d="M503.5,81.6c-0.9-1.3-1.8-2.6-2.8-3.9C502.3,78.6,503.7,79.5,503.5,81.6z"/>
<path fill="#700087" d="M524.1,74.8c0-0.7-0.4-0.8-0.9-0.9c0.5-0.5,1.1-0.8,1.8-1C525.2,73.8,525.1,74.5,524.1,74.8z"/>
<path fill="#700087" d="M522.7,76.2c0.1-0.6,0.4-0.8,1-0.9C523.5,75.9,523.2,76.1,522.7,76.2z"/>
<path fill="#2700FF" d="M378.2,204c0.7,5.6-2.6,8.8-6.6,11.8c-0.5,0.3-0.9,0.3-1.2-0.1c-0.8-1.1-1.4-0.5-2.2,0
	c-2.8,1.9-5.7,3.7-8.8,5.1c-4,1.7-8.1,2.1-12.3,1c-1.3-0.5-2.6-0.7-3.8-1.4l0,0c-0.1-0.5,0.2-0.8,0.6-0.8c0.8,0,1.7,0.1,1.9-0.9
	c0.3-1.2-0.9-1.3-1.6-1.8c-0.2-0.1-0.4-0.2-0.7-0.3c-0.5-0.1-1-0.1-1.4-0.4c-1.6-1-3.5-0.9-5.2-1.5c-3.5-1.1-6.2,0.3-8.9,2.3
	c-3,2.1-5.7,4.5-8.4,7.1c-1,1-1.2,2.9-0.4,4c0.4,0.6,0.9,1.1,1.4,1.7c2.8,2.8,5.5,5.7,8.4,8.4c2.2,2,4.7,3.8,7.5,4.9
	c1.5,0.6,2.6,0.4,3.8-0.4c3-2,6.1-4,9.4-5.6c4.3-2.1,8.7-3.8,13.6-3.9c2.5,0,4.7,0.8,6.7,2.2c0.9,0.6,1.3,1.4,1.5,2.6
	c1.1,7-2.3,12.4-8.4,16c-3.3,2-7,2.9-10.8,3.8c-0.2,0.1-0.5,0-0.7,0.1c-0.5,0.1-0.7,0.4-0.6,0.9c0,0.5,0.4,0.7,0.8,0.7
	c0.4,0,0.8,0,1.2,0c7.4-0.9,13.7-3.8,18.4-9.8c1.7-2.2,2.3-4.9,2.9-7.5c0.1-0.4,0-0.8,0.5-1.2c1.5,2.4,1.7,5,0.6,7.5
	c-1.1,2.5-2.6,4.7-3.8,7.1c-0.5,0.9-1.2,1.5-2,2.1c-1.2,0.9-2.4,1.8-3.6,2.8c-1.6,1.4-3.7,1.4-5.6,1.8c-0.3,0.1-0.7,0-0.8-0.3
	c-0.9-1.7-2.4-1-3.6-0.7c-3.3,0.8-6.5,0.8-9.9-0.1c-3.9-1-7.4-2.8-11-4.6c-0.5-0.2-0.9-0.5-0.9-1c0.1-1.4-1-1.8-1.8-2.3
	c-5.1-3.1-9.7-6.6-14.2-10.4c-0.7-0.6-1.4-0.7-2.2-0.7c-0.7,0.1-1-0.4-1.4-0.8c-4-4.2-8.6-7.8-11.9-12.7c-0.4-0.5-0.9-0.9-1.3-1.4
	l0,0c-0.4-0.9-0.7-1.9-1.7-2.4c-0.2-0.8-0.4-1.5-0.7-2.3c-0.6-1.7-0.6-2.3,0.9-3.2c2.1-1.4,3.7-3.3,5.2-5.2
	c4.1-5.2,8-10.7,12.8-15.4c0.8-0.8,1.6-1.6,2.5-2.1c1.6-0.9,2-1,3.3,0.3c1.8,1.7,3.5,3.4,5.4,5.1c3.6,3.1,7.2,5.9,11.8,7.5
	c3.3,1.1,6.3,0.8,8.9-1.5c2.7-2.5,5.3-5.1,8-7.5c2.3-2.2,4.7-4.3,7.8-5.4c2.5-1,4.7,0.2,7,0.7c-0.3,0.8-0.3,1.6,0,2.6
	c1.7,5.4-0.3,9.6-4.5,13c-1.9,1.5-3.8,2.8-5.9,4c-0.3,0.2-0.6,0.3-0.8,0.5c-0.4,0.3-0.7,0.7-0.4,1.2c0.3,0.6,0.8,0.8,1.4,0.4
	c1.4-0.8,2.8-1.5,4.1-2.4c2.6-1.8,5.2-3.6,7-6.3c0.5-0.8,0.8-1.7,1.3-2.5c0.5-1.8,0.8-3.5,0.7-5.4c0-1,0.3-1.5,1.1-0.4
	c0.1,0.2,0.3,0.3,0.4,0.5C378,201.7,377.6,203,378.2,204z"/>
<path fill="#1D01CA" d="M343.5,216.6c0.4-0.1,0.8,0,1.1,0.2c0.8,0.4,1.6,0.9,1.3,2c-0.2,1-0.9,1.2-1.8,1.2c-0.4,0-0.8,0.1-1,0.5
	c-2.5-0.9-5-1.5-7.7-1.7c-0.8-0.4-2-0.3-2-1.6c1.8-0.8,3.6-0.6,5.3-0.1c1.7,0.6,3.5,1.1,5.1,2c0.4,0.2,0.8,0.6,1.2,0
	c0.5-0.6,0.2-1-0.3-1.4C344.4,217.3,343.8,217.1,343.5,216.6z"/>
<path fill="#B1B1CA" d="M301.4,227c1.2-0.1,1.9,0.9,2.2,1.6c0.9,2.3,2.9,3.5,4.5,5.1c2.6,2.8,5.3,5.4,8,8.1
	c-0.2,0.2-0.2,0.7-0.6,0.5c-0.6-0.4-1.1-0.8-1.6-1.3c-1.1-1.1-2.2-2.3-3.5-3.2c-1.8-1.3-2.9-3.1-4.3-4.7
	C304.3,231.2,302.4,229.5,301.4,227z"/>
<path fill="#0D0076" d="M327.9,220.8c-1.8,2.3-3.9,4.1-5.8,6c-0.1,0.1-0.5,0.2-0.6,0.1c-0.3-0.2-0.3-0.6-0.2-0.9
	c0.1-0.3,0.3-0.5,0.6-0.8c1.5-1.5,3-3,4.7-4.3C326.8,220.7,327.1,220.3,327.9,220.8z"/>
<path fill="#959AC1" d="M372.7,195.5c-1.1,0.1-2.2,0.2-3.4-0.4c-1-0.5-2.4-0.3-3.7-0.3c1.6-1.5,3.5-0.9,5.3-0.5
	C371.5,194.4,372.6,194.5,372.7,195.5z"/>
<path fill="#7A738C" d="M333.5,217c0.3,1,1.7,0.6,2,1.6c-1.1,0.1-2.2,0.1-3.2,0.2c-0.3,0-0.6,0-0.8-0.4c-0.2-0.5,0.2-0.7,0.5-0.9
	C332.4,217.2,332.9,217.1,333.5,217z"/>
<path fill="#0D0072" d="M376.8,200.2c-0.6-0.2-0.9-0.2-0.9,0.6c0.1,1.5,0,3-0.5,4.5c-0.1,0.3-0.2,0.6-0.5,0.8
	c-0.2-2,0.7-3.9,0.4-5.9c-0.1-0.4,0.2-0.8,0.7-0.8C376.7,199.2,376.8,199.7,376.8,200.2z"/>
<path fill="#1D01CA" d="M343.2,220.3c1.3,0.3,2.9,0.1,3.8,1.4C345.5,221.8,344.3,221.3,343.2,220.3z"/>
<path fill="#0D0072" d="M378.2,204c-0.9-0.9-0.9-2.1-1.1-3.3C378.5,201.5,378.2,202.8,378.2,204z"/>
<path fill="#838295" d="M299.8,224.6c1.5,0.5,1.8,0.9,1.7,2.4C300.5,226.5,300.1,225.6,299.8,224.6z"/>
<path fill="#5CFF53" d="M628.8,245.8c-0.1,0-0.3-0.1-0.4-0.1c-0.9-0.6-2.1-0.7-2.9-1.3c-0.1,0-0.3-0.1-0.4-0.1
	c-0.8-0.4-1.6-0.9-2.5-1.3c-9-4.4-13.2-11.9-13.3-21.7c-0.1-7.1,2.8-13.3,6.7-19.1c4.5-6.6,10.4-11.7,17.3-15.7
	c2.8-1.6,5.9-2.9,9.1-3.5c4.9-1.1,9,1,13,3.5c3.1,1.9,4.7,5.1,7,7.7c0.3,0.3,0.4,0.7,0.7,1c3.1,3,2.8,6.4,1.3,10.1
	c-1,2.5-2.4,4.6-4.1,6.6c-3.4,3.8-7.5,6.3-12.3,7.9c-1,0.3-2.1,0-3.1,0c-1.9,0-3.9-0.9-5.8,0.5c-0.1,0.1-0.5,0.1-0.7,0
	c-1.5-0.9-3.3-1.2-4.6-2.5c-2.5-2.3-3.7-5.3-4.6-8.5c-0.2-0.6-0.1-1.1,0.2-1.6c1-1.6,1-1.7-0.4-3c-4.3,3.9-7.7,8.4-9.2,14
	c-1.3,5-0.5,10,1.8,14.7c1.2,2.5,2.7,4.9,4.3,7.2c0.3,0.7,1,1.2,1.4,2c0.2,0.2,0.3,0.4,0.5,0.6c0.5,0.3,0.7,0.9,1,1.3
	c0.1,0.2,0.3,0.4,0.4,0.6C629.7,245.5,629.6,245.8,628.8,245.8z"/>
<path fill="#5BFB52" d="M605.2,192.9c0-2.8,0.6-5.3,2.6-7.4c1.4-1.5,3.4-1.8,5.1-0.6c0.8,0.5,1.5,1.2,2.1,1.9
	c1.7,1.9,1.6,3.8-0.2,5.6c-2.1,2-4.7,2.9-7.3,3.7c-1.6,0.5-2.2-0.1-2.3-1.7C605.2,193.9,605.2,193.4,605.2,192.9z"/>
<path fill="#36A232" d="M617.3,196c0.8-1.8,1.7-3.2,3.2-4.4c1.4-1.1,2.8-2.3,4.1-3.7c1.2-1.3,2.7-1.9,4.2-2.7c1.9-1,3.8-2.1,5.6-3.1
	c0.4-0.2,0.8-0.2,1,0.2c0.2,0.4,0,0.7-0.4,1c-1.6,1-3.4,1.7-5,2.7c-4.4,2.7-8.2,6-11.7,9.7C618.1,196,617.9,196.2,617.3,196z"/>
<path fill="#318F2B" d="M628.8,245.8c0.4-0.2,0.4-0.5,0.4-0.9c1.3,0.5,2.4,1.3,3.6,2.3C631.2,247.1,629.8,247,628.8,245.8z"/>
<path fill="#318F2B" d="M625.4,244.4c1.1,0.1,2.2,0.3,2.9,1.3C627.3,245.5,626.1,245.4,625.4,244.4z"/>
<path fill="#318F2B" d="M622.5,242.9c1,0.1,1.9,0.4,2.5,1.3C623.9,244.3,623.1,243.8,622.5,242.9z"/>
<path fill="#318F2B" d="M627.3,242.4c-0.7-0.5-1.4-1-1.4-2C626.6,240.9,627.4,241.4,627.3,242.4z"/>
<path fill="#318F2B" d="M628.8,244.3c-0.6-0.3-1-0.7-1-1.3C628.5,243.1,628.9,243.5,628.8,244.3z"/>
<path fill="#FFFFFF" d="M218.2,457.6c-1-0.1-1.7-0.9-2.3-1.5c-2.9-2.7-5.7-5.6-8.6-8.2c-4.4-3.9-8.4-8.1-12.9-11.8
	c-1-0.8-1-1.6-0.3-2.7c3.1-5.3,7.7-9,13-11.8c0.5-0.3,1-0.5,1.5-0.7c2.3-1.1,4.2-1.3,6.6,0.3c5.2,3.5,10.9,6.2,16,9.9
	c1,0.7,2,1.5,3,2.3c0.6,0.5,0.7,1.2-0.2,1.4c-4.5,1.4-7.5,4.7-10.1,8.3c-2.8,4-4.8,8.4-5.3,13.4
	C218.5,456.8,218.6,457.2,218.2,457.6z"/>
<path fill="#FFFFFF" d="M240,444.9c-0.2,6-1.8,11.6-5.3,16.5c-2,2.8-4.6,4.7-8.3,4.1c-1.9-0.3-3.4-1.1-4.5-3.1
	c-2.3-4.3-1.3-8.4,0.4-12.4c1.8-4.4,4.3-8.3,8.1-11.3c1.6-1.2,3.2-2.3,5.3-2.5c1.3-0.1,1.9,0.4,2.5,1.3
	C239.7,439.8,240.1,442.2,240,444.9z"/>
<path fill="#020101" d="M215.1,401.7c0,0.1,0,0.2,0,0.2c-0.1,0.5,0.2,1.1-0.4,1.4c-0.3,0.1-0.4-0.1-0.5-0.4
	C214,402.2,214.3,401.8,215.1,401.7C215.1,401.7,215.1,401.7,215.1,401.7z"/>
<path fill="#5BFC52" d="M628.8,173.8c0.1,1.5-0.7,2.6-1.6,3.6c-0.9,1.1-2,2.1-3.1,3c-1.8,1.5-3,1.5-5.3,0c-1.7-1.1-2.3-2.8-1.8-4.7
	c0.9-3.4,4.9-6.3,7.7-5.9C626.9,170.1,628.8,171.8,628.8,173.8z"/>
<path fill="#080504" d="M384.5,312c-4-0.1-7.9-0.7-11.3-3.2c-2.5-1.9-2.2-4.5,0.4-6.1c2-1.2,4.1-1.7,6.3-2.1
	c4.3-0.7,8.5-1.4,12.8-1.7c1.8-0.1,3.6-0.8,5.4-0.8c1.3,0,2.6,1.3,2.4,2.5c-0.3,1.9-0.8,3.7-1.2,5.6c-0.2,0.9-0.6,1.3-1.4,1.1
	c-1.1-0.2-1.6,0.4-2.4,1c-1.8,1.3-3.6,2.5-5.9,2.9C387.9,311.5,386.3,312.2,384.5,312z"/>
<path fill="#140007" d="M319.6,433.5c0.1-1.4,1.4-1.8,2.3-2.5c1.1-1,2.2-2.1,2.1-3.7c0.2-0.2,0.3-0.3,0.5-0.5c0.5-0.3,1-0.3,1.4,0
	c0.7,1.8-0.4,3.1-1.3,4.4c-0.6,0.8-1.4,1.5-2.1,2.2C321.3,434.6,321.3,434.6,319.6,433.5z"/>
<path fill="#300011" d="M333,425.6c-0.1,0.3-0.2,0.6-0.4,0.9c-0.7,1.1-1.5,2.2-2.1,3.4c-0.4,0.6-0.8,1-1.5,0.7
	c-0.8-0.3-0.7-1-0.5-1.6c0.6-1.4,1.3-2.7,1.9-4.1c0.2-0.5,0.6-0.7,1.2-0.5C332.2,424.6,332.7,425,333,425.6z"/>
<path fill="#AC003C" d="M321.1,422.4c-1.3,0-2.5,0-3.8,0.1c-0.1-0.1-0.1-0.2-0.2-0.3c0.4-1,1.2-0.8,2-0.9c1-0.1,1.9-0.1,2.5-1.1
	c0.1-0.2,0.3-0.3,0.5-0.4C322.9,421.8,322.8,422,321.1,422.4z"/>
<path fill="#AC003C" d="M315.3,419.9c0-0.1,0-0.3,0.1-0.4c2.3,0.2,4.6-0.4,6.8,0.4c-0.1,0.1-0.1,0.2-0.2,0.2c-2,0.9-4,0.6-6,0.3
	C315.7,420.3,315.5,420.2,315.3,419.9z"/>
<path fill="#A3073F" d="M325.9,426.7c-0.5,0-1,0-1.4,0C325,425.7,325.5,425.8,325.9,426.7z"/>
<path fill="#AC003C" d="M317.4,422.5c-0.7,0.5-1.5,0.6-2.1-0.1c-0.6-0.7-0.5-1.6,0-2.4c0.1,0.1,0.1,0.1,0.2,0.2
	c0.4,0.8,0.9,1.6,1.7,2.2L317.4,422.5z"/>
<path fill="#050205" d="M467.1,64c-0.9,0.2-2.1,0.4-3.3,0.6c-0.9,0.2-1.7,0.4-2.6,0.5c-2.2,0.2-3.5-1.2-2.8-3.3
	c0.8-2.5,1.2-5.2,2.5-7.7c1.3-2.4,4.2-3.8,6.8-3.1c0.5,0.1,1.1,0.2,1.6,0.5c0.9,0.5,2.3,0.2,2.7,1.5c0.7,2,1.6,3.9,0.3,6.1
	c-1,1.6-2.5,2.9-3.1,4.8C468.9,64.7,468.1,64.2,467.1,64z"/>
<path fill="#000004" d="M311.5,217.1c-0.2-0.9,0.1-1.6,0.8-2.3c2.1-2,4-4.1,6.1-6c1-1,2.1-2,3.7-2.1c1.9-0.1,3,1.3,2.5,3.1
	c-0.9,3.3-2.5,6.1-5.2,8.3c-2.4,1.9-4.8,2.2-6.8,1C311.8,218.7,311.2,218.2,311.5,217.1z"/>
<path fill="#FCFBFA" d="M374.4,304.8c3.5-2,7.4-2.1,11.3-2.7c3.5-0.5,7.1-0.6,10.7-1.3c0.6-0.1,1.1-0.2,1.6,0.2c0.5,0.6,0,1-0.2,1.5
	c-1.5,3-3.7,5-6.9,6c-3.4,1.1-6.8,1.1-10.1,0.8c-2.3-0.2-4.5-1.1-6.2-2.7C373.9,306.1,374,305.4,374.4,304.8z"/>
<path fill="#6C6A68" d="M374.4,304.8c0,0.6,0,1.3-0.1,1.9C373.1,306.1,373.2,305.6,374.4,304.8z"/>
<path fill="#130005" d="M317.2,422.3c-1.7-0.2-1.7-0.2-1.7-2.2c2.1-0.3,4.3-0.1,6.4,0c0.3,1.1-0.2,1.6-1.2,1.8
	C319.5,422.1,318.3,421.8,317.2,422.3z"/>
<path fill="#A800C0" d="M460.8,61.9c0.6-2.2,1.1-4.4,1.7-6.7c0.1-0.3,0.3-0.6,0.5-0.8c0.3-0.3,0.6-0.6,1-0.3
	c0.5,0.2,0.8,0.7,0.5,1.2c-1.1,2.1-1.5,4.3-1.8,6.6c0,0.2-0.2,0.5-0.3,0.7c-0.2,0.5-0.6,0.8-1.2,0.6
	C460.6,62.9,460.9,62.3,460.8,61.9z"/>
<path fill="#EAE9E9" d="M468.7,57.2c-0.6,0.8-0.5,2-0.8,3.1c-0.2,0.7-0.8,1.1-1.5,1.4c-0.5,0.2-1,0.3-1.4,0
	c-0.5-0.3-0.4-0.8-0.1-1.3c0.6-1.1,0.2-2.5,1.2-3.5c0.6-0.6,1.3-0.9,2.1-0.8C468.5,56.2,468.8,56.4,468.7,57.2z"/>
<path fill="#1700A9" d="M320.8,209.9c0,1.1-0.8,1.6-1.3,2.3c-0.9,1.3-2.1,2.4-3,3.7c-0.3,0.5-0.9,0.9-1.4,1.3
	c-0.4,0.3-0.9,0.2-1.3-0.2c-0.4-0.4-0.3-0.9,0-1.3c0.2-0.2,0.3-0.4,0.5-0.5c1.7-1.7,3.5-3.3,5.2-5
	C319.9,209.9,320.2,209.8,320.8,209.9z"/>
</svg>
