<?xml version="1.0" encoding="utf-8"?>
<!-- Generator: Adobe Illustrator 18.0.0, SVG Export Plug-In . SVG Version: 6.00 Build 0)  -->
<!DOCTYPE svg PUBLIC "-//W3C//DTD SVG 1.1//EN" "http://www.w3.org/Graphics/SVG/1.1/DTD/svg11.dtd">
<svg version="1.1" id="flute2" xmlns="http://www.w3.org/2000/svg" xmlns:xlink="http://www.w3.org/1999/xlink" x="0px" y="0px"
	 viewBox="0 0 689.3 620.3" enable-background="new 0 0 689.3 620.3" xml:space="preserve">
<path fill="#FDFDFD" d="M345,621.1c-113.6,0-227.3,0-340.9,0.1c-2.8,0-3.4-0.6-3.4-3.4c0.1-204.5,0.1-409.1,0-613.6
	c0-2.8,0.6-3.4,3.4-3.4c227.5,0.1,455.1,0.1,682.6,0c2.8,0,3.4,0.6,3.4,3.4c-0.1,204.5-0.1,409.1,0,613.6c0,2.8-0.6,3.4-3.4,3.4
	C572.8,621.1,458.9,621.1,345,621.1z"/>
<path d="M282.3,527.3c-7.6,5.7-16.1,10.2-25.3,11.5c-17.6,2.6-34.5-4-37.5-25.9c-2.4-17.6,4.8-31.6,15.6-44.4
	c1.1-1.3,3.3-2.9,2.6-4.1c-1.2-2.1-3.5-3.5-6.1-3.9c-1.8-0.3-3.3-0.4-3.6,2.3c-0.3,3.3-3.5,5.5-4.1,8.9c-0.4,1.9-9.2,4.8-11.6,4.3
	c-3.3-0.7-6.2-4.1-6.9-8c-2.1-13.4,8.5-24,21.8-21.9c6.5,1,12.6,3.2,17.6,7.6c1.7,1.5,3.3,1.8,5.2,0.6c4.6-3,9.9-3.9,15.3-4.1
	c8.6-0.3,15.1,4.2,20.1,10.3c7.6,9.2,10.7,19.9,6.8,31.8c-1.6,5.1-4.7,9-9,12c-0.6,0.4-2.1,0.5-1.5,2c0.6,1.6,1.7,0.9,2.8,0.7
	c4-0.9,7.7-2.8,11.9-3c7.2-0.4,14.3-0.2,21.1,2.6c13.3,5.4,24.3,13.5,32,25.8c2.8,4.5,4.5,9.7,4.4,14.8c-0.1,3.7-2.4,7.5-5.9,9.8
	c-8.9,5.8-18.7,5.5-28.5,4c-13.4-2.1-22.8-9.9-29.6-21.3c-2.4-4-4.8-8-7.2-12c-2.2-4-2.2-4-6.1-1.5c-2,1.3-4,2.6-5.9,3.9
	c-1,0.7-2.1,1-3-0.1c-1.1-1.3-0.3-2.4,0.7-3.2c2.7-2.2,6-3.5,9.3-6.1c-2.1,0-3.3,0.9-4.5,1.6c-1.2,0.7-2.3,1.5-3.6,1.9
	c-1.1,0.4-2.3,0.5-2.9-0.8c-0.5-1.1,0.2-1.9,1-2.6c1.9-1.4,4.2-2.2,6.2-3.4c0.6-0.4,1.5-0.8,1.1-1.7c-0.4-0.9-1.3-0.7-2-0.5
	c-2.9,0.8-5.7,1.7-8.7,2.2c-14.5,2.5-25.7-7.1-24.6-21c0.3-3.2,1.1-6.4,2.4-9.4c1-2.3,2.1-4.5,3.4-6.7c2-3.5,1.3-6.3-2-8.5
	c-1.3-0.9-2.1-0.3-2.8,0.7c-1.7,2.1-3.2,4.4-5,6.6c-0.9,1.1-1.8,2.9-3.6,1.6c-1.9-1.4-0.5-3,0.4-4.2c1-1.4,2.3-2.7,3.3-4.1
	c1-1.3,2.1-2.5,3.5-4.6c-9.5,11.2-17.1,22.3-17.1,36.8c0.1,3.2-0.3,6.3,0.4,9.4c2.4,10.7,8.3,18.4,19.4,20.8
	c5.8,1.3,11.8,1,17.7-0.6c6.4-1.7,12.3-4.6,17.9-8.2C279.5,524.9,281.6,523.6,282.3,527.3z"/>
<path d="M88,261.8c-4.7,8.5-9.6,16.5-13.5,24.9c-1.2,2.5-0.4,5.7-3.9,7c-0.7,0.3-0.3,1.6-0.2,2.5c0.6,3.8,1.4,7.6,1.7,11.5
	c0.3,4.7-2.3,7.6-6.9,8.2c-4.2,0.5-8.3-0.2-11.9-2.5c-6.8-4.1-7.2-10.8-1.2-16.9c1-1,2.1-1.8,3.3-2.8c-2.2-1.7-4.8-2.7-6.6-4.7
	c-4.3-4.9-3.1-10.5,3-12.9c1.3-0.5,2.6-1,4-1c7.3-0.3,12-4.8,16.3-10c1.9-2.3,3.7-4.7,5.6-7c2.9-3.8,2.9-5.4,0-9.5
	c-6-8.1-12.2-16.1-16.7-25.3c-1.1-2.4-2.2-4.8-2-7.5c0.2-4.3,3.5-6.8,7.7-5.6c0.9,0.3,2.1,0.5,2.7,1.2c5.6,6.3,14.6,9.4,17,18.8
	c0.5,1.8,2.5,4.1,4.9,5.2c1.9,0.9,3.5,2.6,3.2,4.6c-0.4,2.9,1.5,4.5,2.8,6.5c8.9,13.7,21.1,24.6,31.2,37.3
	c8.2,10.4,12,22.6,15.6,34.9c4.1,13.9,7.7,27.9,11.5,41.8c0.5,1.9,1.2,2.9,3.6,3.3c19.7,3,24.2,21.4,17.2,34.7
	c-1.1,2.1-0.8,3.2,0.7,4.8c3.6,3.7,7,7.4,10.3,11.4c8.5,10.2,10.1,15.9-0.1,30c-2.4,3.4-5.6,6.1-9.8,7.2c-4.1,1.1-8-0.8-9.9-4.6
	c-5.4-11.2-12.2-21.7-18.2-32.7c-0.9-1.6-2.2-1.9-3.6-2.3c-6.4-1.8-11.9-5.2-15.9-10.6c-6.3-8.5-5.5-18.7,2.5-27.6
	c1.8-2,1.9-3.5,1.3-5.9c-5.7-21.2-11.2-42.4-16.7-63.6c-0.8-3-2.1-5.6-3.6-8.2C106.5,284.1,96.9,273.6,88,261.8z"/>
<path fill="#000100" d="M540,150.5c3.5,1.4,6.1,2.9,8.7,4.6c4.7,3.1,6.8,7.8,8.9,12.5c1.2,2.7-1.8,7.5-5.4,9.3
	c-5.4,2.8-10.3,1.8-15.1-1.6c-5-3.5-7.4-8.5-9-14c-1.9-6.6-0.4-9.3,6.4-11.9c-14.4-3.3-26.2-10.5-35.2-21.8
	c-8.4-10.4-14.3-22.1-16-35.6c-0.4-3.3-0.4-6.7-0.8-10.1c-1-9,2.6-17,5.3-25.2c0.3-0.9,1-1.8,1.7-2.4c7.7-6.3,16.1-11.3,26.2-12.6
	c11.7-1.6,20.5,3.8,27.9,12c6.2,6.9,10,15.3,11.8,24.3c2,10.2,1.5,20.6-4.1,29.9c-1.7,2.8-1,3.6,1.7,5.1
	c18.2,10.3,35.1-4.4,37.1-19.9c1.7-13.3,1.3-26-2.1-38.9c-0.5-1.9-1.5-4.2,1.4-5.4c2.9-1.2,4.5,0.5,5.9,2.5c4.8,6.9,6.4,15.1,9,22.9
	c4.3,13,5,26.3,2.9,39.5c-1.5,9.4-4.6,18.7-9.5,27c-2.4,4.1-7.2,4.8-11.3,6c-3.7,1-7.6,1.3-11.4,2
	C563.5,151.2,552.1,150.4,540,150.5z"/>
<path fill="#000001" d="M489.4,406.2c-11.5,0-11.4,0.1-13.9,9.8c-4.3,16.6-15.3,27.1-31.2,32.4c-14.6,4.9-25.2-7.8-24.8-19.6
	c1-25,21.1-47.5,49.9-48.2c14.7-0.3,29.1,2.1,43.5,4.4c7.1,1.1,14.3,1.8,21.4,3.4c3.2,0.7,6.3,1.7,9.1,3.3c4,2.3,5.3,4.4,3.5,8.6
	c-3.2,7.6-2.7,15.7-3.7,23.5c-1,8-1.3,16.2-3.5,24c-1.7,6.1-3.1,6.6-9.2,4.7c-10.2-3.2-20-1.7-29.3,3c-3.7,1.9-5.6,4.8-5.6,9.3
	c0,6.8-1.4,13.5-3.4,20.1c-2.6,8.6-9,13.5-16.8,16.9c-3.9,1.7-7.6,0.7-11-1.5c-8.1-5.2-11.9-15.3-9.5-26.1
	c2.9-13.4,10.3-24.2,21.3-32c6.4-4.6,14.3-7.3,21.8-10.1c5.4-2,8.2-5,8.3-10.8c0.1-3.5,1-6.9,1.6-10.3c0.3-1.8,0.2-2.7-1.9-3
	C499.9,407.1,494,406.3,489.4,406.2z"/>
<path d="M355.7,264.3c4.3,0.2,8.3,1.1,12.2,2.3c1.1,0.3,2.4,1.1,3.1-0.7c3.3-8,7.4-15.8,8.5-24.6c0.6-4.2-0.2-5.5-4.4-6.2
	c-4.4-0.8-8.9-1-12.9-3.3c-2.2-1.3-3.2,0.9-4.1,2.6c-2.5,4.6-3.5,9.8-5.4,14.7c-4.7,11.8-13.5,18.4-25.6,21.3
	c-1.9,0.5-3.8,1-5.7,1.6c-8.5,2.8-16.1-2.7-17-12.1c-0.6-6.8,0.8-13.1,4.2-19c2.1-3.6,6.4-4.1,9.2-6.8c4.2-4.1,9.3-4.3,14.7-2.5
	c0.7,0.2,1.4,0.4,2.2,0.6c9.3,2.9,10.6,2.2,14.1-7.3c3.7-10,5.9-20.3,8.4-30.6c0.7-2.7,1.9-3.2,4.2-2.3c4.2,1.6,8.4,3.1,12.6,4.7
	c7.4,2.9,14.7,6.1,22.5,8.2c5.8,1.6,6.5,2.6,5.7,8c-3.6,23.6-7.2,47.3-14.8,70.1c-3.7,10.9-9.2,20.8-19.6,27
	c-15.9,9.4-31.1,1.9-36.2-14.5c-2.2-6.9-2-13.8,2.1-20.1C338.8,267.3,346.8,264.8,355.7,264.3z"/>
<path fill="#FE005F" d="M221.4,504c0-11.6,5.1-21.1,11.9-30c1.7-2.3,3.5-4.5,5.3-6.8c0.4-0.5,0.9-1.4,1.8-0.6c0.8,0.7,0.3,1.4-0.1,2
	c-2.4,3-4.9,6-7.3,9c-0.6,0.7-2.1,1.5-0.6,2.7c1.6,1.2,1.9-0.5,2.5-1.2c2.1-2.7,4.1-5.4,6-8.1c1.1-1.6,1.9-1.8,3.4-0.1
	c4.8,5.5,4.7,5.4,1.3,11.6c-3.1,5.7-5.5,11.8-4.7,18.5c1.4,11.1,11.3,17.8,23,15.7c2.7-0.5,5.3-1.3,8-2c1.8-0.5,3.9-2.2,5,0.8
	c1,2.7-1.8,2.4-3,3.2c-1.7,1.1-3.6,1.8-5.3,2.7c-1,0.5-1.8,0.9-1,2.2c0.8,1.3,1.5,0.3,2.1-0.1c2.4-1.3,4.8-2.7,7.2-4
	c0.9-0.5,1.7-0.9,2.5,0.4c0.9,1.5-0.4,1.6-1.1,2.1c-3,1.8-5.9,3.7-8.9,5.5c-0.9,0.6-1.7,1-0.8,2.3c0.9,1.2,1.5,0.2,2.1-0.2
	c2.1-1.4,4.1-2.8,6.2-4.2c4.6-3.1,4.6-3.1,6.3,2.4c-0.2-0.1-0.4-0.3-0.6-0.4c-0.8-2.4-2.1-1.7-3.6-0.7c-5.8,4-12,7.2-18.9,8.7
	c-12,2.7-23.4,2.3-32.1-8.1c-3.1-3.7-5.1-8.1-5.7-13C221.2,510.8,222.1,507.4,221.4,504z"/>
<path fill="#010100" d="M359.1,122.3c-3.9,6.5-7,12.3-4.8,19.8c1.9,6.4,6.2,11.1,10.7,15.4c2.7,2.6,0.5,3.5-0.8,4.4
	c-2.3,1.6-5.1,1.6-7.5,0.4c-12.4-5.9-23.8-16.1-18-32.9c0.6-1.6,0.8-3.4,1.4-5c1.3-3.7,1.3-6.9-2.3-9.6c-2.6-2-2.1-4.6-0.1-6.8
	c2.2-2.5,5.1-3.5,8.3-3.9c9.7-1.5,19.5-0.1,29.2,0.4c5.7,0.3,11.5,0.6,17.2,1.1c2.3,0.2,3.1-0.6,3.3-2.7c0.2-2.4,0.8-4.7,0.9-7.1
	c0.2-9,5.6-15.6,11.7-20.5c5.3-4.3,12.8-5.8,20.2-5.1c6.5,0.6,11.2,4.3,14.3,9.6c12.1,20.2,7.4,37.7-11.8,50.6
	c-8.3,5.6-17.8,4-26.7,0.8c-6.8-2.5-13.6-4.1-20.7-4.6c-7.2-0.4-10.7,2.4-10.1,10.3c0.3,4.2,2,8.1,5.6,11c1.6,1.3,4.9,2.5,3.2,5.7
	c-1.6,3-4.5,3.5-7.5,2.5c-8.8-2.8-15-8.7-18.5-17.2c-1.7-4.1,0.8-7.7,2.3-11.4C359.1,126.2,360.5,124.8,359.1,122.3z"/>
<path fill="#010101" d="M414.1,540.9c-7.5,0.4-12.4-5.9-14.3-14.6c-1.2-5.3-0.2-10.5,2.2-15.3c1.8-3.6,2.9-7.4,4.7-10.9
	c0.7-1.4,0.6-1.8-0.9-2.3c-3-0.9-6-1.6-9.1-1.8c-3.1-0.2-5.6,1.1-7.4,3.6c-1,1.5-1.9,3.2-2.7,4.9c-1.6,3.3-1.8,5.6,2.1,8.1
	c9.7,6.4,10,19.1,1.2,26.9c-4.9,4.3-10,8.1-16.7,4.6c-7.3-3.8-9.8-10.7-9.5-18.5c0.3-6.9,3.5-13,6.9-18.8
	c7.7-13.1,17.1-25.1,25.1-38.1c1.3-2,2.9-2.6,5.1-1.9c9.7,3.4,19.7,5.6,29.4,8.6c3.6,1.1,3.7,2.8,0.6,6.5
	c-5.9,7.2-10.1,15.4-13.2,24.1c-0.9,2.5-0.4,3.7,1.9,5c4.1,2.3,7.2,5.7,8.8,10.2C431.9,531.3,424.9,541,414.1,540.9z"/>
<path fill="#010101" d="M450.8,342.5c-0.3-3.9,0.8-7.9,4.5-10.7c1.9-1.4,1.8-2.6,0-4.1c-8.2-7.1-16.4-14.1-24.5-21.3
	c-3.8-3.4-7.8-6.7-10.2-11.3c-2-3.8-1.2-5.3,3-5.6c4.1-0.3,7.8-1.8,11.4-3.4c5.7-2.4,7.2-8.4,3.8-13.7c-1.1-1.7-2.5-3.1-3.8-4.6
	c-0.5-0.6-1-1.2-0.7-2c0.4-1,1.3-1,2.2-1c0.4,0,0.7,0.1,1.1,0.2c8.7,2.9,14.6,8.8,18.1,17.1c1.4,3.3-0.2,6.1-2.4,8.5
	c-2.5,2.8-5,5.6-7.5,8.3c-1.6,1.7-1.3,2.7,0.6,4.1c8.2,6.1,16.9,11.5,25.5,17c7.1,4.6,13.9,9.6,18.8,16.7
	c8.1,11.7-2.9,29.5-15.3,30.5C462.7,368.3,450.4,357.4,450.8,342.5z"/>
<path fill="#020402" d="M512.6,168.2c-12.3-0.5-23.6-14.6-16.9-26.5c1.2-2.2,2.6-3.3,5.2-3.1c7.3,0.7,13.7,3.6,19,8.6
	c6.8,6.6,4.3,14.6-2.5,19.7C515.9,168.1,514.1,168.3,512.6,168.2z"/>
<path fill="#FE005F" d="M278.2,504.9c3.9,4.9,7.8,9.7,11.7,14.6c0.5,0.7,0.8,1.5,1.1,2.3c2.4,1.2,3.9,3.6,6.2,4.9
	c5.3,4.8,10.7,9.4,18.2,10.4c2.9,0.4,5.6,0.6,6.1-4.2c1.6,2.3,2.8,4,3.9,5.6c0.4,0.6,0.9,1,1.5,0.5c0.4-0.3,0.5-0.8,0.2-1.3
	c-6.7-10-13.2-20.2-26.5-22.6c-3.2-0.6-6.5-0.3-9.6,0.5c-1,0.3-1.9,0.2-2.2-0.8c-0.4-1.3,1-1.1,1.7-1.5c1.8-1.1,5.7-0.8,5.2-3.2
	c-0.3-1.5-3.8,0.9-5.9,1.2c-0.5,0.1-1,0.2-1.4,0.4c-1.3,0.5-2.6,0.5-3.1-1c-0.7-2,1.3-1.5,2.1-1.8c10-3.9,20.1-3.2,30,0.4
	c12.7,4.6,23,12.5,30.1,24.1c3.3,5.5,5.6,11.5,2.4,18c-1.8,3.6-5.1,5.5-8.4,6.3c-11.4,2.7-22.7,2.8-33.3-3.1
	c-8.2-4.6-13.7-11.7-18.1-19.9c-1.1-2-2.2-4-3-6c-0.4-0.9-2.4-2.3,0.5-3.1c1.2-0.3-0.1-1.7-0.5-2.5c-3.1-5.7-6.3-11.4-9.4-17
	C277,505.4,277,504.9,278.2,504.9z"/>
<path fill="#FD005E" d="M274.2,493.6c1.1,2.1,2.1,1.5,3.3,0.1c3.3-4,3.7-10.8-0.4-15.6c-2.5-3-2.9-7.4-7-9.4
	c-4.3-2.2-8.7-3.4-13.3-2.5c-2.4,0.5-3.3-0.8-3.9-2.4c-0.8-2.3,1.6-2.2,2.7-2.6c10.1-3.7,21.3,2.3,25.6,13.6
	c3,7.8,2.7,15.3-1.4,22.7c-0.5,0.8-1.9,2.1-0.7,2.8c1.7,1,1.8-1.2,2.4-2.1c8.1-13.5,2.4-32.5-11.8-38.9c-5.6-2.5-11.1-2.1-16.7,0
	c-1.2,0.5-2.5,1.6-3.4-0.4c-1-2.3,1.2-2.1,2.2-2.6c20.5-11.1,38.9,5.5,40.1,25.2c0.5,8.8-2.4,16.2-9.7,21.4c-0.8,0.6-1.6,2-2.7,0.4
	c-4.1-6-9.1-11.5-12-18.3C271,486.8,272.8,490,274.2,493.6z"/>
<path fill="#FDFDFD" d="M260.5,514.8c-14.1-0.2-21.1-11.6-15.6-25.4c1.2-3,2.7-5.9,4.6-8.5c0.9-1.2,1.5-1.8,2.7-0.3
	c4.4,5.6,8.9,11.1,13.3,16.6c0.4,0.5,1.1,0.9,0.6,1.6c-0.5,0.7-1.3,0.6-2,0.2c-2.7-1.5-5.6-1-8.4-1.2c-1.7-0.1-3.1,0.4-3.7,2
	c-0.6,1.6,0.2,2.9,1.5,3.9c4.1,3.4,9.3,3.9,14.3,5c2.2,0.5,5.9-0.6,6,2.1c0.1,2.2-3.7,2.4-6,3C265.5,514.5,263,514.9,260.5,514.8z"
	/>
<path fill="#FD005E" d="M249.8,465.1c-4.5-3.9-8.7-8.2-14.3-10.7c-2.5-1.1-2.6-1.2-2.9,1.6c-0.1,1.3-1,0.9-1.5,1
	c-4.1,1-7.9,2.3-10.7,5.9c-2,2.5-4.4,4.7-2,8.1c0.9,1.2-0.2,1.5-0.9,1.9c-3.7,2.4-7.9,0.6-9.4-3.9c-3-9.3,5.3-21.2,15-21
	c12.1,0.2,21.6,5.3,27.5,16.3C250.8,465,250.5,465.2,249.8,465.1z"/>
<path fill="#FDFDFD" d="M274.2,493.6c-2.3-2.8-4.5-5.7-6.8-8.6c-2.2-3.1-4.5-6.2-6.7-9.3c-1.9-2.7-1.6-3.4,1.8-3.8
	c5-0.5,10.6,2.8,13.3,8C278.5,484.9,278.1,488.8,274.2,493.6z"/>
<path fill="#FAFAFA" d="M295.3,521.7c9.1,0.3,16.8,3.8,23,10.5c0.6,0.6,1.6,1.5,0.8,2.6c-0.7,1-1.8,0.7-2.8,0.5
	c-2.7-0.4-5.3-1.2-7.8-2.5C303.5,530,299.2,526.2,295.3,521.7z"/>
<path fill="#CE004B" d="M271.8,501.5c-8.2-12.3-16.6-24.5-26.7-36.2C250.9,468,268.5,491.8,271.8,501.5z"/>
<path fill="#EB0259" d="M316.5,527.6c-5.5-3.7-10.6-6.6-16.6-7.4c-2.1-0.3-4.2-0.4-6.3-0.6c-0.8-0.1-1.5-0.4-1.4-1.3
	c0-0.7,0.7-0.5,1.1-0.6C301.1,515.8,311.5,520,316.5,527.6z"/>
<path fill="#E50155" d="M255.1,499.9c2.3,0.1,4.4-0.8,6.2,1.4c1.2,1.3,2.8,0,4.2-0.2c1.4-0.1,2.6-0.5,3.5,1.1c0.8,1.3,0.5,2-0.9,2.4
	C264.4,505.7,257.8,503.5,255.1,499.9z"/>
<path fill="#DF0052" d="M267.3,470c-3.2,0.3-5.6-0.1-7.8,1c-1,0.5-2,0.3-2.5-0.8c-0.3-0.5-0.8-1.3-0.6-1.6c0.6-1.1,1.7-0.6,2.7-0.6
	C261.6,467.9,264.2,468,267.3,470z"/>
<path fill="#DF0052" d="M224.8,462.4c-0.4,2.7-1.4,4.4-2.7,5.9c-0.5,0.6-0.9,1.4-1.7,1c-1-0.5-0.7-1.5-0.5-2.3
	C220.7,464.9,222.3,463.7,224.8,462.4z"/>
<path fill="#C4C4C4" d="M297.3,526.7c-2.7-0.8-4.7-2.6-6.2-4.9C294.2,522,295.2,525.1,297.3,526.7z"/>
<path fill="#88002F" d="M278.2,504.9c-0.7,0.2-0.5,0.9-0.6,1.4c-1.6-1.5-2-3.5-2.9-5.4C276.5,501.7,277.3,503.4,278.2,504.9z"/>
<path fill="#A6003B" d="M249.8,465.1c0.3-0.3,0.6-0.6,0.9-0.9c1.2,1.7,2.5,3.4,3.7,5.1c-0.2,0.2-0.5,0.4-0.7,0.6
	C252.5,468.1,250.6,467.2,249.8,465.1z"/>
<path fill="#B4B4B4" d="M221.4,504c1.5,3.3,0.2,6.8,0.5,10.2C221,510.8,221.1,507.4,221.4,504z"/>
<path fill="#990036" d="M238.7,462.1c-1.1-0.8-2.3-1.7-3.8-2.8C237.4,458.9,238.2,460.2,238.7,462.1z"/>
<path fill="#FEFEFE" d="M84.8,256.6c1.3-0.2,2.3-0.6,3.3-1.7c3.8-4.4,7.6-4.4,11.5-0.1c6.9,7.6,13.5,15.4,20.5,22.7
	c10.9,11.4,17.3,25.1,21.5,40.1c4.1,14.6,8.2,29.3,12.3,43.9c0.4,1.3,0.9,2.2-1.2,2.6c-5.6,0.9-10.7,3.2-15.9,5.9
	c-3.9-14.1-7.7-28-11.5-42c-2.6-9.5-5-19-7.7-28.5c-1.2-4.1-3.9-7.5-6.3-11c-6.2-9.2-13.7-17.4-20.5-26.1c-0.8-1.1-1.6-2.2-2.4-3.3
	c-0.6-1-1.6-0.5-2.4-0.6C84.9,258.3,84,258.1,84.8,256.6z"/>
<path fill="#FEFEFE" d="M155.8,366.3c7.8,0.3,14.5,2.8,18.6,9.8c4.3,7.4,3.8,15-0.1,22.5c-0.3,0.7-0.3,1.7-1.7,1.6
	c-9.4-0.6-17.4,3.1-24.5,9c-0.6,0.5-1,0.9-1.9,0.8c-10.5-1-20.3-13.6-17.9-23.8c2.1-9,7.8-15.2,16.9-17.7
	C148.7,367.4,152.1,366.1,155.8,366.3z"/>
<path fill="#FEFEFE" d="M167.3,440.9c-5.7-9.7-11.1-18.9-16.7-28.1c-0.9-1.5-0.4-2.2,0.7-3.1c5.6-4.6,12.2-7.1,19.4-8.1
	c0.8-0.1,1.4,0,2,0.7c5.6,6.5,12.2,12.1,17,19.7C179,424.4,172.2,431.2,167.3,440.9z"/>
<path fill="#FCFCFC" d="M76.7,274.8c-1.6,3.1-3.2,6.2-4.7,9.4c-0.7,1.4-2.2,2.7-0.3,4.5c0.6,0.6,0.1,1.5-0.9,2
	c-0.7,0.4-1.1,1.3-2.2,0.6c-0.7-0.5-1.6-0.8-2.3-1.3c-0.6-0.5-1.2-1-1.9-0.2c-0.5,0.6,0,1.1,0.5,1.6c4.6,4.7,3.9,11,4.4,16.7
	c0.1,1.5-2.1,4.4-4.4,5.3c-4,1.5-11.4-1.1-13.8-4.8c-1.7-2.5-1.6-5.2,0.2-7.7c3.9-5.4,9.4-9.3,14.2-13.7c2.9-2.6,5.3-5.3,7.2-8.6
	c0.9-1.6,1.9-3.2,2.9-4.8C76.5,273.7,76.9,274,76.7,274.8z"/>
<path fill="#FEFEFE" d="M191.9,430.2c-1.5,7.2-5.2,14.3-12.7,18.8c-2.7,1.6-5.8,1.9-8.3-0.6c-2.3-2.3-2.1-5.4-0.9-7.9
	c3.4-7.4,8.8-12.9,16.6-15.8C190.6,423.4,192,424.6,191.9,430.2z"/>
<path fill="#FBFBFB" d="M85.8,246c-4.1,3-5.4,2.8-7.6-0.9c-0.2-0.3-0.6-0.8-0.6-0.9c2.7-4.1-1.9-5.1-3.3-7.1
	c-2.6-3.6-4.9-7.2-5.5-11.7c-0.4-3.5,1.2-5.1,4.7-5c5,0.1,7.4,3.4,9.8,7.6c-2.1-0.6-3.9-1.4-5.8-1.7c-2.8-0.4-4.2,1.3-3.1,3.8
	c1.3,3,3.4,5.3,7.1,5.5c3.1,0.1,6.2,0.5,9,2.1c1.5,0.9,2.4,2.2,2.2,4c-0.3,2-2,1.3-3.3,1.5c-1.4,0.2-2.7,0.4-4.1,0.7
	c-0.7,0.1-1.7-0.1-1.7,0.9C83.7,245.8,85.1,245.2,85.8,246z"/>
<path fill="#FCFCFC" d="M77.4,264.2c-1.6,3.4-4.5,6-4.9,10.1c-0.2,1.6-1.7,3.4-3.4,0.6c-0.4-0.6-0.7-1.5-1.7-0.9
	c-0.9,0.6-0.4,1.1-0.1,1.8c1.8,3.4,1.3,6.4-1.7,8.6c-1.8,1.3-3.4,2.9-4.9,4.6c-1.2,1.3-2.4,3-4.6,1.7c-3.4-1.9-7.2-3.4-7.4-8.1
	c-0.1-2.6,1.9-4,4-4.9c2.1-0.9,4.3-1.5,6.6-1.2c2.4,0.3,4.1-0.6,5.8-2c4.2-3.4,8.7-6.5,11.4-11.4C77.3,263.2,77.6,263.4,77.4,264.2z
	"/>
<path fill="#FAFAFA" d="M67.4,229.8c-2.9-4.4-5.3-8.2-6.2-12.6c-0.8-3.8,1.8-6,5.6-4.8c2.8,0.9,5,2.7,6.7,5.7
	c-2.6,0.5-5.2,0.4-6.2,3.6C66.4,224.2,67.3,226.5,67.4,229.8z"/>
<path fill="#C4C4C4" d="M76.7,274.8c-0.3-0.3-0.6-0.7-0.9-1c3-5.7,6-11.5,9-17.2c0.2,2.3,3.1,0.6,3.6,2.4c-2.3-0.7-3.5,0.3-4.5,2.4
	C81.7,265.9,79.1,270.3,76.7,274.8z"/>
<path fill="#D9D9D9" d="M85.7,233.4c-3.8-0.5-7.2,0.5-8.9-3.1c-0.3-0.5-0.6-1.3-0.4-1.7c0.5-0.8,1.3-0.3,2-0.1
	C81,229.4,83.1,230.9,85.7,233.4z"/>
<path fill="#C0C0C0" d="M77.4,264.2c-0.3-0.3-0.6-0.6-0.9-0.9c1.7-2.5,3.4-5,5.2-7.5c0.3,0.2,0.5,0.3,0.8,0.5
	C81.2,259.1,79.5,261.8,77.4,264.2z"/>
<path fill="#5CFE53" d="M523.1,44.1c8,0.7,14,5.3,18.8,11.1c9.5,11.3,13.5,24.6,11.7,39.3c-0.7,5.8-2.2,11.5-6.5,16
	c-1.4,1.4-0.4,1.7,0.7,2.3c3.2,1.6,6.5,3.2,9.9,4.4c1.6,0.5,3.9,0.3,4.5,2.7c0.1,0.4,0.7,0.6,1.3,0.4c3.9-1.4,8.2-0.3,12.2-1.6
	c6.6-2.1,10.5-7,13.3-12.9c4.3-9,5.7-18.8,7.5-28.4c0.3-1.9-1.3-2.5-1.6-3.9c-1.5-6.7-3-13.4-4.5-20.1c-0.2-0.7-0.7-1.5,0.2-2
	c1.1-0.6,1.6,0.4,2.1,1c1.8,2.1,3,4.6,3.9,7.2c5.7,15.3,10.4,30.7,8.7,47.4c-0.9,9-3.6,17.6-7.4,25.7c-2.4,5.2-7.4,6.9-12.5,8
	c-13.2,2.7-26.3,2.2-39.4-0.6c-17.9-3.9-32.2-13.3-42.2-28.7c-11.6-17.9-13.7-37.3-8.5-57.8c0.2-0.9,0.6-1.6,1.4-2.1
	c5.9-3.3,11.6-6.9,18.5-7.6C517.9,43.9,520.5,43.7,523.1,44.1z"/>
<path fill="#5BFD52" d="M584,144.9c-13.5,3.1-27,4.5-40.6,1.1c-12.1-3-23.5-7.4-33.4-15.3c-8.9-7-15-16-19.2-26.3
	c-3.4-8.4-5.4-17.2-5.7-26.2c-0.3-7.3,2-14.3,4.8-21c0.5-1.1,1.4-2,3.2-2.8c-0.9,4.8-1.9,9.2-2.1,13.7c-1.3,20.3,4.3,38.2,18,53.4
	c14.6,16.2,33.5,22.3,54.5,23.3c7.8,0.4,15.5-0.1,23.1-1.6C586.7,145.3,584.6,143.8,584,144.9z"/>
<path fill="#5BFE53" d="M532.2,152.8c3.8-1.4,7.4-0.4,10.8,1.3c4.1,2.1,7.5,5.1,9.9,8.9c1.6,2.4,4.5,4.7,1.7,8.2
	c-2.9,3.8-6.9,5.6-11,4.6c-2.7-0.6-4.8-2.2-6.7-4c-4.1-3.9-6.7-8.6-7.1-14.4C530,155.7,531.4,154.4,532.2,152.8z"/>
<path fill="#50E149" d="M502.5,126.9c10.5,10.7,23.6,16.7,37.8,20.7c-15.7-1.1-28.3-8.3-38.5-20
	C501.6,126.8,501.9,126.7,502.5,126.9z"/>
<path fill="#A8BBA7" d="M584,144.9c0.4-1.3,2.1-0.5,2.6-1.7c1.3-0.4,2.6-0.8,3.9-1.3c1.2-0.4,2.4-0.9,3.8-1
	C591.3,143.3,588,144.8,584,144.9z"/>
<path fill="#256722" d="M502.5,126.9c-0.2,0.2-0.5,0.5-0.7,0.7c-2.1-1.2-3.3-3.2-3.7-5.9C499.5,123.4,501,125.1,502.5,126.9z"/>
<path fill="#DCDCDC" d="M532.2,152.8c0.4,2.2-1.7,3.1-2.4,4.7C529.3,155.3,530.3,153.8,532.2,152.8z"/>
<path fill="#B5B5B5" d="M523.1,44.1c-2.6,0.1-5.2,0.4-7.8-0.2C517.9,43.2,520.5,42.9,523.1,44.1z"/>
<path fill="#2700FE" d="M425.1,439.6c-5.6-8.3-3-16.7-0.5-25.1c0.8-2.6,2.4-4.9,3.7-7.4c1.6-3.2,4.5-5,7.1-7.3
	c5.9-5.3,11.9-10.3,18.9-14c4.8-2.5,10.4-2.5,15.7-3c0.5,0,1.3,0.1,1.4,0.3c0.5,4.6,4,2.3,6,2.2c14.6-1.2,28.9,0.9,43.3,2.8
	c7,0.9,13.8,2.6,20.4,4.8c3.7,1.2,4.9,2.9,3.6,6.6c-3.1,8.9-2.8,18.2-3.9,27.3c-0.8,6.7-1.4,13.5-2.9,20.1c-1.1,4.9-2.2,5-6.8,3.6
	c-11.4-3.4-22.4-2.1-32.7,4.3c-4.5,2.8-5.5,7.5-5.7,12.4c-0.3,5.7-0.6,11.5-2.4,17c-2.1,6.4-6.4,10.8-12.2,14.1
	c-2,1.1-3.5,0.8-5-0.5c-6-4.9-7.3-11.3-6-18.6c0.9-5.3,2.8-10.3,4.9-15.3c0.3-0.8,1.1-1.7-0.1-2.2c-1.2-0.5-1.3,0.7-1.6,1.5
	c-2.6,5.9-5,12-5.7,18.5c-0.9,7.2,1.5,13.2,7.2,18.3c-2.5,0.8-4.2-0.1-5.8-1.1c-6.3-4.1-9.6-9.9-9.8-17.5c-0.2-9.6,3.6-17.6,9.4-25
	c-1.7,4.3-3.4,8.6-5,12.9c-0.4,1-1.8,2.4,0.3,3c2,0.6,1.7-1.5,2-2.4c2.2-5.6,4.2-11.2,7.2-16.4c3.7-6.4,8.7-11.3,15.7-13.8
	c5.1-1.8,9.8-4.2,14.7-6.3c1.6-0.7,3.2-1.5,4.4,0.7c1.3,2.3-0.9,2.5-1.9,3.3c-2.8,2.4-6.4,3.2-9.9,4.2c-1.3,0.4-2.7,0.4-3.7,1.3
	c0.2,1.1,0.9,1.1,1.7,1c6.6-0.8,12.3-3.9,17.5-7.6c1.7-1.2,2-4.3,2.9-6.6c2.4-6.2,3.1-12.8,4.4-19.3c0.5-2.2-1.1-3.6-3-3.9
	c-11.1-1.9-22.1-4.2-33.5-2.5c-2.3,0.3-3.6,1.1-4.2,3.5c-0.6,2.7-1.7,5.2-2.3,7.9c-3.9,15.6-14.3,24.9-28.9,30.4
	c-3.2,1.2-5.4,0.4-7.5-2.1c-7-8.6-7-17.8-2.8-27.4c2.9-6.6,7.1-12.3,12.2-17.4c0.5-0.5,1.4-1,0.8-1.8c-0.7-0.9-1.3-0.2-1.8,0.3
	c-8,7.9-14.4,16.7-16,28.1c-1.1,7.6,0,11.1,5.9,20.3c-0.9,1-1.8,0.3-2.6,0C429.7,443.9,427.1,442.1,425.1,439.6z"/>
<path fill="#2400F0" d="M513.1,411.4c-1.1,5.7-1.6,11.9-3.8,17.8c-0.4,1-0.9,2-1.5,3c-0.6,1-1.4,0.7-2.2,0.2c-0.6-0.4-1-0.8-0.4-1.5
	c4.1-5.3,2.5-12,4.2-17.8c0.2-0.8,0.3-1.7,0.4-2.6c0.2-1.2,0.7-1.7,2-1.5C513,409.3,513.2,409.6,513.1,411.4z"/>
<path fill="#CDCDCD" d="M425.1,439.6c2.5,1.9,5.3,3.4,7.1,6.2C429.1,444.6,426.7,442.6,425.1,439.6z"/>
<path fill="#DF00FE" d="M387.1,276.2c-3.1,10.7-7.3,20.7-15.7,28.5c-1.2,1.1-2.3,3.4-4.8,1.1c-0.7-0.7-3.3,0.5-4.9,1
	c-11.2,3.4-23.3-2.9-26.6-13.8c-2.4-8,1.8-18.2,10.2-23.4c8.2-5.1,16.6-3.1,24.7,0.1c4.8,2,5.8,1.9,7.8-2.9
	c1.6-4.1,2.6-8.3,3.3-12.6c1-5.9,1.8-11.8,4.1-17.4c1.8-4.4,0.6-6.7-3.8-8.6c-5.7-2.4-11.8-3.1-17.7-4.4c-1.7-0.4-3.8,1.1-4.8,3.1
	c-2.2,4.4-4.3,8.8-6.8,13c-1.2,1.9,0.6,3.2,0,5.2c-3.9,12.7-12.4,20.1-24.9,23.4c-3.4,0.9-6.8,1.4-10.3,1.6c-3.5,0.2-6.2-1-8.3-4.9
	c6.5,3.4,12.6,3.3,18.9,1.8c0.9-0.2,2.8,0.1,2.5-1.5c-0.3-1.4-1.9-0.6-2.9-0.4c-2.3,0.5-4.7,0.9-7,0.9c-11.4,0-16.3-7.2-11.5-17.6
	c2.9-6.3,7.9-10.8,13.9-14.2c1-0.6,2.1-0.6,3.2-0.4c4.5,0.9,9.1,1.6,13.6,2.5c3.7,0.7,6.4,0.1,8.5-3.6c5.7-9.9,9.8-20.4,12.4-31.5
	c1.6-6.9,1.6-6.9,8.2-4.3c8.7,3.4,17.3,6.9,26,10.3c1.7,0.7,2.6,1.4,2.2,3.5c-3.8,19.3-6.6,38.9-11,58.1c-0.4,1.6-2.8,3.5,0,5.2
	C386.6,274.3,388,274.5,387.1,276.2z"/>
<path fill="#C300DD" d="M387.1,276.2c0-1.1-1-1.6-1.6-2.3c1.6-0.2,1.4-1.4,1.7-2.5c4-15.6,6.1-31.5,8.8-47.3
	c0.8-4.4,1.5-8.8,2.2-13.2c0.1-0.7,0-1.5,1.4-1.9c0.3,4.6-0.8,9-1.5,13.3C395.2,240.4,392.3,258.5,387.1,276.2z"/>
<path fill="#D600F4" d="M363.7,226.3c6,1.4,11.3,2,16.4,3.9c1.3,0.5,2.3,0.9,1.5,2.6c-0.7,1.5-1.6,1.6-3,0.9c-1.9-1-4-1.2-6.2-1.3
	c-3.2-0.1-6.2-0.8-8.9-2.5c-0.7-0.5-2.2-0.3-1.7-1.9C362.4,226.6,363.1,226.1,363.7,226.3z"/>
<path fill="#C504E0" d="M364.4,308.9c-8.2,5.6-21,3.8-27.2-6.7C344.8,309.6,353.9,311.3,364.4,308.9z"/>
<path fill="#A900C0" d="M377.8,256.2c-0.2,4.7-0.6,9.5-3.9,13.1c-0.4-0.1-0.7-0.3-1.1-0.4C374.4,264.6,376.1,260.4,377.8,256.2z"/>
<path fill="#670076" d="M338.6,272.8c-1.4,2.2-2.8,4.5-4.3,6.7C334.3,276.4,336,274.3,338.6,272.8z"/>
<path fill="#060002" d="M256.8,527.7c-9.4-1.5-17.7-5-23-13.6c-2.4-4-3.7-8.4-4.7-13c-0.2-0.9-1-2,0.7-2.3c1.5-0.2,1.5,0.9,1.8,1.9
	c0.3,1.1,0.6,2.2,0.8,3.3c2.3,10.8,8.9,17.5,19.2,21C253.6,525.5,255.7,525.5,256.8,527.7z"/>
<path fill="#0D0004" d="M223.4,501.5c0-0.6,0-1.2,0-1.9c0-0.6,0.1-1.4,1-1.2c0.3,0.1,0.7,0.7,0.8,1.1c0.5,2.9,0.9,5.9,1.3,8.9
	c0.4,2.7,0.7,5.4,1,8.1c0.1,0.9,0.2,1.8-1.1,1.9c-1.3,0.1-1.3-0.8-1.4-1.7C224.4,511.6,223.9,506.5,223.4,501.5z"/>
<path fill="#FEDB00" d="M362.3,159.4c-14.6,0.8-25.6-14.4-21.3-29.2c0.9-3.1,1.5-6.3,2.2-9.5c0.3-1.2,0.1-2.4-0.3-3.7
	c-0.4-1.3-3.2-1.9-1.7-3.5c1.8-1.9,3.5-4.3,6.6-4.5c4.2-0.3,8.2,0.4,12.3,0.7c7.3,0.6,14.6,1.6,22,2.3c3.1,0.3,6.2,0.5,9.3,0.4
	c6-0.1,6.7-0.6,7.8-6.4c1.8-9,4.3-17.7,11-24.5c10.7-10.8,26-6.3,31.2,6.9c3.6,9.1,1.5,17.8-2.7,26.3c-1.5,3-5.6,5.1-3.7,9.5
	c0.1,0.2-0.9,0.8-1.3,1.2c-6.6,5.9-14.3,7-22.7,5.2c-5.4-1.2-10.5-3-15.7-4.8c-5.2-1.8-10.8-1.9-16.3-1.8c-4.9,0-9,6-8.5,11
	c0.6,6.1,2.9,11.3,7.6,15.4c0.7,0.6,2,1.3,1.5,2.3c-0.5,1.3-2,0.8-3,0.8c-7.1-0.3-17.1-8.9-18.5-15.8c-0.5-2.4,0.5-4.4,1.4-6.5
	c0.9-2.3,2.4-4.4,2.8-6.9c0.3-2-0.5-3.5-2.3-4.2c-1.7-0.7-3.1,0.3-4.1,1.7c-7.9,10.8-5.9,23.1,2.6,32.6
	C360,156,362.1,157,362.3,159.4z"/>
<path fill="#EDCD00" d="M348.9,106.4c9.8-1.1,19.7-0.2,29.5,0.6c4.9,0.4,9.7,0.5,14.6,0.5c1.4,0,3.5-0.4,3.4,1.7
	c-0.1,1.8-2.2,1.2-3.4,1.3c-7.9,0.6-15.6-1-23.4-1.8C362.7,107.9,355.8,107.1,348.9,106.4z"/>
<path fill="#EACA00" d="M417,74.2c-2,2.6-5.4,3.2-7.7,5.5c-4.6,4.7-7.1,10.4-9.6,16.2c-1.8-0.2-0.8-1.4-0.7-2.2
	C399.8,85.1,409.1,75,417,74.2L417,74.2z"/>
<path fill="#BBA100" d="M442.5,83.3c7,11.7,5.8,27.2-2.9,35.6c6.2-11.3,8.7-22.9,2.2-34.9C442,83.7,442.2,83.4,442.5,83.3z"/>
<path fill="#DFC000" d="M442.5,83.3c-0.2,0.2-0.4,0.5-0.7,0.7c-3.7-5.3-8.4-8.9-14.9-10.3c-3.4-0.7-6.6,0.8-10,0.4c0,0,0,0.1,0,0.1
	C427.7,69.2,437.4,72.6,442.5,83.3z"/>
<path fill="#BCA204" d="M344.6,107.3c-1.8,1.5-3.6,3.1-5.4,4.6c-0.2-0.3-0.5-0.5-0.7-0.8C339.6,108.7,341.6,107.3,344.6,107.3z"/>
<path fill="#8A7600" d="M399,93.7c0.3,0.7-0.1,1.7,0.7,2.2c-0.3,1.5-0.6,3-0.9,4.5C398.3,98.1,397.8,95.8,399,93.7z"/>
<path fill="#FEAB79" d="M401.2,521.9c0.2-1.6,0.4-3.2,0.7-4.8c0.1-0.6,0.6-1.6,0.7-1.6c4.7,0.7,3.5-3.5,4.5-5.6
	c1.5-3,2.4-6.3,3.8-9.3c1.1-2.5,0.6-4-2.1-4.6c-3.3-0.7-6.5-1.6-9.8-2.2c-5.9-1-9.9,0.9-12.8,6.1c-1.1,2.1-2.1,4.3-2.8,6.5
	c-2.4,7-2.4,7,4.3,10.1c5.6,2.6,7.6,12.3,3.5,18.2c-2.4,3.5-5.6,6.4-9.8,7.8c-3.1,1.1-5.9,1.6-8.4-1.9c-1.6-2.3-4.2-3.7-5.6-6.6
	c-2.6-5.4-2.1-10.3-0.2-15.5c1.4-4,3.2-7.8,5.4-11.5c0.4-0.6,1-2.2,1.7-1.2c2.6,3.8,2.6,0,3-1.1c4-12.9,12.7-23,19.6-34.3
	c1.2-1.9,2.9-2,4.5-1.4c8.9,3.5,18.1,5.5,27.2,8c2.3,0.6,2,1.6,0.7,3.1c-6.6,7.7-11,16.6-14.4,26.1c-1,2.8-0.9,4.8,1.8,6.8
	c3.1,2.3,5.9,5,8.1,8.3c3.3,5,2,10.4-3.5,14.6c-4.8,3.6-8.8,3-12.9-2c-1.1-1.3-1.6-3.5-4.2-2.3c-0.5,0.2-0.7-0.8-1-1.4
	C402.2,527.6,401.2,524.9,401.2,521.9z"/>
<path fill="#9FFEFE" d="M439.7,268.9c6.3,3,11.3,7.3,13.9,13.8c1.2,2.9-0.7,5.2-2.7,7.3c-3,3-5.9,6-8.1,9.7c-1.2,2-0.8,3.1,0.9,4.3
	c6.4,4.8,12.1,10.9,19.2,14.1c5.8,2.6,11.1,5.8,16.2,9.3c4.3,3,8.3,6.6,10.6,11.4c1.4,2.9,3.6,5.8,0.4,9.4c-1.5,1.7-1.2,4.8-2.1,7.1
	c-3.2,8.9-13.8,12.5-21.8,7.4c-2-1.3-4-2.5-5.8-4.1c-4.5-4.2-6.3-9.3-4.2-15.2c1.5-4.6,3.2-9.1,5-13.6c0.8-1.9-0.5-2.2-1.3-2.9
	c-9.3-7.6-18.6-15-27.8-22.6c-3.1-2.5-5.9-5.4-8.3-8.6c-2-2.7-1.7-3.4,1.7-4c3.8-0.6,7.5-1.9,11-3.6c7.6-3.8,9.2-9.2,5-16.6
	C440.8,270.6,440.2,269.7,439.7,268.9z"/>
<path fill="#7FCCCC" d="M453.3,344.7c-0.6-5.1-0.4-8.8,4.4-11.7C456.2,337,454.9,340.4,453.3,344.7z"/>
<path fill="#5BFD53" d="M495.9,148.5c0-0.2,0-0.9,0.1-1.5c0.8-5.7,1.9-6.5,7.6-5.3c5.8,1.3,11.2,3.5,15.3,8c3.8,4,3.5,8.5-0.6,13.3
	c-3.2,3.7-7.3,4.2-11.6,1.2c-2.4-1.6-4.7-3.4-6.9-5.2C497.4,157.1,495.8,152.6,495.9,148.5z"/>
<path fill="#0C0004" d="M318.5,544.8c-3.9,0.1-7.6-1.1-11.4-1.7c-0.9-0.1-1.7-0.4-1.4-1.7c0.3-1.2,1-1.2,2-0.9
	c5.3,1.6,10.6,2.3,16.1,1.8c0.7-0.1,1.6-0.1,1.6,1c0,0.7-0.7,1-1.3,1C322.2,544.5,320.4,544.6,318.5,544.8z"/>
<path fill="#0C0004" d="M331,530.8c-0.2,0.3-0.4,0.8-0.6,0.8c-0.4,0-1-0.2-1.3-0.5c-2.8-3.3-5.6-6.6-8.4-9.9
	c-0.6-0.7-0.4-1.3,0.3-1.9c0.6-0.4,1.1-0.5,1.6,0.1c2.7,3.5,5.4,7.1,8.1,10.6C330.9,530.2,330.9,530.5,331,530.8z"/>
<path fill="#1A0008" d="M329.3,553.7c-1.1,0-2.2,0.1-3.3,0c-1.1-0.1-2.9,0.9-3-0.9c-0.1-1.4,1.7-1,2.7-1.1c3.1-0.4,6.1-0.6,9.2-0.8
	c0.9-0.1,1.8-0.2,1.9,1.1c0.1,1.4-0.9,1.6-1.9,1.6c-1.9,0-3.7,0-5.6,0C329.3,553.6,329.3,553.6,329.3,553.7z"/>
<path fill="#010006" d="M532.6,414.6c-1,5.6-1.7,11.2-3.7,16.5c-0.3,0.8-0.8,1.6-0.8,2.5c0,2.7-2,3.1-3.8,3c-2-0.2-2.8-2.2-2.6-3.9
	c0.7-6.4,1.7-12.9,2.7-19.3c0.4-2.7,2.7-2.4,4.8-2.2C531.6,411.3,532.4,412.7,532.6,414.6z"/>
<path fill="#030103" d="M386.4,215.5c-0.7,8.1-0.4,8-8.8,5.8c-3.5-0.9-6.9-2-10.5-2.7c-2.5-0.5-3.3-1.9-3.1-4.1
	c0.3-3.5,0.8-6.9,1.1-10.4c0.2-1.3,0.5-2.7,2.2-2c6.2,2.6,13.4,2.9,17.9,9.1C386.2,212.5,386.5,213.4,386.4,215.5z"/>
<path fill="#080604" d="M405.9,489.2c-0.9,0-1.4,0-1.9,0c-2.3-0.2-5.2-0.1-5.8-3c-0.6-2.7,1.6-4.5,3.7-5.9c2-1.2,4.3-1.3,6.5-0.8
	c2,0.5,4.1,1,6,1.8c1.5,0.6,4.4-0.1,3.8,2.7c-0.5,2.1-1.4,4.2-4.8,4C411,487.9,408.3,489.3,405.9,489.2z"/>
<path fill="#2400F0" d="M525.1,433.2c-1-4.4,0.4-8.5,0.8-12.7c0.2-1.7,0.5-3.4,0.8-5.1c0.1-0.9,0.3-1.8,1.5-1.7
	c0.9,0.1,2.4,0.1,2.2,1.4C529.7,421.4,528.6,427.6,525.1,433.2z"/>
<path fill="#F6F6F6" d="M381,218.2c0.3,2.2-0.9,1.6-1.6,1.4c-3.6-1-7.1-2-10.7-3.1c-0.9-0.3-2.1-0.5-1-1.9c2-2.6,4.6-2.6,7.4-1.7
	C378,213.8,380.4,215.3,381,218.2z"/>
<path fill="#D503F2" d="M366.4,212.3c1.4-1.9,2.3-3.8,2-6.2c-0.1-1,1.1-0.7,1.7-0.5c3.4,1.1,6.9,1.9,10.1,3.6c2,1.1,3.6,2.5,2.6,5.6
	C377.8,210.7,372.7,207.7,366.4,212.3z"/>
<path fill="#F2ECE9" d="M415.8,484.6c-4.7,2.8-9.1,2.5-13.6,2c-1.9-0.2-1.9-1.4-1-2.6c1.4-1.8,3.4-2.6,5.6-2.2
	C409.7,482.2,412.6,483,415.8,484.6z"/>
</svg>
