<?xml version="1.0" encoding="utf-8"?>
<!-- Generator: Adobe Illustrator 18.0.0, SVG Export Plug-In . SVG Version: 6.00 Build 0)  -->
<!DOCTYPE svg PUBLIC "-//W3C//DTD SVG 1.1//EN" "http://www.w3.org/Graphics/SVG/1.1/DTD/svg11.dtd">
<svg version="1.1" id="guitar1" xmlns="http://www.w3.org/2000/svg" xmlns:xlink="http://www.w3.org/1999/xlink" x="0px" y="0px"
	 viewBox="0 0 853.8 650.5" enable-background="new 0 0 853.8 650.5" xml:space="preserve">
<style>
	#guitar1:hover {
	fill:yellow;
	}

</style>

<g>
	<path fill="#FEFEFE" d="M427,650.4c-141.1,0-282.3,0-423.4,0.1c-3.1,0-3.6-0.7-3.6-3.7C0.1,432.4,0.1,218.1,0,3.7
		C0,0.7,0.5,0,3.6,0C285.7,0.1,567.9,0.1,850,0c3.3,0,3.8,0.8,3.8,3.9c-0.1,214.4-0.1,428.8,0,643.1c0,2.7-0.5,3.5-3.4,3.5
		C709.2,650.4,568.1,650.4,427,650.4z"/>
	<path d="M693.1,203.3c0.3,0.4,0.8,0.9,0.8,1.2c-1,4.8-8.5,10.7-13.4,10.8c-4.5,0.1-8.2-1.7-10.3-5.6c-1.3-2.4-2.4-2-4.3-1.1
		c-44.5,22.7-89.1,45.4-133.6,68.1c-26,13.3-51.9,26.6-77.8,40c-1.1,0.6-2.1,1.2-3.9,2.2c3.7,1.2,6.8,1,9.9,0.7
		c9.2-0.7,18.1-3.4,27.2-5c3.2-0.5,6.4-0.8,9.7-1.2c9.9-1.2,16.5,4.2,22,11.4c2.1,2.7,4.9,4.7,5.7,8.5c1.6,7.7-1.3,13.8-6.5,18.9
		c-16.3,15.9-35.5,26.3-58.2,30c-9.2,1.5-16.2-1.2-21.4-9.3c-6.9-10.6-13.3-11.6-24.6-5.6c-14.3,7.7-24.5,19.5-33.6,32.4
		c-8.2,11.6-15.9,23.7-25.8,34c-7.7,8-16.8,14.1-27.3,17.7c-10.3,3.5-21.1-0.4-28.9-9.9c-7.6-9.2-10.9-20.1-13.5-31.3
		c-5.4-23.5-7.2-47.4-6-71.4c0.9-17.7,4.3-34.9,12.9-50.6c2.6-4.8,5.8-9.2,10.3-12.6c6-4.5,12.7-5.2,19.8-4.5
		c10.4,1.1,20.2,5.1,30.5,6.6c13.4,2.1,26.5,2.2,38.5-6c6.8-4.6,10.6-11.3,14.7-17.9c2.7-4.3,4.9-8.9,8-13
		c9.2-12.5,30.7-14,39.7,2.8c1.1-0.2,1.6-2.3,3.1-1.3c1.3,0.9,1.6,2.5,1.8,3.8c0.2,0.9-0.2,2.1-0.7,2.9c-5.9,8.9-4.9,20.3-11.2,29.1
		c0.3,0.2,0.5,0.4,0.8,0.6c6.1-2.6,12.2-5.2,18.2-7.9c69.8-30.3,139.6-60.6,209.3-91.1c1.7-0.7,3.6,0,5.1-1.4
		c2.2-2.1,4.2-3.6,3.9-7.5c-0.6-9.1,3-17.3,7.7-24.8c5.4-8.8,20.3-14.9,30.6-12.9c1.9,0.4,3.8,0.7,5.8,0.1c2.3-0.7,4,0.9,5.4,2.6
		c2.6,3,4,6.6,5.4,10.2c0.3,0.9,0.4,2.1,1.7,2.2c1.6,0.1,1.5-1.3,2-2.3c1.7-3.9,3.3-8,5.8-11.6c0.7-1,0.7-1.7,0.1-2.7
		c-0.8-1.4-1.5-2.9-2.2-4.3c-0.9-2-1.9-4.4,0.3-5.8c2.2-1.4,4.4,0.2,6.4,1.4c0.8,0.5,0.5,3,2.4,1.4c1.3-1.1,4.5-0.5,3.2-4.1
		c-0.9-2.6,2.1-5.7,4.9-5c3.1,0.7,4.8-1,6.8-2.5c8.4-6.1,16.9-12,26.9-15.1c4.2-1.3,8.6-2.7,12.7,1c0.9,0.8,1.3,1.5,1.6,2.6
		c0.9,2.8-0.1,6,2.2,8.4c0.2,0.3-0.1,1.2-0.3,1.7c-4.9,13.6-11.4,26.3-22.7,35.9c-1.8,1.5-3.7,2.9-5.7,4.2c-3.5,2.2-7.3,3.8-8.9,8.5
		c-1.3,4-5.1,5.9-9.2,6.9c-3.6,0.9-7.2,2.2-10.8,2.9c-2.1,0.4-2.4,1.5-2.4,3.3c0,5,0.9,10,0.2,15c-2.3,15.6-12.8,27.3-28.8,29
		c-11.2,1.2-21.4-2.8-28.3-12.7c-1.1-1.6-1.7-4.2-4.7-3.4c-3.2-0.5-5-2.8-5.9-5.6c-1.2-3.9-1.7-8-2.5-12.1c-0.4-2.1,1.1-3.2,2.3-4.4
		c5.7-5.2,12.3-9,19.4-11.9c2.1-0.8,4.2-1.7,6.3-2.3c11.1-3.4,22.4-5.7,33.9-7.5c0.8-0.1,1.4-0.4,2.1-0.6c4.1-0.9,8.2-1.8,12.4-2.3
		c1.5-0.2,3.5-0.7,3.3,2.1c-3.6,2.2-7.8,1.8-11.7,2.8c-3.5,0.9-7.2,1.5-10.8,2.1c-14.6,3.4-29.3,6.6-41.8,13
		c13.2-5.8,28.1-9.9,43.2-13.3c6.7-1.3,13.5-2.6,20.2-3.8c14.4-3.2,26.5-10.3,34.6-22.6c5.5-8.3,9.6-17.5,11.3-27.5
		c1-5.6-1-7.4-6.8-6.9c-9.2,0.8-16.4,5.9-23.6,10.7c-10.3,6.8-19.2,15.1-26.9,24.8c-3.5,4.4-5.4,9.6-6.9,14.9
		c-0.2,0.7-0.7,1.5,0.1,2.1c0.8,0.6,1.7,0.1,2.4-0.4c1.9-1.1,2.4-3.1,3.3-4.9c0.8-1.6,1.2-3.3,2.2-4.8c0.5-0.8,1.2-1.8,2.3-1.3
		c1.1,0.5,1.1,1.6,0.9,2.6c-0.2,1.9-1.3,3.4-2,5.1c7.4-14.6,19.7-23,34.9-27.7c1.8-0.6,3.6-1.2,5.4-1.4c1-0.1,2.1-0.1,2.5,1.1
		c0.4,1.3-0.7,1.8-1.6,2.2c-2.4,1-5,1.5-7.5,2.5c-1.4,0.6-2.8,1.2-2.9,3.1c-0.5,6.5-4.8,10.8-8.9,15.1c-6.1,6.5-13.9,9.6-22.3,11.4
		c-3,0.6-6,1.8-9.1,2c-11.6,2.3-23.2,4.3-34.4,8c-9.1,3-17.7,6.7-24.9,13.3c-7.8,7.2-11.7,16.3-13.3,26.5c-0.6,4.2,4.6,7.6,9.3,6.4
		c3.4-0.9,5.8-3.2,7.8-6C690.1,204.6,690.7,202.4,693.1,203.3z"/>
	<path d="M301.4,621.8c-5-1.8-9-5.3-13.5-8c-1.3-0.7-2.2-1.9-2.6-3.1c-1.7-6-5.2-11.4-6.2-17.6c-2-11.5,1.5-21.6,9.3-29.9
		c8.5-9.1,18.6-15.3,31.7-13.3c9.2,1.4,16.5,6.7,23.6,12.3c2.2,1.7,4.1,5.2,6.6,4.9c2.2-0.2,4-3.4,6-5.3c9.2-9,18.4-18,26.3-28.2
		c0.9-1.2,1.7-2.4,2.6-3.7c0.7-1.1,0.9-2.2-0.4-2.9c-6.3-3.5-10.1-9.6-15.6-13.9c-4.9-3.9-5.1-3.9-8.3,1.4c-0.8,1.4-1.7,2.9-3.1,3.7
		c-9,5.9-16.6,13.6-25.2,20c-10.3,7.7-21.6,11.2-34.5,8c-9.5-2.4-18.4-10-19.3-21.9c-1.2-16.8,15.4-31.9,28.8-31.6
		c2.4,0.1,4.7-0.3,7.1-0.5c5-0.6,8.9,2,12.4,5c2,1.7,3.9,3.5,5.9,5.2c4.4,3.7,6.5,3.9,11.5,1.2c7.6-4.1,13.5-10.3,19.3-16.4
		c7.1-7.4,13.2-15.6,19.4-23.8c5.9-7.8,4.1-7.6,12.3-1.3c5.2,4,9.3,9.1,13.5,13.9c5.4,6.2,11.5,11.4,17.7,16.6
		c7.2,6.1,7.7,7.4,2.5,15.2c-20.7,30.9-41.8,61.6-67.6,88.6c-7.7,8.1-16.3,15.1-26.1,20.6c-4.6,2.6-9.7,3.9-14.6,5.8
		C314.4,624.4,307.8,624.4,301.4,621.8z"/>
	<path d="M71.2,238.5c-8.4,3.9-13.1,11-16.8,19.1c-3,6.4-2.8,13.4-3.8,20.1c-0.2,1.5-0.4,3-0.7,4.4c-0.5,2.7-0.6,5.8-3.9,6.6
		c-3.9,0.9-7.4,0-10.1-3.3c-3.5-4.4-4.3-9.8-4.9-15.1c-2.1-18.4,3-34.5,15.6-48.2c2.3-2.5,5.1-4.4,8.1-6c4.3-2.3,6.1-5.7,6.6-10.4
		c0.8-7.8,8-11.1,14.5-6.7c11.9,8,22.5,17.7,33.5,26.9c8.3,7,16.4,14.1,24.7,21.1c2.7-3.5,5.2-6.7,7.8-10c4.5-5.7,10.6-9,17.4-11
		c2.6-0.8,5.5-1,7.8-2.5c8.3-5.3,15.6-0.6,22.9,2.3c23.6,9.4,30.3,34.4,22.6,55.1c-2.8,7.7-8.3,13.6-14.8,18.5
		c-9.7,7.4-20.8,11.8-32.9,13.3c-15.6,1.9-28.2-3.2-37.9-15.9c-9.1-12-17.9-24.3-27-36.3c-1.9-2.4-3.6-2.8-6.3-1.9
		c-5.7,2.1-9.2,6.3-11.4,11.6c-2.6,6.3-4.7,12.8-4.7,19.8c0,3.4-2.5,5.3-5.3,6.6c-2.5,1.2-4.6-0.2-6.4-1.7
		c-5.3-4.4-7.4-10.6-8.3-17.1c-1.1-8.1-0.7-16.2,1.8-24.1c1.2-3.7,3.4-6.6,6.4-9.1c2.2-1.8,4.4-3.6,6.6-5.5c0.2-0.4,0.6-0.7,0.7-1.2
		C72.2,238.2,71.7,238.4,71.2,238.5z"/>
	<path fill="#010000" d="M237.2,126.8c-0.7,5.8-0.3,11.1,0.2,16.5c0.2,2.5,1.5,4.3,3.7,5.7c7.2,4.7,14.5,9.2,22.4,13.7
		c1.2-7.4,6.3-11.3,11.9-14.7c3.6-2.2,7.5-2.1,11.1-0.5c11.3,5,20.8,12.5,27.2,23.2c5.6,9.3,2.2,20.3-6.7,26.1
		c-6.1,4-12.3,2.8-18.4,1.1c-15.7-4.5-29.9-12.3-43.9-20.6c-16.9-10.1-32.8-21.9-49.3-32.6c-1.4-0.9-1.6-2.1-1.6-3.5
		c-0.4-19.5-3.4-38.8-2-58.4c0.4-5.2,0.5-5.5,5.4-3.1c10.9,5.3,20.8,12.3,31.3,18.3c6,3.4,11.9,6.8,18.2,9.6
		c1.6,0.7,2.3,1.1,3.4-1.2c2.7-5.8,5.6-11.6,12.5-14.1c8.7-3.2,16.4-1.2,23.7,3.6c6.5,4.3,11.2,10.2,11,18.4
		c-0.4,15.3-7.2,23.9-24.9,23.6c-10.3-0.1-19.7-3.8-29-8C241.4,128.9,239.5,128,237.2,126.8z"/>
	<path d="M433.9,61.7c3.4-5.7,7.4-10.7,13.6-13.5c4.4-1.9,9.1-2.6,13.8-0.9c13.5,4.9,21.8,14.7,26.5,27.9
		c9.9,27.5,17.5,55.6,23.6,84.2c0.9,4.4,1.2,8.9,1.2,13.4c0,3.7-1.5,6-4.8,7.6c-4.3,2.1-8.6,4-13.1,5.5c-7.9,2.5-14.7,7.3-22.1,10.9
		c-7.2,3.5-7.9,3.2-9.5-4.6c-2-9.7-3.3-19.7-7.9-28.7c-2.6-5.1-5.6-10-8.6-14.9c-1.2-2.1-2.4-2.4-4.5-1.2c-1.7,1-3.7,1.4-5.5,2.2
		c-18.3,7.7-31.1-6.9-33.3-19.3c-0.9-5.1-0.3-9.9,1.5-14.7c2.9-7.4,8.5-10.9,16.2-11.2c13.8-0.6,24.7,4.8,31.9,16.9
		c4.5,7.4,7.3,15.6,10.7,23.5c0.1,0.3,0.2,0.7,0.3,1.1c2.2,5.6,2.2,5.6,7.4,2.4c2.8-1.7,5.9-1.8,8.9-2.6c6.3-1.6,6.9-2.4,5.7-8.6
		c-2.4-11.8-7.5-22.7-11.3-34c-0.8-2.3-2.2-1.4-3.6-1.2c-6.1,1.2-12,3.1-18.4,2.6c-9.8-0.7-17.1-4.9-21.3-13.8
		c-1.6-3.4-2.1-7.3-2-11c0.1-4.1,0.5-8.2,2-12.1C432.1,65.5,432,63.2,433.9,61.7z"/>
	<path fill="#000101" d="M136.3,400.2c0.5,9.5,0.7,18.6,1.4,27.7c1.2,15.7-0.2,31.5-0.2,47.2c-3.1,5-3.5,11-6,16.3
		c-3.2,6.8-7.5,12.3-14.6,15.2c-3.7,1.5-7.5,2.1-11.5,1.1c-1.4-0.3-3-0.5-4.4-0.3c-18.2,1.4-27.1-14-27.7-28.1
		c-0.4-9.6,2.3-18.6,8.2-25.8c5.3-6.5,12.5-10.9,21.4-11.7c10-0.9,7.9,1.5,8.8-8.9c1.8-20.9,2.8-41.9,7.7-62.3
		c1-4.1,1.7-8.6,4.8-12.1c1.4-1.5,2.5-1.2,3.9-0.6c2.3,1,4.2,2.7,6,4.4c3.1,3.1,6.3,6.1,9.3,9.3c7.2,7.9,13,6.7,21.6,0.3
		c4.5-3.3,6.7-8.3,8.2-13.6c0.4-1.3,0.5-3.2,2.1-3.1c1.7,0,1.6,2,1.7,3.3c1.3,9.4,1.1,18.9-2.1,27.8c-3.3,9.1-9.6,15.2-20.1,16.2
		C146.7,403.1,142.6,403.1,136.3,400.2z"/>
	<path fill="#000100" d="M567.1,350.6c6.8-8.8,14.7-15.9,26.5-17c6.4-0.6,12.3,1.2,17.3,4.8c8.9,6.2,16.2,13.9,18.3,25.2
		c2,11-1,20.3-9.7,27.4c-5.6,4.6-12.3,4.5-18.9,2.2c-9.2-3.2-16.1-9.2-20.4-18.4c-6.8,8.6-8.2,17.9-4.3,28
		c2.7,6.9,6.8,13.1,11.5,18.7c2.6,3.1,6.7,3.7,10.1,5.4c2.1,1,4.3,1.9,6.4,3c0.9,0.5,1.6,1.3,1.3,2.5c-0.2,1-1.1,1.3-1.9,1.5
		c-3.7,1.2-7.4,1.5-11,0.2c-17.7-6.1-30.8-17.4-39.3-34.1c-1.1-2.1-2.1-4.4-1.6-6.8c2.8-13.2,4.9-26.6,12.4-38.3
		C564.9,353.3,565.7,351.8,567.1,350.6z"/>
	<path fill="#FD005E" d="M711.9,165.8c-7.4,3.2-15,6.1-21.4,11.2c-5.5,4.4-6.1,5.7-4.5,12.5c1.1,4.5,1.9,9.1,6.4,11.8
		c0.2,0.7,0.5,1.4,0.7,2.1c-2.1-0.3-2.2,1.7-3,2.8c-2,2.7-4.2,5.2-7.6,6.4c-3.5,1.2-6.6,0.4-9.4-2c-2.6-2.2-2.3-4.7-1.7-7.7
		c3.9-20.2,17.5-31,35.8-37.3c0.8-0.3,1.7-0.3,2.6-0.4C710.7,164.8,711.7,164.1,711.9,165.8z"/>
	<path fill="#050805" d="M567.1,350.6c-0.5,1.7-1.3,3.3-3,4.3c-0.5-1-0.5-1-1.1-0.3c-4.4,5.2-7.6,5-13.4,1.8
		c-3.7-2-4.6-9.7-2.1-14.1c2.3-4.1,8.1-5.6,13.2-3.3c4.3,1.9,6.2,5.5,5.4,10.2C565.9,349.5,564,352.4,567.1,350.6z"/>
	<path fill="#040704" d="M561.5,328.3c0-3.8,1.3-6.2,3.8-7.9c0.9-0.6,2-1.1,3-1.5c5.6-1.8,10.6-1.1,12.4,1.9
		c1.7,2.8-0.3,10.6-3.5,14.2c-6.5,7.4-10.5,4.1-14.5-2.3C561.8,331.1,561.4,329.4,561.5,328.3z"/>
	<path fill="#AE00C6" d="M301.4,621.8c6.5,1.6,13.1,1.9,19.7,1.1C314.4,625,307.8,625.2,301.4,621.8z"/>
	<path fill="#1E00D0" d="M433.9,61.7c-0.4,2.1-1.3,4-2.4,5.9C431.4,65.2,430.6,62.6,433.9,61.7z"/>
	<path fill="#B8B8B8" d="M71.2,238.5c1.2-0.7,2.4-1.4,4.5-2.6c-1.1,2.4-2.1,3.2-3.6,3.4C71.8,239,71.5,238.8,71.2,238.5z"/>
	<path fill="#FE0069" d="M282,355.7c1.5,24.9,5.3,49.4,15.4,72.5c0.2,0.5,0.3,1,0.6,1.4c0.9,0.9,0.5,3.7,2.7,2.7
		c2.2-1,0.1-2.6-0.4-3.7c-8.6-18.8-12.8-38.8-15.1-59.2c-1.6-14.3-1.4-28.7-1.7-43c-0.2-10.4,3.7-19.5,7.1-28.8
		c1.9-5.2,4.6-10.2,8.1-14.7c6.1-7.8,13.9-10.4,23.4-9.1c10.6,1.5,20.8,5.1,31.4,6.7c16.5,2.5,31.9,0.7,44.7-11.3
		c4.5-4.2,7.3-9.5,10.1-14.7c3.1-5.8,6-11.8,11.2-16.2c6.2-5.3,17.1-6.4,23.1-2.3c2.3,1.6,3.3,3.9,4.5,6.3c0.5,1.1,0.5,3.2,2.2,2.8
		c1.8-0.4-0.7-2.2,0.5-3.2c2.8,3.2,3,7.1,2.7,10.9c-0.7,9.3-4.4,17.9-7.7,26.5c-0.7,1.8-2.3,2.1-4.5,2.7c1.9-4.7,3.6-9,5.3-13.3
		c0.6-1.4,1.2-2.7,1.7-4.1c0.4-1,1.3-2.1-0.5-2.8c-1.7-0.6-1.5,1-1.7,1.8c-2.2,5.7-4.4,11.4-6.4,17.2c-0.7,1.9-1.7,3.1-3.6,3.9
		c-3.8,1.5-7.5,3.4-11.4,4.7c-2.3,0.8-3.4,1.9-3.1,4.3c0.3,2.1-0.8,3-2.6,3.9c-30.6,13.6-61.1,27.2-91.6,40.8c-0.9,0.4-1.7,1-3,0.7
		c0-2.9-0.1-5.9,0-8.9c0.1-2-0.8-2.6-2.6-2.9c-7.4-1.2-12.7,2.9-13.2,10.4c-0.3,5.4,0.6,10.7,1.4,16c1.2,7.8,2.9,15.4,2,23.4
		c-0.3,2.8,0.6,5.2,3.9,5.9c1.5,0.3,2.6,0.8,3.4-1.5c0.7-2.1,3.3-2.4,5.4-2.5c1.7-0.1,1.7-0.6,1.4-2.1c-1.5-6.4-1.5-6.5,4.3-9.3
		c29.3-14.4,58.7-28.8,88.1-43.2c1-0.5,1.9-1.3,3.2-1c0,1.9-0.1,3.7,0,5.6c0.2,3.3,1,3.7,3.9,2c5.9-3.5,11.8-7.1,17.8-10.3
		c1.5-0.8,3.4-4,5.5,0.4c0.7,1.6,4.7,1.6,7.4,1.6c8.3,0.1,16.3-2.1,24.3-3.8c7.3-1.6,14.6-3.3,22.2-2.8c6.6,0.4,14.1,7.5,14.7,14.1
		c0.2,1.6,0.3,3.2,0.4,4.8c0.1,0.7,0.2,1.7,1.2,1.6c1.1-0.1,0.8-1.1,0.8-1.8c-0.1-1.9-0.9-3.8-0.3-5.9c5.2,5.3,5.7,11.9,1.1,17.9
		c-7.1,9.4-16.6,15.8-26.6,21.5c-10.3,5.8-21.1,10.2-32.9,11.7c-5.7,0.7-11.5,1-16.3-4.2c18.2,3.4,32.7-5.2,47.4-12.8
		c1.8-0.9,3.6-1.8,5.2-3c0.8-0.6,2.9-0.6,1.8-2.5c-1.1-2.1-2.2-0.1-2.9,0.3c-10.1,5.7-20.2,11.5-31.4,14.9
		c-5.1,1.5-10.3,2.1-15.5,1.7c-3.4-0.2-5.7-2.3-7.8-4.7c-3.5-4.2-7.1-8.4-12.1-11c-1.1-0.6-2.3-1-3.5-1.4c-0.5-0.2-1.1-0.2-1.3,0.3
		c-0.3,0.7,0.1,1.1,0.7,1.4c1.3,0.6,2.7,1.2,4.1,2.2c-7.9-0.2-14.2,3.8-20.7,7.2c-0.8,0.7-1.3,0.3-1.7-0.5c-0.1-1.8,1.5-2.5,2.6-3.4
		c1-0.9,2.2-1.5,3.4-3.1c-13.9,9.1-25.5,19.5-34.2,33c-6.4,9.8-12.5,19.9-20.1,29c-10.4,12.6-23.8,19.1-40.1,19.4
		c-0.4,0-0.7-0.1-1,0.1c13.7,0,25.8-4.3,36-13.9c0.6-0.5,1.2-0.9,2-0.8c0.8,0.4,1.3,0.8,0.6,1.7c-7.7,9.2-17.3,15.7-28.6,19.8
		c-10,3.6-18.2-0.2-25.4-7.7c-6.4-6.7-9.6-15.1-12.3-23.7c-3.1-9.7-4.6-19.8-6.4-29.8c-0.3-1.7,0.6-3.4-0.1-5c-1-2.3,0.8-5-0.9-7.3
		c-1-3-0.1-6.2-0.5-9.3c-0.6-2.6-0.1-5.2-0.3-7.8C281.4,357.9,280.1,356.3,282,355.7z"/>
	<path fill="#FE005F" d="M763.7,156.8c0.2-2.4-1.5-1.4-2.5-1.2c-4.4,0.6-8.7,1.4-13.1,2.1c-1.1,0.1-2.5,1.2-3.1-0.8
		c12.4-2.9,25-5.4,33.4-16.3c2.9-3.7,6.3-7.3,5.7-12.5c-0.2-1.5,0.9-1.8,1.9-2.3c2.8-1.3,5.9-2.1,8.9-2.9c0.7-0.2,2.1-0.2,1.7-1.5
		c-0.3-1-1.3-0.5-1.9-0.4c-14.6,3.5-27.3,10.3-36.4,22.5c-2,2.7-3.3,6.1-5.3,10c-0.4-3.7,1.4-5.8,2-8.2c0.3-1,1.4-2.4,0.1-3
		c-1.5-0.7-1.5,1.2-1.9,2.1c-1.1,2.2-2,4.6-3,6.8c-0.3,0.7-0.5,1.6-1.1,1.9c-1.6,0.9-3.7,1.9-5.3,1.2c-1.2-0.6-0.1-2.6,0.3-4
		c2.2-8,6.3-14.9,12-20.9c10.4-10.8,22-19.9,35.3-26.8c4.2-2.2,8.7-3,13.2-3.6c2.9-0.4,5,1.1,5.5,4.3c0.7,4.1-0.4,8.1-1.9,11.7
		c-3.6,8.5-6.1,17.7-12.6,24.7c-8.6,9.5-19,15.9-31.7,18.4C763.2,157.8,763.2,157.3,763.7,156.8z"/>
	<path fill="#FE005E" d="M688.4,183.9c0.3-0.3,0.3-0.5,0.4-0.5c5-1.3,5-1.3,7.5,3.8c0.9,1.9,1.8,3.8,2.7,5.7c0.4,1,0.9,1.9,2.2,1.1
		c1.1-0.7,0.5-1.5,0.1-2.2c-1.6-3-3.2-5.9-4.8-8.9c-0.5-1-2-2.4-0.1-3.1c1.6-0.6,3.4-2.7,5.2,0c3,4.5,7.3,7.6,11.6,10.8
		c5.1,3.8,16,2.7,19.9-2.5c2-2.6,3.7-5.4,4.7-8.4c0.9-2.5,1.1-5.1,4.1-6.1c1.4-0.5,0.7-1.9-0.2-2.3c-2.6-1.3-1.4-3.7-0.6-4.6
		c1.3-1.4,3.6-1.5,5.6-1.3c0.8,0.1,0.6,1.2,0.5,1.9c-0.2,2.1-0.5,4.2-0.8,6.3c-0.1,1-0.4,2.1,1.2,2.2c1.4,0.1,1.1-1,1.2-1.8
		c0.2-2.6,0.4-5.2,0.6-7.8c0.1-0.9,0-1.9,1.3-1.8c1,0.2,0.8,1.2,0.7,1.8c-1.3,7,0.7,13.9,0.3,20.8c-0.8,12.3-10.2,23.9-22.3,27.3
		c-11.4,3.2-24.9-1.7-31.3-11.4c-3.3-4.9-5.5-10.3-7.9-15.7C689.8,186,689.4,184.7,688.4,183.9z"/>
	<path fill="#FD0068" d="M423.5,328.2c-0.8-6.5-0.8-6.5,4.4-9.1c79.2-38.8,158.4-77.7,237.6-116.5c1.1-0.5,2.2-1,3.4-1.5
		c0.6,2.8-1.4,3.4-3,4.2c-32.9,16.6-65.8,33.1-98.6,49.9c-40.9,21-82.1,41.3-123.3,61.6C437.1,320.2,430.5,324.3,423.5,328.2z"/>
	<path fill="#FD0068" d="M320.9,347.7c0.1,9.1-0.1,18.2,1.8,27.2c0.3,1.3-0.1,1.7-1.2,2.3c-6.9,3.4-8.2,2.6-7.8-5.1
		c0.4-7.1-1.8-13.8-2.7-20.7c-0.7-5.1-1.4-10.1-1.1-15.2c0.2-4.3,5.1-8,9.4-7.3c1.9,0.3,1.6,1.6,1.6,2.8
		C321,337,321,342.3,320.9,347.7z"/>
	<path fill="#FC0068" d="M323.6,356.9c-0.6-2.8-0.6-4.7,2.5-6.1c30.9-14.1,61.8-28.4,92.7-42.6c0.5-0.3,1.1-0.4,1.8-0.6
		c0.7,2,0.4,3.4-1.7,4.3c-31.4,14.9-62.8,29.9-94.3,44.8C324.4,356.8,324.1,356.8,323.6,356.9z"/>
	<path fill="#FD005E" d="M735.6,149.6c-2.7-4.3-5.4-8.2-10.9-8.9c-4-0.5-7.8,0.3-11.2,2.1c-10.2,5.5-17.7,13.3-20.6,24.8
		c-0.8,3.1-3.7,3.6-6.1,5c-0.4-16.5,8.6-32.9,25.6-37c7.5-1.8,14.9-1.1,20.4,5.6C734.8,143.8,735.5,146.6,735.6,149.6z"/>
	<path fill="#FB0067" d="M420.6,315.4c0.7,2.4-0.2,3.3-1.9,4.1c-30.8,15-61.6,30.2-92.4,45.2c-0.8,0.4-2.2,1.9-2.7,0.2
		c-0.3-1.2-1.3-3,1.2-4.2c30.8-14.5,61.5-29.2,92.2-43.8C418.2,316.3,419.4,315.9,420.6,315.4z"/>
	<path fill="#F80066" d="M567.9,240.8c-27,12.9-54,25.8-81,38.7c-20,9.6-40.1,19.1-60.2,28.6c-1,0.5-2.4,2.3-3.3,0.3
		c-0.9-1.9,0.8-2.7,2.3-3.5c19.9-9.2,39.9-18.3,59.8-27.5c26.7-12.3,53.4-24.6,80.1-37c0.5-0.2,0.9-0.4,1.4-0.5
		C567.8,239.7,568,240.1,567.9,240.8z"/>
	<path fill="#FB0067" d="M323.6,347.7c-0.9-2.6-0.3-4.2,2.3-5.3c30.3-13.4,60.5-26.9,90.8-40.4c0.7-0.3,1.3-0.7,2.1-0.9
		c0.6-0.2,1.5-1,1.9,0c0.3,0.7,0.3,1.8-0.6,2.3c-0.5,0.3-1.1,0.5-1.7,0.8c-31.1,14.4-62.2,28.7-93.3,43.1
		C324.6,347.5,324.1,347.5,323.6,347.7z"/>
	<path fill="#F30064" d="M565.5,247.4c-46.3,22.7-92.5,45.4-138.8,68.1c-1,0.5-2.4,2.3-3.3,0.4c-0.9-1.8,0.9-2.5,2.3-3.1
		c0.3-0.1,0.7-0.3,1-0.5c9.1-4.3,18.2-8.7,27.4-13c36.7-17.5,73.4-34.9,110.1-52.4C564.9,246.4,565.5,246.3,565.5,247.4z"/>
	<path fill="#FD005E" d="M722.5,142.7c6.4-0.1,12.6,6.5,12,12.7c0,0.2,0.1,0.5,0,0.7c-0.8,1.6-9.7,2.2-10.7,0.7
		c-1.6-2.4-3.5-4.8-6.4-4.5c-2.3,0.2-3.5-3.3-5.9-1.4c-5,3.8-10.3,7.2-12.7,13.4c-0.3,0.8-0.5,1.7-0.9,2.4c-0.3,0.5-1.1,0.8-1.6,0.4
		c-0.3-0.2-0.3-0.9-0.2-1.3C699,155.5,711.5,143,722.5,142.7z"/>
	<path fill="#EF0062" d="M536.4,244.6c-36.7,16.4-73.5,32.8-110.2,49.1c-0.8,0.3-1.9,2-2.8,0.3c-0.8-1.6,0.7-2,1.9-2.5
		c36.5-15.8,73.1-31.7,109.6-47.6C535.7,243.4,536.3,243.3,536.4,244.6z"/>
	<path fill="#F00062" d="M518.3,258.1c-30.8,14.2-61.5,28.5-92.3,42.6c-0.7,0.3-2,1.9-2.8,0.2c-0.9-1.9,1-2.2,2.2-2.8
		C450.2,287,475,276,499.8,265c5.7-2.5,11.4-5,17.1-7.6C517.7,256.9,518.4,256.8,518.3,258.1z"/>
	<path fill="#FCFCFC" d="M710.4,185.8c4.4-1.3,7.4-5,12-3.3c1.2,0.4,2.3-0.7,3.4-1.3c3.3-1.9,6.7-3.5,11.1-4.4
		c-2.1,5.8-4.1,10.9-10,13.1C720.8,192.2,715.7,189.8,710.4,185.8z"/>
	<path fill="#F90066" d="M768.2,146.1c-2.9-1.6-4.3,0.4-5.3,2.3c-0.5,0.9-0.6,1.9-1.7,2.1c-1,0.2-2.3,0.9-3.1-0.2
		c-0.7-1,0.4-1.8,0.8-2.7c0.6-1.5,1.9-1.8,3.2-2.3c3.8-1.5,7.2-3.6,8.4-7.9c1.5-5.1,6.3-6.4,10.2-8.7c0.9-0.6,1.6-0.3,1.5,1.1
		c-0.2,3.7-9.5,15.7-13,16.3C768.8,146.2,768.4,146.1,768.2,146.1z"/>
	<path fill="#DF005B" d="M355.6,429.7c-0.2-0.4-0.4-0.9-0.6-1.3c-0.8-1,0.1-1.6,0.6-2.2c7.5-7.9,13.2-17.1,19.3-26.1
		c4.7-7,9.5-14.1,15.2-20.3c4.1-4.5,9-8.2,14-11.7c0.7-0.5,1.5-0.9,2.5-0.5c0.3,0.6,0.8,0.7,1.4,0.8c-13.9,9.3-23.7,22.3-33,35.8
		C368.9,413,363.2,422.1,355.6,429.7z"/>
	<path fill="#A90043" d="M536.4,244.6c-0.3-0.6-0.9-0.6-1.5-0.7c9.8-4.3,19.5-8.7,29.3-13c11.4-5,22.8-9.8,34.2-14.8
		c0.7-0.3,1.2-0.9,2.6-0.1C579.2,225.7,557.8,235.1,536.4,244.6z"/>
	<path fill="#EB0057" d="M742.6,162c-15.3,3.7-30.3,8.7-45.2,13.6c13.4-8.3,28.4-11.6,43.7-14.3C741.8,161.1,742.7,160.6,742.6,162z
		"/>
	<path fill="#F3F3F3" d="M716.4,154.8c-2.6,1.6-4.7,3.5-5.6,6.4c-0.6,1.8-2.4,1.6-3.7,2.1c-1.9,0.8-4,1.3-6.1,2
		C703.1,158.4,711.1,152.8,716.4,154.8z"/>
	<path fill="#A50041" d="M518.3,258.1c-0.5-0.2-1-0.4-1.4-0.7c12.1-5.5,24.2-11,36.4-16.4c3-1.4,6.1-2.6,9.1-4
		c0.1,0.3,0.3,0.6,0.4,0.9C548,244.6,533.2,251.3,518.3,258.1z"/>
	<path fill="#9B003D" d="M565.5,247.4c-0.4-0.2-0.9-0.4-1.3-0.6c8.3-4,16.5-8.1,24.8-12.1c5.2-2.5,10.5-5,15.9-7.1
		C592,234.8,578.9,241.3,565.5,247.4z"/>
	<path fill="#BA004B" d="M567.9,240.8c-0.3-0.3-0.6-0.6-0.9-0.9c12.1-6.2,24.5-11.6,36.9-17.1c0.8-0.3,0.9,0,0.7,0.7
		C592.3,229.3,580.1,235,567.9,240.8z"/>
	<path fill="#D6004F" d="M745,156.9c0.8,1.1,2.1,0.4,3.1,0.8c-9,2.2-18.3,3.2-27.2,5.8c-3,0.9-6,1.6-9,2.3c-0.5-0.8-1.4-0.6-2.1-0.7
		C721.2,160.9,733.1,159.1,745,156.9z"/>
	<path fill="#E5005D" d="M772,158.6c-4.9,4.5-11.1,5.6-17,7.5c-1,0.3-1.4,0-1.6-0.9c-0.2-1.2,0.6-1.8,1.7-2.1
		c3.3-0.8,6.5-1.6,9.8-2.5C767.3,160,769.6,159.3,772,158.6z"/>
	<path fill="#E80056" d="M722.7,180c0.7-3.4,3.6-5.4,2.5-8.9c-0.3-1.1,3-2.3,4.6-1.9c2,0.4,0.4,2,0,3
		C728.5,175.4,726.9,178.4,722.7,180z"/>
	<path fill="#EA0060" d="M730.6,175.5c0.9-1.7,2-3.4,2.8-5.1c0.8-1.8,2.1-2.8,3.9-3c0.5-0.1,1,0.3,0.9,0.9c-0.4,2,0.2,4.4-2.2,5.6
		c-1.6,0.8-3.1,1.5-4.7,2.3C731.1,175.9,730.9,175.7,730.6,175.5z"/>
	<path fill="#9D0037" d="M742.6,162c-0.5-0.2-1-0.5-1.5-0.7c7.4-2.1,15.1-2.8,22.6-4.4c0,0.5,0.1,0.9,0.1,1.4
		C756.7,159.5,749.7,160.7,742.6,162z"/>
	<path fill="#7A002E" d="M604.6,223.5c-0.2-0.2-0.5-0.5-0.7-0.7c6.9-3.9,14.2-6.7,21.5-9.7C618.7,217.1,611.7,220.5,604.6,223.5z"/>
	<path fill="#9A003C" d="M282,355.7c-1,0.7-0.5,1.9-0.8,2.8c-0.1,0.4-0.3,0.4-0.5,0.1c0-5.8,0-11.7,0-17.5c0.5,0,0.9,0,1.4-0.1
		C282,345.9,282,350.8,282,355.7z"/>
	<path fill="#E0005B" d="M713.3,161.3c1.7-3.6,3.5-5.5,7.2-4.1c0.7,0.3,1.1,0.6,1.1,1.2c0.1,0.8-0.5,1.1-1.1,1.2
		C718.3,160.2,716.2,160.7,713.3,161.3z"/>
	<path fill="#DB0059" d="M715.8,180.1c-0.2,0.1-0.7,0.2-1.1,0.4c-1.8,0.9-3.5,1.9-5.2,2.8c-0.9,0.5-1.6,0.6-2.1-0.5
		c-0.4-1,0.3-1.3,1-1.7c1.8-0.9,3.6-1.7,5.4-2.5C714.4,178.4,715.1,178.5,715.8,180.1z"/>
	<path fill="#C90051" d="M716.7,177.2c1.8-0.8,3.4-1.6,5.2-2.4C721.3,179.5,720.5,179.8,716.7,177.2z"/>
	<path fill="#AD0045" d="M741.4,150.9c-2,1.6-2.6,3.2-2.8,5.1C736.5,152.8,737.1,151.6,741.4,150.9z"/>
	<path fill="#D80058" d="M752.9,128.4c-0.4,0-0.8,0-1-0.1c-1-1.1-2.8-1.6-2.6-3.6c0-0.2,0.6-0.5,0.9-0.5
		C751.2,124.1,752.4,125.9,752.9,128.4z"/>
	<path fill="#777777" d="M691.3,195.5c1.7,1.2,1.7,1.2,2.3,3.8C691.6,197.6,691.6,197.6,691.3,195.5z"/>
	<path fill="#767676" d="M280.6,358.6c0.2,0,0.4,0,0.5-0.1c0,2.7,0.1,5.5,0.1,8.2C280.2,364.1,280.6,361.3,280.6,358.6z"/>
	<path fill="#A7A7A7" d="M281.8,376c2.4,2.2,0.5,4.9,0.9,7.3C281.5,381,282.3,378.4,281.8,376z"/>
	<path fill="#9C9C9C" d="M762.8,142.2c0.8-1.8,1.5-2.9,2.9-3.2c0.1,0,0.6,0.5,0.6,0.7C765.9,141.1,764.7,141.5,762.8,142.2z"/>
	<path fill="#DF00FE" d="M359,512.3c-0.5,2.1-1.4,3.2-2.7,4c-9.6,6.5-17.7,15-27.2,21.7c-11.4,8-23.5,9.8-36.4,3.9
		c-1.5-0.7-2.9-1.5-4.6-3.5c4.5,1.5,8.3,2.6,12.3,3c0.9,0.1,2.2,0.9,2.4-0.7c0.1-1.2-1.3-0.9-2-1.1c-2.3-0.6-4.7-0.9-6.9-1.6
		c-10.7-3.1-15.7-15.4-10.6-26.1c6-12.6,18.3-19.3,32.2-17.4c1.3,0.2,2.3,0.8,3.3,1.5c6.5,4.5,13.1,8.9,19.6,13.4
		c0.8,0.5,1.1,0,1.6-0.2c13.6-7.5,25.4-17.2,34.7-29.7c3.9-5.3,7.9-10.6,11.7-16c1.6-2.3,2.9-2,4.8-0.6c4.9,3.6,8.8,8.1,12.5,12.8
		c6,7.5,11.4,15.5,19.3,21.3c1.6,1.2,0.8,2,0.2,3.1c-12.2,19.9-25,39.5-39.5,57.9c-6,7.7-12.4,15-19,22.2c-0.8,0.8-2.4,1.6-0.7,3
		c1.5,1.2,1.9-0.6,2.5-1.3c21.5-23.2,39-49.3,55.4-76.2c0.8-1.4,1.9-2.7,2.5-4.2c1.1-2.6,2.6-1.9,4.4-1c2.5,1.2,0.8,2.5,0.2,3.6
		c-9.7,16.1-20.9,31.1-32,46.1c-10.4,14.2-20.9,28.4-33.1,41.1c-9.1,9.5-18.7,18.4-30.5,24.5c-4,2.1-8.3,3.4-12.5,4.8
		c-1.3,0.4-3.4,1.5-4.2-1.4c-0.3-1.1-2-0.5-3.1-0.6c-12.6-1.2-22.8-6.5-29-17.8c-7-12.8-3-29.6,9.3-38.8c6.8-5.1,14.3-8.6,23-9.1
		c3.4-0.2,6.4,0.8,9.3,2.2c8.2,4.1,16.4,7.9,21.6,16.1c1.8,2.9,3.8,2.8,6,0.2c12.5-14.6,25.5-28.8,36.9-44.3
		c2.3-3.2,2.4-5.5-0.5-8.3c-6.3-6.3-13.8-11-20.6-16.7c-1.5-1.2-3.2-0.9-4.3,0.6c-5.1,7.1-12.6,11.3-19.4,16.3
		c-0.7,0.5-2.3,0.8-1.6,2c1,1.7,1.9-0.1,2.7-0.6C350.8,517.9,354.6,515.3,359,512.3z"/>
	<path fill="#DC00FA" d="M369.6,505.6c0.5,0.4,0.9,0.6,1.3,0.9c6,4.5,12.3,8.6,17.4,14.1c1.1,1.2,1.9,2,0.6,3.7
		c-1.4,1.9-2.4,0.9-3.7,0.1c-5.1-3-8.3-8.3-13-11.7c-1.3-1-2.5-2-3.8-3c-0.5-0.4-1.5-0.8-0.9-1.7
		C368.2,507.1,368.9,506.5,369.6,505.6z"/>
	<path fill="#6D007D" d="M302.8,619.2c-4.6,0.2-14.5-6.3-15.4-10.3C292.1,613.7,297.1,616.8,302.8,619.2z"/>
	<path fill="#9B00B0" d="M416.6,487.5c3.4,2.4,6.8,4.8,9.3,8.2C421.9,494.1,419.3,490.8,416.6,487.5z"/>
	<path fill="#550062" d="M306.8,619.9c1.2,0.3,2.4,0.6,3.6,0.9C308.7,622.3,307.6,621.2,306.8,619.9z"/>
	<path fill="#FEDB00" d="M109.2,270.1c-3.5-4.5-6.9-9-10.4-13.6c-2.1-2.7-4.4-3.4-7.8-2.2C78,258.8,70.4,272.7,74,286
		c0.7,2.7-0.3,5-1.6,7.1c-1.2,1.9-5.1,0.9-7.4-1.9c-3.6-4.3-4.8-9.5-5.6-14.9c-0.5-3.8-0.5-7.7-0.2-11.6c0.7-9,3.7-16.7,11.8-21.7
		c3.4-2.1,6.5-4.7,9.2-7.6c1-1.1,2-2.4,1.4-4c-0.6-1.6-2.2-1.8-3.7-2c-11.3-1.4-20.5,4.8-24.8,16.7c-3.5,9.6-4,19.8-5.2,29.8
		c-0.1,1.2,0,2.6-0.4,3.7c-0.7,2,0.7,5.2-2.6,5.8c-3.5,0.7-8-1.8-9.3-4.9c-1.1-2.5-1.6-5.2-2.1-8c-2.9-18.2,1.5-34.4,13.8-48.4
		c2.9-3.4,6.8-5.5,10.4-7.9c3.5-2.3,5-5.3,5.5-9.2c0.7-5.8,3.2-7,8.3-4c8.1,4.8,15,11.1,21.9,17.5c11.3,10.4,22.3,21.1,33.3,31.8
		c2.2,2.1,3.9,2.2,5.8-0.4c2.8-3.8,5.7-7.6,8.5-11.4c3.7-5.1,8.3-9.3,14.3-11.1c9.5-2.8,19.3-4.3,28.8,0.5
		c8.9,4.4,15.6,10.9,18.6,20.4c2.8,8.6,0.6,16.7-3.1,24.6c-6.8,14.5-18,24-33.2,28.8c-0.8,0.3-1.7,0.5-2.5,0.9
		c-0.9,0.4-2.5,0.3-1.8,2.1c0.6,1.4,1.6,0.8,2.5,0.5c10.2-3.6,20-8,27.3-16.4c7-8,12.3-17,13.8-27.7c2-14.2-4.4-24.5-15.7-32.3
		c-0.6-0.4-1.2-0.8-1.8-1.3c-0.1-1.3,0.6-1.4,1.5-0.8c15.9,6.6,25.1,23.2,23,40.5c-1.8,15.1-10.5,25.1-22.8,32.5
		c-10.4,6.3-21.8,9.6-34.1,9c-10.6-0.6-19-4.8-25.7-13.2c-5-6.2-9.9-12.4-14.6-18.9C114.2,275.4,111.9,272.6,109.2,270.1z"/>
	<path fill="#F9D600" d="M94.1,215.9c12.3,10.4,24.6,20.9,37,31.2c2.1,1.7,0.8,2.5,0,3.8c-1.3,1.9-2.1,0.7-3.2-0.3
		c-8.1-7.9-16.3-15.8-24.4-23.7c-3.5-3.4-7-6.7-10.5-10.1C92.8,216.1,93.2,215.8,94.1,215.9z"/>
	<path fill="#F4D200" d="M79.6,232.3c-11.4,3.3-20.1,9.6-25.9,20.7C55.5,238.8,66.5,228.5,79.6,232.3z"/>
	<path fill="#CEB100" d="M75.8,281.9c-1.9-10.3,6-22.7,13.6-24.3C80.8,263.3,78.3,272.1,75.8,281.9z"/>
	<path fill="#C7AC00" d="M94.1,215.9c-0.4,0.4-0.7,0.7-1.1,1.1c-7.5-6-14.2-13-23.3-17.6C73.3,199,86.7,208.3,94.1,215.9z"/>
	<path fill="#D1B400" d="M189.8,228.9c-0.6,0.1-1.2,0.2-1.5,0.8c-4.9-2.3-9.9-4.2-15.3-5.3C179.4,222.9,184.4,226.8,189.8,228.9z"/>
	<path fill="#DBDBDB" d="M109.2,270.1c3.5,1.9,5.8,4.7,6.4,8.7C113.5,275.9,111.3,273,109.2,270.1z"/>
	<path fill="#FEAB79" d="M253.9,180.1c-8.7-4.4-16.7-9.8-24.8-15.2c-10.5-7-20.9-14.1-31.4-21.1c-0.7-0.5-1.7-0.7-1.7-1.9
		c1.3-0.6,2,0.6,2.8,1.1c15.6,10.1,31.4,19.8,47.7,28.9c0.8,0.4,1.8,2.5,3,0.5c1.2-2-1-2.2-2-2.8c-16.6-9.3-32.8-19-48.9-29.1
		c-2.2-1.4-3-2.8-3-5.4c-0.3-17.1-0.8-34.2-1.3-51.3c0-0.8,0-1.7,0-2.9c7.9,3.5,15,7.6,21.6,12.7c3.9,2.4,7.6,5.1,11.9,6.9
		c6.7,3.3,12.9,7.4,19.9,10.1c1.5,0.6,3,1.3,4.6,1.6c1.9,0.4,3.5,0,3.8-2.5c0.3-2.5,0.7-5,1.4-7.3c1.8-5.9,7.8-10.5,13.9-9.8
		c10,1.1,17.9,5.7,22.1,15.4c2.5,5.8,1.1,10.8-2.5,15.7c-1,1.4-4.3,2.4-1.5,5.2c0.6,0.6-0.8,1.6-1.6,2.2c-4.2,3.1-9,4.2-14,4.5
		c-9.1,0.4-16.7-3.2-23.4-9c-0.6-0.5-1.1-1-1-2c3.1-0.1,5.7,1.6,8.4,2.7c2.3,0.9,4.6,2,6.8,3c0.7,0.3,1.2,0.2,1.5-0.5
		c0.3-0.7-0.2-1-0.6-1.1c-6.2-2.2-11.3-7.1-18.7-6.4c-2.2,0.2-4.6-2.5-7-3.8c-1.2-0.6-2.2-2.2-4-1.3c-2.1,1-1.1,2.8-1.2,4.3
		c-0.3,7-0.8,14,0,21c0.5,3.8,1.9,6.7,5.3,8.8c8.4,5.2,16.7,10.6,25.4,15.2c5.1,2.7,5.4,2.6,6-3c0.3-3.2,0.8-6.4,2.1-9.5
		c2-4.6,5.5-6.6,10.2-4.9c12.2,4.2,21.2,12.4,28.3,22.8c2.8,4.1,2.8,9,1.3,13.7c-1.7,5-6,7.5-10,10.3c-1.3,0.9-3,0.6-4.7,0.1
		c-13.1-4.3-25.5-10-37.5-16.5c-0.2-0.7,0-1.1,0.9-0.9c1.2,1.1,2.8,0.6,4.2,1.3c1,0.5,1.3-0.3,1.6-1c0.5-1-0.3-1.3-1-1.6
		c-4.2-1.4-8.5-2.8-12.8-4.1c-1.1-0.3-2.6-0.1-3,0.9c-0.5,1.2,0.5,2.3,1.6,3c1.1,0.8,2.3,1.5,3.4,2.3c0.3,0.4,0.2,0.7-0.2,0.9
		C255,180.6,254.5,180.3,253.9,180.1z"/>
	<path fill="#D19069" d="M255.9,180.2c0-0.2,0-0.5,0-0.7c11.9,6.2,24,11.9,36.4,16.8c-8.3-1.8-16.2-4.4-23.6-8.4
		c-3-2.5-6.9-3.6-10.2-5.6C257.5,181.7,255.9,181.9,255.9,180.2z"/>
	<path fill="#F0A273" d="M237.4,120c4.5,2.6,9,4.9,11.9,10.1c-4.2-1.2-7.6-3-11-4.8C236,124,237.6,121.9,237.4,120z"/>
	<path fill="#DA9267" d="M270.6,154.3c-1.1,3.6-1.3,7.3-1.8,11C264.8,163.7,265.6,159.1,270.6,154.3z"/>
	<path fill="#D8D8D8" d="M255.9,180.2c3.3,1.7,6.6,3.4,9.9,5.2c1.2,0.6,2.7,0.9,2.9,2.6c-5.1-2.2-10.1-4.6-14.7-7.8
		C254.6,180.1,255.2,180.2,255.9,180.2z"/>
	<path fill="#CCCCCC" d="M227.8,100.6c-4.6-1.1-8.4-3.6-11.9-6.9C220.3,95.3,223.9,98.2,227.8,100.6z"/>
	<path fill="#D48F65" d="M254.2,103.2c0.6,1.1,0.1,2.1-0.1,3.1c-0.2,1.1-0.1,2.5-1.1,3.3c-0.1,0.1-0.8-0.2-0.9-0.4
		c-0.5-1.3-0.3-2.7,0.3-3.9C252.9,104.6,253.1,103.5,254.2,103.2z"/>
	<path fill="#B57955" d="M261.9,178.6c-0.3,0.3-0.6,0.6-0.9,0.9c-1.3-0.5-2.7-1-3.9-2.5C259.2,177,260.6,177.6,261.9,178.6z"/>
	<path fill="#2700FE" d="M435.2,108.8c7.6,2.4,12.5,7.9,16.5,14.4c0.5,0.8,1.4,1.8,0.2,2.6c-1.4,0.9-0.4,1.8-0.1,2.5
		c1,2.1,2,4.4,3.4,6.3c3.6,4.8,6.6,10,8.6,15.7c1,2.9,2.9,3.9,5.4,1.8c3.7-3.1,8.3-3.8,12.8-4.8c6-1.3,7.8-3.7,6.5-9.5
		c-2.8-13.2-8.4-25.6-13-38.2c-0.9-2.5-3.1-2.4-5.3-1.8c-6.2,1.7-12.4,2.7-18.9,1.7c-13.1-2.1-19.5-11.7-18.8-24.2
		c0.3-5.3,2-10.3,5.4-14.5c6.4-7.9,14.5-10.4,24.4-7.4c1.7,0.5,4.6,2.5,5.1,0.6c0.5-1.8-3-1.5-4.7-2.3c-3.9-1.9-8-1.3-12.5-1.2
		c7-3.7,13.1-1.1,18.2,2.5c7.3,5.2,14.3,11.5,16.4,20.7c1.3,5.7,3,11.3,4.9,16.8c6.8,20,12.9,40.1,17.8,60.7
		c1.5,6.5,2.6,13.1,3,19.8c0.2,3.7-0.8,6.6-4.6,8c-3.6,1.4-7,3.3-10.7,4.4c-8.5,2.7-15.9,7.8-23.8,11.7c-4.8,2.3-4.8,2.3-6-2.7
		c-2-8.5-2.8-17.2-6.3-25.4c-3.4-7.8-7.8-15.1-12.6-22.1c-1.4-2.1-3.1-2.4-5.4-1.5c-6.2,2.5-12.6,3.9-19.3,2
		c-12.4-3.3-18.3-18.7-11-29.1c3.5-5,9-6.3,14.8-6.5c1.7-0.1,3.5,0.3,5.2,0.5c1.1,0.1,2,0,2-1.4
		C433.6,108.3,434.4,108.4,435.2,108.8z"/>
	<path fill="#1F00D5" d="M435.2,108.8c-0.8,0-1.6,0.1-2.5,0.1c-7.4-1.3-14.6-1.5-21,3.5c-1.9,1.5-2.7,3.8-5.1,5.7
		c2-5.5,4.6-9.4,10-10.7C423,105.9,429.2,106.2,435.2,108.8z"/>
	<path fill="#9FFEFE" d="M117,503.4c-0.2-1.9-0.9-2.4-2.9-1.7c-4.3,1.4-8.6,3-13.4,3.2c-16.1,1-25.1-12.9-25.2-26.4
		c-0.1-7,1.3-13.8,5.2-19.9c4.1-6.4,10.2-9.3,17.2-10.6c3.6-0.7,7.2-0.5,10.8-0.2c3.1,0.2,4.5-1,4.7-4.2c1.3-17.9,2.1-35.9,4.4-53.7
		c1-8,2.4-16,4.7-23.8c1.4-4.8,2.9-5.3,6.8-1.9c4.1,3.6,8,7.5,12.1,11.2c8.3,7.4,17,7,24.7-1.1c3.3-3.5,6.4-7.2,8.4-11.8
		c0.8,8.1,0.2,15.9-2.5,23.6c-3.7,10.9-12.3,13.5-22.3,14.3c-4.6,0.3-8.8-0.1-12.8-2.8c-4.9-3.3-7.2-2.2-8,3.6
		c-1.8,13-1.3,26.2-1.9,39.3c0,0.7-0.6,2,0.8,2.1c1.6,0,1.1-1.5,1.1-2.3c0.4-8.6,0.6-17.2,1-25.8c0.2-4.6,0.5-9.2,1.4-13.8
		c0.2-1.1,0.3-2.6,1.7-2.5c1.9,0.2,0.6,1.8,0.7,2.7c0.6,9.7,1.2,19.4,1.7,29.2c0.2,4.4,0,8.7,0,13c-1-0.8-0.2-2.9-1.7-3.8
		c-1.7,1.1-0.7,2.5-0.5,3.7c2.3,13.8,3,27.6-1.2,41.1c-2.5,7.8-5.5,15.3-13.4,19.4C118.1,503.9,117.5,503.8,117,503.4z"/>
	<path fill="#8FE4E4" d="M96.6,445.8c4.7-3.2,9.1-2,13.2-2.7c0.7-0.1,1.1,0.4,1.1,1.1c-0.1,1.3-0.8,1.6-2,1.6
		C105.1,445.8,101.3,445.8,96.6,445.8z"/>
	<path fill="#5B9494" d="M117,503.4c0.5,0,1.1,0,1.6,0c-2.2,2-4.8,3-8,1.9C112.7,504.7,114.9,504,117,503.4z"/>
	<path fill="#5CFE53" d="M602.4,431.6c-7.4,1.5-12.9-0.7-17.9-3.9c-11-7-19.3-16.4-25.9-27.6c-4.1-7-3.1-14.2-0.7-21.4
		c4.1-12,10.3-22.7,19.2-31.8c11.9-12.3,30.9-11.3,42.3,2c7.4,8.6,10.8,18.2,6.8,29.4c-1.3,3.7-3.3,7.1-6.2,9.7
		c-2.8,2.6-5.7,5.3-10.3,2.9c-2.4-1.2-5.6-1.4-8.4-1.4c-8-0.1-12.6-5.2-16.6-11c-1.6-2.4-4.2-5.1-0.8-8.2c0.6-0.6,0.2-1.1-0.3-1.6
		c-0.8-0.7-1.4-0.3-1.9,0.3c-6.3,7.2-11.5,14.8-10.6,25c0.7,8.1,4.7,14.8,8.9,21.6c4.2,6.7,9.6,11.6,17.3,13.7
		C598.7,429.8,600.1,430.6,602.4,431.6z"/>
	<path fill="#277822" d="M565,358.3c2.8-6.1,6.6-11.3,12.1-15.3C573.1,348.2,568.9,353.1,565,358.3z"/>
	<path fill="#277822" d="M585.9,337.9c-2.4,2-4.4,3.3-7.5,4.2C580.6,339.5,582.7,338.2,585.9,337.9z"/>
	<path fill="#2A8226" d="M592.2,336.1c-1.6,0.7-3.1,1.9-5.4,1.4C588.5,335.6,590.4,335.9,592.2,336.1z"/>
	<path fill="#5BFC52" d="M548.6,347.3c0-4.3,2.6-6.9,7-6.9c4.7,0,8.3,2.9,8.4,6.7c0.1,4-4.5,9.5-8,9.5
		C551.3,356.6,548.6,353.2,548.6,347.3z"/>
	<path fill="#5BFD52" d="M574.4,320.2c4.2-0.2,5.7,1.6,4.7,5.7c-0.9,3.8-3.1,7-5.7,10c-1.3,1.5-2.6,1.1-4,0.3
		c-3.8-2.1-6.1-6.6-5.4-10.3C564.7,322.5,568.6,320.4,574.4,320.2z"/>
	<path fill="#030001" d="M406.6,367.6c-11.4,7-20,16.7-27.4,27.7c-7.6,11.4-14.8,23.1-24.2,33.2c-10.9,10.5-23.9,15.6-39,15.2
		c-0.8,0-2,0.5-2.1-0.8c-0.1-1.2,1.2-1,2-1c22.6,0.4,37.6-11.8,49.3-29.5c6-9.1,11.9-18.2,18.3-27c7.5-10.3,17.9-17.3,27.9-24.8
		c0.7-0.5,1.3-1.2,2.2-0.1c1.1,1.3-0.1,1.8-0.8,2.3C410.8,364.4,408.7,366,406.6,367.6z"/>
	<path fill="#0D0005" d="M349.2,371.5c0,4.1-2.7,6.5-7,6.5c-4.2,0-6.6-2.7-6.6-7.2c0-4.1,2.7-6.5,7-6.4
		C347.1,364.5,349.2,366.8,349.2,371.5z"/>
	<path fill="#080003" d="M331.4,384.8c0.1-3.6,2-5.4,5.7-5.3c3.4,0.1,5.3,2.2,5.2,5.9c-0.1,3.2-2.2,5.1-5.6,5.2
		C333.4,390.6,331.4,388.3,331.4,384.8z"/>
	<path fill="#0C0004" d="M357.9,375.9c-2.9-0.1-5.1-2.5-5-5.6c0.1-3,2.2-5,5.3-5c3.3,0,5.2,2.1,5.1,5.5
		C363.3,374.2,361.4,376,357.9,375.9z"/>
	<path fill="#0A0003" d="M785.1,144.2c-0.7-0.5-2-0.8-1-1.9c4.6-5.4,9-11,12.5-17.2c0.3-0.5,0.8-0.7,1.2-0.4
		c0.5,0.2,0.6,0.8,0.4,1.3c-3.2,6.5-7.5,12.3-12.2,17.8C785.8,144.1,785.4,144.1,785.1,144.2z"/>
	<path fill="#150007" d="M780.3,120.9c-0.9,0.2-1.3-0.2-1.6-0.8c-0.4-0.9,0-1.4,0.8-1.7c3.9-1.3,7.8-2.6,11.7-3.9
		c0.6-0.2,1.2-0.3,1.5,0.5c0.2,0.5,0,1.1-0.5,1.3C788.4,117.8,784.3,119.4,780.3,120.9z"/>
	<path fill="#0A0003" d="M724.2,201.2c8.8,0.9,15.5-2.7,20.4-9.9c0.9-1.3,1.8-2.7,2.7-4.1c0.3-0.5,0.5-1.3,1.4-0.9
		c1,0.5,0.5,1.1,0.2,1.8c-4.7,11.5-18.3,18.3-30.2,15.2c-0.8-0.2-1.4-0.4-1.3-1.4c0.1-1,0.8-1.2,1.6-1.1
		C720.7,201,722.5,201.1,724.2,201.2z"/>
	<path fill="#080002" d="M715.3,207c4.7,1.1,9.6,2.2,14.4,3.4c0.8,0.2,1.3,0.7,1,1.7c-0.2,0.9-0.8,1.1-1.7,0.8
		c-4.7-1.3-9.3-2.6-14-4c-0.5-0.2-1.3-0.2-1.3-1.1C713.8,207.1,714.5,207,715.3,207z"/>
	<path fill="#010002" d="M381.3,483.3c3.3,0.4,4.2-2.8,4.9-5c1-3.5,2.5-2.9,4.4-1.2c5.7,4.9,11,10.1,15.6,16.1
		c2.5,3.2,2.6,6.3,0.4,9.6c-0.3,0.4-0.6,0.8-0.8,1.2c-5.9,8.5-6.8,8.7-14.8,2.6c-4.4-3.4-9.8-5.6-12.7-10.8c-0.2-0.4-1-1-1-1
		c2.3-3.2-0.3-6.4,0-9.5C377.4,483.4,378.9,482.6,381.3,483.3z"/>
	<path fill="#040302" d="M222.1,126.1c0,3.4,0,6.1,0,8.8c0,2-1,2.5-2.9,2c-6-1.8-8.4-4.5-9.1-10.8c-0.3-2.5-0.3-5-0.3-7.5
		c-0.1-4,0-8-1.4-11.8c-0.6-1.6-0.7-3.3,1-4.3c1.6-1,3.2-0.7,4.6,0.4c4.1,3.2,7.1,7.2,7.5,12.6C221.8,119.2,221.9,123,222.1,126.1z"
		/>
	<path fill="#030208" d="M472.6,171.4c-0.1-5.2,2.5-9.2,6.6-10.6c4.5-1.6,12.2-0.3,14.5,2.5c1.5,1.8,1.4,3.8-0.5,5.2
		c-5.3,3.7-11.4,5.8-17.4,7.6C472.5,177,472.9,173.2,472.6,171.4z"/>
	<path fill="#FA0067" d="M347.2,371.7c-0.2,2.3-1.5,3.8-4.4,3.9c-3.2,0.1-4.7-1.4-4.7-4.8c0-3.2,2-4.3,4.8-4.4
		C346.2,366.3,347.1,368.4,347.2,371.7z"/>
	<path fill="#F80066" d="M336.9,388c-2.2,0.2-3-1.2-3.1-3.4c-0.1-2.3,1.3-2.9,3.3-3.1c2.4-0.2,3.1,1.3,3.1,3.2
		C340.2,386.7,339.4,388.1,336.9,388z"/>
	<path fill="#F10063" d="M358.5,367.5c1.9-0.3,2.8,0.9,2.9,2.8c0.2,2.1-0.9,3.2-3.1,3.2c-2.1,0.1-2.8-1.2-2.9-3
		C355.4,368.5,356.3,367.5,358.5,367.5z"/>
	<path fill="#FCFCFC" d="M385.7,488.2c5.9,3.5,10.8,8.3,16.1,12.6c1,0.8,1,1.6,0.3,2.5c-1,1.3-1.8,2.7-2.8,4
		c-0.9,1.2-1.8,1.2-3.1,0.3c-5.7-3.9-10.5-8.7-13.8-14.9C382.6,490.5,383.7,489,385.7,488.2z"/>
	<path fill="#DA00F8" d="M389.3,478.8c0.4,0.3,0.7,0.5,1,0.7c4.9,5,10.2,9.6,14.2,15.4c0.8,1.2,2,2.7,0.4,3.9
		c-1.5,1.2-2.3-0.8-3.3-1.4c-4.1-3.1-8-6.3-12-9.5c-1-0.8-2-7.6-1.2-8.6C388.7,479,389,478.9,389.3,478.8z"/>
	<path fill="#CE00EA" d="M385.7,488.2c-1.1,1.5-2.1,3-3.2,4.5c-2.5-1.8-0.8-3.5,0.2-5.1C383.8,486,384.8,487.6,385.7,488.2z"/>
	<path fill="#F7F7F7" d="M216.6,133.3c-4.3-2.2-5.1-5.8-4.5-19.5C216.4,115.3,217.5,120,216.6,133.3z"/>
	<path fill="#F4A474" d="M218,110.7c-0.4,0.7-0.8,1.7-1.5,2.3c-1,0.9-1.4-0.5-2-0.9c-2.5-1.3-3.1-3.7-3.8-6.1
		c-0.2-0.8-0.1-1.5,1-1.5C212.2,104.5,217.9,109.9,218,110.7z"/>
	<path fill="#A26E4E" d="M219.2,134.6c0-2.3-0.1-4.6,0-6.9c0.3-3.9-0.1-7.6-1.8-11.2c-0.3-0.6-1-1.4,0.2-1.7c0.7-0.2,1.5,0,1.7,1
		c0.1,0.9,0.4,1.7,0.4,2.6c-0.1,5.4,0.2,10.8,0.8,16.2C220,134.5,219.6,134.6,219.2,134.6z"/>
	<path fill="#FCFCFC" d="M483.2,162.3c0.2,0,0.5-0.1,0.7-0.1c3,0.1,6.8-0.1,7.4,3.4c0.5,3-3.4,3-5.4,4c-2.8,1.3-5.8,2.1-8.6,3.4
		c-2.4,1.1-2.9-0.3-2.8-2.1c0.2-2.1,0.4-4.2,2.1-5.8C478.5,163.6,480.9,163,483.2,162.3z"/>
	<path fill="#1D00CB" d="M483.2,162.3c-2,1.3-4.3,2-6.6,2.8C478.2,162.9,480.5,162.2,483.2,162.3z"/>
</g>
</svg>
