<?xml version="1.0" encoding="utf-8"?>
<!-- Generator: Adobe Illustrator 18.0.0, SVG Export Plug-In . SVG Version: 6.00 Build 0)  -->
<!DOCTYPE svg PUBLIC "-//W3C//DTD SVG 1.1//EN" "http://www.w3.org/Graphics/SVG/1.1/DTD/svg11.dtd">
<svg version="1.1" id="guitar2" xmlns="http://www.w3.org/2000/svg" xmlns:xlink="http://www.w3.org/1999/xlink" x="0px" y="0px"
	 viewBox="0 0 913 691" enable-background="new 0 0 913 691" xml:space="preserve">
<g>
	<path fill="#FDFDFD" d="M456.6,690.9c-151,0-302,0-453,0.1c-3.1,0-3.6-0.7-3.6-3.7C0.1,459.5,0.1,231.6,0,3.7C0,0.8,0.5,0,3.6,0
		c301.9,0.1,603.8,0.1,905.6,0c3.3,0,3.8,0.8,3.8,3.9c-0.1,227.9-0.1,455.8,0,683.6c0,2.7-0.5,3.5-3.4,3.5
		C758.6,690.9,607.6,690.9,456.6,690.9z"/>
	<path d="M739.6,210.8c0.3,0.4,0.8,0.9,0.8,1.2c-1,4.8-8.5,10.7-13.4,10.8c-4.5,0.1-8.2-1.7-10.3-5.6c-1.3-2.4-2.4-2-4.3-1.1
		c-44.5,22.7-89.1,45.4-133.6,68.1c-26,13.3-51.9,26.6-77.8,40c-1.1,0.6-2.1,1.2-3.9,2.2c3.7,1.2,6.8,1,9.9,0.7
		c9.2-0.7,18.1-3.4,27.2-5c3-0.5,5.9-0.8,8.9-1.2c10.2-1.4,17.1,3.8,22.7,11.4c2,2.7,4.9,4.7,5.7,8.5c1.6,7.7-1.3,13.8-6.5,18.9
		c-16.3,15.9-35.5,26.3-58.2,30c-9.2,1.5-16.2-1.2-21.5-9.3c-6.9-10.6-13.3-11.6-24.6-5.6c-14.3,7.7-24.5,19.5-33.6,32.4
		c-8.2,11.6-15.9,23.7-25.8,34c-7.7,8-16.8,14.1-27.3,17.7c-10.3,3.5-21.1-0.4-28.9-9.9c-7.6-9.2-10.9-20.1-13.5-31.3
		c-5.4-23.5-7.2-47.4-6-71.4c0.9-17.7,4.3-34.9,12.9-50.6c2.6-4.8,5.8-9.2,10.3-12.6c6-4.5,12.7-5.2,19.8-4.5
		c10.4,1.1,20.2,5.1,30.5,6.6c13.4,2.1,26.5,2.2,38.5-6c6.8-4.6,10.6-11.3,14.7-17.9c2.7-4.3,4.9-8.9,8-13
		c9.1-12.5,30.7-14,39.7,2.8c1.1-0.2,1.6-2.3,3.1-1.3c1.3,0.9,1.6,2.5,1.8,3.9c0.1,0.9-0.1,2.1-0.7,2.9c-6.1,8.9-4.6,20.4-11.4,29
		c0.3,0.2,0.7,0.5,1,0.7c8-3.5,16.1-6.9,24.1-10.4c65.1-28.3,130.2-56.6,195.3-84.8c3.9-1.7,7.5-4.3,12.1-4.4
		c2.1-0.1,4.8-4.6,4.8-6.8c-0.1-9.9,2.4-19.5,8.6-26.8c7.8-9.2,18-15,31.1-12.2c0.7,0.2,1.6,0.6,2.2,0.4c6.7-2.2,8.7,2.8,11.1,7.2
		c1,1.9,1.7,3.9,2.5,5.8c0.3,0.7,0.4,1.5,1.4,1.5c0.9,0,1.4-0.5,1.7-1.2c1.7-4.6,3.6-9.2,6.5-13.3c0.6-0.8,0-1.4-0.3-2.1
		c-0.7-1.5-1.5-2.9-2.2-4.3c-0.9-2-1.9-4.4,0.3-5.8c2.2-1.4,4.5,0.1,6.4,1.4c0.8,0.5,0.5,3,2.4,1.4c1.3-1.1,4.4-0.5,3.2-4.1
		c-0.9-2.6,2.1-5.7,4.9-5c3.1,0.7,4.8-1,6.8-2.5c8.4-6.1,16.9-11.9,26.9-15.1c4.2-1.3,8.6-2.7,12.7,1c0.9,0.8,1.3,1.5,1.6,2.6
		c0.9,2.8-0.1,6,2.2,8.4c0.3,0.3-0.1,1.2-0.3,1.7c-5.1,13.7-11.5,26.5-23.1,36.1c-1.7,1.4-3.6,2.7-5.4,3.9c-3.4,2.3-7.3,3.8-8.9,8.5
		c-1.3,4-5.1,5.9-9.2,6.9c-3.6,0.9-7.2,2.2-10.8,2.9c-2.1,0.4-2.4,1.5-2.4,3.3c0,5,0.9,10,0.2,15c-2.3,15.6-12.8,27.3-28.8,29.1
		c-11.2,1.2-21.4-2.8-28.3-12.7c-1.1-1.6-1.7-4.2-4.7-3.4c-3.2-0.5-5-2.8-5.9-5.6c-1.2-3.9-1.8-8-2.5-12.1c-0.4-2.1,1.1-3.3,2.3-4.4
		c5.7-5.2,12.3-9,19.4-11.9c2.1-0.8,4.2-1.7,6.4-2.2c11.1-3.4,22.4-5.7,33.9-7.5c0.8-0.1,1.4-0.4,2.1-0.6c4.1-0.8,8.2-1.8,12.4-2.3
		c1.5-0.2,3.5-0.6,3.3,2.1c-3.6,2.2-7.8,1.8-11.7,2.8c-3.5,0.9-7.2,1.5-10.8,2.1c-22.4,5-35.9,9.4-40.8,12.5
		c12.2-5.4,27.1-9.5,42.2-12.8c6.7-1.3,13.5-2.6,20.2-3.8c14.4-3.2,26.5-10.3,34.6-22.6c5.5-8.3,9.6-17.5,11.3-27.5
		c1-5.6-1-7.4-6.8-6.9c-9,0.8-16.1,5.8-23.3,10.5c-10.4,6.9-19.5,15.2-27.2,25c-3.5,4.4-5.4,9.6-6.9,14.9c-0.2,0.7-0.7,1.5,0,2.1
		c0.8,0.6,1.7,0.1,2.4-0.3c1.8-1,2.3-2.9,3.2-4.5c0.9-1.7,1.3-3.5,2.3-5.1c0.5-0.8,1.1-1.8,2.3-1.3c1.1,0.5,1.1,1.6,1,2.6
		c-0.2,1.9-1.3,3.4-2,5.1c7.4-14.7,19.9-23.1,35.3-27.8c1.8-0.5,3.5-1.3,5.4-1.4c0.9,0,1.8,0.1,2.1,1.1c0.3,1.1-0.5,1.7-1.3,2
		c-2.5,1.1-5.3,1.6-7.8,2.7c-1.4,0.6-2.8,1.3-2.9,3.1c-0.5,6.5-4.8,10.8-8.9,15.1c-6.1,6.4-13.9,9.6-22.3,11.4c-3,0.6-6,1.8-9.1,2
		c-11.6,2.3-23.2,4.3-34.4,8c-9,3-17.7,6.7-24.8,13.3c-7.8,7.2-11.7,16.3-13.3,26.5c-0.7,4.2,4.6,7.6,9.3,6.4c3.4-0.9,5.8-3.2,7.8-6
		C736.6,212.1,737.2,209.8,739.6,210.8z"/>
	<path d="M420.4,504.8c-9.1,9.7-18.6,18.8-28.6,27.5c-9.2,8-18.3,16.3-29.9,20.9c-18,7.1-36,7.1-53.8-1c-12-5.5-17.9-17.9-15.7-30.9
		c3.1-18.7,15.4-29.8,30.8-38.5c4.3-2.4,8.9-3.9,13.7-4.8c9.6-1.7,18.2,0.3,25.7,7c4.8,4.3,10.1,8.1,15.2,12.1
		c2.7,2.1,5.6,2,8.8,0.5c12.9-6,22.6-15.8,32.3-25.8c9.3-9.6,18.1-19.7,25.6-30.8c1.4-2.1,2.8-4.1,3.8-6.4c2.1-4.6,5.5-5.3,9.5-2.2
		c9.3,7.5,18.1,15.7,26.8,23.9c10.6,10,21.4,19.9,31.4,30.5c4.3,4.6,4.3,5.5,0.1,10.2c-5,5.4-8,12-11.7,18.2
		c-14.9,25.5-33.1,48.7-51.1,72c-13.9,18-28.6,35.4-44.8,51.3c-14.1,13.9-28.2,28.1-46.8,36.2c-10.9,4.7-22,7-33.8,3.6
		c-7.1-2.1-12.5-6.7-17.6-11.6c-9.2-9-15.8-19.8-20.6-31.7c-3.7-9.3-0.5-17.6,2.4-26.1c1-2.9,2.5-5.7,3.3-8.7
		c3.1-11.5,10.5-19.4,20.4-25.3c12.7-7.6,26.6-11.1,41.4-10.9c8,0.1,14.4,4.4,20.7,8.9c6.8,4.9,12.7,10.9,18.8,16.6
		c1.3,1.2,2,1.6,3.5,0.1c16.5-16.5,33.4-32.7,47.2-51.7c1.4-1.9,3.2-3.8,3.7-6c0.6-2.9-3-3-4.6-4.5
		C437.9,519.8,429.2,512.4,420.4,504.8z"/>
	<path d="M109.1,236.1c-14.4,5.7-24.9,14.9-30.8,28.8c-3.8,8.9-6.2,18.1-5.3,28c0.5,5.1-0.8,9.7-5.1,13c-4.1,3.1-7.8,2.6-10.9-1.6
		c-3.3-4.4-4.5-9.7-5.8-14.8c-7.1-27.7,1.7-51,19.6-71.9c2.3-2.6,5.2-4.3,8.3-5.6c5.8-2.5,8.2-6.7,8-13
		c-0.3-8.6,11.7-15.5,19.1-11.3c12.6,7.2,23.4,17,34.3,26.4c13.4,11.6,26.6,23.4,39.7,35.2c2.4,2.2,3.5,1.9,5.3-0.7
		c6.8-10.4,14.8-19.6,26.9-24c7.8-2.8,15.9-4.9,23.9-7.3c1.4-0.4,2.7-0.4,4,0.1c7.1,3.1,14.6,5,21.7,8.1
		c26.6,11.4,38.1,45.6,21.5,71.6c-7,11-16,19.7-26.9,26.8c-9.9,6.5-20.2,11.7-31.9,14c-9.6,1.9-18.8,0.6-27.6-3.9
		c-12.4-6.4-21.2-16.8-29.5-27.5c-10.2-13.1-19.6-26.7-30.4-39.4c-1.6-1.8-3-2.3-5.4-1.8c-11.5,2.7-16.8,10.9-19.6,21.4
		c-1.9,7.1-3.1,14.4-3.8,21.7c-0.3,3.7-2.5,6.3-5.6,7.8c-3.2,1.5-6.3,0.4-9.1-1.6c-3.9-3-5.8-7.2-6.9-11.7
		C83.1,288,83,273,86.9,258.1c0.9-3.6,2.9-6.3,5.7-8.5c4.6-3.5,9.1-7,13.7-10.4C107.3,238.4,108.3,237.8,109.1,236.1z"/>
	<path fill="#0E007E" d="M456.5,168.2c-9.3-4.8-19.2-8.9-24.1-19.1c-5.7-11.8-2.8-23,2.7-34.1c2.6-5.2,6.7-7.8,12.3-8.7
		c20.9-3.2,39.5,3.7,50.2,24.1c5.4,10.3,9.4,21.2,13.9,31.9c2.5,6,2.5,5.9,8.1,2.9c5-2.7,10.7-3.2,15.9-5.5c0.1,0,0.2,0,0.4-0.1
		c6-2,5.7-2,4.6-8.2c-3-16.8-8.7-32.8-14.7-48.7c-0.6-1.6-1.1-2-2.9-1.3c-7.6,2.9-15.4,5.5-23.5,5.7c-10.5,0.2-19.4-4.1-25.7-12.7
		c-10.1-13.7-11.5-29-7.4-45.1c0.3-1,0.8-2.3,1.6-2.9c8.2-5.6,14.8-13.6,24.9-16.2c10.8-2.8,20.4-0.9,29.4,6
		c11.1,8.4,17.2,19.7,21.8,32.4c5.8,16.1,10.5,32.6,15.3,49c4.1,14.1,7.2,28.3,9.5,42.8c1.5,9.3,3.3,18.6,5.8,27.7
		c1.1,4,1.1,8.3,0.8,12.5c-0.1,1.9-1.5,3.2-3.1,4.2c-6.6,4.3-14.2,6.1-21.3,9.1c-6.8,2.9-13.4,6.2-20.1,9.3
		c-5.3,2.4-10.7,4.6-16,7.2c-2.3,1.2-2.9-0.1-3.4-1.7c-1.8-5.6-2.2-11.4-3.3-17.1c-3.5-18-11.6-33.9-21.6-49c-1.2-1.7-2.3-1-3.5-0.5
		c-6.1,2.2-11.9,5.1-18.5,5.9C462,168.7,459.3,168.7,456.5,168.2z"/>
	<path fill="#010101" d="M290.4,139.6c-0.1,0.9-0.1,1.4-0.2,1.9c-1,6.9,0.6,12.5,7.6,15.6c2.7,1.2,5.1,3.1,7.6,4.7
		c1.3,0.9,1.9,0.8,2.7-0.8c3.4-7.6,11.4-10.9,18.8-7.3c9.2,4.4,15.1,11.8,16.9,21.9c1.7,9.1-3.8,14.5-13,13.2
		c-4.7-0.6-9.2-2.1-13.5-4.2c-15.7-7.4-31.1-15.2-45.6-24.9c-1.6-1-3-2.3-4.5-3.3c-6-4.1-8.1-9.5-7.5-17c0.7-7.9-0.5-15.9-0.9-23.9
		c-0.1-1.9-0.1-3.8,0.1-5.6c0.4-4.2,2-5,5.2-2.2c5.4,4.7,11.7,8.1,17.8,11.7c3.6,2.1,7.4,3.6,11.1,5.4c3.6,1.8,5.2,0.9,6.6-2.5
		c1.4-3.6,4-6.2,7.8-7.5c6.9-2.5,12.8-0.2,18,4.1c4.7,3.9,6.8,8.9,5.2,15.3c-2.3,9.2-7.4,13.2-17.1,12.6
		C305.4,146.4,298,143.5,290.4,139.6z"/>
	<path fill="#010101" d="M180.2,448.1c0,8.9,1.5,18.1-0.4,26.5c-2.2,9.5-4.2,20.4-15.2,25.3c-1.4,0.6-2.7,1.2-4.3,1.2
		c-5.2,0.1-10.5,0.2-15.5-1.1c-9.2-2.4-14.4-10.1-15-20.5c-0.7-12.2,5.2-24.5,18.2-29.2c2.7-1,5.4-1.1,8.1-1.2c2.4,0,3.1-1,3.2-3.3
		c0.9-12.5,1.7-24.9,3.5-37.3c1.1-7.2,2.1-14.3,5-21c1.7-3.8,3.1-4.4,6.6-2.1c4.3,2.9,7.6,6.9,11.4,10.2c5.5,4.7,9,4.6,14.2-0.5
		c3-3,5.4-6.5,7.6-10.2c0.8-1.3,1.7-1.7,3-1.7c1.5,0,1.5,1.3,1.6,2.1c0.4,7.4-0.1,15.1-3.4,21.6c-5.5,10.7-12.9,13.8-25.4,12
		c-3.5-0.5-4.2,0.3-4,3.6c0.6,8.5,0.9,17,1.3,25.4C180.5,448.1,180.3,448.1,180.2,448.1z"/>
	<path fill="#000100" d="M628.5,381.3c-5.5,7-6.6,14-4,21.5c2.1,6,5.5,11.4,9.9,16.1c2.5,2.7,6.3,3.3,9.3,5.3
		c1.6,1.1,4.9,1.6,4.3,3.9c-0.6,2.2-3.7,1.8-5.9,1.9c-5.9,0.2-10.9-2.6-15.5-5.7c-5.2-3.6-10.1-7.7-14.4-12.5
		c-8.7-9.6-9.1-20.8-6.1-32.7c1-4,2.8-7.7,4.8-11.4c-7.8-0.1-10.8-2.1-11.2-7.3c-0.3-3.8,3.7-8.8,7.9-9.8c4.1-1,7.2,1.7,9.5,8.4
		c2.8-1.9,5-4.4,7.9-6.2c13.3-8.2,29.2-2.8,37.9,8.3c6.1,7.7,7.6,16.1,2.9,24.9c-7.9,14.7-27.1,11.9-34.7,1.2
		C630.1,385.7,628.8,384.1,628.5,381.3z"/>
	<path fill="#FD005E" d="M739.6,210.8c-2.1-0.3-2.2,1.7-3,2.8c-2,2.7-4.2,5.2-7.6,6.4c-3.5,1.2-6.6,0.4-9.4-2
		c-2.6-2.2-2.3-4.7-1.7-7.7c3.9-20.2,17.5-31,35.8-37.3c0.8-0.3,1.7-0.3,2.6-0.4c0.9-0.3,1.9-1,2.1,0.7c-7.4,3.2-15,6.1-21.4,11.2
		c-5.5,4.4-6.1,5.7-4.5,12.5c1.1,4.5,1.9,9.1,6.4,11.8C739.2,209.4,739.4,210.1,739.6,210.8z"/>
	<path fill="#040604" d="M623.2,336c1.8,0.1,4.7,1.2,6.3,4.5c1.6,3.3-0.1,6.1-2.4,8.3c-2.3,2.1-4.5,4.5-8.1,4
		c-4.9-0.6-6.6-2.9-6.2-8.3C613.2,339.1,616.4,335.9,623.2,336z"/>
	<path fill="#626262" d="M456.5,168.2c2.8,0,5.5,0,8.3,0C462,169.1,459.3,169.5,456.5,168.2z"/>
	<path fill="#FE0069" d="M402.1,437.2c-7.7,9.2-17.2,15.7-28.5,19.8c-10,3.6-18.2-0.1-25.4-7.6c-6.4-6.6-9.6-15-12.3-23.6
		c-3.1-9.8-4.4-19.9-6.4-29.9c-0.3-1.7,0.6-3.4-0.1-5c-1-2.3,0.8-5-0.9-7.3c-1-3-0.1-6.2-0.5-9.3c-0.6-2.6-0.1-5.2-0.3-7.8
		c0.4-1-0.9-2.6,1-3.2c1.5,24.9,5.3,49.4,15.4,72.5c0.2,0.5,0.3,1,0.6,1.4c0.9,0.9,0.5,3.7,2.7,2.7c2.2-1,0.1-2.6-0.4-3.7
		c-8.6-18.8-12.8-38.8-15.1-59.2c-1.6-14.4-1.4-28.9-1.7-43.4c-0.2-10.2,3.8-19.2,7.1-28.4c1.9-5.2,4.6-10.2,8.1-14.7
		c6.1-7.8,13.9-10.4,23.4-9.1c10.6,1.5,20.8,5.1,31.4,6.7c16.5,2.5,31.9,0.7,44.7-11.3c4.5-4.2,7.3-9.5,10.1-14.7
		c3.1-5.8,6-11.8,11.2-16.2c6.2-5.3,17.1-6.4,23.1-2.3c2.3,1.6,3.3,3.9,4.5,6.3c0.5,1.1,0.5,3.2,2.2,2.8c1.8-0.4-0.7-2.2,0.5-3.2
		c2.8,3.2,3,7.1,2.7,10.8c-0.7,9.3-4.3,17.9-7.7,26.5c-0.6,1.5-0.7,1.4-4.5,2.7c1.9-4.7,3.6-9,5.3-13.3c0.6-1.4,1.2-2.7,1.7-4.1
		c0.4-1,1.3-2.1-0.5-2.8c-1.7-0.6-1.5,1-1.7,1.8c-2.2,5.7-4.4,11.4-6.4,17.2c-0.7,1.9-1.7,3.1-3.6,3.9c-3.8,1.5-7.5,3.4-11.4,4.7
		c-2.3,0.8-3.4,1.9-3.1,4.3c0.3,2.1-0.8,3-2.6,3.9c-30.6,13.6-61.1,27.2-91.6,40.8c-0.9,0.4-1.7,1-3,0.7c0-2.9-0.1-5.9,0-8.8
		c0.1-2-0.8-2.6-2.5-2.9c-7.4-1.2-12.7,2.9-13.2,10.4c-0.3,5.4,0.6,10.7,1.4,16c1.2,7.8,2.9,15.4,2,23.4c-0.3,2.8,0.6,5.2,3.9,5.9
		c1.4,0.3,2.6,0.8,3.4-1.5c0.7-2.1,3.3-2.4,5.4-2.5c1.7-0.1,1.7-0.6,1.4-2.1c-1.5-6.4-1.5-6.5,4.3-9.3
		c29.3-14.4,58.7-28.8,88.1-43.2c1-0.5,2-0.9,3.2-1.4c0,2.2-0.1,4.1,0,5.9c0.2,3.3,1,3.7,3.9,2c5.9-3.5,11.8-7.1,17.8-10.3
		c1.5-0.8,3.4-4.1,5.5,0.3c0.7,1.6,4.7,1.6,7.4,1.6c8.3,0.1,16.3-2.1,24.3-3.8c7.3-1.6,14.6-3.3,22.2-2.8
		c6.6,0.4,14.1,7.5,14.8,14.1c0.2,1.6,0.3,3.2,0.4,4.8c0.1,0.7,0.2,1.7,1.2,1.6c1.1-0.1,0.8-1,0.8-1.8c-0.1-1.9-0.9-3.8-0.3-5.9
		c5.2,5.3,5.7,11.9,1.1,17.9c-7.1,9.4-16.6,15.8-26.6,21.5c-10.3,5.8-21.1,10.2-32.9,11.7c-5.7,0.7-11.5,1-16.3-4.2
		c18.2,3.4,32.7-5.2,47.4-12.8c1.8-0.9,3.6-1.8,5.2-3c0.8-0.6,2.9-0.6,1.8-2.5c-1.1-2.1-2.2-0.1-2.9,0.3
		c-10.1,5.7-20.2,11.5-31.4,14.9c-5.1,1.5-10.3,2.1-15.5,1.7c-3.4-0.2-5.7-2.3-7.8-4.7c-3.5-4.2-7.1-8.4-12.1-11
		c-1.1-0.6-2.3-1-3.5-1.4c-0.5-0.2-1.1-0.2-1.3,0.3c-0.3,0.7,0.1,1.1,0.7,1.4c1.3,0.6,2.7,1.2,4.1,2.2c-7.9-0.2-14.2,3.8-20.7,7.2
		c-0.8,0.7-1.3,0.3-1.7-0.5c0.4-3.2,3.9-3.6,5.3-6c-6.2,4.3-12.3,8.7-17.9,13.8c-6.2,5.5-10.9,12.3-15.6,19.1
		c-6.1,8.8-11.6,18-18.2,26.6c-10.8,14-25,21.3-41.5,21.5c12.1,0,23.9-4.1,33.8-13.1c0.8-0.7,1.5-1.7,2.8-1.6
		C402.3,435.9,402.8,436.4,402.1,437.2z"/>
	<path fill="#FE005F" d="M791.5,164.4c12.4-2.9,25-5.4,33.4-16.3c2.9-3.7,6.3-7.3,5.7-12.5c-0.1-1.5,0.9-1.8,1.9-2.3
		c2.8-1.3,5.9-2.1,8.9-2.9c0.7-0.2,2.1-0.2,1.7-1.5c-0.3-1-1.3-0.5-1.9-0.4c-14.6,3.5-27.3,10.3-36.4,22.5c-2,2.7-3.3,6.1-5.3,10
		c-0.4-3.7,1.4-5.8,2-8.2c0.3-1,1.4-2.4,0.1-3c-1.5-0.7-1.5,1.2-1.9,2.1c-1.1,2.2-2,4.6-3,6.8c-0.3,0.7-0.5,1.6-1.1,1.9
		c-1.6,0.9-3.7,1.9-5.3,1.2c-1.2-0.6-0.1-2.6,0.3-4c2.2-8,6.3-14.9,12-20.9c10.4-10.8,22-19.9,35.3-26.8c4.2-2.2,8.7-3,13.2-3.6
		c2.9-0.4,5,1.1,5.5,4.3c0.7,4.1-0.4,8.1-1.9,11.7c-3.6,8.5-6.1,17.7-12.6,24.7c-8.6,9.5-19,15.9-31.7,18.4
		c-0.5-0.4-0.5-0.9-0.1-1.4c0.2-2.4-1.5-1.4-2.5-1.2c-4.4,0.6-8.7,1.4-13.1,2.1C793.4,165.3,792.1,166.3,791.5,164.4z"/>
	<path fill="#FE005F" d="M734.8,191.5c0.3-0.4,0.4-0.5,0.5-0.6c5-1.3,5-1.3,7.5,3.9c1,2,1.9,4.1,2.9,6.1c0.4,0.9,1,1.4,2.1,0.7
		c0.9-0.6,0.6-1.2,0.2-1.9c-1.7-3.1-3.3-6.1-4.9-9.2c-0.5-1-1.9-2.4-0.1-3.1c1.6-0.6,3.4-2.7,5.2,0c3,4.5,7.3,7.6,11.6,10.8
		c5.1,3.8,16,2.7,19.9-2.5c2-2.6,3.7-5.4,4.7-8.4c0.9-2.5,1.1-5.1,4.1-6.1c1.4-0.5,0.6-1.9-0.2-2.3c-2.6-1.3-1.4-3.7-0.6-4.6
		c1.3-1.4,3.6-1.5,5.6-1.3c0.8,0.1,0.6,1.2,0.5,2c-0.2,2.1-0.5,4.2-0.8,6.3c-0.1,1-0.4,2.1,1.2,2.2c1.4,0.1,1.1-1,1.2-1.8
		c0.2-2.6,0.4-5.2,0.6-7.8c0.1-0.9,0-1.9,1.3-1.7c1,0.2,0.8,1.2,0.7,1.8c-1.3,7,0.7,13.9,0.3,20.8c-0.8,12.3-10.2,23.9-22.3,27.3
		c-11.4,3.2-24.9-1.7-31.3-11.4c-3.3-4.9-5.5-10.3-7.9-15.7C736.3,193.5,736,192.2,734.8,191.5z"/>
	<path fill="#FD0068" d="M715.5,208.9c0.4,2.5-1.5,3.1-3.1,4c-35.3,17.9-70.8,35.5-106,53.6c-38.4,19.8-77.2,38.6-115.9,57.8
		c-6.9,3.4-13.5,7.5-20.2,11.3c-1.5-5.8-1.3-6.3,3.8-8.8c79.4-39,158.9-77.9,238.3-116.8C713.3,209.5,714.2,208.6,715.5,208.9z"/>
	<path fill="#FD0068" d="M367.5,354.9c0,9.1-0.2,18.2,1.8,27.2c0.4,1.7-0.2,2.2-1.5,2.7c-7.4,3-7.8,2.8-7.4-5.3
		c0.4-7.1-1.8-13.8-2.7-20.7c-0.7-5.1-1.4-10.1-1.1-15.2c0.3-4.3,5.3-8,9.5-7.3c1.9,0.4,1.5,1.7,1.5,2.9
		C367.5,344.4,367.5,349.6,367.5,354.9z"/>
	<path fill="#FC0068" d="M467,315c0.8,2.6-0.1,3.6-2.1,4.6c-30.5,14.5-61,29-91.5,43.5c-1,0.5-2.6,2.2-3.4,0.6
		c-0.7-1.5-1-3.7,1.7-4.9c14.4-6.5,28.8-13.2,43.1-19.8c16.9-7.8,33.7-15.6,50.6-23.3C465.8,315.5,466.3,315.3,467,315z"/>
	<path fill="#FD005E" d="M782.1,157.2c-2-1.6-2.3-4.1-4.1-5.7c-5.5-4.9-11.6-4.2-17.5-1.4c-10.5,5.2-18.1,13.1-21.1,24.8
		c-0.6,2.4-1.2,2.8-6.4,5.2c0.4-11.4,3.4-21.4,11.8-29.2c7.5-7,16.2-10,26.4-7.5C777.6,145,782.2,150.8,782.1,157.2z"/>
	<path fill="#FB0067" d="M370.3,373.2c-1.6-3.6,0.5-4.7,3.2-6c30.1-14.2,60.1-28.6,90.2-42.9c1.1-0.5,2.2-0.9,3.4-1.4
		c0.7,2,0.1,3.1-1.7,4c-31,15.2-62,30.4-93.1,45.6C371.7,372.8,371,372.9,370.3,373.2z"/>
	<path fill="#F80066" d="M614.4,248.3c-29.8,14.2-59.7,28.5-89.5,42.7c-17.2,8.2-34.5,16.4-51.8,24.6c-0.9,0.4-2.3,2.4-3.3,0.2
		c-0.8-1.8,0.6-2.6,2.1-3.2c47-21.6,94-43.3,141-64.9C613.8,247.1,614.4,247.1,614.4,248.3z"/>
	<path fill="#FB0067" d="M370.1,355.3c-0.8-2.6-0.5-4.2,2.1-5.3c30.8-13.6,61.5-27.3,92.2-40.9c0.9-0.4,2.1-1.8,2.8-0.4
		c0.8,1.6-0.7,2.3-2,2.9c-5.8,2.6-11.5,5.4-17.3,8c-25.3,11.7-50.7,23.4-76,35.1C371.4,354.8,370.9,355,370.1,355.3z"/>
	<path fill="#F30064" d="M612,254.9c-46.3,22.7-92.5,45.4-138.8,68.1c-1,0.5-2.4,2.3-3.3,0.4c-0.9-1.8,0.9-2.5,2.3-3.1
		c0.3-0.1,0.7-0.3,1-0.5c14.5-6.9,29-13.8,43.6-20.7c31.3-14.9,62.6-29.8,93.9-44.7C611.4,253.9,612,253.8,612,254.9z"/>
	<path fill="#FD005E" d="M769,150.2c6.3,0,12.6,6.6,12,12.8c-0.1,0.7-0.2,1.1-1,1.3c-2.6,0.5-5.1,1-7.7,1.6
		c-1.6,0.4-1.8-0.9-2.4-1.8c-1.5-2.3-3.4-4.5-6.2-4.2c-2.3,0.2-3.4-3.2-5.9-1.4c-5,3.8-10.2,7.2-12.7,13.4c-0.3,0.8-0.5,1.7-0.9,2.4
		c-0.3,0.5-1.1,0.8-1.6,0.4c-0.3-0.2-0.3-0.9-0.2-1.3C745.6,162.8,758.2,150.5,769,150.2z"/>
	<path fill="#EF0062" d="M582.9,252.1c-36.7,16.4-73.5,32.8-110.2,49.1c-0.8,0.3-1.9,2-2.8,0.3c-0.8-1.6,0.7-2,1.9-2.5
		c36.5-15.8,73.1-31.7,109.6-47.6C582.2,250.9,582.9,250.8,582.9,252.1z"/>
	<path fill="#F00062" d="M564.9,265.6c-30.8,14.2-61.5,28.5-92.3,42.6c-0.7,0.3-2,1.9-2.8,0.2c-0.9-1.9,1-2.2,2.2-2.8
		c24.8-11.1,49.6-22.1,74.4-33.1c5.7-2.5,11.4-5,17.1-7.6C564.2,264.4,564.9,264.3,564.9,265.6z"/>
	<path fill="#FCFCFC" d="M783.2,184.3c-4,14.4-14.6,18-25.9,9.1c3.9-1.4,6.8-5,11.5-3.3c1.2,0.4,2.3-0.6,3.4-1.3
		C775.4,186.7,778.9,185.2,783.2,184.3z"/>
	<path fill="#F90067" d="M814.8,153.6c-3.3-1.7-4.5,0.5-5.5,2.6c-0.4,0.9-0.7,1.6-1.6,1.7c-1,0.2-2.3,0.9-3.1-0.1
		c-0.8-1,0.4-1.8,0.7-2.7c0.5-1.2,1.5-1.8,2.8-2.2c4.5-1.5,7.7-4.3,9.3-9c1.6-4.7,6.2-5.9,10-7.7c1.8-0.9,1.1,1.4,0.8,2.1
		c-1.7,5.4-5.4,9.5-9.7,13C817.5,152.3,816.6,154,814.8,153.6z"/>
	<path fill="#DF005B" d="M453.1,375.1c0.3,0.6,0.8,0.7,1.4,0.8c-13.9,9.3-23.7,22.3-33,35.8c-6.1,8.8-11.8,17.9-19.4,25.6
		c-0.2-0.4-0.4-0.9-0.6-1.3c-0.8-1,0.1-1.6,0.6-2.2c7.5-8,13.2-17.2,19.3-26.1c4.7-7,9.5-14.1,15.2-20.3c4.1-4.5,9-8.2,14-11.7
		C451.4,375.1,452.2,374.7,453.1,375.1z"/>
	<path fill="#A90043" d="M582.9,252.1c-0.3-0.6-0.9-0.6-1.5-0.7c9.8-4.3,19.5-8.7,29.3-13c11.4-5,22.8-9.8,34.2-14.8
		c0.7-0.3,1.3-0.8,2.7-0.1C625.7,233.2,604.3,242.6,582.9,252.1z"/>
	<path fill="#EB0057" d="M789.1,169.5c-15.3,3.7-30.2,8.7-45.2,13.6c13.4-8.3,28.4-11.6,43.7-14.3
		C788.3,168.6,789.2,168.1,789.1,169.5z"/>
	<path fill="#F3F3F3" d="M763.5,161.7c-3.1,2.2-5.2,4.1-6.3,7.1c-0.7,1.9-2.9,1.6-4.5,2.2c-1.7,0.7-3.5,1.2-5.4,1.8
		C750.3,165.8,756.6,161.2,763.5,161.7z"/>
	<path fill="#B20047" d="M614.4,248.3c-0.3-0.6-0.9-0.6-1.4-0.7c10.7-5,21.4-10.1,32.1-15.1c4.5-2.1,9.1-4,13.6-6
		c0.2,0.2,0.2,0.4,0.2,0.6c-0.1,0.2-0.1,0.3-0.2,0.3C643.9,234.4,629.1,241.3,614.4,248.3z"/>
	<path fill="#A50041" d="M564.9,265.6c-0.5-0.2-1-0.4-1.4-0.7c12.1-5.5,24.2-11,36.4-16.4c3-1.4,6.1-2.6,9.1-4
		c0.1,0.3,0.3,0.6,0.4,0.9C594.5,252.1,579.7,258.8,564.9,265.6z"/>
	<path fill="#9B003D" d="M612,254.9c-0.4-0.2-0.9-0.4-1.3-0.6c8.3-4,16.5-8.1,24.8-12.1c5.2-2.5,10.5-5,15.9-7.1
		C638.5,242.3,625.4,248.8,612,254.9z"/>
	<path fill="#D6004F" d="M791.5,164.4c0.8,1.1,2.1,0.4,3.1,0.8c-9,2.2-18.3,3.2-27.2,5.8c-3,0.9-6,1.6-9,2.3
		c-0.5-0.8-1.4-0.6-2.1-0.7C767.7,168.4,779.6,166.6,791.5,164.4z"/>
	<path fill="#E5005D" d="M818.5,166.1c-4.9,4.5-11.1,5.6-17,7.5c-1,0.3-1.4,0-1.5-1c-0.2-1.2,0.6-1.8,1.7-2.1
		c3.5-0.9,7-1.8,10.5-2.7C814.3,167.3,816.4,166.7,818.5,166.1z"/>
	<path fill="#E80056" d="M769.2,187.5c0.7-3.4,3.6-5.4,2.5-8.9c-0.3-1.1,3-2.3,4.6-1.9c1.9,0.5,0.3,2-0.1,3
		C775,182.9,773.4,185.9,769.2,187.5z"/>
	<path fill="#EA0060" d="M777.2,182.9c1-1.7,2-3.4,2.8-5.2c0.7-1.7,1.9-2.5,3.6-2.9c0.8-0.2,1.2,0.3,1.1,1c-0.3,1.8,0,3.9-1.7,5.1
		c-1.6,1.1-3.5,1.8-5.2,2.7C777.6,183.4,777.4,183.1,777.2,182.9z"/>
	<path fill="#9D0037" d="M789.1,169.5c-0.5-0.2-1-0.5-1.5-0.7c7.4-2.1,15.1-2.8,22.6-4.4c0,0.5,0.1,0.9,0.1,1.4
		C803.2,167,796.2,168.2,789.1,169.5z"/>
	<path fill="#9A003C" d="M328.5,363.2c-1,0.7-0.5,1.9-0.8,2.8c-0.1,0.4-0.3,0.4-0.5,0.1c0-5.8,0-11.7,0-17.5c0.5,0,0.9,0,1.4-0.1
		C328.5,353.4,328.5,358.3,328.5,363.2z"/>
	<path fill="#E0005B" d="M759.8,168.8c1.6-3.1,2.9-5.6,6.7-4c0.7,0.3,1.4,0.3,1.6,1.1c0.2,1-0.7,1.2-1.4,1.4
		C764.6,167.7,762.4,168.2,759.8,168.8z"/>
	<path fill="#DB0059" d="M755.4,191.2c-1.1,0.1-1.4-0.3-1.6-0.8c-0.2-0.5-0.2-1,0.3-1.3c0.6-0.4,1.3-0.8,2-1
		c1.8-0.5,3.2-2.4,5.4-1.8c0.5,0.2,0.7,0.9,0.2,1.2C759.5,188.9,757.3,190.1,755.4,191.2z"/>
	<path fill="#6C0028" d="M658.7,227.4c0-0.3,0-0.6,0-0.8c4-2.8,8.7-4.2,13.3-5.9C667.7,223.1,663.4,225.8,658.7,227.4z"/>
	<path fill="#C90051" d="M762.8,184.8c2.3-1,3.8-1.7,5.6-2.6c0.6,1.9-0.4,3.2-1.4,3.9C765.7,187.2,764.6,185.7,762.8,184.8z"/>
	<path fill="#AD0045" d="M784.7,163.5c-1.3-3.9-1-4.4,2.4-5C786.3,160.2,785.5,161.8,784.7,163.5z"/>
	<path fill="#D80058" d="M799.8,136c-0.7-0.1-1,0-1.2-0.1c-1.2-1-2.7-1.7-2.9-3.5c0-0.4,0.6-0.9,1.1-0.7
		C798.4,132.5,799.4,133.8,799.8,136z"/>
	<path fill="#777777" d="M737.6,202.7c2.1,1,2.2,2.7,2.5,4.2C738.9,205.9,737.4,205,737.6,202.7z"/>
	<path fill="#767676" d="M327.1,366.1c0.2,0,0.4,0,0.5-0.1c0,2.7,0.1,5.5,0.1,8.2C326.7,371.6,327.1,368.8,327.1,366.1z"/>
	<path fill="#A7A7A7" d="M328.3,383.5c2.4,2.2,0.5,4.9,0.9,7.3C328,388.5,328.9,385.9,328.3,383.5z"/>
	<path fill="#9C9C9C" d="M813,146.1c-0.4,2.5-1.7,2.9-3.6,3.5C810.2,147.8,810.9,146.8,813,146.1z"/>
	<path fill="#DF00FE" d="M393.1,527.8c-0.4,0.4-0.7,0.7-1.1,1.1c-2.4,1.1-3.8,3.2-5.7,4.9c-9.1,7.6-18.2,15.3-29.8,18.9
		c-15.5,4.7-30.9,4.6-45.9-2c-3.6-1.6-7-3.7-9.7-6.8c-0.2-0.6,0-0.9,0.6-0.7c7.2,5.8,16.1,6.2,24.7,7.5c0.6,0.1,1.4,0.2,1.6-0.6
		c0.3-1.1-0.7-1.1-1.4-1.3c-3.6-0.7-7.1-1.2-10.7-2c-13.3-2.8-17.5-8.1-19.4-21.5c-1.2-9,1.2-16.4,6.8-23.2
		c7.9-9.7,17.4-17.1,29.6-20.7c4.7-0.6,9.3-1.8,14-1.5c5.4,4,10.9,8,16.3,12.1c4.6,3.4,9.2,6.9,13.7,10.5c2.3,1.9,3.9,1.9,6.8,0.3
		c11.7-6.4,22-14.6,32.3-23c9.8-8,16.7-18.5,24.2-28.5c3.6-4.9,7.2-9.9,10.6-15c1.7-2.6,3.4-2.5,5.7-0.9
		c6.5,4.6,11.6,10.5,16.9,16.4c10.6,11.7,20.3,24.3,33.3,33.7c1.6,1.2,1.1,2.1,0.3,3.4c-14.6,24.7-29.6,49.2-46.5,72.5
		c-12.2,16.8-25.2,32.9-39.2,48.3c-0.6,0.6-1.3,1.2-1.7,2c-0.5,0.7-1.8,1.2-0.6,2.4c1.4,1.4,1.9-0.1,2.6-0.8
		c7.1-7.9,14-15.9,20.7-24.2c24.8-30.4,45.4-63.5,65.2-97.3c0.8-1.3,1.1-3.8,2.8-3.4c2.2,0.4,4.3,1.9,6.3,3.1
		c0.8,0.5,0.2,1.4-0.3,1.9c-8.9,9.8-13.9,22.1-21.3,33c-27.2,40-56,78.8-90.4,113.1c-10.9,10.8-22,21.5-35.5,29.2
		c-9.5,5.4-19.4,9.3-30.4,9.3c-6.1,0-11.8-1.4-16.9-5.1c7.4,2.7,14.9,1.2,22.4,0.7c1.1-0.1,3.2,0.8,3.1-1.4c-0.1-2.3-2-1.1-3.2-1.1
		c-4.9,0-9.7,1.2-14.6,0.7c-9.5-1-16.2-6.7-21.9-13.8c-8.1-10.1-13.5-21.5-16-34.2c-0.3-1.6-0.5-3.3,0.1-4.8
		c3.5-9.2,5.6-18.8,10.9-27.3c1.7-2.7,3.9-5,6.3-6.9c11.5-8.8,24.4-14.5,38.8-16.4c4.8-0.6,9.3,0.4,13.8,2.3
		c13,5.4,24.2,13.3,34.2,23.1c5.3,5.2,5.4,5,10.3-0.4c18.1-20.2,35-41.4,51-63.2c5.8-7.9,6.4-6.2-1.1-14
		c-8.9-9.2-20.1-15.5-30.1-23.4c-3.3-2.6-5.3,0.3-6.6,2.4c-4.7,7.5-11.7,12.1-18.7,17.1c-3.1,2.2-6.2,4.2-9.2,6.4
		c-0.8,0.6-2.6,0.9-1.8,2.2c0.9,1.4,1.9-0.2,2.7-0.7c4.9-3.2,9.7-6.5,14.6-9.9c5.2-3.5,10.1-7.3,13.5-12.7c0.8-1.3,1.6-2.9,3.6-3.1
		c0.9,2-0.6,3-1.6,4.2c-6.9,8.9-15.4,16.4-23.4,24.2C396.4,524,394.9,526.1,393.1,527.8z"/>
	<path fill="#DE00FD" d="M458.5,522.7c-1.7,2-2.9,4.4-4.8,5.5c-1.6,0.9-3.6-1.1-5-2.3c-5.9-5-11.7-10.1-17.5-15.2
		c-2.4-2.1-4.8-4.3-7.4-6.2c-1.7-1.2-1.7-2.2-0.4-3.5c0.9-0.9,1.7-1.9,2.3-2.9c0.7-1.2,1.4-1.1,2.4-0.4c9.1,7,19,12.8,27.1,21.1
		C456.2,520,457.3,521.4,458.5,522.7z"/>
	<path fill="#CE04E9" d="M480.3,455c10.4,10,20.9,19.9,31.8,30.4C505.5,483.2,492,470.6,480.3,455z"/>
	<path fill="#C305DD" d="M372.6,571.7c4,2,7.2,5.2,10.5,8.2c-9-5.4-18.2-10.2-28.6-13.9c3.4-0.3,6-0.1,8.6,1.1
		C366.2,568.5,369.3,570.2,372.6,571.7z"/>
	<path fill="#B800D1" d="M418.3,576.1c-5.2,6-10.3,11.9-15.5,17.9c-0.5,0.6-1.1,1.1-1.9,0.3c-0.6-0.7-0.5-1.4,0.1-2
		c5.7-5.5,11.4-10.9,17-16.3C418.2,576,418.2,576,418.3,576.1z"/>
	<path fill="#670675" d="M301.6,543.2c-0.2,0.2-0.4,0.4-0.6,0.7c-4.3-3.2-5.3-8-6.3-12.9C296.4,535.4,298.3,539.7,301.6,543.2z"/>
	<path fill="#BDBDBD" d="M346.8,480c-4.6,1-9.3,1.9-14,1.5C337.3,479.8,342,479,346.8,480z"/>
	<path fill="#CDCDCD" d="M372.6,571.7c-3.6-0.7-6.7-2.5-9.5-4.6C366.6,567.7,369.6,569.6,372.6,571.7z"/>
	<path fill="#61006F" d="M357.2,484.8c2.2,0.3,4,1.1,4.5,3.6C360.2,487.1,358.7,485.9,357.2,484.8z"/>
	<path fill="#B5B5B5" d="M386.3,533.8c1.4-2.2,2.7-4.5,5.7-4.9C390.1,530.5,388.2,532.1,386.3,533.8z"/>
	<path fill="#AAAAAA" d="M393.1,527.8c1.3-2.3,2.7-4.4,5.6-5C396.9,524.5,395.3,526.5,393.1,527.8z"/>
	<path fill="#FEDB00" d="M217.8,225.9c1.2,1.5,2.3,0.3,3.3-0.2c11.3-5.5,22.1-2.7,32,3.2c16.8,9.9,21.6,25.8,20.5,44.2
		c-1.6,26.5-17.2,42.2-40.6,51.5c-3.6,1.4-7.3,2.6-10.9,3.9c-1,0.3-2,0.6-1.5,2c0.5,1.4,1.5,0.6,2.2,0.4c24.2-6.2,42.1-20,51.6-43.6
		c2-5,1.2-10.4,1.5-15.6c0.7-12-1.4-23.4-8.8-33.3c-3.9-5.2-8.8-9.1-14.2-12.5c-0.2-0.8,0.1-1.1,0.9-0.9c18.8,6.2,31,18.4,34.5,38.4
		c0.4,5,0.4,10.1,0,15.1c-2.4,14-10,25-20.5,33.9c-8.3,7.1-17.5,13.2-27.5,17.9c-8.2,3.8-16.4,6.2-25.5,6.1
		c-10.1-0.2-18.7-4.3-26.2-10.5c-12.3-10.1-21.6-23-30.9-35.8c-1.1-2.6-2.8-4.6-4.9-6.4c-5.9-7.2-11.7-14.4-17.6-21.5
		c-3.3-3.9-13.4-3-17.9,1.6c-5.1,5.3-8.2,11.8-10.8,18.6c-2.7,7-3.9,14-1.2,21.5c1.7,4.7-0.7,8.7-5.1,9.3c-2.5,0.3-4.7-1.2-7-2
		c-1.1-2.1-1.9-4.4-3.3-6.3c-4.7-15.5-4.1-31-0.6-46.5c0.8-3.4,3.1-5.6,5.7-7.7c4-3.1,8-6,12-9c1-0.8,2-1.6,2.8-2.5
		c2.1-2.2,4.4-4.4,2.5-7.8c-1.6-2.8-6.4-4.1-9.7-2.4c-12.3,6.2-22.7,14.4-27.6,28.1c-4,11.4-7.7,22.7-5.3,35c0.1,0.5,0.1,1,0.1,1.5
		c-0.2,3.1,1,7.2-2.9,8.2c-5.7,1.5-9.9-1.2-11.6-6.2c-8.8-25.9-3.8-49.3,12.2-70.9c3.6-4.9,7.8-9,13.5-11.6
		c5.8-2.6,8.6-7.1,7.9-13.8c-0.5-5,5.5-8.7,10-6.4c13.1,6.6,24.1,15.9,34.7,25.9c14,13.2,27.6,26.7,41.4,40.2
		c2.1,2.1,3.7,1.9,5.4-0.4c4.4-5.9,8.8-11.8,13.3-17.6c4.3-5.7,9.7-10,16.3-12.8C212.5,227.2,214.8,225.5,217.8,225.9z"/>
	<path fill="#FDDA00" d="M97.5,189c3.5-1.2,5.6-0.2,7.7,1c11.3,6.6,21.1,15.1,31,23.5c7.5,6.4,14.7,13.1,22.1,19.6
		c7,6.1,14,12.3,21.3,18.1c3.4,2.7,0.6,4-0.5,5.9c-1.6,2.7-3,0.6-4-0.4c-9.8-9.7-19.5-19.4-29.2-29.1
		c-10.5-10.5-21.4-20.6-33.4-29.3C107.9,194.7,103,192.1,97.5,189z"/>
	<path fill="#F9D701" d="M74.3,264.9c3.6-11.9,9-22.6,20.4-29c2.4-1.3,4.8-2.7,7-4.3c3-2.1,5.7-1.6,8.9,0.9
		c-16.9,6.3-29.3,17-35.7,33.8C73.7,266.3,73.9,265.6,74.3,264.9z"/>
	<path fill="#F2D100" d="M107,299.2c-1.7-2.8-1.3-5.2-0.9-7.4c1.4-7.8,4.6-14.9,8.5-21.8c4-7.1,10-9.2,18-7.7
		C113,266.6,109.8,282.5,107,299.2z"/>
	<path fill="#B29900" d="M253.8,225c-0.3,0.3-0.6,0.6-0.9,0.9c-6-2-11.7-4.9-18.1-5.4C241.7,219.1,247.5,223.1,253.8,225z"/>
	<path fill="#CDCDCD" d="M288.2,278.5c0-5,0-10.1,0-15.1C289.4,268.4,289.4,273.5,288.2,278.5z"/>
	<path fill="#AD9500" d="M74.3,264.9c0.2,0.5,0.4,0.9,0.6,1.4c-0.5,2.2-1,4.5-2.8,7.1C72.5,269.9,73.2,267.4,74.3,264.9z"/>
	<path fill="#D0D0D0" d="M152.7,283.6c2.8,1.3,4.6,3.3,4.9,6.4C156,287.9,154.3,285.7,152.7,283.6z"/>
	<path fill="#DDDDDD" d="M66.4,303.9c-2.7,2-4.4,2.2-6.6,0.2C61.9,303.5,63.6,303.8,66.4,303.9z"/>
	<path fill="#B0B0B0" d="M217.8,225.9c-2.7,0.3-5.1,2.1-7.9,2.2C212.3,226.5,214.7,225,217.8,225.9z"/>
	<path fill="#BABABA" d="M89.8,304.7c2.2,1.5,2.8,3.9,3.3,6.3C91.6,309.2,90.3,307.2,89.8,304.7z"/>
	<path fill="#2600F6" d="M435.9,120.2c2.3-7.2,6.6-10.8,13.3-11.6c14.4-1.8,27.4,1.1,38,11.7c2.8,2.8,4.9,6.2,7.1,9.5
		c0.9,1.3,3.1,3.2-0.1,4.8c-0.9,0.4-0.1,1.3,0.2,2c1,3.4,2.7,6.5,4.8,9.2c5,6.9,9.3,14,12.1,22.1c0.9,2.6,2.9,3.8,5.2,2.1
		c6.3-4.8,14.2-5.5,21.3-8.4c6.8-2.7,6.5-2.6,5.2-9.8c-3.2-17.9-9.5-34.9-15.9-51.8c-1.3-3.5-3-4.3-6.5-3c-6.2,2.2-12.3,4.7-19,5.3
		c-10.4,1-19.2-2.5-25.6-10.6c-6.7-8.5-8.5-18.5-6.9-29.2c1.3-9,4.8-16.7,11.9-22.8c8.2-6.9,17.4-6.7,27-4.4
		c1.9,0.5,3.8,1.2,5.7,1.8c0.6,0.2,1.4,0.7,1.7,0.5c4.5-3,6.3,1.4,8.7,3.3c7.8,6.1,13.6,14.2,15.6,23.5c1.6,7.8,4.6,15,7.2,22.4
		c5.7,16,10.6,32.2,14.5,48.7c2.8,11.7,5,23.6,6.8,35.5c1,6.7,2.8,13.3,4.4,19.9c0.6,2.6,0.5,5.1,0.8,7.7c0.3,2.5-1.2,4.1-3.3,5.4
		c-5.6,3.4-11.9,5-17.9,7.4c-11.8,4.8-23.1,10.6-34.6,16.1c-3,1.4-3.7,0.7-4.3-2.2c-2-9.5-3.2-19.2-6.5-28.4
		c-4.8-13.4-11.6-25.7-19.7-37.3c-1.6-2.3-3.5-2.8-6-1.6c-6.3,2.9-12.9,4.6-19.9,4.3c-10.4-0.4-18.6-4.9-23.5-14.1
		c-5.1-9.5-5.4-19.5,2-28c6-6.9,14.5-8.1,23.4-7.3c1.9,0.2,5.3,1.7,5.5-0.5c0.3-2.6-3.4-1.5-5.2-1.7
		C453,109.3,443.7,111.6,435.9,120.2z"/>
	<path fill="#1700AA" d="M514.1,35c-2.6-0.9-5.2-1.7-7.8-2.6C509.2,32.1,511.8,32.9,514.1,35z"/>
	<path fill="#14009A" d="M464.4,165.3c-3.1,0.5-6.1,1.1-9-0.6C458.4,164.9,461.3,165.4,464.4,165.3z"/>
	<path fill="#14009F" d="M498.7,137.8c0.8,1.6,1.6,3.1,2.4,4.7C499.3,141.5,498.4,139.9,498.7,137.8z"/>
	<path fill="#FEAB79" d="M306.5,174.5c1.6-0.4,2.9,2,3.9-0.1c1-2.1-1.3-2.2-2.3-2.6c-14.2-4.9-25.8-14.6-39.2-20.8
		c-4.2-1.9-5.9-3.8-5.9-8.7c0.1-10.3-0.8-20.7-1.3-31.1c0-0.7-0.3-1.5,0.6-2.4c4.7,4.2,10.1,7.4,15.5,10.5
		c6.5,3.8,13.2,7.1,20.4,9.3c3.8,1.2,4.7,0.6,5.1-3.2c0.8-7.5,4.8-10.5,12.3-9.1c4.9,0.9,8.7,3.6,11.4,7.8c2,3.1,2.3,6.4,0.9,10
		c-0.9,2.1-4,3.4-2.6,6.5c0.1,0.2-0.8,0.9-1.3,1.2c-6.1,4.4-19,3.3-24.9-3.7c3.1,0.3,5.4,2,8,2.8c0.8,0.2,1.8,1.6,2.4,0
		c0.4-1.2-0.8-1.3-1.5-1.7c-3.8-1.5-7.1-4.1-11.5-4c-1.6,0-3.3-1.6-4.9-2.5c-2.2-1.2-3.6-0.8-3.6,2c0,0.1,0,0.2,0,0.4
		c-0.8,21.4-1.3,17.2,13.8,27.2c2.6,1.7,5.4,3.1,8.2,4.5c2.2,1.1,3.6,0.5,3.8-2.1c0.1-1.4,0.3-2.7,0.6-4.1c0.8-4.8,3.4-6.7,8.3-5.9
		c9,1.4,19.6,14.1,19.3,23.3c0,2-0.1,4.1-2.7,4.6c-0.4,0.1-1.2,0.5-1.2,0.8c-0.9,5.1-4.4,3.2-7.1,2.5
		C323.2,184.2,310.2,178,306.5,174.5z"/>
	<path fill="#EBA276" d="M265.6,152c12.5,6.2,24.4,13.7,35.6,22C288.6,167.7,276,161.6,265.6,152z"/>
	<path fill="#CC8960" d="M296.1,139.9c-2.1-1.2-5.8-0.5-5.7-4.9C293,136.2,294.9,137.6,296.1,139.9z"/>
	<path fill="#A36C4C" d="M312,159.6c-0.3,1.7-0.6,3.5-0.8,5.2C309.3,162.8,310,161.1,312,159.6z"/>
	<path fill="#9FFEFE" d="M209.4,387.3c0.3,9.4-1.7,18.2-7.3,25.7c-2.1,2.8-5.6,2.5-8.5,3.1c-4.9,1.1-9.9,1.1-14.9,0
		c-3.4-0.7-5.5,0.5-5.7,4c-0.6,9.5-1,19-1.5,28.4c0,0.7,0,1.3,0.8,1.4c1.5,0.1,1-1.1,1.1-1.8c0.5-8.2,1-16.5,1.5-24.7
		c0.1-1.6-0.1-3.3,1.6-5c0.4,6.4,0.8,12.5,1.2,18.5c0.2,2.6,0.3,5.2,0.3,7.9c0,1.1,0.6,2.2-1.2,3c-1.7,0.7-0.6,2.7-0.4,4
		c1.7,10.2,1.8,20.4-1.1,30.4c-1.4,4.9-3.3,9.5-7.1,12.9c-1.2,1.1-2.7,4.4-5,0.7c-0.7-1.1-2.3,0.1-3.4,0.5c-4.9,1.9-9.9,2.8-15,1.2
		c-8.4-2.8-12-9.4-12.7-17.6c-0.9-10.4,2.7-20.8,13.1-24.3c3.8-1.3,7.6-1.4,11.5-1.2c3.1,0.1,4.5-1,4.8-4.4
		c1.2-17.4,1.6-34.9,5.2-52.1c0.5-2.4,1.4-4.8,1.9-7.2c0.7-2.9,2.1-2.6,3.8-1c2.6,2.3,5.1,4.7,7.8,7c1.7,1.4,3.5,2.8,5.4,3.9
		c6.3,3.5,11.9,2.4,16.6-3.1C205,394.2,206.7,390.5,209.4,387.3z"/>
	<path fill="#78C1C1" d="M150.5,451.4c2.3-0.8,4.8-0.3,7.2-0.6c0.5-0.1,1.1,0.1,1.1,0.7c0,0.8-0.6,1-1.3,1c-2.3,0-4.7,0-7,0
		C150.4,452.1,150.5,451.8,150.5,451.4z"/>
	<path fill="#5CFE53" d="M642.8,426.7c-5.2,0.5-9.7-1.1-13.7-3.8c-7.4-5-13.2-11.4-17.6-19.2c-4-7-3.4-14.2-0.8-21.3
		c3.6-9.8,9.5-18.1,17-25.2c5.5-5.2,12.1-6.8,19-4.3c9.6,3.5,17.3,9.7,19.4,20.4c2.4,12-7,21.3-19.2,20.1
		c-6.6-0.7-11.8-2.7-15.2-8.5c-1.2-2-3.1-4.1-0.9-6.8c0.6-0.7,0-1.5-0.6-1.9c-1.2-0.6-1.5,0.6-2,1.1c-8.8,9.3-10.2,19.1-4.5,30.6
		c2.4,4.7,5.6,8.9,8.8,13c1.5,2,4.1,2.3,6.1,3.5C640,425.3,641.5,425.9,642.8,426.7z"/>
	<path fill="#5BFC52" d="M608.1,365.6c-3.3,0-5.7-2.4-5.7-5.8c0-2.8,4.1-7,6.8-7.1c2.9,0,5.5,3.5,5.5,7.4
		C614.5,363.8,612.3,365.6,608.1,365.6z"/>
	<path fill="#56D94F" d="M607.7,383.1c2.2-11.7,8-21,17.9-27.7c-3.3,4.4-7.1,8.4-10.1,13C612.4,373,609.8,377.9,607.7,383.1z"/>
	<path fill="#5BFC52" d="M615.2,345.1c0.2-4.7,2.6-7.1,6.8-6.9c3.6,0.2,6,2.2,5.9,4.9c-0.1,3-4.6,7.4-7.3,7.4
		C616.5,350.4,615,348.9,615.2,345.1z"/>
	<path fill="#030001" d="M453.1,375.1c-11.4,7-20,16.7-27.4,27.7c-7.6,11.4-14.8,23.1-24.2,33.2c-10.9,10.5-23.9,15.6-39,15.2
		c-0.8,0-2,0.5-2.1-0.8c-0.1-1.2,1.2-1,2-1c22.6,0.4,37.6-11.8,49.3-29.5c6-9.1,11.9-18.2,18.3-27c7.5-10.3,17.9-17.3,27.9-24.8
		c0.7-0.5,1.3-1.2,2.2-0.1c1.1,1.3-0.1,1.8-0.8,2.3C457.3,371.9,455.2,373.5,453.1,375.1z"/>
	<path fill="#0D0005" d="M395.7,378.8c0.1,4.1-2.5,6.7-6.7,6.7c-4.3,0.1-6.8-2.5-6.9-6.9c-0.1-4.1,2.5-6.6,6.8-6.7
		C393.5,371.9,395.6,374.1,395.7,378.8z"/>
	<path fill="#080003" d="M377.9,392.5c0-3.7,1.8-5.5,5.5-5.4c3.4,0,5.4,2.1,5.3,5.7c0,3.4-2.2,5.4-5.8,5.3
		C379.9,398,377.9,395.8,377.9,392.5z"/>
	<path fill="#0C0004" d="M404.8,372.8c3.3,0.1,5.1,2.1,5.1,5.5c-0.1,3.4-2,5.2-5.5,5.1c-2.9-0.1-5-2.5-4.9-5.7
		C399.6,374.7,401.7,372.8,404.8,372.8z"/>
	<path fill="#0A0003" d="M831.7,151.8c-0.3-0.2-0.8-0.4-1.2-0.7c-0.7-0.6-0.1-1.1,0.3-1.5c4.5-5.2,8.7-10.6,12.1-16.5
		c0.3-0.6,0.8-1,1.5-0.7c0.5,0.2,0.6,0.8,0.3,1.3c-3.2,6.5-7.5,12.3-12.2,17.8C832.3,151.5,832,151.6,831.7,151.8z"/>
	<path fill="#150007" d="M839.5,122.8c-0.1,0.7-0.7,0.9-1.3,1.2c-3.5,1.3-7,2.6-10.5,4c-1,0.4-1.9,0.9-2.5-0.5
		c-0.6-1.5,0.7-1.6,1.6-1.9c3.5-1.2,7.1-2.4,10.7-3.5C838.4,121.8,839.2,121.4,839.5,122.8z"/>
	<path fill="#0A0003" d="M770.2,211.2c-1.6-0.1-3.2-0.2-4.9-0.3c-0.8-0.1-1.5-0.2-1.5-1.2c0-1.2,0.8-1.4,1.8-1.3
		c1.2,0.1,2.5,0.1,3.7,0.3c10,1.2,17.4-2.7,22.7-11.2c0.6-1,1.2-1.9,1.8-2.8c0.3-0.5,0.7-1.1,1.4-0.7c0.7,0.4,0.5,1,0.2,1.6
		c-4.5,7.8-9.7,14.6-19.7,15.4c-1.9,0.2-3.7,0.3-5.6,0.4C770.3,211.4,770.3,211.3,770.2,211.2z"/>
	<path fill="#090003" d="M777.2,219.2c-0.1,1.1-0.6,1.5-1.7,1.2c-4.7-1.3-9.3-2.6-14-4c-0.5-0.2-1.3-0.2-1.3-1.1
		c0.1-0.8,0.7-1,1.4-0.8c4.8,1.1,9.7,2.2,14.5,3.4C776.8,218.1,777.3,218.5,777.2,219.2z"/>
	<path fill="#010001" d="M483.3,485.6c-0.3,0.7-0.4,1.6-0.9,2.3c-3.2,5.5-7,10.6-10.8,15.6c-2.4,3.1-5.1,2.3-7.3,0.2
		c-7.9-7.5-17-13.5-25.2-20.4c-2.4-2-2.5-3.6-0.6-6.1c3.7-4.8,7.2-9.9,10.7-14.9c0.6-0.9,1.3-1.8,1.8-2.8c2.5-5.3,3.4-5.6,7.4-1.4
		c5,5.3,10,10.8,14.8,16.3c2.1,2.4,4.4,4.4,7,6.1C482,481.7,483.2,483.2,483.3,485.6z"/>
	<path fill="#020206" d="M549.4,187.4c0.1,2.6-1.8,5-4.5,6.8c-5.6,3.8-12.1,5.1-18.3,7.4c-0.3,0.1-0.8,0.3-1.1,0.2
		c-3.5-2-4.2-5.7-5.2-9.1c-0.8-2.6,0.8-4.2,3.2-5.1c5.9-2.3,11.8-4.6,17.8-6.8C546.5,178.7,549.3,180.8,549.4,187.4z"/>
	<path fill="#060403" d="M280.3,137.7c0,2,0,4,0,6c0,0.9,0,1.7-1,2.2c-1.3,0.6-1.9-0.4-2.4-1c-3.3-3.9-5.6-8.2-6.7-13.2
		c-1-4.3,0.2-7,2.9-7.3c3.1-0.4,6.1,1.8,6.9,6.2c0.4,2.3,0.3,4.7,0.5,7.1C280.4,137.7,280.3,137.7,280.3,137.7z"/>
	<path fill="#FA0067" d="M389.5,383.1c-3.6-0.1-5-1.7-4.9-5.1c0.1-3.3,2.3-4.1,5.1-4.1c3.4,0,4.1,2.3,4,5
		C393.6,381.8,391.8,383.1,389.5,383.1z"/>
	<path fill="#F90066" d="M383.4,395.5c-2.4,0.2-3.1-1.3-3.1-3.5c0-2.3,1.5-2.8,3.4-3c2.4-0.2,3,1.4,3,3.3
		C386.7,394.3,385.8,395.7,383.4,395.5z"/>
	<path fill="#F10063" d="M405.1,375c1.9-0.3,2.7,1,2.9,2.8c0.2,2.1-0.9,3.2-3.1,3.2c-2.1,0.1-2.8-1.2-2.9-3
		C401.9,376,402.8,375,405.1,375z"/>
	<path fill="#FDFDFD" d="M453.1,472.6c1.6-0.1,2.4,0.7,3.1,1.6c5.6,5.9,11.7,11.2,17.9,16.4c2,1.6,2.1,3,0.4,4.8
		c-0.5,0.5-0.9,1.2-1.4,1.8c-4.8,6.3-5.2,6.7-10.8,1.1c-5-5-10.8-8.8-16.1-13.2c-2.3-1.9-2.7-3.2-0.3-5.3c1.9-1.7,3.5-3.9,5.2-5.8
		C451.8,473.3,452.6,472.9,453.1,472.6z"/>
	<path fill="#DE00FD" d="M455.1,457.9c0.6,0.6,1.4,1.1,1.9,1.7c5,5.6,10,11.1,14.8,16.8c2.2,2.6,4.9,4.5,7.5,6.6
		c1.8,1.5,1,6.1-1.1,6.8c-1.2,0.4-1.8-0.6-2.5-1.3c-5.8-5.3-12.3-9.8-17.3-15.8c-0.2-0.3-0.5-0.6-0.8-0.7c-5.9-1.9-4-7-4.5-11
		C452.9,459.7,453.9,458.7,455.1,457.9z"/>
	<path fill="#D600F3" d="M450.4,464c1.2,3.5,2,6.6-1.5,9.2c-2.3,1.7-4.1,4.3-6,6.6c-0.7,0.9-1.3,1.4-2.4,0.7
		c-1.4-0.9-0.3-1.7,0.1-2.4C443.9,473.3,447.2,468.6,450.4,464z"/>
	<path fill="#FDFDFD" d="M546.9,186.4c0.3,2.4-1,4.1-2.8,5.4c-5.3,3.9-11.8,5.1-17.9,7.3c-1,0.3-1.4-0.1-1.7-0.8
		c-0.4-0.8-0.6-1.6-1-2.4c-2.1-5.5-2.1-5.5,3.3-7.6c5-1.9,10-3.8,15-5.5C545.8,181.3,546.9,182.1,546.9,186.4z"/>
	<path fill="#D9D9D9" d="M272.2,129.9c3.6,2.4,4.2,3.9,3.6,9.4C273.5,136.5,272.8,133.4,272.2,129.9z"/>
	<path fill="#B87B56" d="M272.5,127.5c1.6-1,2.8-0.6,3.6,0.7c0.1,0.2-0.1,0.9-0.3,1C274.3,129.6,273.8,127.8,272.5,127.5z"/>
</g>
</svg>
