<?xml version="1.0" encoding="utf-8"?>
<!-- Generator: Adobe Illustrator 18.0.0, SVG Export Plug-In . SVG Version: 6.00 Build 0)  -->
<!DOCTYPE svg PUBLIC "-//W3C//DTD SVG 1.1//EN" "http://www.w3.org/Graphics/SVG/1.1/DTD/svg11.dtd">
<svg version="1.1" id="Layer_1" xmlns="http://www.w3.org/2000/svg" xmlns:xlink="http://www.w3.org/1999/xlink" x="0px" y="0px"
	 viewBox="0 0 742.7 675.2" enable-background="new 0 0 742.7 675.2" xml:space="preserve">
<g>
	<g>
		<path fill="#FDFDFD" d="M371.7,675.1c-122.5,0-245,0-367.6,0.1c-2.8,0-3.4-0.6-3.4-3.4c0.1-222.5,0.1-445.1,0-667.6
			c0-2.8,0.6-3.4,3.4-3.4c245,0.1,490.1,0.1,735.1,0c2.8,0,3.4,0.6,3.4,3.4c-0.1,222.5-0.1,445.1,0,667.6c0,2.8-0.6,3.4-3.4,3.4
			C616.7,675.1,494.2,675.1,371.7,675.1z"/>
		<path d="M255.4,518.3c-1.3,2.8-1.5,5.2-1.3,7.6c0.8,6.6,0.1,13.3,3,19.8c2,4.4-1.2,8.3-6.8,8.6c-3.3,0.2-3.7,1.5-3.8,4.2
			c-0.8,18.9,0.7,37.7,3,56.4c0.6,5.2,0.4,6.2-4.9,7.1c-28.1,4.8-56.3,9.8-84.4,14.8c-3,0.5-4.8-0.3-6.2-3.1
			c-4.8-9.9-6.4-20.3-3.8-30.9c1.4-5.7,3.9-11.1,4.5-17.2c0.7-7,4.1-13.4,8.7-18.6c7.9-8.9,11.3-19.4,12.5-31
			c1.1-10.9,5.2-20.3,14.5-26.7c1.2-0.8,1.2-1.8,1.2-3.1c0-5.1-2.1-8-7-10.4c-13.8-6.7-26.2-15.5-35.9-27.6
			c-4.8-5.9-8.3-12.7-12.4-19.2c-1.6-2.5-3.2-5.1-4.8-7.6c-1.5-2.4-2.4-4.3-6.4-2.7c-6.1,2.4-14.7-1.8-18.8-8
			c-3.9-6-5.2-12.7-5.1-19.6c0-2.2-0.3-2.9-2.6-2c-12.1,4.7-19.4-2.8-20.1-13.4c-0.4-6.7,0.1-13.2,4.5-18.8c0.7-0.9,1.6-2.2,1-3.4
			c-0.6-1.1-2.1-0.5-3.1-0.4c-12.7,0.5-21.8-13.5-16.2-25c2.6-5.3,5.8-10.2,9.9-14.4c3.1-3.2,3.1-6.2,1.4-10.1
			c-3.2-7-7.6-13.5-9.5-21.1c-4.6-18.8-3.3-37.2,3.7-55.1c6-15.3,12.8-30.3,19.2-45.4c0.4-0.9,0.7-1.9,1-2.8c0.6-1.9,0.6-3-2-2
			c-2.5,0.9-5.2,1.5-7.8,2.4c-13,4.1-20.4-1.2-24.5-13.7c-4-12.3,2.1-25.4,13.3-29.9c13-5.3,26.9-0.3,33.4,12.3
			c5.9,11.5,6.2,23.4,2.3,35.6c-2.4,7.6-6,14.8-8.7,22.3c-7.4,20.5-10.1,41.9-10.7,63.6c-0.8,29.2,7.8,56.1,20.7,82
			c9.3,18.7,20.6,36.1,33.9,52.2c5.4,6.5,10.9,12.9,17.7,18.5c-1.8-4.9-3.6-9.9-5.3-14.8c-16.7-45.7-33.4-91.3-50-137
			c-0.7-1.9-1.6-3-3.5-3.9c-6.7-3.1-9.5-11.8-6.2-18.2c3.4-6.5,12.6-8.9,19.7-5.2c6,3.2,8.9,11.8,4.7,17.4
			c-2.9,3.9-1.9,6.7-0.6,10.4c19.5,54.4,38.9,108.7,58.2,163.2c1.4,3.8,3.1,6.9,6.8,8.8c2.1,1.1,3.9,2.5,6.8,4.4
			c-1.8-5.5-3.2-10-4.7-14.6C162.2,385.4,140,318.1,118,250.8c-0.6-1.8-1.5-3-3.1-3.9c-2.5-1.4-4.5-3.5-6.1-6
			c-3.6-5.8-2.6-12.1,2.7-16.4c5-4.1,11.8-5.1,16.8-2.4c5.5,3,8.2,8.7,7.4,15.5c-0.3,2.4-1.3,4.3-2.9,5.9c-1.6,1.5-1.7,2.9-1.1,5
			c22.8,71.2,45.6,142.5,68.2,213.8c0.9,3,2.3,4.7,5.4,5.1c1.7,0.2,3.3,0.9,5.6,1.5c-1.6-5.5-3.1-10.6-4.6-15.6
			c-25.7-85.3-51.4-170.7-77.1-256c-0.7-2.4-1.9-4-4-5.5c-9.1-6.4-9.4-20-0.7-25.3c6.9-4.2,17.6-0.4,22.1,7.6c3,5.4,3.3,13.1-3,16.9
			c-1.8,1.1-0.8,2.3-0.4,3.5c9.2,31.5,18.5,62.9,27.7,94.4c17.4,59.5,34.9,118.9,52.4,178.4c0.4,1.5,0.2,3.8,1.9,4.2
			c2.6,0.6,5.5,0.9,8.2,0.6c1.7-0.2,0.5-2.1,0.2-3.1c-3.7-14-7.4-27.9-11.2-41.9c-19.6-73.7-39.3-147.4-58.8-221.1
			c-1-3.7-2.8-6-6-7.9c-5.7-3.3-8.1-9.1-5.9-14.1c3-6.9,9-9.8,16.1-10.4c5.5-0.5,10.3,1.4,12.7,6.6c3.2,7,3.5,13.5-2.7,17.8
			c-2.4,1.7-1.4,3.4-0.9,5.2c9.5,37.2,19.1,74.4,28.7,111.5c13.2,51.5,26.5,103.1,39.6,154.7c0.7,2.7,1.7,3.4,4.3,3.1
			c9-0.9,18.1-1.2,26.8,1c11.3,2.8,20.1,8.8,23.7,20.9c3.6,11.9-2.3,24.7-14.8,30.4c-7.2,3.3-14.5,4.3-22.1,1
			C259.9,524.1,257.5,521.7,255.4,518.3z"/>
		<path d="M646,328c6.5,6.2,12.2,11.7,16.1,18.8c6,10.9,6.6,28.2-5.7,38.7c-3.8,3.2-7.3,6.8-10.9,10.3c-8.4,8.2-18.8,9.1-29.7,7.6
			c-22.5-3.1-41.3-13.9-58.1-28.7c-27.4-24-49.8-52.2-70.3-82.2c-9.6-14-19.1-28-28.5-42.2c-5.5-8.4-5.6-8.9,2.5-14.7
			c17.1-12.3,31.3-27.9,47.6-41.1c3.8-3.1,7.6-6.1,11.7-8.8c3.3-2.1,6-1.7,8.6,1.2c3.5,4,6,8.6,8.6,13.1c8.6,14.8,18.2,28.9,30,41.4
			c7.7,8.2,16.3,15.4,26.3,20.6c2.7,1.4,4.9,1.8,7.9,0.2c7-3.7,14.5-6.6,21.6-10.4c9.4-5,18.9-5,29-2.1
			c13.9,3.9,25.9,10.8,35.8,21.4c3.4,3.6,3.5,8.5,4.4,12.9c2,9.6,1.6,18.9-3.9,27.4c-5.8,9-14.8,13.1-24.6,15.6
			C658.7,328.5,652.8,329,646,328z"/>
		<path d="M529.4,505.3c-2.1,3.6-4.4,6.7-7.4,9.4c-5.1,4.4-8.6,4.1-12.6-1.3c-2.6-3.5-3.2-7.6-2.1-11.7c1.9-7.5,7.1-12.2,13.6-15.7
			c3.2-1.8,5.5-0.5,9,4.4c1.7-6.1,2.4-12.3,4.5-18c5.3-14.6,13-27.7,25.9-36.7c11.6-8.1,24.5-9.9,37.8-3.6c6.4,3,12.5,6.4,16,13.2
			c1.8,3.5,2.5,7.2,2.6,10.8c0.5,19.2-7.1,34.8-23,45.6c-7.8,5.3-16.9,5.8-25.4,0.6c-2.9-1.7-3.6-0.4-3.9,2
			c-0.9,6.8-2.3,13.5,0.7,20.2c1.5,3.5,3.8,6.2,7.1,7.9c10.8,5.6,21.8,6.5,33.1,1.1c5.2-2.5,10.4-4.8,16.1-5.8
			c1.5-0.3,3.2-0.7,4.1,0.8c0.9,1.5-0.4,3-1.5,3.9c-17.1,15.2-35.5,27.2-59.9,24.7c-3.8-0.4-7.7,0-11.5-1c-2.7-0.7-4.8-2.2-6-4.6
			c-3.6-7.2-7.1-14.6-9.2-22.4c-0.8-2.9-3.1-4.5-4-7.1C531.3,516.5,529.7,511.1,529.4,505.3z"/>
		<path d="M256.1,240.6c0.5,5.1,3.6,8.9,6.7,12.6c1,1.1,2,2.2,3,3.4c2.5,3.2,5.5,5.3,9.8,5c1.4-0.1,2.8-0.1,4.1,0.3
			c4.6,1.3,8.2,0.2,11.2-3.7c1.7-2.2,4.4-2.6,6.7-1.1c2.4,1.5,2.9,3.9,1.9,6.6c-5.1,14.5-16.8,21.1-32.7,16.4
			c-10-3-18.3-8.5-23.9-17.5c-2-3.2-4.2-4.9-8.2-3.2c-2.1,0.9-3.8-0.5-5.1-2.2c-3.5-4.6-4-9.5-1.8-14.8c2.2-5.4,5-10.6,8.2-15.5
			c6.9-10.6,12.6-21.8,18.7-32.8c0.5-0.9,0.9-1.8,1.3-2.7c2.4-5.8,1.8-7.5-3.5-10.6c-14.5-8.6-21.9-21.6-22.2-38.2
			c-0.2-13.6,6.6-23.8,18.6-29.5c12-5.8,23.8-4.8,34.5,4.5c10.6,9.2,19.3,19.2,22.1,33.6c3.4,17.3-3.1,30.9-14.5,43
			c-5.8,6.2-12.1,11.9-16.1,19.6c-4.5,8.8,0.1,15.6,5.3,21.1c0.9,0.9,2.2,0.6,3.2,0.5c5.3-0.6,10.6-0.5,15.8-2.3
			c1.3-0.4,3.2-0.1,4.3,1.4c1.4,1.8,1.8,3.9,1,6c-0.9,2.5-2.6,4.5-4.6,6.3c-4.3,3.7-9.1,6.7-14.3,8.8c-7.5,3-14.2,1.1-20-4.2
			C262.1,248,259.1,244.3,256.1,240.6z"/>
		<path d="M437.9,386.3c-2.2-2.8-4.7-4.6-6.7-7.1c-8.1-10.6-5.7-28.8,1.1-36.3c5.4-5.9,12.6-4.7,17-0.3c8,7.8,9.6,18.2,4.8,30
			c-0.3,0.8-0.7,1.6-1,2.4c-2.3,5.4-2.3,5.3,3.2,8.1c4.2,2.2,8,5,10.9,8.8c6.1,8,4.5,17.4-3.5,23.6c-9.2,7-19.5,8.5-30.6,7.2
			c-1.4-0.2-3.8-1.8-4.2,0.9c-0.4,2.6,0.9,4.2,4.3,4c5.2-0.3,9.1,2.5,9.6,6.4c0.8,6.2-5,10.3-11.2,8.1c-8.5-3.1-13.4-11.7-11.5-20.5
			c0.3-1.3,0.5-2.1-0.9-3.1c-9.3-6.8-9.9-14-5.8-22.8c4.2-8.9,13.5-12.7,22.9-9.8C436.7,386.2,437,386.2,437.9,386.3z"/>
		<path fill="#000101" d="M395.7,282.3c-0.6,9.7-1.2,18.9-5.3,27.6c-6.3,13.6-17.4,20-32.1,14.7c-2.6-0.9-6.3-3.2-7.5-2.3
			c-2,1.6-0.9,5.3-0.9,8.1c-0.2,20,0.1,40-2.5,59.8c-0.7,5.2,0,11-1.9,15.5c-4,9.8-6.2,20.9-15.4,27.6c-5.8,4.2-12.4,6-19.5,2.8
			c-1.3-0.6-2.9-0.6-4.4-0.7c-13.4-1.1-21-13.6-22.9-24.5c-2.3-13.3,1-25.3,8.6-36c2.1-3,5.7-5.4,9.1-7c4.9-2.3,10.2-4.4,15.9-3.2
			c3.4,0.8,4.4-0.7,4.8-3.9c2-17.6,4.2-35.2,7.3-52.6c2-11.1,5-21.8,9-32.3c1.6-4.1,6.1-4.9,8.8-1.3c2.7,3.5,4.8,7.3,7.4,10.8
			c5.8,7.9,13.6,10.9,23.2,9.2c2.7-0.5,4.3-2.3,5.8-4.3c2.6-3.7,4.4-7.8,6.4-11.8c0.7-1.3,1.5-2.6,2.3-3.8c0.5-0.7,1-1.5,2.1-1.1
			c1,0.4,1.2,1.2,1.2,2.1C395.5,278,395.6,280.4,395.7,282.3z"/>
		<path fill="#0A0066" d="M536.1,113.5c-0.2-11.6,9.7-21.7,22.5-18.6c10.9,2.6,19.5,8,24,18.7c1.7,4.1,3.8,8.1,5.4,12.3
			c0.9,2.3,2,2.7,4.2,1.8c3.4-1.5,6.9-2.8,10.4-4.2c1.9-0.7,2.3-1.9,1.7-3.8c-2.9-9.3-5.9-18.5-9.2-27.7c-0.8-2.2-1.9-2.1-3.7-1.5
			c-5.6,1.8-11.1,3.2-17.1,3c-8-0.2-15.3-6.9-16.4-14.5c-2-13,2.5-24,13.3-31.1c6.6-4.2,13.9-2.6,19.9,1.4
			c9.5,6.2,14.2,16.1,17.8,26.3c5.7,16.1,10.5,32.4,15.3,48.8c1.7,5.6,2.8,11.4,4.1,17.1c1.7,7.3,0.9,9.7-7.7,13.2
			c-9.5,3.9-18.2,9.3-27.4,13.8c-4.2,2-6.4,1-6.8-3.6c-0.9-10.5-5.5-19.7-10.6-28.6c-4.8-8.4-5.1-8-14.8-5.7
			c-7.9,1.9-15.4,1.1-21.2-5.4C537,121.8,536,117.8,536.1,113.5z"/>
		<path fill="#010000" d="M366.6,143.5c1.4-9.5,0.7-19.1,0.9-28.7c0-1.2,0.1-2.5,0.3-3.7c0.6-3.3,2.2-4,4.9-2
			c9.6,6.9,20.4,11.3,31.6,14.9c3.4,1.1,4.7,0.3,5.9-2.9c4.2-11.7,18.6-15.3,27.9-7.1c10,8.8,5.7,23.4-5.3,27.9
			c-4.6,1.9-9.4,2.3-14,0.9c-5.8-1.7-11.8-2.2-17.4-4.3c-1.9-0.7-2.3-0.4-2.3,1.6c-0.2,12.4,3.8,17.8,15.6,21.2
			c2,0.6,2.8,0.1,3.1-1.7c0.8-5.7,5.5-8.1,9.5-10.9c2.6-1.8,5.9-1.4,8.7-0.2c8.5,3.5,15.1,9.3,18.4,18.1
			c3.9,10.2-2.3,18.8-13.1,18.8c-7.7,0-14.5-3.1-21.4-6.2c-14.5-6.6-29.2-12.8-43-20.9c-1.4-0.8-2.7-1.7-4.1-2.6
			C368,152.9,365.4,149.2,366.6,143.5z"/>
		<path fill="#020402" d="M534.2,460.3c0.5,5.2-1.4,10.4-3.8,15.3c-2.3,4.7-5.6,6.6-9.3,6.1c-4.6-0.7-9.6-4.9-10.4-9
			c-1.5-8.3,3.2-19.8,14-22.1C530.6,449.2,534.3,452.9,534.2,460.3z"/>
		<path fill="#FE9E00" d="M113.3,388.6c8.7,13.6,17.6,27,28.3,39.1c5.7,6.5,11.6,12.7,17.5,19c0.7,0.8,1.4,2.3,3,1.2
			c1.5-1,0.3-2.1,0-3c-17.6-47.6-35.2-95.3-52.8-142.9c-1.2-3.3-2.5-6.5-3.6-9.8c-1.3-3.8-2.7-7-6.8-9.1c-4.7-2.4-5.8-9.7-3-14.3
			c2.8-4.8,10.5-6.6,16-3.7c4.7,2.4,6.7,8.4,4.6,13.6c-1.1,2.8-3,4.8-5.6,6.7c3.6,2.8,4,7,5.3,10.8c19.6,54,39.1,107.9,58.6,161.9
			c1,2.8,2.5,5,5.3,6.4c2.7,1.3,5.2,3,7.8,4.4c1,0.6,2,1.3,3.4,0.3c1.7-1.2,0.3-2.3,0-3.2c-9.9-30.2-20-60.4-30-90.6
			c-13.7-41.5-27.5-82.9-41.2-124.4c-1-2.9-2.3-5.2-5-7c-6.2-4.3-7.6-11.1-3.8-15.8c4.7-5.7,13.2-6.8,18.4-2.4
			c5.2,4.4,5.7,12.9,0.7,17.7c-2.1,2-2.8,2.9-1.3,6.2c3,6.4,4.6,13.4,6.8,20.2c19.9,61.6,39.8,123.2,59.7,184.9
			c1.2,3.8,2.6,7.6,3.6,11.4c0.5,2,1.6,2.9,3.6,3.2c2.6,0.4,5.2,1,7.7,1.5c4,0.9,4.1,0.8,3-2.9c-4.1-13.4-8.1-26.7-12.2-40.1
			C182.6,366.5,164,305.2,145.4,244c-5-16.6-10.1-33.2-15.1-49.8c-0.5-1.8-1.4-3.3-3.1-4.3c-3.6-2.2-5.7-5.6-6.3-9.7
			c-0.8-5.5,1.4-10.2,5.5-12c5.1-2.3,12.3-0.7,16.2,3.6c2.3,2.6,3.8,5.5,4.2,9c0.3,2.6-0.1,5.6-2.2,6.8c-5.7,3.3-4,7.5-2.6,12.1
			c16.7,56.1,33.3,112.2,50,168.3c10.1,34.2,20.3,68.4,30.4,102.6c0.8,2.6,1.9,3.8,4.7,3.6c2.2-0.2,4.5-0.1,6.7,0
			c2.9,0.2,4-0.4,3.1-3.8c-4.5-16.1-8.7-32.3-13.1-48.4c-19-70.5-38-140.9-57-211.4c-0.6-2-1.2-4.1-1.6-6.2c-0.6-4-2.7-6.5-6.2-8.6
			c-7.5-4.4-7.5-11.7-0.4-16.8c2.5-1.8,5.2-2.9,8.3-3.3c6.2-0.7,10.8,1.7,12.8,6.8c2.6,6.8,1.4,11.5-4.8,15c-3.1,1.8-1,3.4-0.6,4.9
			c5.4,21,10.9,42,16.3,63.1c17.8,68.6,35.5,137.1,53.3,205.7c0.7,2.8,2,4,4.9,3.7c7.7-0.7,15.5-1,23.2,0
			c8.9,1.1,16.4,4.8,22.2,11.9c1,1.2,2,2.5,2.2,5.3c-7-9.7-16.6-12-26.9-12.6c-4.5-0.3-9-0.3-13.5,0.2c-16.6,1.8-32.9,1.6-48.8-4.2
			c-0.9-0.3-2.4-1.5-2.9,0c-0.5,1.5,1.4,1.3,2.3,1.7c15.1,5.6,30.6,6.3,46.5,4.9c10.2-0.9,20.5-1.3,30.3,2.7
			c5.2,2.1,9.1,5.6,11.7,10.6c0.6,1.2,0.5,3.3,3.1,3c0.9-0.1,0.6,1.4,0.7,2.2c0.7,9.4-5.7,18.9-15.2,22.7
			c-6.1,2.4-12.2,3.5-18.5,1.1c-1.8-0.7-3.3-1.7-4.7-2.9c-3.8-3.3-4.3-5.4-1.4-9.5c1.4-2,2-4.9,5.4-5.6c1.1-0.2,1.8-3.6,1.3-5.4
			c-0.5-1.8-2.3-0.4-3.5-0.5c-5.7-0.5-11.4-1-17.1-1.6c-6.5-0.7-12.9-1.4-19.2-3.2c-5.3-1.5-10.3-3.7-14.5-7.5
			c-0.7-0.6-1.3-1.8-2.4-0.5c-1,1.2,0.1,1.8,0.8,2.4c4.2,3.9,9.4,6.1,14.8,7.6c10.7,3,21.7,3.3,32.6,4.3c4.7,0.5,4.8,0.4,2.3,4.6
			c-1.3,2.3-2.7,4.5-4.1,6.7c-2.6,4.4-3.9,9.2-3.2,14.3c0.9,6.9,0.6,13.9,2.2,20.8c0.3,1.4-0.1,2.2-1.3,2.6c-1.4,0.4-2.9,1-4.3,1
			c-20.9-0.5-38.9-11.4-45.7-30.8c-2.8-7.8-2.1-16-1.3-24.1c0.5-5.1,1.3-10.2,1.6-15.3c0.3-4.1-0.2-8.3-3-11.7
			c-0.4-0.5-0.7-1.1-1.5-0.8c-0.7,0.3-0.8,0.9-0.3,1.5c4.2,5.4,2.7,11.6,2.2,17.7c-0.2,2.6-0.9,5.2-1,7.8c0,3-1,2.9-3.3,1.8
			c-10.9-5.3-21.2-11.8-30.4-19.7c-9.3-8.1-17.5-17.1-23-28.3c-2.6-5.4-5.8-10.5-10.1-14.8c-0.9-0.9-1.4-1.4-2.7-1.2
			c-18.4,3.3-26.7-12.8-22.7-27.8c0.3-1.1,1.5-2.4,0.1-3.4c-1.1-0.8-2.4-0.1-3.6,0.4c-1.4,0.6-2.7,1.2-4,2c-6.6,3.6-13.7,0.3-15-7.2
			c-1.3-7.3,1.1-13.9,4.2-20.2c1.1-2.2,0.8-3.3-0.8-4.9c-2.5-2.5-5.7-3.6-8.5-5.3c-9-5.6-10.3-12-6.2-21.8c2.2-5.4,5.3-10.3,8.8-15
			c1.1-1.5-0.1-2.6-0.6-3.8c-4.2-10.2-7.7-20.5-9.6-31.4c-3.7-21.4-0.4-41.6,9.5-61c5.2-10.2,10.5-20.4,12.6-31.9
			c0.5-2.8,0.8-5.7,0.7-8.5c-0.2-3.7-2.3-5.5-5.8-4.3c-3.9,1.3-7.7,2.9-11.5,4.5c-1.6,0.7-1.8,1.5,0.3,1.9c0.8-0.3,1,0.1,0.9,0.8
			c-7.7,2.7-12.8,1.1-17.1-5.5c-7.5-11.3-4.8-26,6-32.6c11.6-7,26.6-2.9,33.1,9.4c5.5,10.3,6.3,21.2,3,32.3c-1.2,3.9-2.1,8-4.8,12.3
			c2.2-9.7,3.6-18.6,3.4-27.7c-0.2-6.3-1.3-12.4-3.8-18.2c-0.3-0.6-0.1-1.7-1.3-1.5c-1.2,0.2-0.8,1.1-0.6,1.7
			c7.5,18.8,2.5,37.1-2.4,55.3c-4,14.8-9.1,29.3-11.9,44.4c-2.9,15.4-2,30.8,0.4,46.2c7.1,45.5,27.3,84.7,57,119.3
			c16,18.6,34.5,34.2,56,46.2c0.9,0.5,2,2.1,3,0.2c0.9-1.8-1.1-2-1.9-2.5c-8.3-4.9-16.3-10.1-24-16c-15.8-12.3-29.7-26.6-41.9-42.5
			c-6.8-8.9-13.2-18.1-18.4-28.1C111.9,389.1,112,388.5,113.3,388.6z"/>
		<path fill="#FE9E00" d="M243.7,574.2c-0.2,13.9,0.9,27.7,2.7,41.4c0.3,2.2,0,3-2.4,3.2c-27.8,2.9-55.2,8.4-82.3,15.2
			c-2.3,0.6-3.2,0.2-4.3-1.9c-6.4-12.3-2.8-23.7,6.7-33.7c7.9-8.2,17.4-14.2,27.2-19.7c4.9-2.7,7.3-6.2,7.4-11.8
			c0.2-6.6,0.5-13.2,1.7-19.8c0.7-4.1,2.2-7.9,4.4-11.5c0.9-1.6,1.7-2.7,3.4-0.4c8.5,10.7,19.8,16.5,33.2,18.4
			c2,0.3,2.4,1.1,2.4,2.9C243.6,562.5,243.7,568.4,243.7,574.2z"/>
		<path fill="#FE9E00" d="M193.1,499c5.7,1.8,5.8,1.8,5.7,7.5c-0.2,8.7,1.5,16.9,6.3,24.3c0.3,0.4,0.7,0.8,0,1.5
			c-3.2-3.5-4.4-0.8-5.7,1.9c-5.1,10.8-8.2,21.9-6.8,34c0.2,1.5-0.2,2.3-1.4,3c-12,6.9-22.8,15.2-33.1,25.7
			c-0.4-5.6,1-10.1,2.9-14.5c2-4.8,5.3-8.8,8.7-12.6c4.6-5.1,6.9-11,7.7-17.8c0.9-7.3,2.2-14.5,5.1-21.4c2.7-6.7,6.9-12.1,12.3-16.7
			c0.8-0.7,2.8-1.2,1.6-2.8c-1.4-1.9-2.4,0.2-3.2,0.9c-6,4.8-10.3,10.8-13.3,18.3c-0.1-4,1.5-8.4,4.3-12.2c0.5-0.7,1-1.4,1.7-2
			c2.5-2.4,5.3-4.6,7.6-7.2C195.9,505.8,191.9,502.4,193.1,499z"/>
		<path fill="#E79000" d="M197.4,549.9c-0.5,6.7-1.1,13.4-1.5,20.1c-0.2,2.4-1.2,3.8-3.2,5.1c-8.1,5.1-16.3,10-23.9,16
			c-0.7,0.3-0.8-0.1-0.7-0.7c7.5-7,15.8-12.9,24.7-18.1c1.6-0.9,2.1-1.6,1.7-3.7c-1.2-7.1,0.1-14.1,2.1-21
			C198.4,547.9,197.4,549.1,197.4,549.9z"/>
		<path fill="#F39801" d="M73.2,340.2c-5.7,12.2-7.2,22.7,6.4,29.6c-4.3,1.4-7.2-0.2-10.5-5.4C63.6,355.9,64.5,349.7,73.2,340.2z"/>
		<path fill="#E79000" d="M71.4,254.4c-4.6,18.6-4.1,37,0.9,55.4c-7.9-18.5-7.3-37.3-1.6-56.2C71.3,253.5,71.7,253.6,71.4,254.4z"/>
		<path fill="#F89A00" d="M159.2,601c-2.4,2.1-3.1,5.3-4.7,7.9c-1.6,2.6-1.4,5.7-2.4,8.7c-1.7-5-1.8-13,2.7-19.4
			c0.9,1.2,0.9,4.4,3.5,1.8C159,599.9,159.3,600.2,159.2,601z"/>
		<path fill="#C07700" d="M125.1,436.8c-8.7,1.1-15.1-2.5-18.7-9.8c-3.6-7.3-4.5-17.6-1.5-20.6C103,421.9,106.9,433.5,125.1,436.8z"
			/>
		<path fill="#D28200" d="M113.3,388.6c-0.6,0.3-0.6,0.9-0.7,1.4c-7-11-12.3-22.9-16.7-35.1c-0.2-0.8,0.1-0.9,0.8-0.7
			c4.1,10.6,9.2,20.8,14.9,30.7C112.2,386.1,112.7,387.3,113.3,388.6z"/>
		<path fill="#D78600" d="M78,234.7c4.5-10.3,8.9-20.7,13.4-31c-1.9,11.8-7.8,21.9-12.8,32.5C77.4,236.1,77.5,235.5,78,234.7z"/>
		<path fill="#E48E00" d="M161.1,575.2c4-7,9.5-13,12.9-20.4c-0.2,9.3-7.7,14.4-12.1,21.2C161.3,576.2,160.9,576,161.1,575.2z"/>
		<path fill="#CB7E00" d="M82.6,289.5c-0.5-9,0.7-17.8,3-26.5c-0.7,10.3-1.9,20.6-1.7,30.9C81.7,293,83.6,290.8,82.6,289.5z"/>
		<path fill="#A36400" d="M86,378.3c-3.3,7.5-4.2,14.4-3.2,22.3C79.3,394.1,80.7,383.5,86,378.3z"/>
		<path fill="#A56600" d="M78,234.7c0.2,0.5,0.4,1,0.6,1.4c-2.4,6.1-4.8,12.1-7.2,18.2c-0.2-0.3-0.5-0.5-0.7-0.8
			C72.4,247,74.9,240.8,78,234.7z"/>
		<path fill="#7E4C00" d="M96.6,354.2c-0.3,0.2-0.5,0.5-0.8,0.7c-3-6.9-5.4-13.9-6.3-21.5C91.9,340.3,94.3,347.2,96.6,354.2z"/>
		<path fill="#C87C00" d="M78.7,197.2c-0.3-0.3-0.6-0.6-0.9-0.8c3.7-1.4,7.3-2.9,11-4.2c0.8-0.3,2.1-0.8,2.4,0.7
			c0.2,1.1-0.9,1.2-1.8,1.4C85.9,195.2,82.3,196.2,78.7,197.2z"/>
		<path fill="#7E4C00" d="M82.6,289.5c1.3,1.2,0,3.2,1.3,4.4c-0.2,5.3,1.3,10.5,0.6,15.9C83,303.1,82.5,296.3,82.6,289.5z"/>
		<path fill="#A56500" d="M159.2,601c-0.3-0.3-0.6-0.6-0.9-0.9c3.1-3.4,6.1-6.9,9.8-9.6c0.2,0.2,0.5,0.4,0.7,0.7
			C165.6,594.4,162.4,597.7,159.2,601z"/>
		<path fill="#7D4C00" d="M197.4,549.9c-0.3-0.7,0.2-1.8-0.8-2.3c0.8-2.7,1.6-5.5,2.5-8.2c0.3,0.1,0.6,0.2,0.9,0.3
			C199.1,543.1,198.3,546.5,197.4,549.9z"/>
		<path fill="#985D00" d="M161.1,575.2c0.3,0.3,0.6,0.6,0.9,0.9c-1.2,2.4-2.5,4.8-3.7,7.1C158.3,580.2,159.2,577.5,161.1,575.2z"/>
		<path fill="#5A3500" d="M87.5,325.6c-1.4-2-2.2-4.2-1.8-7.5C87.8,320.7,86.9,323.3,87.5,325.6z"/>
		<path fill="#4E2D00" d="M135.4,442c1.7,1.7,2.9,3.8,3.1,6.5c-1.3-2-2.6-4-3.9-6C134.8,442.3,135.1,442.1,135.4,442z"/>
		<path fill="#DF00FE" d="M521.7,333.9c-10.1-11.5-19.4-23.7-27.9-36.3c-11.4-16.8-23.5-33.2-34.1-50.6c-2.9-4.7-3.1-5.1,1.3-8.2
			c17.5-12.5,32.2-28.4,48.7-42c3.6-2.9,7.3-5.6,10.9-8.5c2.1-1.7,3.2-1.1,4.6,1c10.3,15.3,20.8,30.5,32.8,44.5
			c10.3,12,22.1,22.7,33.8,33.3c3.1,2.8,6.9,3.2,10.4,4.7c0.5,0.2,1.5-0.6,2.3-1.1c3.5-2.1,7.1-4.2,10.5-6.5
			c13.6-8.7,27.8-8.6,42.1-2.4c13.5,5.9,23.8,15,29.3,29.2c4.4,11.2-1.6,27.4-14.4,31.4c-3.8,1.2-7.4,3-11.5,3.1
			c-5.2,0.3-10.3,0.6-15.4-0.9c-0.2-0.6-0.3-1.3-1.1-1.2c-13,1.1-23.3-5.6-33.4-12.2c-7.2-4.7-13.6-10.1-19.3-16.9
			c-5.4-6.5-12.9-11.3-19.3-17c-4.3-3.8-8.5-7.7-12.7-11.6c-2-1.9-3.7-2.7-6.4-0.9c-9.6,6.1-19.2,12.1-29.2,17.6
			c-5.1,2.8-5.1,3.8-1.8,8.8c5,7.4,11.3,13.6,17.2,20.2c5.9,6.6,12.3,12.7,18.7,18.7c2.9,2.7,4.9,6,7.2,9.1
			c3.4,4.7,5.7,5.2,10.7,2.5c9.5-5,18.7-10.6,29.3-13.2c13.8-3.4,26.2,0.7,37.6,8.1c8.5,5.4,15.3,12.4,18.5,22.3
			c2.7,8.5,2.2,16.4-5,23c-5.4,5-10.4,10.4-16.2,15c-3.3,1.5-6.9,2.6-10.3,3.7c-4.5,1.3-9.1,0.9-13.6,0.2
			c-17.5-2.6-33.1-9.6-47.2-20.3c-11-8.3-20.9-17.7-30.4-27.6c-1.6-3.2-4.8-5-6.8-7.9l0,0c-1.5-2.3-3.6-4.1-5.6-5.9
			c-0.2-0.2-0.4-0.4-0.5-0.7C524.9,336.5,523.2,335.3,521.7,333.9z"/>
		<path fill="#FEFEFE" d="M618.2,318.7c-10.1-0.3-19,1.8-27.7,5c-7,2.6-13.6,6.1-20.1,9.9c-1.7,1-2.7,1.1-4.5-0.4
			c-10.9-9.3-19.1-20.9-28.1-31.9c-3.9-4.8-7.5-10-11.3-14.9c-1.4-1.7-1.2-2.6,0.8-3.6c9-4.3,17.3-10,25.7-15.3
			c2.2-1.4,3.4-1.2,5.3,0.6c10.4,9.7,21.3,18.8,31.4,28.8C598.3,305.5,606.9,313.4,618.2,318.7z"/>
		<path fill="#DE00FD" d="M690.2,300c-1.5-17.1-11.5-28.5-25.6-36.8c-8.9-5.2-18.5-7.9-28.9-8c-6.1-0.1-11.5,1.9-16.8,4.4
			c-6.2,2.9-11.9,6.9-17.8,10.3c-1.7-3-1-4.6,2.1-6.1c9.6-4.5,19.1-9.1,29-13.1c3.9-1.6,7.8-1.3,11.8-0.7
			c16.6,2.8,31.1,9.7,42.7,22.1c1,1,1.8,2,2.2,3.4c2.1,7.7,3.7,15.6,2.6,23.7C691.2,299.7,691,300.4,690.2,300z"/>
		<path fill="#DD00FC" d="M658.6,348.1c-10.4-13.6-24.2-21.3-41.1-23.1c-8.5-0.9-16.6,1.5-24.2,5.2c-6.1,2.9-12.1,5.9-18,9.2
			c-2.3,1.3-3.5,0.5-4.5-1.2c-1.5-2.4,1.2-2.3,2.1-2.9c10.9-6.4,22-12.2,34.9-13.7c9.1-1.1,17.5,1.7,26.1,3.6
			c10.9,2.5,17.5,10.5,23.9,18.7c0.7,0.8,1.1,1.9,1.6,2.8C659.9,347.7,659.8,348.1,658.6,348.1z"/>
		<path fill="#C500E1" d="M537,306.1c-5.3-6.2-11.4-11.9-15.1-19.4c0.3-0.3,0.7-0.5,1-0.8c5,6.4,10,12.9,15,19.3
			C538.1,306,537.8,306.2,537,306.1z"/>
		<path fill="#B600CF" d="M598.8,269c-3.7-1.2-5.8-3.7-8-6.1C593.4,264.7,598,263.8,598.8,269z"/>
		<path fill="#E2E2E2" d="M645.3,324.8c5.1,0.3,10.3,0.6,15.4,0.9c-4.7,1.3-9.4,0.9-14.2,0.5C645.6,326.1,645.1,325.7,645.3,324.8z"
			/>
		<path fill="#7E0090" d="M537,306.1c0.3-0.3,0.6-0.6,0.9-0.9c2.4,2.7,4.8,5.4,7.1,8.1c-0.3,0.3-0.6,0.5-0.9,0.8
			C541.8,311.4,539.4,308.7,537,306.1z"/>
		<path fill="#9F13B2" d="M658.6,348.1c0.6-0.3,0.7-0.8,0.7-1.4c2.3,2.6,3.4,5.7,3.7,9.3C661.5,353.4,660,350.7,658.6,348.1z"/>
		<path fill="#C3C3C3" d="M629.8,400.7c3.2-1.8,6.6-3.2,10.3-3.7C637,399.2,633.7,400.7,629.8,400.7z"/>
		<path fill="#CFCFCF" d="M531.8,345.1c2.7,2.3,5.9,4.1,6.8,7.9C536.3,350.3,533.3,348.4,531.8,345.1z"/>
		<path fill="#6F007F" d="M690.2,300c0.4-0.2,0.9-0.5,1.3-0.7c0.5,2.8-1.3,4.9-2.5,7.2C689.4,304.3,689.8,302.1,690.2,300z"/>
		<path fill="#9F00B5" d="M565.7,335.9c2.6,1,3.5,3.2,5.1,4.9C567.9,340.5,567.1,339.6,565.7,335.9z"/>
		<path fill="#D3D3D3" d="M526.2,339.2c2.6,1.3,4.8,2.9,5.6,5.9C529.3,343.8,527.9,341.3,526.2,339.2z"/>
		<path fill="#D2D2D2" d="M521.7,333.9c2.1,0.9,3.9,2,4,4.6C524,337.3,522.8,335.6,521.7,333.9z"/>
		<path fill="#5CFE53" d="M577.6,503.2c-4.4,0.7-7.4-2.4-11.1-3.9c-0.3-0.1-0.7-0.8-0.7-1.2c0.1-1.1,0.9-2.3-1.1-2.4
			c-1.8,0-1.3,1.6-1.6,2.5c-1.2,4.3-1.3,8.9-2.3,13.2c-2,9.1,2.5,15.6,7.1,22.2c4.2,5.9,10.8,6.8,17.3,7.2c4.5,0.3,9,0.1,13.5,0.1
			c1.1,0,2-0.4,3.2-1.1c6.3-4,12.8-7.5,20.2-10.2c-0.2,0.8-0.2,1.3-0.3,1.4c-9.3,7.5-18.3,15.9-29.9,19.5
			c-10.2,3.2-20.7,5.7-31.6,3.3c-6.5-1.4-10.4-5-12.2-11.9c-2.9-10.9-6.4-21.5-6.6-32.9c-0.3-19.1,3.1-37.3,13.9-53.4
			c10.2-15.2,26.4-23.3,44.8-19.3c6.7,1.4,11.4,6.2,13.1,13c3.7,14.6-0.8,27.5-9,39.4c-3.9,5.6-8.6,10.3-15.1,12.9
			c-0.6,0.2-1.2,0.3-1.8,0.4C584.2,503.1,580.8,502.7,577.6,503.2z"/>
		<path fill="#5BFC52" d="M545.5,544.5c-8.3-17.9-13.3-36.5-10.5-56.5c2-14.2,8.3-26.5,17.3-37.6c5-6.1,11.3-10.8,16.6-16.5
			c0.6-0.6,2.6-0.1,3.9-0.5c6-1.8,11.9-3.8,18.3-2c1.3,0.4,2.7,0.5,4,1.8c-7.6-0.3-14.6,0.9-21.3,3.9c-9,4-15.8,10.4-21,18.6
			c-11.3,17.9-14.5,37.6-13.3,58.4c0.6,10.3,4,19.9,6.8,29.7C546.4,544.5,546.1,544.7,545.5,544.5z"/>
		<path fill="#5BFD52" d="M509.2,505.3c0-5.8,7-15.6,12.2-17.3c2.3-0.7,5.5,1.3,6.4,4.2c2,6.7-0.3,12.5-4.2,17.8
			c-0.3,0.4-0.6,0.8-1,1.1c-2.1,1.5-3.1,5.3-6.7,4.1C511.9,513.8,509.2,509.5,509.2,505.3z"/>
		<path fill="#2D8828" d="M544.5,456.3c3.1-5.7,6.7-11,12-14.8C552.9,446.7,548.3,451.2,544.5,456.3z"/>
		<path fill="#3F923B" d="M545.5,544.5c0.3-0.2,0.5-0.5,0.8-0.7c1.4,4.1,2.9,8.1,7.4,10.1C547.6,553.4,547.2,548.4,545.5,544.5z"/>
		<path fill="#E3E3E3" d="M577.6,503.2c3.2-0.8,6.5-1.3,9.8-1.2C584.4,504.5,580.9,503.4,577.6,503.2z"/>
		<path fill="#FEDB00" d="M266.4,219.8c0.1,9.6,9.9,18.8,19,17.9c4.1-0.4,8.2-0.8,12.3-1.5c3.2-0.6,3.4,1,2.8,3.3
			c-0.6,2.4-2.1,4.2-3.9,5.8c-4.7,4.3-10.6,6.6-16.2,9c-4.1,1.8-8.3-0.7-11.8-3.3c-4.7-3.5-8.1-8-11.3-12.9
			c-0.9-1.4-1.5-3.8-3.7-2.9c-1.9,0.8-2.5,3-2.6,5.2c-0.3,4.5,1.6,8,4.5,11.1c2.1,2.3,4.4,4.4,6.6,6.6c3.9,4,8.7,6.1,14.3,5.9
			c2,0,4,0.2,6,0.5c3.4,0.6,6.2-0.3,8.3-3c0.5-0.7,1.2-1.3,1.9-1.8c0.9-0.7,1.9-1.5,3-0.8c1,0.7,0.6,1.8,0.4,2.8
			c-1,5.1-3.7,8.9-8.1,11.6c-9.3,5.8-18.6,6.9-28.5,1c-6-3.6-11.2-7.9-14.9-13.8c-2.2-3.5-4.7-6.1-9.5-3.9c-1.6,0.7-4.3-3-4.1-5.9
			c0.2-4.3,1.9-8.2,3.5-12.2c4.6-11.4,10.6-22,17.2-32.3c3.9-6,6.6-12.6,9.1-19.3c0.4-1.2,0.1-1.6-0.6-2.5c-3.9-5.5-9.6-9-14.7-13.2
			c-3.9-3.2-7.3-6.9-8.7-11.5c-1.5-4.8-3.9-9.6-3.4-14.9c0.4-3.8-0.4-7.7,0.5-11.5c1.9-8.3,8.5-12.1,15.1-15.6
			c13.5-6.9,25.1-3.6,35.3,9.5c4.5,5.7,7.9,12.1,11.1,18.6c0.4,0.9,0.4,2.9,2.3,1.9c1.9-1,0.2-2.2-0.2-3.1
			c-4.5-9.6-9.8-18.5-17.8-25.6c-0.1-0.9,0.2-1.2,1.1-1.1c13.8,10.5,23.1,23.5,23.6,41.5c0.3,11.4-4.8,20.6-11.8,29
			c-3.8,4.5-7.7,8.8-11.7,13.1c-3.8,4.2-7.1,8.6-9.1,14c-0.8,0.4-1,1.5-1.9,1.8c-2.5-1.5-0.9-3.3-0.1-4.7c2.5-4.3,5.2-8.4,7.7-12.7
			c-3.5,5.5-7.8,10.6-9.6,17C267.7,218.4,267.2,219.2,266.4,219.8z"/>
		<path fill="#090800" d="M266.4,219.8c1.5-7.7,6.3-13.6,10.2-20.1c0.5-0.8,0.8-2,2.2-1.1c1.3,0.9,0.5,1.7-0.1,2.5
			c-2.7,4.2-5.4,8.3-8,12.6c-0.7,1.1-1.8,2.2-0.7,3.7c0.3,0.2,0.4,0.5,0.4,0.9c-0.4,1-0.9,1.9-1.9,2.3
			C267.7,220.3,267,220.1,266.4,219.8z"/>
		<path fill="#CAAF06" d="M280.8,118.3c-0.4,0.4-0.7,0.7-1.1,1.1c-5.3-4.1-11.1-7-18-7.2C269.1,110.9,275.4,113.3,280.8,118.3z"/>
		<path fill="#D2B70F" d="M268.4,220.5c-0.2-1.2,0.6-1.8,1.5-2.3c2,0.7,0.9,2.5,1.3,3.7c0,2.9,2.1,5.2,2.5,8.5
			C270.3,227.6,269.9,223.8,268.4,220.5z"/>
		<path fill="#816E00" d="M256.4,248.5c-2.2-1.4-3.9-3.1-3.3-6.9C254.5,244.5,255.5,246.5,256.4,248.5z"/>
		<path fill="#CFCFCF" d="M271.2,222c-0.5-1.2-0.3-2.7-1.3-3.7c0-0.3,0-0.6,0-0.9c0.5-0.7,1-1.4,2-1.4
			C271.7,218,271.5,220,271.2,222z"/>
		<path fill="#FD005E" d="M444.8,378.8c1.1-4.1,1.2-8.4,0.7-12.6c-0.3-2.5-0.4-5.9-4.6-5.3c-1-0.2-1.2-0.7-0.6-1.5
			c0-0.7,0.8-1.5-0.1-2c-0.7-0.4-1.1,0.1-1.5,0.6c-5.2,6.3-5.4,15.5-0.5,22.1c-3.8,0.4-5.2-2.5-6.5-5c-4.2-8.5-4.6-17.2-0.5-25.9
			c1.9-4.1,4.5-7.7,9.6-7.7c5.3,0,8.1,3.8,10.6,7.7c3.9,6,3.7,12.6,1.8,19.1c-1,3.6-2.5,7-4.3,10.4c-0.8,1.6-1.8,2.3-3.5,1.8
			C444.3,380.4,444.3,379.7,444.8,378.8z"/>
		<path fill="#FD005E" d="M450.1,390.8c1.2,1,1.9,0.5,2.5-0.7c0.2-0.7,0.5-1.2,1.4-0.9c2.2-0.6,2.5-1.6,0.4-2.8
			c-1.7-1-3.9-1.3-5.8-3.1c7.9,0.4,19.1,10.1,20.2,17c0.9,5.9-2.9,11.8-8.6,13.8c-1.5,0.5-2.7,1.8-4,2.7c-1.6,1.1-3.2,2.5-5.4,2.4
			c-0.3-1.5,0.7-2.4,1.6-3.2c5.6-4.8,6.8-11,5.1-18.5c1.1,7.5,0.2,13.8-5.8,18.4c-1.1,0.8-1.4,2-0.8,3.3c-5.2,2.6-10.6,1.6-15.9,0.4
			c-0.7-0.2-1.5-0.3-2.2-0.5c-1.1-0.4-3.5,0.5-2.9-1.5c0.5-1.8,0.3-5.1,4.1-4.5c3.2,0.5,6.5,0.7,9.6-0.1
			c10.9-2.8,13.4-12.5,5.6-21.4C449,391,449.3,390.6,450.1,390.8z"/>
		<path fill="#FBFBFB" d="M433.2,410c2.1-4.2,3.8-8.6,6.7-12.4c1.4,1.1,1,2.7,1.4,3.9c0.6,1.8,0.9,3.9,3.5,3.3
			c2.4-0.6,3-2.4,2.7-4.6c-0.3-2.5-1.2-4.8-2.1-7.1c-0.3-0.7-0.8-1.3-0.5-2.1c5.1,2.8,7.9,9.5,5.8,14
			C448.3,410.4,440.6,412.6,433.2,410z"/>
		<path fill="#F7005C" d="M416.2,411.8c-3.9-5.9-3.5-11.6,1.1-17.9c3.9-5.3,10.9-8.1,16.8-6.6c0.9,0.2,2.7,0,2.4,1.7
			c-0.2,1.2-1.6,0.8-2.6,0.9c-6.9,0.6-12.3,4-16.2,9.6C415.1,403.2,414.7,407.4,416.2,411.8z"/>
		<path fill="#F7005C" d="M422.9,421.5c0,1.7,0,3.3,0,4.9c0,2.5,0,2.5,2.6,2.1c0.8-0.1,0.9,0.6,1.2,1.1c2.8,4.8,6,6.1,11.1,4
			c2.6-1,2.5,0.3,2.5,1.9c0,3.2-2.6,5.3-6.1,5C426.3,439.6,419.9,429.1,422.9,421.5z"/>
		<path fill="#EC0057" d="M425.3,395.2c-1.1,4.3-1.4,8.2,0.4,12c0.5,1.1,0.1,2.5-1.2,2.6c-1.1,0.1-1.4-1.2-1.4-2.3
			c-0.1-0.7,0.1-1.5,0-2.2c-0.2-1.1,0.8-2.9-1.2-2.9c-1.7,0-1,1.7-1.1,2.7c-0.3,2.3-0.1,4.5,1.9,6.1c1.1,0.9,1.3,2,0.3,2.9
			c-1,0.9-1.8-0.3-2.4-0.9c-3.7-3.7-3.7-9.1,0.1-13.9C421.8,397.7,423.1,396.3,425.3,395.2z"/>
		<path fill="#F0F0F0" d="M427.3,405.4c-1.3-3.3-1-5.9,0.1-8.6c0.8-1.8,2.2-2.6,4-2.9c1.5-0.2,2.1,0.3,1.2,1.9
			C431,398.9,429.3,401.9,427.3,405.4z"/>
		<path fill="#E5E5E5" d="M442.1,362.4c2.1,4.1,2.3,6.9,1.1,13.2C439.7,372.7,439.2,367,442.1,362.4z"/>
		<path fill="#C3044A" d="M440.3,359.3c0.2,0.5,0.4,1,0.6,1.5c-4.4,6.4-2.6,12.4,1.9,18.2c-4.4-1-7-5.6-6.1-10.5
			C437.3,365.3,438.2,362.1,440.3,359.3z"/>
		<path fill="#740027" d="M429.2,410.5c1.6-4.1,3.6-7.9,6.2-11.4c0.3,0.1,0.5,0.3,0.8,0.4c-2.1,3.8-4.1,7.6-6.2,11.5
			C429.8,410.8,429.5,410.7,429.2,410.5z"/>
		<path fill="#920033" d="M444.8,378.8c0.1,0.6,0.2,1.2,0.8,1.6c-1.7,2.6-3.4,5.1-5.1,7.7c-0.3-0.1-0.5-0.3-0.8-0.4
			C441.4,384.7,443.1,381.7,444.8,378.8z"/>
		<path fill="#A3003A" d="M453.9,389.2c-0.5,0.3-0.9,0.6-1.4,0.9c-1.2-2-3.9-2-5.7-4.3C450,386.3,452,387.6,453.9,389.2z"/>
		<path fill="#D6004F" d="M437.4,431.4c-2.7,0.9-4.4,0.8-7,0.2C433.1,429.9,434.7,430.2,437.4,431.4z"/>
		<path fill="#740027" d="M441.9,395.7c1.4,1.4,2.6,3,1.8,5.6C442.1,399.5,442.5,397.4,441.9,395.7z"/>
		<path fill="#9D0037" d="M450.1,390.8c-0.3,0.3-0.6,0.6-0.9,0.9c-1.1-1-2.7-1.6-3.6-3.5C447.8,388.3,448.8,389.7,450.1,390.8z"/>
		<path fill="#9FFEFE" d="M345.5,367.6c-0.6-0.6,0.3-2.4-1.3-2.2c-1.4,0.2-0.7,1.7-0.7,2.5c0.8,8.3,0.9,16.7,0.6,25
			c-0.3,11.4-3.4,22.1-9.1,31.9c-2.4,4.2-5.8,8.2-11,9.5c-2.3-0.1-0.3-2.4-1.6-3c-5.5,0.5-10.7,2.6-16.6,1.6
			c-8.8-1.6-14.5-6.5-17.7-14.3c-5.5-13.4-4.6-26.6,3.4-38.9c5-7.9,12.8-10.2,21.5-8.8c11.8,1.8,9.6,1.4,11-9.4
			c2.7-21,4.5-42.2,9.1-62.9c1.4-6.3,2.8-12.6,5.6-18.5c1.2-2.5,2.3-2.6,3.9-0.8c3.6,3.8,7.3,7.6,10.5,11.7
			c11.7,14.7,21.4,11.9,33-0.4c2.6-2.7,4.8-5.7,6.8-8.9c0.5,7.3-0.3,14.5-2.7,21.4c-1.8,5.2-4,10.2-7.8,14.4
			c-6,6.6-13.3,7.9-21.5,5.7c-5.2-1.4-10.2-3.4-15.2-5.3c-2.8-1.1-3.8,0.4-3.8,2.7c-0.1,11.1-2.5,22-3.6,33.1
			c-0.4,4.1-1,8.2-1.5,12.3c-0.1,0.8-0.6,2,0.6,2.2c1.6,0.3,1.2-1.3,1.3-2.1c1.6-12.2,3.2-24.5,4.8-36.8c0.3-2.2,0.5-4.5,0.8-6.7
			c0.1-0.9-0.9-2.6,0.8-2.7c1.8-0.1,2.4,1.2,2.3,3c-0.2,4.5-0.2,9-0.3,13.5c-0.1,4.9-0.1,9.7-0.1,14.6c-0.6,4.6,0.2,9.3-0.6,14
			C346.4,366,346.6,367,345.5,367.6z"/>
		<path fill="#92EAEA" d="M307.4,368c4.2-2.4,8.2-1,12.1-1.2c1,0,1.1,0.7,1,1.5c-0.1,1.3-0.8,1.6-2,1.4
			C315.1,369.2,311.5,368.7,307.4,368z"/>
		<path fill="#DCDCDC" d="M345.5,367.6c1.5-5.4,0.4-11.1,1.7-16.5c0.3,7.7,0.3,15.4-1.1,23.2C345.9,372,345.7,369.8,345.5,367.6z"/>
		<path fill="#85BBBB" d="M359.1,293.3c4.5,3,8.8,3.7,13.1,4.4C366.7,299.6,363.3,298.6,359.1,293.3z"/>
		<path fill="#72B8B8" d="M322.5,431.3c1.4,0.5,0.4,2.3,1.6,3c-3.1,1.8-3.1,1.8-7.4,1.2C317.6,432.8,323,436.4,322.5,431.3z"/>
		<path fill="#89DBDB" d="M347.6,280.4c-1.5-1.3-3-2.6-4.4-4c-0.5-0.5-1.6-0.9-0.9-1.7c0.6-0.7,1.6-0.5,2.3,0.2
			C346.1,276.4,347.1,278.2,347.6,280.4z"/>
		<path fill="#2400E9" d="M572.4,50.3c9-3.6,13.9-2.5,20.5,3.7c4,3.8,8.9,7.6,9.4,12.9c0.9,8.4,5.2,15.2,7.8,22.7
			c5.3,15.2,10.8,30.4,14.8,46.1c0.8,3,1,6.1,1.4,9.2c0.5,3.6-1.1,5.5-4,6.6c-10.5,3.9-20,9.9-29.9,15c-2,1.1-3.1,1.1-3.5-1.6
			c-1.5-11.3-6.2-21.4-12-31c-0.6-1-1.3-1.8-1.9-2.7c-4.6-6.9-4.6-7-12.2-4.3c-8.5,3-17.5,0.8-21.2-5.3c-2.8-4.5-3.7-9.2-1.2-14.2
			c2.7-5.4,7.7-6.5,13-7.3c2-0.3,4.8,1.5,5.9-2c0.3-0.8,2.1,0,3.1,0.3c9.4,2.8,17,10.7,20,20.9c-2.1-2.2-3.3-4.7-4.6-7
			c-0.5-0.8-0.7-2-2.1-1.4c-1.5,0.6-1,1.6-0.5,2.4c3.8,5.7,7.5,11.5,11.4,17.1c0.6,0.8,1.7,1.9,3.2,1.2c5.1-2.3,10.7-3.4,15.5-6.4
			c1.9-1.2,2.4-2.4,1.8-4.6c-3-10.8-6.8-21.4-10.9-31.9c-0.9-2.2-2.1-3-4.6-2.6c-3.2,0.6-6.3,1.4-9.3,2.7
			c-11.2,4.7-23.2-3.9-22.2-16c0.5-6.2,1.7-12,6.9-16.4c5.1-4.3,10.8-5.1,17.1-4.1c1,0.2,2.5,1.1,2.8-0.4c0.3-1.4-1.3-1.4-2.3-1.7
			C580.9,48.8,576.9,49.9,572.4,50.3z"/>
		<path fill="#2400E9" d="M557.9,97.3c-2.4,0.6-4.5,0.4-7.3,0.1C553.4,96.6,555.4,96.4,557.9,97.3z"/>
		<path fill="#FEAB79" d="M418.5,139.4c0.9-1.7-0.2-2.5-1.6-2.9c-5.9-1.6-11.9-2.6-17.6-5c-1.4-0.6-2.9,0.2-2.9,2.2
			c0,5-0.3,10,0.7,14.9c1.2,6.1,4.8,10.2,10.4,12.8c3.6,1.6,7.3,2.7,11,3.5c3.9,0.8,5.2-0.2,5.9-4.2c0.3-2,0.4-4,0.9-5.9
			c0.9-3.6,3.7-5.2,7.4-4.6c8,1.5,18.2,11.3,19.9,19.1c0.9,4.3-0.4,7.4-4.1,9.4c-0.5,0.3-1.4,0.6-1.5,1c-0.5,4.5-3.6,3.2-6,2.6
			c-8.7-2.2-17.2-5.1-25.6-8.7c1.2-0.1,2.2-0.2,2.3-1.6c0.1-1.3-1.1-1.2-1.9-1.3c-16.5-3.9-30.5-13.4-45.4-20.8
			c-1.6-0.8-2.2-2-2-3.6c1.2-11.2,0.6-22.4,1.1-33.7c0-0.8,0.2-1.9,0.7-2.3c0.9-0.6,1.5,0.5,2.2,1c11.1,7.4,23.2,12.7,36.2,15.5
			c3,0.7,4.4-0.7,4.7-3.6c0.6-5.9,4-9.7,9.6-11.1c5.8-1.4,10.9,0.6,14.9,5c3.9,4.2,3.7,9.8,0.1,14.3c-1,1.3-3.6,2.2-1.6,4.8
			c0.5,0.6-1,1.5-1.8,2.1c-4.7,3.1-9.8,3.4-15.1,2.5C418.8,140.6,418,140.4,418.5,139.4z"/>
		<path fill="#B07653" d="M418.5,139.4c0.3,0.5,0.6,1,0.8,1.5c-3.4,0-6.3-1.3-10-3.4C413.2,137.4,415.7,138.9,418.5,139.4z"/>
		<path fill="#CB8860" d="M422.7,155.5c-0.2,1.9-0.4,3.9-0.8,5.8c-0.2,0.8-0.7,1.7-1.8,1.4c-1.1-0.3-0.5-1.2-0.4-1.9
			C420.1,158.9,420.6,157,422.7,155.5z"/>
		<path fill="#CB8860" d="M404.8,137.1c-0.6,0.1-0.9,0.2-1.1,0.1c-1.6-0.8-3.9-0.2-4.7-2.4c-0.1-0.4,0.1-1.3,0.7-1
			C401.5,134.6,404,134.4,404.8,137.1z"/>
		<path fill="#5CFD53" d="M531.8,458.8c-0.2,5.4-1.1,10.6-3.3,15.4c-2.3,4.9-5.2,6.2-9.5,4.3c-5.3-2.3-7.9-7.2-6-11.6
			c1.3-3.1,2.7-6.2,4.2-9.1c2.1-4.1,8.4-6.3,12.7-4.6C532.9,454.4,531.2,457,531.8,458.8z"/>
		<path fill="#080500" d="M215.7,520.5c0.4,0.5,0.8,1,1.1,1.5c4.7,7.6,10.6,14.2,17.9,19.3c0.6,0.4,2.2,0.6,1.2,2.1
			c-1,1.6-1.8,0.5-2.7-0.1c-7.6-5.5-13.5-12.5-18.2-20.5c-0.3-0.5-0.7-1.1-0.3-1.7C214.8,520.9,215.2,520.7,215.7,520.5z"/>
		<path fill="#030103" d="M505.6,260.3c-1.5,0.6-1.9-0.7-2.6-1.5c-1.9-2.5-3.6-5.1-5.7-7.4c-2.1-2.4-1.5-4,0.9-5.7
			c3.7-2.5,7.3-5.3,11-7.8c3.2-2.2,5.7-5.2,8.5-7.9c4.4-4.1,9-3.5,10.7,2.2c0.8,2.7,3.3,4,5.1,5.8c2.5,2.7,2.5,4.1-0.3,6.5
			c-3.1,2.6-6.5,4.6-10,6.5c-4,2.2-8.2,4.2-11.3,7.8c-1,1.2-2.3,1.9-4,1.5c-2.3-0.6-2.6-2.8-3.7-4.4c-1.4-1.9-2.8-3.8-4-5.9
			c1.4,2.4,3.3,4.5,4.6,6.9C505.2,257.9,506.5,258.9,505.6,260.3z"/>
		<path fill="#9A00AF" d="M505.6,260.3c-0.9-3.6-3.8-6-5.5-9.1c-0.6-1.1-1.8-2-0.9-3.8c2.9,4.3,5.8,8.6,8.7,12.9
			C507.1,260.3,506.3,260.3,505.6,260.3z"/>
		<path fill="#140006" d="M449.6,365c0.3,0.9,0,1.4-0.7,1.7c-0.8,0.4-1.5,0.2-1.7-0.7c-0.8-2.9-1.8-5.7-4-7.8
			c-0.6-0.6-0.4-1.2,0.2-1.6c0.6-0.4,1.1,0,1.6,0.4C447.8,359,448.5,362.2,449.6,365z"/>
		<path fill="#29000E" d="M435.5,358.7c-0.7,2.1-1.4,4.3-2.2,6.4c-0.3,0.9-1.1,0.7-1.9,0.5c-1.1-0.3-0.8-1-0.5-1.7
			c0.8-1.8,1.6-3.6,2.5-5.5c0.3-0.6,0.6-1.1,1.4-0.9C435.4,357.7,435.7,358.1,435.5,358.7z"/>
		<path fill="#150006" d="M450,353.7c-0.2,1.2-0.9,1.8-1.6,1.1c-1.6-1.6-3-3.3-4.4-5c-0.4-0.5-0.3-1,0.2-1.3
			c0.4-0.2,1.2-0.6,1.3-0.4C447.1,350,448.6,351.9,450,353.7z"/>
		<path fill="#0C0004" d="M450.8,419.3c-1.7-1-2.5-1.9-0.4-3.5c6-4.3,7.4-10.3,6.4-17.2c-0.1-0.9-1.1-2.6,0.5-2.8
			c1.6-0.2,1,1.6,1.3,2.5C461.1,407.2,457.2,413.8,450.8,419.3C450.7,419.3,450.8,419.3,450.8,419.3z"/>
		<path fill="#030309" d="M610.2,139.4c-0.3,8.1-7,12.9-14,10.5c-3.5-1.2-2.7-4.6-3.2-7.1c-0.4-1.9,1.7-2.5,3.4-2.7
			c3-0.4,5.7-1.5,8.1-3.5c1.2-1,2.6-2.2,4.4-1.2C610.3,136.4,610,138.2,610.2,139.4z"/>
		<path fill="#050302" d="M387.2,137.4c0,2.2,0.1,4.5,0,6.7c-0.1,2.9-1.4,3.1-3.6,1.7c-3-2-4.5-4.9-4.7-8.5c-0.2-4,0.4-7.9-0.5-11.9
			c-0.5-2.1,1.1-2.7,3.1-2.2c3.2,0.8,5.8,4,6,7.5c0.1,2.2,0,4.5,0,6.7C387.5,137.4,387.3,137.4,387.2,137.4z"/>
		<path fill="#FEFEFE" d="M508.8,256.7c-0.3-0.2-0.8-0.4-1.1-0.7c-0.4-0.4-0.8-1-1.1-1.5c-1.7-2.8-4.7-5.6-4.6-8.3
			c0.1-2.8,4.5-4.1,7.1-5.9c3.8-2.5,6.8-5.9,10.2-8.7c3.8-3.1,5.7-2.9,7.1,1.6c0.9,2.8,3.4,4.3,5.2,6.3c1.2,1.2,1.6,2.1-0.1,3.1
			c-7.2,4.5-14.4,9-21.6,13.5C509.7,256.3,509.3,256.4,508.8,256.7z"/>
		<path fill="#FAFAFA" d="M608,139.2c0.1,4.2-4.5,9.4-8.4,9.2c-2.6-0.1-3.6-2.5-4-4.7c-0.3-2,1.5-1.7,2.8-1.8c2.9-0.3,5-2.1,7.2-3.6
			C607.1,137.2,608.1,137.3,608,139.2z"/>
		<path fill="#E8E8E8" d="M381.2,130.3c4,2.6,4.7,6.2,2.6,13.2C379.6,139.5,381.5,134.9,381.2,130.3z"/>
		<path fill="#CF8B62" d="M380.7,125.5c2.3,1.1,3.9,1.6,4.3,4.2C383.1,128.7,381.6,128.2,380.7,125.5z"/>
	</g>
</g>
</svg>
