<?xml version="1.0" encoding="utf-8"?>
<!-- Generator: Adobe Illustrator 18.0.0, SVG Export Plug-In . SVG Version: 6.00 Build 0)  -->
<!DOCTYPE svg PUBLIC "-//W3C//DTD SVG 1.1//EN" "http://www.w3.org/Graphics/SVG/1.1/DTD/svg11.dtd">
<svg version="1.1" id="harp1" xmlns="http://www.w3.org/2000/svg" xmlns:xlink="http://www.w3.org/1999/xlink" x="0px" y="0px"
	 viewBox="0 0 706.7 660.9" enable-background="new 0 0 706.7 660.9" xml:space="preserve">
<g>
	<g>
		<path fill="#FDFDFD" d="M353.7,660.8c-116.5,0-233,0-349.5,0.1c-2.8,0-3.4-0.6-3.4-3.4c0.1-217.8,0.1-435.6,0-653.3
			c0-2.8,0.6-3.4,3.4-3.4c233,0.1,466.1,0.1,699.1,0c2.8,0,3.4,0.6,3.4,3.4c-0.1,217.8-0.1,435.6,0,653.3c0,2.8-0.6,3.4-3.4,3.4
			C586.7,660.8,470.2,660.8,353.7,660.8z"/>
		<path d="M187.1,459.4c-3.4-10.5-6.9-21-10.3-31.5c-20-61-40-122-60-183.1c-0.8-2.4-2.2-3.9-4.2-5.3c-6-4.1-8.6-10.5-6.8-16.1
			c1.8-5.4,8.7-9.9,15.1-9.7c6.2,0.2,11.4,4.5,13,11c1.1,4.3,0.7,8.6-2.6,11.8c-1.9,1.8-1.7,3.5-0.9,5.7
			c17.4,54.5,34.8,109,52.2,163.5c5.2,16.3,10.5,32.5,15.5,48.8c1.1,3.6,2.9,5.7,6.7,6.2c1.3,0.1,2.6,0.7,4.2,1.1
			c0.3-2.8-1.1-5.1-1.8-7.5c-26.1-87-52.4-174-78.5-261c-1.1-3.7-2.6-6.8-5.9-9.4c-8.5-6.9-8-19.6,0.4-24.5c6.9-4,17.7-0.1,21.9,8
			c3.6,6.9,2.8,11.8-3,16.6c-1.5,1.3-0.9,2.2-0.5,3.5c6.8,23,13.5,45.9,20.2,68.9c19.9,68,39.9,135.9,59.8,203.9
			c0.4,1.5,0.3,3.8,1.8,4.2c2.6,0.7,5.5,0.9,8.2,0.7c1.9-0.2,0.6-2,0.4-3c-2.9-11.2-5.9-22.4-8.9-33.6
			c-20.5-76.8-41-153.6-61.3-230.5c-1-3.7-3.3-5.3-6.1-7c-5.3-3.3-7.8-9-5.7-13.9c3-7.2,9.2-9.9,16.4-10.6
			c5.5-0.5,10.3,1.6,12.6,6.8c3,6.8,3.5,13.1-2.7,17.5c-2.1,1.5-1.6,3-1.2,4.8c5.3,20.6,10.7,41.3,16,61.9
			c14.6,56.9,29.1,113.8,43.7,170.6c2.9,11.5,6,22.9,8.8,34.4c0.6,2.6,1.8,3.1,4.1,2.9c9-0.9,18-1.2,26.8,1
			c11.3,2.8,20.2,8.7,23.8,20.8c3.7,12-2.2,24.7-14.6,30.5c-7.2,3.3-14.5,4.4-22.1,1.1c-3.3-1.4-5.7-3.9-7.9-7.2
			c-1.3,2.7-1.4,5.2-1.3,7.7c0.3,4.4,0.7,8.7,0.9,13.1c0.1,1.4,0.5,2.6,1.1,3.9c3.3,6.1,0.9,10.7-6.1,11.2c-2.8,0.2-3.4,1-3.6,3.7
			c-0.9,19.2,0.7,38.2,3,57.2c0.7,5.3,0.4,5.9-4.8,6.8c-28.1,4.9-56.3,9.8-84.4,14.8c-2.9,0.5-4.9-0.1-6.2-3
			c-5.6-12.3-7.4-24.8-1.5-37.5c1.6-3.4,1.3-7.1,1.9-10.6c1.3-7.1,4.3-13.6,9-19c7.9-9,11.2-19.4,12.4-31c1.1-10.7,5.1-20,14.4-26.4
			c1.2-0.8,1.4-1.6,1.4-3.1c0-5.3-2.3-8.2-7.2-10.6c-13.8-6.7-26.2-15.5-35.8-27.7c-5.4-6.9-9.5-14.6-14.1-22c-1-1.6-2-3.2-3-4.7
			c-1.5-2.2-2.2-4.2-6.2-2.5c-6.1,2.6-14.9-1.8-19-8.2c-4.3-6.7-5.1-14.2-5.1-22.1c-3,0.8-5.7,2.1-8.8,2c-6-0.1-10.5-2.8-12.3-8.5
			c-2.5-8.1-2.8-16.2,2.3-23.7c0.3-0.4,0.5-0.9,0.7-1.3c0.6-1.1,1.6-2.3,1-3.4c-0.7-1.3-2.3-0.6-3.4-0.5
			c-12.2,0.5-21.4-13.4-16.2-24.6c2.7-5.8,6.4-11,10.7-15.6c2.4-2.6,2.6-5,1.2-8.1c-3-7-7.5-13.3-9.5-20.7
			c-5.2-19.3-3.9-38.4,3.4-56.9c6-15.3,12.8-30.3,19.2-45.5c0.4-0.9,0.7-1.9,1-2.8c0.5-1.8,0.3-2.7-1.9-1.8c-2.7,1-5.4,1.7-8.1,2.5
			c-13,3.9-20.1-1.4-24.2-13.7c-4.1-12.2,2-25.4,13.1-30c12.9-5.4,27-0.4,33.5,12.2c5.9,11.5,6.3,23.4,2.4,35.6
			c-2.5,8.1-6.4,15.7-9.2,23.7c-7,20.3-9.7,41.2-10.3,62.5c-0.8,29.2,7.9,56.1,20.8,82c9.3,18.6,20.5,35.9,33.8,51.9
			c5.5,6.6,11,13.1,17.8,18.6c-2.3-6.4-4.6-12.8-7-19.2c-16-43.8-32-87.6-47.9-131.4c-0.9-2.4-1.9-4.1-4.5-5.4
			c-6.5-3.2-9-11.8-5.6-18c3.5-6.4,12.8-8.8,19.8-4.9c5.8,3.2,8.6,11.8,4.6,17.2c-3,4-1.9,7-0.6,10.7
			c19.4,54.2,38.8,108.5,58.1,162.8c1.4,4,3.4,7.1,7.1,9.1c2,1.1,3.8,2.4,5.6,3.6C186.7,459.7,186.9,459.6,187.1,459.4z"/>
		<path d="M441.6,456.5c-8.7-0.3-17-2.2-25.3-3.9c-3.9-0.8-4.6-0.3-4.2,3.8c0.1,1,0.3,2,0.5,3c0.4,3.2,1.9,4.7,5.4,4.2
			c4-0.5,8.1-1.1,12.1,1.2c5.4,3.1,7.9,6.5,7.3,11.8c-0.5,5.1-4.5,9.8-9.6,11.3c-3.9,1.1-7.6,0.7-11.3-0.9c-4.7-2-8.6-5-12.4-8.3
			c-7.7-6.8-9.1-15.3-7.2-24.9c1.3-6.8,1-6.5-4.5-10.6c-13.6-10.2-16.7-24.1-6.7-39.2c7.7-11.6,19.1-17.5,33.4-17
			c2.9,0.1,5.6,1.2,8.3,1.9c1,0.3,2.3,1.1,2.9-0.4c0.5-1.3-0.8-1.6-1.6-2.2c-4.3-3-8.5-6.1-12.2-9.9c-6.7-6.8-10.6-14.7-10.1-24.5
			c0.7-15.8,3.9-31,12.1-44.7c3-5,6.8-9.5,13.6-8.8c3.5,0.3,6.5,1.9,9.3,3.8c9.2,6.4,15.8,14.1,19.1,25.7
			c4.9,17.3,2.6,32.5-7.3,46.9c-1.7,2.5-1.6,3.8,1.4,5c8.2,3.3,15.4,8.3,21.6,14.5c9.6,9.8,14.3,25.5,5.5,38.6
			C472.2,447.1,458.6,455,441.6,456.5z"/>
		<path d="M461.2,224.7c-0.1,9.7-4,18-9.2,26c-2.3,3.6-5.1,6.3-8.5,8.6c-8.9,5.9-17.9,5.7-26.9-0.3c-10.9-7.2-19.3-16.8-27.4-26.8
			c-17.6-22-32.2-45.9-46.6-70c-6.7-11.2-13.4-22.5-19.7-34c-3-5.5-2.1-9.8,1.5-14.4c6.6-8.4,14.3-16,20.6-24.7
			c6.4-8.9,13.3-17.5,19.9-26.3c1.1-1.5,1.9-3.2,2.8-4.8c2-3.7,4.1-3.9,6.3-0.3c4.1,6.7,7.7,13.7,11.8,20.4
			c10.3,17,21.9,33.1,36.3,46.9c1.7,1.6,2.8,2,4.4,0.1c0.9-1.1,2.1-1.8,3-2.8c7.3-8.5,15.8-9.5,26.5-7c6.5,1.5,11.1,4.9,16,8.3
			c7.5,5.2,13.3,11.9,14.8,21.2c1.8,10.7-1.9,19.6-10.7,26c-14.2,10.3-35.5,9.1-49.8-2.5c-5.4-4.4-10.1-9.3-13.7-15.2
			c-1.3-2.2-3.8-2.4-5.3-4.1c-4.4-4.6-8.7-9.3-12.5-14.4c-0.9-1.2-1.5-2.4-3-0.5c-5.5,7.1-11.4,13.9-16.2,21.6
			c-1.3,2.1-1.6,3.9-0.2,6.2c6.9,11.8,14.6,23,22.7,33.8c1.1,1.5,2,2.1,3.7,0.5c8.1-7.7,17.9-10,28.7-8.7
			c10.1,1.3,17.3,7.3,23.3,14.9C458.9,208.8,461.3,216.4,461.2,224.7z"/>
		<path fill="#010100" d="M259.8,216.9c2.3,5.4,6,9.9,10.8,13.1c2.2,1.5,5.9,0.4,8.8-0.1c3.8-0.7,7.6-0.8,11.2-2.7
			c1.4-0.7,3.5-0.2,3.6,2.4c0,1.6,0,3.2-0.6,4.8c-3.3,9.2-15.9,15.3-25.1,12.1c-6.7-2.3-11.5-7.3-16.4-12.1c-1.5-1.5-3-2.9-4.6-4.3
			c-1-0.9-2-1.2-3.4-1c-5.8,1-10-3.9-8-9.6c2.8-8,7.1-15.4,11-22.9c4-7.7,8.3-15.3,11.9-23.3c0.9-2,1.1-3.3-1-4.6
			c-1.8-1.1-3.3-2.6-5-3.9c-12.1-8.7-14.7-21.2-14.4-35c0-1.4,0.4-2.8,1.3-3.9c11.4-15.1,28.5-22.1,44.9-6.3
			c7,6.7,12.3,14.7,14.7,24.3c1.9,7.5,0,14.2-3.4,20.8c-4.5,8.5-12,14.6-17.7,22.1c-3.6,4.7-6.6,9.7-4.3,16.1
			c1.7,4.9,4.4,6.8,9.5,6.3c3.2-0.4,6.4-0.8,9.7-1.1c3.5-0.4,5.4,1.7,4.8,5.1c-0.1,0.6-0.4,1.2-0.6,1.8
			c-5.1,12.7-24.2,16.1-33.1,5.9C262.9,219.4,261.9,217.7,259.8,216.9z"/>
		<path fill="#010001" d="M618.7,325.3c2.8,2.6,5,4.5,6.5,7.2c2.1,3.8,2.8,7.3-0.3,11.4c-2.1,2.7-3.7,6-6.3,8.3
			c-6,5.4-12.5,4.5-19.7,0.6c-11.8-6.3-20.5-16.1-28.9-26.1c-7.4-8.9-14.2-18.3-19.8-28.5c-1.2-2.1-1.1-3.3,1.1-4.8
			c7.1-4.7,13.9-9.6,21-14.4c5-3.4,5.5-3.5,8.8,1.7c4.9,7.6,11.1,14.1,17.3,20.6c2.1,2.2,4.1,2.6,6.6,1.7c2.7-1,5.4-2,8-3
			c7.5-2.8,12.9-1.4,18,4.7c2.6,3.1,4.7,6.5,5.7,10.4c1.1,4.6-0.9,8.1-5.5,9.6C627.4,325.9,623.4,325.4,618.7,325.3z"/>
		<path fill="#010101" d="M549,97.3c-0.1-9.3,7.8-16.1,15-12.9c5.5,2.5,10,6.3,13.1,11.7c1.5,2.7,3.3,5.3,4.7,8
			c0.9,1.6,1.8,2,3.5,1.4c6.4-2.4,7-3.6,5.2-10.3c-0.8-3-1.4-6.1-2.1-9.1c-0.6-2.7-1.9-3.6-4.7-2.6c-3.3,1.1-6.7,2.3-10.5,1.7
			c-8-1.3-13.2-8.4-10.8-16.2c1.6-5.1,4.5-9.8,8.9-13c5.5-4.1,13.7-1.7,17.8,5.4c9.5,16.3,15.2,34.1,19,52.5c1.5,7.3,0.1,8.8-7,11.1
			c-3,0.9-5.8,2.3-8.1,4.5c-1.6,1.5-3.4,3-5.5,3.8c-3.4,1.3-6.7-0.3-7.6-3.8c-0.4-1.7-0.7-3.5-0.6-5.2c0.3-6.4-3.1-11.1-6.7-15.8
			c-1.3-1.7-2.7-1-4-0.6c-2.9,0.9-5.7,1.6-8.8,1.3C552.9,108.3,549,104.3,549,97.3z"/>
		<path fill="#010100" d="M549.1,447.1c2-3.9,4.1-7.7,7.5-10.6c8.4-7.4,17.9-4.2,24.8,2c2.7,2.4,2.8,6.2,2.5,9.8
			c-0.8,7.3-3.9,13.3-9.9,17.7c-3.4,2.4-7.1,3.1-10.9,1.2c-2.2-1.1-2.5-0.3-2.6,1.6c-0.7,7.6,4.7,12.8,12.8,12.4
			c3.6-0.2,6.7-1.8,9.9-3.1c0.9-0.4,2.2-0.6,2.9,0.1c0.7,0.7,0.1,1.6-0.6,2.3c-5.7,5.2-11,10.7-19.8,10.5
			c-10.7-0.2-14.9-4-19.6-15.1c-1-2.3-1.5-4.9-1.3-7.6c-0.5,0.2-0.8,0.2-1,0.3c-1.6,1.6-2.8,4.5-5.5,3.2c-2.7-1.3-3.6-4.4-3.4-7.4
			c0.3-3.2,1.8-5.7,5-6.8c-4-5.2-4.4-9.4-1.3-12.8c2.5-2.7,5.7-3,8.8-0.6c1,3.9,0.9,4.6-1.9,11.2c-0.2,0.5,0.6,0.3,0.1,0.2
			C546.9,452.8,547,449.5,549.1,447.1z"/>
		<path fill="#010101" d="M292.6,323.1c-0.3-2-0.5-4-0.8-5.9c-0.1-0.8,0-1.5,0.8-1.9c0.7-0.4,1.2,0.3,1.5,0.8
			c3.2,5,7.1,9.7,8.7,15.6c1.8,6.7-1.5,13.2-7.9,16.1c-6.5,3-5.9,1.5-2.3,7.1c4.8,7.3,9.8,14.5,14.8,21.6c5.2,7.5,7.9,15.9,9.8,24.6
			c1.3,6.2-3,12.3-9.1,14.1c-3.7,1.1-7.1,2.8-11.2,1.6c-8.3-2.4-15.8-12-16.6-21.2c-0.6-6.6,1.5-12,7-15.8c2.2-1.5,0.9-2.7,0.2-4
			c-5.8-10.7-12-21.3-16.5-32.7c-1.2-3-1.9-6.2-2.6-9.3c-0.6-3,0.9-4.5,4-3.8c2.8,0.6,5.4,1.8,8.2,2.4
			C288,334.1,292.6,330.3,292.6,323.1z"/>
		<path fill="#C7CEC7" d="M549.1,447.1c-0.9,3.3-2.5,6.4-2.9,9.8c-0.1,1.2-0.9,1.3-1.9,0.8c-1.2-0.6-0.4-1.1,0-1.6
			c2.2-3.7,3.4-7.6,3.1-11.9C549,444.5,547.7,446.5,549.1,447.1z"/>
		<path fill="#FE9E00" d="M111.8,381.8c8.7,13.6,17.6,27,28.3,39.1c5.7,6.5,11.6,12.7,17.5,19c0.7,0.8,1.4,2.3,3,1.2
			c1.5-1,0.3-2.1,0-3c-17.6-47.6-35.2-95.3-52.8-142.9c-1.2-3.3-2.5-6.5-3.6-9.8c-1.3-3.8-2.7-7-6.8-9.1c-4.7-2.4-5.8-9.7-3-14.3
			c2.8-4.8,10.5-6.6,16-3.7c4.7,2.4,6.7,8.4,4.6,13.6c-1.1,2.8-3,4.8-5.6,6.7c3.6,2.8,4,7,5.3,10.8c19.6,54,39.1,107.9,58.6,161.9
			c1,2.8,2.5,5,5.3,6.4c2.7,1.3,5.2,3,7.8,4.4c1,0.6,2,1.3,3.4,0.3c1.7-1.2,0.3-2.3,0-3.2c-9.9-30.2-20-60.4-30-90.6
			c-13.7-41.5-27.5-82.9-41.2-124.4c-1-2.9-2.3-5.2-5-7c-6.2-4.3-7.6-11.1-3.8-15.8c4.7-5.7,13.2-6.8,18.4-2.4
			c5.2,4.4,5.7,12.9,0.7,17.7c-2.1,2-2.8,2.9-1.3,6.2c3,6.4,4.6,13.4,6.8,20.2c19.9,61.6,39.8,123.2,59.7,184.9
			c1.2,3.8,2.6,7.6,3.6,11.4c0.5,2,1.6,2.9,3.6,3.2c2.6,0.4,5.2,1,7.7,1.5c4,0.9,4.1,0.8,3-2.9c-4.1-13.4-8.1-26.7-12.2-40.1
			c-18.6-61.2-37.2-122.5-55.8-183.7c-5-16.6-10.1-33.2-15.1-49.8c-0.5-1.8-1.4-3.3-3.1-4.3c-3.6-2.2-5.7-5.6-6.3-9.7
			c-0.8-5.5,1.4-10.2,5.5-12c5.1-2.3,12.3-0.7,16.2,3.6c2.3,2.6,3.8,5.5,4.2,9c0.3,2.6-0.1,5.6-2.2,6.8c-5.7,3.3-4,7.5-2.6,12.1
			c16.7,56.1,33.3,112.2,50,168.3c10.1,34.2,20.3,68.4,30.4,102.7c0.8,2.6,1.9,3.8,4.7,3.6c2.2-0.2,4.5-0.1,6.7,0
			c2.9,0.2,4-0.5,3.1-3.8c-4.5-16.1-8.7-32.3-13.1-48.4c-19-70.5-38-140.9-57-211.4c-0.6-2-1.2-4.1-1.6-6.2c-0.6-4-2.7-6.5-6.2-8.6
			c-7.5-4.4-7.5-11.7-0.4-16.8c2.5-1.8,5.2-2.9,8.3-3.3c6.2-0.7,10.8,1.7,12.8,6.8c2.6,6.8,1.4,11.5-4.8,15c-3.1,1.8-1,3.4-0.6,4.9
			c5.4,21,10.9,42,16.3,63.1c17.8,68.6,35.5,137.1,53.3,205.7c0.7,2.8,2,4,4.9,3.7c7.7-0.7,15.5-1,23.2,0
			c8.9,1.1,16.4,4.8,22.2,11.9c1,1.2,2,2.5,2.2,5.3c-7-9.7-16.6-12-26.9-12.6c-4.5-0.3-9-0.3-13.5,0.2c-16.6,1.8-32.9,1.6-48.8-4.2
			c-0.9-0.3-2.4-1.5-2.9,0c-0.5,1.5,1.4,1.3,2.3,1.7c15.1,5.6,30.6,6.3,46.5,4.9c10.2-0.9,20.5-1.3,30.3,2.7
			c5.2,2.1,9.1,5.6,11.7,10.6c0.6,1.2,0.5,3.3,3.1,3c0.9-0.1,0.6,1.4,0.7,2.2c0.7,9.4-5.7,18.9-15.2,22.7
			c-6.2,2.5-12.4,3.5-18.9,0.9c-1.3-0.5-2.4-1.2-3.5-2.1c-5.6-4.6-4.4-12.3,2.4-15.3c2.3-1,2-3.6,2-5.5c-0.1-1.9-1.9-1-3.2-0.9
			c-5.6,0.2-11.2-1-16.7-1.5c-6.6-0.6-13.2-1.4-19.6-3.2c-5.5-1.5-10.6-3.7-14.9-7.6c-0.7-0.6-1.3-1.8-2.4-0.5
			c-1,1.2,0.1,1.8,0.8,2.4c4.2,3.9,9.4,6.1,14.8,7.6c10.7,3,21.7,3.3,32.6,4.3c4.7,0.5,4.8,0.4,2.3,4.6c-1.3,2.3-2.7,4.5-4.1,6.7
			c-2.6,4.4-3.9,9.2-3.2,14.3c0.9,6.9,0.6,13.9,2.2,20.8c0.3,1.4-0.1,2.2-1.3,2.6c-1.4,0.4-2.9,1-4.3,1
			c-20.9-0.5-38.9-11.4-45.7-30.8c-2.8-7.8-2.1-16-1.3-24.1c0.5-5.1,1.3-10.2,1.6-15.3c0.3-4.1-0.2-8.3-3-11.7
			c-0.4-0.5-0.7-1.1-1.5-0.7c-0.7,0.3-0.8,0.9-0.3,1.5c4.2,5.4,2.7,11.6,2.2,17.7c-0.2,2.6-0.9,5.2-1,7.8c0,3-1.1,2.9-3.3,1.8
			c-10.9-5.3-21.2-11.8-30.4-19.7c-9.3-8.1-17.5-17.1-23-28.3c-2.6-5.4-5.8-10.5-10.1-14.8c-0.9-0.9-1.4-1.4-2.7-1.2
			c-18.4,3.3-26.7-12.8-22.7-27.8c0.3-1.1,1.5-2.4,0.1-3.4c-1.1-0.8-2.4-0.1-3.6,0.4c-1.4,0.6-2.7,1.2-4,2c-6.6,3.6-13.7,0.3-15-7.2
			c-1.3-7.3,1.1-13.9,4.2-20.2c1.1-2.2,0.8-3.3-0.9-4.9c-2.5-2.5-5.7-3.6-8.5-5.3c-9-5.6-10.3-12-6.2-21.8c2.2-5.4,5.3-10.3,8.8-15
			c1.1-1.5-0.1-2.6-0.6-3.8c-4.2-10.2-7.7-20.5-9.6-31.4c-3.7-21.4-0.3-41.6,9.5-61c5.2-10.2,10.5-20.4,12.6-31.9
			c0.5-3,0.9-5.9,0.7-8.9c-0.2-3.3-2.3-5-5.4-4c-4,1.3-7.9,3-11.8,4.6c-1.6,0.7-1.8,1.5,0.3,1.9c0.8-0.3,1,0.1,0.9,0.8
			c-8,2.6-12.8,1.1-17.1-5.5c-7.5-11.3-4.8-26,6-32.6c11.6-7,26.6-2.9,33.1,9.4c5.5,10.3,6.3,21.2,3,32.3c-1.2,3.9-2.1,8-4.8,12.3
			c2.2-9.7,3.6-18.6,3.4-27.7c-0.2-6.3-1.3-12.4-3.8-18.2c-0.3-0.6-0.1-1.7-1.3-1.5c-1.2,0.2-0.8,1.1-0.6,1.7
			c7.5,18.8,2.5,37.1-2.4,55.3c-4,14.8-9.1,29.3-11.9,44.4c-2.9,15.4-2,30.8,0.4,46.2c7.1,45.5,27.3,84.7,57,119.3
			c16,18.6,34.5,34.2,56,46.2c0.9,0.5,2,2.1,3,0.2c0.9-1.8-1.1-2-1.9-2.5c-8.3-4.9-16.3-10.1-24-16c-15.8-12.3-29.7-26.6-41.9-42.5
			c-6.8-8.9-13.2-18.1-18.4-28.1C110.4,382.4,110.5,381.8,111.8,381.8z"/>
		<path fill="#FE9E00" d="M242.2,567.6c-0.2,13.9,0.9,27.7,2.7,41.4c0.3,2.4-0.2,2.9-2.5,3.1c-27.8,2.9-55.2,8.4-82.3,15.2
			c-2.4,0.6-3.2,0-4.3-2c-6.4-12.3-2.7-23.7,6.8-33.6c7.9-8.2,17.4-14.2,27.2-19.7c4.7-2.7,7.2-6,7.4-11.5
			c0.2-6.7,0.5-13.5,1.7-20.1c0.7-4.1,2.3-7.9,4.4-11.5c1-1.7,1.8-2.4,3.5-0.3c8.4,10.6,19.6,16.3,32.8,18.3
			c2.5,0.4,2.7,1.4,2.6,3.4C242.1,556.1,242.2,561.8,242.2,567.6z"/>
		<path fill="#FE9E00" d="M156.2,590.3c0.1-8.5,1.9-15.7,7-21c8.8-9.3,12.6-20.2,14.1-32.6c1.5-12,6.5-22.5,16.5-30
			c0.7-0.5,2-1.1,1-2.3c-1.1-1.5-2-0.2-2.7,0.5c-6.2,4.9-10.8,11-13.9,19c-0.1-4.9,2.2-10.2,6-14.5c0.8-0.9,1.6-2,2.7-2.6
			c4.8-3.1,7.2-6.9,4.6-12.7c-0.2-0.5,0-1.2,0-1.8c5.9,1.9,6,1.9,5.8,7.6c-0.2,9.1,1.8,17.6,7,25.8c-5-4.1-5.7,0.3-6.9,2.9
			c-4.8,10.5-7.8,21.3-6.3,33c0.2,1.3,0.1,2.1-1.1,2.8C177.7,571.2,166.7,579.5,156.2,590.3z"/>
		<path fill="#E79000" d="M195.9,543.2c-0.5,6.7-1.1,13.4-1.5,20.1c-0.2,2.4-1.2,3.8-3.2,5.1c-8.1,5.1-16.3,10-23.9,16
			c-0.7,0.3-0.8-0.1-0.7-0.7c7.5-7,15.8-12.9,24.7-18.1c1.6-0.9,2.1-1.6,1.7-3.7c-1.2-7.1,0.1-14.1,2.1-21
			C196.9,541.1,195.9,542.3,195.9,543.2z"/>
		<path fill="#F39801" d="M77.9,363.4c-7.5,0.8-9.9-4.7-12.5-9.7c-4.1-8,1.2-13.5,5.6-19.3C66,345.7,64.5,356.2,77.9,363.4z"/>
		<path fill="#E79000" d="M69.9,247.6c-4.6,18.6-4.1,37,0.9,55.4c-7.9-18.5-7.3-37.3-1.6-56.2C69.8,246.7,70.2,246.9,69.9,247.6z"/>
		<path fill="#F89A00" d="M157.7,594.3c-4,4.8-6.1,10.4-7.4,16.5c-1.2-6.6-1.4-13.1,2.9-19.2c0.9,1.3,0.9,4.4,3.5,1.8
			C157.5,593.2,157.8,593.5,157.7,594.3z"/>
		<path fill="#C07700" d="M103.4,399.7c-1.9,15.5,2.1,27.1,19.1,30.2c-7.2,2.2-14.1-3.3-17.1-8.6
			C101.6,414.6,100.3,402.6,103.4,399.7z"/>
		<path fill="#D28200" d="M111.8,381.8c-0.6,0.3-0.6,0.9-0.7,1.4c-7-11-12.3-22.9-16.7-35.1c-0.2-0.8,0.1-0.9,0.8-0.7
			c4.1,10.6,9.2,20.8,14.9,30.7C110.7,379.3,111.2,380.6,111.8,381.8z"/>
		<path fill="#D78600" d="M76.5,228c4.5-10.3,8.9-20.7,13.4-31c-1.9,11.8-7.8,21.9-12.8,32.5C75.9,229.4,76,228.8,76.5,228z"/>
		<path fill="#E48E00" d="M159.6,568.4c4-7,9.5-13,12.9-20.4c-0.2,9.3-7.7,14.4-12.1,21.2C159.8,569.4,159.4,569.2,159.6,568.4z"/>
		<path fill="#CB7E00" d="M81.1,282.8c-0.5-9,0.7-17.8,3-26.5c-0.7,10.3-1.9,20.6-1.7,30.9C80.2,286.2,82.1,284.1,81.1,282.8z"/>
		<path fill="#A36400" d="M83.8,372.6c-2.7,6.6-3.5,13.4-2.6,20.9C77.9,387.9,79.2,377.2,83.8,372.6z"/>
		<path fill="#A56600" d="M76.5,228c0.2,0.5,0.4,1,0.6,1.4c-2.4,6.1-4.8,12.1-7.2,18.2c-0.2-0.3-0.5-0.5-0.7-0.8
			C70.9,240.3,73.4,234,76.5,228z"/>
		<path fill="#7E4C00" d="M95.1,347.4c-0.3,0.2-0.5,0.5-0.8,0.7c-3-6.9-5.4-13.9-6.3-21.5C90.4,333.6,92.8,340.5,95.1,347.4z"/>
		<path fill="#CA7D00" d="M77.2,190.5c-0.3-0.3-0.6-0.5-0.9-0.8c3.7-1.4,7.3-2.8,11-4.2c0.8-0.3,2.1-0.8,2.4,0.7
			c0.2,1.1-0.9,1.2-1.8,1.4C84.4,188.5,80.8,189.5,77.2,190.5z"/>
		<path fill="#7E4C00" d="M81.1,282.8c1.3,1.2,0,3.2,1.3,4.4c-0.2,5.3,1.2,10.5,0.6,15.8C81.5,296.3,81,289.6,81.1,282.8z"/>
		<path fill="#A56500" d="M157.7,594.3c-0.3-0.3-0.6-0.6-0.9-0.9c3.1-3.4,6.1-6.9,9.8-9.6c0.2,0.2,0.5,0.4,0.7,0.7
			C164.1,587.6,160.9,590.9,157.7,594.3z"/>
		<path fill="#7D4C00" d="M195.9,543.2c-0.3-0.7,0.2-1.8-0.8-2.3c0.6-2.8,1.4-5.6,3.4-7.9C197.6,536.4,196.8,539.8,195.9,543.2z"/>
		<path fill="#985D00" d="M159.6,568.4c0.3,0.3,0.6,0.6,0.9,0.9c-1.2,2.4-2.5,4.8-3.7,7.1C156.8,573.4,157.7,570.7,159.6,568.4z"/>
		<path fill="#5A3500" d="M84.5,312c1.2,2.2,1.5,4.5,1.8,7.9C84.2,316.9,84,314.5,84.5,312z"/>
		<path fill="#4E2D00" d="M136.8,441.8c-1.2-2-2.5-4.1-3.7-6.1c2.7,1,3.5,3.4,4.6,5.5C137.4,441.4,137.1,441.6,136.8,441.8z"/>
		<path fill="#FE005F" d="M426.9,410.5c-4.9,10.2-10,20.4-14.7,30.7c-3.5,7.7-6,15.6-4.1,24.3c0.5,2.5,1.3,4.9,3.3,6.6
			c2.3,2,13.5,2.8,16.2,1.3c2.3-1.3,1.5-3.4,1.7-5.6c3.4,0.8,5.1,3.2,5.5,6.2c0.7,4.2-1.2,7.6-4.6,10c-3.8,2.7-8,2.7-12.2,1
			c-6.4-2.6-11.8-6.7-15.9-12.2c-5.3-7.1-4.3-15.1-1.8-22.9c3.9-12.4,10.6-23.5,17.1-34.7c8-13.5,16.6-26.8,22.1-41.6
			c3.7-9.9,5.6-20,0.4-30.1c-1.1-2.1-2.1-4.3-4.7-4.2c-2.6,0.1-3.6,2.6-4.1,4.8c-2.5,9.9-1.4,19.3,5.2,27.4c1.6,1.9,0.9,3.4-0.2,4.6
			c-1.3,1.4-2.2-0.5-3-1.2c-7.9-7.2-8.8-16.1-5.8-25.7c1.4-4.4,3.4-8.6,5.5-12.7c0.3-0.7,1.3-1.5,0.1-2.2c-0.9-0.5-1.3,0.4-1.6,1
			c-3.7,7.1-7.2,14.2-7.7,22.5c-0.5,8.3,2.9,14.7,9,20c0.8,0.7,2.8,1.2,1.7,2.8c-1.1,1.6-2.1-0.2-3.1-0.7c-1.7-0.8-3.2-2-4.8-2.9
			c-0.7-0.4-1.5-1.5-2.2-0.5c-1,1.3,0.6,1.6,1.3,2.1c2.3,2,5.2,3.2,7.1,5.6c-0.6,0.7-1.1,0.7-1.5,0.4c-6.9-4.6-13.5-9.5-17.9-16.7
			c-2.4-3.9-4-8.1-4-12.7c-0.1-16.1,3.1-31.5,10.9-45.7c5.6-10.1,11.5-10.6,21.5-4.6c19.5,11.6,24.4,44.9,14.8,60.5
			c-2.3,3.7-4.3,7.6-6.6,11.3c-0.8,1.3-1.7,2.1-3.3,1.4c-0.6,0.4-1.3,0.3-2,0.5c-2.8,2.1-4,5.4-5.8,8.1
			c-8.8,13.3-17.5,26.8-24.6,41.1c-4.6,9.3-8.4,18.9-9.8,29.4c-0.3,2.3-0.3,4.7-0.1,7c0.1-11.5,3.8-22,8.4-32.2
			c3.1-7,6.7-13.7,10.6-20.2c0.8-1.3,1.3-3.1,3.3-3.2C427.2,408.9,427.3,409.6,426.9,410.5z"/>
		<path fill="#FE005F" d="M435.8,453.9c-1.8-0.5-4.8,0.9-4.4-3c0.1-0.7-1.4-0.8-2.3-0.9c-4.3-0.8-8.6-1.7-12.9-2.3
			c-2.5-0.3-2.5-1.4-1.7-3.2c0.1-0.1,0.1-0.2,0.2-0.3c1.4-2.9,2.1-6.8,4.4-8.5c2.5-1.8,6,0.9,9.1,1.5c5.9,1,11.8,2,17.6-0.6
			c7.6-3.4,11.3-10.3,10-18.5c-0.5-3.6-1.5-7-2.8-10.4c-0.4-2.4-1.8-4.4-3-6.5c-2.1-3-4.6-5.6-7.4-8.1c-0.7-0.7-1.8-1.1-0.9-2.4
			c0.9-1.2,1.7-0.6,2.6,0c2.4,1.6,4.8,3.2,7.3,4.6c1,0.6,2.1,2.6,3.3,0.5c1.1-2-1.3-2-2.2-2.6c-2.3-1.5-4.7-2.7-7.1-4.1
			c-0.8-0.5-1.9-0.8-0.9-2.2c0.7-0.9,1.3-1.3,2.5-0.7c3.6,1.9,7.3,3.8,11,5.6c0.8,0.4,1.7,1.5,2.5,0.1c0.9-1.6-0.5-1.8-1.5-2.3
			c-3.3-1.5-6.6-3-9.8-4.6c-0.8-0.4-2.7-0.5-1.6-2.2c0.7-1.1,1.1-3.1,3.3-2.1c13.1,5.8,25,13.1,31.1,27c4.4,10.1,0.3,25-8.7,31.7
			c-0.4,0.3-1.1,0.8-1.2,0.7c-2.5-2.7-3.9,0.3-5.5,1.2c-4.1,2.5-8.4,5-12,8.2c-2.2,1.9-3.6,4.4-6.9,4.2
			C443.8,454.3,439.8,454.3,435.8,453.9z"/>
		<path fill="#FEFDFE" d="M447.1,433.3c-5.1,3.4-10.7,2.9-16.3,1.8c-3.4-0.6-6.7-1.7-10.5-2.7c4.6-8.9,6.4-18.8,12.4-27.1
			c2.2,1.5,3.1,3.3,2.4,6.1c-1.1,4.7,0,7.1,3.5,8.8c3.1,1.5,5.1,0.5,5.3-3c0.3-4.3-0.8-8.4-1.9-12.4c-0.8-2.9-1.8-5.7-2.7-8.5
			c-0.3-0.8-0.9-1.7,0.1-2.3c1-0.6,1.6,0.2,2.2,0.8c8.8,9.4,14.7,19.7,9.9,33.2C450.6,430.1,448.5,431.4,447.1,433.3z"/>
		<path fill="#FD005E" d="M425.4,396.8c0.2-1.6-0.8-1.5-1.9-1.5c-13.4-0.1-27.8,7.5-32.8,20.6c-3.6,9.3-1,19,6.8,25.1
			c0.7,0.5,1.4,1.1,2.1,1.6c0.5,0.4,0.4,0.9,0.1,1.3c-0.4,0.6-0.9,0.3-1.3,0.1c-11.8-6.4-20.3-18.7-13.8-33.3
			c6.7-14.9,20.4-22.9,35.5-21.6c1.1,0.1,2.2,0.3,3.3,0.6C429.6,391.3,429.8,392,425.4,396.8L425.4,396.8z"/>
		<path fill="#FD005E" d="M410.3,401.3c-5.6,6.8-6.2,14.4-3,22.3c1.7,4-1.2,5.9-2.4,9c-2.7-3.1-3.8-6.4-3.6-10.2
			c0-1.1,0.1-2.2,0-3.4c0-0.9,0.3-2.2-1.3-2.1c-1.3,0.1-1.1,1.1-1.1,1.9c-0.2,4.8,0,9.7,3.4,13.4c2.5,2.8,0.7,5-0.7,6.9
			c-1.3,1.8-2.6-0.4-3.5-1.2c-7-6-8.7-16-4.2-24.1c3.4-6.1,8.3-10.9,14.9-13.5C409.7,400,410.4,400.1,410.3,401.3z"/>
		<path fill="#FCFCFC" d="M438.2,371.3c-6.5-8.6-7.6-17.5-5.2-27c0.3-1.3,0.9-3,2.5-2.9c1.4,0.1,2,1.6,2.6,2.9
			C442.7,353,441.3,361.8,438.2,371.3z"/>
		<path fill="#FCFCFC" d="M409.6,424.2c-2.8-6.6-2.7-12.5,0.2-18.2c2.2-4.2,6.6-5.9,10.7-4.8c1.9,0.5,2.1,1.1,1.1,2.7
			C417.7,410.3,413.9,416.9,409.6,424.2z"/>
		<path fill="#F3005A" d="M421.4,471.7c-0.7,0-1.5-0.1-2.2,0c-4.1,0.8-2.6-2.3-3-4.1c-0.5-2.8,1.8-1.5,2.8-1.6
			c1.6-0.3,3.2,0,4.8-0.1c2.8-0.1,3.4,1.8,3.4,3.8c0,2.6-2.2,1.7-3.6,1.9C422.9,471.8,422.1,471.7,421.4,471.7
			C421.4,471.7,421.4,471.7,421.4,471.7z"/>
		<path fill="#CD004B" d="M426.9,410.5c-0.2-0.6-0.2-1.3-0.9-1.7c-0.9-1-0.3-1.9,0.2-2.7c6-9.7,11.8-19.5,18.4-28.8
			c0.5,0.2,1.1,0.5,1.6,0.7c-3.7,6-7.3,12.1-11.1,18C432.3,400.8,429.2,405.4,426.9,410.5z"/>
		<path fill="#E90157" d="M440,418.3c-3.2-1.1-4.3-3.3-3.3-5.9c1.2-3.2,1.1-5.7-1.6-8c-0.6-0.5-0.9-1.2-0.4-2
			C439.1,404.7,441.1,410.7,440,418.3z"/>
		<path fill="#EF0059" d="M409.7,456.4c1,3.8,1.9,6.9,3.8,9.5c0.2,0.3,0.5,0.6,0.5,1c0.3,1.4,1,3.3-0.7,3.9
			c-1.4,0.5-1.8-1.3-2.3-2.4C409.4,464.8,409.2,461,409.7,456.4z"/>
		<path fill="#930033" d="M413,449.6c5.7,0.2,11.1,1.6,16.4,3.4C423.7,452.7,418.2,451.6,413,449.6z"/>
		<path fill="#740027" d="M457.4,450.3c3.9-3.2,7.1-5.2,10.9-6.6C465.5,446.5,462.3,448.9,457.4,450.3z"/>
		<path fill="#AC003E" d="M425.3,396.8c-0.1,2.3-0.9,3.4-3.4,2.3c-1.5-0.7-3.3-0.9-5-0.9C419.7,397,422.5,397.1,425.3,396.8
			C425.4,396.8,425.3,396.8,425.3,396.8z"/>
		<path fill="#909090" d="M435.8,453.9c4,0,8,0,11.9,0C443.8,455,439.8,455,435.8,453.9z"/>
		<path fill="#970035" d="M410.3,401.3c-0.2-0.8-1-0.7-1.6-0.8c1.6-1.4,3.5-1.9,5.8-1.6C413.2,399.7,411.8,400.5,410.3,401.3z"/>
		<path fill="#D1D1D1" d="M450.1,401.2c2.2,1.6,3.3,3.7,3,6.5C452.2,405.5,450.4,403.7,450.1,401.2z"/>
		<path fill="#E50055" d="M447.1,433.3c0.7-2.5,3-3.6,4.6-5.3C451.4,430.8,449.3,432.1,447.1,433.3z"/>
		<path fill="#A3003A" d="M438.3,401.3c-1.3-0.7-2.7-0.8-2-2.5c0.1-0.3,0.6-0.8,0.7-0.7C438.3,398.6,438.2,399.8,438.3,401.3z"/>
		<path fill="#FEAB79" d="M469.5,171.8c-14.9,6.9-32.9,3.7-45.4-8.2c-7.2-6.8-13.4-15.6-15.2-22.5c3.3,3.3,6.6,6.5,9.8,9.8
			c2.2,2.2,4.1,4.6,6.3,6.9c0.6,0.7,1.2,1.9,2.4,1c1.6-1.2,0.1-2-0.5-2.6c-4-4.2-7.9-8.3-12-12.3c-5.5-5.4-10.8-11.1-15.1-17.5
			c-1.2-1.8-2.7-2.9-4.4-0.8c-7.3,9.3-15.1,18.3-21.6,28.3c-2.3,3.5-2.2,6.4-0.1,10c7.9,12.9,16.3,25.4,25.8,37.2
			c2.1,2.6,3.7,3,6.3,0.5c3.9-3.7,8.2-7,13-9.5c3.6-1.9,7.1-2.2,11.2-1.6c13.4,2.1,22.3,9.5,27,21.9c4.3,11.1,2.5,21.8-3.2,31.9
			c-1.3,2.4-3,4.5-4.7,6.7c-3.8,4.9-8.2,8-14.7,5.7c-0.5-0.2-1-0.1-1.5-0.1c-0.7,0-1.7-0.3-1.9,0.7c-0.3,1.1,0.8,1,1.5,1.2
			c1.4,0.4,2.9,0.6,4.5,1c-3.6,2.6-9.4,2.4-13.8-0.5c-12.1-7.9-21.8-18.1-30.7-29.4c-6.7-8.5-12.7-17.5-18.3-28
			c3.6,2.7,5.5,5.6,7.9,8c1.3,1.3,2.6,2.7,3.9,4.1c0.7,0.7,1.3,1.7,2.4,0.5c1-1,0-1.6-0.5-2.1c-5.3-5.3-9.8-11.3-15.7-16.1
			c-4.9-4-7.7-9.7-11.3-14.8c-12.6-18.3-24.3-37.2-35.9-56.1c-2-3.3-1.5-5.6,0.4-8.4c3.3-4.9,7.7-8.9,11.3-13.4
			c11.5-14.3,23-28.6,32.9-44c1.5-2.4,2.3-1.6,3.3,0.1c4.1,7,8,14.1,12.2,21.1c9.9,16.4,21.3,31.6,35,45.1c7.4,7.3,7.4,7.3,14.8,0.2
			c5.5-5.2,11.9-8.2,19.6-7.7c5.5,0.4,10.2,3.2,14.7,6.1c7.7,5.2,13.6,11.8,15.8,21.3c1.9,8-3.2,16.3-9.5,19.8
			c-3.9,2.1-7.9,3.6-12.3,4.5c-1.2,0.2-3.7-0.2-3.1,2.1c0.5,1.9,2.2,0.6,3.4,0.3c1.6-0.3,3.2-0.7,4.7-1
			C468.9,170.6,469.6,170.3,469.5,171.8z"/>
		<path fill="#F5A575" d="M397.5,126.5c4.1,6,9.3,10.7,9.4,18.1c-4.5-3.7-8.3-8-11.7-12.7C393.5,129.5,396.7,128.8,397.5,126.5z"/>
		<path fill="#E0986C" d="M446,116.1c-7.2,2-12.3,6.9-17.4,11.8c-0.6,0.6-1.1,1.7-2,0.8c-1-1,0.2-1.5,0.8-2c3.5-3.4,7.1-6.6,11-9.4
			C440.6,115.7,443.1,114.7,446,116.1z"/>
		<path fill="#B57A55" d="M359.3,183c5.3,7.9,10.9,15.6,14.9,24.3c-5.6-7.6-10.9-15.4-15.7-23.5C358.2,183.1,358.6,182.9,359.3,183z
			"/>
		<path fill="#D48E64" d="M414.4,191.7c-3.5,2.8-6.9,5.5-10.4,8.3c-0.5,0.4-1.1,1.2-1.9,0.5c-0.6-0.5-0.4-1.1,0.2-1.6
			C405.8,195.7,409.6,192.8,414.4,191.7z"/>
		<path fill="#795037" d="M359.3,183c-0.3,0.3-0.5,0.5-0.8,0.8c-2.3-3.5-4.5-7-6.8-10.4c0.3-0.2,0.5-0.4,0.8-0.5
			C355,176.1,357.3,179.5,359.3,183z"/>
		<path fill="#87593E" d="M469.5,171.8c-0.2-0.8-1-0.6-1.5-0.8c2.1-0.9,4.1-1.9,6.2-2.8C473.2,170.2,471.6,171.4,469.5,171.8z"/>
		<path fill="#FEDB00" d="M276.8,183.8c0.1-1,1.8-1.9,0.2-2.9c-1.6-1-1.9,0.6-2.4,1.5c-2.7,4.8-6.3,9.1-7.4,14.9
			c-0.5,2.6,0.6,4.3,1.3,6.3c2.3,6,8.2,9.3,14.5,8.4c2.9-0.4,5.9-0.7,8.8-1.2c2.6-0.4,2.7,1,2.3,2.8c-0.5,2-1.9,3.5-3.4,4.8
			c-3.6,3.1-8.2,4.6-12.3,7c-2.1,1.3-4.9,0-7.1-1.3c-5-2.7-8.1-7.3-11.2-11.8c-0.8-1.1-1.3-2.6-3.1-2.2c-1.6,0.4-1.8,2-2.1,3.2
			c-0.3,1.2-0.2,2.5-0.1,3.7c0.6,5.9,12.7,16.3,18.6,16.1c4.9-0.2,9.7-0.9,14.4-2.1c2.8-0.7,2.8,0.4,2,2.3c-0.6,1.4-1.1,3-2.1,3.9
			c-7.9,7.1-16.7,10.8-26.2,2.7c-4.5-3.8-8.1-8.5-12.9-11.9c-1.2-0.9-2.5-2.1-4-1.6c-3.8,1.2-3.2-1.2-3.1-3.4
			c0.4-10.8,5.1-20.2,9.9-29.5c3.4-6.7,6.9-13.3,10.6-19.8c1.5-2.5,0.7-4.1-0.9-5.8c-4-4.2-8.6-7.5-13.1-11.1
			c-1-0.8-1.9-1.6-2.4-2.8c-3.8-8.7-5.1-17.8-3.6-27.2c0.1-0.4,0.2-0.7,0.4-1c4.7-7.8,20.2-12.8,28.4-9c6.5,3,10.8,8.4,14.4,14.3
			c1.7,2.8,3.1,5.7,4.6,8.6c0.4,0.7,0.5,1.8,1.8,1.3c1.3-0.6,1-1.4,0.5-2.4c-3-6.5-6.9-12.4-11.6-17.8c-0.1-0.7,0.2-1.1,0.9-0.9
			c9.7,9,17.2,19,16.2,33.2c-0.4,6.6-3.9,12-7.9,17c-3.9,5-8.2,9.6-12.4,14.4C276.8,184.6,276.4,184.5,276.8,183.8z"/>
		<path fill="#BCA100" d="M276.8,183.8c0.2,0.2,0.4,0.5,0.7,0.7c-2,3.4-4.8,6.4-5.7,10.4c-0.2,0.9-0.9,1.3-1.6,1
			c-1-0.4-0.4-1.3-0.1-1.9C272,190.3,274,186.8,276.8,183.8z"/>
		<path fill="#AF9700" d="M281.5,119.8c-0.3,0.3-0.6,0.6-0.9,0.9c-3.6-2.7-7-5.5-11.2-7.2C274.1,114.2,278.2,116.2,281.5,119.8z"/>
		<path fill="#BFA508" d="M272.1,205.3c-1.9-2.1-2.2-4.6-2.9-6.9c-0.1-0.5,0-1.1,0.5-1.2c0.7-0.2,1.2,0.2,1.2,1
			C270.8,200.5,272.6,202.5,272.1,205.3z"/>
		<path fill="#A89000" d="M239.3,218.4c-0.2,2.3,0.4,3.9-1,5.6C237.3,221.9,237.7,220.4,239.3,218.4z"/>
		<path fill="#DF00FE" d="M624.2,323.6c-10.2-1.2-19.8-3.7-27-11.9c-2.3-2.6-5-4.8-7.6-7.2c-2.2-2-4.5-2.1-6.8-0.2
			c-2.2,1.8-4.7,2.7-7.4,3.4c-3.5,0.9-4.2,2.9-2.1,5.8c5.1,7.1,11,13.4,18.2,18.4c1.3,0.9,2,0.2,3-0.2c7.5-2.8,15.1-3.5,22.7-0.8
			c6.3,2.2,8,6.5,4.9,12.4c-5.6,10.6-12.4,13-23,7c-13.3-7.5-22.9-19.1-32.2-30.9c-5.3-6.6-10-13.7-14.4-21c-1.1-1.8-1-2.7,0.8-3.9
			c6.6-4.4,13.2-9,19.7-13.7c2-1.4,2.9-0.9,4.2,0.7c3.8,4.5,7.7,8.8,10.6,13.9c3.4,5.9,9.4,8.7,15,11.9c1,0.6,1.8-0.5,2.7-0.8
			c6.3-2.3,12.7-3,18.9,0.4c5,2.6,7.6,10.4,5,15.4C628.6,324.3,626.1,323,624.2,323.6z"/>
		<path fill="#FDFDFD" d="M604.3,322.2c-4.5,0.7-8.1,2-11.4,4c-2,1.2-3.7,1.8-5.3-0.6c-0.7-1-1.8-1.7-2.6-2.7
			c-3.2-4.1-6.4-8.3-9.8-12.7c3.6-1.2,6.8-2.2,9.5-4.4c2.1-1.7,3.5,0.5,4.7,1.6C594.4,312.1,599.1,317,604.3,322.2z"/>
		<path fill="#CA03E5" d="M631.9,321.4c2.5-11.6-4.2-17.5-13.5-18.9c-1-0.1-1.9-0.3-3.1-0.5c8.6-5.5,17.4,5.2,19.4,13.5
			C634.4,317.8,634.2,320.1,631.9,321.4z"/>
		<path fill="#BA00D3" d="M616.8,327.7c-4.2-0.7-8-1-11.9-0.8c-3.9,0.1-7.5,1.3-11.5,2.3C600.3,322.9,610.4,323.2,616.8,327.7z"/>
		<path fill="#CECECE" d="M631.9,321.4c1.6-1.6,1.2-4.3,2.8-5.8c1,2.9,0.5,5.2-2.6,6.4c0,0-0.2-0.1-0.2-0.2
			C631.9,321.6,631.9,321.5,631.9,321.4z"/>
		<path fill="#2700FE" d="M573.7,57.4c3.9-2,7-1.2,10.1,1.4c4.2,3.5,6,8,7.8,13c2.7,7.6,6.3,14.9,8.9,22.6
			c2.4,7.1,4.9,14.1,5.5,21.7c0.3,3.6-1,5.7-4.7,6.3c-3.8,0.7-7,2.6-9.8,5.2c-1.2,1.1-2.5,2-3.9,2.8c-3.6,2-5.6,1.1-5.8-3
			c-0.4-8-2.9-15-8.4-21c-1.8-1.9-3.2-2.8-5.8-1.6c-1.5,0.7-3.3,1.1-5,1.4c-5.7,0.8-10.6-3.1-11-8.6c-0.3-4.8,3.5-8.2,9.3-8.5
			c1.1-0.1,2.6,0.8,3.1-1.1c0.3-1,0.9-0.6,1.5-0.3c3.7,2,6.8,4.6,8.3,8.6c1.7,4.4,5.2,7.5,7.5,11.5c0.3,0.4,1,0.7,1.6,0.8
			c4.5,1.2,11.9-5.4,11.1-9.8c-1-5.1-2.2-10.2-3.4-15.3c-0.9-3.7-2.7-4.7-6.3-3.3c-5.5,2.2-10.7,3.2-15.9-0.7
			c-1.7-1.3-2.7-2.7-2.9-4.9c-0.8-9.9,4.7-15.9,14.2-15.2c0.8,0.1,2,0.8,2.1-0.6c0.2-1.2-1.1-1-1.9-1.3
			C577.8,56.8,576,57.6,573.7,57.4z"/>
		<path fill="#5CFE53" d="M576.1,484.7c-2.8,3.8-6.7,2.7-10.2,2.9c-3.9,0.2-7.6-1-11.1-2.9c-1.9-1-3-2.5-3.8-4.5
			c-5.3-12.9,2.5-35.1,14.8-41.8c4.2-2.3,8.7-2.8,12.7,0.2c3.9,2.9,3.9,7.3,2.9,11.6c-1.6,6.7-4.6,12.4-11.3,15.3
			c-3.3,1.5-6.3,0.8-8.6-1.6c-2.5-2.7-2.8-1.1-3.3,1.1c-2.6,10.9,3,18.2,14.3,18.9C573.7,484,574.9,483.8,576.1,484.7z"/>
		<path fill="#57F44F" d="M544.4,461.9c-0.6,2.6-2,5.1-3.8,7.3c-0.6,0.8-1.4,0.5-1.9-0.2c-1.5-1.9-1.7-3.9-0.6-6.2
			c0.9-2.1,2-3.3,4.4-3.2C543.9,459.6,544.5,460.2,544.4,461.9z"/>
		<path fill="#56F04E" d="M545,447.6c-0.5,1.5-1,3.8-1.9,6c-0.7,1.8-1.9,2.2-3.3,0.3c-2-2.7-0.7-7.9,2.4-9.1
			C544.6,443.8,545.3,444.3,545,447.6z"/>
		<path fill="#38A432" d="M548.4,461.5c-0.9-9.7,10.3-25,19.9-26.5C556.4,440.5,551.8,450.2,548.4,461.5z"/>
		<path fill="#9FFEFE" d="M291,357.1c2.6,3.7,6,7,7.6,11.1c4,10.2,13.2,17.4,15.6,28.4c0.8,3.9,0.3,7.4-0.3,11
			c-0.1,0.4-0.7,1.2-0.8,1.1c-3.4-2.1-3.8,1.6-5.3,2.9c-3,2.5-6.1,3.7-10,3c-9.7-1.9-17.6-15.8-14.6-25.2c1-3.2,3.2-4.5,5.8-5.8
			c3.9-1.9,4.1-2.8,2.1-6.5c-6.4-11.4-13.4-22.5-18.2-34.8c-0.7-1.9-1.4-3.7-2-5.6c-0.6-1.8-0.3-3,2.1-2.2c2.1,0.7,4.3,1.2,6.5,1.7
			c9.3,2.5,14.7-1.5,15.2-11.2c0-0.9,0-1.9,0-3.7c3.1,4.3,4.9,8.2,5,12.6c0.2,5.5-1.8,9.8-7.3,12.3c-8.9,4-9,4.8-4.2,13.3
			c2.6,4.6,5.1,9.2,7.7,13.7c0.4,0.8,0.8,1.8,1.9,1c0.9-0.6,0-1.3-0.3-1.9c-2.4-4.7-4.9-9.3-7.3-13.9
			C289.7,357.6,289.8,357,291,357.1z"/>
		<path fill="#69AAAA" d="M291,357.1c-0.7,0.2-0.6,0.9-0.7,1.5c-1.2-1.7-2.5-3.4-2.8-6.6C289.3,354,290.4,355.3,291,357.1z"/>
		<path fill="#080500" d="M214.2,513.7c0.4,0.5,0.8,1,1.1,1.5c4.7,7.6,10.6,14.2,17.9,19.3c0.6,0.4,2.2,0.6,1.2,2.1
			c-1,1.6-1.8,0.5-2.7-0.1c-7.6-5.5-13.5-12.5-18.2-20.5c-0.3-0.5-0.7-1.1-0.3-1.7C213.3,514.1,213.7,514,214.2,513.7z"/>
		<path fill="#040001" d="M444.7,377.3c-2.3,5.9-6.5,10.7-9.6,16.2c-3,5.1-6.7,9.8-9.1,15.3c-8.4,13.2-15.6,27-19.4,42.3
			c-1.1,4.2-1.7,8.6-1.2,13c0.1,1,0.9,2.5-1,2.6c-2,0.2-1.5-1.6-1.6-2.7c-0.5-6.3,0.9-12.4,2.7-18.4c4.7-15.2,12.6-28.7,20.9-42.1
			c5.1-8.2,10.3-16.2,15.5-24.3C442.7,378.3,443,376.8,444.7,377.3z"/>
		<path fill="#080002" d="M449.8,350.8c0.3,0.8-0.3,1-0.9,1.3c-0.9,0.4-1.5-0.1-1.7-0.8c-1.9-6.1-4.6-11.8-8.9-16.6
			c-0.3-0.4-0.5-0.9,0-1.3c0.6-0.6,1.1-0.3,1.6,0.2C444.6,338.4,447.6,344.4,449.8,350.8z"/>
		<path fill="#130006" d="M417.8,350.3c-1.4-0.3-2-1-1.5-2.2c1.8-4.2,3.6-8.4,5.4-12.6c0.2-0.6,0.6-1.2,1.4-0.9
			c0.5,0.2,0.8,0.6,0.6,1.1c-1.7,4.5-3.4,9-5.1,13.5C418.5,349.8,418,350.1,417.8,350.3z"/>
		<path fill="#0C0004" d="M450.7,329c-0.2,1.3-0.9,1.8-1.5,1.1c-3.1-3.6-6-7.3-9-11c-0.4-0.5-0.3-1,0.2-1.3c0.4-0.2,1.2-0.6,1.2-0.5
			C444.7,321.3,447.8,325.2,450.7,329z"/>
		<path fill="#070002" d="M464.7,417.2c-0.4-3.3-0.9-6.7-1.2-10c-0.1-0.8-0.6-1.9,0.7-2.1c1.1-0.1,0.9,0.9,1.1,1.6
			c3.7,15.3,1.1,28.7-12.3,38.6c-0.8,0.6-1.8,2.8-3.2,0.7c-1.2-1.7,0.8-2,1.6-2.6C459.8,436.6,465.8,428.8,464.7,417.2z"/>
		<path fill="#020201" d="M353.2,124.7c-0.1-3.5,1.4-6.4,3.4-9.1c5.2-7,10.2-14.2,14.8-21.6c1.2-2,2.7-1.7,4.2-0.4
			c0.5,0.5,0.9,1.2,1.4,1.7c6.5,7.6,6.6,8.6,1.1,16.8c-5.2,7.8-10.6,15.4-16.1,23c-2.5,3.5-3.9,3.3-5.4-0.8
			C355.4,131.2,353,128.4,353.2,124.7z"/>
		<path fill="#070307" d="M574.4,291.4c2,0.2,3.8,1.5,4.5,3.3c0.7,1.7-0.6,3.2-2.3,4.1c-1.4,0.8-2.6,1.9-4,2.8
			c-3.9,2.5-5.3,2.2-7.7-1.8c-0.5-0.8-0.4-1.2-0.1-1.9C565.6,295.8,572.1,291.3,574.4,291.4z"/>
		<path fill="#020108" d="M597.2,113.4c0,3.9-3.9,7.5-7.3,7.5c-2.4,0-4.3-0.7-4.5-3.4c-0.3-2.6,4.8-8.2,7.2-7.9
			C595.2,109.9,597,111.2,597.2,113.4z"/>
		<path fill="#FDFDFD" d="M370.7,99.8c0.5,0.7,0.7,1,1,1.3c5,6.1,4.4,11.5-1,17.4c-4.3,4.6-7.5,10.2-11.1,15.4
			c-0.1,0.1-0.2,0.1-0.3,0.1c-5.1-8-5-11.3,0.5-18.7c1.8-2.5,3.8-4.9,5.6-7.5C367.2,105.3,368.8,102.7,370.7,99.8z"/>
		<path fill="#F2A373" d="M380.1,103.9c0,1.3-0.7,2.3-1.6,2.8c-1.4,0.8-1.5-0.8-1.9-1.5c-1.4-2.1-2.5-4.3-3.9-6.3
			c-1-1.5-0.1-2.5,0.8-3.2c1.3-1.1,1.6,0.5,2.1,1.1C377.6,98.9,379.4,101.1,380.1,103.9z"/>
		<path fill="#F1F1F1" d="M576.4,295.8c-1.8,1.4-3.5,2.9-5.9,3.4c-1.1,0.2-2.4-0.8-2.2-1.4c1-2.2,3.2-3.2,5.4-3.9
			C574.9,293.5,575.7,294.5,576.4,295.8z"/>
		<path fill="#EEEEEE" d="M593.9,112.4c1.9,1.5,0.8,2.9-0.3,4.1c-1.1,1.2-2.5,2.5-4.2,1.8c-2.7-1.2-0.4-2.8,0.1-4.2
			C590.8,113,592.2,112.3,593.9,112.4z"/>
		<path fill="#2000D8" d="M593.9,112.4c-1.4,0.6-2.9,1.2-4.3,1.7C590.5,112.3,591.6,111,593.9,112.4z"/>
	</g>
</g>
</svg>
