<?xml version="1.0" encoding="utf-8"?>
<!-- Generator: Adobe Illustrator 18.0.0, SVG Export Plug-In . SVG Version: 6.00 Build 0)  -->
<!DOCTYPE svg PUBLIC "-//W3C//DTD SVG 1.1//EN" "http://www.w3.org/Graphics/SVG/1.1/DTD/svg11.dtd">
<svg version="1.1" id="Layer_1" xmlns="http://www.w3.org/2000/svg" xmlns:xlink="http://www.w3.org/1999/xlink" x="0px" y="0px"
	 viewBox="0 0 478 695.5" enable-background="new 0 0 478 695.5" xml:space="preserve">
	 <style>
	#Layer_1:hover {
	fill:yellow;
	}

</style>
<g>
	<path fill="#FEFEFE" d="M0.1,347.4c0-114.6,0-229.3-0.1-343.9C0,0.6,0.6,0,3.4,0c157,0.1,314,0.1,471.1,0c2.8,0,3.4,0.6,3.4,3.4
		c-0.1,229.5-0.1,459.1,0,688.6c0,2.8-0.6,3.4-3.4,3.4c-157-0.1-314-0.1-471.1,0c-2.8,0-3.4-0.6-3.4-3.4
		C0.1,577.2,0.1,462.3,0.1,347.4z"/>
	<path d="M151.2,451.6c2.3-1.7,4.3-4.6,7.5-1c0.7,0.8,2,0.3,2.9-0.7c2.2-2.3,4.5-4.8,7.7-1c0.1,0.1,0.3,0.2,0.3,0.2
		c3.8-3.2,8.2,0.5,12.1-0.9c1.3-0.5,2.8-0.9,4-0.4c3.4,1.2,6.6,3,9.8-0.6c0.6-0.7,2.2,0.1,2.8,1.2c1.4,2.7,3.1,2.2,5.2,0.8
		c2-1.3,4.1-2.1,6.1-0.1c1.1,1,1.8,0.1,2.7-0.1c2.3-0.6,4.7-1,6.9,0.1c1.4,0.7,2.5,0.6,3.8,0.1c1.3-0.4,2.8-0.8,4-0.4
		c3,0.8,4.6,0.6,5.3-3c0.5-2.7,3-2.5,4.7-0.8c1.3,1.3,2.2,3,3,4.7c1.1,2.3,2.5,2,4.1,0.7c4.2-3.3,5.1-3.3,8.5,0.7
		c1,1.2,1.5,1.1,2.2,0c0.7-1,1.3-2.2,2.1-3.1c2.1-2.5,4.5-2.6,6.6,0c1.1,1.4,1.8,2.2,3.7,0.9c2.4-1.6,4.9,0,7.4,0.2
		c1.6,0.1,2.6-3.9,5.4-4.2c3.3-0.4,5.5,1.5,7.2,3.8c1.8,2.4,2.9,3,4.9,0.1c1.8-2.6,4.4-2.6,6.6,0.1c1.7,2.2,2.9,1.6,4.4,0
		c2.4-2.8,5-3.7,8-0.9c0.8,0.7,1.4,0.8,2.2,0.1c0.9-0.7,2-1,3-1.6c3.2-1.7,6.3,2.4,10-0.6c3.1-2.5,6.4,1.2,9.5,2.5
		c0.2-0.3,0.3-0.5,0.4-0.7c0.5-2.3,0.2-5.3,3-5.9c3.1-0.7,4.4,2.2,6,4.3c1,1.3,1.2,2.5,3.6,1.3c4.7-2.4,8.9-0.3,10.6,4.7
		c0.5,1.4,0.7,2,2.1,1c0.8-0.6,1.9-0.5,2.7-1.2c3.6-3.2,7.7-4,12.1-1.9c4.9,2.4,6.8,6.8,7,12c0.3,8.1-0.3,16.1-1,24.1
		c-0.8,9.1-6.5,14.7-14.2,18.6c-3.2,1.6-6.5,2.6-8.8,5.8c-1.8,2.5-4.6,3.6-7.2,0.3c-0.7-1-1.6-1-2.6-0.7c-3.7,0.9-7.4,1.1-11.1,1.2
		c-1.5,0.1-2.8,0.6-3.9,1.9c-18.3,22-40.6,39.5-62.6,57.3c-3.3,2.7-6.5,5.3-10,8.2c20,11.2,36.7,25.5,50.9,42.9
		c3-2.8,8.8-3.7,12.3-2.1c0.9,0.4,1.3,1,1.5,2c2.5,17,8.4,33.4,10.1,50.6c0.5,4.4-0.7,8.4-3.1,12.1c-2.2,3.5-5,3.6-7.2,0.1
		c-3.1-4.8-4-10.4-5.1-15.9c-1-5.1-1.8-10.3-2.4-15.5c-0.4-3.7-1.8-6.7-4.2-9.6c-16.1-19.3-33.5-37.2-54.6-51.3
		c-7.4-4.9-7.3-5-14.1,0.7c-23.6,19.7-48.3,38-75.2,53c-2.5,1.4-2.2,3.4-2.3,5.4c-0.6,8.2-0.6,16.5-2.3,24.6
		c-0.6,2.7-0.3,6.2-3.8,7.1c-3.7,1-6.4-1.3-8.9-3.6c-2.1-2-3.2-4.3-3-7.3c1.1-15.8,2.7-31.6,6.1-47.1c1.3-5.9,3.7-7.6,8.7-6.7
		c6.2,1.1,8,3.9,6.4,10.1c-0.2,0.8-0.3,1.7-0.6,3.4c22.4-17.8,44.1-35.1,66.3-52.7c-3.8-2.1-7.4-4.2-11.1-6.2
		c-19.7-10.7-39.6-21.2-57.4-35.1c-6.8-5.3-13.2-11.1-18.2-18.2c-1.2-1.7-2.5-2.1-4.4-2.2c-9.3-0.8-18.6-2.5-27.7-4.5
		c-7.8-1.8-10.9-5.5-12.1-13.5c-1-7.4-0.6-14.9,0.2-22.2c0.3-2.7-0.7-6.1,1.6-8.6c-2.6-3.5-0.8-7.4-0.8-11.1c0-3.5,0.7-7,2-10.2
		c0.6-1.4,1.3-3.5,3.3-2.7c1.7,0.6,2.9,2.2,3.1,4.2c0.1,1.5,0,3,0,4.8c2.8-1,5.3-4.1,8.4-0.9c0.5,0.5,1.3-1.3,1.9-1.9
		c1.5-1.5,2.9-4.1,5.1-0.7c0.7,1,1.3,0.4,1.8,0c2.4-1.3,4.8-1,6.4,1.1c1.2,1.5,1.9,0.8,3,0.1C146.6,448.2,148,448.3,151.2,451.6z"/>
	<path fill="#FEAB79" d="M81.9,222.9c-0.3-0.1-0.6-0.1-0.9-0.2c-1.9-5.5-5.6-10.3-5.8-16.5c-0.1-3.5,0.4-6.8,2-9.8
		c1.9-3.6,5-5.3,9.2-5.3c9.3,0,14.2,4.5,14.5,13.8c0.2,5-0.4,10-0.9,14.9c-0.6,5.4,1.5,9.1,6.3,11.5c5.1,2.6,10.1,5.6,15.6,7.2
		c3.7,1.1,5.4,0.5,7-2.9c1.8-4.1,3.1-8.4,5.3-12.3c1.6-2.9,0.4-5.3-1.9-7.3c-2.3-1.9-4.8-3.6-7.4-5.1c-5.1-2.9-8.1-7.4-10.2-12.5
		c-2.7-6.7-4-13.6-1.8-20.8c1.9-6.3,6-8.9,12.4-7.4c8.9,2,11.8,7.1,8.9,15.7c-1.5,4.6-3.6,9-5.1,13.7c-0.7,2.3-0.4,4,1.4,5.7
		c7.8,7.4,15.9,14,26.7,16.5c4.8,1.1,5.5,2.8,3.5,7.3c-3.5,7.6-9.4,13.5-14.7,19.8c-0.4,0.5-0.9,0.9-1.3,1.3
		c-5.5,5.8-5.4,5.6-13,2.7c-13.8-5.4-26.5-12.8-38.2-21.9C89.8,228.1,86.1,225.2,81.9,222.9z"/>
	<path fill="#010000" d="M137.2,321.2c-4.5-11.4-1.6-21.5,5-30.8c3.9-5.4,8.7-9.7,15.5-11.6c5.3-1.4,9.5,2.5,10.7,6.3
		c2.5,7.7,1.2,15-3.5,21.6c-3.4,4.8-7.5,9-12.4,12.3c-1.8,1.2-1.8,2.2-0.6,3.9c3.2,4.4,5.8,9.2,6.5,14.8
		c1.4,10.3-6.1,16.5-13.5,18.6c-10.7,3.1-20.3,0.4-29.6-4.8c-0.9-0.5-2.1-2.2-3-0.2c-0.6,1.5-1.3,3.5,1,4.5c0.6,0.2,1.2,0.4,1.7,0.7
		c3,1.2,5.1,3.2,5.3,6.6c0.1,3-1.4,5.3-4,6.7c-3.1,1.6-6.2,1.6-9.2-0.5c-4.9-3.4-7.8-16.4-4-21.2c2-2.6,2.4-4.8,1-8.2
		c-4.6-10.7,3.1-20.3,12.7-23.6C124.6,313.8,131.4,314.9,137.2,321.2z"/>
	<path fill="#010000" d="M81.9,222.9c1.9-0.2,3.3,0.7,4.8,1.7c7.6,5.5,15.1,11.1,22.8,16.4c5.4,3.7,11.6,5.8,17.4,8.6
		c3.4,1.6,6.8,3.1,10.2,4.7c1.2,0.6,2,1.2,3.2-0.2c5.6-7,12-13.4,17.1-20.9c0.1-0.1,0.1-0.2,0.2-0.3c5.2-7.9,4.8-8.2-4-11
		c-8-2.6-14.6-7.9-21.1-13.3c-4.8-4-5.5-7.9-3-13.3c1.8-3.7,3.1-7.6,4.4-11.5c1.9-6.1,0-9.8-6-12c-8.7-3.1-12.9-1-14.3,8.2
		c-1.9,11.9,1.3,22.5,11.9,29.8c2.4,1.6,4.7,3.3,7,5c3.7,2.8,4.6,5.3,2.6,9.4c-1.8,3.6-3.3,7.2-4.6,11c-1.8,4.9-4.4,6-9.4,4.1
		c-5.8-2.2-11.4-5.1-16.8-8.2c-3.8-2.1-5.2-5.2-5-9.2c0.3-5.1,0.8-10.2,1-15.3c0.4-9.4-2.9-13.3-12.1-14.6
		c-5.4-0.7-8.8,1.3-10.7,6.5c-2.6,7.4-0.4,14,3.2,20.4c0.6,1.1,2.4,2.3,0.5,3.8c-4.3-2.6-5.4-7.3-6.5-11.6
		c-1.9-7.8-1.1-15.2,6.1-20.5c3.9-2.8,8.5-3.1,13-2.7c8,0.7,12,5.2,13,13.3c0.7,5.9,0.3,11.7-0.7,17.4c-0.6,4,0.7,6.6,4,8.7
		c5.1,3.4,11,5.3,16.2,8.4c0.1,3.1-1.8,1.7-2.9,1.2c-5.9-2.4-11.7-4.8-16.8-8.7c-0.3-0.3-0.7-0.7-1.6-0.4c6.1,4.3,12.6,7.2,19.4,9.6
		c2.7,1,2.7-2.3,4.1-3.4c1.5-3.4,2.6-7,4.6-10.2c1.8-2.9,1.1-5.5-1.8-7.4c-2.1-1.3-4-2.7-6.4-3.7c-4.4-1.8-7.2-5.6-9.5-9.7
		c-4-7.3-5.9-15.1-4.4-23.4c2-11.1,10.5-14.5,20.5-11c5.7,2,8.3,5.9,8.5,11.9c0.2,6-1.3,11.6-3.3,17.2c-2,5.4-1.8,6.3,2.9,9.7
		c4.9,3.5,10.3,6,15.7,8.7c4.1,2.1,8.3,4,12.3,6.4c3.2,1.9,3.9,4.9,1.3,7.1c-7,5.8-10.1,14.1-14.8,21.5c-1.9,3.1-4,6-6.6,8.6
		c-1.7,1.6-3.3,2.1-5.4,1c-1.9-0.9-3.9-1.6-5.8-2.6c-15.5-9.1-32.3-16.2-46.3-27.9c-1.7-1.5-4.1-2.1-5.9-3.7
		C82.9,225.4,81.8,224.5,81.9,222.9z"/>
	<path d="M210.4,59.5c0,16.4,1.8,32.5,5.3,48.6c2.8,12.7,4.5,25.6,1.2,38.5c-2.1,8.5-6.6,15.2-14.4,19.6c-5.7,3.2-11.6,5.8-18.4,4.7
		c-8.9-1.5-14.7-7.1-18.6-14.7c-4.3-8.3-7.5-17-5.1-26.6c2.4-9.3,7.9-16.5,15.7-22.1c3.1-2.3,6.6-2.6,10.3-2.6
		c6.7,0.1,6.2,0.9,6.2-6.2c-0.1-17.7-0.5-35.5-0.5-53.2c0-6.6,0.4-13.2,1.4-19.7c1-6.6,4.7-7.8,9.8-3.5c4.7,4,9.2,8.4,14.4,11.8
		c3.3,2.2,6.3,2.5,10.1,0.8c7.8-3.6,11.5-9.9,12.8-18c0.3-1.8,0-4.5,2.1-4.7c2.3-0.1,2,2.8,2.5,4.4c3.1,10.4,4.2,20.9-1.6,30.8
		c-7,11.8-19.2,17.9-32.2,12.2C211.2,59.4,210.8,59.5,210.4,59.5z"/>
	<path d="M192.3,352.7c0-8.4,0.1-15.5,4.6-21.6c5-6.9,12.2-8.6,20.1-7.8c6.8,0.7,11.7,4.4,13.5,11.2c2.2,8,0.6,15.5-5.6,21.3
		c-3.2,3-7.7,3.9-11.9,5.2c-2.5,0.8-3.2,1.9-3,4.5c0.5,4.8,0.3,9.7,1.5,14.5c1.1,4.1,3.2,5.5,7.4,5.1c1.4-0.1,2.7-0.6,4.1-0.7
		c5.6-0.1,6.5-0.2,5.4-7.6c-1-7.2-2.1-14.2,0.1-21.4c1.9-6.3,5.9-11,10.4-15.2c3.3-3.1,7.7-2.5,11.7-0.7c4.6,2.1,7.7,5.5,8.1,10.8
		c0.1,1.2,0,2.5,0,3.7c0,11-1.6,13.3-11.8,17c-1.4,0.5-2.8,1-4.2,1.4c-3,1-4.3,3-4.1,6.2c0.3,5.9,0.8,11.7,3.2,17.2
		c1.6,3.6,2.9,7.4,3.1,11.5c0.1,2.1-0.6,3.3-2.8,3.7c-9.1,1.6-18.1,3.2-27,5.8c-3.4,1-6.2-0.3-7.4-3.9
		C201.6,392.7,194.5,372.7,192.3,352.7z"/>
	<path fill="#000100" d="M380.3,211c-3.1-2.4-6-3.4-7.5-6.2c-2.8-5-2-7.8,3.1-10.3c0.6-0.3,1.2-0.3,1.8-0.6
		c6.3-2.4,10.7-1.5,12.6,2.3c2.3,4.7-0.5,11.8-5.6,14.5c-0.2,0.1-0.4,0.3-0.7,0.6c6.8,1.3,13,3.5,18.5,7.7
		c13.3,10.1,15.7,24.4,8.1,38.8c-2.4,4.6-6.9,6.7-10.1,10.2c-2.6,3-5.5,5.1-9.1,6.6c-10.9,4.6-20.8-2.4-23.8-12.1
		c-3-9.6-2.2-18.6,4-26.8c1.2-1.6,1.2-2.4-1.1-2.5c-5.3-0.2-10.4,0.4-15.5,2.1c-0.9,0.3-1.7,0.6-2.2,1.3c-6.5,8.2-13.2,16.4-15,27.1
		c-0.4,2.4,0.1,5,0.2,7.4c0.1,2.7,0.5,5.5,0.5,8.2c0,1.4,0.8,3.4-1.2,3.8c-1.7,0.4-2.4-1.4-3.2-2.6c-4.1-5.9-5.2-12.7-5-19.6
		c0.3-9.9,2.6-19.4,6.4-28.7c3.4-8.3,9.1-13.4,17.7-16.2C361.7,213.6,370.2,210.3,380.3,211z"/>
	<path fill="#010100" d="M301.3,321.4c-2.9-4.1-7.9-2.3-10.3,2.2c-3.1,5.6-4.5,11.9-5.1,18.2c-0.5,4.9-2.6,6-6.8,3.3
		c-5-3.1-6.8-8.8-5-15.5c2-7.6,5.9-14.2,12.1-18.9c3.2-2.5,6.3-4.8,8.9-8c2.9-3.7,5.4-3.5,9.9-0.7c4.6,2.9,7.5,7.2,10.3,11.7
		c3.2,5,6.1,10.3,10,14.9c4.7,5.6,6.5,6.2,12.9,2.8c6.6-3.5,13.7-5.3,21.2-4.4c2.8,0.3,5.2,1.4,7.3,3.4c13.9,13.2,9.3,32.1-9.2,37.7
		c-5.3,1.6-10.7,2.3-16.3,1.8c-8.4-0.7-14.4-5.2-18.1-12.7c-2-4-3.8-8.2-5.8-12.2c-1.1-2.1-2.3-4.2-3.8-6c-5.3-6.5-8.2-6.2-11.8,1.1
		c-1.7,3.4-4,6.6-4.9,10.4c-0.5,2.3-2.6,1.7-4,2c-1.7,0.4-2.3-1.4-2.9-2.8C285.6,339.5,287.3,326.9,301.3,321.4z"/>
	<path fill="#000001" d="M317,138.8c-0.4-4.7,1.7-8.2,5.4-10.9c2.8-2.1,5.8-3.9,9.1-5.2c6-2.3,10-0.1,11.6,6c3,11.9-1.4,19.1-12,27
		c-5.1,3.8-11.2,5.9-17.4,7.5c-1.3,0.3-3.4,0.2-3.6,2c-0.4,2.9-1,5.9-0.3,8.9c0.2,1,1.3,0.6,1.9,0.5c8-0.5,15.9-1.6,23.7-3.1
		c2.6-0.5,2.2-2.9,2.3-4.8c0.3-3.7,0-7.4,2.2-10.8c5.6-8.6,13.4-10.4,23-6.7c5,2,6,6.1,8,9.7c1.8,3.4,1.9,7.2,0.3,10.9
		c-2,4.7-6,7.3-10.3,9.3c-9.9,4.7-20.7,6.2-31.4,7.5c-9.3,1.1-18.6,1.8-27.9,2.6c-15.3,1.4-20.2-2.4-20.5-18.1
		c-0.1-3.9,0.4-7.7,0.3-11.6c-0.1-3.6,1.7-4.5,4.8-4.5c5.8-0.1,11.5-0.6,17.1-1.7c2.7-0.5,5.4-1.2,7.9-2.3c2.4-1,4.8-2.2,5.5-5.1
		C317.2,143.8,316.9,141.3,317,138.8z"/>
	<path fill="#050605" d="M412.8,204.7c0,5.3-3.5,9.2-8.4,8.9c-6.3-0.5-11.5-2.5-11.3-8.6c0.2-6,3.9-10,9.3-9.9
		C408.1,195.1,412.8,199.5,412.8,204.7z"/>
	<path fill="#E49A6D" d="M128.4,234c-1.7,4.6-2.7,5.1-7.1,3.3c-5.8-2.4-11.4-5-16.6-8.4c-0.6-0.4-2.7-0.6-1.3-2.3
		c0.9-1.1,1.9-0.7,2.9,0.2c5.2,4.5,11.5,6.8,17.6,9.5c1,0.4,1.9,0.9,2.3-0.6C127,235.2,127.7,234.6,128.4,234z"/>
	<path fill="#1F00D6" d="M317,138.8c0.4,2.5,1.1,5-0.2,7.5C316.6,143.8,316.3,141.3,317,138.8z"/>
	<path fill="#AADAE6" d="M108.1,483.9c10.2,6.2,21.2,7.6,32.2,8.6c14.3,1.3,28.7,1.6,42.9-1c5.4-1,10-3.8,14.7-6.3
		c5.1-2.7,10.3-4.1,16.1-4.2c19.4-0.2,38.6,2,57.9,4.1c14.3,1.5,28.6,3,43,2.8c10.4-0.1,20.5-2.5,30.9-3.5c5.8-0.6,11.7-1,17.5-1.6
		c1.7-0.2,3.3-0.5,5.2-0.8c-1.9,5.8-1.5,11.6-1.4,17.5c0,2.4-0.9,3.6-3.1,4.3c-9.3,3.3-18.9,4.8-28.7,5.3
		c-21.5,1.2-42.9-0.5-64.3-2.4c-19.3-1.7-38.4-4.5-57.8-5c-6-0.2-11.2,1.6-15.8,4.9c-10,7.3-21.3,9.4-33.2,9.4
		c-15.7,0-31.2-2.1-46.4-5.8c-5.2-1.2-7.7-4.4-8.8-9.8C107.9,495.1,108,489.8,108.1,483.9z"/>
	<path fill="#FEFEFE" d="M315.6,512.5c-5.4,5-10.6,9.8-15.9,14.5c-15.7,14.1-31.9,27.6-48.5,40.6c-3,2.4-5.6,2.7-9.1,0.7
		c-25.8-14.7-51.4-29.8-75.3-47.5c-0.9-0.7-1.8-1.3-3.3-2.5c4.6-0.4,8.5-0.7,12.3-1.1c6.5-0.7,13-2.1,18.1-6.2
		c9.4-7.6,20.2-7.5,31.3-6.5c29.6,2.7,59.1,6.8,88.8,7.5C314.5,511.9,314.8,512.1,315.6,512.5z"/>
	<path fill="#AADAE6" d="M337.6,466.7c-4.2,0.5-6.4,5-10.8,5.4c-1,0.1-0.5,1.7,0,2.6c1.4,2.7,3.9,4.2,6.6,5.2
		c2.3,0.8,4.8,1.4,7.2,2.3c-9,1.4-17.9,3.4-27,3.3c-19.3-0.1-38.4-2.5-57.5-4.4c-15.3-1.5-30.6-2.6-46-2c-4.8,0.2-9.1,1.8-13,4.3
		c-9.6,6.2-20.3,7.8-31.5,7.9c-14.8,0.2-29.5-0.1-43.9-3.7c-3.8-1-7.5-2.3-10.8-5.2c5.3,0.3,10.5,0.6,15.8,0.8
		c2.4,0.1,2.3,0.1,2.6-2c0.1-0.9,1.1-0.9,1.8-1.1c5.3-1.9,10.7-3.3,15.8-5.9c2.2-1.1,4.5-2.5,4.1-5.2c-0.4-3-3.3-3.5-5.7-3.9
		c-9.6-1.6-19.2-1.2-28.8-0.4c-6.9,0.5-6.8,0.7-6.7-6.3c0.1-4,0.6-7.9,2.2-11.8c1.3,2.1,1.3,2.1,0.8,6.2c-1.3,10.3-1.3,10.2,9,9.9
		c26.2-0.8,52.5-0.6,78.7-0.4c1.7,0.6,3.4,0.1,5.1,0.3c0.8,0.1,1.8-0.2,1.8,1.2c-2.3,1.6-5,1.5-7.5,1.7c-2.5,0.3-4.9,0.8-7.3,1.7
		c-0.9,0.3-1.5,0.9-1.4,2c0.1,0.9,0.7,1.3,1.4,1.6c1.3,0.6,2.6,0.8,4,0.8c15.6,0,31.1,2,46.6,2.3c2.5,0.1,4.9,0.7,7.4,0.8
		c0.9,0.1,1.8,0.2,2.4,0.9c4.9,5.5,10.7,1.5,16.1,1.6c0.2,0,0.6-0.2,0.6-0.4c-0.3-3.7,3.2-4.8,5-6.9c1.6-1.9,0.8-2.9-1.1-3.6
		c-1.8-0.6-3.6-0.9-5.5-0.9c-6.2,0-12.5-0.1-18.7,0c-5.4,0.1-10.7-1.1-16-0.9c-1.1,0-2.6,0.2-2.9-1.6c4-1.1,8-0.4,12.1-0.4
		c4.1-0.1,8.1-0.3,12.2,0.2c9.7,0,19.5,0.2,29.2,0.1c3,0,2.5,2,1.9,3.3c-1.3,3.1-0.6,6.2,2.4,8.1c1.6,0.9,3.9-0.9,5.2,1.4
		c1.2,0.8,3.9,0.7,1.8,3.3c-0.3,0.4-0.1,1,0.5,1.1c3.9,0.7,7.6,2.7,11.7,1c2.1-0.9,2.5-2.4,0.3-3.2c-2-0.8-2-2.3-1.7-3.5
		c0.3-1.7,2.1-0.8,3.2-0.7c3.2,0.2,5.2-1,4.7-4.4c-0.3-2.2,1.1-1.4,2-1.6c2.3-0.5,5.1,0.9,6.8-1.8c-0.1-0.6,0.2-1,0.8-1
		c4.3-0.1,8.7-0.1,13,0C337.6,464.8,338.3,465.3,337.6,466.7z"/>
	<path fill="#AADAE6" d="M159.1,645c-0.4,0.8-2.3,1.1-1.3,2.2c1,1.2,2-0.3,2.8-0.9c21-14.9,41.4-30.5,61.2-46.9
		c32.2-26.7,64.1-53.7,96.1-80.7c1.3-1.1,2.9-2.1,3.9-3.5c2.5-3.4,5.8-3.8,9.9-3.2c-2.8,4.4-6.4,7.8-9.8,11.4
		c-14.6,15.6-31.2,29.1-47.8,42.5c-5.9,4.8-11.8,9.7-17.6,14.6c-1.5,1.2-2.4,1.9-4.3,0.2c-2.5-2.3-5-0.4-6.9,1.4
		c-1.9,1.8,0,3.2,1.1,4.3c2.1,2-0.3,2.4-1,3c-9.3,8-18.8,15.7-28.5,23.1c-15.9,12-32.2,23.2-49.6,32.8c-1.7,0.9-2.3,1.9-2.4,4
		c-0.5,7-1.4,13.9-2.1,20.9c-0.1,1.4-0.5,1.9-1.9,2.1c-8.4,1.3-8.6,1-7.9-7.3c1.1-13.5,2.4-27,5.5-40.3c0.6-2.5,1.1-4.9,4.5-5.1
		c4.3-0.2,5.3,0.7,5,5c-0.2,2.6-0.5,5.2-0.7,7.8c-0.1,1.4-0.7,2.3-1.8,3.1c-2.2,1.6-4.3,3.4-6.6,4.9c-1.9,1.3-1,2.1,0.2,3.1
		C159.6,644.1,159.5,644.5,159.1,645z"/>
	<path fill="#AADAE5" d="M329.3,647.4c2.5,7.3,3.9,14.9,5,22.5c0.1,0.5,0.2,1.3,0,1.4c-2.6,1.7-5.5,0.6-8.2,1
		c-1.3,0.2-2.2-0.2-2.4-1.7c-1.1-7.8-3.7-15.5-3.2-23.5c0.1-1-0.6-1.6-1.1-2.2c-18.5-22.3-38.5-42.8-63.4-58
		c-0.7-0.4-2.8-0.6-1.4-2.2c0.8-1,1.8-2.5,3.7-1.3c4.4,2.8,9,5.4,13.3,8.3c21.2,14.2,38.8,32,52.8,53.3c0.7,1.1,1.1,3.1,3.2,2.1
		C328.2,647,328.7,646.9,329.3,647.4z"/>
	<path fill="#A8D6E2" d="M249.1,573.9c-6,5.1-6,5.1-13,1.3c-17.4-9.5-35.2-18.3-51.8-29.1c-10.8-7-21.3-14.4-29.6-24.4
		c-0.6-0.7-1.1-1.3-1.6-2c-0.3-0.4-0.5-0.8-0.8-1.4c1.8-0.6,3.2-0.7,4.4,0.8c9.2,11.1,21.3,18.8,33.3,26.4
		c16.9,10.7,34.6,20,52.1,29.5c0.8,0.5,2,2.2,3,0.3c1-1.9-1-2-1.9-2.5c-17.5-9.5-35.3-18.7-52.3-29.2c-10.6-6.6-20.9-13.5-30-22.2
		c1.5-1.2,2.4,0.2,3.4,0.9c25.1,18.4,51.9,34.1,79.2,49c1.3,0.7,2.6,1.6,4.2,1.5C248,573.1,249.5,572.4,249.1,573.9z"/>
	<path fill="#A9D8E4" d="M337.6,466.7c-0.1-0.6-0.3-1.4-1-1.4c-4.7,0.1-9.4-0.9-14,0.6c-0.8-2.7,1.5-1.3,2.1-1.3
		c7.6-0.1,15.2,0.1,22.8-0.7c4.2-0.4,8.4-1.1,12.5-2.1c2.2-0.5,3.6-1.5,3.7-4.2c0.2-3.9,4.7-6.9,8.7-6.5c4.3,0.5,8.9,5.4,8.6,9.1
		c-0.2,2-1.8,1.4-2.8,1.6c-7.5,1.4-15.3,1.1-22.5,3.5c-4.7,1.5-9.3-1.6-13.8,0.6C340.7,466.4,339.1,466.4,337.6,466.7z"/>
	<path fill="#A4D2DD" d="M355.1,460.7c-10.3,2.2-20.6,2-31.6,1.8c1.1-1.1,1.7-2.1,1.4-3.4c1.8,0.7,3.1,2.7,5.4,1.9
		c1.1,0.5,2.4,1.1,1.8-1.1c-0.8-2.8-1.9-5.5-4.2-7.4c-1.3-1.1-2-2.6-1.2-3.9c0.9-1.7,2.7-0.9,4-0.4c1.6,0.6,3.2,1.5,4.3,2.9
		c0.8,1,2.4,2.2,0.1,3.6c-0.9,0.5-0.7,1.9-0.5,2.8c0.2,1.4-0.7,3.7,1.7,3.8c2.3,0.1,0.9-2.1,1.3-3.2c0.5-1.5,0.4-3.7,2.3-3.7
		c1.7-0.1,2.4,1.9,2.9,3.4c0.4,1.2,0.6,2.3,1,3.7c1.9-2.3,0.8-7.5-2.1-8.7c-3.8-1.6-3.3-4.3-2.7-7.3c1.2,1.5,2.7,2.4,4.7,2.5
		c2.5,3.5,3.9,7.4,4.9,11.4c0.1,0.6,0,1.6,1.1,1.6c1.2,0,1.8-0.7,1.6-1.9C352.7,459,354,459.6,355.1,460.7z"/>
	<path fill="#A6D4E0" d="M177.7,629.2c19.7-16.2,39.5-32.4,59.6-48.1c0.7-0.6,1.6-1.8,2.5-0.8c1.1,1.1-0.4,1.7-1,2.2
		c-19.5,16.3-39,32.5-59.5,47.6C178.2,630.7,177.6,630.6,177.7,629.2z"/>
	<path fill="#A9D8E4" d="M369.4,500.7c0.4-8.6-2.4-17.9,7.1-24.1c0.6,6.1,0.8,11.8,0,17.4C375.9,497.8,371.8,498.4,369.4,500.7z"/>
	<path fill="#A8D7E3" d="M329.3,647.4c-0.6,0-1.1-0.1-1.7-0.1c0.3-2.6,0-4.9-1.7-7.1c-3.4-4.6-6.6-9.4-9.8-14.1
		c-0.5-0.7-2-1.3-0.7-2.7c0.8-1,1.2-2.2,3-2.3c4.6-0.3,5.6,0.4,6.6,5.1C326.3,633.3,327.8,640.4,329.3,647.4z"/>
	<path fill="#A5D4DF" d="M293.3,475.6c-1.5-1.3-3.7-0.1-5.2-1.4c0.9,0,1.7,0.1,2.6,0.1c1,0,2.1-0.1,2.5-1.1c0.3-0.9-0.4-1.6-1-2.2
		c-1.1-1.1-2-2.2-0.7-3.8c0.9-1.2-0.2-2.6-0.1-4.2c3.1,0.2,6,0.5,9,0.5c2.2,0,2.2,1.7,3,3c1.3,2.1-0.8,1.9-1.4,2.6
		c-1.8,2.3-3.4,4.7-6.9,4.4C294.2,473.5,293.4,474.5,293.3,475.6z"/>
	<path fill="#A0CDD8" d="M373.5,475.3c-1.1,1.3-2.2,2.6-3.3,3.9c-0.2,0.3-0.7,0.7-0.9,0.6c-7.9-2.7-16.1-0.1-24.1-1.5
		c-2.7-0.5-5.4-0.9-8.1-1.6c-1-0.3-3.1-0.4-2.2-2.1c0.7-1.2,2.6-3,4.3-1.6c5.3,4.3,11.5,3.7,17.5,3.7
		C362.3,476.6,368,476.8,373.5,475.3z"/>
	<path fill="#A9D6E2" d="M285.7,460.7c-2.7,0.4-4.2-0.4-3.4-3.3c0.8-2.7-1-4-2.8-4.9c-1.3-0.7-2.6-0.7-1.7-2.7
		c0.9-2,2.2-3.1,4.4-2.5c1.5,0.5,2.8,1.6,3.7,3c1.5,2.1,2.3,4.4,2.9,6.8C289.3,459.6,289.1,461.5,285.7,460.7z"/>
	<path fill="#A7D6E2" d="M319.7,462.2c-2.8,0.4-4.5-0.2-3.3-3.5c0.7-1.9,0.2-3.6-1.3-5.1c-2.5-2.4-0.8-3.7,1.4-4.6
		c1.5-0.7,3.2-0.7,4.8,0c1.8,0.8,3.8,1.4,1.4,4.1c-1.6,1.8-2.4,4.1-0.5,7C323.9,462.8,321,462.1,319.7,462.2z"/>
	<path fill="#A7D6E2" d="M355.1,460.7c-1.5,0-3-0.1-3.9-1.6c-0.9-1.7-0.9-3.6-1.1-5.4c-0.1-1.5-2.2-3.8,1.1-4.4c2.6-0.4,5.3-0.7,6,3
		c0.3,1.5,0.7,2.9,1.1,4.3C359.3,459.7,358.3,461.1,355.1,460.7z"/>
	<path fill="#9DCAD5" d="M379.8,468.7c-8.8,6.6-18.9,2.2-28.4,3.6C360.6,468.8,370.2,468.8,379.8,468.7z"/>
	<path fill="#A5D4DF" d="M296.7,461.6c-1.7-1.1-4.2,1-4.7-2.2c-0.5-3.3,1-9,2.7-9.7c1.5-0.6,2.4,0.3,3.1,1.4
		c1.6,2.6,2.5,5.5,2.6,8.5C300.4,462.9,297.5,460.3,296.7,461.6z"/>
	<path fill="#97C2CD" d="M295.5,607.8c-11.4-10-23.7-18.7-36.5-26.8c14.1,6.3,26.2,15.4,37.3,25.9
		C296.4,607.6,296.2,608,295.5,607.8z"/>
	<path fill="#94BEC9" d="M111.6,469.6c11-4.7,21.9-3,33.4,0.2c-2.4,2.8-4.9,3.9-8.7,5.4c1.7-1.9,3.4-2.9,2.6-4.6
		c-0.8-1.8-2.7-1.5-4.3-1.6C126.9,468.2,119.2,468.7,111.6,469.6z"/>
	<path fill="#A6D3DE" d="M257.9,460.5c-2.9,0.6-3.7-0.7-2.8-3.3c0.7-2,1.3-4,2.2-5.9c0.7-1.5,1.2-3.8,3.5-3c2.1,0.8,3.1,3,2.7,5.2
		c-0.5,2.4-2.5,4.1-3.2,6.6C260,461,258.7,460.3,257.9,460.5z"/>
	<path fill="#A3D0DC" d="M248,460.4c-1.8-0.1-4.2,0.7-4-2.7c0.2-3.7,2.5-7.9,4.5-7.3c3.6,1.2,3.2,4.6,3.6,7.5
		C252.4,461.5,249.8,460.2,248,460.4z"/>
	<path fill="#A5D4DF" d="M303.1,458.3c-0.1-3,0.5-5.4,1.6-7.7c0.7-1.3,1.7-2.1,3.3-2c1.4,0.2,2,1.2,2.7,2.3c1,1.7-0.5,2.1-1.3,2.9
		c-1.2,1.3-1.9,2.9-2.5,4.5c-0.5,1.3,0,3.7-2.6,3.1C301.9,461.1,303.7,459,303.1,458.3z"/>
	<path fill="#87AEB7" d="M254.5,462.8c-6.6,0.1-13.2,0.1-19.8,0.2c-1.5,0-3-0.4-4.4,0.5c-0.9,1.1-2.1,1.2-3.3,1.2
		c-5.5,0-11.1,0-16.6,0c-1.2,0-2.5-0.1-3.4-1.2c-2-1.7-4.7,0.3-6.7-1.3c17.7,0,35.5,0.1,53.2,0.1
		C253.9,462.4,254.2,462.6,254.5,462.8z"/>
	<path fill="#A2D0DB" d="M161.9,459.7c-1.8,0.3-2.6-0.3-1.8-2.4c0.9-2.5,2.1-4.7,3.8-6.7c0.7-0.8,1.7-1.7,2.9-1.3
		c1.3,0.4,1.2,1.8,1.2,2.8C168,455.3,164.4,459.8,161.9,459.7z"/>
	<path fill="#A0CDD9" d="M197.5,454.9c-1,1.5,1.4,4.5-2.2,4.9c-4.5,0.5-5.1-0.3-3.5-4.5c0.2-0.6,0.5-1.1,0.8-1.7
		c0.8-1.6,1.5-4.3,3.3-3.9C198.2,450.2,196.9,453.1,197.5,454.9z"/>
	<path fill="#A3D0DC" d="M202.2,459.9c-1.8,0.1-2.3-0.5-2-2.4c0.6-3.4,2.5-5.5,5.4-7c0.8-0.4,1.8-0.7,2.4,0c0.4,0.5,0.8,1.6,0.6,2
		c-1.4,2.4-3,4.8-4.6,7.1C203.7,459.9,202.8,459.8,202.2,459.9z"/>
	<path fill="#A2CFDA" d="M327.1,681.1c-1-2-3.2-5.1-1.6-6.2c1.9-1.2,5.3-0.4,8-0.2c1.2,0.1,1,1.3,0.8,2.1c-0.5,1.5-0.6,3.2-1.8,4.4
		C330.7,681.1,328.9,680.4,327.1,681.1z"/>
	<path fill="#95BFC9" d="M131.8,472.9c-7.1,0.9-14.3,1.8-21.4,2.8c6.5-5,14-3.5,21.2-4.2C131.6,472,131.7,472.5,131.8,472.9z"/>
	<path fill="#A1CDD7" d="M153.2,674.5c2.1,0,4.1-0.1,6,0c1.2,0.1,3.1-0.7,3.4,1.2c0.2,1.5,0.8,3.5-0.8,4.5c-1.3,0.9-2.9,0.1-4.2-0.7
		C155.8,678.4,153.9,677.2,153.2,674.5z"/>
	<path fill="#93BDC7" d="M177.7,629.2c0.3,0.7,0.9,0.8,1.5,0.9c-6.5,5.3-13.2,10.2-20.2,14.9c0-0.5,0-0.9,0.1-1.4
		C165.3,638.8,171.5,634,177.7,629.2z"/>
	<path fill="#A1CED9" d="M153.4,459.7c-0.6-0.3-2.7,0.9-2.2-1.3c0.6-2.8,1.6-5.9,4.4-6.8c1.6-0.5,1.7,2.1,1.5,3.4
		C157,457,158,460.4,153.4,459.7z"/>
	<path fill="#9DCAD5" d="M271.7,461c-0.4-1.1-0.7-1.5-0.6-1.8c1.3-3.2-0.6-4.8-3-5.8c-2.5-1-1.3-1.8,0-2.6c1.7-1.1,3.6-1.1,5.1,0.3
		c1.5,1.3,1.7,2.8,0.5,4.6C272.9,457.1,272.5,458.8,271.7,461z"/>
	<path fill="#A3D1DD" d="M219.7,459.7c0.9-2.9,2.3-5.1,3.9-7.1c0.5-0.6,1-1.2,1.9-1c1.1,0.3,0.9,1.3,1,2.2
		C226.9,459.5,226,460.3,219.7,459.7z"/>
	<path fill="#9AC6D1" d="M178,453.3c-0.6,1.5-1.5,3.7-2.5,5.8c-0.3,0.6-1,0.7-1.6,0.5c-0.7-0.3-0.5-1-0.3-1.6c1-2.3,1-4.4-0.9-6.4
		c-0.8-0.8,0.1-1.9,1.8-2C176.8,449.4,178,450.5,178,453.3z"/>
	<path fill="#90B9C4" d="M303.9,525.9c4.5-4.3,9-8.5,13.5-12.7c0.8-0.7,1.8-2.1,2.8-1c1,1.1-0.7,1.9-1.4,2.5
		c-4.6,4.1-9.4,8.1-14.1,12.1C303.9,526.9,303.7,526.6,303.9,525.9z"/>
	<path fill="#A4D3DE" d="M330.3,461.1c-3,2.6-4.3,0.7-5.4-1.9c-0.2-0.3-0.5-0.6-0.5-1c-0.2-1.4-1.1-3.3,0.5-4.1
		c1.7-0.8,2.6,1.1,3.3,2.2C329.3,457.7,330.1,459.3,330.3,461.1z"/>
	<path fill="#9AC5D0" d="M314.3,458.5c0,2,0.5,4.1-2.5,3.5c-1.1-0.2-3.2,0.8-2.9-1.6c0.4-2.3,0.9-5.3,3.5-5.7
		C314.8,454.5,314,457.2,314.3,458.5z"/>
	<path fill="#96C0CB" d="M183.1,450.5c4.6-1.6,6.3-0.2,5.7,4.5c0,0.1,0,0.3-0.1,0.4c-0.9,1.4,0.8,4.6-2,4.3c-2.5-0.3-0.9-3-0.6-4.3
		C186.4,452.6,183.7,452.3,183.1,450.5z"/>
	<path fill="#A2D0DB" d="M237.3,455.5c-0.6,1.8,1.1,5.4-3.5,4.6c-1.5-0.2-2-0.7-1.4-2.1c0.8-1.8,1.5-3.6,2.4-5.4
		c0.4-0.8,0.6-2.2,1.8-1.9c1.1,0.3,0.7,1.7,0.8,2.6C237.4,454,237.3,454.6,237.3,455.5z"/>
	<path fill="#9DC9D4" d="M207,459.6c1.2-2.7,2.6-4.8,4.6-6.5c0.5-0.4,1-0.8,1.7-0.5c0.6,0.4,0.4,1,0.4,1.7
		C213.3,458.8,212,460,207,459.6z"/>
	<path fill="#9AC6D1" d="M215,450.8c2.3-0.3,3.9-0.3,4.9,1.3c1,1.6-0.6,2.5-1.1,3.6c-0.1,0.3-0.3,0.7-0.6,1c-0.9,1.1-0.8,4-2.9,2.9
		c-2.1-1.1,0.5-2.2,0.8-3.4C216.5,454.6,216.4,452.7,215,450.8z"/>
	<path fill="#95BFC9" d="M183.7,456.5c0.2,1.9,0.1,3.7-2.5,3.2c-1-0.2-2.9,0.9-2.6-1.3c0.3-2.2,1-4.8,3.4-5.2
		C184,452.9,183.5,455.2,183.7,456.5z"/>
	<path fill="#A0CDD8" d="M121.7,455.4c-0.7,1.5,0.5,5.1-3.8,4.8c-1.2-0.1-1.6-0.6-1.3-1.6c0.7-2.4,1.3-5,4.3-5.5
		C122.4,452.9,122.2,453.9,121.7,455.4z"/>
	<path fill="#9ECBD6" d="M274.7,460.5c0.3-1.1,0.4-2,0.7-2.7c0.6-1.6,1.4-3.9,3.3-3.2c1.9,0.7,1.6,3.5,1,5
		C278.8,461.8,276.6,460.2,274.7,460.5z"/>
	<path fill="#74959E" d="M295.5,607.8c0.3-0.3,0.6-0.6,0.9-0.8c0.8,0.6,1.6,1.2,2.2,1.9c3.4,3.6,6.8,7.2,10.1,10.9
		c-0.2,0.2-0.4,0.4-0.6,0.7C303.9,616.2,299.7,612,295.5,607.8z"/>
	<path fill="#9DCAD5" d="M265.8,460.5c-0.7-0.4-2.5,0.9-2.3-1.1c0.1-2,1.1-3.7,3.3-3.9c1.8-0.1,2,1.6,2.1,2.9
		C269.1,460.8,267.5,460.6,265.8,460.5z"/>
	<path fill="#9BC7D2" d="M380.2,487.7c0-5.3-2.4-10.7,0.9-15.7C380.8,477.2,380.5,482.4,380.2,487.7z"/>
	<path fill="#68868E" d="M249.1,573.9c-0.5-0.5-1-0.9-1.5-1.4c4.8-1.8,7.9-6,12.1-8.6c0.6-0.4,1.1-0.8,1.9-0.9
		C257.6,566.9,253.6,570.7,249.1,573.9z"/>
	<path fill="#80A4AD" d="M141.2,459.7c-0.3-4,2.1-7.7,5-8.5c1.7-0.5,2.5,0.3,3.2,2.2C143.6,452,143,456.5,141.2,459.7z"/>
	<path fill="#F5F5F5" d="M327.1,681.1c1.9-3.2,3.6-1.1,5.4,0.1c-0.5,1.4-1,3.1-2.6,3.1C328,684.4,327.6,682.6,327.1,681.1z"/>
	<path fill="#8BB2BC" d="M228.3,451.2c4.1,1.3,4.1,3.1-0.1,9.3C228,457.1,229.8,454.2,228.3,451.2z"/>
	<path fill="#8FB8C2" d="M135,459.7c0.1-0.8,0.1-1.4,0.3-2c0.7-1.5,1-4,2.9-3.7c1.2,0.2,0.5,2.6,0.5,4
		C138.6,460.9,136.6,459.7,135,459.7z"/>
	<path fill="#8EB7C1" d="M171.5,453.7c-0.1,2.1,1.2,4.6-1.2,6c-0.6,0.3-2.1,0.5-2.3-0.4C167.8,456.7,169.4,455,171.5,453.7z"/>
	<path fill="#8AB2BC" d="M305.5,465.6c0.6-1.2,1.4-1.2,2.1-1.2c1.8,0.1,3.7-0.5,5.3,0.6c0.1,0.1,0.1,0.8-0.1,0.9
		c-1.8,1.3-3.8,0.7-5.7,0.5C306.6,466.4,306.1,465.9,305.5,465.6z"/>
	<path fill="#E2E3E3" d="M343.6,448c-2.8,1.5-4.6,1.1-4.7-2.5c0.1-1.4,0.9-1.7,1.9-0.8C342,445.6,343.1,446.6,343.6,448z"/>
	<path fill="#8EB6C0" d="M303.2,471.2c2.8-1.9,5-2.7,7.5-1.7c0.6,0.2,0.6,1,0.3,1.2C308.7,471.4,306.4,471.8,303.2,471.2z"/>
	<path fill="#9CC8D3" d="M125.7,459.6c0.6-2.1,1.7-3.7,3.7-4.7C130.2,459.2,129.6,460,125.7,459.6z"/>
	<path fill="#9FCBD7" d="M146.6,459.8c-1.1,0-2.3,0.2-2.1-1.1c0.2-1.3,0.4-2.9,2.1-3.2c1.4-0.2,1.4,1.2,1.5,2.1
		C148.2,458.8,148.1,459.9,146.6,459.8z"/>
	<path fill="#98C3CE" d="M249.8,585.6c-1.1-0.4-2.2-0.8-2.4-2.1c-0.1-1.4,1.2-1.4,2.1-1.5c1.5-0.2,2,0.7,1.9,2
		C251.4,585,250.8,585.5,249.8,585.6z"/>
	<path fill="#4D656B" d="M303.9,525.9c0.3,0.3,0.5,0.5,0.8,0.8c-1.8,2.2-4,3.7-6.5,4.9C299.6,529.3,301.6,527.5,303.9,525.9z"/>
	<path fill="#85ABB5" d="M136.6,451.6c-1.1,1.5-2.2,3-3.5,4.9C132.4,453.2,133.3,451.5,136.6,451.6z"/>
	<path fill="#84AAB4" d="M332.9,472.8c-0.5,1.4-0.8,2.9-2.3,3.4c-0.5,0.2-1.5-0.6-1.3-1.4C329.7,473.1,331.4,473.1,332.9,472.8z"/>
	<path fill="#88AFB8" d="M239.7,455.6c1.3,1.7,1.7,3,1.2,4.4c-0.2,0.5-1.1,0.5-1.3,0.1C238.7,458.8,239.4,457.4,239.7,455.6z"/>
	<path fill="#5B777D" d="M305.3,479.3c-2.5,0.2-4.1,0.5-6.2-0.4C301.4,477.5,302.9,478,305.3,479.3z"/>
	<path fill="#9A9A9A" d="M357.6,508.8c-0.9,1.5-1.6,2.4-3.1,1.8c-0.4-0.2-1-0.6-0.6-1.1C354.7,508.1,356,508.6,357.6,508.8z"/>
	<path fill="#82959A" d="M127,453.1c0.5-1.4,0.7-2.7,2.3-2.7c0.2,0,0.6,0.8,0.6,1.2C129.7,453.3,128.4,453.1,127,453.1z"/>
	<path fill="#030302" d="M130.6,240c0-2.1,0.8-3.5,1.8-4.8c2.7-3.5,5.6-7,8.4-10.5c1.1-1.3,2.4-1.6,4-1.1c0.9,0.3,1.8,0.7,2.8,1.1
		c6.9,2.4,7.1,3.1,2.6,8.7c-2.2,2.8-4.4,5.7-6.6,8.5c-3.2,3.9-7.8,4.4-12,1.9C129.4,242.6,132.7,240.6,130.6,240z"/>
	<path fill="#FD005E" d="M146.3,317.3c3.7-4.2,7.6-8.2,8.9-14c0.6-2.5-0.8-5.1,1-7.5c0.4-0.6-0.7-1.1-1.5-0.6
		c-6.5,4.4-13.8,10-12.9,19.9c-1.2-1.2-2.5-2.7-3.4,0.4c-2-12.6,4.2-26,14.6-32.2c3.2-1.9,6.7-3.4,10.2-1.2c3.6,2.2,3.9,6.2,4.1,9.9
		c0.3,7.4-3.3,13.2-8.1,18.3c-2.3,2.4-5,4.5-7.5,6.8c-1.2,1.1-2.5,1.4-4.1,0.9C146.9,318.7,146.3,318.6,146.3,317.3z"/>
	<path fill="#FC005E" d="M150.8,329.4c0.8-0.8,1.5-1.2,2.4-0.1c6,7.5,3.7,19.9-5,23.3c-7.4,2.9-15.5,4.6-23.1,0.9
		c-3.2-1.5-6.1-4.3-9.1-6.4c-0.9-0.6-0.2-1.4,0.4-1.9c1.3-1.1,2.1-2.8,3.8-3.6c0.2,0.7,0.3,1.6,0.7,1.9c7.6,4.8,16.6,5.4,21.9-3.4
		c2.3-3.8,1.6-7.9,0.3-11.9c-0.3-0.8-1-1.8,0.1-2.3c1.1-0.5,1.2,0.9,1.7,1.5c0.9,1.2,1,3.8,3.6,1.9
		C149.3,328.7,150.1,330,150.8,329.4z"/>
	<path fill="#FAFAFA" d="M139.8,327.8c3.5,5.1,3,10.4-0.6,13.7c-4.2,3.9-10.4,3.8-17.6-0.6c2.8-3.4,6.7-5.4,10.1-7.8
		c0.9-0.6,1.3,0,1.5,0.8c0.2,0.8,0.4,1.7,0.4,2.6c-0.1,2,1.1,3.3,2.7,3.4c2,0.2,1.9-1.9,2.2-3.2
		C139.1,333.8,139.4,330.8,139.8,327.8z"/>
	<path fill="#F7005C" d="M135.7,323.2c-15.1-6.8-31.6,3.4-27.3,18.4c-2.9-2.8-3.9-7.7-2.2-12.2c2.7-7.3,8.3-11,15.8-12
		C127.2,316.7,131.9,318.1,135.7,323.2z"/>
	<path fill="#FA005D" d="M111,345c-1.7,2.2-3.2,4.4-4.3,7c-0.3,0.7-1,1.6,0.1,2.2c1.1,0.6,1.8,0.2,2.4-1.1c0.1,3.5,0.5,6.7,3.4,9
		c0.9,0.7,1.8,1.3,2.9,1.5c0.7,0.2,1.8-1.2,2.1,0.4c0.2,0.9-0.4,1.7-1,2.3c-2.3,2.8-6.6,2.8-9.1-0.1c-5.9-6.5-4.8-15.8,2.5-22.7
		C111.5,343.5,111.7,344,111,345z"/>
	<path fill="#F2F2F2" d="M117.4,334.9c-0.2-6.3,4.6-10.8,9.5-9.2c0.7,0.2,1.5,0.6,1.8,1.1c0.4,0.9-0.6,1.2-1.2,1.6
		C124.2,330.5,120.9,332.6,117.4,334.9z"/>
	<path fill="#E8E8E8" d="M146.2,314.1c1-6.3,2.7-11.1,7.4-15.1C153.4,305.3,150.9,309.6,146.2,314.1z"/>
	<path fill="#E40054" d="M119.7,324.5c-1.3,1.4-2.8,2.7-4,4.2c-1.7,2.4-3.7,4.7-3,8.1c0.2,1.1,0,2.2-1.2,2.3
		c-1.4,0.1-1.1-1.4-1.3-2.3C109.5,331.5,113.7,326.1,119.7,324.5z"/>
	<path fill="#A6003B" d="M111,345c0-0.6,0-1.2-0.7-1.4c1.8-2.5,4.5-3.8,7.1-5.3C115.3,340.5,113.1,342.7,111,345z"/>
	<path fill="#B80043" d="M146.3,317.3c0.3,0.7,0.9,0.7,1.5,0.8c-1.9,1.5-3.9,2.9-6.3,3.6C142.8,319.8,144.2,318.2,146.3,317.3z"/>
	<path fill="#B50041" d="M150.8,329.4c-0.8,1.2-1.5,0-2.3,0c-0.9-1.6-1.9-3.3-3.2-5.6C148.5,325.2,148.4,328.4,150.8,329.4z"/>
	<path fill="#B0003F" d="M129.4,323.5c1.4-0.4,2.5,0,3.3,1.1c0.1,0.1-0.3,0.8-0.6,0.8C130.6,325.6,129.9,324.8,129.4,323.5z"/>
	<path fill="#BF0045" d="M116.2,360.6c-0.1,0.7-0.6,0.9-1.1,0.6c-0.9-0.4-1.9-0.9-2-2c-0.1-0.7,0.7-0.6,1.1-0.5
		C115,359.2,116,359.5,116.2,360.6z"/>
	<path fill="#A20039" d="M136.4,334c-1.7-0.9-1.8-1.8-1.5-2.8c0-0.2,0.7-0.5,0.9-0.4C137,331.6,136.2,332.6,136.4,334z"/>
	<path fill="#F5A676" d="M167.9,227.3c-0.3,0.5-0.7,1.4-1.3,1.8c-5.9,4.5-8.8,11-12.2,17.2c-2.2,3.9-4.3,7.8-7.6,11
		c-1.6,1.6-2.7,1.2-4.1,0c-1.6-1.4,0-2.2,0.7-3c4.6-5.7,9.6-11.1,14-17c2.1-2.9,4.2-5.9,5.4-9.3c0.9-2.3,2.7-1.7,4.3-2
		C167.6,226,168,226.4,167.9,227.3z"/>
	<path fill="#E1986B" d="M158.9,220.6c-4.2,0.2-7.4-1.5-10.6-3.2c-5.7-3-11-6.8-15.7-11.3c-0.5-0.4-1.4-0.9-0.7-1.8
		c0.5-0.6,1.2-0.3,1.6,0.2c6.5,7.7,16.1,10.5,24.4,15.2C158.1,220,158.3,220.1,158.9,220.6z"/>
	<path fill="#EB9E70" d="M130.5,202.9c0.2-8.7,6.5-15.5,6.7-24.2C137.6,187.6,135.8,195.7,130.5,202.9z"/>
	<path fill="#DC9468" d="M102.5,201.5c2.2,2.9,2.6,5.2,2.3,7.8c-0.4,4.1-0.7,8.2-0.9,12.3c-0.1,1.3-0.1,2.9-1.7,2.7
		c-1.4-0.2-0.8-1.9-0.8-2.9C101.4,215.1,102.8,208.8,102.5,201.5z"/>
	<path fill="#DCD3CE" d="M98.2,191.3c1.5,0.4,2.6,1.4,3.5,2.5c0.5,0.6,1.6,1.2,0.6,2.1c-1.1,1.1-1.6-0.2-2.2-0.9
		c-0.6-0.6-1.2-1.2-1.8-1.9C98.3,192.5,96.5,192,98.2,191.3z"/>
	<path fill="#AB7758" d="M98.2,191.3c-1,0.7,0.2,1.2,0.1,1.9c-1.4-0.8-2.9-1.5-4.3-2.3C95.6,190.5,97,190.1,98.2,191.3z"/>
	<path fill="#7B533B" d="M161.9,221.8c1.3,0.3,2.5,0.5,3,1.9c0,0.1-0.3,0.4-0.5,0.5C162.7,224.4,162.5,223,161.9,221.8z"/>
	<path fill="#9FFEFE" d="M203.4,160.6c-1.3-1.7-2.2-0.1-3.1,0.5c-4.6,3-9.6,4.6-14.8,6.1c-4.5,1.3-7.8-0.3-10.9-3.1
		c-7.6-6.8-12.5-15.8-12.1-25.7c0.4-10.7,5.5-20.4,14.8-26.9c1.5-1.1,3.6-0.8,5.5-0.7c2.2,0.1,4.5,0.3,6.7,0.2
		c3.8-0.2,5.8-2.4,5.7-6.1c-0.2-24,0.8-48-0.1-72c-0.1-2.4,0.5-5,1.2-7.3c1-3.7,2.1-4.1,5.2-1.8c3.5,2.6,6.7,5.6,10.1,8.3
		c1.8,1.5,3.7,3,5.7,4.2c8.4,5,16.1,2.7,20.7-5.8c2.1-3.8,3.8-7.8,5-12.5c5.7,16,1.5,31-12.6,38.7c-5.3,2.9-10.7,3.1-16.2,1.2
		c-1.1-0.4-2-0.9-3.1-1.3c-3.6-1.2-5.3-0.2-5.2,3.6c0.5,11.7,1.1,23.4,1.7,35.2c0.1,1.7,0.1,3.5,0.2,5.2c0,0.6-0.1,1.4,0.8,1.4
		c1.1,0.1,1-0.9,1-1.6c0-2.6,0-5.2,0-8.8c2.1,5.9,2.8,11.2,3.8,16.3c1.7,8.8,3,17.7,2.8,26.7c-0.2,6.7-1.3,13.1-4.4,19.1
		c-1.7,3.4-4.5,5.6-6.9,8.3C203.4,162.5,204,161,203.4,160.6z"/>
	<path fill="#7ECBCB" d="M179.3,109c3.8-3.1,8.1-2,12.2-2.2c0.5,0,0.9,0.5,0.7,1.1c-0.3,0.8-1.1,1.1-1.8,1.1
		C186.7,109,183,109,179.3,109z"/>
	<path fill="#619D9D" d="M203.4,160.6c0.5,0.5,1,1,1.5,1.5c-4.3,3.3-9,5.8-14.6,6.4c3.2-1.9,6.8-2.7,9.9-4.8
		C201.4,162.8,203.4,162.7,203.4,160.6z"/>
	<path fill="#DF00FE" d="M196.7,366.8c-1.3-6.1-2.4-12.2-2.3-18.5c0-4,0.5-8,1.9-11.8c0.3-0.7,0.4-2,1-1.8c3.7,1.6,4.4-2.2,6.3-3.5
		c5.9-4.2,13.3-5.1,18.6-1.7c8.4,5.4,9,15.4,1.4,22.9c-3.5,3.4-7.6,5.6-12.2,7.1c-5.2,1.7-5.4,2.3-4.7,7.7c0.6,4.4,1.3,8.9,1.6,13.4
		c0.3,4.4,2.1,7.8,4.9,10.9c0.5,0.5,0.9,0.8,1.5,0.7c4.9-1.1,9.9-1.1,14.7-2.6c2.2-0.7,3.6-2,3.4-4.6c-0.4-4,0.5-8.6-1.3-11.8
		c-4.2-7.4-2-14.1,0.5-21c0.7-1.9,1.1-4.9,4.8-4.1c1,0.2,2.4-1.9,3.7-2.9c2.8-2.2,6-3.6,9.3-1.5c3.4,2.1,6.5,4.7,6.4,9.4
		c0,1.5,0,3-0.1,4.5c-0.8,7.3-1.6,8.3-8.8,9.7c-9.4,1.7-13.4,8.3-11.4,17.4c1.6,7.5,3.6,15,5.5,22.8c-8.6,0.2-16.8,2.2-24.9,4.6
		c-2.1,0.6-2.3-0.5-2.8-1.8c-5.7-14.3-10.7-28.8-13.5-43.9c-0.2-0.9,0.3-2.2-1.2-2.4c-0.9-0.1-1.8,0.2-1.8,1.4
		C197.9,366.2,198,366.8,196.7,366.8z"/>
	<path fill="#800092" d="M196.7,366.8c0.2-0.5,0.4-0.9,0.6-1.4c1.7,6.4,3.4,12.8,5.2,19.2c1.1,3.9,2.4,7.8,3.6,11.6
		c-0.4,0.4,0,1.2-0.7,1.5C202.1,387.5,198.6,377.4,196.7,366.8z"/>
	<path fill="#BF00D9" d="M205.5,397.7c0.2-0.5,0.5-1,0.7-1.5c1.9,5,3.9,9.9,5.8,14.9c0.3,0.8,1.5,1.9,0.2,2.6
		c-1.5,0.8-1.8-0.9-2.2-1.8C208,407.4,206.6,402.6,205.5,397.7z"/>
	<path fill="#AC01C4" d="M214.4,387.3c5.2,0.1,9.9-0.9,15.5-1.8C225.4,389.2,217.3,390,214.4,387.3z"/>
	<path fill="#53005F" d="M242.7,341.1c-2.2,1.7-4.2,3.7-6.5,5.1C237.7,343.8,239.7,341.8,242.7,341.1z"/>
	<path fill="#5CFE53" d="M382.6,273.6c-14.4-7.9-17.4-19.2-10.8-34c0.9-2,1.7-4.1,3.7-5.5c1.3-0.9,1.1-2.3-0.7-2.6
		c-7-1.2-13.7-2.1-20.8,1.4c-8.1,4-11.8,10.6-14.5,18.5c-2.9,8.2-5.9,16.5-3.8,25.5c-2.1-2.6-2.4-5.6-2.8-8.6
		c-1.6-12.7,0.9-24.7,7.5-35.5c6.6-10.7,17.4-15.3,29.1-18.1c8.8-2.1,17.4-1.4,25.1,3.8c9.7,6.6,14.5,15.9,13.8,27.7
		c-0.6,10.8-5.8,19.1-15.1,24.8c-1.1,0.7-2.2,1.2-3.4,1.4C387.5,273.3,385,273.5,382.6,273.6z"/>
	<path fill="#5BFC52" d="M388.6,200.6c-0.1,5-2.3,8.2-5.7,8.2c-3.4,0-9.7-4.8-9.8-7.6c-0.1-2.5,6.2-6.1,10.6-6.1
		C387.3,195.2,388.6,196.6,388.6,200.6z"/>
	<path fill="#54E74C" d="M402.4,222.1c12.1,8.8,13.3,24.2,5.8,34.7C412.9,244.1,410.4,232.7,402.4,222.1z"/>
	<path fill="#369F30" d="M348.3,221.1c-2.9,2.6-5,4.6-7.9,7.2C341.9,224.1,344.1,222.2,348.3,221.1z"/>
	<path fill="#9A9A9A" d="M382.6,273.6c2.4-0.4,4.8-1.3,7.3-1.2C387.6,274,385.1,274.2,382.6,273.6z"/>
	<path fill="#FEDB00" d="M289.8,341.3c-0.1-8.7,5-15.3,12.7-17.2c2.3-0.6,2.8-2.4,1.2-4.2c-4.7-5.3-10.3-4.9-14.2,1
		c-2.1,3.1-2.6,7-4.4,10.1c-2.1,3.6-1,7.4-1.5,11.1c-0.3,2.1-1,1.9-2.3,1.1c-0.3-0.2-0.8-0.4-0.9-0.7c-1.9-4.8-6.3-8.7-3.7-14.8
		c1.8-4.2,3.8-8.1,6.6-11.7c1.7-2.1,3.5-3.9,6.2-4.5c2.3-0.5,4.1-1.4,5-4c0.7-2.2,2.6-2.6,4.8-1.5c4.7,2.2,8.1,5.8,11,9.9
		c3.7,5.2,7.1,10.6,10.7,15.8c1.8,2.6,4,4.8,6.7,6.5c1.9,1.2,3.7,1.4,5.8,0.1c6.2-3.8,12.9-6.4,20.5-6c6.1,0.3,12.2,4.6,14.1,10.1
		c2,5.7,0.1,12.7-4.3,16.8c-4,3.7-8.7,6-14,6.4c-3.2,0.2-5.7,2.3-8.9,2c-5.6-0.5-10.2-2.8-13.4-7.3c-3.3-4.6-6.1-9.5-6.9-15.3
		c-0.7-4.9-10.2-13-15.2-13.1c-2.8-0.1-4.7,1-5.2,4.3c-0.7,4.4-3.4,8.1-5.4,12.1c-0.9,1.8-1.9,0.7-2.5-0.2
		C290.9,345.9,290.2,343.2,289.8,341.3z"/>
	<path fill="#CEB207" d="M367.6,358.6c3.8-6,5.1-12.2,1.5-18.9c-3.2-5.9-8.3-8.6-14.8-9.1c-1.4-0.1-3,0.5-4.2-0.8
		c8.2-2.3,14.3-0.6,18.1,5.4c4.5,7.1,6.9,17.9,0.4,24.2C367.7,359.7,367.5,359.3,367.6,358.6z"/>
	<path fill="#BBA102" d="M310.6,312.8c-3.2-4.2-7-7.6-11.8-9.9c6.1,0.4,9.3,4.7,12.5,9.2C311.7,312.9,311.3,313,310.6,312.8z"/>
	<path fill="#C0A500" d="M330.4,337.7c-3.1-1.2-5.1-3.7-6.7-6.7c2.5,1.9,4.9,3.8,7.4,5.7C330.9,337,330.6,337.4,330.4,337.7z"/>
	<path fill="#5B4D00" d="M310.6,312.8c0.3-0.2,0.5-0.5,0.8-0.7c1.9,2,3.1,4.4,4.1,6.9C313.4,317.4,312,315.1,310.6,312.8z"/>
	<path fill="#796B1A" d="M367.6,358.6c0.3,0.3,0.6,0.5,0.9,0.8c-0.9,1.7-2.3,2.7-4.7,3.4C364.8,360.8,366.3,359.8,367.6,358.6z"/>
	<path fill="#2700FE" d="M363.1,174.1c-4.2,4.1-9.4,7.3-15.1,7.4c-12.5,0.2-24.4,4.1-36.7,4.6c-5,0.2-9.9,1.1-14.9,1.3
		c-6.9,0.3-12.5-2.8-12.2-12.5c0.1-4.7-0.6-9.6-0.5-14.4c0-2.1,0.8-2.7,2.8-2.8c8-0.5,16-0.8,23.6-3.5c7.9-2.7,10.2-6.4,9.1-14.7
		c-1-7.5,8.2-15.5,14.9-13c4.6,1.7,6.1,4.8,5.4,9.7c-0.4,2.8-3.1,5.4-1.1,8.6c0.2,0.3-0.7,1.5-1.3,2.2c-2.9,3.8-6.4,7-10.7,9.2
		c-1.6,0.4-0.9-1.1-1.3-1.6c-1.2-1.4-2.4-0.1-3.3,0.3c-3.9,1.6-7.6,3.8-11.6,5.1c-1.6,0.5-2.7,1.8-2.7,3.9
		c-0.1,3.4-0.7,6.7-0.4,10.1c0.2,2.4,1.2,3.5,3.8,3.4c8.7-0.4,17.4-1.8,25.9-3.4c4-0.7,4.3-4.2,3.9-7.4c-0.5-4.7,0.4-8.8,3.9-12.3
		c5.4-5.4,13.3-6.1,19.3-1.3c3.9,3.1,4.5,9.7,1.6,14.7c-1,1.7-3,2.7-2.9,5C362.8,173,363.6,173.2,363.1,174.1z"/>
	<path fill="#2005C2" d="M363.1,174.1c-0.3-0.5-0.5-1-0.8-1.5c4.5-1.4,5.2-5.9,7.4-9.6C372.3,169.9,365.6,170.7,363.1,174.1z"/>
	<path fill="#11008F" d="M325.1,154.5c0.4,0.5,0.9,1,1.3,1.6c-4,2.8-8.5,4.2-13.4,4.9c3.2-1.4,6.3-2.8,9.5-4.2
		C323.6,156.3,324.9,156.1,325.1,154.5z"/>
	<path fill="#2C1C98" d="M336.4,124.8c2.9-0.7,3.8,0.7,4.3,3.5C339.1,126.9,337.9,126,336.4,124.8z"/>
	<path fill="#5BFC52" d="M410.5,204.8c-0.1,4.4-2.5,6.8-6.7,6.7c-5.7-0.1-8.1-2.2-8-6.9c0.1-4.6,2.7-7.3,6.8-7.1
		C407.2,197.6,410.6,200.8,410.5,204.8z"/>
	<path fill="#010202" d="M207.1,463.6c7.8,0,15.5,0,23.3-0.1c11.6,0.7,23.2,1,34.8,0.9c3.5,0,7,0.2,10.3,1.5
		c2.3,0.9,2.7,2.3,0.9,3.8c-2,1.7-3.4,4.3-6.6,4.6c0.4,0.8,0.8,1.3,0.9,1.8c0.2,1,1.5,2.2,0.3,3c-1.1,0.8-1.3-0.7-1.9-1.2
		c-0.8-0.6-1.4,0.1-2.1,0.3c-4.1,1.2-8.3,1.7-12.5,0.7c-1.4-0.3-3.2,0.1-2.1-2.5c0.7-1.5-1-1-1.6-1c-18.2-0.3-36.4-2.7-54.6-2.7
		c-1.5,0-3-0.2-4.3-1c-0.9-0.5-2.5-0.1-2.3-2.3c0.2-1.9,0.7-2.9,2.4-3.6c4-1.4,8.3-1.7,12.5-2.1
		C205.3,463.8,206.2,463.6,207.1,463.6z"/>
	<path fill="#010101" d="M168.3,476.2c-1.3,2.3-2.4,4.3-3.5,6.2c-0.5,0.8-1.3,1.6-2.5,1c-1-0.5-0.9-1.5-0.8-2.3
		c0.3-1.5,0.6-2.9,1.1-4.3c0.4-1.1,0-1.8-0.8-2.2c-1.3-0.8-1.3,0.7-1.6,1.3c-1,1.8-1.9,3.8-3,5.6c-0.4,0.7-0.6,2.2-2.1,1.5
		c-1.1-0.6-0.8-1.7-0.7-2.7c0.4-2.6,1.4-5,2.4-7.4c0.2-0.5,0.5-0.9,0.8-1.4c-1.8-0.8-2.2-2.4-0.9-3.5c1.8-1.5,4-2.9,6.3-3.6
		c1.8-0.5,1.8,1.6,1.3,2.6c-0.7,1.5-0.5,2.5,1,3.9c0.7-1.5,1.4-2.9,2-4.3c0.5-1.2,1.5-1.8,2.7-1.6c1.4,0.3,1.3,1.7,1.1,2.8
		c-0.3,1.8-0.8,3.5-1.4,5.7c2.9-1.1,2.9-3.8,4-5.7c1.4-2.6,2.6-5,5.7-1.8c0.7,0.7,1.9,0.4,2.4,0c3.9-2.9,4.3,1.5,5.8,2.9
		c1.3,1.2-0.5,1.4-1.4,1.6c-2.1,0.5-3.7,0.8-3.4,3.9c0.3,2.5-1.1,5.1-2.3,7.4c-0.4,0.9-0.9,1.9-2.2,1.5c-1.2-0.4-0.7-1.4-0.8-2.2
		c0-2.5,0.4-5.1,1.5-7.3c0.8-1.6-0.1-2.1-1-2.6c-1.4-0.8-1.9,0.8-1.8,1.4c0.3,3.7-3.3,5.5-4.2,8.6c-0.4,1.3-1.3,3.2-3.1,2.6
		c-2-0.6-0.9-2.5-0.8-3.9C168.3,478.9,169.3,477.9,168.3,476.2z"/>
	<path fill="#F5F5F5" d="M150.8,228.9c-0.2,0.3-0.4,0.7-0.7,1.1c-2.8,3.5-5.6,7-8.4,10.4c-0.5,0.6-1,1.6-2.1,0.9
		c-0.8-0.5-0.9-1.4-0.8-2.3c0.1-1.2,0.7-2.1,1.4-3c2.2-2.6,4.5-5.2,6.8-7.9c0.8-0.9,1.6-1,2.6-0.6
		C150.2,227.7,150.9,227.9,150.8,228.9z"/>
	<path fill="#E49A6D" d="M137.5,242.9c-1.5-1.1-1.4-3.3-3.8-3.1c-0.8,0.1-0.6-1.2-0.2-1.9c2.3-4.5,5.8-8.1,8.9-12
		c0.7-0.9,1.5-0.8,2.3-0.1c0.8,0.7,0.2,1.4-0.3,1.9c-0.8,1-1.7,1.8-2.5,2.8C139.1,234.1,135.3,237.3,137.5,242.9z"/>
	<path fill="#110005" d="M160.6,300.4c-0.3,1.6-0.5,3.1-0.9,4.5c-0.3,0.9,0.1,2.5-1.7,2.2c-1.8-0.4-1.1-1.7-0.7-2.6
		c0.7-2.1,1.3-4.3,0.8-6.5c-0.2-0.8-0.3-1.5,0.8-1.7c1.1-0.2,1.1,0.8,1.2,1.5C160.2,298.6,160.4,299.6,160.6,300.4z"/>
	<path fill="#0F0005" d="M150.6,293c0.5,0.3,1,0.5,1,0.7c0,0.4-0.1,1-0.4,1.3c-1.5,1.5-3.1,2.9-4.6,4.4c-0.6,0.5-1.1,0.6-1.6,0.1
		c-0.3-0.4-0.8-1.1-0.7-1.2C146.4,296.5,148.5,294.8,150.6,293z"/>
	<path fill="#090002" d="M165.1,293.6c-0.4,0.9,0.9,3-0.8,3.1c-1.6,0.1-1.1-2.1-1.4-3.3c-0.2-0.6-0.1-1.2-0.2-1.8
		c-0.1-1-0.6-2.4,1.2-2.4c1.6,0,1,1.4,1.1,2.2C165.2,292.1,165.1,292.7,165.1,293.6z"/>
	<path fill="#0B0003" d="M150.9,338c-0.8,7.9-7.2,14.8-15,16.2c-1,0.2-1.6,0.3-2-0.8c-0.4-1.3,0.3-1.4,1.3-1.6
		c7.7-1.6,12.2-6.4,13.9-13.9c0.2-0.7-0.1-2,1.4-1.7C151.6,336.4,150.9,337.4,150.9,338z"/>
	<path fill="#040104" d="M226.6,407.5c-6,0-9-2.5-9.5-7.2c-0.2-1.6,0.8-2.7,2.3-3.2c3.4-1.1,6.9-2.1,10.2-3.4c1.7-0.7,3,0.3,3.5,1.1
		c1.5,2.5,2.7,5.3,3.7,8.1c0.7,1.8-1,2.6-2.2,2.9C231.6,406.6,228.4,407.1,226.6,407.5z"/>
	<path fill="#010006" d="M301,170.9c-0.1,0.7,0,1.5-0.2,2.2c-0.7,2.1-1.3,4.8-4,4.7c-2.4-0.1-3.2-2.4-3.5-4.6
		c-0.3-2.1-0.5-4.2-0.8-6.3c-0.2-1.5,0.1-2.8,1.7-3.2c1.6-0.4,3.4-0.8,4.7,1C300.3,166.6,301,168.6,301,170.9z"/>
	<path fill="#A9D9E5" d="M192.6,469.4c5-2.8,10.5-3.1,15.9-3.3c14.5-0.5,28.9-0.2,43.4,0.4c6.2,0.3,12.5-0.6,18.7,0.2
		c0.9,0.1,2.5-0.6,2.5,1.3c0,1.3-0.6,2.4-1.9,2.9c-2.5,0.9-5,1.5-7.7,1.4c-20.2-0.8-40.4-0.4-60.6-1.9
		C199.4,470,196,469.7,192.6,469.4z"/>
	<path fill="#8BB2BC" d="M266.8,475.6c-3.9,1.9-7.2,1.9-11.3,1.7C259.2,474.7,262.4,474.5,266.8,475.6z"/>
	<path fill="#68878E" d="M183.5,468.8c-1.2,1.1-2.5,1.1-4,0.5C180.7,467.3,182.2,468.4,183.5,468.8z"/>
	<path fill="#EDEDED" d="M219.9,399c2.9-0.8,5.4-1.5,7.9-2.1c0.6-0.2,1.5-1,1.9-0.1c0.3,0.6,0.1,1.5-0.1,2.1
		C228.3,402.5,223.3,402.7,219.9,399z"/>
	<path fill="#AF04C6" d="M232.7,398.1c-0.1,1.9,0.3,4.2-0.5,5.7c-1.1,1.9-8.3,1.9-11.1,0.4c2.4-0.7,4.7,0.2,6.9-0.9
		C230.3,402.1,231.5,400.2,232.7,398.1z"/>
	<path fill="#E5E5E5" d="M298.7,170.9c-0.1,1.5,0.2,4.1-1.6,4.3c-1.8,0.2-1.1-2.6-1.8-3.9c-0.1-0.1-0.1-0.2-0.1-0.4
		c-0.1-1.6-0.8-3.2,0.3-4.6c0.2-0.3,1.3-0.2,1.7,0.1C298.9,167.4,298.7,169.1,298.7,170.9z"/>
</g>
</svg>
