<?xml version="1.0" encoding="utf-8"?>
<!-- Generator: Adobe Illustrator 18.0.0, SVG Export Plug-In . SVG Version: 6.00 Build 0)  -->
<!DOCTYPE svg PUBLIC "-//W3C//DTD SVG 1.1//EN" "http://www.w3.org/Graphics/SVG/1.1/DTD/svg11.dtd">
<svg version="1.1" id="Layer_1" xmlns="http://www.w3.org/2000/svg" xmlns:xlink="http://www.w3.org/1999/xlink" x="0px" y="0px"
	 viewBox="0 0 471.2 693.2" enable-background="new 0 0 471.2 693.2" xml:space="preserve">
<g>
	<path fill="#FEFEFE" d="M471.1,347c0,114.3,0,228.5,0.1,342.8c0,2.8-0.6,3.4-3.4,3.4c-154.8-0.1-309.5-0.1-464.3,0
		c-2.8,0-3.4-0.6-3.4-3.4C0.1,461,0.1,232.2,0,3.4C0,0.6,0.6,0,3.4,0C158.2,0.1,313,0.1,467.8,0c2.8,0,3.4,0.6,3.4,3.4
		C471.1,118,471.1,232.5,471.1,347z"/>
	<path d="M180.3,626.6c22.1-17.6,43.9-34.9,66-52.4c-8.2-4.5-16.2-8.8-24.2-13.2c-15.4-8.5-30.7-17.2-44.6-28.2
		c-6.7-5.3-13-11-17.9-18c-1.1-1.6-2.4-2.2-4.3-2.3c-9.3-0.8-18.6-2.4-27.7-4.5c-7.8-1.8-11-5.5-12.2-13.4
		c-1.1-7.4-0.6-14.9,0.1-22.2c0.3-2.5-0.8-5.6,1.3-8c0.9-1-1.2-1.9-1.1-3.4c0.3-5.7,0.5-11.5,1.9-17.1c0.1-0.5,0.3-1,0.5-1.4
		c0.8-1.4,1.3-3.5,3.3-2.8c1.8,0.6,3.2,2.2,3.1,4.4c-0.1,1.5-0.3,2.9,0.4,4.6c2.5-1.5,4.9-3.9,8-1.1c0.8,0.7,1.4-1.4,2.2-2.1
		c1.5-1.4,2.9-3.7,4.9-0.5c0.8,1.3,1.5,0.3,2.1,0c1.3-0.7,3-1.1,3.9-0.3c2.7,2.6,5,2,7.8,0.2c2.1-1.3,3.9,0.3,5.9,1.7
		c1.4,0.9,3.5-3.5,5.5-1.9c3.3,2.6,5.1,0.9,7.2-1.2c0.9-0.9,2.6-1.6,3.4-0.7c2.2,2.5,4.4,0.3,6.5,0.6c4.5,0.7,8.8,0.2,13.1-0.1
		c0.5,0,1.1,0.1,1.4,0.5c2.2,2.4,3.9,1.7,5.9-0.4c1.4-1.5,3.2-1.1,4.4,0.8c1.2,2.1,2.7,2.1,4.6,0.8c2.2-1.5,4.4-2.5,6.7-0.2
		c0.7,0.7,1.4,0.1,2-0.1c1-0.3,2.1-0.9,2.9-0.6c4.8,1.5,9.7-0.5,14.4,0.6c1.8,0.4,2.5-0.2,2.6-1.9c0.1-1.5,0.6-3,2.4-3.3
		c1.7-0.3,2.8,0.8,3.6,2.1c0.2,0.3,0.4,0.6,0.6,0.9c1.2,1.4,1.1,3.8,3.2,4.3c2,0.5,2.8-1.8,4.3-2.6c2.7-1.4,4.9-0.5,6.4,1.9
		c1.2,2,1.9,1.5,2.7-0.1c0.4-0.8,0.9-1.5,1.4-2.2c2.3-2.9,4.7-3.1,7-0.1c1.1,1.5,1.8,1.8,3.5,0.7c2.4-1.5,4.9-0.1,7.4,0.2
		c1.8,0.2,2.8-4.1,5.8-4.3c3.5-0.2,5.6,1.9,7.4,4.4c1.6,2.2,2.6,2.1,4.2,0c2.2-2.9,4.6-3.1,6.8-0.3c1.9,2.4,3.1,1.5,4.6-0.1
		c2.4-2.6,4.9-3.4,7.7-0.7c1,0.9,1.7,0.8,2.5,0c3.4-3.5,8,0.7,11.2-1.4c4.6-2.9,7.5,0.5,10.9,1.8c0.2-0.2,0.4-0.4,0.4-0.6
		c0.5-2.3,0.2-5.3,2.9-6c3.1-0.8,4.5,2.1,6,4.2c1.1,1.6,1.6,2.3,4,1.3c5-2.3,8.7-0.3,10.3,4.7c0.6,1.8,1,1.9,2.4,1
		c0.7-0.5,1.7-0.6,2.3-1.1c3.8-3.2,8-4.1,12.5-1.8c4.8,2.4,6.5,6.7,6.7,11.7c0.3,8.2-0.3,16.3-1.1,24.5c-0.8,8.8-6.4,14.2-13.7,18.1
		c-3.3,1.8-7,2.7-9.4,6.2c-1.7,2.4-4.5,3.3-6.9,0.2c-0.7-0.9-1.5-1.1-2.6-0.8c-3.7,0.9-7.4,1.1-11.1,1.2c-1.5,0.1-2.8,0.5-3.9,1.8
		c-18.5,22.2-41.2,40-63.5,58c-3,2.4-5.9,4.9-9.2,7.6c20,11.2,36.8,25.7,51.1,43.1c2.5-3,9.1-4,12.4-2.2c0.9,0.5,1.1,1.2,1.3,2.1
		c2.5,16.4,7.9,32.2,9.9,48.7c0.6,4.7-0.1,9.1-2.7,13.3c-2.5,4-5.4,4.1-7.8,0c-3.5-5.9-4.2-12.7-5.5-19.3c-0.8-3.8-1.3-7.6-1.7-11.5
		c-0.4-3.7-1.6-6.7-4.1-9.7c-16-19.2-33.4-37-54.2-51.1c-7.7-5.2-7.6-5.3-14.8,0.6C231,607.8,206.5,626,179.8,641
		c-2.4,1.4-2.3,3.3-2.4,5.4c-0.5,8.2-0.6,16.5-2.3,24.6c-0.6,2.7-0.3,6.2-3.7,7.2c-3.7,1.1-6.4-1.2-8.9-3.5c-2.1-2-3.3-4.3-3.1-7.3
		c1.1-16,2.8-31.8,6.2-47.5c1.3-5.8,3.7-7.4,8.9-6.4c5.7,1.1,7.7,4.1,6.3,9.6C180.4,624,180,624.9,180.3,626.6z"/>
	<path fill="#010000" d="M305.8,364.2c-16.7,1.1-28.6-5.9-37-19.4c-1.6-2.6-2.2-5.5-2.3-8.6c-0.1-5.4,1.6-7.2,6.9-7.7
		c13.8-1.2,23.3,5.4,30.6,16.3c0.3,0.4,0.6,0.8,0.8,1.3c1.4,4.2,3.6,4,7.2,2.1c11.4-5.9,21.5-1.9,26.6,9.6
		c5.1,11.5,0.8,21.2-5.3,30.7c-1.5,2.3-1.4,3.3,1.2,4.3c1.6,0.6,2-0.3,2.6-1.3c1.9-3.7,5.1-5.2,9.2-5.3c3.5-0.1,5.7,1.8,5.7,5.3
		c0.2,7.8-6.1,13.2-13.7,12c-4.5-0.7-7.6-4.3-11.6-5.7c-3.7-1.3-7.7,2.2-12.1,1.2c-8.9-2-12.9-8.2-15.1-16.2
		C297.1,375.2,299.8,369.2,305.8,364.2z"/>
	<path fill="#010000" d="M187.4,413.4c-3.4,0.4-6.5-0.7-9.4-2c-7.4-3.2-10.4-10.2-7.7-17.9c1.8-5.2,5.1-9.4,9.6-12.6
		c4.4-3.2,9.3-4.1,14.5-2.1c1.3,0.5,2.6,0.9,3.9,1.4c8.6,3.4,9.1,3.4,14.8-3.7c2.6-3.2,4.8-6.7,7.3-9.9c1.9-2.5,1.4-4.4-1-6.3
		c-3-2.4-6-4.9-8.8-7.5c-1.7-1.6-2.2-1-3.4,0.7c-5.2,7.3-10.6,14.7-19.3,18c-9,3.5-18.2,4.1-26.7-1.7c-4.4-3-5.6-7.4-5.3-12.3
		c0.4-5.8,3.3-10.1,8.5-12.7c7.5-3.7,14.6-1.7,21.3,2.1c4.8,2.7,4.8,2.9,8.7-1.1c7.4-7.6,13.8-16.1,20.6-24.3c0.8-1,1.7-1.8,2.4-2.9
		c1.6-2.3,3.3-2.3,5.1-0.3c7.9,8.5,16.6,16.1,25.1,24c4.2,3.9,4.4,5.8,0.8,10.4c-11.7,15.1-21.1,31.8-34.2,45.8
		c-5.7,6.1-11.9,11.4-20,14C191.8,413.1,189.7,413.6,187.4,413.4z"/>
	<path fill="#000101" d="M22.4,217.2c7.4-3.9,15-3.5,22.3-2.3c17.7,3,26,17,21.1,34.6c-2,7.1-1.9,6.9,5.5,7.8
		c13.7,1.7,27.4-0.6,41.2-0.2c10.4,0.3,20.6,0.7,30.7,3.8c17,5.2,23.9,20,19.9,36.6c-3.8,16-17.9,22.3-31,20.2
		c-7.7-1.2-14.5-4.3-20.8-8.5c-5.8-3.8-7.6-9.6-7.7-16.2c0-2.5,0-5,0.2-7.5c0.4-3.9-1.1-5.9-5.3-6.4c-9-1-18-2.6-27.1-3.7
		c-13.5-1.6-26.8-4.2-40.2-6.9c-1-0.2-2-0.4-2.9-0.9c-6-3.2-7.1-6-1.8-10.5c5.4-4.6,11-9,14.1-15.8c2.4-5.3,1.8-9.9-2.1-14.1
		c-2.9-3.2-6.1-5.8-10.3-7.3C26.3,219.2,24.4,218.1,22.4,217.2z"/>
	<path fill="#010100" d="M326.6,200.3c-2.5,4.9-1.3,10.1,3,13.2c4.6,3.4,10.2,4.6,15.5,6.3c1.4,0.5,3.1,0.6,3.5,2.3
		c0.4,1.8-1,2.6-2,3.7c-4.7,5.2-10.1,4.9-16.4,3.2c-10.7-3-15.4-10.7-18-20.4c-0.5-1.8-1.4-2-2.8-2.3c-4.2-1.1-5.4-4.3-2.9-7.9
		c4.7-6.7,11.6-10.9,18.2-15.4c5.5-3.7,11-7.3,16.7-10.8c2.9-1.8,3.2-3.5,1.3-6.3c-8.5-12.9-1-32,14.1-35.8c7.9-2,19.3,1,22.8,11.5
		c2,5.8,3.2,11.8,3.2,18c0,8.1-3.7,14.2-10.6,18.1c-4.2,2.4-8.6,4.4-13.3,5.9c-6.1,1.9-11.4,5.5-16.9,8.6c-2.3,1.3-3.8,3.8-3.5,6.6
		c0.2,2.7,2.5,3.9,4.8,4.7c3.5,1.3,7.1,2.3,10.6,3.7c3.2,1.2,3.4,2.7,1.2,5.3c-5.2,6.2-12.5,7-19.7,2.1
		C330.9,211.4,329.3,208.9,326.6,200.3z"/>
	<path fill="#010001" d="M340.6,275.2c-1.1-2.6-3.3-2.9-4.7-4.3c-3.3-3.1-4.5-9-2.8-13.2c1.7-4.1,7.3-8,11.4-8.1
		c9.8-0.1,16.4,4.7,20.2,14.6c2.6,6.9,4,7.8,11.2,8.1c7.8,0.3,15.5-0.1,23.1-1.7c2.3-0.5,2.9,0,3.3,2.4c1.5,9.6,1.2,19.4,3,29
		c0.5,2.6-1,3.8-3.3,4.6c-6.8,2.2-14,2.6-21,3.7c-10.1,1.5-20.2,3.3-30.5,3.4c-11.3,0.1-21.8-2.3-30.5-10c-4-3.6-6.1-8.3-5.5-13.7
		c0.7-6.3,4.4-10.7,10.1-13.4C329.7,274.1,335,274.7,340.6,275.2z"/>
	<path fill="#000100" d="M222.8,107.9c2.2-10,6.7-18.5,16.6-23c6-2.7,12.3-2.2,18.7-1.4c6.9,0.9,12.7,4.1,18,8.5
		c9.1,7.6,10.8,26.3,3.2,35.3c-5.4,6.3-18.7,7.9-27.1,3.5c-4-2.1-6.8-5.3-10.2-8.6c-1.5,2.4-2,4.9-1.6,7.4c0.7,4.1,1.6,8.1,2.4,12.1
		c1.1,5.5,5.1,8.7,9.2,11.8c8.2,6,17.2,10,27.6,10c0.6,0,1.3,0,1.9,0.2c1.1,0.3,2.8-0.2,3,1.5c0.2,1.4-1.1,2.1-2.2,2.7
		c-7.4,4.1-15.3,3.5-23,1.6c-11.5-2.9-22.2-7.6-30.9-16c-1.1-1.1-2.3-2.1-2.6-3.6c-1.8-10.4-5.4-20.5-4.3-31.3
		c0.5-2.2,0.3-4.4,0.2-6.5C221.6,110.5,221.7,109.1,222.8,107.9z"/>
	<path fill="#000001" d="M207.1,146.9c-0.9,15.2-2.5,32.1-7.2,48.5c-0.7,2.3-1.8,3.8-4.2,3.1c-7-2.1-14.2-0.6-21.2-1
		c-2-0.1-4-0.2-5.9-0.6c-3.1-0.5-4.2-2.2-3-5.4c3.2-8.2,2.7-16.7,1.2-25.1c-1-5.5-2.3-6.7-7.9-7.3c-5.8-0.7-10.9-2.3-13-8.3
		c-2.1-5.9-2.4-11.9,0.9-17.6c2.8-4.8,6.9-6.5,12.1-4.5c11.5,4.4,17.2,13.5,19,25.2c0.6,3.7,0.9,7.4,1.1,11.2
		c0.1,2.2,0.5,3.8,3.3,3.7c2,0,4,0.4,5.9,0.9c2.7,0.6,3.6-0.8,3.8-3.1c0.4-4.4,0.7-8.7,0.5-13.1c-0.1-2.1,0-4.3,0.4-6.3
		c0.9-4.7,1-4.6-3.7-5.9c-10.8-3-18.7-13.1-17.4-24c0.7-5.5,4.8-9.3,9.9-11.7c7-3.3,15.2-2.2,18.7,2.9c2.9,4.2,4.4,8.9,5.2,13.8
		C207.1,129.9,207.3,137.5,207.1,146.9z"/>
	<path fill="#030603" d="M222.8,107.9c-0.6,3.5-0.3,7.2-1.3,10.6c0-2.1,0-4.2,0-6.7c-1.5,1.7-2.6,3.1-3.8,4.5
		c-2.2,2.6-5.1,3.6-8.3,2.8c-3-0.7-3.1-4.1-4.4-6.3c-0.3-0.6-0.2-1.5-0.3-2.2c-0.8-6.5,0.7-10.2,4.6-11.2c5-1.2,10.6,2.2,12.6,7.5
		C222.1,107.3,222.2,107.9,222.8,107.9z"/>
	<path fill="#040704" d="M217.2,98.5c-4.2,0-6.6-2.6-7.9-8.4c-1-4.7,1.1-9,5.4-10.7c3.7-1.4,7.4-1.5,10.5,1.3
		c3.1,2.7,2.7,6.1,1.4,9.6C224.6,96.3,222.1,98.5,217.2,98.5z"/>
	<path fill="#AADAE6" d="M117.1,479.4c10.2,6.2,21.2,7.6,32.2,8.6c14.3,1.3,28.7,1.6,42.9-1c5.4-1,10-3.8,14.7-6.3
		c5.1-2.7,10.3-4.1,16.1-4.2c19.4-0.2,38.6,2,57.9,4.1c14.3,1.5,28.6,3,43,2.8c10.4-0.1,20.5-2.5,30.9-3.5c5.8-0.6,11.7-1,17.5-1.6
		c1.7-0.2,3.3-0.2,5.4-1.4c-2.1,6.3-1.7,12.2-1.6,18.1c0,2.4-0.9,3.6-3.1,4.3c-9.3,3.3-18.9,4.8-28.7,5.3
		c-21.5,1.2-42.9-0.5-64.3-2.4c-19.3-1.7-38.4-4.5-57.8-5c-6-0.2-11.2,1.6-15.8,4.9c-10,7.3-21.3,9.4-33.2,9.4
		c-15.7,0-31.2-2.1-46.4-5.8c-5.2-1.2-7.7-4.4-8.8-9.8C116.9,490.5,117,485.3,117.1,479.4z"/>
	<path fill="#FEFEFE" d="M324.5,507.9c-9.4,9.2-19.1,17.6-28.8,26c-11.6,10.1-23.5,19.7-35.6,29.2c-2.9,2.3-5.4,2.6-8.8,0.7
		c-25.8-14.7-51.4-29.8-75.3-47.5c-1-0.7-1.9-1.5-3.4-2.7c4.6-0.4,8.5-0.7,12.4-1.1c6.4-0.7,12.7-2,17.8-6.1
		c9.6-7.8,20.6-7.7,32-6.6c29.5,2.8,58.8,6.8,88.4,7.5C323.5,507.4,323.7,507.6,324.5,507.9z"/>
	<path fill="#AADAE6" d="M302.3,471.1c1.2,0.8,3.9,0.7,1.8,3.3c-0.3,0.4-0.1,1,0.5,1.1c3.9,0.7,7.6,2.7,11.7,1
		c2.1-0.9,2.5-2.4,0.3-3.2c-2-0.8-2-2.3-1.7-3.5c0.3-1.7,2.1-0.8,3.2-0.7c3.2,0.2,5.2-1,4.7-4.4c-0.3-2.2,1.1-1.4,2-1.6
		c2.3-0.5,5.1,0.9,6.8-1.8c-0.1-0.6,0.2-1,0.8-1c4.3-0.1,8.7-0.1,13,0c1.2,0,1.9,0.5,1.2,1.9c-4.2,0.5-6.4,5-10.8,5.4
		c-1,0.1-0.5,1.7,0,2.6c1.4,2.7,3.9,4.2,6.6,5.2c2.3,0.8,4.8,1.4,8.3,2.3c-10.1,1.4-19,3.3-28.1,3.3c-19.3-0.1-38.4-2.5-57.5-4.4
		c-15.3-1.5-30.6-2.6-46-2c-4.8,0.2-9.1,1.8-13,4.3c-9.6,6.2-20.3,7.8-31.5,7.9c-14.8,0.2-29.5-0.1-43.9-3.8
		c-3.8-1-7.6-2.2-10.8-5.1c5.3,0.3,10.5,0.6,15.8,0.8c2.3,0.1,2.3,0.1,2.6-2c0.1-0.9,1.1-0.9,1.8-1.1c5.3-1.9,10.7-3.3,15.8-5.9
		c2.2-1.1,4.5-2.5,4.1-5.2c-0.4-3-3.3-3.5-5.7-3.9c-9.6-1.6-19.2-1.2-28.8-0.4c-6.9,0.5-6.9,0.7-6.6-6.3c0.2-5.3,0.8-8.3,2.4-11.6
		c1.1,1.9,1.1,1.9,0.6,6c-1.3,10.3-1.3,10.2,9,9.9c26.2-0.8,52.5-0.6,78.7-0.4c1.7,0.6,3.4,0.1,5.1,0.3c0.8,0.1,1.8-0.2,1.8,1.2
		c-2.3,1.6-5,1.5-7.5,1.7c-2.5,0.3-4.9,0.8-7.3,1.7c-0.9,0.3-1.5,0.9-1.4,2c0.1,0.9,0.7,1.3,1.4,1.6c1.3,0.6,2.6,0.8,4,0.9
		c15.6,0,31.1,2,46.6,2.3c2.5,0.1,4.9,0.7,7.4,0.8c0.9,0.1,1.8,0.3,2.4,0.9c4.9,5.5,10.7,1.5,16.1,1.6c0.4,0,0.3,0.2,0.3-0.1
		c0.2-4.1,4.2-5.2,6-8.1c0.9-1.4-0.3-2.1-1.4-2.5c-1.8-0.6-3.6-1-5.5-1c-6.4,0-12.7-0.1-19.1,0c-5.1,0.1-10.2-1-15.3-0.9
		c-1.1,0-2.6,0.2-2.9-1.6c4.2-1,8.5-0.3,12.8-0.4c3.6-0.1,7.1-0.3,10.7,0.2c9.7,0,19.5,0.2,29.2,0.1c3,0,2.5,2,1.9,3.3
		c-1.3,3.1-0.6,6.2,2.4,8.1C298.7,470.7,301.1,468.9,302.3,471.1z"/>
	<path fill="#AADAE6" d="M168.1,640.5c-0.4,0.8-2.3,1.1-1.3,2.2c1,1.2,2-0.3,2.8-0.9c21-14.9,41.4-30.5,61.2-46.9
		c32.2-26.7,64.1-53.7,96.1-80.7c1.3-1.1,2.9-2.1,3.9-3.5c2.5-3.4,5.7-3.8,9.8-3.1c-2.8,4.3-6.4,7.7-9.8,11.3
		c-14.6,15.6-31.2,29.1-47.8,42.5c-5.9,4.8-11.8,9.7-17.6,14.6c-1.5,1.2-2.4,1.9-4.3,0.2c-2.5-2.3-5-0.4-6.9,1.4
		c-1.9,1.8,0,3.2,1.1,4.3c2.1,2-0.3,2.4-1,3c-9.3,8-18.8,15.7-28.5,23.1c-15.9,12-32.2,23.2-49.6,32.8c-1.7,0.9-2.3,1.9-2.4,4
		c-0.5,7-1.4,13.9-2.1,20.9c-0.1,1.4-0.5,1.9-1.9,2.1c-8.4,1.3-8.6,1-7.9-7.3c1.1-13.5,2.4-27,5.5-40.3c0.6-2.5,1.1-4.9,4.5-5
		c4.3-0.2,5.3,0.7,5,5c-0.2,2.6-0.5,5.2-0.7,7.8c-0.1,1.4-0.7,2.3-1.8,3.1c-2.2,1.6-4.3,3.4-6.6,4.9c-1.9,1.3-1,2.1,0.2,3.1
		C168.6,639.6,168.5,640,168.1,640.5z"/>
	<path fill="#AADAE5" d="M338.3,642.9c2.5,7.3,3.9,14.9,5,22.5c0.1,0.5,0.2,1.3,0,1.4c-2.6,1.7-5.5,0.6-8.2,1
		c-1.3,0.2-2.2-0.2-2.4-1.7c-1.1-7.8-3.7-15.5-3.2-23.5c0.1-1-0.6-1.6-1.1-2.2c-18.5-22.3-38.5-42.8-63.4-58
		c-0.7-0.4-2.8-0.6-1.4-2.2c0.8-1,1.8-2.5,3.7-1.3c4.4,2.8,9,5.4,13.3,8.3c21.2,14.2,38.8,32,52.8,53.3c0.7,1.1,1.1,3.1,3.2,2.1
		C337.2,642.5,337.7,642.4,338.3,642.9z"/>
	<path fill="#A8D6E2" d="M258.1,569.4c-6,5.1-6,5.1-13,1.3c-17.4-9.5-35.2-18.3-51.8-29.1c-10.8-7-21.3-14.4-29.6-24.4
		c-0.6-0.7-1.1-1.3-1.6-2c-0.3-0.4-0.5-0.8-0.8-1.4c1.8-0.6,3.2-0.7,4.4,0.8c9.2,11.1,21.3,18.8,33.3,26.4
		c16.9,10.7,34.6,20,52.1,29.5c0.8,0.5,2,2.2,3,0.3c1-1.9-1-2-1.9-2.5c-17.5-9.5-35.3-18.7-52.3-29.2c-10.6-6.6-20.9-13.5-30-22.2
		c1.5-1.2,2.4,0.2,3.4,0.9c25.1,18.4,51.9,34.1,79.2,49c1.3,0.7,2.6,1.6,4.2,1.5C257,568.6,258.5,567.9,258.1,569.4z"/>
	<path fill="#A9D8E4" d="M346.6,462.2c-0.1-0.6-0.3-1.4-1-1.4c-4.7,0.1-9.4-0.9-14,0.6c-0.8-2.7,1.5-1.3,2.1-1.3
		c7.6-0.1,15.2,0.1,22.8-0.7c4.2-0.4,8.4-1.1,12.5-2.1c2.2-0.5,3.6-1.5,3.7-4.2c0.2-3.9,4.7-6.9,8.7-6.5c4.3,0.5,8.9,5.4,8.6,9.1
		c-0.2,2-1.8,1.4-2.8,1.6c-7.5,1.4-15.3,1.1-22.5,3.5c-4.7,1.5-9.3-1.6-13.8,0.6C349.7,461.9,348.1,461.9,346.6,462.2z"/>
	<path fill="#A4D2DD" d="M364.1,456.2c-10.3,2.2-20.6,2-31.6,1.8c1.1-1.1,1.7-2.1,1.4-3.4c1.8,0.7,3.1,2.7,5.4,1.9
		c1.1,0.5,2.4,1.1,1.8-1.1c-0.8-2.8-1.9-5.5-4.2-7.4c-1.3-1.1-2-2.6-1.2-3.9c0.9-1.7,2.7-0.9,4-0.4c1.6,0.6,3.2,1.5,4.3,2.9
		c0.8,1,2.4,2.2,0.1,3.6c-0.9,0.5-0.7,1.9-0.5,2.8c0.2,1.4-0.7,3.7,1.7,3.8c2.3,0.1,0.9-2.1,1.3-3.2c0.5-1.5,0.4-3.7,2.3-3.7
		c1.7-0.1,2.4,1.9,2.9,3.4c0.4,1.2,0.6,2.3,1,3.7c1.9-2.3,0.8-7.5-2.1-8.7c-3.8-1.6-3.3-4.3-2.7-7.3c1.2,1.5,2.7,2.4,4.7,2.5
		c2.5,3.5,3.9,7.4,4.9,11.4c0.1,0.6,0,1.6,1.1,1.6c1.2,0,1.8-0.7,1.6-1.9C361.7,454.5,363,455.1,364.1,456.2z"/>
	<path fill="#A6D4E0" d="M186.7,624.7c19.7-16.2,39.5-32.4,59.6-48.1c0.7-0.6,1.6-1.8,2.5-0.8c1.1,1.1-0.4,1.7-1,2.2
		c-19.5,16.3-39,32.5-59.5,47.6C187.2,626.2,186.6,626.1,186.7,624.7z"/>
	<path fill="#A9D8E4" d="M385.9,472.2c0,4.3-0.3,8,0.1,11.7c0.5,6.1-2.4,9.8-7.5,12.3C377.4,483.7,378.1,476.3,385.9,472.2z"/>
	<path fill="#A8D7E2" d="M338.3,642.9c-0.6,0-1.1-0.1-1.7-0.1c0.3-2.6,0-4.9-1.7-7.1c-3.4-4.6-6.6-9.4-9.8-14.1
		c-0.5-0.7-2-1.3-0.7-2.7c0.9-1,1.2-2.2,3-2.3c4.6-0.3,5.6,0.4,6.6,5.1C335.3,628.8,336.8,635.9,338.3,642.9z"/>
	<path fill="#A5D4DF" d="M302.3,471.1c-1.5-1.3-3.7-0.1-5.2-1.4c0.9,0,1.7,0.1,2.6,0.1c1,0,2.1-0.1,2.5-1.1c0.3-0.9-0.4-1.6-1-2.2
		c-1.1-1.1-2-2.2-0.7-3.8c0.9-1.2-0.2-2.6-0.1-4.2c3.1,0.2,6,0.5,9,0.5c2.2,0,2.2,1.7,3,3c1.3,2.1-0.8,1.9-1.4,2.6
		c-1.8,2.3-3.4,4.7-6.9,4.4C303.2,469,302.4,470,302.3,471.1z"/>
	<path fill="#A0CDD8" d="M382.4,470.6c-0.1,0.4-0.1,0.5-0.1,0.6c-1.8,2.6-3.7,3.4-7.3,3.1c-7.8-0.7-15.7,0.2-23.5-0.9
		c-1.7-0.2-3.5-0.6-5.1-1.1c-1-0.3-3.1-0.4-2.5-2c0.5-1.3,2.7-2.8,4-1.9c11,6.9,22.5,3.7,34,2.2C382,470.4,382.2,470.5,382.4,470.6z
		"/>
	<path fill="#A9D6E2" d="M294.7,456.2c-2.7,0.4-4.3-0.4-3.4-3.3c0.8-2.7-1-4-2.8-4.9c-1.3-0.7-2.6-0.7-1.8-2.7
		c0.9-2,2.2-3.1,4.4-2.5c1.5,0.5,2.8,1.6,3.7,2.9c1.5,2.1,2.3,4.4,2.9,6.8C298.3,455.1,298.1,457,294.7,456.2z"/>
	<path fill="#A7D6E2" d="M324.8,457.6c0.7-3.5,1.6-6.8-1.6-9.5c-1.2-1-0.1-2.1,0.8-2.8c2-1.5,4.2-1.6,6.4-0.7
		c1.7,0.7,3.5,1.4,1.2,3.9c-1.6,1.8-2.8,4.3-0.6,6.9c0.9,1.1,0.7,2.4-1.3,2.3C328.3,457.8,326.7,457.7,324.8,457.6z"/>
	<path fill="#A7D6E2" d="M364.1,456.2c-1.5,0-3-0.1-3.9-1.6c-0.9-1.7-0.9-3.6-1.1-5.4c-0.1-1.5-2.2-3.8,1.1-4.4c2.6-0.4,5.3-0.7,6,3
		c0.3,1.5,0.7,2.9,1.1,4.3C368.3,455.2,367.3,456.6,364.1,456.2z"/>
	<path fill="#9DCAD5" d="M360.5,467.7c9.2-3.3,18.7-3.4,29-4c-2.6,3.6-6.1,3.8-9.3,4.2c-3.2,0.4-6.5,0.3-9.7,0
		C367.2,467.5,363.9,468.4,360.5,467.7z"/>
	<path fill="#A5D4DF" d="M305.6,457.1c-1.7-1.1-4.2,1-4.7-2.2c-0.5-3.4,1-9.1,2.7-9.7c1.5-0.6,2.4,0.4,3,1.5
		c1.6,2.6,2.5,5.5,2.6,8.5C309.3,458.4,306.5,455.7,305.6,457.1z"/>
	<path fill="#97C2CD" d="M304.5,603.3c-11.4-10-23.7-18.7-36.5-26.8c14.1,6.3,26.2,15.4,37.3,25.9
		C305.4,603.1,305.2,603.5,304.5,603.3z"/>
	<path fill="#94BEC9" d="M120.6,465c11-4.7,21.9-2.9,33.2,0.1c-2,3-4.8,3.8-7.6,4.9c0.8-1.3,2.5-2.3,1.6-4.1
		c-0.9-1.8-2.8-1.4-4.3-1.6C135.9,463.8,128.2,464.2,120.6,465z"/>
	<path fill="#A6D3DE" d="M266.4,456c-2.3,0.4-3.2-0.5-2.3-3c0.7-2.1,1.4-4.2,2.3-6.3c0.6-1.4,1.2-3.4,3.2-2.9c1.8,0.4,2.6,2.2,2.9,4
		C272.9,450.6,269.1,456,266.4,456z"/>
	<path fill="#A3D0DC" d="M256.9,455.9c-1.7-0.1-4,0.7-3.9-2.4c0.1-3.4,2.3-7.6,4.3-7.6c2.1,0,3.5,3.3,3.8,7.3
		C261.3,457,258.8,455.8,256.9,455.9z"/>
	<path fill="#A5D4DF" d="M312.1,453.4c-0.1-2.8,0.5-5.1,1.6-7.2c0.7-1.3,1.7-2.2,3.3-2c1.4,0.1,2.1,1.2,2.7,2.3
		c1,1.7-0.5,2.1-1.3,2.9c-1.2,1.3-1.9,2.9-2.6,4.5c-0.5,1.3,0,3.8-2.6,3.1C310.9,456.5,312.5,454.3,312.1,453.4z"/>
	<path fill="#89B0B9" d="M263.5,458.3c-6.5,0.1-13,0.1-19.4,0.2c-1.3,0-2.8-0.4-4,0.5c-0.9,1.1-2.1,1.2-3.4,1.2
		c-5.7,0-11.5,0-17.2,0c-1.3,0-2.5-0.1-3.4-1.2c-2-1.7-4.7,0.3-6.7-1.3c17.7,0,35.5,0.1,53.2,0.1
		C262.9,457.9,263.2,458.1,263.5,458.3z"/>
	<path fill="#A2D0DB" d="M171,455.2c-2.4,0.4-2.7-0.7-1.8-2.9c1-2.4,2.1-4.8,4.1-6.6c1.7-1.6,3.1-1.4,3.6,1.2
		C177.4,449.8,173.8,455.2,171,455.2z"/>
	<path fill="#A0CDD9" d="M206.3,450.4c0,5.1,0,5.1-4.3,4.9c-1.8-0.1-2.5-0.6-1.9-2.4c0.7-2.1,1.5-4.2,2.7-6.1c0.5-0.8,1.1-2,2.2-1.7
		c1.3,0.3,1.2,1.7,1.3,2.7C206.4,448.7,206.3,449.6,206.3,450.4z"/>
	<path fill="#A3D0DC" d="M211.2,455.3c-1.8,0.1-2.3-0.5-2-2.4c0.6-3.4,2.5-5.5,5.4-7c0.8-0.4,1.8-0.7,2.4,0.1c0.4,0.5,0.8,1.6,0.6,2
		c-1.4,2.4-3,4.8-4.6,7.1C212.7,455.4,211.8,455.3,211.2,455.3z"/>
	<path fill="#A2CFDA" d="M336.1,676.6c-1-2-3.2-5.1-1.6-6.2c1.9-1.2,5.3-0.4,8-0.2c1.2,0.1,1,1.3,0.8,2.1c-0.5,1.5-0.6,3.2-1.8,4.4
		C339.7,676.6,337.9,675.9,336.1,676.6z"/>
	<path fill="#95BFC9" d="M141.9,468.3c-8.2,1.1-15.3,2-22.7,3C122.3,467.5,135,465.7,141.9,468.3z"/>
	<path fill="#A1CDD7" d="M162.1,670c2.3,0,4.3-0.1,6.2,0c1.2,0.1,3-0.8,3.3,1.3c0.2,1.4,0.6,3.2-0.6,4.3c-1.2,1.1-2.8,0.4-4.1-0.4
		C164.9,674.1,163.1,672.7,162.1,670z"/>
	<path fill="#93BDC7" d="M186.7,624.7c0.3,0.7,0.9,0.8,1.5,0.9c-6.5,5.3-13.2,10.2-20.2,14.9c0-0.5,0-0.9,0.1-1.4
		C174.3,634.3,180.5,629.5,186.7,624.7z"/>
	<path fill="#A1CED9" d="M162.6,455.2c-0.7-0.3-2.5,1-2.4-1.3c0.1-2.3,3.5-7.5,4.7-7c1.5,0.6,1.5,2.2,1.3,3.5
		C165.9,452.4,167.1,455.8,162.6,455.2z"/>
	<path fill="#9DCAD5" d="M280.2,455.9c1.7-4.7-1.2-6.4-4.7-7.6c1.5-2.6,3.6-3.3,6-2c2.4,1.3,2.6,3.3,1,5.6
		C281.6,453,281.8,454.7,280.2,455.9z"/>
	<path fill="#A3D1DD" d="M228.7,455.2c1-3,2.3-5.3,4.3-7.3c0.4-0.4,1.1-0.8,1.6-0.7c0.9,0.1,0.9,1,1,1.8
		C236.3,454.4,234.8,455.8,228.7,455.2z"/>
	<path fill="#9AC6D1" d="M183.9,445.1c1.9,0,3.2,1,3.1,2.8c-0.1,2.6-1.8,4.7-2.7,7c-0.1,0.2-1,0.4-1.3,0.2c-0.8-0.3-0.6-1-0.3-1.5
		c1-2.3,1-4.4-0.9-6.4C181,446.3,182.1,445.2,183.9,445.1z"/>
	<path fill="#90B9C4" d="M312.9,521.4c4.5-4.3,9-8.5,13.5-12.7c0.8-0.7,1.8-2.1,2.8-1c1,1.1-0.7,1.9-1.4,2.5
		c-4.6,4.1-9.4,8.1-14.1,12.1C312.9,522.4,312.7,522.1,312.9,521.4z"/>
	<path fill="#A4D3DE" d="M339.3,456.6c-3,2.6-4.3,0.7-5.4-1.9c-0.2-0.3-0.5-0.6-0.5-1c-0.2-1.4-1.1-3.3,0.5-4.1
		c1.7-0.8,2.6,1.1,3.3,2.2C338.3,453.2,339.1,454.8,339.3,456.6z"/>
	<path fill="#9AC5D0" d="M323.3,454.4c0.1,1.9,0.1,3.7-2.6,3.1c-1.1-0.2-3.2,0.7-2.7-1.8c0.5-2.3,0.9-5.3,3.6-5.5
		C323.7,450.1,323.1,452.8,323.3,454.4z"/>
	<path fill="#96C0CB" d="M192,446c4.4-1.7,7.1,0.4,5.8,4.2c-0.1,0.5-0.1,1-0.3,1.5c-0.6,1.2,0.7,4-2,3.4c-2.2-0.4-0.6-2.5-0.6-3.8
		C194.8,449.2,195,449.2,192,446z"/>
	<path fill="#A2D0DB" d="M245.6,445.6c1.2,3.3,0.7,6.1,0.4,8.8c-0.3,2.4-2.4,1-3.6,1.1c-1.8,0.1-1.4-1.3-0.9-2.3
		C242.5,450.8,243.2,448.1,245.6,445.6z"/>
	<path fill="#9DC9D4" d="M216,455.1c1.1-2.7,2.6-4.8,4.6-6.5c0.5-0.4,1-0.8,1.7-0.5c0.7,0.4,0.5,1,0.4,1.6
		C222.4,454.2,220.9,455.5,216,455.1z"/>
	<path fill="#9AC6D1" d="M223.7,446.4c2.6-0.4,4.1-0.4,5.1,1.3c1,1.6-0.6,2.5-1.1,3.6c-0.1,0.3-0.3,0.7-0.6,1
		c-0.9,1.1-0.8,4-2.9,2.9c-2.1-1.1,0.6-2.2,0.8-3.4C225.3,450.1,225.7,448.2,223.7,446.4z"/>
	<path fill="#95BFC9" d="M192.8,453.2c0.3,1.4-0.6,2.5-2.9,2.1c-0.9-0.2-2.4,0.8-2.4-1.2c0-2,2.5-5.8,3.7-5.4
		C193.1,449.2,192.5,450.9,192.8,453.2z"/>
	<path fill="#A0CDD8" d="M127.6,455.6c-1,0-2.3,0.4-2-1.3c0.5-2.4,1.2-4.9,4.1-5.7c0.8-0.2,1.4,0,1.4,1.1
		C131.3,452.7,129.7,455.6,127.6,455.6z"/>
	<path fill="#9ECBD6" d="M288.8,453.4c0.4,2.2-0.4,3.2-2.6,2.7c-0.8-0.2-2.7,0.9-2.3-1.2c0.3-2.1,0.9-4.7,3.3-4.9
		C289.1,449.7,288.8,452,288.8,453.4z"/>
	<path fill="#74959E" d="M304.5,603.3c0.3-0.3,0.6-0.6,0.9-0.8c4.7,3.7,8.3,8.5,11.7,13.4C312.9,611.7,308.7,607.5,304.5,603.3z"/>
	<path fill="#9DCAD5" d="M274.8,456c-0.7-0.3-2.7,0.9-2.3-1.4c0.3-1.8,1.2-3.4,3.3-3.6c1.9-0.1,2,1.5,2.2,2.9
		C278.2,456.2,276.7,456.2,274.8,456z"/>
	<path fill="#9BC7D2" d="M389.2,483.3c-0.2-5.3-2.3-10.6,0.9-15.8C389.8,472.7,389.5,478,389.2,483.3z"/>
	<path fill="#68868E" d="M258.1,569.4c-0.5-0.5-1-0.9-1.5-1.4c4.8-1.8,7.9-6,12.1-8.6c0.6-0.4,0.9-1.3,2.3-0.8
		C266.6,562.4,262.6,566.2,258.1,569.4z"/>
	<path fill="#80A4AD" d="M149.9,455.8c-0.1-4.6,2.3-8.3,5.3-9.1c1.7-0.5,2.5,0.3,3,1.8C153.5,448.9,153.5,448.9,149.9,455.8z"/>
	<path fill="#F5F5F5" d="M336.1,676.6c1.9-3.2,3.6-1.1,5.4,0.1c-0.5,1.4-1,3.1-2.6,3.1C337,679.9,336.6,678.1,336.1,676.6z"/>
	<path fill="#8BB2BC" d="M238.1,455.7c-1.3-3.1,0.9-5.9-0.8-8.7c1.8-0.5,3.4,0.5,3.2,1.4C240.1,450.9,239,453.3,238.1,455.7z"/>
	<path fill="#8EB7C1" d="M180.1,448.8c0.5,0.5,0.8,0.7,0.8,0.9c-0.4,1.9,0.8,4.4-1.7,5.5c-0.6,0.3-2.1,0.5-2.2-0.6
		C176.9,452.1,178.5,450.5,180.1,448.8z"/>
	<path fill="#8FB8C2" d="M147.9,448.4c-0.5,3,1.1,5.4-1.4,6.8c-0.5,0.3-2.2,0.5-2.2-0.4C144.1,452.6,145.2,450.6,147.9,448.4z"/>
	<path fill="#8AB2BC" d="M314.2,460.8c2.5-1.5,4.8-0.9,7-0.7c0.3,0,0.6,0.6,0.9,0.9c-0.4,0.3-0.7,0.9-1.1,0.9
		C318.8,462.3,316.5,462.6,314.2,460.8z"/>
	<path fill="#E2E3E3" d="M352.6,443.5c-2.8,1.5-4.6,1.1-4.7-2.5c0.1-1.4,0.9-1.7,1.9-0.8C351,441.1,352.1,442.1,352.6,443.5z"/>
	<path fill="#9CC8D3" d="M138.9,450.3c-0.2,2.8,0.5,5.9-4.2,4.8C135.4,453,136.3,451.1,138.9,450.3z"/>
	<path fill="#8EB6C0" d="M321.2,466c-3.3,0.9-5.7,1.3-8.4,0.8C315.6,464.4,317.1,464.2,321.2,466z"/>
	<path fill="#9FCBD7" d="M155.7,450.9c1.5,0.4,1.3,1.6,1.4,2.7c0.1,1.7-1,1.7-2.2,1.7c-1.2,0-1.6-0.5-1.3-1.7
		C154,452.5,154.2,451.2,155.7,450.9z"/>
	<path fill="#98C3CE" d="M260.4,579.1c0,1-0.3,1.8-1.3,1.9c-1.3,0-2.5-0.7-2.7-2c-0.2-1.3,1.2-1.4,2.1-1.5
		C259.8,577.3,260.3,578,260.4,579.1z"/>
	<path fill="#4D656B" d="M312.9,521.4c0.3,0.3,0.5,0.5,0.8,0.8c-1.7,2.3-4.2,3.5-6.5,5C308.6,524.8,310.6,523,312.9,521.4z"/>
	<path fill="#85ABB5" d="M145.8,446.9c-1.3,1.8-2.4,3.3-3.5,4.9C141.6,447.8,142.1,447.1,145.8,446.9z"/>
	<path fill="#84AAB4" d="M342.4,467.7c-0.9,2.1-1.5,3.4-3,3.9c-0.4,0.1-1.2-0.6-1.1-1.2C338.7,468.5,340.4,468.6,342.4,467.7z"/>
	<path fill="#88AFB8" d="M248.8,451.6c1.1,1.2,1.7,2.5,1,3.9c-0.1,0.2-0.8,0.3-1,0.2C247.4,454.4,248.7,453,248.8,451.6z"/>
	<path fill="#5B777D" d="M313.7,474.6c-1.7,0.5-3.3,0.5-5-0.1C310.7,473.2,310.7,473.2,313.7,474.6z"/>
	<path fill="#9A9A9A" d="M366.6,504.3c-0.9,1.5-1.7,2.4-3.2,1.7c-0.4-0.2-0.9-0.6-0.6-1.2C363.8,503.7,365.1,504.1,366.6,504.3z"/>
	<path fill="#82959A" d="M136,448.5c0.5-1.2,0.7-2.6,2.3-2.5c0.2,0,0.6,0.8,0.6,1.2C138.6,448.8,137.4,448.8,136,448.5z"/>
	<path fill="#FD005E" d="M303.2,353.3c-1.8-2.7-3.8-5.3-6.2-7.5c-2.4-2.2-5.1-3.6-8.5-3c-1.3,0.2-2.1,0.2-2.7-1.1
		c-0.3-0.6-0.8-1.4-1.7-0.6c-0.7,0.6-0.2,1.1,0.1,1.6c3.6,6.7,6.6,13.9,15.5,15.3c0.3,0,0.7,0.2,0.8,0.5c0.9,2.3,1.1,2.5,2.7,2.6
		c-3.8,1.2-8.7,0.6-14-1.6c-7.1-3-13.1-7.5-17.4-13.9c-2.2-3.2-3.2-6.9-3.1-10.8c0.1-2.4,1.3-3.6,3.7-3.9c4.2-0.4,8.4-0.4,12.6,0.7
		c-1.1,1.4-1.1,1.4-3.5,1.6c2,1.1,3.5-0.4,5.2-0.9c8.2,3.2,13.4,9.5,17.7,16.8c0.5,0.9,1.1,1.7,0.1,2.7
		C304,352.3,304.7,353.7,303.2,353.3z"/>
	<path fill="#FC005E" d="M329,387.8c-2.3-2.5-3.7-4.4-1.4-8.1c2.9-4.7,3.3-10.2,0-15.2c-3.3-4.9-8.1-6.3-13.8-5.3
		c-0.8,0.1-1.9,0.7-2.3-0.4c-0.4-1.2,0.9-1.2,1.6-1.6c1.8-1,1.8-1,0.5-3.1c-0.6-0.9,1.4-4.6,2.6-5c10.7-3.3,19.5,2.3,21.3,13.4
		c0.2,1.5,0.3,3.1,0.1,4.7c-1.8-7.4-6.5-11.9-13.5-14.2c-0.9-0.3-2.1-1.3-2.7-0.1c-0.7,1.7,1.3,1.6,2.1,1.8
		c6.6,2.4,10.5,6.8,11.5,13.9c0.1,1-0.2,2.5,1.7,2.8c1.7,0.2,0.7,1.8,0.6,2.8C337.1,380.3,332.3,383.5,329,387.8z"/>
	<path fill="#F9F9F9" d="M317.2,370.3c1.1-0.6,2-0.2,3-0.1c1.4,0.1,2.7-0.9,3.1-2.2c0.6-1.7-1.1-2.1-2.2-2.5
		c-2.1-0.7-4.3-1.2-6.5-1.8c-1-0.3-2.1-0.6-1.9-1.8c0.2-1.1,1.4-0.8,2.2-0.9c4.6-0.5,8.5,0.8,10.9,4.9c2.5,4.2,1.8,8.6-0.3,12.8
		c-1.1,2.2-2.3,1.1-3.1,0.1C320.5,376.1,318.4,373.4,317.2,370.3z"/>
	<path fill="#F5005B" d="M303.2,373c-0.5,11.5,8.6,21.1,20.7,21.5c-4.2,3.2-10.5,2.9-15.1-0.5c-5.8-4.2-10.3-16.4-6.2-23.2
		C304.1,371.1,303.3,372.1,303.2,373z"/>
	<path fill="#F7005C" d="M327.9,393.8c2,1.4,3.7,2.6,5.4,3.7c0.6,0.4,1.5,1.3,1.9,0.6c2-4.1,8.9-2.5,9.4-8.4c0.1-1.6,2-1.1,3.2-0.9
		c1.4,0.3,1.7,1.6,1.8,2.9c0.2,5.3-3.9,9.6-9.3,9.5C335.2,401.2,330,398.2,327.9,393.8z"/>
	<path fill="#F4F4F4" d="M300.9,354.3c-4.2,0.5-11.9-4.6-12.7-8.3c-0.5-2.1,1.1-1.5,2-1.3C295.3,346.2,298.5,349.7,300.9,354.3z"/>
	<path fill="#F0F0F0" d="M317.6,385.4c-4.5,0.2-10.3-6.8-9.1-10.7c0.2-0.6,0.8-1.4,1.3-1.6c0.9-0.4,1.1,0.7,1.5,1.3
		C313.4,377.9,315.4,381.4,317.6,385.4z"/>
	<path fill="#BD0045" d="M305.5,375.1c3.2,8.2,7.3,14.3,16.4,15.7C315.7,393.7,306.1,384.6,305.5,375.1z"/>
	<path fill="#B20040" d="M303.2,353.3c0.4-0.5,0.8-1,1.3-1.5c2.9,6.6,5.9,13.3,8.8,19.9C308.3,366.4,306.8,359.3,303.2,353.3z"/>
	<path fill="#080002" d="M286.6,332.3c-1.1,1.8-5.9,2.8-7.2,1.5c-0.3-0.3-0.3-0.9-0.3-1.4c0-0.9,0.7-0.9,1.3-0.8
		c1.5,0.1,3,1.2,4.5,0C285.6,331.6,286.2,331.7,286.6,332.3z"/>
	<path fill="#DA0050" d="M305.8,374.4c-0.8-2.7-0.1-4.1,1.4-5.1c0.6-0.4,1.5-0.1,1.4,0.6C308.5,371.6,307.1,372.6,305.8,374.4z"/>
	<path fill="#88002F" d="M303.2,373c-0.3-0.7,0.1-1.6-0.7-2.2c0.8-1.9,1.7-3.7,4.7-4.5C305.3,368.7,303.9,370.7,303.2,373z"/>
	<path fill="#FEAB79" d="M175.9,371.3c-3,0.5-6,0-8.9-0.9c-5.8-1.7-9.1-6.4-8.8-12.4c0.1-0.9,0.2-1.8,0.6-2.5
		c3-6.4,15.7-9.2,21.2-4.6c2.9,2.4,5.6,4.9,9.5,5.7c2.1,0.5,3.6,0.2,5.4-1.3c9.8-8,17.7-17.5,23.9-28.5c1.4-2.5,2.2-0.5,3,0.2
		c6.3,6.6,12.6,13.2,18.6,19.9c4.2,4.6,4,4.7,0.5,10.1c-4.6,7-9.2,14-13.7,21c-1.4,2.2-3.4,4-5.2,5.9c-5.4,5.5-8.2,13.2-14.7,18
		c-6.3,4.7-12.3,9.3-20.7,9.3c-3.1,0-5.9-0.8-8.6-2.2c-5.2-2.6-5.8-4-4.5-9.6c0.2-1,0.4-1.9,0.7-2.9c3.1-10.7,8.2-13.6,19-11
		c4.2,1,8.5,2.1,12.7,3.1c3.6,0.8,6.6-0.3,8.9-3.4c4.2-5.7,7.9-11.9,11.3-18.1c1.2-2.2,0.1-3.9-1.2-5.3c-4.2-4.5-8.8-8.4-13.5-12.3
		c-1.3-1.1-3.2-2-4.2-0.2c-2.7,4.6-6.7,7.9-10.1,11.8c-3.1,3.5-6.3,6.1-10.2,8.1C183.4,371,179.7,371.6,175.9,371.3z"/>
	<path fill="#F7A878" d="M218,321.9c-2.5,8-7.6,14.3-12.8,20.6c-3,3.7-6.3,7-10,10c-0.8,0.6-1.5,1.5-2.5,0.2
		c-0.7-0.9-0.4-1.5,0.3-2.2c8.8-8.6,16.1-18.6,24-28C217.3,322.3,217.7,322.1,218,321.9z"/>
	<path fill="#F3A474" d="M221.3,321.1c0.4,0.2,0.8,0.2,1,0.5c7.1,7.9,15.2,14.7,23,21.8c0.6,0.6,1.2,1.3,1.8,1.9
		c1,1.1,1.1,2.3-0.1,3.3c-1.4,1.2-2-0.4-2.7-1.1c-6.7-7-13.4-14.1-20.1-21.1c-0.8-0.8-1.6-1.6-2.4-2.3
		C220.9,323.3,220.6,322.3,221.3,321.1z"/>
	<path fill="#EDA071" d="M225,365.3c-3.2,5.7-6.4,11.3-10.3,16.5c-0.8,1.1-1.7,2.2-2.6,3.1c-0.5,0.5-1.1,1.7-2,0.7
		c-0.7-0.7-1.4-1.9-0.5-2.7c5.9-5.2,9.6-12.1,14.5-18.1C224.1,364.9,224.3,365,225,365.3z"/>
	<path fill="#E0976B" d="M207.6,386.6c-7-0.1-13-3.8-20.8-4.2c3.4-1.8,5.6-2.6,8.4-1.2c3.1,1.6,6.3,2.9,9.8,3.2
		C206,384.5,207.3,384.7,207.6,386.6z"/>
	<path fill="#E99D6F" d="M180.1,346.6c4.7,1.2,8.4,3.9,11.7,8.3c-6.2-0.4-9.1-5-13.2-7.6C178.6,345.9,179.3,346.2,180.1,346.6z"/>
	<path fill="#B07653" d="M180.1,346.6c-0.5,0.1-1.2,0.1-1.5,0.7c-5.8-3.2-11-0.5-16.4,2.2C165.1,344.6,173.2,343.5,180.1,346.6z"/>
	<path fill="#9FFEFE" d="M95.4,259.7c13.1-0.2,26.2-1,39.2,1.5c8.8,1.7,17.1,4.5,22.7,12.3c0.9,1.2,2.4,2.1,0.4,4
		c-0.9,0.8,0.4,2.3,1,3.3c5.2,9.1,2.9,17.8-2.4,25.7c-5.5,8.2-14.1,10.4-23.5,8.8c-10.4-1.8-18.1-7.8-23.6-16.7
		c-1.5-2.4-1.4-5-1-7.6c0.3-1.8,0.7-3.7,1.1-5.5c1-5-0.9-7.8-5.9-8.5c-21.8-3-43.5-7.4-65.5-9.6c-3.2-0.3-6.1-1.2-9-2.5
		c-3.2-1.5-3.6-2.6-1.2-5.2c3.4-3.6,7.1-7,10.6-10.5c2-2,3.9-4.2,5.3-6.7c3.8-6.9,2.4-13.5-4.1-18c-3.5-2.5-7.2-4.8-11.6-7.7
		c10.6-0.8,20.6-1.1,28.9,5.2c6.8,5.1,7.7,13.1,7.6,21c0,4.8-1.7,9.3-3.3,13.8c-0.9,2.4-0.2,3.1,2.1,3.3c12.8,1.2,25.6,2.5,38.4,3.8
		c0.6,0.1,1.6,0.6,1.7-0.7c0.1-1.1-0.7-1.1-1.4-1.2c-2.7-0.3-5.5-0.6-8.2-0.8C93.5,259.5,95,260.3,95.4,259.7z"/>
	<path fill="#628C8C" d="M111.9,306.1c-2.8-1.3-4.6-3.4-4.7-6.7C108.8,301.7,110.4,303.9,111.9,306.1z"/>
	<path fill="#74BBBB" d="M106,287.7c0-2.3,0-4.7,0-7.9C108.6,282.9,107.2,285.3,106,287.7z"/>
	<path fill="#4F8181" d="M95.4,259.7c-0.5,0.4-1,0.8-1.5,1.3c-1.2,0.3-2.4,0.2-4.1-0.7C92,259.2,93.7,259.5,95.4,259.7z"/>
	<path fill="#FEDB00" d="M378.4,156.1c0.3,2.7-0.3,4.7,1.5,7.1c1.4,1.8-1,5.1-2.7,7.3c-4.4,5.8-11,8-17.5,10.3
		c-5.1,1.8-10.2,3.4-14.8,6.2c-2.7,1.6-5,3.7-6.8,6.3c-3.3,4.9-2.4,8.6,2.9,11.4c3.3,1.8,7.1,2.4,10.6,3.7c0.9,0.3,2.3,0.2,2.4,1.4
		c0.1,1-1.1,1.6-1.8,2.2c-7,5.7-16.9,3-20.6-5.7c-0.9-2.2-1.7-4.5-1.6-6.9c0-1.3-0.4-1.9-1.6-2.5c-1.4-0.7-2.1,0.1-2.9,0.7
		c-4.5,3.7-3.4,12.9,1.9,17.2c4.4,3.6,9.8,4.8,15,6.6c1.2,0.4,3.2,0.2,3.1,1.9c-0.1,1.5-2,1.7-3.2,2.2c-11.2,4-24.1-3.4-27-15.4
		c-0.7-2.8-0.6-6-4.7-6.5c-1.4-0.2-1.4-1.8-0.8-3.1c1.2-2.4,3.1-4.2,5.3-5.7c7.1-4.8,14.9-8.7,22.2-13.1c4.2-2.6,8.5-4.9,11.4-9.4
		c1-1.6,0.6-2.4,0.2-3.5c-2.3-7.2-3.8-14.4-1.8-22c2.6-9.9,12-15.3,21-11.5c4.7,2,7.4,5.9,8.9,10.5
		C377.9,149.3,379.2,152.8,378.4,156.1z"/>
	<path fill="#ECCB00" d="M351.6,135.4c-8.8,8.6-8.4,19-6,29.8C337.1,160.2,341.8,139.8,351.6,135.4z"/>
	<path fill="#CFB200" d="M330.9,181.6c4.8-3.1,9.6-6.2,14.4-9.3c-3.2,5.2-8.7,7.3-13.6,10.1C330.9,182.7,330.7,182.3,330.9,181.6z"
		/>
	<path fill="#746300" d="M330.9,181.6c0.3,0.3,0.5,0.5,0.8,0.8c-1.9,1.6-3.9,2.8-7.1,4C326.7,183.7,328.8,182.7,330.9,181.6z"/>
	<path fill="#DF00FE" d="M341.4,270.9c1.1-1.1,0-1.8-0.5-2.5c-1-1.6-2.1-3-2.7-4.9c-2.2-6.4,1-11.3,7.8-11.6
		c7-0.4,14.5,4.9,16.1,13.5c1.6,8.3,7.6,8.9,13.4,10c7,1.3,13.9-0.6,20.7-2c2.7-0.6,4.1-0.4,4.2,3c0.3,7.1,0.9,14.2,1.5,21.3
		c0.2,1.9-0.6,2.5-2.3,3c-12.2,3-24.5,5.7-37.1,6.4c-2.7,0.9-5.6-0.6-8.2,0.9l0,0.3c0.2,0.8,0.5,1.7-0.1,2.5
		c-7.6,0.3-15.3,1.3-22.4-2.1c-2.1-1-5.8-0.5-5-5.1c0.2-1.4-2.5-3.2-3.7-4.9c-3.8-5.9-3.9-12.1-0.2-16.3c3.5-4,10-6.7,17.1-3.8
		c9.1,3.7,11.8,8,10.8,17.9c-0.4,4.1,0.8,5.5,5.1,5.2c3.6-0.3,7.2-0.3,10.8,0c5.5,0.4,10.4-2.5,15.7-2.9c1.4-0.1,1.9-1.4,1.8-2.8
		c-0.5-4.7-1.8-9.3-3-13.9c-0.4-1.6-1.7-3-3.4-3.2c-4-0.4-8.5-1.9-11.8-0.5c-7.1,2.9-12.8,0-18.9-2.2c-2.1-0.7-4.1-1.9-5.6-3.6
		C340.9,271.9,340.9,271.4,341.4,270.9z"/>
	<path fill="#FDFDFD" d="M348.2,279.1c7,2.7,14.4,2.7,21.7,3c3.5,0.1,4.8,1.4,5,4.9c0.5,12,1.2,10.5-10.9,11.6
		c-1.2,0.1-2.5,0-3.7-0.1c-2.4-0.2-5.2,0.4-6.9-0.7c-1.8-1.2,0-4.1-0.2-6.3c-0.5-4.6-2.7-8.2-5.7-11.5
		C347.2,279.2,347.4,278.8,348.2,279.1z"/>
	<path fill="#CB00E8" d="M377.2,296.5c0.7-3.9-0.2-7.9-0.4-11.8c0-0.8-0.5-1.9,0.7-2.2c1.5-0.4,1.4,1.1,1.6,1.9
		c0.7,2.5,1.1,5.1,1.9,7.6C382.1,295.4,381.1,296.9,377.2,296.5z"/>
	<path fill="#BD00D7" d="M380.4,307c6.5-1.5,13.1-3.1,19.6-4.6c0.8-0.2,2-1.4,2.5,0.2c0.5,1.6-1.1,1.7-2.1,2
		c-6,1.7-12.2,2.5-18.4,3.2C381.4,307.9,380.4,308.4,380.4,307z"/>
	<path fill="#9A00AF" d="M380.4,307c0.5,0.2,1.1,0.5,1.6,0.7c-8.4,1.8-16.8,3-25.3,3.6c-0.9,0.1-2,0.5-2.6-0.7
		c0-0.8,0.1-1.7,0.1-2.5c1.5,2.9,4.2,1.5,6.2,1.3C367.2,308.9,373.8,307.9,380.4,307z"/>
	<path fill="#8C0B9E" d="M317.9,287.3c-0.5,5,1.1,9.5,4.2,14.4C316.8,297.4,315.4,292,317.9,287.3z"/>
	<path fill="#A100B8" d="M341.4,270.9c0,0.5,0,1,0,1.5c-4.5-3-7.4-6.8-6.7-13.5C336.3,263.9,337.4,268.2,341.4,270.9z"/>
	<path fill="#CFC4D1" d="M348.2,279.1c-0.3,0.3-0.5,0.5-0.8,0.8c-2.1-0.4-3.5-1.8-5-3.3C344.6,276.7,346.3,278,348.2,279.1z"/>
	<path fill="#9A00AF" d="M354.3,307.9c2.5-2,5.4-0.8,8.2-0.9C359.9,308.1,357,307.2,354.3,307.9z"/>
	<path fill="#5CFE53" d="M279,166.4c-6.9,2.4-13,2.1-19,0.3c-10.7-3.2-19.9-9.1-28.5-16.1c-1.1-0.9-1.9-2-2.3-3.4
		c-3-9.8-5.6-19.7-4.7-30.1c1.2-13.6,10.9-26.1,23.5-30.2c4.3-1.4,8.4-1.5,12.8,0.1c5.6,2,11.2,4.1,15.3,8.3
		c5.4,5.4,6.4,12.8,5.6,20.3c-0.2,2.3-0.9,4.7-1.9,6.8c-1.3,2.8-2.7,5.3-6.8,5.5c-3.8,0.2-7.9,0.9-11.3,3.1c-1,0.6-2.2,0.3-3.3,0
		c-5.6-1.5-10-4.9-13.9-9.1c-0.8-0.9-0.7-1.7-0.3-2.7c0.4-0.8,0.5-1.8-0.3-2.4c-1-0.7-1.9,0-2.7,0.6c-1.8,1.3-2.9,3.1-3.2,5.3
		c-1.1,8.5,0.4,16.7,3.9,24.5c1.7,3.8,5.3,6.2,8.8,8.4c5.3,3.4,11,6,16.6,8.6C270.7,165.8,274.7,164.9,279,166.4z"/>
	<path fill="#41BA3A" d="M228.5,98.8c2.6-6.5,7.2-10.8,14-12.7C237.2,89.6,232.4,93.6,228.5,98.8z"/>
	<path fill="#2700FE" d="M200.3,113.4c2.9,6.4,4.5,13,3.5,20.1c-0.4,2.4,0.2,5,0.2,7.5c0.1,16.6-0.8,33.1-4.9,49.3
		c-0.4,1.4-0.8,2.9-1.2,4.3c-0.4,1.5-1.3,2.2-2.7,1.7c-5.6-2.2-11.4-1-17.1-0.8c-2.8,0.1-5.5-0.3-8.2-0.4c-2.4-0.1-3.2-1.3-2.3-3.4
		c3.3-8,2.4-16.2,1.4-24.4c-0.2-1.7-0.7-3.4-1.4-5c-1.1-2.7-2.7-5-6.2-4.8c-0.8,0.1-1.7-0.4-2.6-0.4c-9.6-0.7-11.6-4.4-11.8-14.3
		c-0.1-7,4.2-9.9,11.1-8.5c7.9,1.7,13.9,5.3,15.9,13.7c0.3,1.2,1.5,2.5-0.8,3.2c-1.3,0.4-0.6,1.7-0.5,2.6c0.7,4.6,2.5,8.9,2.8,13.5
		c0.1,1.5,1.2,2.5,2.6,2.8c3.7,0.7,7.4,1.2,11.1,1.7c2.5,0.3,3.8-0.8,4.4-3.4c0.8-3.6,0.8-7.2,0.9-10.8c0.1-4.2,0-8.5,1.2-12.6
		c0.9-3.2-0.2-5-3.9-5.7c-8.3-1.7-14.1-6.7-17-14.8c-2.1-5.9-0.3-10.7,5.3-14.6c4.3-3,9-2.6,13.9,0.9c1.6,1.2,2.5,3.1,4.5,3.8
		C199.5,114.6,198.9,112.8,200.3,113.4z"/>
	<path fill="#1B00BF" d="M162.1,133.7c-4.2-1.9-7.9-2-11.6-1.3C153,128.7,156.8,128.9,162.1,133.7z"/>
	<path fill="#1E08A8" d="M200.3,113.4c-0.5,0.4-1.1,0.9-1.6,1.3c0.8-2.6-1.6-3.4-2.9-4.7c-1.3-1.3-2.9-2.1-4.6-3.4
		C194.5,106.1,194.5,106.1,200.3,113.4z"/>
	<path fill="#5BFC52" d="M206.9,107c0.3-1.6-0.3-4,2.4-5c3.4-1.2,6.1,0.3,8.7,2.1c2.2,1.4,2.2,3.8,1.4,6.1c-1.2,3.5-3.9,5.6-7.2,7.2
		c-1.5,0.7-2-0.1-2.7-1.1C207.9,113.5,206.8,110.6,206.9,107z"/>
	<path fill="#5BFD52" d="M211.6,87.7c0.1-4.2,3.4-7.2,8-7c3.7,0.1,6,2.4,6,5.8c0,5.2-3.8,9.6-8.3,9.5
		C214.1,95.9,211.5,92.2,211.6,87.7z"/>
	<path fill="#010202" d="M216.1,459.1c8,0,16,0,24.1,0c11.3,0.7,22.7,1,34.1,0.9c3.5,0,7,0.2,10.3,1.5c2.3,0.9,2.7,2.3,0.9,3.8
		c-2,1.7-3.4,4.3-6.6,4.6c0.4,0.8,0.8,1.3,0.9,1.8c0.2,1,1.5,2.2,0.3,3c-1.1,0.8-1.3-0.7-1.9-1.2c-0.8-0.6-1.4,0.1-2.1,0.3
		c-4.1,1.2-8.3,1.7-12.5,0.7c-1.4-0.3-3.2,0.1-2.1-2.5c0.7-1.5-1-1-1.6-1c-18.2-0.3-36.4-2.7-54.6-2.7c-1.5,0-3-0.2-4.3-1
		c-0.9-0.5-2.5-0.1-2.3-2.3c0.2-1.9,0.7-2.9,2.4-3.6c4-1.4,8.3-1.7,12.5-2.1C214.3,459.2,215.2,459.1,216.1,459.1z"/>
	<path fill="#010101" d="M177.5,471.4c-1.4,2.5-2.3,4.3-3.4,6c-0.6,0.9-1.2,2.1-2.6,1.4c-1.4-0.6-1-1.9-0.8-2.9
		c0.3-1.3,0.6-2.7,1.1-4c0.4-1.1-0.4-1.9-1-2.2c-0.9-0.4-1.2,0.7-1.4,1.3c-0.9,2.2-2,4.3-3.4,6.2c-0.4,0.6-0.7,1.5-1.7,1
		c-0.8-0.4-1-1.1-0.9-1.9c0.1-2.3,1.1-4.3,1.7-6.5c0.4-1.5,2.3-2.7,0.3-4.7c-0.8-0.8,0.3-2.6,1.8-3.2c0.8-0.3,1.7-0.3,2.4-0.9
		c0.9-1,2-2.3,3.5-1.3c1.2,0.9,0.6,2.2,0.1,3.4c-0.5,1.2,0.2,2.1,1.4,2.8c0.6-1.3,1.3-2.5,1.8-3.7c0.5-1.3,1.4-2.4,2.7-2
		c1.9,0.4,1.4,2.2,1.2,3.4c-0.2,1.6-0.8,3.1-0.9,4.8c2.3-1,2.6-3.4,3.5-5.3c0.8-1.5,1.4-2.8,3.2-3.2c0.9-0.2,1.8-0.5,2.2,0.6
		c0.7,1.9,2.1,0.9,3.1,0.7c2-0.5,5.2,1.1,5.7,3.1c0.5,1.8-1.1,1.3-1.8,1.5c-1.8,0.6-3.5,0.6-3.1,3.7c0.4,2.7-1.2,5.5-2.7,8
		c-0.4,0.7-0.9,1.2-1.8,1c-1-0.2-0.9-1-0.9-1.8c-0.1-2.7,0.5-5.2,1.4-7.7c0.5-1.3,0.3-2-0.8-2.6c-1.8-1-2.1,1.1-2.1,1.6
		c0.6,3.9-3.5,5.4-4.3,8.6c-0.3,1.3-1.3,3.1-3.2,2.4c-1.6-0.7-0.7-2.4-0.6-3.7C177.3,474.5,178.1,473.5,177.5,471.4z"/>
	<path fill="#170007" d="M287.7,337.7c2.5-0.2,4.3,1.3,6.4,1.9c0.9,0.3,1.1,0.8,0.9,1.7c-0.3,1-1,1.1-1.7,0.7
		c-2.3-1.1-4.6-2.4-7.3-2.3c-0.7,0-1.1-0.7-0.8-1.3C285.8,337.2,286.9,337.9,287.7,337.7z"/>
	<path fill="#120005" d="M288,351.6c-0.4,0.4-0.6,0.8-1,1.1c-0.6,0.5-1.2,0.3-1.6-0.3c-1.2-2-2.4-4.1-3.6-6.2
		c-0.3-0.5-0.2-1,0.4-1.2c0.3-0.1,0.9-0.1,1,0C284.9,347.2,286.4,349.3,288,351.6z"/>
	<path fill="#050302" d="M229,358.9c-1.9,0.8-3.3-0.3-4.5-1.2c-4.2-3.2-7.4-7.3-10.2-11.8c-0.8-1.3-0.6-2.5,0.1-3.9
		c4.8-9.7,6.8-10,13.2-1.7c2.5,3.3,5.9,6,7.1,10.3C235.6,354.1,232.6,358.6,229,358.9z"/>
	<path fill="#030103" d="M397.7,287.2c-0.4,5.4-0.8,7.3-5.9,8.3c-2.5,0.5-3.7,0-4.3-2.4c-0.8-3.4-1.4-6.8-2.4-10.1
		c-0.6-1.9,0.4-3.1,1.7-3.6c2.4-1,5-1.6,7.5-2.2c1.9-0.5,2.3,1.1,2.5,2.5C397.2,282.2,397.4,284.8,397.7,287.2z"/>
	<path fill="#03030A" d="M184.6,187.5c-1.4-0.2-2.7-0.4-4.1-0.4c-2.2,0-4.1-0.5-4.3-3c-0.2-2-0.2-3.7,2.5-4.9c2.8-1.2,5.2-3,8.3-1.5
		c2.7,1.4,5,3.5,4.3,6.7C190.7,188,187.2,187.1,184.6,187.5z"/>
	<path fill="#A9D9E5" d="M201.5,464.9c5-2.8,10.4-3.1,15.8-3.3c14.6-0.5,29.2-0.2,43.8,0.4c6.1,0.3,12.2-0.5,18.3,0.1
		c1,0.1,2.6-0.6,2.7,1.1c0.1,1.4-0.5,2.7-2.1,3.2c-2.5,0.8-5,1.4-7.7,1.3c-19.9-0.8-39.9-0.3-59.8-1.9
		C208.8,465.5,205.2,465.2,201.5,464.9z"/>
	<path fill="#8BB2BC" d="M275.6,471.2c-3.7,1.8-6.8,1.9-11.1,1.5C268.3,470.2,271.5,469.9,275.6,471.2z"/>
	<path fill="#68878E" d="M193,464.4c-1.7,1-3,0.9-4.3,0.4C190.2,463.6,190.2,463.6,193,464.4z"/>
	<path fill="#F5A576" d="M233.6,350.2c-1,3.6-1,3.5-4.2,3.6c-0.4,0-1,0.1-1,0.2c-1.8,5.1-3.6,0.5-4.7-0.3c-2.8-2.1-4.8-5-6.8-7.9
		c-0.6-0.9-1.7-2-0.5-2.9c1-0.8,1.6,0.7,2.3,1.3c2.3,2,4.4,4.1,6.8,5.9C228,352.1,230.6,355,233.6,350.2z"/>
	<path fill="#F2F2F2" d="M229.5,349.7c-4.1-2.1-7.1-5.4-10.3-8.5c-1.5-1.5-0.4-2.5,0.4-3.5c1.3-1.6,1.8-0.1,2.5,0.7
		C225,341.9,227.7,345.4,229.5,349.7z"/>
	<path fill="#DBDBDB" d="M387.6,282.9c3.1,1.6,4.9,8.7,3.4,10.1c-0.6,0.6-1.5,0.4-1.7-0.6C388.8,289.4,388.3,286.4,387.6,282.9z"/>
	<path fill="#BF00D9" d="M394.2,291.9c-1.3-3.3-0.7-6.4-1.8-9.1c-0.4-1.1,1.1-1.7,1.9-1.8c1-0.2,0.9,1,0.9,1.6
		C395.1,285.5,396.3,288.6,394.2,291.9z"/>
	<path fill="#F8F8F8" d="M187.4,180.8c1.1,0.7,2,1.7,1.6,3c-0.5,1.7-2.1,0.6-3.2,0.7c-1.1,0.2-2.2,0.3-3.3,0.1
		c-1.3-0.3-3.5,0.6-3.9-1.1c-0.4-1.8,1.4-3,3.1-3.6C183.7,179.6,185.6,180,187.4,180.8z"/>
	<path fill="#2000D9" d="M187.4,180.8c-2,0.6-3.7-0.6-5.6-0.8C183.8,178.9,185.8,178.7,187.4,180.8z"/>
</g>
</svg>
