<?xml version="1.0" encoding="utf-8"?>
<!-- Generator: Adobe Illustrator 18.0.0, SVG Export Plug-In . SVG Version: 6.00 Build 0)  -->
<!DOCTYPE svg PUBLIC "-//W3C//DTD SVG 1.1//EN" "http://www.w3.org/Graphics/SVG/1.1/DTD/svg11.dtd">
<svg version="1.1" id="Layer_1" xmlns="http://www.w3.org/2000/svg" xmlns:xlink="http://www.w3.org/1999/xlink" x="0px" y="0px"
	 viewBox="0 0 634.7 693.2" enable-background="new 0 0 634.7 693.2" xml:space="preserve">
<g>
	<path fill="#FEFEFE" d="M0.1,346.2C0.1,232,0.1,117.7,0,3.4C0,0.6,0.6,0,3.4,0C212.7,0.1,422,0.1,631.3,0c2.8,0,3.4,0.6,3.4,3.4
		c-0.1,228.8-0.1,457.6,0,686.3c0,2.8-0.6,3.4-3.4,3.4c-209.3-0.1-418.6-0.1-627.8,0c-2.8,0-3.4-0.6-3.4-3.4
		C0.1,575.3,0.1,460.8,0.1,346.2z"/>
	<path d="M209.7,498c0,2.3,0.1,4.4,0,6.6c-0.1,2.1-0.2,4.3-2.9,5.1c-2.6,0.8-5.3,1.1-6.9-1.2c-2.5-3.5-5-2.9-8.4-1.4
		c-4.8,2.2-7.6,0.6-8.7-4.6c-1.5-6.8-0.1-13.4,1.3-20c1.4-6.7,3-13.4,4.7-20c0.7-2.6,0.4-3.7-2.7-4c-11.1-1-22.1-2.3-33.1-3.7
		c-2.6-0.3-4.5,0.2-6.2,2.2c-2.6,3-5.5,5.8-8.5,8.4c-5.7,4.8-10.6,3.8-13.8-2.3c-6-11.5-4.4-24.9,4.4-34.1
		c5.6-5.8,11.7-10.9,19.7-13.1c5.8-1.6,9.1,0,11.7,5.4c0.2,0.4,0.6,1.3,0.6,1.3c3.3-1.4,6.5,1.3,9.7,0.5c2.7-0.7,5.3-1.9,7.6,0.6
		c0.2,0.2,0.7,0.5,0.9,0.4c5.7-3.2,11.5,1.6,17.3-0.2c2.4-0.7,5.2-0.4,7.8,0.5c1.4,0.5,2.4-0.4,3.5-0.8c2.6-0.9,5.1-1.6,6.9,1.2
		c0.5,0.8,1,0.7,1.9,0.5c6.9-1.6,13.8-3.4,20.9-0.5c1,0.4,1.6-0.5,2.3-0.8c2.8-1.4,5.1-2.3,8.7-0.6c2.8,1.4,6.8,0.3,10.3,0.2
		c1.4,0,2.7-0.3,4.1-0.5c4.7-0.5,6.1,0,9.2,3.5c2.2-1.9,4.2-3.9,6.8-5.3c1.8-1,4.3-2,5.6-0.4c3.8,4.6,8.7,2.2,13,2.5
		c4.5,0.4,9.4-1.9,13.5,1.9c0.8,0.7,1.7-0.7,2.5-1.2c3.4-1.9,6.8-3.5,10.2,0c0.7,0.7,1.2,0.7,1.8,0c2.3-2.7,5.4-2.4,8.3-1.6
		c5.8,1.4,11.5,0.7,17.3,0.5c3.5-0.1,7,0,10.5-0.1c4.6-0.1,9.3,1.1,13.9-1.2c1.6-0.8,4.2-0.7,5.8,0.1c4.3,2.2,8.2,2,12.7,0.5
		c4.8-1.6,9.9-0.3,14.8,0.6c2.1,0.4,2.9,0,3.4-2.3c1.3-6,5.1-6.7,10-4c6.3,3.5,10.5,9.1,14.9,14.6c10,12.5,18.8,25.8,25.8,40.2
		c3,6.2,3.5,12.7,1,19.2c-2,5.3-6.4,6.9-12,6.4c-5.2-0.5-6.8-4.4-9.4-7.4c-1.5-1.7-2.9-2.7-5.2-3c-23.6-2.5-47.2-5.2-70.7-7.8
		c-2.6-0.3-5.2-0.5-7.8-0.8c-1.6-0.2-2.3,0.1-2.2,1.9c0.3,5.7,0.4,11.5,0.6,17.2c0,1.7,1.2,2.4,2.3,3.2c7.6,6.3,14.1,13.4,17,23.1
		c2.1,6.8,1.6,13.4-1.7,19.9c-2.9,5.9-6.7,10.7-11.9,14.6c-1.7,1.3-2.1,2.7-1.9,4.8c0.6,4.7,0.9,9.5,1.1,14.2
		c0.2,8.2-3.1,11.6-11.5,12.1c-6.7,0.4-13.1-3.5-15.5-10.1c-0.7-1.8-1.1-2.1-2.7-1.2c-1.1,0.6-2.3,0.9-3.5,1.3
		c-7.7,2.6-12.4-0.7-12-8.8c0.2-3.6-0.9-4.4-4.1-4.7c-6.6-0.6-6.5-0.8-4.9,5.6c2.2,9,6.8,16.9,12.3,24.2
		c10,13.3,17.8,27.6,23.2,43.4c0.8,2.3,1.9,4.1,3.9,5.7c8,6.3,8.6,13.4,2,21.1c-4.4,5.3-10.2,7.3-16.9,6.7
		c-9.5-0.8-12.7-12.9-10.2-20.5c0.5-1.5,1.1-3.3,2.3-4.3c3.9-3.4,2.8-6.9,1.3-11c-2.4-6.7-5.3-13.2-8.5-19.5
		c-0.6-1.1-1.2-2.1-1.9-3.4c-1.4,2.9-2.5,5.7-4.6,7.8c-5.5,5.3-13.9,3.8-18.8-3.6c-3.7-5.6-4.8-12.6,1.6-18.5
		c2.9-2.6,1.7-6.4,0.9-9.5c-1.3-4.5-3.2-8.9-4.9-13.3c-1.5-3.9-3-7.8-3.1-11.9c-0.1-3.2-2.1-5.5-2.8-8.4c-0.1-0.4-0.5-0.9-0.9-1
		c-1.7-0.5-6.8,2.9-7,4.6c-1.6,16.9-8.1,31.9-17,46.1c-6.2,9.7-11.2,20-14,31.2c-0.6,2.5-0.3,4.3,1.4,6.4c7.7,9.7,3.5,23.4-7.9,26.3
		c-6.1,1.6-12.3-1.2-16.2-7.3c-3.9-6-4-13.5,0.7-18c4-3.8,5.6-8.5,7.5-13.1c6.2-15.5,13.6-30.3,25-42.7c8-8.7,9.9-19.7,11.2-30.8
		c0.6-5.2,1-10.4,1.3-15.7c0.2-3.7-1.9-6.8-2.8-10.7c-1.4,2.3,0,5.4-2.8,6.4c-3,1.1-6,1.3-9.1,0c-2.2-1-3.3-2.6-3.5-4.9
		c-0.2-2-1.2-2.2-2.8-1.5c-0.9,0.4-1.8,0.8-2.7,1.2c-6.8,2.7-11.3-0.5-11.1-8c0.2-4.7,1.4-9.4,2.4-14c0.3-1.3,0.5-2.6,0.8-4.2
		c-0.8,0-1.5,0.1-2.1,0c-3.3-0.5-4.9,0.3-5.3,4.2c-0.6,6.1-4.2,9.7-8.1,9.8c-3.5,0-6.9-3.8-8.1-9.6c-0.7-3.2-0.9-6.4-0.7-9.7
		C211.7,499.6,211.6,498.3,209.7,498z"/>
	<path fill="#0D0078" d="M205.3,102.5c-7.3,0.5-15.5-2.5-23.9-5.4c-3-1.1-4.6-3.5-6.8-5.3c-6.1-4.9-11.8-10.3-15.8-17.2
		c-1.5-2.5-3-3.1-6-2.1c-9.8,3.2-19.7,6.5-29.8,8.6c-5,1-3.3,4.3-2.7,6.9c2.1,9.7,5.6,19,10.3,27.8c1.5,2.8,3.4,3,6,2.3
		c5.6-1.4,11.3-2.9,17-4.1c5.2-1.1,10.4-0.7,15.7-0.2c6.8,0.6,13.3,2.2,19.4,4.8c10.7,4.4,19.5,11,22.7,22.8
		c1.5,5.5,0,11.2-1.5,16.6c-0.4,1.6-0.3,3.1-0.6,4.7c-1.5,8.6-8.2,11.2-15.1,13.7c-7.8,2.8-15.6,6.1-23.7,8.1
		c-6,1.5-12.2,1.9-18.6,1.2c-9.8-1.1-17.9-5.3-25.7-10.8c-4.1-2.9-6.8-7.6-11.6-9.8c-3.4-8.9-10.2-15.9-13.8-24.8
		c-4.5-11-8.6-22.1-11.1-33.7C87.3,95.9,85.2,85,84,74c-0.7-6-1.4-12-2.2-18c-0.4-3.1,0.3-6.2,0.9-9.2c0.3-1.3,1.4-2.1,2.7-2.7
		c11.8-5.4,24.2-9.2,36.4-13.5c12.3-4.4,24.8-8.2,37.3-12.2c3.4-1.1,4,0.3,4.6,2.8c1.5,6.3,2.7,12.7,4.8,18.7
		c1.8,5.1,5.5,9.3,9.6,12.8c2.2,1.8,4.7,3.5,7,5.2c4,2.9,7.5,2.2,11.3,0.2c8.2-4.3,17-7.3,26-9.2c12.3-2.6,23.8-1,32.9,8.6
		c2.3,2.4,5.2,4.6,5.9,8.2c0.7,3.8,0.4,7.5-1.3,11.1c-4.1,8.7-10.4,15.3-19.2,19C229.9,100.5,218.8,103,205.3,102.5z"/>
	<path fill="#010000" d="M304.7,176.3c-4.5-1.9-9-3.3-12.6-6.5c-11.5-9.9-19.7-21.7-19.2-37.4c0.3-7.8,2.5-11.5,12.2-10.1
		c13.7,2,20.8,10,24.1,23.1c1.3,5.1,2.2,10.3,2.2,15.5c0,2.2,0.9,2.7,2.9,2.7c6.5-0.2,12.7,0.9,18.4,4c8.9,4.7,13.1,14.6,10.3,24.4
		c-3.1,10.8-10.4,17.8-19.9,23.1c-1,0.5-3.8,0.5-2.2,2.7c1.1,1.6,2.7,3.4,5.2,1.4c4.4-3.5,7.3-3.8,10-1.7c3.2,2.5,4.5,8.4,2.6,12.3
		c-1.8,3.8-6,6-10.3,5c-7.8-1.9-14.5-5.4-18.1-13.1c-0.8-1.8-2.1-2.1-3.8-2.4c-9.2-1.1-15-6.6-17.5-15.1c-2.5-8.3-1.7-16.3,4.5-23.1
		C296.6,177.9,300.4,177,304.7,176.3z"/>
	<path d="M340.3,293.2c0.6-16.9,11.5-31.9,33.6-36c7.9-1.5,15.1-1.2,21.7,3.8c0.1,0.1,0.2,0.1,0.3,0.2c6.5,3.7,6.4,3.6,10.9-2.2
		c12.5-16.3,23.8-33.6,37-49.5c4.7-5.7,9.6-11.2,15.8-15.3c4.7-3,7.3-2.2,7.4,3.3c0.3,9.9,5.4,17.4,10.1,25.3c1,1.7,2.3,2.4,4.1,2.8
		c5.9,1.4,11.6,1,17.1-1.8c2.3-1.1,3.8-2.8,5.3-4.6c1.3-1.5,2.7-3.5,5-2.3c2.4,1.3,2.1,3.9,1.3,6c-1.6,4.5-4.3,8.4-7.3,12.1
		c-4.6,5.8-9.7,11-16,15.1c-3,2-6.3,2.4-9.7,1.7c-9.5-1.9-17.7-6.3-24.6-13.2c-3.2-3.2-3.3-3.2-5.5,0.7
		c-9.7,16.6-18.4,33.7-26.4,51.1c-8.9,19.2-23.8,30.8-43.8,35.1c-12.8,2.8-24.3-1.9-31.5-14.5C342.2,306.2,340.4,300.8,340.3,293.2z
		"/>
	<path fill="#010001" d="M173.2,253.5c8.2,0,14.2,0.1,20.2,0c14.1-0.2,25.7,16,21.4,28.3c-3.8,10.7-16.1,19.3-27.8,15.7
		c-7.4-2.3-17.4-15.6-14.8-23.8c0.7-2.1,0.2-2.9-2.3-3c-6.7-0.2-13.4-0.8-20.2,0.3c-5.7,0.9-6.5,2.1-5,7.7c0.7,2.6,1.2,5.1,0.7,7.8
		c-0.7,3.2,0.9,4.3,3.9,4.4c4.2,0,8.5,0.1,12.7,0.2c11,0.2,19.2,5.2,25.2,14.2c0.9,1.3,1.7,2.8,2.7,4c4.2,5.5,3.8,11.4-1.5,15.9
		c-5.6,4.7-12.2,6.1-19.3,4.8c-1.7-0.3-3.6-0.6-4.3-2.8c-0.2-0.6-1.1-1.1-1.7-1.3c-7.1-2.8-8.7-8.9-9.5-15.6
		c-0.9-8.2-1.1-8.3-9.6-8.4c-9.3-0.1-18.4,1.6-27.6,2.4c-3.1,0.3-4.1-0.8-4-3.7c0.2-6.4,0.4-12.7,0.6-19.1c0.1-4.1,0.2-8.2-0.5-12.3
		c-0.9-5.2,0.7-7.3,5.7-8.8c13.5-4.1,27.5-4.8,41.4-5.9C164.9,253.8,170.2,253.7,173.2,253.5z"/>
	<path fill="#010100" d="M98.6,350.3c3.3-4.8,1.8-11.2-3.2-13.3c-5.5-2.2-10.8-5.1-16.7-6.6c-1.5-0.4-3.5-1.5-3.5-3.2
		c0-2.4,1.7-4,4-4.9c8.6-3.1,16.8-1.4,24.5,2.8c7.6,4.2,12.4,10.4,12.6,19.5c0,1.7,0.6,2.7,2.1,3.5c3.8,1.9,4.3,4.9,2.1,8.6
		c-2.3,3.9-5.9,6.4-9.6,8.7c-8.9,5.6-18.7,9.4-28.3,13.6c-0.5,0.2-0.9,0.4-1.4,0.6c-8.6,3.8-9,3.9-7.1,13c1,4.7-0.5,8.8-1.5,13
		c-2.1,8.7-6.1,15.9-15.2,19.4c-11.3,4.3-27.4-1.4-31.9-12.5c-2.6-6.4-2.8-13.6-1.3-20.6c1.6-7.3,5.7-12.7,12.1-16.7
		c7.3-4.5,15.4-6.2,23.5-8.2c4.8-1.2,9.5-2.8,14.1-4.8c2.5-1.1,4.7-2.8,6.5-4.9c3.2-3.7,2.8-6.8-1.6-9c-3.2-1.6-6.2-3.6-10-4.2
		c-2.3-0.3-2.8-2.9-3.6-4.8c-0.5-1.3,0.5-2.3,1.7-3c6.7-3.9,21.2-2,26.9,3.2C97.1,342.5,97.9,346.3,98.6,350.3z"/>
	<path fill="#010100" d="M404.5,64.2c0.5,6,1.1,13,2,20.1c0.3,3,1.6,3.9,4.1,3.9c4.3-0.1,7.9,1.6,11.7,3.3
		c11.3,5.3,16.3,19.1,11.5,30.7c-3.3,8-8.6,13.1-17.3,13.6c-8,0.4-14.7-2.9-19-10.1c-7.3-12.3-9.4-26-9.6-39.9
		c-0.2-14.2-0.6-28.4-2.1-42.6c-0.7-6.2-0.2-12.5,1.2-18.6c0.6-2.6,2-4.3,4.5-5c2.6-0.7,5.3-1.5,8-2c10-1.6,19.7-4.5,29.3-7.4
		c8.3-2.5,8.7-2.2,8.6,6.4c-0.2,14.3,0.4,28.5,4.7,42.3c0.8,2.6,1.8,3.3,4.6,3.1c11.3-0.7,23.5,5.8,25.9,17.7
		c0.3,1.6,1.7,2.4,1.8,4.2c0.4,8.4-3.8,13.9-11.9,16.2c-14.4,4.1-27.7-7.3-32.1-18.5c-3.3-8.4-4.7-17.3-5.6-26.2
		c-0.3-2.8-1.3-3.2-3.7-2.7c-3.5,0.8-7.1,1.4-10.6,2.3C404.4,56.6,404.4,56.7,404.5,64.2z"/>
	<path fill="#000100" d="M531.5,284c13.6-1.9,26.4,1.5,38.7,6.6c5.9,2.5,11.4,6.1,16.2,10.6c2.7,2.5,3.1,6.2,4.8,9.2
		c4.7,8.3,7.1,17.3,6.7,26.8c-0.8,16.3-7.1,29.6-22.7,36.6c-4.4,2-9.3,3-14.2,2.9c-11.3-0.3-22.1-2-31.7-9.2
		c-7.5-5.6-14.2-19-12.4-28.2c1-5.2,5.3-8.2,8.5-11.6c7.8-8.3,16-9.2,26.5-4.5c5.4,2.4,10.3,5.4,15.2,8.7c3.2,2.2,4.1,1.7,4.5-2.3
		c1-11.4-3.9-20.2-12.4-27.1c-8.1-6.5-18-8.1-27.9-9.7c-5.4-0.9-10.9-1.5-16.3-2.4c-1.2-0.2-2.9-0.4-3-1.8c-0.1-1.3,1.6-1.3,2.6-1.8
		C519.8,283.7,525.8,284.3,531.5,284z"/>
	<path fill="#040704" d="M591.7,370c0-5.5,3.7-10.5,7.7-10.5c7.9,0,13.6,4.2,13.4,9.9c-0.2,5.7-5.7,12.5-10.3,12.5
		C596.6,381.9,591.7,376.5,591.7,370z"/>
	<path fill="#060906" d="M610.7,335.8c3.9,0.1,9,6.3,9,11.1c0.1,5.6-6.1,10-14,10c-4.9,0-8.1-3.4-8-8.8
		C597.8,341.5,603.9,335.7,610.7,335.8z"/>
	<path fill="#F7FE8C" d="M331.7,563.5c10.2-1.6,18-7.7,25.7-13.8c0.5-0.4,1.5-0.9,0.9-1.7c-0.8-1.1-1.5-0.1-2.2,0.4
		c-0.8,0.5-1.6,1.2-2.4,1.8c-10.7,9.6-23.1,13.2-37.4,10.9c-11.4-1.9-22.5-4.3-32.5-10.4c-7.5-4.5-13.5-10.4-14.4-19.7
		c-1.2-11.8,1.8-16.3,13.4-19.4c0.8-0.4,1.5-0.6,1.4,0.7c-12.6,4.7-16.2,18.7-7.5,29.2c7.4,8.9,17.4,12.8,28.2,14.5
		c12.7,2,25.1,1.1,36.7-5.2c13.6-7.3,21.2-26.7,9.8-39.1c-4.7-5.2-10.6-8.6-16.9-11.5c-16.2-7.3-33-6.2-49.9-3.3
		c-9.1,1.6-18.1,3.4-27.2,5.1c-0.7,0.2-1.6,0.7-1.5-0.8c13.5-4.8,27.2-8.9,41.8-9.5c22.5-0.9,42.4,5.1,59.1,20.6
		c0.7,0.6,1.6,2.3,2.6,0.9c0.8-1.1-0.8-1.7-1.6-2.4c-20.8-19.3-45.6-23.6-72.8-20c-11.7,1.6-22.6,6.1-33.8,9.5
		c-16.3,4.9-30.5,1-43.1-9.9c-4.2-3.6-5.9-8.6-5.5-14.1c0.4-5.7,3.9-9.7,9.9-10.3c-0.6,0.4-1.3,0.7-1.8,1.2
		c-6.4,5.9-7.1,11.8-2,18.8c6.7,9.3,16,13,27.3,12.5c9.2-0.4,17.9-2.9,26.5-5.9c18-6.2,36.4-9.3,55.6-7.1
		c22.3,2.6,40.4,12.5,52.7,31.5c7.7,11.9,5.4,24-5.4,35.2c-7.5,7.7-17.2,10.9-27.7,12.1C335.7,564.2,333.5,565.5,331.7,563.5z"/>
	<path fill="#FEFEFE" d="M442.7,466.9c-8.1-1-16.1-1.9-24.1-2.9c-6.4-0.8-12.9-1.5-19.4-1.5c-1.6,0-2.6-0.1-3.1-2.1
		c-2.3-10.2-4.8-20.3-7.2-30.5c-0.8-3.5,1.8-4.4,4.2-5c3.7-0.9,7.4-0.4,11.2-0.3c5.3,0.2,9.6,1.8,12.4,6.7
		c6.7,11.6,15.7,21.4,24.1,31.7C441.6,464,442.6,465.1,442.7,466.9z"/>
	<path fill="#FEBFE5" d="M355.1,525.1c-0.8,11.5-5.9,19.5-15.6,24.5c-5,2.6-10.4,4-16,4.8c-2,0.3-3-0.1-2.6-2.5
		c0.5-3.1,0.8-6.2,1.1-9.3c0.1-1,0.4-2,1.1-2.7c5.4-5.3,6.2-11.6,3.3-18.2c-1.5-3.3-0.2-6.1,0.1-9.1c0.3-3.6,0.9-7.2,1.3-10.8
		c0.1-1.3,0.4-2.1,2-1.5c8.5,3.3,16.4,7.3,21.9,14.9C353.9,518.4,355.1,521.9,355.1,525.1z"/>
	<path fill="#878787" d="M336.6,647.5c-1.7,0-3.3-0.6-4-3.2c-3.6-13.4-10.6-25.2-17.7-37c-6.9-11.4-12.9-23.1-15.7-36.2
		c-0.6-2.6-1.9-5.5,1.7-7.4c1.8-1,2.7-0.4,2.9,1.1c1.8,15.2,10.5,27,19.3,38.7c8.9,11.8,14.4,25.3,19.6,39
		C343.7,645.4,341.2,647.6,336.6,647.5z"/>
	<path fill="#FEFEFE" d="M392.2,462.2c-8.9-0.8-17.2-1.5-25.5-2.1c-1.7-0.1-2-0.8-1.7-2.4c1.5-8.1,2.9-16.2,4.3-24.3
		c0.4-2.6,1.8-4.8,2.6-7.2c1-2.9,4.7-2.8,7.6-2.5c2.4,0.2,5,0.2,5.7,3.6C387.3,438.8,389.7,450.2,392.2,462.2z"/>
	<path fill="#878787" d="M269,549.7c1,2.2,1.7,4.2,3.4,5.9c1.8,1.7,0.7,3.8,0.4,5.7c-1.8,13.9-7.2,26.6-14,38.8
		c-7.7,13.8-16.2,27.2-20.4,42.8c-0.6,2.4-4.7,3.4-7.7,2.3c-2.9-1.1-2.6-2.9-1.5-5.3c2.1-4.6,3.9-9.4,5.8-14.2
		c5-12.2,11.1-23.7,20.1-33.5c8.3-9.1,11.6-20.1,12.8-32C268.3,556.5,268.6,553.1,269,549.7z"/>
	<path fill="#858585" d="M293.1,464.1c3.5,5.1,9,4.2,14,4.6c11.9,1.1,23.7,2.4,35.6,2.7c7.5,0.2,14.7,2.2,22.2,2.7
		c7.6,0.6,15.2,1.8,22.8,1.9c15.6,0.4,30.8,4,46.3,4.6c3.1,0.1,6.4-0.6,9.7-0.1c0.9,0.1,2-0.9,2-1.9c0.3-4.4,1.8-8.8-0.8-13.1
		c-3.3-5.5-7.4-10.4-11.7-15c-6.6-6.9-10.4-15.9-16.6-23.1c-2.1-2.4-2.8-4.5-1.1-7.9c3.5,4.7,7,9.2,10.3,13.8
		c9,12.5,17.8,25.1,23.8,39.4c1.8,4.4,3.2,8.9,3,13.8c-0.1,2.4-0.4,5.1-2.7,6.2c-2.4,1.1-3.1-1.9-4.7-2.9c-0.5-0.3-0.9-0.9-1.3-1.4
		c0.2-1.6,3.1,0,2.6-2.2c-0.5-2.2-2.4-1.4-3.7-1.5c-19.5-2.2-39-4.3-58.4-6.4c-17.5-1.9-35-3.8-52.5-5.7
		c-20.6-2.2-41.2-4.5-62.3-6.8c3.5-1.3,6.9-0.5,9.7-2.5c1.1-0.8,1.5,0.4,2.1,0.9c2.4,2,5.3,2,8.1,2.4
		C291,466.8,291.8,465.1,293.1,464.1z"/>
	<path fill="#FEBFE5" d="M204.9,460.8c-6.9,6.3-8.5,13.1-6.1,20.8c0.8,2.5,1.7,5.2,3.4,7c4.9,5.4,2.7,11.8,3.2,17.8
		c0.1,0.6-0.1,1.3-0.9,1.4c-1.3,0.2-2.6,0-3.4-1.1c-2.8-4.2-6.1-3.7-10.1-1.8c-4.2,2-5.8,0.9-6.4-3.8c-0.8-6.7,0.3-13.2,1.7-19.7
		c1.4-6.6,3-13.1,4.5-19.6c0.3-1.2,0.4-2.5,2.3-2.2C196.7,459.8,200.3,460.2,204.9,460.8z"/>
	<path fill="#FEFEFE" d="M346.8,441.5c0,4.5-0.1,9,0,13.5c0,1.9-0.1,2.9-2.6,2.7c-5.5-0.6-11-0.9-16.4-1.3c-1.2-0.1-2.2-0.1-2.2-1.8
		c0.3-8.7-0.6-17.5,0.6-26.2c0.4-3.3,2.1-4.4,5.1-3.9c4.4,0.7,8.8,1.7,13.4,0.9c2-0.4,1.8,1.1,1.8,2.3c0,4.6,0,9.3,0,13.9
		C346.6,441.5,346.7,441.5,346.8,441.5z"/>
	<path fill="#FDBFE5" d="M260.3,519.8c0,4.2,0.1,8.5,0,12.7c0,1.4,0.8,3.5-1.8,3.7c-2.6,0.2-5.5,0.3-6.7-2.7
		c-2.4-5.7-2.3-5.8-8.1-3.3c-6.2,2.6-9.2,0.5-8.9-6.3c0.2-5.4,1.8-10.5,2.8-15.8c0.3-1.6,1.2-1.9,2.6-2.1c6.1-0.7,12.1-1.4,18.2-2.3
		c2.3-0.4,1.8,1,1.8,2.1c0,4.6,0,9.2,0,13.9C260.2,519.8,260.2,519.8,260.3,519.8z"/>
	<path fill="#878787" d="M416.1,417.3c4.3,0.7,7.2,2.6,9.6,5.1c14.7,14.6,25.7,31.8,35.2,50c2.7,5.2,3,11.1,1.2,16.8
		c-1.5,4.7-4.4,6.3-9.7,5.6c6.1-11.6,0.2-21.6-4.8-31.3c-7.6-14.8-17.8-28-27.8-41.2C418.7,420.8,417.6,419.3,416.1,417.3z"/>
	<path fill="#FEBFE5" d="M357.1,561.5c0.5,6.7,0.8,13.3,1.4,19.9c0.2,1.8-0.6,2.7-2.1,3.5c-8,4.1-16.9,1-19.9-7.5
		c-1.1-3.2-2.4-3.1-4.8-1.7c-1.1,0.6-2.3,1-3.4,1.4c-2.6,0.9-5.4,1.9-7.7-0.3c-2.4-2.3-2.1-5.4-1.9-8.4c0.1-1.3,0.5-1.6,1.9-1.5
		c9,1,17.9,0.2,26.7-1.8C350.6,564.3,353.5,562.2,357.1,561.5z"/>
	<path fill="#878787" d="M288.1,563.7c4.3,0.7,6,2.8,7.2,6.6c1.2,3.9,3.8,7.4,4.9,11.5c1.4,5.2,4.4,10,3.7,15.9
		c-0.2,1.4-0.3,4.4,1.8,4.2c2.9-0.3-0.4-2.9,1.1-4.5c2,3.8,4.2,7.4,6,11.3c1.2,2.7-1.5,9.1-4.6,11.6c-2.9,2.4-6.5,2.5-10,0.3
		c-6.3-3.9-8.9-11.5-5.8-17c0.6-1.1,1.3-2.6,2.6-2.5c3.5,0.3,2.7-1.8,2.8-4c0.3-6.9-2.5-12.9-5.1-18.9
		C290.5,573.6,288.6,569,288.1,563.7z"/>
	<path fill="#FEFEFE" d="M322.6,441.1c-0.2,4-0.4,8-0.5,12c0,1.7-0.5,2.4-2.4,2.2c-7.8-0.7-15.7-1.3-23.5-1.9
		c-1.8-0.1-2.9-0.7-1.6-2.4c5.3-7.5,9.1-16.1,16.4-22.1c1.4-1.2,3-2.3,4.6-3.2c1.7-1,3.6-2.1,5.6-0.6c1.8,1.3,2,3.3,2,5.4
		c-0.1,3.6-0.4,7.2-0.6,10.8C322.5,441.1,322.5,441.1,322.6,441.1z"/>
	<path fill="#878787" d="M351,655.9c-0.1,5.8-6.7,12.5-13.8,13.9c-4,0.8-8.3,0.8-11-2.7c-3.4-4.4-3.7-9.6-2.3-14.9
		c0.3-1.2,1-2.3,1.6-3.4c1.3-2.3,2.2-4.4,5.4-1.3c3.4,3.3,9,3,12.7,0.1c1.4-1.1,2.2-1.1,3.4,0.1C349.5,650,351.1,652.5,351,655.9z"
		/>
	<path fill="#FDBFE4" d="M259.5,479c0,1.7,0,3.5,0,5.2c0,6.7,0,6.8-6.3,8.6c-3.5,1-7.1,1.4-10.6,2.4c-2.8,0.8-2.8-0.4-2.5-2.5
		c1.1-8.4,2.2-16.8,3.1-25.2c0.2-2.1,1.2-2.4,3-2.1c3.7,0.5,7.4,1.1,11.1,1.3c1.9,0.1,2.2,1,2.1,2.6
		C259.4,472.5,259.5,475.7,259.5,479z"/>
	<path fill="#FDFDFD" d="M439.7,477.9c-13.5,0.3-26.7-1.6-40.1-3.1c-3.2-0.3-5-3.4-4.6-7.8c0.3-3.6,3.1-2.6,5.2-2.5
		c11.7,0.6,23.3,2.4,34.9,4c1.7,0.2,3.5,0.6,5.2,0.6c5.2-0.2,4,3.4,3.8,6.3C443.9,477.9,443.9,477.9,439.7,477.9z"/>
	<path fill="#878787" d="M235.6,667.9c-7-0.2-10.6-3.5-12.9-8.2c-2.3-4.6-2.3-9.4,0.9-13.7c1.2-1.7,2.2-2.7,4.2-0.6
		c2.9,3,7.7,3.4,12,0.4c3.3-2.3,4.5-0.7,6,1.8c2.5,4.1,2.8,8.2,0.1,12.3C243.2,664.2,240,668,235.6,667.9z"/>
	<path fill="#FDFDFD" d="M362.1,461.8c-5-6.2-6.3-6.6-11.6-3.3c0-7.5,0-14.7,0-21.8c0-3,0.1-6,0-9c-0.1-1.6,0.4-2.2,2.1-2.2
		c4.5,0,9,0,13.5-0.1c2.1-0.1,2.4,0.6,1.9,2.7c-2.1,9.3-4,18.7-5.9,28.1C361.6,458,360.8,459.9,362.1,461.8z"/>
	<path fill="#F6FD8C" d="M311.8,528.2c-5.9-1.9-7.4-0.8-7.6,4.9c-0.1,2.8-0.5,5.7,0.1,8.6c0.3,1.2,0.4,2.1-1.4,2.2
		c-7.6,0.7-16.2-5.6-17.5-12.9c-0.2-1-0.3-2-0.1-3c0.6-4.9,5.7-8.9,12.6-9.9c5.5-0.9,10,1.3,12.1,5.8
		C310.5,525.1,311,526.3,311.8,528.2z"/>
	<path fill="#FDBEE4" d="M295.8,512.4c2.2,0.3,4.4,0.6,6.7,0.8c1.1,0.1,2.1,0.1,1.9,1.6c-0.2,1.6-1.2,1.2-2.2,1.1
		c-3.7-0.4-7.2,0.3-10.6,1.7c-11.5,5.1-10.6,16.1-3.6,22.7c3.2,3,7.1,4.5,11.3,5.3c4,0.7,4.3,1.1,3.1,5.9c-0.9,3.4-3.2,1.1-4.6,0.7
		c-7.3-2-13.9-5.4-18.9-11.3c-3.1-3.7-4.8-7.8-3.1-12.7c0.4-1.2,0.8-2.4,0.8-3.6c0.2-7.5,5.4-9.8,11.4-11.1
		C290.5,512.8,293.1,512.2,295.8,512.4z"/>
	<path fill="#FDFDFD" d="M257.7,449.8c6.1-10,11.9-19.1,20.8-25.7c1.6-1.2,3.4-2.5,5.4-1c2,1.4,1,3.3,0.4,5.1
		c-2.2,7.1-4.5,14.3-6.6,21.4c-0.5,1.7-0.7,2.7-2.8,1.3c-2.4-1.6-5.3-1-8-1C264,449.8,261.3,449.8,257.7,449.8z"/>
	<path fill="#FDFDFD" d="M287.3,452.4c-6.9-0.4-7-0.5-4.8-6.6c2-5.7,4.3-11.4,5.2-17.4c0.2-1.6,1-3,2.8-2.8
		c4.9,0.5,9.7-0.2,14.5-0.4c2.7-0.1,3.3,0.7,1.7,3.2c-4.5,7.3-10.4,13.6-14.3,21.4C291.3,451.9,289.6,453.1,287.3,452.4z"/>
	<path fill="#FDFDFD" d="M254.7,450.7c-2.9-2.1-6-2.2-9-2.3c-1.3,0-2.5,0.1-1.9-2c1.6-6.1,2.8-12.3,5.3-18.2c0.9-2,1.9-3,4.2-2.5
		c3.9,0.8,7.7-0.7,11.5-0.6c1.2,0,2.8-0.4,3.4,0.8c0.6,1.1-0.7,2-1.3,2.9c-3.9,6.1-7.8,12.1-11.7,18.2
		C254.6,448.1,253.1,449,254.7,450.7z"/>
	<path fill="#FDBEE4" d="M354.2,496.3c-7.2-5.2-14.3-8.4-21.9-10.6c-1.7-0.5-2-1.3-1.8-3c0.9-7.7,0.8-7.7,8.4-7
		c4,0.4,7.9,0.9,11.9,1.3c1.3,0.1,2.4,0.3,2.4,2.1C353.5,484.6,353.8,490,354.2,496.3z"/>
	<path fill="#FDFDFD" d="M237.1,447.9c-2.7-2.1-5.9-1.7-9-1.7c-2.6,0-5.1,0-8.6,0c7-8.1,13.4-15.5,21.9-20.7
		c0.4-0.3,0.9-0.5,1.4-0.6c1.2-0.5,2.4-1,3.5,0c1,1,0.1,2.1-0.3,3.1c-2.4,6.7-4.9,13.3-7.4,20C238.1,448.3,237.6,448.3,237.1,447.9z
		"/>
	<path fill="#868686" d="M132.7,446.6c-0.2-2.3,0.9-5.1,0-7.8c-0.3-1,0.4-1.1,0.8-1.2c8.3-3.5,14.1-10.2,20.3-16.2
		c0.8-0.8,1.4-2.4,2.9-1.8c1.3,0.5,1.5,1.9,1.9,3.1c0.6,1.9-1.2,1.9-2.2,2.5c-5.1,2.9-9.9,6.3-14.2,10.3c-3.4,3.2-4.1,7.2-1.4,12.5
		c1.1,2.1,0.4,5.6,4,6.4c0.6,0.1-0.3,1.2-0.7,1.7c-1.7,1.8-3.6,3.5-5.2,5.4c-2.4,2.8-3.4,1.5-4.4-1.1
		C133.3,456.7,132.6,452.3,132.7,446.6z"/>
	<path fill="#FDFDFD" d="M234.8,425.5c-6.5,6.9-12.4,13.1-18.3,19.3c-0.7,0.7-8.4,0.5-8.9-0.3c-0.3-0.4-0.3-1.2-0.1-1.7
		c0.7-2.3,1.4-4.5,2.3-6.7c2.7-6.2,7.1-10,14.2-10.3C227.3,425.7,230.5,425.4,234.8,425.5z"/>
	<path fill="#FCFCFC" d="M322.5,461.1c-0.1,0.7-0.1,0.9-0.1,1.2c-0.3,3-0.4,5.4-5,4.5c-5.4-1.1-11.2-0.6-16.8-1.1
		c-4.9-0.4-7.2-3.4-7.2-8.3c0-1.9,0.6-2.4,2.4-2.2c7.8,0.8,15.6,1.6,23.5,2.2C322.2,457.6,322.8,459.1,322.5,461.1z"/>
	<path fill="#F6FD8C" d="M218.5,462.2c2.6,0.3,4.5,0.6,6.5,0.8c7.1,0.6,12,6.5,11.5,13.6c-0.3,4.1-3.1,6.2-7.1,5.5
		c-8.5-1.6-11.7-6.4-9.9-15.4C219.8,465,219.6,463.8,218.5,462.2z"/>
	<path fill="#FDFDFD" d="M392.3,469.8c1.1,3.4-0.9,4.1-4.2,3.8c-7.1-0.7-14.1-1.4-21.2-1.7c-2.8-0.1-3.2-1.3-3-3.7
		c0.6-7.7-0.8-6.4,6.9-5.8c5.7,0.4,11.4,1.3,17.1,1.9C392.1,464.9,392.1,464.8,392.3,469.8z"/>
	<path fill="#FCFCFC" d="M201.9,444.8c-4.3-2.9-9.3-0.8-14-2c0.1-0.4,0.1-0.8,0.3-1c5.3-5.4,10.9-10.6,17.2-14.8
		c1.1-0.8,2.4-1.2,3.7-1.8c0.9-0.4,2-0.7,2.8,0c1.1,0.9-0.1,1.8-0.5,2.6c-2.7,5.5-5.5,10.9-8.2,16.4
		C203,444.6,202.7,445.3,201.9,444.8z"/>
	<path fill="#FCFCFC" d="M323.6,515.3c-4.6-4.7-9.3-8-15-10c-2-0.7-0.4-3.1-0.6-4.7c-0.3-3.5,1.3-4.2,4.6-3.9
		c4,0.4,7.8,1.2,11.7,1.9c1.2,0.2,1.9,0.5,1.6,2.2C325,505.4,324.4,510,323.6,515.3z"/>
	<path fill="#FCBEE4" d="M306.1,475.8c0,0.6,0,0.7,0,0.8c-0.3,5.6-0.3,5.5-6,5.8c-3.6,0.2-7.2,0.4-10.7,1.1
		c-2.7,0.5-2.6-0.4-2.1-2.4c0.9-3.5,0.6-8.1,2.8-10.1c2.1-2,6.6,0.4,10.1,0.4c0.7,0,1.5,0.3,2.2,0.3
		C305.6,471.5,307.4,472.6,306.1,475.8z"/>
	<path fill="#FDFDFD" d="M340.5,468.9c-4-0.3-7.9-0.8-11.9-1c-2.4-0.1-3.5-0.9-3.3-3.5c0.5-7.5-1.3-6.3,6.7-5.6
		c3.6,0.3,7.2,0.9,10.8,1.2c4,0.4,4.4,1.1,4.1,6.8c-0.2,3.4-2.7,2.1-4.4,2.3C341.8,469.1,341.1,468.9,340.5,468.9
		C340.5,468.9,340.5,468.9,340.5,468.9z"/>
	<path fill="#FCFCFC" d="M201.3,426.4c-5.7,5.3-11.4,10.8-17.3,16c-1.8,1.6-4.1,0.1-5.8-0.5c-1.3-0.4-0.2-2.2,0.2-3.3
		c1.7-4.4,5-7.7,8-11.2c1.3-1.5,4-1.1,6.1-1.3c2.8-0.2,5.7-0.3,8.5-0.5C201.1,425.8,201.2,426.1,201.3,426.4z"/>
	<path fill="#FCFCFC" d="M312.4,472.7c5.2,0.6,10.1,1.2,14.9,1.6c1.9,0.2,2.2,0.9,2,2.6c-0.9,7.6-0.8,7.6-8.5,6.4
		c-2.8-0.4-5.7-1-8.6-0.8c-3.4,0.2-3.7-1.3-3.2-3.9c0.2-0.9,0.2-1.8,0.2-2.6C309,473.2,309.7,471.7,312.4,472.7z"/>
	<path fill="#FBFBFB" d="M264.7,451.9c1.9,0,3.7-0.1,5.6,0c2.2,0.2,4.3,0.6,5.2,3.3c1.9,5.5,1,7.1-4.8,7.4c-3.2,0.2-6.4,0-9.5-1.2
		c-2-0.8-3.4-2.1-4.1-4c-1.5-3.9-0.2-5.7,3.9-5.7c1.2,0,2.5,0,3.7,0C264.7,451.8,264.7,451.8,264.7,451.9z"/>
	<path fill="#878787" d="M131.2,440.7c-1.2,8-1.4,15.8,2.4,23.2c0.3,0.6,0.8,1.5-0.2,1.9c-1.3,0.5-2.8,0.8-3.9-0.1
		c-1-0.8-1.9-2-2.5-3.2c-3.3-6.6-4-13.6-3.3-20.8c0.1-1,0-2.4,1.6-2.6c1.9-0.2,3.9-0.5,5.8-0.3C131.7,438.8,131.2,440.1,131.2,440.7
		z"/>
	<path fill="#FCFCFC" d="M225.2,448.1c1.4,0,2.7,0,4.1,0c6.3,0.2,8.1,2,8.8,8.1c0.2,1.6-0.1,2.3-1.8,2.4c-5.4,0.2-10.6-0.8-15.9-1.5
		c-1.4-0.2-1.4-1.2-1.4-2.2c-0.1-1.1,0-2.3-0.2-3.3c-0.6-3,0.4-4.2,3.4-3.6c1,0.2,2,0,3,0C225.2,448,225.2,448.1,225.2,448.1z"/>
	<path fill="#868686" d="M141.1,421.6c3.7-2.9,7.9-4.3,12.8-3.8c-7.2,7.2-13.4,15.7-24.2,18.2c-1.1,0.3-2.7,1.3-3.4,0
		c-0.7-1.4,1-2.3,1.8-3.3c0.2-0.3,0.6-0.4,0.9-0.5C133,428.6,137.2,425.2,141.1,421.6z"/>
	<path fill="#868686" d="M265.8,467.5c6.8,0.7,13.4,1.5,20.1,2.2c0.4,0,0.9,0.1,1,0.3c0.9,2.2-0.5,4-0.9,6c-0.2,1.1-0.1,2.5-1.9,2.7
		C278.5,479.7,268.2,473.6,265.8,467.5z"/>
	<path fill="#FCFCFC" d="M191.5,444.9c2.1,0.2,4.3,0.5,6.5,0.7c1.8,0.2,3.1,1.1,3.6,2.8c0.7,2.2,2,4.9,0.5,6.7
		c-1.5,1.8-4.3,1-6.7,0.6c-3.1-0.5-5.7-1.4-7.7-3.9c-1.5-1.9-2.4-4.2-1.4-6.2C187.3,443.8,189.7,445.4,191.5,444.9z"/>
	<path fill="#FCBDE3" d="M213.8,500.9c3.7,2,7.3,3.4,10.7,5c2.8,1.3,1.5,4.8,0.8,7c-0.7,2.2-2,5-4.9,5.1c-2.9,0.1-4.2-2.4-5.1-4.7
		C213.8,509.4,213.3,505.4,213.8,500.9z"/>
	<path fill="#F9BCE1" d="M281.9,504.6c-0.4-3.8,0.9-5.9,4.8-6.2c5.4-0.5,10.8-1.5,16.3-1.7c2.4-0.1,2.6,1.4,2,2.8
		c-0.7,1.5,1.5,5.1-2.5,4.4c-3.5-0.6-6.9-0.7-10.4-0.7C288.7,503.1,285.3,503.7,281.9,504.6z"/>
	<path fill="#F8F8F8" d="M262.7,467.8c2.5,3.5,5.3,5.7,7.2,8.4c2.2,3.1,0,7.1,0,10.8c0,0.3-0.6,0.8-1,0.9c-1.9,0.6-4,1.9-5.6,1.4
		c-1.4-0.5-0.5-3.1-0.6-4.7C262.7,479.2,262.7,474,262.7,467.8z"/>
	<path fill="#FABCE2" d="M216.7,475.7c0.8,2.6,2.4,4.6,4.7,6c1.2,0.8,3.3,0.7,3.5,2.4c0.4,3.2,0.5,6.4,0.6,9.7c0,1.1-1,0.8-1.7,0.6
		c-3.1-1-5.9-2.6-8.3-4.8c-1.1-1-0.8-2-0.7-3.1c0.2-3.6,0.5-7.2,0.7-10.8C215.9,475.2,216.3,475.2,216.7,475.7z"/>
	<path fill="#FAFAFA" d="M320,542.7c-0.6,3.6-1.2,6.8-1.5,10c-0.2,2-1.3,2.4-3,2.3c-2.1-0.2-4.2-0.3-6.3-0.7
		c-1.3-0.3-3.8,1.1-3.6-1.7c0.1-2-0.9-4.7,2.5-5.7c1.9-0.6,3.8-1.5,5.8-2.1C315.8,544.3,317.6,543.6,320,542.7z"/>
	<path fill="#FAFAFA" d="M143.3,438.2c5.4-7.3,18.3-14.7,23.8-13.4C160,431.2,154.6,439.4,143.3,438.2z"/>
	<path fill="#FBFBFB" d="M238.7,484.1c-0.3,2.2-0.5,4.4-0.8,6.7c-0.8,5.4-2.3,6.8-7.4,4.9c-4-1.5-0.8-5.9-1.7-8.9
		c-0.4-1.5,0.3-2.2,2-2.1c2.8,0.2,5-1.1,6.8-3.2C239.8,481.6,238.8,483,238.7,484.1z"/>
	<path fill="#FAFAFA" d="M253.5,457.5c0.4,1.9-0.1,3.1-2.7,2.5c-0.5-0.1-1,0-1.5,0c-8.4,0.6-8.6,0.3-6.9-7.9c0.2-0.8,0.2-1.6,1.3-2
		C249,448.8,253.4,451.9,253.5,457.5z"/>
	<path fill="#F8F8F8" d="M172.6,441.9c-2.1-0.3-4.1-1.2-6.3-0.8c2.1-5.8,13.2-15.8,19.1-16.5c-6.4,4.6-8.1,11.4-12.1,16.6
		C173.1,441.4,173,441.8,172.6,441.9z"/>
	<path fill="#F8F8F8" d="M356.9,470.9c-7-0.7-7.3,0.2-5.6-7.5c0.2-1,0.6-1.9,1-2.8c1.3-2.5,3.1-2.7,5-0.7c2.4,2.6,3,6,3.1,9.3
		C360.5,471.9,358,470.4,356.9,470.9z"/>
	<path fill="#F7F7F7" d="M157.2,439.1c3.9-6,7.9-10.5,13.5-13.7c1.3-0.7,2.6-1.4,4.2-1.4c1.2,0,2.2,0.6,1,1.8
		c-4.8,4.8-9.1,10.2-15.7,12.8C159.5,438.9,158.7,438.9,157.2,439.1z"/>
	<path fill="#F6F6F6" d="M264.2,523.5c-0.3-6.4-0.7-12.6-0.8-18.8c-0.1-3.6,3.2-2.3,5-2.7c2.3-0.5,1.1,1.7,1.1,2.6
		c0,4.5-0.3,8.9-3.3,12.7C264.9,519,265.9,521.6,264.2,523.5z"/>
	<path fill="#F8F8F8" d="M152.8,439.8c-3.8,1.5-1.5,4.6-1.9,6.9c-0.2,1.6,1.9,3.8-1.2,4.5c-2.6,0.6-5,0.3-6.1-2.8
		c-0.1-0.4-0.3-0.7-0.4-1c-2.3-5.9-2.2-6.1,3.9-6.8C149,440.4,150.9,440.1,152.8,439.8z"/>
	<path fill="#FAFAFA" d="M207.9,456.8c-0.9-1.4-1-3.1-1-4.7c0-1.8-1.7-4.6,1.3-5.2c4.8-0.9,6.9,0.8,6.9,5.1c0,1.9,1.3,4.2-1.2,5.7
		C211.7,458.8,209.8,458.1,207.9,456.8z"/>
	<path fill="#F7F7F7" d="M315.2,531.6c-2-5.5-3-10.5-7.1-13.7c-1.2-0.9-1-2-0.5-3c0.6-1.1,1.6-0.3,2.3-0.1c0.7,0.1,1.4,0.5,2.1,0.8
		c6.1,2.4,6.6,3.4,4.9,9.7C316.5,527.1,316,528.8,315.2,531.6z"/>
	<path fill="#F9F9F9" d="M172.5,449.7c0.6,2.1-0.5,3.1-2.9,3.1c-3.8,0.1-6.8-2.2-6.5-5.5c0.2-1.8-0.1-4.5,3.1-4.5
		C171.1,442.8,172.5,444.3,172.5,449.7z"/>
	<path fill="#E8EE83" d="M275.4,510.2c11.2-7.6,31.2-5.3,37,0.3c-12.5-3.7-24.4-3.6-36.1,0.6C275.5,511.3,275.3,510.9,275.4,510.2z"
		/>
	<path fill="#F4F4F4" d="M289.1,460c-0.1,1.1,1.3,3.4-0.6,3.6c-2.8,0.2-5.8-0.3-7.6-3c-0.8-1.2-1.1-2.7-1.1-4.3
		c0-1.8,0.6-2.6,2.5-1.9c0.6,0.2,1.2,0.3,1.8,0.3C288,454.3,290.3,455.5,289.1,460z"/>
	<path fill="#EAF084" d="M324.8,523.7c3,9-1.8,16.7-12.4,19.1c0.9-2.6,2-4.6,4.5-6c5-2.9,7.7-7.3,7.3-13.2
		C324.4,523.3,324.6,523.3,324.8,523.7z"/>
	<path fill="#EFEFEF" d="M214,468.1c-0.6,6.2-1.1,11.7-1.6,17.4C206.2,480.6,206.7,473.4,214,468.1z"/>
	<path fill="#F8F8F8" d="M183.3,450.6c-0.4,1.3,1.2,3.9-2,4c-2.8,0.1-4.4-2.1-4.2-6.6c0.1-1.3-1.6-3.8,1.5-3.9
		C182.3,444,183.3,445.4,183.3,450.6z"/>
	<path fill="#E4E4E3" d="M238.7,484.1c-0.3-0.9,0-2-1.1-2.6c3-6.2,1-11.7-3-17.3c1.1,0,1.7,0,2.2,0c5.1,0.4,5.1,0.4,4.2,5.6
		C240.2,474.6,239.5,479.4,238.7,484.1z"/>
	<path fill="#F4F4F4" d="M159.8,447.9c-0.3,1.6,1.1,3.8-1.6,3.9c-2.4,0.1-3.6-1.2-3.5-3.7c0.1-1.5,0.3-2.9,0.7-4.4
		c0.4-1.5,1.3-2,2.7-2.1c2-0.1,1,1.6,1.3,2.4C159.7,445.3,159.7,446.7,159.8,447.9z"/>
	<path fill="#808080" d="M271.6,509.6c0-2.3,0.1-3.9,0-5.4c-0.2-2.1,0.5-3.3,2.7-3.5c1-0.1,2.7-0.9,2.9,0.4c0.4,1.9,1.2,4.3-0.9,5.8
		C275.1,507.9,273.6,508.5,271.6,509.6z"/>
	<path fill="#7E7E7E" d="M272.3,482.5c0.9-1.3-1-4,1.4-3.8c1.9,0.1,4.6,0.6,4.7,4.1c0,3.6-2.5,3.6-4.5,3.6
		C270.9,486.3,273.4,483.6,272.3,482.5z"/>
	<path fill="#E6ED85" d="M312.2,532.1c1.6,0.2,2.5,0.7,1.5,2.6c-1.3,2.7-3.9,2.2-6.1,2.7c-0.9,0.2-1.5-0.2-1.5-1.1
		c0-2.3-0.7-5,1-6.8c1.1-1.2,2.3,0.5,3.3,1.4c-0.3,1.4-1.9,0.7-2.6,1.6c-0.4,0.1,0.5,0.4,0.1,0.1c1.1-1,2.3-0.6,3.4-0.4
		C311.8,532.2,312,532.2,312.2,532.1z"/>
	<path fill="#EDB2D6" d="M271.6,545.8c2.8,2.2,5,4.1,7.2,5.7c2,1.4,1.1,2-0.5,2.5c-3.2,1.1-5.6-0.2-6.4-3.7
		C271.6,549.1,271.7,547.7,271.6,545.8z"/>
	<path fill="#414141" d="M241.1,462.9c-8.2-0.9-16.4-1.8-24.5-2.7c0.1-0.5,0.1-0.9,0.2-1.4c8.1,1.4,16.4,1.8,24.6,2.4
		C241.2,461.8,241.2,462.3,241.1,462.9z"/>
	<path fill="#E1A9CA" d="M298.6,562.3c-5.7,1.9-9.7,0.1-13.1-6C290.2,558.4,294.2,560.3,298.6,562.3z"/>
	<path fill="#CDD374" d="M200.3,470.3c2.1-6.4,5.3-8.5,13.4-8.4c-5.7,1.5-10.4,4.1-12.6,9.9C199.6,471.9,200,471.1,200.3,470.3z"/>
	<path fill="#D8DD88" d="M316.3,534.2c1.4-4.5,2.5-8.2,3.7-12C323.2,524.9,321.9,530,316.3,534.2z"/>
	<path fill="#A9AD5E" d="M229,504.3c-6-0.1-11-2.5-15.5-6.4C218.7,500,223.8,502.2,229,504.3z"/>
	<path fill="#626262" d="M247.7,462.6c5,0.6,10.4-2.2,15.1,2.6c-5.3-0.6-10.3-1.1-15.2-1.7C247.7,463.2,247.7,462.9,247.7,462.6z"/>
	<path fill="#BFC46B" d="M331.7,563.5c1.9,1.3,4.1,0.1,6.1,0.7c-6.8,1.1-13.6,1-20.3-0.2c0.3-1.8,1.4-0.8,2.3-0.8
		C323.7,563.4,327.7,563.4,331.7,563.5z"/>
	<path fill="#DCDCDC" d="M141.1,421.6c0.3,2.3-2.1,2.5-3.1,3.5c-2.7,2.6-5.2,5.6-8.9,7C132.4,427.9,136.5,424.5,141.1,421.6z"/>
	<path fill="#838748" d="M319.7,563.3c-0.8,0.3-1.7-0.1-2.3,0.8c-3.7-0.4-7.6-0.4-10.9-2.8C310.9,561.9,315.3,562.6,319.7,563.3z"/>
	<path fill="#C9CE71" d="M311.1,539.8c-0.9,1.8-1,4.4-3.7,4c-1.3-0.2-1.3-1.7-1-2.4C307.1,539,309.4,540.3,311.1,539.8z"/>
	<path fill="#B98AA6" d="M216.7,475.7c-0.4,0-0.8,0-1.3,0c-0.2-2.9-0.2-5.9,1.3-8.8C216.7,469.8,216.7,472.7,216.7,475.7z"/>
	<path fill="#686B38" d="M284.3,512.3c-0.2-0.7-0.9-0.5-1.4-0.7c2.6-1.4,5.3-1.5,9.1-1.4C289,511.8,286.5,511.7,284.3,512.3z"/>
	<path fill="#F2F2F2" d="M283.4,482.9c0,1.3-0.8,1.7-1.9,1.8c-1.6,0.1-1.1-1-1-1.7c0.1-0.9-0.1-2.1,1.5-1.8
		C283.1,481.3,283.5,481.9,283.4,482.9z"/>
	<path fill="#A3A75A" d="M275.4,510.2c0.3,0.3,0.6,0.6,0.9,0.9c-1.9,1.3-3.7,2.6-5.6,3.9C271.7,512.7,273.3,511.2,275.4,510.2z"/>
	<path fill="#7A7A7A" d="M207.9,456.8c2,0.3,4,0.6,6,1C211.5,460.1,209.5,459.8,207.9,456.8z"/>
	<path fill="#A0A0A0" d="M237.1,447.9c0.5,0,1,0,1.5,0c1.7,0.9,3.2,1.8,1.3,4.2C238.9,450.6,238,449.2,237.1,447.9z"/>
	<path fill="#616161" d="M184.7,456.4c1.8-2.3,2.9-1.6,4.3,0.2C187.5,457.1,186.3,457,184.7,456.4z"/>
	<path fill="#646464" d="M172.6,441.9c0.3-0.2,0.5-0.5,0.8-0.7c0,1.3,2.8,0.5,1.7,2.5c-0.2,0.4-0.1,1.2-0.8,0.9
		C173.3,444.1,172.7,443.1,172.6,441.9z"/>
	<path fill="#8E9051" d="M200.3,470.3c0.1,0.6,0,1.3,0.8,1.6c-0.3,1.5-0.6,3.1-1,4.6C199.7,474.3,198.8,472.2,200.3,470.3z"/>
	<path fill="#7F8245" d="M256,501.2c0.5,0.3,1,0.5,1.5,0.8c-1.8,1.1-3.8,0.7-5.8,0.2C253.1,501.9,254.5,501.6,256,501.2z"/>
	<path fill="#505050" d="M203.5,457.1c1.8-0.3,2.3,0.2,2.4,1c0.1,0.8-0.5,1-1.2,0.9c-0.8,0-1.6-0.2-1.7-1
		C203.1,457.5,203.6,456.9,203.5,457.1z"/>
	<path fill="#8F8F8F" d="M201.9,444.8c0.5-0.2,0.9-0.5,1.4-0.7c0.1,0.2,0.2,0.5,0.3,0.6c0.7,0.8,2.1,1.7,0.8,2.6
		c-1.1,0.8-1.2-1.2-1.9-1.7C202.3,445.5,202.1,445.1,201.9,444.8z"/>
	<path fill="#F9F9F9" d="M312.2,532.1c-1.5,1-3.2,0.4-4.9,0.5c0.9-1.5,2.2-1.4,3.3-1.7C311.1,531.3,311.7,531.7,312.2,532.1z"/>
	<path fill="#6A6D39" d="M324.8,523.7c-0.2,0-0.4-0.1-0.7-0.1c-0.6-1.3-1.1-2.5-1.7-3.8C324.4,520.6,325,522,324.8,523.7z"/>
	<path fill="#5D5D5D" d="M172.8,455.1c1.1-1.1,1.8-1.8,2.9-1.3c0.2,0.1,0.5,0.7,0.4,0.9C175.4,456,174.2,455.3,172.8,455.1z"/>
	<path fill="#2600F6" d="M153.1,166.7c-5.9-0.2-11.5-1.3-17.1-3.1c-0.9-0.3-2.4-1.3-3,0.2c-0.7,1.8,1.3,1.5,2.1,1.8
		c14,4.7,28.1,5.1,42.4,0.7c8.3-2.6,15.9-6.9,24.2-9.4c2-0.6,3.1-2.4,3.8-4.4c1-2.5,1.9-5.1,3-8.1c1.6,3.2,0,6-0.2,8.7
		c-0.3,3.1-1.4,6-1.8,9.1c-0.7,5.4-4.2,8.3-8.8,10c-8.5,3.2-17,6.2-25.7,9c-14.9,4.7-28.8,2.4-41.4-6.8c5.3,1.5,10.5,3.7,16,4.5
		c1,0.2,2.4,1.1,2.7-0.7c0.2-1.4-1.2-1.2-2.1-1.4c-7.9-1.9-15.2-5.1-22.5-8.7c-6.8-3.4-10.2-9.6-14.2-15.4c-2.1-3-5.1-6.5-5.1-9.8
		c-0.1-6.8-4.1-11.9-6.4-17.7C92.5,108.4,88.5,91,86.4,73c-0.8-6.9-2.4-13.6-2.3-20.6c0-3.6,1.5-5.7,4.8-7.1
		c19.4-8.4,39.7-14.4,59.7-21.1c3.1-1,6.3-1.7,9.3-2.9c2.4-1,3.5-0.6,4,2c1.1,4.9,2.5,9.7,3.8,14.5c3.2,12.4,12.7,18.9,23.2,24.4
		c1.6,0.8,3.4,0.3,5.1-0.4c5.5-2.3,11-4.6,16.6-6.9c8.7-3.5,17.7-5.4,27.1-4.4c4.9,0.5,9.3,2.7,13.2,5.7c1.8,1.3,1,2.9,0.5,4.4
		C248,71.3,240.2,77.4,230,81c-6.7,2.4-13.8,3.5-20.8,4.5c-1.1,0.2-2.2,0.3-3.3,0.5c-0.7,0.1-1.2,0.5-1.1,1.2c0.1,0.7,0.6,1.1,1.3,1
		c14.1-1.8,28.4-3.2,39.8-13.3c4.4-3.9,7.1-8.9,9-14.6c2,1.8,3.8,3.3,4.1,5.9c0.8,3.2,0.4,6.3-0.7,9.4c-4.5,10.6-12.6,17-23.5,20.4
		c-12.2,3.9-24.5,5.8-37.8,3.3c9.4-0.2,18.1-1.7,26.8-3.2c1.1-0.2,2.8,0.1,2.7-1.8c-0.2-2.2-1.9-1.5-3.1-1.3
		c-9.1,1.6-18.1,3.4-27.5,3.1c-11-0.3-19.9-4.5-27-13.1c-3.8-4.6-6.9-9.6-10.7-14.1c4.9,2.7,10.1,4.9,13.7,9.4
		c0.5,0.6,1,1.7,2.1,0.8c1-0.8,0.2-1.6-0.3-2.3c-2.6-3.5-6.1-5.9-9.9-7.8c-3-1.5-5-3.7-5.8-6.9c-0.6-2.2-1.6-2.9-4.1-2.3
		c-12,3.1-23.7,6.8-35.5,10.4c-2.4,0.7-3.6,2.2-3.1,4.7c2.3,11.2,4.3,22.6,8.8,33.2c1.5,3.6,3.4,6.9,5.5,10.2
		c1.6,2.6,3.6,3.3,6.6,2.7c7.3-1.4,14.4-4,21.8-4.9c3.5-0.4,7-0.6,10.5,0.1c13.6,1.3,25.9,5.3,35.5,15.7c2.8,3.1,3.6,6,2.6,10.4
		c-2,8.3-6.4,12.7-14.6,15.6c-9.9,3.6-19.5,7.9-30.2,8.6C158.6,167.1,155.9,167.1,153.1,166.7z"/>
	<path fill="#2600F6" d="M118.4,75.8c-0.6-2.4,0.5-2.7,1.6-3c10.6-3.2,21.2-6.4,31.8-9.6c0.8-0.2,2.5-1.6,2.5,0.5
		c0,2,2.5,4.8-0.6,5.9c-10.9,3.6-21.9,6.9-32.8,10.3c-1.2,0.4-1.9,0.1-2.1-1.2C118.6,77.5,118.5,76.2,118.4,75.8z"/>
	<path fill="#14009B" d="M168.1,116.4c-3.5,0-7-0.1-10.5-0.1C161.1,115.3,164.6,115.2,168.1,116.4z"/>
	<path fill="#CECECE" d="M258.1,75.6c0.2-3.1,0.5-6.2,0.7-9.4C260.3,69.5,260,72.6,258.1,75.6z"/>
	<path fill="#0D007A" d="M153.1,166.7c2.7,0,5.5,0,8.2,0C158.6,167.7,155.9,167.7,153.1,166.7z"/>
	<path fill="#FD005E" d="M289.6,138.3c-3.1,8.9,3,22.1,13.5,29.4c-1.5,0.7-3.9-2-4.5,0.2c-0.5,2,2.6,1.5,3.9,2.4
		c0.8,0.5,1.9,0.6,1.8,2.2c-4.6,0-8.2-2.4-11.3-5.1c-9.5-8.1-16-18.1-18-30.6c-0.1-0.9-0.2-1.7-0.2-2.6c0-7.3,4.2-10.8,11.4-9.3
		c11.1,2.4,17.7,9.5,20.6,20.2c1.3,4.7,3.3,9.9,1.9,14.3c-1.8,5.6-0.5,11-1.5,16.9c-1-6.5-1.6-12.6-3.6-18.4
		c-2.2-6.3-5.5-11.7-11.6-14.9C290,141.8,291.5,139.5,289.6,138.3z"/>
	<path fill="#FD005E" d="M315.2,203.3c-0.1,2.6,1.1,2.6,3,1.5c6-3.6,10.1-8.6,9.7-15.9c-0.4-7-5.3-10.7-11.3-13.1
		c-0.1,0-0.3-0.1-0.3-0.1c-1.3-1-4.6,0-4-2.7c0.4-2.3,2.9-0.7,4.4-0.9c0.7-0.1,1.5,0.3,1.7-0.8c0.2-1.2-0.5-1.5-1.5-1.6
		c-1.5-0.1-3-0.2-4.5-0.7c1.2-1.1,2.5-0.7,3.8-0.8c1.5-0.1,3.3,0.9,4-1.5c0.1-0.2,0.9-0.4,1.3-0.4c9.2,1.3,18.6,6,20.1,16.5
		c0.3,2,0,3.6-1.1,5.6c-1.6,2.8-2.6,6-3.2,9.2c-0.8,4.3-3.6,7-6.6,9.7c-1.1,1-2.1,3.3-4.8,1.3c-0.9-0.7-4.2,1.5-6.2,2.7
		c-1.9,1.1-2.9,0.8-3.5-1.3c-0.7-2.5-2.1-4.8-1.8-7.6C315,202.3,315.3,202.6,315.2,203.3z"/>
	<path fill="#FB005E" d="M310.6,207.1c1.5,5.4,3.3,10.7,6.6,15.4c1,1.4,1.8,2.6,3.2,0.4c1-1.5,2-0.1,2.9,0c3.7,0.7,7.2,0.7,9.5-3
		c1.1-1.7,2-0.4,2.6,0.4c2,2.7,2.2,5.7,0.8,8.8c-1.4,3-4.1,3.8-6.9,3.2c-9.4-2-17.3-7.2-18.8-18c-0.3-2.4-2.1-4.6-1.3-7.2
		C309.7,206.7,310.1,206.7,310.6,207.1z"/>
	<path fill="#FCFCFC" d="M315.2,203.3c-0.3-0.3-0.6-0.7-0.9-1c-0.6-4-1-8.1-1.7-12.1c-0.4-2.6,0.5-2.9,2.6-1.8
		c0.9,0.5,2.1,0.7,2.6,1.5c2.1,3.3,3-1,4.7-0.8c0.7,0.1-0.1-2.1-1.1-2.9c-2.4-2-4.8-3.9-7.3-5.8c-1-0.8-2.5-1.5-1.7-2.8
		c0.8-1.3,2.2-0.2,3.3,0.2c5.4,2.2,9.6,5.4,10,11.7C326,195.3,322.1,200.3,315.2,203.3z"/>
	<path fill="#FA005D" d="M299.3,180.7c-3,2.3-4.1,5.5-4.5,9.1c-1.5,11.1,2.4,19.1,12.1,24.5c0.8,0.5,1.7,0.9,1.3,1.9
		c-0.5,1.2-1.8,0.7-2.6,0.5c-7.8-1.8-12.8-6.7-14.7-14.3c-1.9-8-0.9-15.6,5.8-21.5c0.6-0.5,1.2-0.9,2-0.8c0.2-0.1,0.4-0.2,0.5-0.2
		C299.5,180.1,299.4,180.4,299.3,180.7z"/>
	<path fill="#E70055" d="M306.7,211.3c-2.6-0.4-4.1-2.2-5.5-4.1c-4.6-6.5-6.1-13.5-3.4-21.2c0.8-2.3,2.2-3.9,4.5-4.7
		c1-0.3,2.4-0.8,2.9,0.7c0.3,1.2,0.9,2.8-0.9,3.5c-1.4,0.6-2.5,1.5-3.7,2.5c-5.1,4.2-1.7,8.8-0.6,13.1c0.8,3,2.5,5.7,5.6,7.1
		C306.9,208.8,307.4,209.8,306.7,211.3z"/>
	<path fill="#F8F8F8" d="M305.8,203.9c-4.6-2.9-6.9-9.7-4.5-13.3c0.8-1.3,1.9-2.7,3.5-2.4c1.5,0.3,0.7,2.1,0.8,3.2
		c0.3,4,0.4,8,0.5,11.9C306.1,203.5,305.9,203.7,305.8,203.9z"/>
	<path fill="#F4F4F4" d="M302.6,162.6c-5.7-5.1-9.1-10.5-11.1-17.4C297.2,148.1,300.9,153.7,302.6,162.6z"/>
	<path fill="#99063A" d="M310.6,207.1c-0.5,0-0.9,0-1.4,0c-0.6-4.9-2.1-9.7-0.8-14.9C309.1,197.2,309.8,202.2,310.6,207.1z"/>
	<path fill="#9B0037" d="M324.6,211.5c-1.6,1.9-3.5,3-6.6,3.4C319.8,212.2,322.5,212.4,324.6,211.5z"/>
	<path fill="#C60048" d="M317.1,187.1c-2.3-1.1-4.3-0.4-4.9-2.6c-0.1-0.4,0-1.2,0.6-1.1C314.6,183.5,315.7,184.7,317.1,187.1z"/>
	<path fill="#990036" d="M299.3,180.7c-0.2-0.2-0.4-0.4-0.6-0.6c1.6-1.9,3.8-1.3,5.9-1.2C302.6,179.2,301,180,299.3,180.7z"/>
	<path fill="#9FFEFE" d="M428.5,268.1c-5.2,10.5-9.7,21.3-16,31.2c-7.7,12.3-19.5,18.9-32.9,23.2c-3.1,1-5-1.5-7.7-1.7
		c-8.1-0.7-15.5-3.1-21.8-8.7c-5.6-4.9-7.5-11.2-7.4-18.1c0.4-19.1,18.8-37.8,41.4-34.4c4.7,0.7,8.5,3.7,12.2,6.4
		c5.9,4.5,7.7,4,12.3-2.2c7.1-9.6,13.6-19.7,20.5-29.5c8-11.3,16.1-22.6,25.9-32.4c1.8-1.8,3.8-3.6,6.2-4.7c2-1,3.2-0.4,3.3,1.8
		c0.9,10,6.2,18.1,11.1,26.3c1,1.7,2.4,2.5,4.4,2.9c10.4,2.1,19.6,0,27.3-8.1c0.7,2.4-0.3,3.9-1.1,5.3c-5.2,9-11.9,16.7-20.3,22.7
		c-3.7,2.7-7.3,1.9-11.8,0.7c-9.9-2.6-15.9-10-23.2-15.8c-1.8-1.4-2.6-1.5-3.9,0.5c-8.2,12.4-16.4,24.8-24.6,37.1
		c-0.4,0.6-1.6,1.4-0.6,2.2c1.3,1,1.6-0.6,2.1-1.2c1.2-1.6,2.3-3.2,3.4-4.9C428.3,266.9,428.8,267.1,428.5,268.1z"/>
	<path fill="#5E9999" d="M370,323.2c-5,1.3-12.8-1.2-15.9-5.2C359.7,320.4,364.5,322.8,370,323.2z"/>
	<path fill="#477676" d="M410.9,256.7c-1.4,3.8-3.3,7.2-6.4,9.7c-0.3-0.2-0.5-0.4-0.8-0.6C406,262.8,408.5,259.7,410.9,256.7z"/>
	<path fill="#84B6B6" d="M428.5,268.1c-0.4-0.4-0.7-0.8-1.1-1.1c1.5-2.3,3.1-4.7,4.6-7C431.4,262.9,430.4,265.7,428.5,268.1z"/>
	<path fill="#DF00FE" d="M182.3,303.8c-1.4,1.3,0,2.3,0.6,3.2c1.7,2.7,2.9,5.5,3.5,8.6c1.1,6.1-1.9,10.6-8,11.1
		c-7.1,0.7-13.3-1.8-18.4-6.6c-3.5-3.3-2.4-8.2-3.7-12.3c-0.2-0.8-0.2-1.7-0.3-2.6c-0.6-3.1-1.9-5-5.6-5.7
		c-11-2.2-21.9-1.9-32.8-0.2c-2.3,0.4-3,0-2.9-2.4c0.4-9.5,0.5-18.9,0.8-28.4c0-0.8-0.4-2.3,1.2-2.3c7.6-0.1,14.4-3.8,21.7-5.2
		c9.7-1.8,19.6-2.2,29.3-3.7c9-1.4,18-2.1,27-1.5c2.7,0.2,5.2,0.8,7.5,2.1c1.1,0.6,3.9,0.8,1.6,3.5c-0.7,0.8,1.1,2.3,1.9,3.4
		c6.3,8.7,4.9,20-3.2,26c-8.4,6.1-22.6,1.9-26.5-7.6c-1.7-4-2.5-7.8-1.3-12.2c1.3-4.7-0.4-6.5-5.7-6.7c-5-0.2-9.9,0.9-14.8,1.9
		c-3.9,0.8-7.7,1.6-11.8,1.3c-4.1-0.4-5.7,1.3-6,5.4c-0.4,5.5,0.8,10.9,1.5,16.4c0.2,1.6,1.5,2.7,3.1,2.9c5.7,0.5,11.2,1.8,17.2,1.1
		c9.2-1.1,17.8,1.5,24.1,9.2C182.8,302.9,182.8,303.3,182.3,303.8z"/>
	<path fill="#D100EE" d="M138.9,276.1c0-0.9,0-1.7,0-2.6c0-0.9,0.5-1.4,1.4-1.3c0.7,0,1.4,0.3,1.3,1c-0.3,4.8,2.7,9.1,1.6,14
		c-0.2,0.9,0.1,2.2-1.4,2.2c-1.5,0-1.4-1.2-1.5-2.1c-0.5-3.7-1.1-7.4-1.6-11.1C138.8,276.1,138.9,276.1,138.9,276.1z"/>
	<path fill="#A104B7" d="M208.6,264.4c6.2,5.2,6.8,15.3,1.2,21.9C213.1,278.1,212.4,271.1,208.6,264.4z"/>
	<path fill="#A600BD" d="M182.3,303.8c0-0.5,0-1,0-1.5c5.7,4.8,9.9,14.5,6.2,19C188.8,314.5,187,308.6,182.3,303.8z"/>
	<path fill="#B00DC6" d="M116.8,264c4.9-3.1,10.4-3.8,16-4.2C127.7,262,122.6,264.2,116.8,264z"/>
	<path fill="#B300CC" d="M173,268.6c-3.8-0.8-7.8-0.6-11.8-0.8C165.3,265.3,171.7,265.8,173,268.6z"/>
	<path fill="#580065" d="M191.8,296.4c-1.9,0.2-3.5-0.3-5.7-1.4C188.8,294.6,190.4,295.2,191.8,296.4z"/>
	<path fill="#FEDB00" d="M78.3,336.6c3,0,5.3,0.2,7.6,0.8c7.8,2.2,10.5,6.7,8.6,14.6c-0.3,1.2-1.4,2.3,0.5,3.5
		c1.7,1.1,2.5-0.2,3.4-0.9c6-4.8,5.2-15.9-1.3-19.9c-4.9-3-10.3-5-15.9-6.4c-1.2-0.3-3.2-0.5-3.1-2c0.1-1.3,1.8-1.8,3.1-2.3
		c11.3-4.1,28.1,3.7,31.4,14.4c0.5,1.6,0.5,3.2,0.5,4.8c0,2.7-0.4,5.3,3.1,6.7c2,0.8,0,1.8-0.6,2.4c-3.6,3.1-7.7,5.5-11.8,7.9
		c-11.4,6.5-23.5,11.6-35.5,16.8c-2.9,1.2-3.7,2.7-2.9,5.7c1.8,7.3,1.9,14.7-1,21.7c-3.3,8-8.9,13.6-17.7,14.9
		c-8.4,1.3-15.4-2.6-18.5-10.6c-4.6-11.8-2.9-22.4,5.9-29.2c6-4.5,13.1-7.1,20.5-8.8c6.3-1.4,12.7-2.8,18.6-5.5
		c3.3-1.5,6.4-3.4,8.9-6.1c4.2-4.6,3.8-9.4-1.2-13.1c-2.7-1.9-5.8-2.9-8.8-4c-1.5-0.6-4-1.2-3.7-3.1c0.2-1.7,2.7-1.2,4.2-1.6
		C74.6,336.7,76.8,336.8,78.3,336.6z"/>
	<path fill="#FAD700" d="M37.6,421.3c10.8,1.9,19.3-1.6,25.6-10.6c6-8.6,6-18.2,4.3-28c1.1-0.1,1.8,0,2.2,0.9
		c5.6,12-0.7,32.9-9.3,37.4C52.7,425,45.3,424.9,37.6,421.3z"/>
	<path fill="#EFCE00" d="M119.5,352.4c0,4-2.6,6-5.3,7.3c-14,6.8-28.1,13.4-41.7,21c-1.9,1.1-3.3,0.2-5.4-1
		C85,371.3,103.7,365.1,119.5,352.4z"/>
	<path fill="#FEAB79" d="M410.4,132.8c-6.2-1.1-8.9-6.1-11.7-10.7c-5.7-9.4-7.2-20-8.6-30.7c-0.3-2.6,2.3-4,1.9-6.5
		c0.2,0.5,0.4,1,0.6,1.4c0.3,0.7,0.3,2.1,1.6,1.6c1.2-0.5,0.4-1.5,0.2-2.3c-3.8-13.9-4.5-28.2-6.2-42.4c-0.7-5.7-0.4-11.5,1-17.1
		c0.5-2.2,1.6-3.6,4-4.4c5.5-1.7,11.1-2.7,16.8-3.6c7.4-1.2,14.2-4.6,21.5-6.3c3.1-0.7,3.8-0.1,3.8,3c0,13.2,0.1,26.5,3.6,39.4
		c0.3,1.1,0.5,2.2,0.8,3.3c1.9,6.8,1.9,6.8,8.8,6.6c10.4-0.3,20.4,7,22,16.1c1.9,10.9-6.1,17.8-16.8,14.7c-2.1-0.6-4-2.8-6.5-1.1
		c-0.6,0.5-0.2,2-1.6,1.7c-7.2-4.1-12-10.1-14.1-18.2c-0.4-0.8-0.7-1.5,0.7-1.4c1.5,0.9,2.6,0.8,2.4-1.3c-0.1-1.5-0.6-2.9-1-4.4
		c-1.5-5.7-3.4-11.2-3.9-17.1c-0.2-2.4-1.2-3.6-3.9-3c-5.6,1.2-11.3,1.9-16.9,3.2c-5.6,1.2-6.7,2.8-6.5,8.6c0.3,8.2,1,16.4,2.1,24.6
		c0.4,3.1,1.7,4.5,5,4.4c7.6-0.1,14,2.7,19.2,8.5c6.8,7.5,6.1,20,0.2,27.3c-4.7,5.7-15.3,5.8-21.9,0.9c-1.1-0.8-2.5-3.1-3.4-2
		c-1.3,1.5,1.3,2.5,2.3,3.5c1.3,1.3,3,2.1,4.6,3.2c0.2,0.1,0.3,0.2,0.3,0.4C410.5,132.7,410.4,132.8,410.4,132.8z"/>
	<path fill="#A9714F" d="M445.5,95.5c0.5-0.6,1.1-1.1,1.6-1.7c1.6,3.3,5.1,2.7,7.9,3.7c1.1,0.4,2.3,0.2,3.4,0.7
		C453.7,99.3,449.3,98.7,445.5,95.5z"/>
	<path fill="#A8704E" d="M432,75.9c-0.2,0.5-0.4,1-0.7,1.4c-1.4-2.8-1.6-5.8-1.2-9C431.5,70.7,431.9,73.2,432,75.9z"/>
	<path fill="#A9714F" d="M426.9,52c0.7,2.5,1.8,5,1.2,8.5C426.5,57.3,426.5,54.7,426.9,52z"/>
	<path fill="#724B33" d="M410.4,132.8c-0.2-0.2-0.2-0.4-0.1-0.6c1.8,0.5,3.9,0.3,5.8,1.8C413.7,134.7,412,134,410.4,132.8z"/>
	<path fill="#5CFE53" d="M541.7,322.7c3-0.3,5.7,0.7,8.3,2c7.2,3.4,14.1,7.4,20.4,12.3c2.6,2.1,4.3,1.7,5.1-1.6
		c1.2-5-0.1-9.9-0.7-14.9c-1.2-10.9-6.9-18.4-16.8-23c-6.8-3.2-13.8-5.7-20.9-8.1c-0.5-0.2-1.2-0.5-1.4-0.4
		c-6.1,5.1-11.8-1.4-17.8-0.3c1.7-1.9,4-1.7,6.1-1.9c15.9-1.4,31.4-0.1,46.1,6.8c9.9,4.7,17.3,11.5,20.2,22.6
		c1.2,4.8,3.4,9.4,4.1,14.3c2.4,17.2-6.1,31-22.7,36.5c-10.7,3.5-21.6,4-32.4,0.9c-13.8-4-21.5-18.9-16.9-31.9
		c2-5.7,6.1-9.6,11.5-12.1C536.4,323.5,539.1,323,541.7,322.7z"/>
	<path fill="#57F24E" d="M586.7,362.4c-7,9-16.5,12.3-27.5,12.1c-6.5-0.1-13-0.2-19.7-3.7c17.5,3.1,33.4,1.7,47.2-9.5
		C587,361.6,587,362,586.7,362.4z"/>
	<path fill="#33982E" d="M586.7,362.4c0-0.4,0-0.7-0.1-1.1c0.4-1.5,1.7-2.3,3.3-3.7C589.7,360.3,588.1,361.3,586.7,362.4z"/>
	<path fill="#CACACA" d="M541.7,322.7c-2.5,1.1-5.1,1.6-7.9,1.3C536.3,322.6,538.9,322.1,541.7,322.7z"/>
	<path fill="#5BFD52" d="M600.5,362.2c6.4,0.3,10.2,3.3,9.9,7.8c-0.3,4.3-5.1,9.8-8.4,9.6c-4.8-0.3-8.7-4.9-8.4-9.7
		C594,364.5,596.3,362,600.5,362.2z"/>
	<path fill="#5BFD52" d="M605.5,354.7c-3.5,0-5.6-2.4-5.7-6.4c0-5.1,4.9-10.3,9.9-10.4c2.8-0.1,7.4,5.7,7.5,9.2
		C617.2,351.2,611.9,354.6,605.5,354.7z"/>
	<path fill="#010006" d="M119.7,57.3c-0.8,0.1-2.4-0.7-3.7-1.9c-3.5-3-2.9-6.1,1.5-7.6c8.1-2.8,16.3-5.5,24.4-8.4
		c3.9-1.4,4.7,1.4,5.8,3.8c1.1,2.4,1.2,5.3-1.8,5.8c-8.1,1.5-15,6-22.8,8C122.3,57.2,121.5,57.1,119.7,57.3z"/>
	<path fill="#110005" d="M292.6,136.2c2.8,1.2,5.2,2.8,7.1,5c1,1.2,4.2,2.3,2.5,4c-2,2.1-2.7-1.3-3.8-2.3c-1.9-1.7-3.7-3.3-5.9-4.6
		c-0.6-0.4-0.9-0.8-0.6-1.5C291.9,136.5,292.3,136.4,292.6,136.2z"/>
	<path fill="#120006" d="M286.5,152.3c-0.2-0.1-0.6-0.3-0.7-0.5c-0.5-3.2-1.1-6.3-1.4-9.5c-0.1-0.9,1.2-1.1,1.6-0.3
		c1.3,3,1.7,6.1,2.1,9.3C288.2,152.1,287.3,152.1,286.5,152.3z"/>
	<path fill="#110005" d="M288.6,126.6c2.6,1.5,5.1,2.9,7.2,4.8c0.1,0.1,0,0.7-0.2,1c-0.3,0.6-0.8,0.4-1.3,0.1
		c-2.1-1.1-4.1-2.3-6.2-3.4c-0.6-0.3-1-0.8-0.6-1.5C287.8,127.2,288.2,127,288.6,126.6z"/>
	<path fill="#100005" d="M336.9,188.9c-0.4,2.5-0.8,4.9-1.2,7.4c-0.2,0.9,0,2.2-1.6,1.9c-1.6-0.3-1.1-1.4-0.9-2.3
		c0.6-2.8,1.2-5.6,1.1-8.5c-0.3-5.4-3.3-9.2-6.7-13c-0.6-0.7-2.1-1.3-1.1-2.3c1-1.1,1.8,0.4,2.4,1
		C333.3,177.4,336.9,182.2,336.9,188.9z"/>
	<path fill="#040104" d="M118.8,286.5c0.1-2.2,0.1-4.5,0.5-6.7c0.8-4.8,5.1-8.2,9.9-7.9c1.5,0.1,2.3,1.1,2.5,2.6
		c0.5,4.6,1,9.1,1.4,13.7c0.2,2.1-1,3.1-2.9,3.6c-2.5,0.6-5.1,1.2-7.5,2c-2.7,0.8-3.7-0.2-3.6-2.9c0.1-1.5,0-3,0-4.5
		C119,286.5,118.9,286.5,118.8,286.5z"/>
	<path fill="#050302" d="M407.1,42.6c-2-0.2-4.6,0.1-5.3-2.4c-0.7-2.4,1.4-3.7,3.2-4.9c5.1-3.5,10.8-5.7,16.5-7.7
		c1.9-0.7,3.9-1.5,5.2,0.9c1.7,2.9,1.3,6.8-0.9,8.1C420.1,40.1,413.9,42.3,407.1,42.6z"/>
	<path fill="#2600FB" d="M121.3,54.8c-1.5,0-2.9-0.3-3.8-1.5c-1.2-1.5-2.2-2.9,0.8-3.8c8.2-2.5,16.5-5.1,24.6-7.7
		c1.7-0.6,2.2,0.3,2.8,1.5c0.6,1.3,1.2,3.3-0.3,3.6C137,48.4,129.6,53.1,121.3,54.8z"/>
	<path fill="#C702E2" d="M126.7,290.3c-1.8-0.7-3.3,0.7-5,0.6c-0.4-3.5-1-6.9-0.5-10.4c0.2-1.2,0.4-2.5,1.4-3.3
		c0.6-0.5,1.3-0.8,2-0.3c0.7,0.5,0.1,1.1-0.1,1.6C122.9,282.8,123.4,286.7,126.7,290.3z"/>
	<path fill="#F5F5F5" d="M129.8,276.6c0.2,3.8,0.5,7.1,0.6,10.4c0,0.6,0.5,1.6-0.5,1.9c-0.7,0.2-1.4-0.2-2-0.7
		C124.8,285.7,125.5,279.9,129.8,276.6z"/>
	<path fill="#F8F8F8" d="M422.9,30c0.4,6.2,0.4,6.3-5,8.1c-3.3,1.1-6.6,2.2-10.1,2.3c-1.1,0-2.8,0.7-3.2-1c-0.3-1.2,1.1-1.9,2-2.4
		C411.6,33.8,417.2,31.9,422.9,30z"/>
</g>
</svg>
