<?xml version="1.0" encoding="utf-8"?>
<!-- Generator: Adobe Illustrator 18.0.0, SVG Export Plug-In . SVG Version: 6.00 Build 0)  -->
<!DOCTYPE svg PUBLIC "-//W3C//DTD SVG 1.1//EN" "http://www.w3.org/Graphics/SVG/1.1/DTD/svg11.dtd">
<svg version="1.1" id="Layer_1" xmlns="http://www.w3.org/2000/svg" xmlns:xlink="http://www.w3.org/1999/xlink" x="0px" y="0px"
	 viewBox="0 0 717.2 686.4" enable-background="new 0 0 717.2 686.4" xml:space="preserve">
<g>
	<g>
		<path fill="#FDFDFD" d="M358.9,0.8c118.3,0,236.5,0,354.8-0.1c2.8,0,3.4,0.6,3.4,3.4c-0.1,226.3-0.1,452.6,0,678.8
			c0,2.8-0.6,3.4-3.4,3.4c-236.5-0.1-473.1-0.1-709.6,0c-2.8,0-3.4-0.6-3.4-3.4c0.1-226.3,0.1-452.6,0-678.8c0-2.8,0.6-3.4,3.4-3.4
			C122.4,0.8,240.7,0.8,358.9,0.8z"/>
		<path d="M403.1,577.7c-2.3,0.8-4.3,1.6-6.3,2.3c-6.6,2.1-11.3-0.7-11.1-7.6c0.2-4.9-1.4-6-5.8-6.4c-5-0.4-5-0.7-3.9,4.1
			c2.2,9.7,6.9,18.2,12.9,26c10.1,13.2,17.8,27.6,23.2,43.4c0.8,2.3,2,4.1,4,5.7c8,6.3,8.5,13.4,2,21.1c-4.5,5.3-10.2,7.2-16.9,6.7
			c-9.5-0.8-12.7-13-10.1-20.6c0.5-1.4,1-3.1,2.1-3.9c4.4-3.7,2.8-7.8,1.3-12c-2.8-7.6-6-15-10.2-22.2c-0.6,1.3-1.1,2.3-1.5,3.2
			c-2.3,4.7-5.5,8.3-11.2,7.7c-6.6-0.6-10.5-4.9-12.8-10.7c-2.1-5.2-1.1-10.1,3.2-14c3.3-3,2.2-6.7,1.3-10.1
			c-1.2-4.6-3.2-8.9-4.9-13.3c-1.5-3.9-3-7.8-3.1-11.9c-0.1-3.2-2.2-5.5-2.8-8.4c-0.1-0.3-0.3-0.7-0.6-0.9c-1.3-0.7-7.1,2.6-7.2,4.1
			c-1.6,17.3-8.3,32.6-17.5,47.1c-6.1,9.6-11,19.8-13.7,31c-0.6,2.3-0.3,3.9,1.3,5.7c8.8,10.2,3.6,19.8-4.7,25.2
			c-4.1,2.7-8.5,2.4-12.8,0.1c-8.6-4.5-13.6-17.9-3.8-26c2-1.6,2.5-4,3.5-6.1c3.6-8.2,6.8-16.6,10.9-24.6c3-5.9,6.2-11.9,10.9-16.5
			c12.7-12.6,16.3-28.4,17.4-45.3c0.4-6.3,0.8-12.4-2.5-18c-1.5,6.2-6,8.4-11.8,5.8c-2-0.9-3.2-2.4-3.4-4.5
			c-0.2-2.5-1.4-2.5-3.3-1.7c-0.7,0.3-1.4,0.6-2,0.9c-7.1,2.9-11.6-0.3-11.4-7.9c0.2-4.6,1.4-9.1,2.4-13.6c0.3-1.4,0.6-2.9,0.9-4.5
			c-1,0-1.8,0.1-2.5,0c-3-0.4-4.5,0.2-4.9,3.9c-0.5,6.2-4.2,10.1-8.3,10.1c-3.5,0-6.8-3.9-8.1-9.6c-0.7-3.2-0.9-6.4-0.7-9.7
			c0.1-1.5-0.1-2.7-1.9-3.1c0,2.3,0.1,4.5,0,6.7c-0.1,2.1-0.3,4.2-2.9,5.1c-2.6,0.8-5.3,1-6.9-1.2c-2.4-3.2-4.8-3-8-1.5
			c-5.1,2.4-8,0.7-9.1-4.9c-1.3-6.7,0-13.2,1.4-19.7c1.5-6.8,3.1-13.6,4.8-20.3c0.6-2.3,0.1-3.3-2.5-3.6
			c-11.3-1.1-22.6-2.4-33.9-3.8c-2.3-0.3-4,0.3-5.6,2c-3.3,3.5-6.4,7.4-10.6,9.9c-5.2,3-8.9,2-11.8-3.3c-6-11-4.5-25.1,4.1-34.2
			c5.5-5.8,11.6-11,19.6-13.2c6.2-1.7,9.3-0.3,12,5.3c0.2,0.4,0.6,1.3,0.6,1.3c3.2-1.4,6.3,1.3,9.3,0.6c2.8-0.6,5.5-2.1,8,0.5
			c0.2,0.2,0.7,0.5,0.9,0.4c5.6-3.2,11.2,1.6,17-0.2c2.5-0.8,5.5-0.5,8.1,0.5c1.4,0.5,2.4-0.4,3.5-0.8c2.6-0.9,5.1-1.6,6.9,1.3
			c0.8,1.3,1.7,0.3,2.6,0.1c6.6-1.2,13.2-2.9,19.8-0.3c0.5,0.2,0.9,0.3,1.4,0c3.4-1.9,6.3-2.9,10.7-1.2c3.1,1.2,7.8,0.7,11.8-0.1
			c1.6-0.3,3.2-0.4,4.8-0.3c2.5,0,4.5,1.2,5.9,3.7c2.4-1.9,4.4-4.1,7.1-5.4c2.8-1.4,5.5-1.8,7.4,1.4c0.3,0.6,0.6,1.6,1.6,1.2
			c4.4-1.6,8.9,0.2,13.3-0.7c3.2-0.6,6.7-0.9,9.5,1.9c1.1,1,1.7-0.4,2.4-0.8c3.5-2,6.9-3.8,10.5-0.2c0.7,0.7,1.2,0.6,1.8-0.1
			c2.2-2.6,5.2-2.4,8-1.6c5.9,1.5,11.8,0.8,17.7,0.5c3.2-0.1,6.5,0,9.7-0.1c4.9-0.1,9.7,0.9,14.6-1.2c3.3-1.4,7.2-0.4,10.4,1.8
			c0.8,0.6,1.4,1.3,2.6,0.6c6.2-3.7,12.8-2.5,19.3-1.4c2.8,0.5,4.1,0.2,4.7-3c0.8-4.6,5.1-5.9,9.5-3.5c3.7,2,6.7,4.9,9.4,8
			c12.6,14.3,23.1,30,31.6,47.1c3,6.1,3.5,12.7,0.9,19.2c-2,5.3-6.5,6.8-12,6.3c-5.1-0.4-6.6-4.3-9.1-7.1c-1.6-1.7-3-3-5.5-3.3
			c-23.6-2.5-47.2-5.2-70.7-7.8c-2.6-0.3-5.2-0.4-7.8-0.8c-1.7-0.3-2.2,0.3-2.1,1.9c0.2,5.7,0.4,11.5,0.6,17.2
			c0,1.6,1.3,2.3,2.3,3.2c7.7,6.4,14.3,13.7,17.1,23.5c1.9,6.5,1.5,12.9-1.7,19.2c-2.9,5.7-6.4,10.7-11.5,14.4
			c-2,1.4-2.8,3.1-2.4,5.7c0.6,4.4,0.9,8.9,1,13.4c0.3,8.6-3.3,12.2-11.9,12.5C411.5,589.9,405.6,585.4,403.1,577.7z"/>
		<path fill="#FEDB00" d="M75.8,421.4c0-0.5,0.1-1.1,0.1-1.6c6.3-15.6,18.6-24.3,33.9-29.4c5.6-1.9,11.1-3.7,16.6-5.8
			c3.2-1.2,6.1-2.9,8.2-5.7c2.7-3.6,2.2-7-1.5-9.7c-3.2-2.3-6.7-3.8-10.6-4.4c-1.9-0.3-3.9-0.8-4.2-3c-0.2-2.1,1.6-3,3.1-3.8
			c7-3.6,21.5,0.8,25.5,7.6c1.4,2.4,1.2,5,0.8,7.6c-0.2,1-1.1,2.3,0.3,3c1.3,0.7,2.3-0.5,3.2-1.3c4.6-4.3,3.5-13.8-1.9-17.6
			c-3.7-2.6-8-3.5-12.1-4.9c-0.7-0.2-1.5-0.3-2.2-0.6c-2.1-0.8-5.2-0.8-5.1-4c0.1-3,2.8-3.8,5.3-4.5c2.6-0.2,5.2,0.1,7.7-0.3
			c10.9,0.7,17.2,7.5,22.2,16.2c1.1,1.9,0.8,4.1,0.8,6.3c0,2.4,0.7,4.2,2.9,5.7c2.6,1.7,2.4,2.9-0.2,4.8
			c-6.3,4.5-12.9,8.6-20.1,11.6c-9.5,4-18.5,9.3-28.5,12.4c-2.4,0.7-2.5,2.4-2.1,4.5c1,5.9,1.4,11.9,0,17.8c-2,8-5.5,15-13.1,19.2
			c-11.2,6.1-26.6-1.5-28.6-14.1C75.8,425.4,75.5,423.4,75.8,421.4z"/>
		<path d="M559.1,124c-15.3,1-26.5-6.8-35.6-18.8c-2.9-3.8-5.1-8-8.9-11.3c-5.1-4.4-8.8-10.2-12.6-15.7c-0.6-0.9-1-2.4-2.8-1
			c-6.9,5.6-13.8,11.2-19.4,18.1c-1.5,1.8-1.8,3.5-0.5,5.7c6.6,12,13.4,23.9,21,35.4c1.4,2.1,2.6,2.4,4.7,1.1
			c4.1-2.4,8.5-4.2,13.1-5.4c9.1-2.5,17.8-0.7,25.8,3.7c9,5,16.2,12,19.6,22.1c3.7,11,1.1,20.8-5.8,29.8c-1.7,2.2-4.4,3.7-4.7,6.9
			c0,0.2-0.5,0.5-0.8,0.6c-5.3,2.2-9.8,5.8-15.2,7.9c-6.2,2.4-11.8-0.1-17.1-2.5c-4.3-1.9-8.2-5.4-11.6-8.7
			c-5.4-5.2-10.1-11.3-14.5-17.4c-17-23.8-32.6-48.4-47-73.8c-6.7-11.8-13-23.9-16.8-37c-0.8-2.8-0.4-4.9,1.7-6.6
			c15.7-13.2,28.9-29,43.5-43.3c2.5-2.4,5.3-4.6,8.2-6.5c2-1.3,3-1.4,4.5,1.2c10.1,18.6,19,38,33.5,53.8c3.3,3.6,6.7,7,10,10.6
			c1.6,1.8,3,2.1,5.1,0.8c3.2-2,6.5-3.6,9.9-5.3c4.2-2.2,7.8-4.7,13.4-3.4c5.8,1.4,12.2,0.7,17.8,3.4c9.8,4.8,16,12.2,17.9,23.2
			c1.2,7.1,0.6,13.6-3.5,19.6c-4.8,7.1-12.2,10-20.2,11.7C567.9,123.9,563.8,124.1,559.1,124z"/>
		<path d="M379.8,160.3c-2.6-2.2-5-2.2-7-3.1c-13.6-6.2-26.4-26.6-25.7-41.6c0.4-8,4.4-12.2,13.4-10.2c13.2,2.9,20.1,11.5,23,24.1
			c1.1,4.8,2,9.6,2.1,14.4c0,2.4,0.6,3.2,3.2,3.2c6,0,11.9,0.9,17.3,3.8c11.6,6,15.1,19,8.9,30.7c-4.2,7.8-10.5,12.9-17.9,17.2
			c-0.9,0.5-3.4,0.6-1.8,2.6c1.1,1.3,2.5,3,4.7,1.6c0.1-0.1,0.2-0.2,0.3-0.2c5.3-3.8,7.3-4,10.6-1.4c2.9,2.4,3.9,8.2,2,12
			c-1.9,4-6.1,6.1-10.7,4.9c-7.4-2-14.1-5.2-17.2-13c-0.9-2.2-2.5-2.1-4.2-2.3c-9.3-1.3-15.1-6.9-17.6-15.5
			c-2.4-8.4-1.7-16.6,5-23.3C371.2,161.2,374.8,160.3,379.8,160.3z"/>
		<path d="M482.6,268.8c-5.1,8.1-9.4,16.4-13.6,24.7c-5.4,10.7-11,21.2-15.9,32.1c-6.3,14-17.4,23-30.7,29.4
			c-7.5,3.6-16,5.4-24.4,3.6c-7.7-1.6-13.8-6.1-18.2-12.7c-2-3-3.5-6.3-5.1-9.3c-1.5-2.9-0.4-7.3-0.3-11c0.4-10,4.3-18.5,11.6-25.5
			c3.6-3.5,7.9-6.1,12.4-7.4c10.3-3.1,20.8-6.4,31.1,1c6.1,4.4,6.6,4,11.2-2.1c11.1-14.8,22-29.7,33-44.5c4.7-6.3,10-12.1,16.1-17.2
			c2.3-1.9,5-4.4,7.9-3.2c2.9,1.2,2.4,4.9,2.6,7.7c0.3,6.7,3.8,12.1,7,17.5c4.5,7.5,10.6,9.9,19.1,7.5c4.1-1.1,8-2.7,10.6-6.5
			c1.1-1.5,2.6-3.7,4.8-2.5c2.3,1.2,2.2,3.6,1.6,6c-0.7,2.7-2.1,5.1-3.6,7.3c-4.3,6.3-9.5,11.9-15.4,16.8
			c-8.6,7.2-16.8,7.5-26.4,1.4C492.5,278,487.5,273.7,482.6,268.8z"/>
		<path fill="#010001" d="M173.4,261.7c0-5.5-0.1-11,0-16.5c0.1-2.2,0.6-4.1,2.8-5.5c4.3-2.9,9.1-4.2,14-4.7c12.8-1.4,25.3-4.4,38-6
			c9.5-1.2,18.9-1.7,28.2,1.2c8.5,2.6,14.9,7.8,18.2,16.3c2.7,6.9-1.2,17.7-8.1,22.8c-5,3.7-10.4,6-16.7,5.1
			c-8-1.1-12.5-6.7-15.9-13.2c-1.9-3.8-3.2-7.9-1.7-12.3c0.4-1,0-1.7-1.2-1.7c-6.7,0.3-13.5-1-20.2,0.2c-2.5,0.5-3.9,1.9-4.5,4.4
			c-0.9,4.1-0.6,8.2-0.6,12.3c0,2,1.1,2.1,2.7,2.1c5.9-0.1,11.7,0.2,17.5,1.3c9.8,1.8,17,7.2,22.3,15.6c0.5,0.7,0.8,1.6,1.3,2.2
			c6.2,7.1,2.6,14.9-3.8,18.6c-5,2.8-10.2,4.5-16,3.1c-2.1-0.5-3.9-0.9-4.9-3.2c-0.7-1.8-3.2-1.4-4.7-2.5c-5-3.7-5-9-5.6-14.2
			c-0.7-6.6-2.9-8.5-9.7-9c-8.1-0.6-15.8,1.8-23.6,3.1c-8.1,1.3-8.6,1.1-8.3-6.9c0.1-2.1,0.1-4.2,0.2-6.4c0-2,0-4,0-6
			C173.1,261.7,173.3,261.7,173.4,261.7z"/>
		<path fill="#010100" d="M134.9,344.2c-0.5,0.2-1,0.2-1.4,0.5c-1.2,1-3.2,1.7-3.1,3.4c0.2,2,2.4,1.9,3.8,2.4
			c5.7,1.7,11.6,3,16.6,6.7c3.5,2.6,4.3,6.5,4.3,10.6c-0.1,4.2-1.4,7.9-5.6,9.8c-0.9,0.4-1.7,1.2-2.6,0.1c-0.6-0.6-1.4-0.9-0.9-2.1
			c1.1-3,2.3-6.1,0.3-9.3c-2.3-3.7-5.9-5.8-9.8-7.1c-4.9-1.6-9.9-2.5-14.9-0.4c-1.4,0.6-2.9,1.5-2.6,3.2c0.3,1.5,2,1.9,3.3,1.9
			c4-0.2,7.2,1.9,10.4,3.7c6,3.2,6.5,9.2,1.3,13.7c-4.2,3.6-9.4,5.1-14.4,6.8c-8.8,3.1-17.8,5.7-25.7,11
			c-6.9,4.6-12.2,10.5-15.4,18.3c-0.4,1.1-0.2,3-2.4,2.4c-1.7-1.1-0.4-2.2,0-3.2c2.2-5.4,5.7-9.8,9.3-14.3c2.6-3.3,4.8-6.5,8.9-7.9
			c10.1-3.4,20.1-6.9,30.1-10.3c3.1-1.1,6-2.4,8.5-4.6c4-3.5,3-8.5-2.1-10.2c-3.3-1.1-6.7-2-9.9-3.2c-1.9-0.7-4-1.5-4.1-3.9
			c-0.1-2.7,1.8-4.3,4.2-5.2c6.9-2.6,13.5-1.1,19.8,2c5.8,2.9,10,7,9.5,14.5c4-4.6,2.9-11.8-1.9-14.9c-3.7-2.4-7.8-3.8-12-5.1
			c-1.8-0.5-3.6-1-5.3-1.7c-3.7-1.6-4.1-4-1.2-6.9c4.6-4.5,10.2-4.9,16-3.3c6.6,1.8,11.5,6,16.5,10.5c4.6,4.1,5.3,9.1,6.1,14.3
			c0.3,1.7,0.6,2.8,2.3,3.8c3.9,2.3,4.2,5,1.7,8.8c-3.6,5.5-9.1,8.4-14.5,11.4c-9.9,5.5-20.7,9.3-30.8,14.3c-2.4,1.2-3.5,2.3-2.4,5
			c3.6,8.6,0.8,16.9-2.6,24.6c-6.2,14.2-29.1,19-40.6,8.9c-4-3.5-5.3-8.3-5.7-13.4c-0.2-2.9-1.8-5.8,0.2-8.7c2,4,0.9,8.9,4.1,12.8
			c11.3,13.6,27,10.5,34.4-4.4c3.8-7.6,4.3-15.8,2.8-24.1c-1-5.4-0.7-5.8,4.6-7.3c5.8-1.6,11-4.6,16.4-7.1
			c10.1-4.6,20.4-8.8,29.3-15.7c1-0.7,2-1.5,3.7-2.8c-6.9-0.9-5.7-5.6-6-9.9c-0.4-5.9-4.6-9.7-8.8-13.4c-3.7-3.3-8.1-5.2-12.9-6.1
			C140.6,343.6,137.7,343.5,134.9,344.2z"/>
		<path fill="#000100" d="M672.2,381.2c-3.4,9.9-8.6,18.5-17.6,24.4c-7.7,5-16,5.8-24.8,3.9c-7.2-1.6-14-4.1-20.8-7.1
			c-7.9-3.5-11.9-9.8-14.1-17.7c-0.8-2.7-1.4-5.5-2-8.3c-1.8-8.8,4.6-19.5,15.3-21c8.1-1.1,16-2.7,24,0.2c2.2,0.8,4.3,1.9,6.4,3
			c1.3,0.7,2.4,1.5,2.4,3.4c0.1,2.3,2.4,2.9,4,3.2c2,0.4,1.6-1.9,1.8-3c2-10.2-1-18.4-9.3-25c-8.3-6.5-17.7-10.6-27.4-14.3
			c-4.6-1.8-9.9-1.2-14.8-1.6c-1.1-0.1-2.3-0.1-3.4-0.2c-0.9-0.1-2.2,0-2.3-1.3c-0.1-1.1,0.8-1.7,1.7-2.2c4.3-2.4,9.1-3.6,13.9-3.9
			c20.2-1,38.4,4.4,54.7,16.6c3.1,2.3,5.4,5.1,6.8,8.7c3.8,9.5,7.3,19.1,7.3,29.6c0,2.5-0.4,5-0.7,7.4
			C673.4,377.7,673.7,379.6,672.2,381.2z"/>
		<path fill="#000001" d="M188.8,108c0-6.7,2-13,4.6-19.1c5.2-12,12.2-22.9,21.5-32.2c1.6-1.6,3.3-2.4,5.3-1.4
			c8,3.9,16.9,4.1,25.3,6.1c2.7,0.7,5.3,1.4,7.9,2.2c1.9,0.6,2.6,1.8,1.3,3.7c-1.5,2.3-2.8,4.7-4.3,7c-0.9,1.4-1.4,2.8-1.5,4.5
			c-0.6,9.7,0.7,11.6,10.2,13.5c10.5,2,12.1,7.5,11.6,16.3c-0.4,5.9-4.7,9.4-10.7,9c-8.9-0.7-16.9-4.1-23.2-10.2
			c-4.3-4.2-5.9-10.3-4.2-16.5c1-3.8,0.9-5.8-3.6-7.4c-10.8-3.9-12.7-3.4-17.4,7.2c-0.5,1-0.8,2.1-1.2,3.1c-1.2,2.9-0.3,4.5,2.7,5.6
			c5.4,2,10.4,4.5,14.6,8.8c6.1,6.3,5.6,15.5,2.1,21.5c-2.5,4.2-6.8,5.4-11.4,5c-9.4-0.7-17.6-4.7-24.4-11
			C189.8,119.7,188.6,114,188.8,108z"/>
		<path fill="#040604" d="M667.5,402.9c0.1-5.7,3.8-10.7,7.9-10.7c7.8,0.1,13.3,4.3,13.2,10.3c-0.1,5.6-5.7,12.4-10.4,12.4
			C672.4,414.9,667.4,409.3,667.5,402.9z"/>
		<path fill="#020502" d="M674.2,376.4c1.8-3.2,3.9-5.6,7.6-7.2c7.1-3,10.9,1.5,13.1,7.6c1.9,5.2-1.2,10-7.2,11.7
			c-1.3,0.4-2.6,0.6-4,0.8c-6.1,0.5-7.9-0.6-10.2-6.8C672.5,380.4,673.2,378.4,674.2,376.4z"/>
		<path fill="#9A9A9A" d="M674.2,376.4c-0.2,2.1-0.5,4.1-0.7,6.2c-0.4-0.5-0.8-1-1.3-1.5c0-1.9,0.5-3.7,1.4-5.3
			C673.8,376,674,376.2,674.2,376.4z"/>
		<path fill="#F7FE8C" d="M324.9,501.9c13.5-4.8,27.2-8.9,41.8-9.5c22.5-0.9,42.4,5.1,59.1,20.6c0.7,0.6,1.6,2.3,2.6,0.9
			c0.8-1.1-0.8-1.7-1.6-2.4c-20.8-19.3-45.6-23.6-72.8-20c-11.7,1.6-22.6,6.1-33.8,9.5c-16.3,4.9-30.5,1-43.1-9.9
			c-4.2-3.6-5.9-8.6-5.5-14.1c0.4-5.7,3.9-9.7,9.9-10.3c-0.6,0.4-1.3,0.7-1.8,1.2c-6.4,5.9-7.1,11.8-2,18.8c6.7,9.3,16,13,27.3,12.5
			c9.2-0.4,17.9-2.9,26.5-5.9c18-6.2,36.4-9.3,55.6-7.1c22.3,2.6,40.4,12.5,52.7,31.5c7.7,11.9,5.4,24-5.4,35.2
			c-7.5,7.7-17.2,10.9-27.7,12.1c-2.1,0-4.3,1.3-6.1-0.7c10.2-1.6,18-7.7,25.7-13.8c0.5-0.4,1.5-0.9,0.9-1.7
			c-0.8-1.1-1.5-0.1-2.2,0.4c-0.8,0.5-1.6,1.2-2.4,1.8c-10.7,9.6-23.1,13.2-37.4,10.9c-11.4-1.9-22.5-4.3-32.5-10.4
			c-7.5-4.5-13.5-10.4-14.4-19.7c-1.2-11.8,1.8-16.3,13.4-19.4c0.8-0.4,1.5-0.6,1.4,0.7c-12.6,4.7-16.2,18.7-7.5,29.2
			c7.4,8.9,17.4,12.8,28.2,14.5c12.7,2,25.1,1.1,36.7-5.2c13.6-7.3,21.2-26.7,9.8-39.1c-4.7-5.2-10.6-8.6-16.9-11.5
			c-16.2-7.3-33-6.2-49.9-3.3c-9.1,1.6-18.1,3.4-27.2,5.1C325.7,502.9,324.8,503.4,324.9,501.9z"/>
		<path fill="#FEFEFE" d="M512.1,467.6c-11.2-1.3-21.7-2.6-32.2-3.7c-3.8-0.4-7.7-0.6-11.6-0.7c-1.8,0-2.8-0.3-3.3-2.4
			c-2.2-10.1-4.7-20.1-7.2-30.1c-0.8-3.3,1.4-4.4,3.7-5c3.8-1.1,7.6-0.5,11.5-0.4c5.5,0.2,9.8,1.9,12.7,6.9
			c6.5,11.4,15.5,21,23.7,31.1c0.6,0.8,1.1,1.6,1.7,2.5C511.3,466.1,511.5,466.6,512.1,467.6z"/>
		<path fill="#FEBFE5" d="M396.9,528.4c0-0.2,0.1-1.4-0.3-2.4c-3.9-8,0-15.8,0.3-23.7c0-1.4,0.7-1.6,1.9-1.1
			c8.6,3.3,16.6,7.4,22.1,15.2c4.8,6.8,3.8,14.2,0.5,21c-5.7,11.9-16.6,16-28.8,17.8c-2.5,0.4-3-0.5-2.6-2.8
			c0.5-2.7,0.8-5.4,0.9-8.2c0.1-1.7,0.7-3.1,1.9-4.3C395.7,536.9,396.9,533.3,396.9,528.4z"/>
		<path fill="#878787" d="M406.3,648.2c-2.3,0-4-0.5-4.7-3.2c-3.6-13.4-10.5-25.3-17.7-37c-6.9-11.4-12.9-23.1-15.7-36.2
			c-0.5-2.4-2.3-5.1,1.3-7.2c2.1-1.2,3-1.1,3.3,1.1c1.7,14.2,9.5,25.6,17.8,36.5c9.5,12.4,15.5,26.4,20.9,40.8
			C412.6,646,410.3,648.3,406.3,648.2z"/>
		<path fill="#FEFEFE" d="M461.1,462.9c-8.9-0.8-17.2-1.5-25.6-2.1c-1.7-0.1-2-0.8-1.7-2.4c1.5-8.1,2.9-16.2,4.3-24.3
			c0.4-2.6,1.8-4.8,2.6-7.2c1-2.9,4.7-2.8,7.6-2.5c2.4,0.2,5,0.2,5.7,3.6C456.3,439.5,458.7,450.9,461.1,462.9z"/>
		<path fill="#878787" d="M337.9,550.4c1,2.3,1.9,4.3,3.6,6.1c1.5,1.6,0.5,3.6,0.2,5.4c-1.8,14.1-7.3,26.9-14.1,39.1
			c-7.6,13.7-16.1,27-20.2,42.4c-0.6,2.4-4.7,3.5-7.7,2.3c-2.9-1.1-2.7-2.8-1.6-5.3c2.1-4.6,3.9-9.4,5.8-14.2
			c5-12.2,11.1-23.7,20-33.5c8.3-9.1,11.6-20.1,12.8-32C337.2,557.2,337.6,553.8,337.9,550.4z"/>
		<path fill="#858585" d="M484.3,420.2c13.1,17.5,26.4,34.4,34.6,54.5c1.9,4.7,3.5,9.7,2,14.9c-1.3,4.8-2.7,5.1-6.1,1.6
			c-0.8-0.8-1.5-1.6-2.2-2.4c0.7-1.2,2.9,0.1,2.7-2c-0.2-1.9-1.8-1.4-2.9-1.5c-34-3.7-68-7.5-102-11.1c-23.8-2.6-47.6-5.1-72.1-7.8
			c3.6-1.3,7.1-0.5,9.7-2.6c0.9-0.7,1.4,0.1,1.8,0.6c2.2,2.2,5.3,2,8,2.7c0.2,0.1,0.6,0.1,0.7,0c3-3.4,5.3-0.2,7.8,0.9
			c3.2,1.4,6.6,1,10,1.3c11.6,1,23.3,2,34.9,2.7c15.3,1,30.3,4.4,45.7,4.7c15.3,0.3,30.3,3.9,45.5,4.5c3.3,0.1,6.6-0.6,10-0.2
			c1.3,0.2,1.9-1.4,2.3-2.9c1.6-6.7-0.3-12.3-4.5-17.4c-3.1-3.7-6.1-7.6-9.4-11.1c-6.1-6.5-9.5-15-15.4-21.7
			C483.4,425.7,482.5,423.6,484.3,420.2z"/>
		<path fill="#FEBFE5" d="M253.4,497.3c0.3-11.3,3.5-21.2,5.7-31.3c1.3-6,1.3-6,7.3-5.5c2.1,0.2,5.2-0.4,6,1c1,1.8-2.1,3.2-3.1,4.9
			c-4.5,7.8-3.3,15.6,1.7,22.1c4.4,5.9,3.3,12,3.3,18.1c0,3-2.9,1.9-3.7,0.7c-3.3-4.6-7.1-4.1-11.4-1.8c-2.7,1.5-4.6,0.4-5.2-2.6
			C253.6,501,253.5,498.7,253.4,497.3z"/>
		<path fill="#FEFEFE" d="M415.8,442.5c0,4.2-0.2,8.5,0.1,12.7c0.2,2.8-0.8,3.3-3.3,3c-5.2-0.6-10.5-0.9-15.7-1.3
			c-1.2-0.1-2.2-0.1-2.2-1.8c0.3-8.7-0.5-17.5,0.6-26.2c0.5-3.6,2.4-4.4,5.4-3.9c4.3,0.8,8.6,1.6,13,0.8c2-0.3,1.9,1,1.8,2.3
			c0,4.7,0,9.5,0,14.3C415.6,442.5,415.7,442.5,415.8,442.5z"/>
		<path fill="#FEBFE5" d="M329.2,520.5c0,4.2,0,8.5,0,12.7c0,1.6,0.7,3.8-2.2,3.8c-2.7,0-5.4,0.1-6.5-3c-1.8-5.3-2.2-5.5-7.3-3.3
			c-0.9,0.4-1.8,0.8-2.7,1.2c-3.3,1.2-5.1,0.3-6.3-3.1c-0.9-2.6-0.6-5.2-0.2-7.8c0.6-3.9,1.6-7.8,2.4-11.7c0.3-1.6,1-2.3,2.7-2.5
			c6.1-0.6,12.1-1.4,18.2-2.3c2.2-0.3,1.9,0.9,1.9,2.1c0,4.6,0,9.2,0,13.9C329.1,520.5,329.2,520.5,329.2,520.5z"/>
		<path fill="#878787" d="M521.2,495.4c4.8-7.9,2.5-15.2-0.5-22.5c-6-14.6-15.1-27.3-24.3-39.9c-3.6-4.9-7.3-9.7-11.3-15.1
			c4.3,0.6,7.1,2.6,9.6,5c14.7,14.6,25.7,31.8,35.2,50c2.7,5.2,3,11.1,1.2,16.8C529.6,494.5,526.7,496.2,521.2,495.4z"/>
		<path fill="#FEBFE5" d="M426,562c0.5,7.1,0.9,13.9,1.4,20.7c0.1,1.9-1.1,2.3-2.3,2.9c-8.1,4-16.6,0.8-19.8-7.8
			c-1-2.6-1.9-3.1-4.2-1.7c-2,1.2-4.3,2-6.6,2.4c-2.3,0.4-4.6,0.2-5.9-2.1c-1.4-2.6-1.5-5.5-0.9-8.3c0.2-0.8,0.9-0.6,1.5-0.5
			C401.8,568.7,414.1,567.6,426,562z"/>
		<path fill="#878787" d="M356.9,564.4c4.3,0.7,6,2.9,7.3,6.7c1.4,4.3,3.7,8.3,5.3,12.6c1.9,5.1,3.2,10.1,3.3,15.6
			c0,1.3-0.1,3.7,1.8,3.5c2.6-0.3,0.2-2.4,0.6-3.6c0.1-0.2,0.1-0.5,0.2-1.3c2.2,4,4.3,7.6,6.1,11.3c1.3,2.7-1.1,9-4.2,11.7
			c-3,2.6-6.3,2.6-9.7,0.8c-6.7-3.6-9.7-11.7-6.4-17.4c0.6-1.1,1.3-2.6,2.6-2.5c3.5,0.3,2.7-1.9,2.8-4c0.3-6.9-2.5-12.9-5.1-18.9
			C359.4,574.3,357.6,569.6,356.9,564.4z"/>
		<path fill="#FEFEFE" d="M391.5,441.7c-0.2,4.1-0.4,8.2-0.5,12.3c0,1.6-0.6,2.1-2.2,1.9c-7.8-0.7-15.7-1.3-23.5-1.9
			c-2-0.1-3-0.7-1.6-2.6c5.1-6.9,8.4-15.1,15.1-20.8c1.6-1.4,3.2-2.8,5-3.9c1.9-1.2,3.9-2.7,6.2-1.1c2.1,1.4,2.2,3.7,2,6
			c-0.2,3.4-0.4,6.7-0.5,10.1C391.5,441.6,391.5,441.6,391.5,441.7z"/>
		<path fill="#878787" d="M420,656.4c0,5.9-6.5,12.6-13.6,14c-4.2,0.8-8.5,0.9-11.3-2.8c-3.3-4.3-3.5-9.4-2.2-14.6
			c0.2-0.8,0.7-1.6,1.1-2.4c2.2-4.3,2.3-4.2,6.4-2c4.2,2.2,8.5,3.2,12.5-0.4c1.3-1.1,2-0.9,3.1,0.1
			C418.4,650.5,419.9,653.1,420,656.4z"/>
		<path fill="#FDBFE4" d="M328.4,479.9c0,1.4,0,2.7,0,4.1c0,7.9,0,8-7.5,9.9c-3.1,0.8-6.4,1.2-9.5,2c-2,0.5-2.6,0.2-2.3-2.1
			c1.2-8.6,2.2-17.3,3.2-26c0.2-1.6,0.8-2.2,2.4-2c4,0.5,7.9,1.1,11.9,1.4c1.8,0.1,1.9,1.1,1.9,2.5
			C328.4,473.1,328.4,476.5,328.4,479.9z"/>
		<path fill="#FDFDFD" d="M508.6,478.6c-13.6,0.3-27-1.7-40.4-3.1c-1.3-0.1-2.9,0-3.1-1.9c-0.4-2.5-1.8-5.1-0.4-7.6
			c0.7-1.3,2.3-0.8,3.5-0.8c10.4,0.4,20.6,2,30.8,3.3c4.1,0.5,8.1,1.3,12.2,1.7c1.9,0.2,2.2,1,2.2,2.6
			C513.3,478.6,513.3,478.6,508.6,478.6z"/>
		<path fill="#878787" d="M290.1,653.8c0.2-1.6,0.2-3.4,1.2-5.1c2.3-4,2.6-4.1,6.5-1.6c4,2.5,8,1.6,11.6-0.7
			c2.5-1.6,3.6-0.8,4.9,1.3c3.3,5.2,3.2,9.8-0.5,14.8c-4.2,5.6-9,7.5-14.1,5.6C294.2,666,290.1,660,290.1,653.8z"/>
		<path fill="#FDFDFD" d="M419.4,459.4c0-10.9,0-21,0-31.1c0-1.6,0.4-2.2,2.1-2.2c4.5,0,9,0,13.5-0.1c2.1-0.1,2.4,0.6,1.9,2.7
			c-2.1,9.4-3.9,18.8-5.9,28.1c-0.4,1.9-1,3.8,0.1,5.9C427.9,459.4,425.7,454.2,419.4,459.4z"/>
		<path fill="#F6FD8C" d="M380.2,528.9c-5-2-6.7-1.1-7.1,4c-0.2,3.1-0.5,6.2,0,9.3c0.2,1,0.6,2.1-1.3,2.4
			c-7.5,0.9-16.5-5.7-17.7-13.1c-0.1-1-0.2-2-0.1-3c0.7-4.8,6-8.8,12.8-9.8c5.5-0.8,9.9,1.4,12,6.1
			C379.5,525.9,380.4,527.1,380.2,528.9z"/>
		<path fill="#FDBEE4" d="M364.7,513.1c2.1,0.3,4.2,0.5,6.3,0.8c1,0.1,2.5-0.3,2.3,1.6c-0.1,1.9-1.5,1.1-2.5,1.1
			c-4.5-0.3-8.7,0.7-12.5,3c-4,2.4-6.7,5.8-6.5,10.6c0.3,6.1,3.4,10.5,8.7,13.4c2.9,1.6,6,2.5,9.2,3c4.3,0.7,1.5,3.7,1.7,5.6
			c0.2,2.8-2.1,1.5-3.1,1.2c-7.9-2.2-15.2-5.5-20.5-12.1c-2.8-3.5-4.5-7.4-3-12c0.4-1.3,0.9-2.7,0.9-4c0.2-7.4,5.4-9.8,11.4-11.1
			C359.4,513.5,362,512.9,364.7,513.1z"/>
		<path fill="#FDFDFD" d="M326.6,450.4c6.1-10,11.9-19.1,20.8-25.7c1.6-1.2,3.4-2.5,5.4-1c2,1.5,0.9,3.3,0.4,5.1
			c-2.2,7.1-4.5,14.3-6.6,21.4c-0.5,1.7-0.8,2.6-2.9,1.2c-2.4-1.6-5.3-1-8-1C332.9,450.4,330.2,450.4,326.6,450.4z"/>
		<path fill="#FDFDFD" d="M349.6,451.9c0.8-2.4,1.4-4.7,2.3-7c2-5.1,3.6-10.3,4.6-15.7c0.3-1.7,1-3.3,3.1-3
			c4.9,0.6,9.7-0.3,14.5-0.3c2.5,0,3.1,0.6,1.6,3c-4.6,7.4-10.5,13.9-14.5,21.7c-1.1,2.1-2.8,3-5.2,2.6
			C354,452.7,351.8,452.8,349.6,451.9z"/>
		<path fill="#FDFDFD" d="M323.8,451.8c-3.1-2.5-6.2-2.5-9.2-2.6c-1.2,0-2.5,0.1-1.9-2c1.6-6.2,2.8-12.6,5.5-18.5
			c0.5-1.1,1-2.6,2.5-2.3c4.5,0.8,8.9-0.6,13.4-0.5c1.1,0,2.5-0.3,3.1,0.8c0.6,1.1-0.7,2-1.3,2.9c-3.9,6.1-7.8,12.2-11.7,18.2
			C323.5,448.8,322.4,449.8,323.8,451.8z"/>
		<path fill="#FDBEE4" d="M423.2,497c-7.2-5.2-14.4-8.5-22.1-10.7c-1.3-0.4-2-1-1.6-2.4c0-0.1,0-0.2,0.1-0.4
			c0.7-7.8,0.7-7.8,8.6-7.1c3.8,0.3,7.7,1,11.5,1.3c1.9,0.2,2.5,0.9,2.6,2.8C422.4,485.7,422.8,490.9,423.2,497z"/>
		<path fill="#FDFDFD" d="M306,448.6c-2.7-2.1-5.9-1.7-9-1.7c-2.6-0.1-5.1,0-8.6,0c7-8.1,13.4-15.5,21.9-20.7
			c0.4-0.3,0.9-0.5,1.4-0.6c1.2-0.5,2.4-1,3.5,0c1,1,0.1,2.1-0.3,3.1c-2.4,6.7-4.9,13.3-7.4,20C307,449,306.5,449,306,448.6z"/>
		<path fill="#868686" d="M201.7,447.2c-0.3-2.3,1-5.1,0-7.8c-0.3-0.9,0.4-1,0.9-1.2c8.4-3.5,14.2-10.4,20.6-16.5
			c0.7-0.7,1.3-2.1,2.7-1.5c1.1,0.5,1.3,1.7,1.8,2.8c0.8,1.8-0.7,2.1-1.7,2.7c-5.3,2.9-10.1,6.4-14.5,10.5
			c-3.4,3.2-4.1,7.2-1.4,12.5c1.1,2.2,0.5,5.6,4,6.4c0.6,0.1-0.3,1.2-0.8,1.8c-1.5,1.6-3.1,3.3-4.7,4.9c-3.2,3.1-3.6,3-5.1-1.4
			C201.9,456.2,201.5,452,201.7,447.2z"/>
		<path fill="#FDFDFD" d="M303.7,426.2c-5,5.3-9.4,10-13.8,14.6c-0.6,0.6-1.4,1.1-1.8,1.9c-2.6,5-6.9,3.2-10.8,2.8
			c-2-0.2-0.9-1.7-0.7-2.6c4.5-14.8,8.9-16,20-16.7C298.6,426.1,300.7,426.2,303.7,426.2z"/>
		<path fill="#FCFCFC" d="M367.7,456.1c6.7,0.7,13.4,1.5,20.1,1.9c3.3,0.2,3.9,1.7,3.6,4.6c-0.5,5-0.5,5-5.4,4.7
			c-5.5-0.4-11-0.4-16.4-0.9c-4.4-0.4-6.7-2.7-7.2-6.8c-0.3-2.6-0.1-4.6,3.4-3.6C366.4,456.2,367,456.1,367.7,456.1
			C367.7,456.1,367.7,456.1,367.7,456.1z"/>
		<path fill="#F6FD8C" d="M287.6,462.9c2.4,0.3,4.4,0.6,6.3,0.7c7,0.6,12,6.5,11.5,13.7c-0.3,4.1-3.1,6.2-7.2,5.4
			c-8.5-1.6-11.6-6.4-9.9-15.5C288.7,465.1,288.7,465.1,287.6,462.9z"/>
		<path fill="#FDFDFD" d="M449.1,473.8c-4.6-0.4-9.2-1-13.8-1.3c-1.9-0.1-2.7-0.6-2.5-2.6c0.6-8.9-1-7.4,7.4-6.7
			c6,0.5,11.9,1.4,17.8,1.9c2.3,0.2,3.5,0.8,3.2,3.3c-0.1,1-0.1,2,0.1,3c0.5,2.5-0.8,3.2-2.9,3C455.3,474.2,452.2,473.9,449.1,473.8
			C449.1,473.7,449.1,473.8,449.1,473.8z"/>
		<path fill="#FCFCFC" d="M270.9,445.5c-4.3-2.9-9.3-0.8-14-2c0.1-0.4,0.1-0.8,0.3-1c5.3-5.4,10.9-10.6,17.2-14.8
			c1.1-0.8,2.4-1.2,3.7-1.8c0.9-0.4,2-0.7,2.8,0c1.1,0.9-0.1,1.8-0.5,2.6c-2.7,5.5-5.5,10.9-8.2,16.4
			C271.9,445.3,271.7,445.9,270.9,445.5z"/>
		<path fill="#FCFCFC" d="M392.5,516c-4.6-4.7-9.3-8-15-10c-2-0.7-0.4-3.1-0.6-4.7c-0.3-3.5,1.3-4.2,4.6-3.9c4,0.4,7.8,1.2,11.7,1.9
			c1.2,0.2,1.9,0.5,1.6,2.2C394,506.1,393.4,510.7,392.5,516z"/>
		<path fill="#FCBEE4" d="M375,476.8c-0.3,6.1-0.3,6-5.6,6.2c-3.7,0.2-7.5,0.4-11.1,1.1c-2.6,0.5-2.7-0.3-2.1-2.4
			c0.9-3.5,0.6-8.1,2.8-10.2c2.1-2.1,6.6,0.4,10.1,0.4c0.5,0,1,0.1,1.5,0.1C374,472.3,377,472.9,375,476.8z"/>
		<path fill="#FDFDFD" d="M394.3,464c0.1-5.3,0.1-5.3,5-4.8c4.6,0.5,9.2,1,13.7,1.6c4.7,0.6,1.9,4.3,2.6,6.5c0.7,2.3-1.3,2.6-3,2.5
			c-5.3-0.4-10.7-0.9-16-1.3C392.8,468.3,394.9,465.4,394.3,464z"/>
		<path fill="#FCFCFC" d="M270.9,426.5c-6.3,5.9-12,11.2-17.7,16.4c-1.9,1.7-4.1,0.3-5.8-0.3c-1.7-0.6-0.4-2.4,0-3.5
			c1.6-4.3,5.1-7.3,7.7-10.9c0.4-0.5,1.3-0.7,2-0.8C261.4,426.6,265.7,426.2,270.9,426.5z"/>
		<path fill="#FCFCFC" d="M378.1,478.4c0.4-5.4,0.4-5.4,5.6-4.8c4.1,0.5,8.2,1,12.3,1.3c2,0.1,2.5,0.8,2.2,2.8
			c-1,7.5-0.9,7.5-8.2,6.4c-2.6-0.4-5.2-0.6-7.8-0.9C377.8,482.7,377.8,482.8,378.1,478.4z"/>
		<path fill="#FBFBFB" d="M333,452.4c3.2,0.2,5.7-0.2,8.1,0.5c1.6,0.4,2.6,1.2,3.2,2.7c2.2,5.6,1.2,7.4-4.7,7.7
			c-3.2,0.2-6.4,0-9.5-1.2c-1.8-0.7-3.2-1.9-3.9-3.7c-1.7-4-0.4-6,3.8-5.9C331.2,452.4,332.5,452.4,333,452.4z"/>
		<path fill="#878787" d="M192.2,446.8c0-6.3,0.4-6.4,4.5-7.3c3.8-0.8,3.8,0.6,3.3,3.5c-1.2,6.9-1,13.7,1.8,20.2
			c0.4,1,2,2.3,0.4,3.2c-1.3,0.8-3.1,0.9-4.5-0.6c-2.1-2.1-3.2-4.8-4-7.5C192.8,454.3,192.4,450.2,192.2,446.8z"/>
		<path fill="#FCFCFC" d="M294.8,448.8c1.5,0,3-0.1,4.5,0c5.4,0.4,8,3.3,7.9,8.7c0,1.1-0.3,1.6-1.4,1.7c-5.6,0.4-11.1-0.7-16.7-1.5
			c-1.2-0.2-1.1-1.1-1.2-2C286.9,448.7,286.9,448.7,294.8,448.8z"/>
		<path fill="#868686" d="M210,422.3c3.7-2.9,7.9-4.3,12.8-3.8c-7.2,7.2-13.4,15.7-24.2,18.2c-1.1,0.3-2.7,1.3-3.4,0
			c-0.7-1.4,1-2.3,1.8-3.3c0.2-0.3,0.6-0.4,0.9-0.5C202,429.3,206.1,425.9,210,422.3z"/>
		<path fill="#868686" d="M333.8,468.1c7.7,0.9,14.2,1.6,20.8,2.3c1.5,0.2,1.9,0.8,1.5,2.2c-0.5,1.7-1,3.3-1.3,5.1
			c-0.2,1.4-1,1.9-2.3,1.8C344.9,478.8,339,475.2,333.8,468.1z"/>
		<path fill="#FCFCFC" d="M260.5,445.6c2.2,0.3,4.4,0.5,6.7,0.8c2,0.2,3.1,1.4,3.6,3.2c0.5,2.1,1.8,4.6,0.2,6.3
			c-1.5,1.6-4.1,1-6.4,0.6c-3-0.5-5.7-1.3-7.8-3.8c-1.6-1.8-2.5-4.1-1.6-6.2C256.2,444.3,258.7,446.3,260.5,445.6z"/>
		<path fill="#FCBDE3" d="M282.9,501.7c2.8,1.5,5.3,3,8,3.9c3.9,1.4,5.3,5.2,3.1,8.8c-1.1,1.8-2,4.4-4.7,4.3
			c-2.7-0.2-3.9-2.4-4.9-4.6C282.8,510.6,282.3,506.2,282.9,501.7z"/>
		<path fill="#F9BCE1" d="M350.8,505.3c-0.4-4,1-6,4.9-6.3c5.3-0.4,10.6-1.4,15.9-1.7c2.9-0.2,2.8,1.6,2.2,3.2
			c-0.5,1.5,1.2,4.8-2.9,3.9C364.3,503.2,357.7,503.5,350.8,505.3z"/>
		<path fill="#F8F8F8" d="M331.8,469.4c2.1,2.4,4,4.7,6.3,6.5c1.4,1.1,1.8,2.2,1.5,3.8c-0.2,1-0.2,2-0.2,3c-0.6,6.4-0.6,6.4-7.6,7.4
			C331.8,483.2,331.8,476.3,331.8,469.4z"/>
		<path fill="#FABCE2" d="M285.7,476.4c0.8,2.6,2.4,4.6,4.7,6c1.2,0.8,3.3,0.7,3.5,2.4c0.4,3.2,0.5,6.4,0.6,9.7c0,1.1-1,0.8-1.7,0.6
			c-3.1-1-5.9-2.6-8.3-4.8c-1.1-1-0.8-2-0.7-3.1c0.2-3.6,0.5-7.2,0.7-10.8C284.8,475.9,285.2,475.9,285.7,476.4z"/>
		<path fill="#FAFAFA" d="M388.9,543.2c-0.6,3.9-1.2,7.3-1.7,10.7c-0.2,1.8-1.4,1.8-2.7,1.8c-2.5-0.2-5-0.4-7.4-0.6
			c-1.1-0.1-3,0.6-2.7-1.4c0.3-1.9-1.1-4.3,1.9-5.7C380.3,546.1,384.7,545.6,388.9,543.2z"/>
		<path fill="#FAFAFA" d="M211.5,438.8c6.7-6,12.8-11.1,20.7-13.7c1.1-0.4,2.4-0.8,3.1,0.4c0.6,1.1-0.8,1.6-1.5,2.2
			c-1.9,1.8-3.8,3.6-5.7,5.4C223.7,437.2,218.7,439.5,211.5,438.8z"/>
		<path fill="#FBFBFB" d="M307.6,484.8c-0.3,2.2-0.5,4.4-0.8,6.7c-0.8,5.4-2.3,6.8-7.4,4.9c-4-1.5-0.8-5.9-1.7-8.9
			c-0.4-1.5,0.3-2.2,2-2.1c2.8,0.2,5-1.1,6.8-3.2C308.7,482.3,307.8,483.7,307.6,484.8z"/>
		<path fill="#FAFAFA" d="M322.5,457.8c0.3,2.1,0.1,3.3-2.6,2.9c-2.1-0.3-4.2,0.3-6.3,0.3c-2.2,0-3.2-1.1-2.8-3.3
			c0-0.2,0-0.5,0.1-0.7c0.7-6.2,3-7.5,8.9-5.2C322.5,453,322.2,455.5,322.5,457.8z"/>
		<path fill="#F8F8F8" d="M241.5,442.6c-2.1-0.4-4.2-0.8-6.9-1.3c5.4-6.5,10.3-13,18.6-16c-5.3,4.5-6.9,11.3-10.9,16.5
			C242.1,442.1,242,442.5,241.5,442.6z"/>
		<path fill="#F8F8F8" d="M426.2,471.6c-7.4-0.7-7.7,0.1-5.9-7.6c0.3-1.2,0.8-2.4,1.5-3.4c1.1-1.6,2.5-1.9,4.1-0.4
			c2.8,2.7,3.4,6.3,3.5,9.9C429.4,472.5,427,470.9,426.2,471.6z"/>
		<path fill="#F7F7F7" d="M226.2,439.8c3.9-6,7.9-10.5,13.5-13.7c1.3-0.7,2.6-1.4,4.2-1.4c1.2,0,2.2,0.6,1,1.8
			c-4.8,4.8-9.1,10.2-15.7,12.8C228.4,439.6,227.7,439.6,226.2,439.8z"/>
		<path fill="#F1F1F1" d="M221.7,440.5c-3.7,1.6-1.6,4.6-1.8,6.9c-0.2,1.6,1.9,3.8-1.3,4.5c-2.7,0.6-5,0.2-6.1-2.7
			c-0.2-0.5-0.4-0.9-0.6-1.4c-2.1-5.7-2-5.9,4-6.5C217.9,441.1,219.8,440.8,221.7,440.5z"/>
		<path fill="#F6F6F6" d="M333.2,524c-0.3-6.1-0.5-12.1-0.8-18.2c-0.2-4.1,3.3-2.7,5-3c2.6-0.4,0.9,1.9,1.1,3
			C339.6,512.6,334.3,517.7,333.2,524z"/>
		<path fill="#FAFAFA" d="M276.9,457.5c-0.9-1.4-1-3.1-1-4.7c0-1.8-1.7-4.6,1.3-5.2c4.8-0.9,6.9,0.8,6.9,5.1c0,1.9,1.3,4.2-1.2,5.7
			C280.7,459.5,278.7,458.8,276.9,457.5z"/>
		<path fill="#F7F7F7" d="M384.1,532.3c-2.1-5.6-3.1-10.7-7.3-13.9c-1-0.8-0.7-1.9-0.3-2.7c0.6-1.2,1.5-0.3,2.3-0.2
			c0.7,0.1,1.4,0.5,2.1,0.8c6.1,2.4,6.6,3.4,5,9.7C385.4,527.7,384.9,529.5,384.1,532.3z"/>
		<path fill="#F9F9F9" d="M241.5,450.3c0.5,2-0.4,3.1-2.8,3.2c-3.8,0.1-6.8-2.2-6.5-5.5c0.2-1.8-0.2-4.5,3-4.6
			C240,443.5,241.4,445,241.5,450.3z"/>
		<path fill="#E8EE83" d="M344.3,510.9c11.2-7.6,31.2-5.3,37,0.3c-12.5-3.7-24.4-3.6-36.1,0.6C344.5,512,344.2,511.6,344.3,510.9z"
			/>
		<path fill="#F4F4F4" d="M358.4,462.3c0.5,2.1-0.7,2.2-2.7,1.9c-4.8-0.8-7-3.1-6.8-7.2c0-0.6,0.1-1.6,0.4-1.7
			c2.5-0.7,5,0.2,7.6,0.3c1.6,0.1,1.1,1.7,1.2,2.7C358.3,459.5,358.3,460.7,358.4,462.3z"/>
		<path fill="#E9F084" d="M393.7,524.4c3,9-1.8,16.7-12.4,19.1c0.9-2.6,2-4.6,4.5-6c5-2.9,7.7-7.3,7.3-13.2
			C393.3,524,393.5,524,393.7,524.4z"/>
		<path fill="#EFEFEF" d="M282.9,468.7c-0.6,6.2-1.1,11.7-1.6,17.4C275.1,481.5,275.6,474.2,282.9,468.7z"/>
		<path fill="#F8F8F8" d="M252.3,451.4c-0.3,1.4,1.2,3.9-2.1,4c-2.8,0-4.3-2.1-4.1-6.7c0.1-1.2-1.6-3.8,1.6-3.8
			C251.4,444.9,252.2,446.1,252.3,451.4z"/>
		<path fill="#E4E4E3" d="M307.6,484.8c-0.3-0.9,0-2-1.1-2.6c3-6.2,1-11.7-3-17.3c1.1,0,1.7,0,2.2,0c5.1,0.4,5.1,0.4,4.2,5.6
			C309.2,475.3,308.4,480,307.6,484.8z"/>
		<path fill="#E8EE8D" d="M375,534.6c0.4-1.8-0.4-4.7,1.9-4.5c2.3,0.2,4.9,2,6,4.1c0.9,1.7-2.9,4-6.1,3.9
			C373.7,538.1,375.8,535.7,375,534.6z"/>
		<path fill="#F4F4F4" d="M228.7,448.7c-0.3,1.5,1.2,3.9-1.9,3.8c-2.6-0.1-3.4-1.7-3.2-4c0.1-1.1,0.2-2.2,0.4-3.3
			c0.3-1.6,0.9-2.9,2.8-2.9c2.2,0.1,1.1,2,1.5,3.1C228.7,446.4,228.6,447.6,228.7,448.7z"/>
		<path fill="#808080" d="M340.6,510.3c0-2.3,0.1-3.9,0-5.5c-0.2-2.2,0.6-3.3,2.7-3.5c1-0.1,2.7-0.9,2.9,0.5
			c0.3,1.9,1.2,4.3-0.9,5.8C344,508.6,342.5,509.2,340.6,510.3z"/>
		<path fill="#7E7E7E" d="M341.3,483.3c0.7-1.4-1-3.5,1.2-4.2c2-0.5,4.6,2.4,4.7,4.5c0.2,3.6-2.8,3.4-4.6,3.4
			C340.1,487,342.2,484.5,341.3,483.3z"/>
		<path fill="#EDB2D6" d="M341,546.9c2.3,1.8,4.6,3.7,6.9,5.4c1.7,1.3,1,1.8-0.5,2.4C342.8,556.3,340.1,553.1,341,546.9z"/>
		<path fill="#414141" d="M310.1,463.5c-8.1-0.9-16.3-1.7-24.9-2.6C287.3,459.7,308.7,461.6,310.1,463.5z"/>
		<path fill="#E1A9CA" d="M354.4,556.9c4.8,2.3,8.8,4.1,12.8,6C362.5,565.2,358,563.3,354.4,556.9z"/>
		<path fill="#CDD374" d="M269.2,471c2.1-6.4,5.3-8.5,13.4-8.4c-5.7,1.5-10.4,4.1-12.6,9.9C268.6,472.6,268.9,471.8,269.2,471z"/>
		<path fill="#D8DD88" d="M389,522.7c3,3.7,1.5,8.6-3.7,11.9C386.6,530.4,387.8,526.6,389,522.7z"/>
		<path fill="#A9AD5E" d="M297.9,504.9c-6-0.2-11.1-2.4-15.6-6.4C287.6,500.5,292.6,503.1,297.9,504.9z"/>
		<path fill="#616161" d="M316.5,464.1c5-0.5,10.2-2.7,15.5,1.7C326.5,465.2,321.5,464.7,316.5,464.1z"/>
		<path fill="#BFC46B" d="M400.6,564.2c1.9,1.3,4.1,0.1,6.1,0.7c-6.8,1.1-13.6,1-20.3-0.2c0.3-1.8,1.4-0.8,2.3-0.8
			C392.6,564.1,396.6,564.1,400.6,564.2z"/>
		<path fill="#DCDCDC" d="M210,422.3c0.3,2.3-2.1,2.5-3.1,3.5c-2.7,2.6-5.2,5.6-8.9,7C201.3,428.6,205.5,425.2,210,422.3z"/>
		<path fill="#838748" d="M388.7,564c-0.8,0.3-1.7-0.1-2.3,0.8c-3.8-0.3-7.5-0.6-10.9-2.8C379.9,562.6,384.3,563.3,388.7,564z"/>
		<path fill="#C9CE71" d="M380,540.4c-0.8,1.8-0.9,4.3-3.7,4c-1.3-0.1-1.3-1.7-1.1-2.4C376,539.7,378.3,541,380,540.4z"/>
		<path fill="#B98AA6" d="M285.7,476.4c-0.4,0-0.8,0-1.3,0c-0.2-2.9-0.2-5.9,1.3-8.8C285.7,470.5,285.7,473.4,285.7,476.4z"/>
		<path fill="#686B38" d="M353.2,513c-0.2-0.7-0.9-0.5-1.4-0.7c2.6-1.4,5.3-1.4,9.2-1.4C357.9,512.5,355.5,512.4,353.2,513z"/>
		<path fill="#F2F2F2" d="M352.3,483.4c0.1,1.2-0.5,1.8-1.7,1.9c-1.4,0.2-1.4-0.7-1.2-1.6c0.2-0.8-0.2-2.2,1.4-2
			C351.8,481.9,352.4,482.3,352.3,483.4z"/>
		<path fill="#A3A75A" d="M344.3,510.9c0.3,0.3,0.6,0.6,0.9,0.9c-1.9,1.3-3.7,2.6-5.6,3.9C340.6,513.4,342.2,511.9,344.3,510.9z"/>
		<path fill="#7A7A7A" d="M276.9,457.5c2,0.3,4,0.6,6,1C280.4,460.8,278.5,460.4,276.9,457.5z"/>
		<path fill="#A0A0A0" d="M306,448.6c0.5,0,1,0,1.5,0c1.7,0.9,3.2,1.8,1.3,4.2C307.9,451.3,307,449.9,306,448.6z"/>
		<path fill="#616161" d="M258.2,457.5c-1.9-0.1-3.2,0.7-4.2-0.7c-0.1-0.1,0.4-0.8,0.8-1C256.5,454.9,257,456.3,258.2,457.5z"/>
		<path fill="#7F8245" d="M324.9,501.9c0.5,0.3,1,0.5,1.5,0.8c-1.8,1.1-3.8,0.7-5.8,0.2C322,502.6,323.4,502.3,324.9,501.9z"/>
		<path fill="#8E9051" d="M269.2,471c0.1,0.6,0,1.3,0.8,1.6c-0.3,1.5-0.6,3.1-1,4.6C268.6,475,267.8,472.9,269.2,471z"/>
		<path fill="#646464" d="M241.5,442.6c0.3-0.2,0.5-0.5,0.8-0.7c0,1.3,2.8,0.5,1.7,2.5c-0.2,0.4-0.1,1.2-0.8,0.9
			C242.2,444.7,241.7,443.8,241.5,442.6z"/>
		<path fill="#505050" d="M271.9,458.5c0.5-0.3,0.9-0.7,1.5-0.8c0.9-0.2,1.4,0.4,1.5,1.2c0.1,0.8-0.6,0.9-1.2,0.9
			C272.9,459.7,272.3,459.5,271.9,458.5z"/>
		<path fill="#8F8F8F" d="M270.9,445.5c0.5-0.2,0.9-0.5,1.4-0.7c0.1,0.2,0.2,0.5,0.3,0.6c0.7,0.8,2.1,1.7,0.8,2.6
			c-1.1,0.8-1.2-1.2-1.9-1.7C271.2,446.2,271.1,445.8,270.9,445.5z"/>
		<path fill="#6A6D39" d="M393.7,524.4c-0.2,0-0.4-0.1-0.7-0.1c-0.6-1.3-1.1-2.5-1.7-3.8C393.4,521.3,394,522.6,393.7,524.4z"/>
		<path fill="#5D5D5D" d="M241.8,455.8c1-1.1,1.8-1.8,2.9-1.3c0.2,0.1,0.5,0.7,0.4,0.9C244.3,456.7,243.2,456,241.8,455.8z"/>
		<path fill="#E7E7E7" d="M134.9,344.2c2.8-1.4,5.6-1.7,8.6-0.7C140.7,345.2,137.8,344,134.9,344.2z"/>
		<path fill="#FEAB79" d="M588,112.3c-8.8,8.9-20.1,9.5-31.6,9.4c-16.5-0.2-26.6-10.3-34.8-23.1c-2.6-4-4.8-8.1-5.9-13
			c4.8,5.3,9.5,10.6,14.3,15.9c0.8,0.8,1.2,2.6,2.8,1.1c1.3-1.3-0.3-2.1-0.9-2.7c-5.8-6.4-11.6-12.7-17.4-19
			c-2.6-2.9-4.8-6.1-6.8-9.4c-1.1-1.8-2.4-2.8-4.4-1c-6.8,6.1-14.4,11.3-20.7,17.9c-0.7,0.7-1.4,1.4-2.1,2.2
			c-5.6,6.3-5.7,7.3-1.5,14.6c6.4,11.3,12.7,22.6,20.3,33.2c4,5.6,5,5.8,11.1,2.5c4.6-2.5,9.1-5.2,14.3-6.3
			c6.5-1.3,12.7-0.5,18.4,2.9c8.1,4.8,15,10.9,18.5,19.9c4.9,12.8,0.4,23.4-8.3,32.8c-5.4,5.9-12.4,6.9-19.9,5.9
			c-1.1-0.2-2.2-0.4-3.3-0.7c-1-0.2-2.5-1.3-2.8,0.4c-0.2,1.2,1.5,1.3,2.5,1.5c3.5,1,7,1.8,10.8,1.7c-2.3,1.3-4,2.9-7.4,2.7
			c-13.7-0.9-21.1-10.7-29.3-19.5c-11.8-12.6-20.6-27.2-28.5-42.4c-0.1-0.2,0.1-0.4,0.1-0.9c4.1,3.5,6.7,8.3,11.4,11
			c-4.8-7.1-10.2-13.6-16.3-19.7c-1.3-0.2-1.3-1.2-1.3-2.2c-12.8-21-24.8-42.4-36-64.3c-1.1-2.1-1.6-3.7,0.6-5.5
			c15.8-12.9,28.6-28.9,43.1-43.2c2.5-2.5,5.4-6,8.2-6c2.7,0,3.5,5,5.1,7.8c7.9,13.9,14.9,28.3,25.1,40.8
			c5.5,6.7,11.5,12.8,17.6,18.9c1.9,1.9,3.7,2.1,5.8,0.3c5.3-4.7,11.4-7.8,18.6-8.9c15.6-2.4,31.5,5.2,35.9,21.5
			c2.2,8.1-2.4,17.4-9.9,21.5c-5,2.7-10.2,3.8-15.7,4.6c-1.1,0.1-2.9-0.1-2.4,1.9c0.4,1.9,1.8,0.7,2.7,0.6c7.1-0.5,13.4-3,19.5-6.4
			C587.9,111.3,588,111.8,588,112.3z"/>
		<path fill="#F5A575" d="M513.9,89.3c-4.2-3.9-7.5-8.4-10.8-12.8c-1.5-1.9,0-2.6,1.1-3.6c1.7-1.7,2,0.3,2.6,1.1
			c1.6,2.2,3.4,4.3,4.6,6.7C512.8,83.4,512.6,86.6,513.9,89.3z"/>
		<path fill="#6E625B" d="M455.2,109.5c-5.9-8.2-10.9-16.9-15.1-26.1c0.3-0.2,0.6-0.3,0.9-0.5C445.8,91.7,450.5,100.6,455.2,109.5z"
			/>
		<path fill="#68442E" d="M505.2,140.4c2-2.1,4.6-3.1,7.3-3.8C510.5,138.6,508.2,140.1,505.2,140.4z"/>
		<path fill="#B77B56" d="M588,112.3c-0.3-0.2-0.5-0.5-0.8-0.7c1.2-1.5,2.4-3,3.6-4.5C590.7,109.5,589.9,111.3,588,112.3z"/>
		<path fill="#85583D" d="M469.1,128.2c0.4,0.7,0.9,1.5,1.3,2.2c-1-0.3-1.4,2.3-2.6,0.8C466.7,129.7,468.9,129.3,469.1,128.2z"/>
		<path fill="#FD005E" d="M381.5,160c-1.2-6.5-1.8-12.8-3.8-18.8c-2.2-6.3-5.3-11.8-11.3-15.1c-1.3-0.7-1-1.8-1.2-2.8
			c-0.1-0.7-0.2-1.6-1.2-1.6c-1.1,0-0.8,1-0.8,1.7c1,11.2,2.7,22,14.5,27.6c-1.9,0.8-4.1-2-4.7,0.1c-0.6,2,2.4,1.7,3.8,2.6
			c0.8,0.5,1.9,0.7,1.8,2.3c-3.7,0.2-6.6-1.8-9.3-3.9c-11.5-9.1-19.1-20.6-19.7-35.7c-0.3-6.7,4.3-9.8,10.8-8.5
			c12.5,2.6,18.7,11,21.2,22.7c0.9,4,2.9,8.4,1.5,12.1C380.9,148.3,382.5,154,381.5,160z"/>
		<path fill="#FD005E" d="M389.4,186.9c0,1.6,0.3,3,2.3,2c6.8-3.4,13.2-11.9,9.5-20.3c-2.3-5.3-6.9-8-12.2-9.7
			c-1.3-0.4-3-0.4-2.6-2.4c0.5-2.2,2.2-0.7,3.3-1c0.9-0.2,2.4,1.2,2.7-0.7c0.4-2.1-1.5-1.4-2.6-1.6c-1.1-0.2-2.3-0.3-4.3-0.5
			c2-1.3,3.4-0.7,4.6-0.9c1.4-0.2,3.4,1.3,3.9-1.4c0-0.2,0.9-0.4,1.3-0.3c8.7,1.3,18.4,5.7,20.1,16.6c0.3,1.9,0,3.4-1,5.2
			c-1.6,2.8-2.7,6-3.2,9.2c-0.6,4.1-3.1,6.8-5.9,9.2c-1.4,1.2-2.4,4.5-5.6,1.7c-0.6-0.6-3.8,1.3-5.5,2.5c-2.6,1.7-3.5,0.8-4.3-1.8
			c-0.6-2.2-1.4-4.2-1.7-6.5C389.2,185.7,389.5,186,389.4,186.9z"/>
		<path fill="#FB005E" d="M384.7,189.8c1.4,5.7,3.3,11.2,6.7,16.1c0.9,1.4,1.9,2.7,3.1,0.3c1-2.1,2.5-0.6,3.3-0.2
			c3.4,1.5,6.2-0.1,8.1-2.2c2-2.2,3.1-1.1,4,0.4c1.8,2.8,1.8,6,0.1,8.9c-1.7,2.9-4.6,3.4-7.5,2.7c-8.7-2.1-15.2-6.7-17.1-16.1
			c-0.6-2.8-1.5-5.5-1.6-8.4C383.7,190.5,383.3,189.7,384.7,189.8z"/>
		<path fill="#FCFCFC" d="M389.4,186.9c-0.1-0.6-0.4-0.9-1-0.8c-0.5-4.4-1-8.8-1.6-13.2c-0.1-0.6-0.2-1.6,0.6-1.5
			c1.2,0.2,2.6,0.5,3.4,1.3c1.4,1.3,2.1,1.9,4.3,0.8c2.5-1.3,2-2,0.7-3.4c-2.4-2.6-5.3-4.6-8.1-6.6c-0.8-0.6-1.8-1.3-1.3-2.4
			c0.6-1.2,1.8-0.4,2.6-0.2c6.4,2,10.4,6.6,10.7,12C400,179,396.2,184,389.4,186.9z"/>
		<path fill="#F9005D" d="M373.5,163.6c-9.4,9.3-3.9,31.2,7.9,34.2c0.9,0.2,1.8,0.6,1.7,1.7c-0.3,1.6-1.6,0.8-2.4,0.7
			c-8.5-0.7-15.8-9.3-16.3-19.1c-0.3-5.9,0.9-11.4,5.4-15.7C370.7,164.6,371.5,163.6,373.5,163.6z"/>
		<path fill="#E40054" d="M381.7,195.1c-2.8-0.5-4.7-2.3-6.1-4.3c-4.8-6.5-6.3-13.7-3.6-21.5c0.8-2.3,2.2-3.9,4.6-4.6
			c1-0.3,2.4-0.8,2.8,0.7c0.3,1.2,0.9,2.5-0.8,3.6c-7.4,4.9-8,7.4-4.5,15.6c1.3,3,2.8,5.9,6,7.3
			C381.3,192.4,382.3,193.1,381.7,195.1z"/>
		<path fill="#F6F6F6" d="M381.1,188.2c-6-3-8.4-11.4-5-15.1c0.9-0.9,2-1.9,3.2-1.7c1.4,0.3,0.7,1.9,0.8,2.9
			c0.2,2.2,0.3,4.5,0.5,6.7C380.8,183.3,380.9,185.6,381.1,188.2z"/>
		<path fill="#EFEFEF" d="M376.7,145.4c-5.8-4.7-9.9-11.7-10.4-17.2C372.3,132.3,375,138.1,376.7,145.4z"/>
		<path fill="#9A0036" d="M399.3,194.9c-2,1.5-4,3.3-7.4,3.6C394.2,195.8,396.9,195.7,399.3,194.9z"/>
		<path fill="#BF0045" d="M390.9,170c-1.6-0.4-3.7,0.2-4.5-1.8c-0.1-0.4,0.2-1.3,0.3-1.3C388.7,167.1,390,168.2,390.9,170z"/>
		<path fill="#781436" d="M384.7,189.8c-0.7,0.3-0.5,0.9-0.7,1.5c-1.4-2.3-0.7-4.7-0.9-7.1C384.2,185.9,384.7,187.8,384.7,189.8z"/>
		<path fill="#9FFEFE" d="M463.5,298.5c-4.5,9.2-9.1,18.3-13.6,27.5c-7.8,16.1-21.3,24.9-37.9,29.8c-2,0.6-3-1.3-4.9-1.4
			c-6.2-0.3-12.2-1.8-18.2-4.1c-7.4-2.8-10.2-9.1-11.2-15.6c-2.2-15,3.5-26.9,15.8-35.9c9.1-6.7,18.3-7.5,28.4-2.6
			c4.2,2,8.5,4,13.1,5.4c2.4,0.7,2.7-0.1,3.6-1.4c7.9-11.1,15.7-22.2,23.8-33.2c8.2-11,16.4-22,26.6-31.4c0.5-0.4,0.9-0.9,1.4-1.3
			c5.2-4.4,6.3-4.2,7.7,2.2c1.9,8.5,6.5,15.6,11,22.8c0.9,1.5,2.5,2.2,4.3,2.5c10,1.7,18.8-0.2,26.3-7.3c0.3-0.3,0.8-0.5,1.4-0.9
			c0.3,2.8-1.1,4.8-2.3,6.7c-5.1,8.1-11.5,15.1-19.2,20.8c-5.1,3.8-13,3.4-18.6-0.5c-6-4.1-11.6-8.7-16.8-13.7c-2.1-2-2.9-2-4.6,0.8
			c-7.4,11.7-15.2,23.2-22.7,34.8c-0.8,1.2-3.1,2.9-1.6,3.9c1.7,1.2,2.1-1.7,3-2.8c1.6-2,3-4.3,4.5-6.4
			C464.1,297.1,464.2,297.6,463.5,298.5z"/>
		<path fill="#7FCCCC" d="M434.4,298.9c-6.8-1.3-12.4-5.7-19-7.5C423.2,290.3,428.3,296,434.4,298.9z"/>
		<path fill="#649393" d="M463.5,298.5c-0.2-0.5-0.4-0.9-0.6-1.4c0.6-1.5,1.4-3,3.7-4.4C465.4,295.3,464.8,297.1,463.5,298.5z"/>
		<path fill="#DF00FE" d="M242.3,280.4c-1.5,1.4,0,2.3,0.6,3.2c1.5,2.6,2.8,5.3,3.4,8.3c1.4,6.5-2,11.2-8.6,11.7
			c-6,0.5-11.3-1.6-16-5.1c-2.4-1.8-3-4.7-3.4-7.7c-0.5-4.2-0.6-8.3-3.5-12c-0.9-1.2-1.7-1.8-3-2.1c-11.1-2.8-22.3-2.2-33.4-0.4
			c-3.1,0.5-3.6-0.3-3.5-3.1c0.3-8.1,0.4-16.2,0.6-24.3c0.1-3.5,0.8-5.6,5.2-6.5c9.1-1.8,17.9-5.2,27.2-6.4c7.1-0.9,14.1-1.8,21.2-2
			c1.5,0,3.5,0.6,3.3-2.2c-0.1-1,0.9-1,1.6-1.1c9.4-0.9,18.7-0.6,27.4,3.8c1.4,0.7,2.9,1.1,2.1,3.4c-0.2,0.7,1.3,2,2,3
			c7.3,10.3,3.9,23.5-7,27.8c-8.3,3.3-19.3-1.5-22.8-9.6c-1.7-3.9-2.5-7.6-1.1-11.8c1.4-4.4-0.5-6.5-5.2-6.8
			c-4.9-0.3-9.7,0.9-14.4,1.9c-4.3,0.9-8.5,2.1-12.9,1.6c-3.1-0.3-4.9,1.3-5.5,4.3c-0.7,2.9-1,5.9-0.8,8.9
			c0.4,6.3,4.1,10.3,10.4,11.4c2,0.3,3.9,0.9,5.9,1.1c1.9,0.2,3.7,1.5,5.7-0.7c0.8-0.9,3.8,0,5.7,0.3c7.4,0.9,13.9,3.8,19,9.4
			C242.7,279.4,242.8,280,242.3,280.4z"/>
		<path fill="#D800F5" d="M204.2,265.7c-5.5-3.1-8-11.1-5.4-15.7c1.3-2.3,3.4-0.6,5-0.6c2.1-0.1,0.4,1.6,0.4,2.4
			C204.2,256.2,204.2,260.6,204.2,265.7z"/>
		<path fill="#AE06C5" d="M269.3,241.9c5,4.7,5.7,14.2,0.8,19.6C272.4,254.9,272.3,248.4,269.3,241.9z"/>
		<path fill="#A508BB" d="M242.3,280.4c0.1-0.5,0.1-1,0.2-1.6c3.6,3.2,5.7,7.4,7.5,11.8c1.1,2.7,0.5,5-1.5,8
			C248.8,291.2,246.9,285.3,242.3,280.4z"/>
		<path fill="#CE00EA" d="M218.4,244.6c4.7-1.4,9.5-2.8,14.2-1.1c0,0.4,0,0.8,0,1.1C227.9,244.6,223.1,244.6,218.4,244.6z"/>
		<path fill="#6B007B" d="M245.3,270.7c3.9,0.5,7.2,1.1,10.9,0.8C252.8,273.7,248.9,273.4,245.3,270.7z"/>
		<path fill="#7A008B" d="M188.6,237.9c-2.7,1.7-5,2.5-8.6,2.7C183,238.6,185.3,237.9,188.6,237.9z"/>
		<path fill="#8F00A3" d="M200.9,246.7c2.6-0.7,4.1-1,5.4,0.2c0.5,0.4-0.1,1-0.5,1.2C203.9,249.2,203.2,247.4,200.9,246.7z"/>
		<path fill="#F8D600" d="M96.2,445.5c9.1-0.8,15.3-5.9,19.5-13.7c4-7.4,4.9-15.3,3.8-23.6c-0.1-1-1.1-2.5,0.3-2.9
			c1.5-0.5,1.9,1,2.4,2.2c3.3,9,1,17.6-2.4,25.8c-3.5,8.5-19.4,15.3-28.2,12.8C92.8,444.2,94.6,445.5,96.2,445.5z"/>
		<path fill="#E2C300" d="M118.2,402.1c18.2-7.7,36.3-14.4,52.8-25.8c-0.9,3.3-2.9,4.8-5.1,5.9c-14.1,6.9-28.3,13.6-42,21.2
			C121.8,404.5,120.2,403.3,118.2,402.1z"/>
		<path fill="#BDA300" d="M96.2,445.5c-1.5,0.6-3.3-0.6-4.6,0.8c-4.5-0.8-8.2-3.1-10.9-6.9C85.3,442.8,90.4,444.9,96.2,445.5z"/>
		<path fill="#5CFE53" d="M595.6,318.6c8.2-3.5,15.9-3.2,23.5-1.8c13.4,2.5,25.9,7.1,37.4,14.7c7,4.6,10.1,11.5,11.7,19.3
			c1.8,8.6,2,17.4,1.6,26.1c-0.7,12.5-8.3,19.9-19.3,23.7c-13.2,4.6-26.5,4.3-39.4-1.6c-11.8-5.4-18.6-21.8-13.8-34
			c1.3-3.3,3.7-6,7.9-6.5c6.1-0.8,12-2.4,18.2-2.2c4.6,0.1,8.9,1.4,12.9,3.5c1.2,0.6,2.4,1.1,2.3,3c-0.1,1.6,1.4,2.3,2.5,3
			c1.9,1.2,3.9,2.1,5.4,3.9c1.7,1.9,3.7,1.2,4.4-1.3c0.3-1.1,0.4-2.2,0.4-3.3c-0.2-7.8-0.9-15.4-3.6-22.8c-1.6-4.3-4.8-7.4-8.5-9.7
			c-11.4-6.8-23.2-12.6-36.9-13.3C600.3,319.2,598.4,318.9,595.6,318.6z"/>
		<path fill="#58EF50" d="M620.6,404.5c6.9,0.8,13,1.4,19.3,0.6c6.2-0.8,12-2.7,18.4-5.8C648.9,409.8,636.1,410.6,620.6,404.5z"/>
		<path fill="#2700FE" d="M194.7,114.9c4.6,11.7,24.2,17,34.5,9.5c-0.5,5.4-3.7,8.3-9.5,8.2c-8-0.2-15.5-2.9-21.2-8.3
			c-6-5.7-9.8-13.1-6.8-21.8c1.4-4,3.7-7.7,5-11.8c3.9-12.1,9.8-23,19-31.9c1.2-1.2,2.4-2.3,4.2-1.4c8.4,4.1,17.7,4.1,26.5,6.3
			c6.7,1.7,6.9,1.5,3.5,7.4c-2.6,4.4-4.1,8.9-3.3,14.2c0.7,4.6,3.2,7.1,7.3,8.4c2.7,0.8,5.6,1.2,8.4,1.9c3.2,0.9,5.2,2.6,4.7,6.5
			c-0.5,3.6-2.3,5.6-6,6c-5.8,0.6-11.1-1.2-16.3-3.3c-0.8-0.3-1.8-1.7-2.5-0.3c-0.7,1.3,0.9,1.6,1.7,1.9c3.9,2,8.1,3.4,12.4,3.9
			c4.4,0.5,8.8,0.3,12.1-3.6c0.4,5.8-1.9,8.5-7.2,8.8c-4.2,0.2-8.9-0.3-11.8-2.9c-3.9-3.4-8.8-5.2-12-9.4c-1.7-2.3-2.8-4.7-2.7-7.6
			c0-0.5-0.2-1.3,0-1.4c5.6-3-0.2-8.3,2.4-12c0.2-0.3-0.4-1.7-1.3-2.1c-5.4-2.1-10.5-5.5-16.7-4.4c-1.1,0.2-2.1,0.3-2.8,1.5
			c-2.9,5.1-6.1,10-7.8,15.7c-1.7,5.6-1.2,6.7,4.1,8.9c4.1,1.6,8,3.4,11.5,6.1c4.6,3.6,6.2,7.4,4.7,11.5c-1.9,4.9-5.6,7.2-11.6,6.7
			c-7.8-0.7-14.2-4.3-19.6-9.9C196.7,115.6,196.4,114.5,194.7,114.9z"/>
		<path fill="#1B00C2" d="M219.5,78.6c5.8-1.7,10.5,1.5,15.5,3.7C229.5,82.2,224.9,78.5,219.5,78.6z"/>
		<path fill="#5BFD52" d="M669.6,402.6c0.2-4.9,2.4-7.9,6-7.8c6.7,0.2,10.7,3.2,10.7,8c-0.1,4.3-4.7,9.9-8.1,9.9
			C673.4,412.6,669.5,407.9,669.6,402.6z"/>
		<path fill="#5BFD52" d="M675.6,380.6c0-5.2,5-10.3,10-10.3c2.7,0,7.3,5.8,7.3,9.4c0,4.4-5,7.7-11.6,7.6
			C677.6,387.3,675.6,384.9,675.6,380.6z"/>
		<path fill="#030202" d="M461,66.3c-0.1-2.2,1.7-5.1,4-7.6c5.6-6.1,11.3-12,16.9-18.1c1.5-1.7,2.9-1.7,4.3-0.1
			c1.4,1.7,2.9,3.5,4.1,5.3c2,3.2,1.9,6.3-0.9,9.2c-7.3,7.3-15.1,14.2-21.7,22.2c-0.8,1-1.7,1.1-2.5,0.1
			C462.9,74.6,460.9,71.6,461,66.3z"/>
		<path fill="#0C0004" d="M377.2,128.3c-0.2,0.1-0.7,0.3-1.1,0.5c-0.7,0.5-1.2,0-1.6-0.5c-2.3-2.8-4.8-5.3-7.9-7.2
			c-0.5-0.3-1-0.7-0.6-1.5c0.3-0.5,0.9-0.6,1.3-0.4c3.7,1.9,6.7,4.7,9.4,7.7C376.8,127.2,376.8,127.5,377.2,128.3z"/>
		<path fill="#090003" d="M362.4,133.2c0,1,0.2,1.7-0.9,1.9c-1.2,0.2-1.4-0.5-1.5-1.5c-0.3-2.5-0.7-4.9-1.1-7.4
			c-0.1-0.8-0.3-1.6,0.8-1.7c0.8-0.1,1,0.5,1.2,1.2C361.3,128.3,361.9,130.8,362.4,133.2z"/>
		<path fill="#130006" d="M370.2,114.9c-0.3,0.9-0.8,1.1-1.7,0.6c-2-1.2-4.1-2.3-6.1-3.5c-0.6-0.3-1.1-0.7-0.6-1.4
			c0.3-0.5,0.5-1.5,1.2-1.1c2.4,1.4,4.7,3.1,7.1,4.6C370.2,114.4,370.2,114.7,370.2,114.9z"/>
		<path fill="#0C0004" d="M410.8,173.9c-0.2,1.3-0.6,3.6-1,5.9c-0.2,1-0.2,2.1-1.7,1.8c-1.6-0.3-1-1.4-0.8-2.3c0.7-3,1.2-6.1,1-9.2
			c-0.3-5.2-3.7-8.8-6.8-12.5c-0.5-0.6-2.2-1.2-0.9-2.3c0.9-0.7,1.5,0.5,2.1,1C408.4,161.5,411,166.8,410.8,173.9z"/>
		<path fill="#030004" d="M179.1,263.2c0-2-0.2-4,0-6c0.5-4.9,5-8.8,9.8-8.4c1.5,0.1,2.5,0.9,2.7,2.5c0.5,4.7,1,9.4,1.5,14.1
			c0.2,1.8-1,2.6-2.4,3.2c-1,0.4-2.1,0.6-3.2,0.8C179.2,271.5,179.2,271.5,179.1,263.2z"/>
		<path fill="#010009" d="M235.5,74.2c-3.8-0.3-6.9-1.9-10.2-3c-1.5-0.5-2-2.1-1.4-2.9c1-1.3,1.6-3.5,4.2-2.8
			c3.1,0.9,6.3,1.6,9.4,2.3c1.5,0.4,3.6,0.3,3.2,2.6c-0.4,2-1.8,3.5-4,3.7C236.2,74.2,235.7,74.2,235.5,74.2z"/>
		<path fill="#FDFDFD" d="M466,75.4c-3.9-7.9-3.7-10.5,2-16.4c4.1-4.2,8.4-8.2,12.2-12.7c1.1-1.3,2-1.3,2.6,0.4
			c0.1,0.2,0.2,0.5,0.3,0.7c3.9,7.8,3.9,7.9-2.6,13.5C475.3,65.3,471.1,70.7,466,75.4z"/>
		<path fill="#E89C6F" d="M488.7,53.4c-2-3.6-3.4-6.3-4.9-9c-0.5-0.9-0.6-1.7,0.3-2.2c0.9-0.6,1.3,0.4,1.7,0.9
			C487.8,45.9,490.9,48.3,488.7,53.4z"/>
		<path fill="#EDEDED" d="M190.5,266.2c-3-0.4-4.1-2.3-4.4-4.8c-0.3-3.1,0.1-5.9,3.6-7.6C190.5,258.1,190.5,262,190.5,266.2z"/>
		<path fill="#D300F0" d="M186.1,266.6c-4.2,2-4.2,2-4.6-2.5c-0.2-2.7-0.7-5.5,0.2-8.2c0.4-1.3,1.1-2.5,2.6-2.1
			c2.1,0.6,0.3,1.8,0,2.6C183,260.1,183.9,263.4,186.1,266.6z"/>
		<path fill="#2100E1" d="M225.9,67.5c4.6,0.3,8.3,2.1,12.7,3.1C234.6,72.5,229.1,71.1,225.9,67.5z"/>
	</g>
</g>
</svg>
