<?xml version="1.0" encoding="utf-8"?>
<!-- Generator: Adobe Illustrator 18.0.0, SVG Export Plug-In . SVG Version: 6.00 Build 0)  -->
<!DOCTYPE svg PUBLIC "-//W3C//DTD SVG 1.1//EN" "http://www.w3.org/Graphics/SVG/1.1/DTD/svg11.dtd">
<svg version="1.1" id="Layer_1" xmlns="http://www.w3.org/2000/svg" xmlns:xlink="http://www.w3.org/1999/xlink" x="0px" y="0px"
	 viewBox="0 0 526 697.8" enable-background="new 0 0 526 697.8" xml:space="preserve">
<g>
	<path fill="#FDFDFD" d="M0.1,348.9c0-115.1,0-230.2-0.1-345.4C0,0.3,0.9,0,3.7,0c172.9,0.1,345.7,0.1,518.6,0
		c3.1,0,3.6,0.6,3.6,3.7c-0.1,230.1-0.1,460.2,0,690.4c0,3.4-1,3.7-3.9,3.7c-172.9-0.1-345.7-0.1-518.6,0c-2.8,0-3.4-0.7-3.4-3.5
		C0.1,579.2,0.1,464.1,0.1,348.9z"/>
	<path d="M313,277.7c-1.8,9.5-3.5,18.9-5.3,28.3c-3.7,19.9-7.4,39.7-11.1,59.6c-0.5,2.6-0.2,4.6,1.3,7.2c4.9,7.9,3.5,16.2,0.5,24.5
		c-1.3,3.6-4.4,6.3-5.2,10.2c-0.2,1-1.5,1-2.2,1c-3.7,0.4-5.4,2.6-5.8,6.1c-0.1,1-0.5,1.9-0.8,2.9c-0.9,2.3-0.6,3.8,1.8,5.4
		c8.5,5.9,7.8,21.9-1.2,27.9c-2.4,1.6-2.9,3.2-2.8,5.7c1,42.1,2,84.2,3,126.3c0.2,7.5,0.3,15,0.4,22.5c0,1.5,0.3,2.5,1.8,3.3
		c5.4,3,8.1,8,9.1,13.9c0.4,2.7,1.5,3.9,4.2,4.6c10.5,2.7,19.1,8.5,25.5,17.2c6.8,9.4,7.8,23.9-0.7,33.3c-6,6.6-13,10.8-21.4,13.6
		c-17.1,5.8-34.4,5.9-51.5,0.8c-10.5-3.1-19.8-8.8-24.4-19.3c-1.9-4.3-2.8-9.1-1.9-14.5c2.8-16.4,14.6-23.5,28.1-28.9
		c4.1-1.6,6.6-3.1,7.3-7.8c0.6-4.7,2.9-9.1,7.2-11.7c1.7-1,1.5-2.4,1.5-3.9c-0.8-30-1.6-59.9-2.4-89.9c-0.5-20.2-1.1-40.5-1.6-60.7
		c0-1.5,0.1-2.7-1.7-3.6c-10.7-5.2-10.1-22.7,0-29.3c1.7-1.1,3.9-1.6,4.2-4.3c0.5-4.4,2.7-9,0-13.1c-2.1-3.2-1.7-6.2-1.4-9.5
		c0.1-1.2,1.5-2.7-0.7-3.4c-1.7-0.5-3.2,0-4.1,1.7c-0.1,0.1-0.1,0.2-0.2,0.3c-3.5,6-5.2,6.7-11,5.2c-5.3-1.4-8.6-5.8-8.7-11.1
		c-0.2-7.3,1.8-14.1,5.4-20.3c2-3.5,4.6-6.3,9.2-5.7c2.9,0.4,9.4,6.2,10.1,8.9c0.2,0.9-0.4,1.4-0.6,2.1c-0.5,2.2,0.9,2.9,2.7,3.6
		c2.6,1,2-1,2.3-2c1.3-3.6,3.3-6.5,7.2-7.5c1.8-0.5,2.4-1.7,2.7-3.4c5.1-29.4,10.3-58.7,15.4-88.1c0.2-0.9,0.2-1.8,0.4-2.6
		c1.1-3.3,0.7-6.1-1.9-8.8c-2.6-2.8-4-6.2-4.1-10.2c-0.1-3.5-4.2-7-7.2-6.6c-11.3,1.8-19.3-2.7-22.9-13.6c-4.7-14,1-27.9,13.8-34.9
		c4.8-2.6,10.1-2.5,15.2-0.6c9.3,3.4,16,9.5,18.4,19.5c0.7,2.7,0.4,5.5-0.4,8.2c-1.3,4.3,0.7,7.5,5.2,8.4c6.4,1.2,10,5.6,13.3,10.8
		c2.3,3.6,3.7,7.1,3.8,11.4c0,0.8,0.8,1.8,1.5,2.5c4.5,5.5,8.3,11.5,13.3,16.6c2.4,2.3,1.6,5.4,0,8c-2.5,4-6.1,6.9-10.5,8.7
		c-3,1.2-5.9,0.2-8.5-1.5c-4.2-2.8-7.4-6.6-10.6-10.4C315.1,279.5,314.5,278.4,313,277.7z"/>
	<path d="M186,321.9c-6.5-1.2-12.6-3.5-18.5-6.6c-1-0.6-2.7-2.9-3.8-0.4c-0.9,2.1-2.2,4.7,0.7,6.6c1.3,0.9,2.8,1.9,4.4,1.9
		c4.1,0.1,5.5,3.3,6.6,6.2c2.4,6.4-0.7,10.4-7.6,10.4c-1,0-2,0-3-0.1c-11.5-1.2-15.5-6.2-14.2-17.7c0.5-5.1,1.2-10.2,4.1-14.6
		c1.1-1.7-0.3-2.6-1-3.6c-2.9-4.2-4.3-8.9-4.3-14c0-9,7.3-19,16.5-22.5c9.7-3.7,18.8-3.7,26.2,4.9c0.4,0.4,0.7,1.2,1.5,0.8
		c1.3-0.6,0.4-1.5,0.1-2.2c-3-6.5-4.6-13.3-3.6-20.3c2.3-15.7,8.5-29.4,22.3-38.5c6.7-4.4,14.3-2.1,17.9,5.1
		c3.8,7.7,2.5,15.8,1.4,23.9c-1.7,12.7-10.1,20.8-19.6,28c-1.7,1.3-2.1,1.6-0.5,3.6c5.5,6.6,10.1,13.8,11.7,22.6
		c2.2,12.4-4.7,21.9-16,25.5c-3.9,1.3-8,1.9-12.2,1.9C192,323.5,189,322.7,186,321.9z"/>
	<path d="M431.3,260.2c0-2.1,0-4.2,0-6.4c0-7.7-2.2-14.3-8.5-19.4c-4.4-3.6-8.3-8-12.7-11.6c-9.5-7.6-20.6-11.2-32.6-12.6
		c-3.6-0.4-7.2-1-10.7-1.6c-1.2-0.2-2.7-0.6-2.9-2c-0.3-1.6,1.3-1.9,2.3-2.6c7.9-5.2,16.6-5.5,25.5-3.9c15.3,2.8,30.2,6.8,43.6,15
		c6.2,3.8,11.7,8.5,17.2,13.2c4.4,3.7,7,8.5,8,14c2.3,13.5,5.2,27,3.5,40.9c-2.3,18.1-9.3,33.5-24.7,44.2
		c-22.4,15.6-53.2,13.7-71.8-7.9c-4.2-4.9-6.1-11-8.7-16.8c-4.5-10.2-2.9-20.4,0.3-30.2c3.1-9.4,11.9-12.3,20.8-13.6
		c11.4-1.6,22.5-0.1,33.3,4c3.3,1.3,5.8,3.4,7.5,6.4c0.8,1.4,1.7,2.8,2.6,4.1c1.1,1.6,2,4.3,4,4c2.3-0.4,2.7-3.3,3.3-5.4
		C431.8,268.2,431.4,264.2,431.3,260.2z"/>
	<path fill="#FEDB00" d="M31.1,216.9c0.4,0,0.8,0,1.2-0.1c5.5,0.1,11-0.4,16.3-1.9c2.8-0.8,5.3-2,7.4-4.1c1.6-1.7,1.7-3.2,0.3-4.9
		c-2.4-2.9-5-5.6-8.2-7.6c-1.1-0.7-2.3-1.4-1.8-2.9c0.4-1.2,1.8-1.3,2.9-1.3c4,0.1,8,0.6,11.7,2.2c5.2,2.3,6.8,5.7,5.5,11.2
		c-0.2,0.9-0.9,2-0.1,2.8c1,0.9,2.1,0,3.1-0.4c4.6-2,5.5-6,2-10c-3.3-3.8-7.1-7-11.2-9.8c-1.4-1-3-1.9-4.2-3.1c-0.5-0.6-1-1.2-0.7-2
		c0.3-0.9,1.2-0.7,1.9-0.8c6.6-0.6,12.5,1.3,18,4.7c0.2,0.2,0.4,0.5,0.6,0.7c2.5,5.1,5.8,10,4.9,16.1c0,0.2,0,0.3,0,0.4
		c0,1.8,2,3.5,0.6,5.3c-1.5,2-3.8,2.7-6,3.6c-8,3.3-16.5,5-24.7,7.6c-1.3,0.4-2.6,0.8-3.9,1.3c-5.5,2.1-5.3,2.1-5.4,7.8
		c-0.1,7.3-2.4,14-7.1,19.7c-6.4,7.7-17.3,6.7-22.9-1.8c-6.8-10.3-3.8-20.3,8-26.8C23.3,220.9,27.4,219.3,31.1,216.9z"/>
	<path d="M50,111.4c8.5,0.5,16,3.4,23.2,6.9c2.9,1.4,3.9,1,5.2-2.2C84.8,100,87,82.9,90.9,66.2c3.3-14.6,10.6-26.6,24.9-33.1
		c13.8-6.3,30-4.1,39.5,6.1c6.8,7.4,9.1,16.2,7.3,26.3c-1.4,7.9-4.8,14.4-11.3,18.9c-5.8,4-12,7.2-19.3,8.2
		c-5.4,0.7-10.4-0.5-15.3-1.9c-3.1-0.9-4.1-0.1-5.1,2.5c-5.2,14.1-11.1,28-17.5,41.6c-3.8,8-7.8,15.9-13.6,22.7
		c-1.6,1.9-3.8,3.5-6,3c-2-0.5-2.9-2.8-4-4.9c-2.9-5.5-7.5-9.9-12.2-13.9c-2.3-2-4.9-3.5-7.9-4c-4.7-0.7-9.2-0.4-12.6,3.8
		c-3,3.7-6.2,7.2-9.3,10.8c-2.2,2.5-3,2.4-4.3-0.7c-0.7-1.8-0.8-3.6-0.4-5.5c2.4-11.6,7.8-21.8,15.4-30.8
		C41.9,111.7,46.2,111.5,50,111.4z"/>
	<path fill="#010000" d="M187.3,116.9c0.6,0,1.2,0.1,1.9,0.1c11.6,0.9,15.3,6.5,11.1,17.3c-1.5,3.8-3.9,7.2-6.9,10.1
		c-4.3,4-9.3,3.6-14.4,2.6c-7-1.3-7-1.4-10.9,4.6c-2,3-3.8,6.2-5.7,9.2c-1.6,2.6-1.5,4.7,1.6,6c0.7,0.3,1.2,0.8,1.9,1.2
		c1.9,0.9,3.8,2.6,5.7,2.6c2.6,0,1.9-3.2,3-4.8c7.7-10.5,17.4-17.5,30.8-17.9c8.3-0.3,12.5,5.9,13.7,12.3c0.8,4.3-1.5,7.5-5.1,9.6
		c-6.9,3.9-14.2,4.6-21.6,2.1c-2.6-0.9-4.1-0.3-5.7,1.7c-4.6,5.6-8,12-11.9,18.1c-1.8,2.8-3.7,5.6-6,8.1c-2.3,2.4-4.9,2.6-6.8,0.2
		c-4.5-5.8-11.1-8.3-16.9-12.2c-0.5-0.3-1.1-0.7-1.6-1c-6.2-4.2-7.1-6.1-3.7-12.6c9.8-18.7,21.6-36.2,35.6-52.1
		C178.5,118.5,182.5,116.5,187.3,116.9z"/>
	<path fill="#010001" d="M151.1,422.2c-1.2,6.1-4.7,9.5-11,10.3c-3.8,0.5-6.6-1.1-9.1-3.3c-7.3-6.4-8.9-12-4.3-19.6
		c1.5-2.5,0.6-5.9,3.3-8.1c1-0.9-0.6-2.4-1.3-3.6c-4.1-6.7-10.1-11.6-15.9-16.6c-7.3-6.1-7.4-6.2-1.1-13.2
		c3.9-4.4,6.8-9.6,11.1-13.7c4.5-4.3,5.9-4.6,10.9-0.9c7.9,5.7,14.9,12.5,21.5,19.7c4.8,5.3,10.3,10,14.8,15.5
		c2.9,3.5,4.9,7.8,7.9,11.2c4.5,5.3,5.5,11.3,3.7,17.6c-2,7.4-8.4,11.4-14.9,12.8c-4,0.8-9.6-0.9-12.8-5.3
		C153.1,424.1,152.7,422.8,151.1,422.2z"/>
	<path fill="#000001" d="M318.8,86.2c-0.2-5.8,0.3-11.4,1.6-16.9c1.5-6,4.3-7.9,10.4-6.4c6.1,1.4,12.4,1.2,18.5,2.4
		c4.8,0.9,7,4.1,5.6,8.8c-1,3.2-2.1,6.2-1.1,9.7c1.3,4.4,4.2,7.6,8.7,7.4c3.4-0.1,6.9,0.6,10.3,1.4c5.9,1.3,8.5,5.4,7.6,11.4
		c-1,6.5-5.5,10.5-11.4,10.1c-9.5-0.7-18.7-8-22-17.1c-1-2.8-2.6-5.4-4.1-7.9c-0.9-1.5-7.2-3-8.6-2.3c-0.9,0.4-0.8,1.2-0.8,1.9
		c-0.1,5,0.2,10,0.8,14.9c0.2,2,1.1,2.3,2.9,2.3c8.7-0.1,18,8.1,19.3,16.8c0.7,4.8-1.2,8.8-5.5,11.3c-8.1,4.9-16.5,2.8-22.1-4.9
		c-6.4-8.7-7.6-19-9.2-29.1C318.9,95.2,318.5,90.6,318.8,86.2z"/>
	<path fill="#010100" d="M31.1,216.9c0.3,1.8-1.4,1.8-2.4,2.3c-5.4,2.9-11,5.2-15.3,9.8c-3.1,3.3-5.3,7-5.1,11.5
		c0.2,5.4,7.4,13.9,12.3,15.1c5.7,1.3,11.4-1.4,15.3-7.7c3.6-5.8,5.3-12.1,4.1-18.9c-0.5-2.8,1.3-3.6,3-4.5c5.4-2.7,11.3-3.9,17-5.6
		c6.6-1.9,13.2-3.6,19.3-6.8c1.4-0.7,3.7-1.3,1-3.5c-0.5-0.4-0.9-1.7-0.7-2.4c1.5-5.3-1.4-9.4-3.3-13.8c-0.4-1-0.6-1.9-0.4-2.9
		c2.8,0,3.7,2.3,4.8,4.2c2,3.6,1.8,7.7,2,11.7c0.1,1.3,0.2,2.6,1.6,3.1c3,1.2,1.3,3.4,0.9,4.9c-0.6,1.9-1.2,4.5-4.3,3.9
		c-0.6-0.4,0.1-2.2-1.5-1.5c-11.1,4.7-23.2,6.8-34.4,11.3c1.9,0.8,3.6,0.2,5.2-0.6c7.9-3.6,16.1-6,24.3-8.8c1.8-0.6,3.9-2.2,5.7,0.2
		c-1.1,1.6-2.9,2.3-4.6,2.8c-9.4,3-18.6,6.5-27.8,9.9c-2.2,0.8-1.7,2.1-1.7,3.4c0.2,5.2,0.3,10.3-1.5,15.5
		c-2.4,6.8-7.2,10.6-13.9,11.2c-12,1.1-24.5-8.8-24.7-20.3c-0.1-3.4,1-6.4,2.8-8.7C14.4,224.5,20.3,216.9,31.1,216.9z"/>
	<path fill="#020201" d="M75.4,189c-0.4,0.1-0.8,0.4-1,0.2c-5.6-3.6-11.8-4.3-18.4-3.7c0.8,1.4,2.3,2.3,3.7,3.1
		c4.4,2.5,7.9,6.1,11.7,9.4c2.4,2.1,4.3,5,3.4,8.2c-1,3.5-4.3,5-7.6,5.9c-2.1,0.5-2.9-0.9-2.4-2.8c2.1-8.6-0.1-11.9-8.9-13.4
		c-2.9-0.5-5.9-0.9-9.5-0.4c2.6,2.2,4.8,4.1,7,5.9c7.3,6,6.6,10.7-2.3,13.8c-5.5,1.9-11.3,3-17.2,2.5c-0.7-0.1-1.2-0.2-1.6-0.8
		c1.4-1.7,3.3-1.5,5.2-1.6c4.6-0.2,9.1-1,13.5-2.6c2.2-0.8,4.6-1.6,5-4c0.4-2.4-1.8-3.9-3.5-5.3c-2.4-2-4.9-3.8-7.2-5.8
		c-0.9-0.8-2.1-1.7-1.7-3.1c0.4-1.3,2-1.6,3.1-1.7c5.7-0.3,11.3,0.3,16.3,3.1c3.7,2.1,5.8,5.3,6,9.7c0,0.8-1,2.4,1,2.5
		c1.4-1.7,2.2-3.5,1.6-5.8c-2.7-5-7.6-7.7-11.9-11c-2.1-1.6-4.6-2.6-6-5.1c-1-1.9-0.4-3.1,1.3-3.3c7.3-0.6,14.4,0.5,20.6,4.9
		C75.6,188.1,75.4,188.7,75.4,189z"/>
	<path fill="#030503" d="M475,315.4c-5.7,0-10.7-1.3-13.1-7.2c-2.2-5.4-0.3-11.7,4.1-16.4c4.1-4.3,9.2-5.1,14.6-5.5
		c1.2-0.1,2.6,0.1,3.6,1.3c4,4.8,6.4,10.1,5.5,16.4C488.6,311.3,483.3,315.4,475,315.4z"/>
	<path fill="#020402" d="M447.6,335c0.3-8.1,6.3-16.5,11.5-16.4c10.6,0.3,17.7,7.7,17.3,14.8c-0.4,7.5-9.8,16-17.4,15.6
		C452.4,348.7,447.4,342.5,447.6,335z"/>
	<path fill="#EECD00" d="M80.2,218.3c-2.1-1.1-4.1-0.1-6,0.6c-8.5,3.1-17.1,6.3-25.5,9.6c-2.1,0.8-4,1.1-6.7-0.7
		c13.2-6.5,28-7,40.5-14.2c0.2,2-1.3,2.8-1.5,4.1C80.7,217.8,80.4,218,80.2,218.3z"/>
	<path fill="#D6004F" d="M186,321.9c3,0.3,6.1,0.6,9.1,0.9C192,324,188.9,323.6,186,321.9z"/>
	<path fill="#DBBC00" d="M71.5,202.5c1.9,2.6,0.7,4.3-1.6,5.8C70.4,206.3,70.9,204.4,71.5,202.5z"/>
	<path fill="#5F5F5F" d="M286.4,611c5.8,3.4,7.4,9.1,8.5,15.1c1.1,5.7,0.6,11.4,0.7,17.2c0,1.3-0.3,2.7,0.5,4.4
		c1.9-2.1,1.3-4.6,1.5-6.7c0.3-3.1,0.2-6.2,0.1-9.4c-0.1-2,0.8-2.4,2.5-2c10.1,2.6,18.6,8.1,24.8,16.5c5.8,8,4.8,22.1-1.3,29.8
		c-8.6,10.6-20.5,14.5-33.3,16.5c-12.5,2-24.8,1.4-37-2.2c-8.7-2.6-16.8-6.7-21.5-14.6c-5.2-8.7-5.7-21.4,2.5-30.2
		c6.5-7,14-12.3,23.2-15.2c2.4-0.8,3,0,2.6,2.1c-1,4.7,0.2,9.5,0.1,14.2c0,0.9-0.4,2.3,1.1,2.3c1.8,0.1,1.3-1.5,1.3-2.5
		c0.1-7.8-0.9-15.7,0.8-23.5c0.8-3.7,2.2-7.1,4.9-9.9c0.9-0.9,1.5-1.3,2.5,0C276.3,619.5,282.8,618.8,286.4,611z"/>
	<path fill="#5F5F5F" d="M272.1,405.6c2.1,3.9,5.8,4.8,9.6,5.4c1.8,0.3,1.9,1,1.5,2.5c-0.6,2-1,4.1-1.3,6.2c-0.2,1.7,0,3.6,1.8,4.4
		c8.9,4,7.7,21-0.3,25.6c-2.8,1.6-3.7,3.7-3.6,6.8c0.7,24.6,1.2,49.2,1.8,73.8c0.4,17.3,1,34.7,1.4,52c0.2,9,0.5,18,0.7,27
		c0.1,3.7-1.5,5.6-4.8,5.7c-3.8,0.2-5.7-1.6-5.8-5.5c-0.5-18.2-1-36.4-1.6-54.7c-0.7-24.7-1.3-49.4-2.3-74.1
		c-0.3-8.5-0.4-17-0.7-25.5c-0.1-2.7-0.8-4.7-3.4-6.3c-8-4.9-8.4-18.9-0.1-24.1c7.5-4.7,8-10.9,6.7-18.2
		C271.6,406.5,271.8,406.2,272.1,405.6z"/>
	<path fill="#5F5F5F" d="M269.3,397.4c0.1-0.7,0-1.5,0.2-2.2c0.6-2.2,0.7-4.4-1.7-5.5c-2.1-1-6.2,0.6-7.4,2.8
		c-3.3,5.6-4.6,6.1-9.9,4.1c-4.4-1.7-5.8-5-4.4-10.4c1.2-4.8,2.6-9.6,3.7-14.5c0.8-3.8,3.4-5.1,6.7-5.4c3.2-0.3,5.9,1,7.2,4.2
		c0.6,1.5,1.1,3,1.2,4.7c0.2,3.1,3.1,5.6,5.9,5.2c1.6-0.2,2.6-1.2,3-2.9c0.4-1.6,0.7-3.2,1.4-4.6c1.7-3.6,5-4.5,8.3-2.6
		c2.4,1.4,5,2.4,7.8,2.1c2.9-0.3,4.3,1,5.4,3.4c4.6,9.5,1.2,24-7.1,30.4c-1.3,1-2.7,1.3-4.2,1.1c-5.3-0.5-10.1-2.4-14.6-5.2
		C268.9,400.9,269.5,399.1,269.3,397.4z"/>
	<path fill="#5F5F5F" d="M308.5,271.6c2.3,1.4,2.3,3.6,1.9,5.9c-5.2,29.4-10.4,58.8-15.8,88.2c-0.3,1.6,0.4,4.3-2.1,4.6
		c-3,0.4-5.9-0.9-8.3-2.8c-0.8-0.6-0.4-1.6-0.2-2.4c4.8-28.6,9.6-57.2,14.4-85.8c0.5-2.8,0.9-5.6,1.3-8.7c1.5,0.1,2.4,2.9,4.1,1
		C305.4,271.3,307,271.4,308.5,271.6z"/>
	<path fill="#FEFEA0" d="M323.4,243.6c-14.3,0.6-22.9,8.3-24.2,21.5c-3.9-4.5-7-8.9-5-15c0.2-0.7,1-1.7,0.1-2.4
		c-0.8-0.6-1.2,0.3-1.8,0.8c-1.1,1-1.5-0.3-2-0.8c-2.4-2.5-4.4-5.1-7.5-6.9c-2.3-1.4-2-4.4-1.6-6.8c1-5.3,8.9-11.7,14.2-12
		c1.8-0.1,3.3,0.7,4.5,2.1c2.4,2.9,4.8,5.7,7.3,8.5c0.2,0.2,0.3,0.4,0.5,0.5c1.4,1-1.4,3.4,1.1,3.9c1.5,0.3,3.2-0.4,4.8-0.2
		C318.1,237.5,321,240.1,323.4,243.6z"/>
	<path fill="#FEFEA0" d="M326.3,287.5c-3.2-1.9-5.1-4.6-7.3-7.2c-2.4-2.9-4.6-5.8-7-8.7c-6.4-7.7-3.9-15.7,5.9-18.4
		c3.5-1,6.3-0.8,8.7,2.7c4.1,5.7,8.8,11,13.5,16.8C331.4,274.1,327.4,279.3,326.3,287.5z"/>
	<path fill="#FCFC9F" d="M328.6,286.6c0-5.2,4.4-10.6,9.5-11.4c2.4-0.4,4.6,0.2,6,2.2c1.4,2.1,0.4,4.1-0.9,5.8
		c-2.6,3.3-5.6,6-9.8,7.1C330.2,291.1,328.7,289.9,328.6,286.6z"/>
	<path fill="#FAFA9E" d="M308.5,271.6c-1.5,1.2-3.1,1.2-4.7,0c-1.4-3.9-3.2-7.6-1.7-12.1c2.3-7.1,11.4-13.8,18.9-13.4
		c4,0.2,5.9,2.6,6.9,6.3c-6.4-3.2-14.1-1.6-19.1,3.9C304.7,261.1,304.6,265.3,308.5,271.6z"/>
	<path fill="#FE005E" d="M199.6,270.8c5.9-5.8,11.7-11.6,14.4-19.7c1.5-4.4,2.6-8.9,0-13.3c-1-1.6,0.6-1.9,1.2-2.6
		c0.5-0.5,1.4-1,0.6-1.8c-0.7-0.7-1.3,0-1.9,0.4c-12.3,8.4-16.3,18.1-13.4,32.7c0,0.1-0.1,0.2-0.3,0.6c-1.4-1.2-1.7-3-2.6-4.4
		c-0.4-0.7-0.5-1.9-1.7-1.5c-1.4,0.5-0.4,1.5-0.2,2.2c0.5,1.7,1.2,3.3,1.9,4.9c0.3,0.8,0.2,1.5-0.6,1.9c-1.1,0.4-1.1-0.6-1.4-1.2
		c-4.4-9.5-3.7-19.2-0.5-28.8c3.3-10.1,8.5-19.2,17.7-25.3c7-4.6,13.6-2.3,16.2,5.8c2.7,8.4,1.3,16.8-0.9,25.1
		c-2.5,9.5-8.9,16.1-17.1,20.3c-3.6,1.8-7,3.8-10.5,5.8C199.7,271.9,199.4,271.6,199.6,270.8z"/>
	<path fill="#FE005E" d="M214.8,281.2c4,6.3,7.1,12.9,6.4,20.6c-0.6,6.7-4,11.6-9.9,14.8c-1.1,0.6-2,1.5-3-0.3c-0.7-1.2-2-0.3-3.1,0
		c-4.2,1.3-8.3,2.9-12.5,3.7c-4.9,0.9-11,0.5-13.8-2.6c-2.9-3.4-6.5-4.9-9.8-7.2c-0.4-0.3-0.8-0.5-0.8-1.1c0.1-2.1,5.4-5.4,7.3-4.4
		c4.3,2.3,9,3.2,13.6,3.6c8.3,0.7,15.8-7.4,15.3-15.9c-0.2-4.4-1.4-8.6-3.5-12.5c-0.7-1.3-1.4-2.6,0.4-3.4c1.6-0.8,1.8,0.9,2.3,1.7
		c1.1,1.5,2,3.2,2.9,4.8c0.5,0.8,1.1,0.8,1.9,0.4c0.9-0.6,0.6-1.1,0.1-1.8c-1-1.4-2.1-2.8-3-4.3c-0.5-0.8-2.3-1.8-1-2.7
		c1.4-1,1.9,1,2.6,1.8c1.4,1.6,2.6,3.4,3.7,5.1c1.1,1.7,1.9,1,2.9,0C214.1,281,214.4,281,214.8,281.2z"/>
	<path fill="#FC005E" d="M168.9,297.1c-5,5.6-9.9,11.3-12.1,18.7c-0.7,2.4-0.8,2.5,1.9,2.4c1,0,0.6,0.8,0.9,1.2
		c1.9,2.9,2.2,6.9,5.6,8.9c1.5,0.9,3,1.8,4.8,1.7c1.2-0.1,2.7-2.7,3.5,0.6c0.6,2.6,1.2,5-1.6,6.6c-7.8,4.2-19.1-2.4-19.4-11.1
		c-0.5-13,5.9-22.2,15.6-29.8C168.8,296.1,169,296.4,168.9,297.1z"/>
	<path fill="#FDFDFD" d="M197.9,278.5c3.6,6.1,5.9,12.1,3.8,18.7c-2.2,6.8-10,9.9-18.4,7.6c-8.9-2.3-9-2.5-2.7-9
		c2.7-2.7,5.6-5.2,8.6-8c-0.6,2.3-0.4,4.7-0.3,7.1c0,1.3,0,2.7,1.3,3.2c1.5,0.5,2.5-0.7,3.3-1.9c2.3-3.3,4-6.9,3.6-11.1
		C197.1,283.2,196.5,281,197.9,278.5z"/>
	<path fill="#FC005E" d="M189.2,277c0.5-1.7-0.6-2.4-1.9-3.1c-7.2-3.4-17.7-1.5-24.4,4.6c-6.5,5.9-8.4,13.7-5.1,22
		c0.5,1.2,0.9,2.2-0.4,2.9c-1.3,0.6-1.5-0.9-2-1.6c-6.5-9.3-3.8-22.5,6.1-29.3c7.6-5.2,15.7-7.5,24.6-2.9c1.4,0.7,2.3,1.9,3.5,2.7
		C192.1,274.2,191.4,275.6,189.2,277L189.2,277z"/>
	<path fill="#F8005C" d="M189.2,277c-1.8,1.8-3.5,3-6,0.8c-1.2-1-3-1.1-4.7-1.1c-6.3,0.1-18,10-15.6,18.1c0.2,0.7,0.5,1.5,0.4,2.2
		c-0.2,1.3-1.3,2.4-2.4,2.6c-1.2,0.3-1.3-1.3-1.6-2.1c-3-8.6,3-18.7,13-22C178.2,273.6,183.9,273.9,189.2,277
		C189.2,277,189.2,277,189.2,277z"/>
	<path fill="#F8F8F8" d="M168.1,293.3c-1-5.1,1-9.7,5-12.4c3.5-2.3,6.7-2.3,10.5,0.4C178.5,285.2,173.5,289.1,168.1,293.3z"/>
	<path fill="#F9F9F9" d="M212.6,239.5c2.7,6-1.6,16.6-7.2,22.1C203.6,255.5,207.6,243.2,212.6,239.5z"/>
	<path fill="#BD0548" d="M203.2,263.8c-3.2-5.6-2.2-12.4,2.9-18.9C204.4,251.6,201.8,257.4,203.2,263.8z"/>
	<path fill="#D6004F" d="M191.7,295.1c-1.2-1-1.2-2.5-0.7-3.1c1.4-1.7,0.7-3.2,0.1-4.7c-0.6-1.5-0.5-3,1.2-3.2
		c1.5-0.2,1.3,1.4,1.4,2.4C193.9,289.6,194,292.6,191.7,295.1z"/>
	<path fill="#8B0030" d="M169.3,300.7c-3.6,4-5,9.5-9,13.2C162,308.7,165,304.3,169.3,300.7z"/>
	<path fill="#9E043B" d="M214.8,281.2c-0.3,0.1-0.6,0.1-0.8,0.2c-2.1-2.5-4.1-4.9-6.2-7.4c-0.5-0.6-0.9-1.4,0-1.9
		c0.9-0.5,0.9,0.5,1.2,1C210.9,275.8,213.4,278.1,214.8,281.2z"/>
	<path fill="#8B103B" d="M168.9,297.1c-0.3-0.3-0.6-0.5-0.8-0.8c2.2-3.1,5.5-4.8,8.3-7.1c0.2,0.2,0.4,0.5,0.6,0.7
		C174.3,292.3,171.6,294.7,168.9,297.1z"/>
	<path fill="#AB003D" d="M174.2,316.6c-2.6-1.3-5.3-2.5-7.9-3.8c-0.5-0.3-1.2-0.7-0.6-1.4c0.5-0.7,1.2-0.3,1.7,0
		C169.8,312.9,172.5,314,174.2,316.6z"/>
	<path fill="#940034" d="M199.6,270.8c0.3,0.3,0.6,0.6,0.9,0.9c-2,2.2-4.6,3.5-7.1,4.9C195,274.2,197.4,272.6,199.6,270.8z"/>
	<path fill="#B1003F" d="M165.1,324.2c1.7,0.8,3.3,1.7,5,2.5c-0.2,0.3-0.3,0.7-0.5,1C167.4,328.2,166.1,326.6,165.1,324.2z"/>
	<path fill="#8B0030" d="M165.3,290.7c0.3,0.5,0.5,0.7,0.5,0.9c-0.2,1.3,1.4,2.5,0.2,3.8c-0.1,0.1-0.8,0-0.9-0.2
		C164.4,293.8,164,292.4,165.3,290.7z"/>
	<path fill="#5CFE53" d="M367.5,266c11.3-5.6,23.1-5.7,35.2-3.5c1.5,0.3,2.9,0.7,4.4,1c5.8,1.4,10.8,3.9,13.3,9.8
		c1.4,3.3,4.6,5.4,6.1,8.8c1,2.2,2.6,0.4,3.3-0.8c5.4-9.3,8.1-19,6.6-30c-1.5-11.7-8.3-19.3-17.5-25.7c-8.1-5.7-16.3-11.3-25.4-14.9
		c-5.1-2-11-2-16.6-2.7c-3.2-0.4-6.4-0.6-10-1.7c7-3.6,14.2-4,21.4-3.2c20.6,2.3,39.3,9.7,56.1,21.8c8.9,6.4,12.4,15,13.1,25.6
		c0.8,11.6,2.8,23,0.1,34.6c-2.6,11.1-7.4,21.1-15.3,29.5c-7.8,8.3-17.2,14.1-28.4,16.3c-16.5,3.2-30.8-1.2-42.5-13.6
		c-2.9-3.1-5.8-6.1-7.8-10c-1.8-3.5-3.7-6.9-3.8-10.8c-0.3-8.9-2.2-18,3.4-26.1C364.8,268.9,366.2,267.6,367.5,266z"/>
	<path fill="#5AFA51" d="M412.7,333.2c6.8-2,13.5-4,19.6-7.9c10.8-7,18.4-16.4,23.6-28.1c3.3-7.5,4.3-15.4,5.4-23.4
		c0.3-0.3,0.6-0.2,0.8,0.2c-0.3,18.8-4.9,35.9-19.9,48.5c-15.1,12.7-32.4,16.1-51.4,10.7c-0.7-0.2-1.3-0.6-1.9-1
		c0-1.4,0.9-0.8,1.5-0.7c2.4,0.6,4.9,1.2,7.3,1.8C402.6,333.6,407.7,333.8,412.7,333.2z"/>
	<path fill="#41BA3B" d="M390.3,331.5c-0.5,0.2-1,0.5-1.5,0.7c-5.5-1.5-10-4.7-14.1-8.4C380.1,325.8,384.6,329.8,390.3,331.5z"/>
	<path fill="#2E8B29" d="M462,274c-0.3-0.1-0.5-0.1-0.8-0.2c0.3-4.4-1.4-8.8-0.4-13.7C462.6,264.9,462.2,269.4,462,274z"/>
	<path fill="#41BA3B" d="M412.7,333.2c-5,1.2-10,1.3-15,0.1C402.6,333.2,407.7,333.2,412.7,333.2z"/>
	<path fill="#247220" d="M433.9,258.9c0-2,0-4,0-6.1c0.1,0,0.2,0,0.3,0c0,2,0,4,0,6.1C434.1,258.9,434,258.9,433.9,258.9z"/>
	<path fill="#D4D4D4" d="M367.5,266c-0.7,2.1-2,3.6-4.3,4.1C364.3,268.4,365.7,267,367.5,266z"/>
	<path fill="#41BA3B" d="M372,320.9c-1.6-0.7-2.8-1.8-3.3-3.5C370.2,318,371.4,319.1,372,320.9z"/>
	<path fill="#9FFEFE" d="M26.3,149.4c-0.7-4.1,0.6-7.7,1.9-11.3c2.1-5.5,4.8-10.7,8-15.6c5.9-8.8,10.2-10.4,20.6-7.8
		c5.8,1.5,11.3,3.9,16.8,6.2c4.6,1.9,5.4,1.7,7-2.8c4-11.7,7.6-23.5,11.4-35.2c0.2-0.7,0.7-1.4-0.3-1.9c-1.7-0.9-1.7-0.9-1.4-2.7
		c1.8-10.1,3.8-20,9.4-29c9.4-15.1,29.3-21.9,45.1-15.1c8,3.5,13,9.7,15.2,17.9c0.9,3.2-1.1,6.3-1.9,9.3
		c-3.6,14-13.6,22.7-26.3,23.3c-4,0.2-7.5-1.6-11.1-2.9c-10.7-3.7-10.5-3.7-14.6,6.9c-7.7,19.9-14.9,39.9-24.1,59.2
		c-0.9,1.9-2,3.7-3,5.6c-1.6,3-3.6,3.1-5.8,0.6c-4-4.7-8-9.4-11.9-14.2c-8.5-10.3-17.1-10.7-26.6-1.4
		C31.6,141.8,29.1,145.7,26.3,149.4z"/>
	<path fill="#9AF6F6" d="M159.9,67.6c-0.7,9.8-8.4,14-15.4,18.2c-9.9,6-20.4,5.5-30.8,0.8c-1.3-0.6-3.3-1.3-2.3-3.5
		c1-2.2,2.7-1.2,4.1-0.7c2.7,0.9,5.5,1.6,8.1,2.8c12.4,6.1,31.1-3.6,35-18c0.1-0.2,0.3-0.3,0.5-0.5
		C159.8,66.6,160.1,66.8,159.9,67.6z"/>
	<path fill="#86C9C9" d="M94.6,125.4c5-12.5,10-25.1,15-37.6c0.1-0.3,0.4-0.5,1.1-0.5c-4.4,13.5-9.6,26.6-15.3,39.6
		C94,126.8,94.1,126.2,94.6,125.4z"/>
	<path fill="#748D8D" d="M94.6,125.4c0.1,0.5-0.1,1.2,0.7,1.4c-1.4,3.9-3.3,7.6-6,11C91,133.6,92.8,129.5,94.6,125.4z"/>
	<path fill="#5B9494" d="M54.4,136c-3.1-1-6.4-0.8-10.6-1.1C48.3,132.8,51.4,133.6,54.4,136z"/>
	<path fill="#619E9E" d="M159.9,67.6c-0.3-0.3-0.5-0.5-0.8-0.8c0.6-1.3,0.6-2.9,2.1-4.2C161,64.6,161,66.2,159.9,67.6z"/>
	<path fill="#FEAB79" d="M204.3,168c-4-0.3-8.8-1.7-13.6-3.1c-3.2-0.9-5.5-0.7-8.2,2c-5.7,5.8-10.2,12.2-13.6,19.5
		c-2.4,5.2-3.6,5.7-8.4,2.5c-5.7-3.8-11.1-8-16.8-11.9c-1.9-1.3-1.5-2.4-0.6-4c7.1-13.3,15.5-25.9,24.6-38c2.8-3.8,5.9-7.4,9-11
		c5.7-6.6,12.8-5.6,20.3-3c1.6,0.6,2.6,1.4,0.7,3.4c-1.1,1.2-0.9,3.5-1.3,5.4c-1.6,6.3-6,9.2-12.2,9.8c-4.6,0.4-9.2,0.7-13.8,0.8
		c-2.5,0.1-4.3,1.1-5.6,3.1c-3.6,5.5-6.1,11.5-8.6,17.4c-0.6,1.4-0.3,2.7,1.1,3.9c4,3.3,8.5,5.6,12.9,8.2c2.6,1.5,3.9,0.2,5-2
		c5.4-11.8,15-18,27.3-20.3c8.3-1.6,12.9,2.3,12.3,9.9C214.2,165.8,211.4,168.1,204.3,168z"/>
	<path fill="#F6A777" d="M167.4,197.1c-1.3-0.7-0.3-3.5-2.5-2.6c-2.1,0.9,0.7,2.8-0.7,4.7c-5.4-8.3-14.9-10.5-21.9-16.3
		c-1.3-1.1-2.5-2.2-1.7-4.2c1.3-0.6,2,0.6,2.8,1.2c5.4,3.6,10.6,7.5,16,11c6,3.8,8.3,3.1,11.2-3.3c3.1-6.9,6.9-13.2,12.4-18.5
		c0.8-0.8,1.5-2.2,3-0.8c1.6,1.5-0.1,2.2-0.8,3c-5.5,6.3-9.1,14-13.7,20.9C170.4,193.8,169.3,195.6,167.4,197.1z"/>
	<path fill="#E0976B" d="M196.8,136.7c-1.2,2.3-2.3,4.3-5.4,4.9c-2.4,0.4-4.9,1.6-7,3.3c-0.4,0.3-0.9,0.8-1.2,0.7
		c-4.2-0.8-8.5-0.8-13.6-2.6c5-1,9-0.8,12.9-1c5.2-0.3,10.1-1.5,13.5-5.9C196.7,135.8,197,135.9,196.8,136.7z"/>
	<path fill="#F0A272" d="M167.5,143.1c2.3,1.7,2.3,3.1,0.7,5.1c-3.2,4-5.8,8.4-8.1,13c-0.3,0.6-0.4,1.6-1.4,1.3
		c-0.7-0.2-1.1-0.8-0.7-1.4C160.8,155,163.1,148.5,167.5,143.1z"/>
	<path fill="#D58F65" d="M203.9,170.3c-5.9,0.8-11.7,0.9-16.1-4.1C193.2,167.5,198.5,168.9,203.9,170.3z"/>
	<path fill="#895B3E" d="M196.8,136.7c-0.3-0.3-0.5-0.5-0.8-0.8c0.9-1.8,1.8-3.6,2.7-5.4c0.3,0.1,0.6,0.3,0.8,0.4
		C198.8,133,198.3,135.1,196.8,136.7z"/>
	<path fill="#DF00FE" d="M164.5,387.1c5.5,5.8,10.9,11.7,14.1,19.1c0.5,1.3,2.7,3.8-1.2,4.4c-0.8,0.1-0.4,1.6-0.5,2.4
		c-0.8,10.8-8.8,16.3-19.1,12.9c-3.2-1-7.9-9.5-8-13.7c-0.1-3.8,1.7-6.5,4.3-9.1c7.3-7.2,7.3-7.9,0-15.1c-4.8-4.7-9.8-9.2-14.6-13.9
		c-2.3-2.2-4.3-2.3-6.2,0.2c-2.7,3.5-5.1,7.1-5.6,11.7c-0.2,1.7,0.1,3.1,1.2,4.1c2.8,2.6,3.8,7,8.4,7.6c0.3-0.4,0.6-0.4,0.9,0
		c7.1,6.1,11.1,13.6,10.3,23.3c-0.2,0.3-0.5,0.3-0.7,0c-0.2-0.7,0.4-2-0.9-2.1c-1.3-0.1-1.1,1.1-1.2,1.9c-0.3,2.2-0.9,4.4-2,6.4
		c-1.9,3.4-5.6,4.6-8.9,2.5c-3.2-2-5.9-4.7-7.7-8c-1.4-2.7-1.4-5.5,0-8.3c1.7-3.3,4-6.3,5.2-9.9c0.6-1.6,0.5-2.7-0.2-4.1
		c-3.6-7.9-10.5-12.9-16.6-18.5c-1.8-1.7-4.7-3.1-5.2-5.1c-0.4-1.4,2.3-3.7,3.5-5.6c2.7-4.5,7-7.4,10.4-11.2c0.9-1,1.7-0.7,2.5,0
		c11.5,9.7,23.4,18.9,34.4,29.3C162.7,388.7,163.1,386.2,164.5,387.1z"/>
	<path fill="#FDFDFD" d="M152.3,401.7c-1.3,1.6-2.6,3.3-4.2,5.3c-2.3-6.3-7.5-10.1-10.5-15.5c-2.3-4.2-1.5-9.4,2.1-12.4
		c1.3-1.1,1.7,0.1,2.3,0.7c5.3,4.7,10.7,9.2,14.9,15C156.4,397.8,153.4,399.1,152.3,401.7z"/>
	<path fill="#D900F7" d="M164.5,387.1c-1.1,0-1.6,2.3-3.2,0.9c2.9-1.1,1.7-2.4,0.1-3.7c-10.9-8.9-21.9-17.7-32.8-26.7
		c-0.9-0.8-3.4-1.2-1.9-3.2c1.3-1.9,3-0.5,4.3,0.3c4.6,2.8,8.5,6.5,12.4,10.2C150.9,371.9,158.2,379,164.5,387.1z"/>
	<path fill="#CC00E8" d="M138.2,397.6c-0.3,0-0.6,0-0.9,0c-0.8-2.5-3-3.9-4.4-6c-0.9-1.3-3.5-2.5-0.8-4.5c0.2-0.1,0.2-0.7,0.1-1.1
		c-0.3-0.9-2.7-0.4-1.6-2.5c1.5-2.7,2.4-5.8,4.7-8c0.6-0.6,1.2-0.8,2-0.2c0.8,0.6,1,1.4,0.4,2.3c-0.7,1-1.3,2.2-2,3.1
		c-3.2,4.1-2.6,7.9,0.3,11.9C137,394.1,138.4,395.5,138.2,397.6z"/>
	<path fill="#9100A5" d="M147.8,420.9c0.2,0,0.5,0,0.7,0c0.5,2.8-0.9,4.9-2.4,7C146.2,425.4,146.9,423.1,147.8,420.9z"/>
	<path fill="#C400DF" d="M152.3,401.7c0.6-3,3.1-4.7,4.6-7C157.6,398.5,154.3,399.7,152.3,401.7z"/>
	<path fill="#2700FE" d="M322.5,70.2c0.7-4.5,2.5-6.3,6.6-5.4c6,1.3,12.1,1.2,18.1,2.2c5.6,1,6.9,3,5.1,8.5
		c-2.7,8.5-1.9,11.8,4,16.1c1.6,1.2,3.3,1.6,5.2,1.8c3.5,0.3,7,0.5,10.4,1.1c3.5,0.6,6.8,3.9,6.5,6.1c-0.2,2.3-5.2,6.6-7.9,6.9
		c-2.4,0.2-4.7-0.3-7-1c-1.1-0.3-2.2-1.3-3.5-0.5c-0.6,0.3,0.1,2-1.4,1.5c-4.6-1.7-7.6-5-9.2-9.6c0.1-1.5,3.4-1.6,1.7-3.9
		c-0.2-0.6-0.4-1.2-0.6-1.8c-1.4-5.6-4.9-8.7-10.7-9.3c-1.7-0.2-3.5-0.5-5.2-0.6c-2.3-0.1-3.6,1-3.8,3.4c-0.4,6.3,0.1,12.5,0.8,18.7
		c0.3,2.9,1.8,4,4.7,4c7.3-0.1,14.5,5.3,16.8,12.4c1.1,3.2-2.6,7.6-7,8.4c-4.4,0.8-8.1-0.9-11.6-3.2c-1.1-0.8-2-2.2-3.8-2
		c2.7,5.7,9.9,8.3,19.1,7c-5.1,5-11.6,3.5-16.8-1.6c-5-4.9-8.1-10.5-8.7-16.8c-0.5-6.2-1.7-12.5-1.8-18.7c0-1,0.4-2.3-0.9-3
		c-0.8-4-0.1-8.1-0.4-12.1C321.5,75.7,322.4,73,322.5,70.2z"/>
	<path fill="#1E00D0" d="M358.7,107.3c0.5-0.5,0.9-1,1.4-1.5c2.7,3.5,10.3,4.9,14.5,2.6c0.8-0.4,1.4-0.9,2.2-1.5
		c-1.1,4.1-6.7,7-10.1,4.5C364.2,109.6,361,109.3,358.7,107.3z"/>
	<path fill="#1500A1" d="M351.2,93.8c2,2.5-0.6,2.8-1.7,3.9c-1.4-3.4-2.8-6.7-4.4-10.6c3.5,2.4,3.8,5.9,5.1,8.9
		C351.5,95.6,350.9,94.5,351.2,93.8z"/>
	<path fill="#E8E8E8" d="M321.7,78.2c0,4.1,0.1,8.3,0.1,12.4c-2.1-2.3-0.5-5.1-0.9-7.7c-0.2-1.6,0.2-3.2,0.3-4.8
		C321.4,78.2,321.6,78.2,321.7,78.2z"/>
	<path fill="#A9A9A9" d="M321.7,78.2c-0.2,0-0.3,0-0.5,0c-0.3-2.8,0.4-5.4,1.2-8C323,72.9,322.6,75.6,321.7,78.2z"/>
	<path fill="#F5D301" d="M27.5,258.2c5.2-2.5,8.9-6.3,11.5-11.3c2.5-4.9,3.3-10.2,3.6-15.6c2.3,7.6,1.2,18.8-3.6,23.4
		C35.6,257.8,32.6,259.1,27.5,258.2z"/>
	<path fill="#5CFE53" d="M474.9,313.1c-6.7,0-9.9-1.9-11.3-6.4c-1.7-5.5,0.7-11.6,5.7-15c0.1-0.1,0.2-0.1,0.3-0.2
		c3.9-1.8,7.8-5,12.1-2.3c4.4,2.7,6.6,12.2,4.8,17.1C484.9,310.7,480.9,313.1,474.9,313.1z"/>
	<path fill="#5BFE53" d="M449.6,335.4c0-6.4,4.9-14.2,9-14.2c8.1,0,15.3,5.4,15.4,11.7c0.1,6.1-8.1,14.2-14.3,14.2
		C454.2,347.1,449.6,341.7,449.6,335.4z"/>
	<path fill="#180008" d="M221.5,243.4c-0.2,2-0.4,3.9-0.6,5.9c-0.1,0.8-0.4,1.4-1.4,1.2c-0.9-0.2-1.3-0.7-1.1-1.6
		c0.7-4.4,1-8.9,0.2-13.3c-0.1-0.7,0.1-1.3,0.9-1.3c0.7,0,1,0.6,1.1,1.3C221,238.2,221.5,240.7,221.5,243.4z"/>
	<path fill="#090003" d="M227.6,233.6c0.1,0.8,0.5,1.9-0.9,2c-1.1,0.1-0.9-1-1-1.6c-0.5-2.4-1-4.9-1.5-7.3c-0.2-1-0.4-2.1,1.1-2.2
		c1.4-0.1,1.3,0.9,1.4,1.7C227,228.6,227.3,231.1,227.6,233.6z"/>
	<path fill="#0A0003" d="M210,231.5c-0.1,0.7-7.3,8.7-7.8,8.6c-0.4-0.1-0.9-0.4-1.3-0.7c-0.7-0.6-0.2-1.1,0.2-1.6
		c2.4-2.4,4.8-4.7,7.2-7.1c0.4-0.4,0.8-0.6,1.2-0.1C209.8,231,209.9,231.4,210,231.5z"/>
	<path fill="#0D0004" d="M213.4,293.1c0.1,10.2-8.1,20.7-18.2,23.5c-0.8,0.2-1.8,0.7-2.3-0.4c-0.6-1.3,0.4-1.8,1.4-2.2
		c0.8-0.3,1.6-0.6,2.5-0.9c9.2-3.4,13.4-10.6,14.8-19.8c0.1-0.7-0.3-2,1.1-1.9C213.6,291.4,213.6,292.3,213.4,293.1z"/>
	<path fill="#030202" d="M168.3,178.6c-0.8,2.5-1.5,5.2-2.5,7.7c-0.7,1.7-2.2,1.9-3.7,0.7c-4.2-3.1-8.4-6.2-12.1-10
		c-2.8-2.9-0.4-5.3,1.1-7.6c1.4-2.2,3.7-2.8,5.8-1.7c4.1,2.1,7.3,5.6,10.7,8.7C168.1,176.8,168.1,177.7,168.3,178.6z"/>
	<path fill="#040105" d="M130.7,371.8c-0.7,3.6-3.2,6.4-5.7,9.2c-0.6,0.6-2.3,0.5-3.5-0.3c-1.3-1-2.8-1.7-4.1-2.6
		c-2.5-1.7-2.8-3.6-0.7-5.8c1.5-1.5,3-3,4.5-4.5c1.4-1.4,2.7-3.4,4.9-2.4C128.7,366.6,130.3,368.7,130.7,371.8z"/>
	<path fill="#010007" d="M338.6,70.9c1,0,1.8-0.1,2.5,0c2,0.4,4.5,0.3,4.7,3.2c0.2,2.8-2.1,3.7-4.2,4.4c-2.7,0.8-5.2-0.1-7.3-1.9
		c-1.1-0.9-2.1-2.2-1.7-3.5c0.4-1.6,2-2,3.6-2C337.2,71.1,338,70.9,338.6,70.9z"/>
	<path fill="#EFEFEF" d="M164.1,184.9c-3-2.5-5.6-4.6-8.2-6.7c-0.6-0.5-1.6-1-0.8-2.1c0.5-0.7,1.3-1.1,2.3-1.1
		c1,0.1,7.8,6.3,7.7,7.2C165,183,164.5,183.8,164.1,184.9z"/>
	<path fill="#BF805A" d="M156.2,169.7c4,2.2,7.1,5.3,10.9,8.4C164.1,178,156.5,171.9,156.2,169.7z"/>
	<path fill="#C7855E" d="M152.5,175.7c-0.9-0.4-1.6-1-1.1-2.1c0.4-1,0.7-2.5,2-2.4c0.5,0,1.5,1.7,1.3,2.2
		C154.4,174.4,153.7,175.5,152.5,175.7z"/>
	<path fill="#EBEBEB" d="M127.8,369.4c1.3,2.9-0.3,4.4-1.3,6c-0.4,0.6-0.9,1.7-2,0.8c-0.8-0.7-1.3-1.6-0.6-2.6
		C125,372.2,126.3,371,127.8,369.4z"/>
	<path fill="#A400BB" d="M125.6,367.2c-0.8,2.6-3.2,4-4.2,6.5c-0.3,0.8-1.2,0.8-1.9,0.3c-0.5-0.4-0.4-0.9,0-1.3
		C121.4,370.7,123,368.4,125.6,367.2z"/>
	<path fill="#B100C9" d="M119.7,377.1c2.6-1,3.3,0.2,4.1,1.8C122,379.4,121.4,377.9,119.7,377.1z"/>
	<path fill="#A6A6A6" d="M338,75.3c1.6-0.2,2.9-0.6,4.6,0.6C340.7,77,339.4,77,338,75.3z"/>
</g>
</svg>
