<?xml version="1.0" encoding="utf-8"?>
<!-- Generator: Adobe Illustrator 18.0.0, SVG Export Plug-In . SVG Version: 6.00 Build 0)  -->
<!DOCTYPE svg PUBLIC "-//W3C//DTD SVG 1.1//EN" "http://www.w3.org/Graphics/SVG/1.1/DTD/svg11.dtd">
<svg version="1.1" id="Layer_1" xmlns="http://www.w3.org/2000/svg" xmlns:xlink="http://www.w3.org/1999/xlink" x="0px" y="0px"
	 viewBox="0 0 523 698.5" enable-background="new 0 0 523 698.5" xml:space="preserve">
<g>
	<path fill="#FDFDFD" d="M522.9,349.2c0,115.3,0,230.5,0.1,345.8c0,2.8-0.6,3.4-3.4,3.4c-172-0.1-344-0.1-516.1,0
		c-2.8,0-3.4-0.6-3.4-3.4C0.1,464.5,0.1,234,0,3.4C0,0.6,0.6,0,3.4,0c172,0.1,344,0.1,516.1,0c2.8,0,3.4,0.6,3.4,3.4
		C522.9,118.7,522.9,234,522.9,349.2z"/>
	<path d="M321.3,278c-2.1,11.2-4.1,21.8-6.1,32.5c-3.4,18.3-6.7,36.5-10.1,54.8c-0.6,3.1-0.6,5.5,1.2,8.6c5.1,8.5,3.2,17.2-0.5,25.8
		c-1.2,2.8-3.8,4.9-4.3,8.2c-0.2,1.5-1.8,1.4-2.7,1.5c-3.3,0.4-4.8,2.2-5.2,5.3c-0.2,1.3-0.5,2.7-1,4c-0.9,2.1-0.4,3.3,1.6,4.8
		c8.7,6,8.2,22.1-1,28.2c-2.4,1.6-2.8,3.2-2.8,5.7c1,43.1,2,86.2,3,129.3c0.1,6.5,0.3,13,0.4,19.5c0,1.5,0.4,2.4,1.8,3.3
		c5.4,3.1,8.1,8,9,13.9c0.4,2.7,1.6,3.9,4.3,4.6c10.3,2.7,18.9,8.4,25.2,17c7,9.5,7.9,24.3-0.6,33.6c-6,6.6-13.1,10.8-21.4,13.6
		c-17.2,5.8-34.4,5.9-51.5,0.7c-10.3-3.1-19.6-8.6-24.2-19.1c-2-4.5-2.9-9.3-2-14.8c2.7-16.3,14.5-23.3,27.8-28.8
		c4-1.7,7.1-2.9,7.6-7.9c0.5-4.8,2.9-9,7.2-11.7c1.5-0.9,1.4-2.2,1.4-3.5c-1-40.2-2.1-80.4-3.2-120.6c-0.3-10.2-0.6-20.5-0.8-30.7
		c0-1.3,0-2.3-1.5-3c-10.7-4.8-10.6-22.8-0.2-29.5c4.7-3.1,7.2-12.6,4.1-17.4c-2.1-3.2-1.7-6.2-1.3-9.5c0.1-1.1,1.4-2.5-0.5-3.2
		c-1.7-0.6-3.2-0.3-4.2,1.4c-0.1,0.2-0.2,0.4-0.4,0.7c-3.4,5.8-5,6.6-10.7,5.2c-5.3-1.3-8.9-5.7-9-10.9c-0.2-6.6,1.4-12.8,4.3-18.7
		c4.7-9.5,11.3-10.2,18.1-2c1.4,1.7,2.8,3.2,1.7,5.9c-0.9,2.3,1.6,2.7,3.2,3.2c2,0.8,1.5-1.1,1.8-1.9c1.2-3.8,3.3-6.8,7.3-7.8
		c2.2-0.5,2.4-2.2,2.7-3.9c4.4-24.9,8.7-49.9,13.1-74.8c1-5.9,2-11.8,3.1-17.7c0.4-2,0.1-3.5-1.3-5.1c-3-3.5-5.1-7.3-5.1-12.1
		c0-3.2-4.4-6.5-7.3-6.1c-11.1,1.8-19.3-2.8-22.9-13.8c-4.6-14,1.1-27.9,14-34.9c4.8-2.6,10.1-2.5,15.2-0.6
		c9.2,3.4,15.8,9.4,18.3,19.2c0.7,2.7,0.5,5.5-0.3,8.2c-1.4,4.8,0.5,7.8,5.6,8.7c6.2,1.2,9.6,5.6,12.8,10.5
		c2.4,3.6,3.8,7.3,3.8,11.7c0,0.8,0.9,1.7,1.5,2.5c4.5,5.5,8.3,11.5,13.3,16.6c2.9,3,0.8,6.4-1,9.1c-2.3,3.5-5.7,5.9-9.6,7.5
		c-3,1.2-5.9,0.2-8.5-1.6c-4.2-2.8-7.4-6.7-10.6-10.4C323.3,280.2,322.5,279.3,321.3,278z"/>
	<path d="M152.2,227.8c14.6-0.1,24.1,7.6,32.3,17.8c3.8,4.6,6.6,9.8,9.3,15.1c0.8,1.6,1.4,1.9,2.9,1.4c5.4-1.9,11-3.4,16.7-3.6
		c10.4-0.5,19.5,1.9,25.7,11.1c3.7,5.6,3.9,11.9,3.2,18.3c-1.2,10-6.8,17.6-13.3,24.8c-0.8,0.9-2.6,1.6-2,2.8
		c0.5,1.2,2.3,1.3,3.6,1.5c1.4,0.3,2.7,0.5,3.4-1.2c0.3-0.7,0.7-1.3,1.1-1.9c2-3.1,4.7-5.4,8.6-4.8c3.8,0.5,6.1,3.3,7.4,6.7
		c3.2,8.4-1.2,16.2-11.2,16.2c-8.4,0-16.1-1.5-22.2-7.9c-1.2-1.3-2.4-1.1-3.7-0.6c-4.9,1.6-9.7,1.3-14.6,0.1
		c-13.8-3.3-24.8-22.6-17.3-36.2c1.9-3.4,4.6-5.8,8.3-7.1c0.8-0.3,2.3-0.5,2-1.7c-0.3-1.3-1.7-0.7-2.6-0.7c-18,1.1-31.2-8-42.9-20.3
		c-3.8-4-6.8-8.5-9-13.7c-1.3-3.1-1.2-6.2-0.9-9.2c0.2-2.2,2.5-4.1,4.8-5C145.5,228.1,149,226.9,152.2,227.8z"/>
	<path d="M418.7,277.1c-6.5-2.3-12.1-0.1-18,1.1c-19.4,3.9-28.3,17.9-34.5,34.8c-0.9,2.6-1.7,5.3-2.9,7.7c-3.1,6.2-2.1,12.6-1.3,19
		c0.6,4.8,1.2,9.7,1.1,14.6c0,1.3,0.4,3-1.2,3.5c-1.6,0.5-2.5-1-3.3-2c-3.9-4.7-6.3-10.1-7.8-16c-3.9-15.2-2.1-30.2,1.2-45.2
		c2.5-11.6,7.5-22.1,13.6-32.2c1.4-2.3,3.1-4.3,5.5-5.4c13.7-6.4,27.5-12.4,42.2-15.8c15.7-3.6,30.8-1.2,44.6,7.1
		c10.6,6.4,18.3,15.5,22.1,27.3c6.2,19.3,2.6,37.4-9.1,53.5c-8.3,11.5-20.9,14.1-34.5,14.2c-10.6,0-18.3-4.7-24.4-12.4
		c-8.2-10.4-8.3-22.1-4.6-34.5C409.8,289.1,414.2,283.4,418.7,277.1z"/>
	<path fill="#000101" d="M158,81c-6.3,4.4-12.5,8.4-18.4,12.7c-13.3,9.8-27.6,17.9-42.2,25.5c-3,1.5-6.7,1.4-10.1,2.1
		c-8.2,1.7-16.4,1.6-23.6-3.6c-3.8-2.8-7.1-6-8.5-10.8c-0.6-1.9-1.7-3.6-2.6-5.4c-5.6-10.6-2.5-22.4,4.8-30.4
		c8.4-9.2,19.2-13.6,31.6-11.8c8.5,1.3,15.5,5.9,20.1,13.5c3.7,6.1,3.6,6.1,10,2.9c16.4-8.2,32.6-16.7,49.7-23.2
		c5.4-2.1,10.9-3.4,16.5-4.7c3.8-0.9,6.2,1.2,6.2,5.1c0,1.6-0.3,3.2-1.1,4.7c-3.5,6.6-4.5,13.7-4.1,21c0.4,7.6,3.9,11.5,11.4,13
		c4.6,0.9,9.2,0.3,13.8,0.8c0.8,0.1,1.9-0.3,2.3,0.8c0.4,1.1-0.8,1.4-1.4,2c-6.6,7.3-15.3,11.1-24.5,12.4c-4.6,0.6-10.3,1.6-15-1.1
		c-2.1-1.2-3.6-3.4-5.2-5.3C162.7,95.5,158.3,89.5,158,81z"/>
	<path d="M121.7,379.8c-0.5-14,6.9-23.8,19.1-26.1c4.4-0.8,8.2,0.7,11.4,3.5c11.6,10.4,8.8,25.3-6.5,32.3c-5.7,2.6-5.9,2.3-5.2,8.5
		c0.4,3.5,0.7,6.9,1.9,10.3c1.2,3.5,3.6,5,7.2,4.6c2.6-0.3,5.2-0.7,7.8-1.1c2.5-0.4,2.3-2.2,2-4c-0.7-6.1-1.8-12.1-2.1-18.2
		c-0.4-7.8,2.4-13.9,8.7-18.4c7.7-5.5,18.7-1,20.9,8.3c1.1,4.7,1.7,9.1-1.4,13.5c-2.1,3.1-4.2,5.1-8,5.8c-8.5,1.7-9.5,4.1-8.1,13.1
		c0.7,4.7,3.1,8.9,5,13.3c4.6,10.8,4.4,11.3-6.8,13.4c-6.3,1.2-12.5,2.3-18.5,4.4c-4.9,1.7-7.8,0.7-9.5-3.9
		c-6.8-18.3-14-36.5-17.5-55.9C121.8,381.9,121.8,380.3,121.7,379.8z"/>
	<path fill="#010000" d="M192,116.8c8.3-0.1,12.2,3.8,12,12.1c-0.1,5-1.1,10-3.1,14.5c-1.2,2.8-0.5,4.1,1.7,5.5
		c8.2,5.5,17.4,9.2,26.3,13.3c1.4,0.6,2.5,0.9,1.3,2.8c-6.4,9.8-12.7,19.7-19.1,29.5c-1.3,2-3,2.8-5.1,1.8
		c-17.4-8.1-35.5-14.9-50.9-26.7c-7.4-5.7-11.2-13.4-9.7-23.3c1.6-9.9,9.5-14.6,18.6-10.4c6.2,2.8,10.4,7.6,12.3,14.2
		c0.9,3.2,1,6.2-1.1,9.3c-2.5,3.6-1.5,6.7,2.1,9.1c4.5,3,10,3.9,14.4,7.2c0.8,0.6,1.2-0.6,1.5-1.2c1.9-4.1,3.8-8.1,5.4-12.3
		c1-2.5-1.4-5.4-5-6.2c-6.8-1.4-10.9-6-13.7-11.9c-2.8-6.1-3.2-12.6-1-18.9C180.9,119.6,185.3,116.9,192,116.8z"/>
	<path fill="#010100" d="M20.9,221.4c-1.3,3-1.6,6.2-2.2,9.4c-0.3,1.7-0.4,3.7-2.6,4.1c-2.3,0.4-4.4-0.2-5.9-2.3
		c-0.8-1.2-1.2-2.4-1.3-3.8c-0.5-8.2,1.5-15.8,5.6-22.9c0.6-1,1.2-2.2,2.1-2.6c4.1-1.8,7.6-3.6,8.7-8.8c0.4-2.2,5.8-1.7,9.1,0.6
		c4.1,2.8,7,6.7,9.8,10.7c3.2,4.8,7.3,8.8,10.9,13.3c1.1,1.4,2,1.3,3.4,0.4c2.3-1.5,4.1-3.4,6.2-4.9c5.3-4.1,11.3-3.3,16.8,0.1
		c8.1,5,11.9,15,9.6,24.4c-1.1,4.3-4.3,6.9-7.6,9.3c-4.7,3.5-9.9,5.8-15.7,6.4c-6.2,0.7-10.7-2.4-14.1-7.4
		c-3.3-4.8-5.1-10.3-7.9-15.3c-1.5-2.7-3.1-5.3-5.7-7.3c-2-1.6-3.3-1.1-4.8,0.5c-2.7,2.9-3.6,6.8-4.9,10.4c-0.7,2.1-1.5,4.3-4,4.4
		c-2.4,0-3.6-2.1-4.4-4.1C19.8,231.2,20.3,226.3,20.9,221.4z"/>
	<path fill="#000001" d="M310.4,104.6c0-2.6,0.1-5.2,0-7.9c-0.1-3,1.4-4.4,4.3-4.4c2.7,0,5.5,0.1,8.2,0.4c4.9,0.7,9.3-0.7,13.7-2.5
		c5.9-2.4,6.6-7.3,6.5-12.8c-0.1-8.5,10-17.8,18.6-17.3c3.4,0.2,5.5,2.7,6,6.9c1.8,13.9-6,23.6-15.3,27.8c-4.6,2.1-8.6,5.4-13.7,6.6
		c-3,0.7-1.2,3.3-1.6,5c-0.6,3.1,0.2,4.2,3.8,3.6c5.1-0.9,10.4-0.8,15.6-1.8c3.9-0.8,5.9-2.6,6.2-7c0.8-12.1,11.9-20.2,22.9-17.2
		c6.8,1.9,9.9,7.7,8.3,14.5c-2.3,9.3-8.8,14.5-17,18c-10.2,4.4-21.1,5.9-32.1,6.6c-7.1,0.5-14.2,1.3-21.2,2.1c-1,0.1-2,0.2-3,0.3
		c-7.5,0.4-8.6-0.6-9.4-8.1C310.7,113,310.4,108.8,310.4,104.6z"/>
	<path fill="#030503" d="M451.6,231.9c-0.7-7.3,5.2-15.1,11.2-16.2c6.2-1.2,15.7,3.4,18.7,9.3c2.9,5.8-0.6,13.7-7.3,16.6
		c-6.8,2.9-13.4,2.1-19.6-1.5C451.3,238.2,451.5,234.9,451.6,231.9z"/>
	<path fill="#030603" d="M432.5,211.3c5.6,0,9.5,2.4,11.4,7c2.2,5.4,3.3,11.3-0.8,16.3c-3.4,4.1-8.1,5.7-13.5,4.5
		c-5-1.1-9.7-3.2-12.1-7.8c-4.8-9.1-2.7-14.1,7.2-18.1C427.3,212.2,430,211.2,432.5,211.3z"/>
	<path fill="#5F5F5F" d="M304.9,648.6c1.4-5.3,1.3-10.2,1.1-14.9c-0.2-3.6,1-3.8,4.1-2.9c9.2,2.7,17.1,7.6,22.5,15.3
		c3.5,5,5,11.4,4.4,17.7c-1.3,13.8-11,20.6-22.6,25.2c-17.5,6.9-35.6,7-53.5,1.8c-8.1-2.3-15.6-6.6-20.4-13.8
		c-5-7.5-5.8-21.3,0.9-29.1c7.3-8.5,15.9-14.6,27.3-17.6c-1.1,5.9-0.3,11.3-0.1,16.7c0,1-0.5,2.6,1.2,2.6c1.7,0,1.2-1.6,1.2-2.6
		c0.1-7.8-0.9-15.7,0.8-23.5c0.8-3.6,2.2-6.8,4.7-9.7c1.3-1.5,2.1-1.1,3.1,0.2c4.1,5.8,11.1,5.5,14.4-0.9c0.9-1.8,1.6-1,2.4-0.3
		c3.3,2.7,5,6.4,6.1,10.5c1.8,6.7,1.4,13.6,1.5,20.5C303.9,645.1,303.3,646.6,304.9,648.6z"/>
	<path fill="#5F5F5F" d="M280.2,406.6c2.2,3.8,5.8,4.5,9.3,5.1c2.1,0.4,2.4,1,1.8,2.9c-0.6,1.9-1,3.9-1.2,5.9
		c-0.2,1.7-0.1,3.6,1.7,4.4c8.9,4,7.7,21-0.2,25.6c-2.8,1.6-3.8,3.7-3.7,6.8c0.7,24.6,1.2,49.2,1.8,73.8c0.4,17.5,1,34.9,1.4,52.4
		c0.2,8.9,0.5,17.7,0.7,26.6c0.1,3.8-1.7,5.8-5.1,5.8c-3.7,0-5.4-1.6-5.5-5.4c-0.5-18.3-1.1-36.7-1.6-55
		c-0.7-24.6-1.3-49.2-2.3-73.7c-0.3-8.4-0.4-16.7-0.6-25.1c-0.1-3-0.9-5.2-3.7-7c-7.4-4.6-8.3-17.9-0.7-23.1
		C280.1,421.2,281.4,414.8,280.2,406.6z"/>
	<path fill="#5F5F5F" d="M277.5,398.3c0.1-0.9,0-1.7,0.2-2.4c0.6-2.2,0.7-4.4-1.6-5.6c-2.1-1.1-6.2,0.6-7.5,2.8
		c-3.3,5.6-4.6,6.1-9.8,4.1c-4.4-1.7-5.8-5-4.5-10.3c1.2-4.9,2.6-9.9,3.7-14.8c0.8-3.4,3.2-4.6,6.2-5c3.1-0.4,5.7,0.6,7.3,3.5
		c0.9,1.6,1.4,3.4,1.5,5.3c0.2,3.1,3,5.6,5.9,5.2c1.6-0.2,2.6-1.2,3-2.9c0.4-1.6,0.7-3.2,1.4-4.6c1.7-3.6,5-4.5,8.3-2.7
		c2.5,1.4,5.3,2.4,8.2,2.1c2.5-0.3,3.8,0.9,4.9,3.1c4.8,9.5,1.5,24.2-6.9,30.8c-1.3,1-2.7,1.3-4.2,1.1c-5.3-0.4-10.1-2.4-14.6-5.2
		C277.1,401.6,277.7,399.8,277.5,398.3z"/>
	<path fill="#5F5F5F" d="M316.8,272.3c2.3,1.4,2.3,3.6,1.9,5.9c-5.2,29.4-10.4,58.8-15.8,88.2c-0.3,1.6,0.4,4.3-2.1,4.6
		c-3,0.4-5.9-0.9-8.3-2.8c-0.8-0.6-0.4-1.6-0.2-2.4c4.8-28.6,9.6-57.2,14.4-85.8c0.5-2.8,0.9-5.6,1.3-8.7c1.5,0.1,2.4,2.9,4.1,1
		C313.7,272.1,315.2,272.1,316.8,272.3z"/>
	<path fill="#FEFEA0" d="M307.5,266.1c-3.9-4.6-6.9-8.7-5.2-14.7c0.6-2.2,0.6-2.2-1.7-1.8c-1.2,0.3-1.7-0.9-2.3-1.5
		c-2.1-2.2-3.9-4.6-6.7-6.1c-2.6-1.4-2.7-4.9-1.7-7.4c2.5-6.1,6.9-10.4,13.7-11.7c1.9-0.4,3.6,0.4,4.9,2c2.4,2.9,4.8,5.7,7.3,8.5
		c0.2,0.3,0.8,0.6,0.7,0.8c-1.2,5.8,3.2,3,5.3,3.3c4.3,0.7,7.3,3.2,9.9,6.8C317.7,244.3,307.7,254.2,307.5,266.1z"/>
	<path fill="#FEFEA0" d="M334.6,288.3c-3.2-2-5.2-4.7-7.3-7.2c-2.4-2.9-4.6-5.8-7-8.7c-6.4-7.7-3.9-15.7,5.9-18.4
		c3.5-1,6.3-0.8,8.7,2.7c4.1,5.7,8.8,11,13.6,16.9c-4.2,0.4-7.3,2-9.8,4.7C336.1,281,335,284.4,334.6,288.3z"/>
	<path fill="#FCFC9F" d="M336.9,287.4c0-5.2,4.4-10.6,9.5-11.4c2.4-0.4,4.6,0.2,6,2.2c1.4,2.1,0.5,4.1-0.9,5.8
		c-2.6,3.3-5.6,6-9.8,7.1C338.4,291.9,336.9,290.6,336.9,287.4z"/>
	<path fill="#FAFA9E" d="M316.8,272.3c-1.5,1.2-3.1,1.2-4.7,0c-1.4-3.9-3.2-7.6-1.7-12.1c2.3-7.1,11.4-13.8,18.9-13.4
		c3.6,0.2,5.4,1.9,6.6,6.2c-6.1-3.1-13.9-1.5-18.8,4C312.9,261.8,312.8,266,316.8,272.3z"/>
	<path fill="#FD005E" d="M194.4,276.8c-3.2-6.6-6.9-13-11.8-18.6c-4.2-4.9-9.2-8.5-15.4-10c-3.1-0.7-6.7-0.1-7.6-4.5
		c-0.1-0.5-0.8-0.6-1.2-0.2c-0.6,0.5-0.4,1.1-0.1,1.7c6,11.9,12.9,22.8,28.2,23.7c0.3,0,0.6,0.3,1.7,0.9c-2.5,0.2-4.1,0.3-5.7,0.5
		c-0.6,0.1-1.3,0.1-1.4,0.9c-0.1,1.1,0.8,1.1,1.5,1.1c1.6,0.1,3.2,0.2,4.9,0.1c1.5,0,3.1,0.2,3,1.9c-0.1,1.6-1.8,0.9-2.8,0.9
		c-11.5,0.4-21.1-4.6-29.9-11.2c-7.4-5.6-14.1-12.1-17.4-21.1c-3.2-8.8,1.3-12.5,9.3-13c14.8-0.9,25.4,6.4,33.6,18
		c1.7,2.3,3.3,4.7,4.6,7.2c1,1.8,3.5,3.4,1.2,6.1c-0.4,0.4,0.6,2,1.1,3c1.6,3.9,3.2,7.8,4.8,11.8C195.4,276.8,195.1,277,194.4,276.8
		z"/>
	<path fill="#FD005E" d="M215.8,303.9c0.8,0.8,1.3,2.5,2.8,0.8c4.5-5.2,8.2-10.7,7.6-18c-0.6-6.8-5-10.3-11-12.2
		c-3.8-1.2-7.8-1.6-11.8-0.9c-1,0.2-2,0.3-3,0.1c-1.3-0.3-1.5-1.6-1.8-2.6c-0.3-1.3,1.1-1,1.8-1.3c1.4-0.5,2.9-0.7,4.4-1
		c0.8-0.2,1.9-0.1,1.5-1.5c-0.3-1.2-1.1-1.2-2-0.9c-2.3,0.7-4.5,1.9-7.1,1.7c0-1.9,1.4-1.5,2.1-1.9c2.5-1.5,5.7-1,7.8-4.1
		c0.9-1.4,4.7-1.1,7.1-1.2c9.5-0.3,18.1,1.6,23.6,10.5c0.8,1.4,2.9,2.9,0,4.5c-0.2,0.1-0.2,0.9-0.1,1.4c1,4.8-1.2,9.8,1.6,14.5
		c0.5,0.8-0.8,2.7-1.3,4.1c-2.5,6.6-6.7,12.2-11.7,17.1c-0.6,0.6-1.2,1.6-2.2,0.7c-1.1-1.1,0.2-1.5,0.8-2c1.9-1.8,3.8-3.6,5.7-5.4
		c0.7-0.6,1.4-1.1,0.4-2.1c-0.9-1-1.5-0.3-2.1,0.4c-1.9,1.9-3.9,3.8-5.8,5.9c-1.1,1.2-1.7,1.3-2.9,0c-1.9-2.3-4.2-4.2-5.3-7.1
		C215.3,303.2,215.6,303.4,215.8,303.9z"/>
	<path fill="#FD005E" d="M212.5,309.8c3.7,4.6,7.4,9.1,12.5,12.2c0.9,0.6,2,2.5,3.3,0.6c1.2-1.8-1.1-1.7-1.7-2.6
		c-0.2-0.3-0.5-0.5-0.8-0.9c2.2,0.4,4.3,0.7,6.4,0.7c4.3,0.1,5.8-3.4,8.1-6c2.9-3.2,4.3-3.3,7,0.2c2.5,3.2,3.3,6.8,1.6,10.5
		c-1.6,3.6-4.9,4.6-8.6,4.8c-13.9,0.8-22.8-6.2-28.8-18C211.1,310.4,211.1,309.7,212.5,309.8z"/>
	<path fill="#FDFDFD" d="M215.8,303.9c-0.3-0.2-0.7-0.5-1-0.7c-2.6-4.6-5.3-9.2-7.9-13.8c-0.3-0.6-1-1.4-0.4-2
		c0.5-0.6,1.4-0.4,2.1-0.1c1.6,0.6,3.3,1.2,4.9,1.6c1.1,0.3,2.2,0.2,2.9-1c0.7-1.2,0-2.2-0.7-3c-2.9-3.4-7-4.6-11-5.9
		c-0.9-0.3-1.9-0.5-2.8-1c-0.4-0.3-0.8-1-0.8-1.6c-0.1-0.9,0.7-0.9,1.3-0.9c5.4-0.4,10.8-0.4,15.6,2.5c6.3,3.7,7.7,10.9,3.7,18.3
		C220.1,299.1,218.1,301.7,215.8,303.9z"/>
	<path fill="#FC005E" d="M194.1,281.5c-7.1,6-9.3,13.4-5.4,22c4.3,9.3,11.7,14.4,22.1,14.3c1.7,0,2.9,0.4,3.2,1.8
		c0.4,1.7-1.4,1.3-2.3,1.5c-12.9,3.5-27.2-6.5-29.3-20.4c-1.5-9.9,2-16.6,10.3-19.4C193,281.2,193.5,280.9,194.1,281.5z"/>
	<path fill="#F9005D" d="M189,293.9c0-2.5,1.3-5.8,3.9-8.5c0.7-0.7,1.5-2.8,2.7-1c0.8,1.2,2.5,2.6,0.8,4.6c-6.9,8.3-2.3,20,8.8,22.6
		c2,0.5,5.5,0.3,4.8,3.2c-0.4,1.5-3.8,0.5-5.7,0C195.5,312.2,189.1,304,189,293.9z"/>
	<path fill="#F9F9F9" d="M206.6,307.9c-6.5,0-12-5.6-11.8-11.6c0.1-1.9,0.9-3.3,2.1-4.6c0.8-0.9,1.7-1.1,2.3,0.3
		c0.1,0.2,0.2,0.5,0.3,0.7C201.9,297.7,204.2,302.7,206.6,307.9z"/>
	<path fill="#F7F7F7" d="M163.2,249.5c10.3,1.4,16.1,7.3,21,14.5C176.2,261.2,169.2,257,163.2,249.5z"/>
	<path fill="#740027" d="M194.4,276.8c0.3-0.2,0.5-0.5,0.8-0.7c3.9,8.3,7.9,16.6,11.8,24.9c-0.2,0.3-0.3,0.8-0.8,0.8
		C201.8,293.6,198.2,285.1,194.4,276.8z"/>
	<path fill="#DB0051" d="M214.2,286.6c-3.5-0.1-6-2-8.9-1.6c-0.8,0.1-1.5-1.3-1.3-2.3c0.2-0.9,1.2-0.6,1.9-0.5
		C208.9,282.7,211.7,283.7,214.2,286.6z"/>
	<path fill="#C90C51" d="M206.2,301.7c0.3-0.3,0.6-0.5,0.8-0.8c1.8,2.9,3.6,5.9,5.5,8.8c-0.7,0.3-0.8,0.9-0.9,1.6
		C209.3,308.4,207.7,305.1,206.2,301.7z"/>
	<path fill="#650021" d="M240.6,279.2c0.2,2.4,0.7,4.8-0.2,8C238.7,283.8,239.7,281.5,240.6,279.2z"/>
	<path fill="#7B5964" d="M174.3,262.1c1.8,0.3,3.4,1,5.1,2.6C177,264.6,175.6,263.4,174.3,262.1z"/>
	<path fill="#5CFE53" d="M359.4,352.3c-4.7-14.5-8.8-29-5.7-44.6c1.6-7.7,3.1-15.4,5.9-22.8c6.6-16.8,19-27.4,35.7-33.5
		c9.4-3.4,19.1-5.7,29.3-5.3c21.6,0.8,44.7,12.4,53.2,34.8c2.3,6,3.1,12.3,2.4,18.7c-1.1,10.4-4.8,20-11,28.3
		c-8.1,10.7-19.9,13.4-32.6,13.1c-9.5-0.2-15.1-6.2-20-13.3c-2.1-3.1-2.9-7-5.1-10c-7.3-9.9-2.9-19,1.4-28.1c1.5-3.1,3.6-6,5.5-8.9
		c0.8-1.3,1.8-2.4,3.6-2.3c1.3,0,2.6-0.3,2.8-1.9c0.2-1.8-1.5-1.9-2.5-2.2c-10.2-3.3-19.9-2.8-30.1,1.3
		c-15.4,6.1-22.6,18.1-27.4,32.5c-2.2,6.6-4.1,13.4-5.9,20.1c-1.2,4.4,0.5,8.7,0.7,13c0.2,3.7,0.6,7.3,0.9,11
		C360.2,352.2,359.8,352.3,359.4,352.3z"/>
	<path fill="#57F34F" d="M413.5,243.3c10.7-2.4,21.3-1.9,31.7,1.4c12.4,3.9,21.9,11.5,28.9,22.4c0.5,0.7,0.7,1.6,0.8,2.5
		c-3.3-3.1-5.8-6.8-9.2-9.8c-9.8-8.6-21.2-13.3-33.9-15.3c-5.6-0.9-11.2-0.4-16.8-0.5C414.4,244.1,413.4,244.7,413.5,243.3z"/>
	<path fill="#55E34D" d="M382.9,254.7c-8.2,4.8-14.3,10.5-19.4,17.6C365.1,263.7,373.2,256.1,382.9,254.7z"/>
	<path fill="#4BBC46" d="M417.7,333.8c-5.6-5.6-9.9-11.9-10.1-20.1C410.8,320.5,413.3,327.7,417.7,333.8z"/>
	<path fill="#379C32" d="M392.3,279.1c4.6-2.6,9.2-5,14.7-4.4C402,276.1,397.2,277.6,392.3,279.1z"/>
	<path fill="#3DAD37" d="M413.5,243.3c0.5,0.2,1,0.5,1.5,0.7c-2.6,1-5.3,1.4-8.1,1.4C408.9,243.8,411,243.2,413.5,243.3z"/>
	<path fill="#246221" d="M383.9,283.5c-1.5,1.2-3,2.3-4.4,3.5c0.6-2.1,1.9-3.5,3.8-4.3C383.4,283,383.6,283.2,383.9,283.5z"/>
	<path fill="#9FFEFE" d="M210,94.9c-8.1,6.7-16.1,10-26,10.4c-7.7,0.3-12.6-2.6-16.9-8.4c-4.1-5.5-7.4-11.1-6.5-18.5
		c0.5-4.3-1.9-5.7-5.8-3.9c-11.8,5.7-23.2,12.2-34.7,18.5c-0.7,0.4-2.1,0.5-1.4,1.7c0.7,1.4,1.8,0.2,2.5-0.2
		c10.7-5.6,21.4-11.3,32.1-16.8c1.4-0.7,3.4-3,4.7-0.8c1.4,2.4-1.9,2.2-3.1,3c-10.4,7.4-20.9,14.6-31.3,21.9
		c-0.7,0.5-1.5,0.9-2.7,0.9c0.9-0.8,1.8-1.7,2.7-2.6c0.5-0.5,1.9-0.8,0.9-1.9c-0.9-1-1.6,0.2-2.1,0.7c-6.1,5.2-12.3,10.3-19.3,14.2
		c-9.9,5.6-20.3,8.7-31.9,6.2c-2.2-0.5-4.9-1.3-5.5-2.8c-3.8-8.9-14-14.4-13.5-25.7c0.2-5.9,1.6-11.1,5-15.7
		c6.3-8.7,15-13.5,25.7-13.9c8.4-0.3,14.2,4.7,18.5,11.4c1.6,2.4,2.9,5,4,7.6c1.3,3.2,3.1,3.9,6.3,2.2c14.4-7.4,28.6-15.1,43.4-21.8
		c8.2-3.7,16.4-7.2,25.1-9.6c4.7-1.3,5.1-1,4.4,3.7c-0.9,6.3-2.8,12.4-3.5,18.8c-1,9.7,2.4,16.2,11.1,19.7c3.6,1.5,7.5,1.8,11.4,1.7
		C205.4,94.8,207.2,94.9,210,94.9z"/>
	<path fill="#8FE5E5" d="M100.5,67.1c5.4,2.8,7.1,7.2,9.6,11c0.6,0.9,1,1.6-0.4,2.3c-1.4,0.8-1.9,0.3-2.5-1
		C105.6,75.5,103.7,71.6,100.5,67.1z"/>
	<path fill="#80CECE" d="M186.9,58.3c-0.5-3,1.1-5.4,1-7.9C189.9,53.1,189,55.5,186.9,58.3z"/>
	<path fill="#DF00FE" d="M164.7,376.7c0.5,2,1.3,1.2,2.3,0.3c2-1.9,4.3-3.4,7-4.2c2.8-0.9,5.3-0.3,7.2,1.7c3.6,3.7,5.1,8.5,3.8,13.1
		c-1.2,4.4-4,8.1-9.3,9.1c-9.1,1.8-10.3,5.7-9.1,13.8c1.2,8,3.2,15.8,6.2,23.6c-8.8,0.6-17,1.8-24.9,4.6c-1.5,0.5-2.2,0.1-2.9-1.3
		c-6-13.3-11.7-26.7-15.1-41c-0.4-1.5,0.1-3.8-2.8-3.2c-1.2,0.3-1.2-1.1-1.4-1.9c-1.5-5.6-2.1-11.3-1.7-17.1
		c0.8-12.3,17-20.3,26.1-13.7c9.2,6.6,9.2,17.6-0.6,24c-3.1,2.1-6.5,3.7-10.1,4.7c-3.2,0.9-4.6,2.6-3.6,6.2c1.3,4.8,2,9.8,3,14.6
		c0.4,1.7,0.7,3.5,1.5,5c1.6,3,3.7,5,7.6,4.4c3.7-0.6,7.4-1.3,11-2.1c3.1-0.7,4.1-2.3,4-5.6c-0.4-6.8-2.8-13.1-3.4-19.8
		c-0.5-5.7-0.1-11,3.9-15.4C163.9,376.3,164.3,376.3,164.7,376.7z"/>
	<path fill="#A000B6" d="M160.1,414c-10,4.2-15.9,4-18-1C148,417.7,153.7,413.3,160.1,414z"/>
	<path fill="#B902D3" d="M138.8,428.4c1.8,3.9,3.6,7.7,5.3,11.6c-0.3,0.2-0.6,0.3-1,0.5c-2.9-3.1-3.9-7.3-5.2-11.2
		C137.7,428.4,138.1,428.2,138.8,428.4z"/>
	<path fill="#9F00B5" d="M164.7,376.7c-0.4,0-0.8-0.1-1.2-0.1c1.7-3.2,4.5-4.9,8.1-5.3C169.1,372.8,166.8,374.7,164.7,376.7z"/>
	<path fill="#750085" d="M138.8,428.4c-0.3,0.3-0.6,0.6-0.9,0.9c-1.1-1.9-1.7-3.9-2.1-6.8C137.6,424.6,138.2,426.5,138.8,428.4z"/>
	<path fill="#FEAB79" d="M223,163.2c-3.5,7.5-8.4,13.5-13.1,19.6c-2,2.6-3.5,6.3-6.1,7.3c-2.7,1-5.7-2.3-8.6-3.6
		c-8.4-3.7-16.9-7.5-25.3-11.1c-5-2.1-9.6-4.3-13.7-7.6c-8.3-6.6-10.9-15.8-7.3-25.1c1.2-3.1,3-5,6.7-4.7c2.1,0.2,4.2,0.1,6.3,0.6
		c4.2,1,6.7,3.5,7.4,7.8c0.9,5.5-0.1,11-0.7,16.4c-0.5,4.9,1.1,7.7,5.6,9.6c4.7,2,9.3,4.3,14.2,5.8c4.1,1.2,6.2,0.3,7.6-3.7
		c1.3-3.7,2.7-7.2,4.3-10.7c1.7-3.7,1.1-5.7-2.5-7.8c-3-1.7-5.9-3.5-9-5c-4.1-2-6.6-5.9-7.6-10.2c-1.2-5-1.3-10.1,0.6-15.1
		c1.7-4.3,5.3-6.7,9.5-6c5.3,1,7.8,4.1,7.6,9.3c-0.2,5.8-2.8,11.1-3.8,16.7c-0.4,2.3,0.2,3.2,1.5,4.2c7.2,5.8,14.9,10.9,24.3,12.5
		C221.4,162.7,222,163,223,163.2z"/>
	<path fill="#F1A373" d="M227,165.3c-5.8,9.1-11.4,18.1-17.1,27c-0.6,0.9-1.2,2.5-2.8,1c-1.5-1.3-0.3-2.2,0.4-3.1
		c3.4-4.6,6.9-9.2,10.2-13.9c2.1-2.9,4-6,5.9-9.1C224.2,166,224.6,164.6,227,165.3z"/>
	<path fill="#F2A374" d="M170.7,165.5c0.4-5.6,0.8-11.2,1.2-16.7c3.8,3.4,4.2,5.6,1.5,9.7C171.9,160.7,172.6,163.3,170.7,165.5z"/>
	<path fill="#9F6A4A" d="M201.2,129.7c-0.4,5.1-0.9,10.1-3.7,14.6C197.8,139.2,200.4,134.7,201.2,129.7z"/>
	<path fill="#4D3120" d="M213,157.3c-4-0.3-7.1-2.1-9.6-5.1C206.5,153.9,209.7,155.6,213,157.3z"/>
	<path fill="#764D35" d="M180,172c2.9,1.2,5.8,2.5,8.7,3.7c-3.5-0.1-6.7-1.1-9.5-3C179.3,172.2,179.7,172.2,180,172z"/>
	<path fill="#BC7E59" d="M180,172c-0.3,0.2-0.5,0.5-0.8,0.7c-2.7-0.9-5.1-2.2-7.2-4.2C175.3,168.3,177.1,171.4,180,172z"/>
	<path fill="#68564B" d="M198.8,121.4c1.9,0.8,2.7,2.2,2.3,4.9C200.1,124.3,199.5,122.9,198.8,121.4z"/>
	<path fill="#593926" d="M196.6,147.2c1.9,0.2,2.4,1.1,2.9,2.5C197.7,149.8,197.1,148.9,196.6,147.2z"/>
	<path fill="#FEDB00" d="M26.2,237c-1.7-0.6-2.2-2-2.6-3.3c-1.5-5-1.2-9.9,0.8-14.6c0.7-1.7,0.9-4.5,4.6-2.8c1.9,0.9,3.7-2,5.1-3.8
		c0.9-1.1,0.3-2.1-0.5-3c-1.6-1.7-3.3-1.2-5.2-0.5c-7.7,2.9-14.3,12.8-14.5,22c-2.2,0.2-2.7-1.3-2.8-3c-0.3-8.1,1.5-15.6,6.1-22.3
		c0.6-0.9,1.4-1.4,2.6-1.7c3.1-0.8,5.9-2.2,6.2-6c0.2-2.1,1.7-1.4,2.8-0.9c2.3,1,4.2,2.7,5.8,4.6c4.1,4.9,7.4,10.4,11.2,15.4
		c2.1,2.8,4.3,5.3,7.6,7.1c1.8,1,2.5,0.5,3.7-0.4c3.5-2.8,7.3-5.4,11.8-6c10.9-1.5,18.1,8.1,14.4,19c-2.4,7-7.8,10.4-14.5,12.1
		c-1.2,0.3-2.9-0.1-2.6,2.3c0.3,1.6-1.1,0.9-1.8,0.9c-4.3-0.1-7-2.9-9.3-6.1c-3-4.2-4.8-9-7.1-13.5c-2.1-4-4.6-7.6-8.5-10.3
		c-2.8-1.9-5.6-1.7-7.7,1C29.2,226.7,27.7,230.4,26.2,237z"/>
	<path fill="#F1D000" d="M85.8,222c6.5,9.2,5.4,18.1-3.1,24.2c-0.9,0.3-1.7,0.4-1.7-0.9c5.8-6.5,7.2-13.7,3.8-21.8
		C84.3,222.5,84.4,221.9,85.8,222z"/>
	<path fill="#C7AB01" d="M85.8,222c-0.7,0.3-0.8,0.9-0.9,1.6c-3.6-6.2-9.1-9-16.4-8C75.1,212.9,81.3,215.3,85.8,222z"/>
	<path fill="#A89100" d="M53.1,221.5c-3.6-2.2-6.6-6-8.5-10.8C48,214.3,50.8,217.6,53.1,221.5z"/>
	<path fill="#968207" d="M37.6,201.6c3.2,1.9,5.2,4.6,6.8,7.7c-0.3,0.2-0.6,0.4-0.8,0.7C41.6,207.2,39.6,204.4,37.6,201.6z"/>
	<path fill="#887400" d="M81,245.3c0.2,0.9,1,0.8,1.7,0.9c-2.3,1.2-4.6,2.4-6.9,3.6C76.9,247.5,79.3,246.8,81,245.3z"/>
	<path fill="#907C00" d="M15.9,230.8c-0.1-2.8-0.5-4.8,1.3-6.9C17.6,226.3,17,228.1,15.9,230.8z"/>
	<path fill="#2700FE" d="M386.3,106.5c-4.4,3.1-7.7,7.9-13.5,9c-0.8,0.5-1.5,0.5-2.3,0c-0.1-2.1-1.1-2.2-3-1.7
		c-11,2.9-22,5.3-33.2,7.3c-5.4,1-10.9,0.5-16.3,1.8c-2.2,0.5-3.9-0.4-4.3-3c-1.2-7.6-0.9-15.2-1.2-22.8c-0.1-1.9,1.2-1.8,2.4-2
		c3.6-0.5,7.2-0.4,10.8-0.3c6.7,0.2,12.9-1.2,17.2-7.1c2-2.8,2.8-5.7,2.4-9.1c-0.8-6.9,1.7-11.2,8.1-13.8c2.8-1.2,5.4-0.2,7.8,1.4
		c2.1,1.4,2.9,3.8,2,6c-1.6,4.1-0.1,8.8-2.7,12.8c-2.1,3.1-4.8,5.4-7.9,7.3c-0.5,0.3-1.6,1.2-1.8,0.1c-0.8-4.2-2.9-1.3-4.2-0.7
		c-3.3,1.5-6.4,3.3-9.6,5c-1.7,0.9-2.9,2.1-2.8,4.4c0.2,3.2,0.1,6.5,0.1,9.7c0,1.6,0.5,3,2.3,2.5c6.2-1.8,12.7-1.1,18.9-2.5
		c7.3-1.7,8.8-3.2,9.8-10.6c0.9-7.3,5-12.4,11.7-13.9c3.3-0.8,7.2-1.8,9.8,1.4c3.1,3.8,3,9.5,0.6,13.4c-0.8,1.3-2.8,2.2-2,4.3
		C386.1,105.5,386.8,105.7,386.3,106.5z"/>
	<path fill="#190795" d="M370.6,115.6c0.8,0,1.5,0,2.3,0c-3.8,2-10.1,3.6-14.5,3.6c1.9-1.6,4.2-1.4,6.1-2.1
		C366.4,116.4,368.5,116.1,370.6,115.6z"/>
	<path fill="#120093" d="M344.5,95.4c-1.7,2.8-4.4,3.6-7.5,3.4C339.5,97.7,342,96.5,344.5,95.4z"/>
	<path fill="#130098" d="M386.3,106.5c-0.3-0.4-0.5-0.9-0.8-1.3c2.4-0.9,3-3.6,5.4-5.4C390.6,103.4,388.5,105,386.3,106.5z"/>
	<path fill="#C3C3C3" d="M365.3,65.8c-1.8-0.8-2.9-2.7-5-3.3C363.5,61.3,364.6,63.3,365.3,65.8z"/>
	<path fill="#5CFE53" d="M465.2,241.1c-0.8-0.1-2-0.1-3-0.3c-7.6-1.5-9.2-4-7.8-11.7c1.4-7.7,6.6-12.3,12.9-11.2
		c4.8,0.8,8.6,3.5,11.6,7c2.2,2.6,1.9,7.1-0.6,10.5C475.1,239.6,470.7,241.2,465.2,241.1z"/>
	<path fill="#5CFE53" d="M443.3,226.9c0.6,5.4-4.4,10.2-9.4,10.3c-1.9,0-3.8,0-5.6-0.5c-5.5-1.4-11.9-8.1-11.9-12.3
		c0-3.1,8.3-9.3,13.7-10.4C438.1,212.4,443.2,217.4,443.3,226.9z"/>
	<path fill="#090003" d="M162.5,240.1c4.5,0.9,8.7,2.3,12.8,4.2c0.9,0.4,1.6,0.8,1,1.9c-0.4,0.9-1.1,0.9-1.9,0.5
		c-4-2.1-8.2-3.6-12.5-4.6c-0.7-0.2-1.6-0.4-1.3-1.4C160.9,239.7,161.9,240.2,162.5,240.1z"/>
	<path fill="#160007" d="M154.9,248.3c1-0.1,1.3,0.7,1.7,1.3c1.6,2.4,3.2,4.7,4.8,7.1c0.5,0.7,1.1,1.4,0,2.2c-1,0.7-1.6,0.3-2.1-0.5
		c-1.6-2.8-3.3-5.5-4.9-8.3C154,249.2,154,248.6,154.9,248.3z"/>
	<path fill="#0E0004" d="M162.1,235.4c-3.2-0.5-6.1-0.9-8.9-1.2c-1-0.1-1.3-0.5-1.1-1.5c0.2-0.9,0.6-1.3,1.6-1.1
		c2.8,0.6,5.6,1.1,8.4,1.7c0.7,0.2,1.6,0.3,1.5,1.3C163.3,235.7,162.4,235.4,162.1,235.4z"/>
	<path fill="#080003" d="M235.2,287.7c0.3,1.1-0.2,1.6-1.3,1.8c-1.4,0.2-1.3-0.9-1.3-1.7c-0.6-10.8-6.2-17.8-16.3-21.4
		c-0.7-0.2-1.6-0.4-1.4-1.4c0.2-1,1-0.7,1.8-0.5C227,267,235.4,277.5,235.2,287.7z"/>
	<path fill="#030104" d="M160,420.4c6.2,0.1,6.3,0.2,7,8.6c0.2,2.4-2.4,4.9-5.4,5.5c-3.8,0.8-7.2-1.6-11-1.3c-1.4,0.1-2-7.3-0.9-8.8
		C152.5,420.4,156.7,420.6,160,420.4z"/>
	<path fill="#030202" d="M196.3,178.6c-0.4-2.7,0.6-4.5,1.7-6.3c1.9-3.1,4.3-5.8,6.8-8.4c2-2.1,3.9-2.2,6.3-0.9
		c5.7,3.3,5.9,3.6,2.2,9.1c-1.7,2.5-3.1,5.1-5.3,7.2c-2.2,2.1-4.7,3.2-7.8,2.9C197.7,182.1,195.4,181.7,196.3,178.6z"/>
	<path fill="#030309" d="M320.3,104.7c-0.6-1.7,0.3-3,2-3.6c1.8-0.6,3.5,0.2,4.7,1.6c2.3,2.6,2.2,8.3-0.2,10.8
		c-1.6,1.7-3,1.4-4.3-0.4C321.3,111.6,320.5,108.4,320.3,104.7z"/>
	<path fill="#EFE8F0" d="M151.4,426.1c3.2-0.9,5.9-1.6,8.6-2.4c1.1-0.3,2.7-0.8,3.1,0c0.5,1.3,0,2.9-1.3,4
		C159,429.9,154.5,429.3,151.4,426.1z"/>
	<path fill="#B000C8" d="M163.4,429.9c-1.5,2.7-4.6,3-9.7,0.9C157,431.4,160.2,431.4,163.4,429.9z"/>
	<path fill="#E69B6E" d="M201.6,179.3c-3.6-1-3.2-3-1.9-5.4c1.6-2.8,3.7-5.3,5.8-7.8c1-1.1,2.4-1.5,3.2-0.4c1.3,1.5-0.8,1.7-1.5,2.2
		C204,171,201.4,174.3,201.6,179.3z"/>
	<path fill="#EDEDED" d="M212.8,168.5c-2,4.9-5.7,9.2-9,10.6C203.4,174,207.3,169.4,212.8,168.5z"/>
	<path fill="#EFEFEF" d="M324.9,112.1c-1.6-1.9-1.3-4-1.8-5.9c-0.3-1.1-0.1-1.9,1.4-2c1.4-0.1,1.8,0.6,1.9,1.7
		C326.4,108,326.6,110,324.9,112.1z"/>
</g>
</svg>
