<?xml version="1.0" encoding="utf-8"?>
<!-- Generator: Adobe Illustrator 18.0.0, SVG Export Plug-In . SVG Version: 6.00 Build 0)  -->
<!DOCTYPE svg PUBLIC "-//W3C//DTD SVG 1.1//EN" "http://www.w3.org/Graphics/SVG/1.1/DTD/svg11.dtd">
<svg version="1.1" id="Layer_1" xmlns="http://www.w3.org/2000/svg" xmlns:xlink="http://www.w3.org/1999/xlink" x="0px" y="0px"
	 viewBox="0 0 1020.3 660.3" enable-background="new 0 0 1020.3 660.3" xml:space="preserve">
<g>
	<path fill="#FDFDFD" d="M510.2,660.2c-168.9,0-337.8,0-506.6,0.1c-3.2,0-3.6-0.9-3.6-3.7C0.1,438.9,0.1,221.3,0,3.7
		C0,0.6,0.6,0,3.7,0c337.6,0.1,675.3,0.1,1012.9,0c3.4,0,3.7,1,3.7,3.9c-0.1,217.6-0.1,435.3,0,652.9c0,2.8-0.7,3.4-3.5,3.4
		C848,660.2,679.1,660.2,510.2,660.2z"/>
	<path fill="#E8E8E8" d="M145.6,205.5c0.1-1.4,1.3-1.6,2.3-2.1c1.9,0.3,3.8-0.1,5.5-0.8c7.7-3.1,15.6-1.1,23.4-0.7
		c2.2,0.1,4.5,0.3,6.7,0.3c16.2,0.3,32.4,0.7,48.6,0c10.7-0.5,21.4-0.8,32.1-2.3c1.3-0.2,2.4-0.6,3.4-1.4c6.3-5.1,16,0.4,17.6,5.9
		c0.3,1.2,1,2.5,0.1,3.6c-2.6,3.4-4.6,7.4-8.3,9.4c2.4-0.4,3.6-2.8,4.9-4.8c2.5-3.7,6-4.7,10.1-4.4c1.9,0.1,3.5,0.9,4.2,2.7
		c0.9,2.4,2.7,2.5,4.8,2.5c13.9-0.2,27.7-1.2,41.6-0.8c7.1,0.2,13.9,1.4,20.6,3.5c4.6,1.5,6.3,2.8,3.9,7.9c-0.3,0.7-0.6,1.4-0.4,2.1
		c0.4-2,0.7-4.7,3.1-4.9c2.6-0.2,2.9,2.7,3.4,4.7c2,7.6,2.7,15.5,3,23.3c0.3,8.1,1,16.2,1,24.3c0.2,21.7,1.3,43.4,2.1,65.1
		c0.3,9,0.6,18,0.9,26.9c0.6,21,1.5,41.9,2.1,62.8c0.4,13.5,0.9,26.9,1.3,40.4c0.3,9.9,0.4,19.7,0.6,29.6c0.2,10.7,0.1,21.5-2.8,32
		c-0.8,2.8-1.7,5.5-3.3,7.9c-0.6,0.9-1.3,2.1-2.6,1.6c-1.1-0.5-0.7-1.7-0.5-2.7c1.1-7.3,1.9-14.6,2.4-21.9c0.6-11.3,0-22.5-0.6-33.7
		c-1.1-19-2.9-38-3.3-57.1c-0.3-14.8-1-29.7-1.5-44.5c-0.5-13.3-0.9-26.7-1.5-40c-0.8-16.2-1.2-32.4-1.9-48.6
		c-0.5-11.6-1.2-23.2-1-34.8c0-2.3-0.1-4.5-0.7-6.7c0.7,8.6,0.3,17.3,1,25.8c0.7,8.4,0.6,16.7,1,25.1c0.5,10.5,0.9,21,1.1,31.4
		c0.3,14.5,1,28.9,1.5,43.4c0.5,12.7,0.8,25.4,1.5,38.1c0.8,17.2,1.2,34.4,2.7,51.5c1.3,15.4,2.5,30.9,2,46.4
		c-0.3,9.9-1.4,19.6-3.3,29.3c-0.6,3.3-2.8,4.9-5.7,5.8c-6.3,2.1-12.9,3-19.5,3.5c-13.3,1-26.7,1.2-40,1.7
		c-11.1,0.5-22.1,1.7-33.2,2.6c-7.8,0.6-15.7,1.2-23.5,1.8c-10.9,0.9-21.8,1.7-32.7,2.7c-7.6,0.7-15.1,1.2-22.7,1.8
		c-8.1,0.6-16.1,1.3-24.2,2c-7.6,0.6-15.1,1.2-22.7,1.8c-8.6,0.6-17.1,1.6-25.6,2.6c-14.8,1.7-29.7,3.9-44.7,2
		c-6.6-0.8-10.7-4.1-13-10.2c-2.9-7.8-4.2-15.9-5.3-24c-1.7-12.2-2.7-24.5-3.6-36.8c-1.5-19.6-4.2-39.1-6.3-58.7
		c-1.8-16.6-3.8-33.2-5.7-49.8c-3.2-27.6-6.2-55.3-9.5-82.9c-1.5-12.8-4.2-25.4-5.4-38.2c-1.1-11.4-0.4-22.6,3.1-33.7
		c1.9-5.9,5.3-9.1,11.4-10.5c17.7-3.9,35.7-5.5,53.7-7.7c13.8-1.7,27.7-1.3,41.5-2.2c3.9-0.3,6.5,1.8,9.5,3.5
		c-0.4-0.3,0.2,0,0.1-0.1c-4.3-2.1-6.3-5.2-4.4-10C145.8,207.2,146.2,206.3,145.6,205.5z"/>
	<path d="M950.2,259c-0.5,14.3-3.1,29.4-4.5,44.5c-2.7,27.2-5.3,54.4-7.9,81.7c-2.1,21.6-4.3,43.2-6.5,64.9
		c-2.2,22.4-4.2,44.8-5.6,67.2c-0.8,13.9-2.2,27.9-6.5,41.3c-0.8,2.5-2,4.8-3.3,7.1c-1.8,3.2-4.4,5-8.5,4.8
		c-14.3-0.6-28.3-2.8-42.4-5c-25.1-4-50.3-7.8-75.6-10.2c-21.2-2-42.5-4.2-63.2-9.6c-2.5-0.7-5-1.6-7.5-2.3
		c-6.6-1.9-9.9-6.4-10.8-13.2c-1.9-13.6-1.3-27.2-0.4-40.8c1.7-24.8,2.8-49.6,3.9-74.5c2.2-50.7,4.8-101.3,6.5-152
		c0.3-9.9,2-19.6,5.4-29c0.5-1.5,1.2-2.6,2.7-3.3c7.8-3.7,15.1-8.8,24.1-9.8c1.1-0.1,1.8-0.6,2.2-1.6c0.5-1.2,1.3-2.3,2.7-2.4
		c3.5-0.2,4.8-2.2,6.3-5.2c4.1-8.1,16.3-12.4,24.6-5c1,0.9,2.1,1.2,3.4,1.3c24.1,1.9,48.2,2.2,72.3,1.4c2.5-0.1,4.6-0.5,6.7-2.2
		c6-4.9,16.6-4.4,24.6,0.7c3,1.9,5.4,4.2,7.6,7.1c1.7,2.1,4.3,3.4,3.9,6.8c-0.1,1.1,1.3,0.9,2.1,1c11.8,1.6,22.9,6,34.2,9.4
		c6.1,1.8,8.9,6.3,9.3,12.6C950.3,249.1,950.6,253.5,950.2,259z"/>
	<path d="M145.6,205.5c1.6-0.6,2.2-0.4,1.5,1.5c-2.3,6.7-1.6,8,5,10.5c0.8,0.3,1.8,0.2,1.5,1.5c-0.4,1.5-1.4,1.2-2.4,0.9
		c-1.1-0.4-2.4-0.6-3-1.4c-3-3.5-6.8-2.8-10.7-2.8c-28.4,0-56.5,3.4-84.5,8c-2.5,0.4-4.9,1.2-7.3,1.5c-6.7,0.8-9.6,5.1-11.4,11.1
		c-4.3,13.8-3.7,27.7-1.5,41.6c3.9,24.2,6.7,48.5,9.4,72.8c3.3,29.5,6.8,59,10.2,88.6c3.2,27.8,6.3,55.6,8.6,83.5
		c0.9,11.4,2.6,22.8,5.9,33.9c2.1,7,6.2,11,13.7,11.6c10,0.9,20,0.6,29.9-0.6c36.1-4.5,72.4-6.7,108.6-9.6c30.5-2.5,61-5.1,91.5-7.2
		c14.9-1,30-0.6,44.9-2.5c4.7-0.6,9.4-1.4,13.9-3.1c2-0.7,3.1-1.9,3.6-4.2c3.7-16.8,4.3-33.7,3-50.7c-4.3-56.6-5.5-113.3-7.8-170
		c-0.9-23.5-1.9-46.9-2.8-70.4c-0.1-1.4-1.3-4.1,1.2-4.2c2.3-0.1,1.2,2.6,1.3,3.9c1.8,49.3,3.7,98.6,5.2,148
		c1,33.5,3.6,66.9,5.1,100.3c0.6,14-0.1,28-3.3,42.7c3.5-3.9,4.5-7.9,5.4-11.8c3.4-14.8,2.7-29.8,2.5-44.7
		c-0.6-34.1-2.1-68.2-3.2-102.2c-1.1-33.1-2.4-66.2-3.5-99.3c-0.5-13.9-0.4-27.7-1.7-41.6c-0.6-6.7-1.2-13.4-4-20
		c-2.2,2.1-2.8,4.5-2.9,7.2c0,0.8,0.1,2.1-1,2.1c-1.6,0-0.9-1.5-1-2.3c-0.3-2,0.1-4.1,1.2-5.8c2-3,0-3.8-2.3-4.6
		c-10.9-3.8-22.3-4.3-33.7-4c-10,0.3-20,0.8-30,1.3c-2.1,0.1-3.8-0.3-4.9-2.4c-1.7-3.6-7.9-4.5-10.9-1.6c-1.4,1.4-2.6,3-3.7,4.7
		c-1.8,2.7-4.6,3.2-7.5,3.6c-0.7,0.1-1.2,0.1-1.3-0.7c-0.1-0.9,0.4-1.1,1.1-1.1c6.1-0.5,7.2-6.8,11.3-9.6c0.5-0.4,0-1.4-0.2-2.1
		c-2-6.1-9.1-10.6-14.5-7.2c-7.7,4.8-15.8,3.3-23.6,3.8c-27.3,2-54.7,2.3-82-0.3c-3.7-0.4-7.1,0.7-10.6,1.7
		c-1.9,0.5-4.1,2.3-5.9-0.4c2.2-1.9,4.9-2.3,7.5-3.1c3.6-1.1,7.2-1.9,10.8-3c6.1-1.8,11.6,0.3,17,2.4c1.6,0.6,3.1,1.3,4.8,1.4
		c23.3,0.9,46.5,0.2,69.7-1.3c2-0.1,3.8-0.7,5.6-1.7c7.5-4.2,15.3-3.4,20.3,1.9c0.2,0.2,0.4,0.3,0.5,0.5c1.7,4.7,4.5,7.8,10.1,7.1
		c1-0.1,2.1,0.8,2.3,1.7c1,3.7,3.8,3.1,6.5,3c13.6-0.3,27.2-1.8,40.8-0.9c6.4,0.4,12.6,1.7,18.8,3.1c8.2,1.8,11.6,7,12.8,14.9
		c2.3,16,2.4,32.1,2.9,48.2c1.4,44.2,2.9,88.4,4.3,132.6c0.6,17.5,0.9,35,1.8,52.4c0.7,14.6,1.6,29.2,1.2,43.8
		c-0.3,8.1-0.9,16.2-2.8,24.1c-2.4,10.2-8,16.9-19,18.9c-13.7,2.5-27.6,3-41.4,3.3c-18.1,0.4-36.2,2.3-54.2,3.6
		c-24,1.8-48.1,3.6-72.1,5.7c-26.5,2.3-53.1,3.7-79.5,7.1c-12,1.6-24.1,2.5-36.2,1.2c-8-0.9-12.9-4.9-15.2-12.6
		c-3.7-12.3-5.4-24.9-6.4-37.6c-2.1-26.1-5-52.2-8-78.2c-2.7-23.2-5.1-46.4-7.9-69.6c-3.7-30.8-6.4-61.8-11.5-92.5
		c-2.1-12.5-3-25.1-0.4-37.6c1-4.8,2.7-9.3,4.7-13.8c0.9-2,2.7-2.9,4.6-3.5c9.8-3.5,20.1-4.7,30.4-6c16.2-2,32.5-3.9,48.8-5.4
		c7.1-0.6,14.2-0.1,21.4,0.1c2.1,0,3.2-0.2,3-2.7C143.4,209.1,144.7,207.3,145.6,205.5z"/>
	<path fill="#DF00FE" d="M618.1,272.4c-0.3,0-0.6-0.1-0.9-0.1c-3.3-3.4-7.4-5.9-11.4-8.5c-7.9-5.1-13.9-12.1-19.9-19.2
		c-5.6-6.7-11-13.6-15-21.5c-0.7-1.5-1.4-2.9-2-4.4c-1.1-3-0.5-5.2,2.2-7.2c6.8-4.9,13.7-9.6,20.5-14.5c2.5-1.8,4.2-0.6,5.5,1.6
		c4.2,6.8,9.3,13,14.8,18.8c1.3,1.4,2.7,2.7,4.2,3.8c2.6,1.9,5.3,2.7,8.7,1.1c7.6-3.5,15.6-2.3,20.6,2.8c6.1,6.3,4.2,14.1-4.2,16.4
		c-9.5,2.5-17.7,0.3-24.3-7.4c-3.5-4.2-8.2-7.3-12-11.3c-1.5-1.6-3-1-4.3,0.2c-2.4,2.1-4.9,3.9-7.9,4.9c-2.1,0.7-2.2,2-1.1,3.8
		c3.5,5.5,7.3,10.7,11.9,15.4c2.5,2.5,5.3,3.5,8.8,1.5c2.8-1.6,6.1-2.3,9.3-2.9c7.6-1.4,14.4,2.1,16.1,8.2c1.9,6.8-1.8,14-9,16.9
		C625.3,272,621.7,272.2,618.1,272.4z"/>
	<path d="M506.9,282.6c-5.6-1.4-10.5-3.3-14.4-7.2c-8.8-9-13-25.3-5.5-37.4c1.7-2.7,7.9-4.8,11.5-3.6c8.5,2.7,13.8,8.7,16.1,17.2
		c1.5,5.5,1.9,11.1,1.4,16.7c-0.2,2.5,0.6,3.2,3,3.1c5.5-0.1,10.9,0.4,15.9,3.1c7.8,4,9.5,11.5,7.9,18.7c-2.3,10.1-8,17.5-17.3,22.3
		c-3.4,1.8-6.8,3.6-10.4,5c-1.4,0.5-3.2,0.6-1.9,2.8c1,1.8,2.1,3.2,4.4,1.7c1.4-1,2.9-1.9,4.7-2.1c4.7-0.6,8.4,2,9,6.3
		c0.7,5-2.5,9.5-7.1,10.2c-9.4,1.4-18.9-5.1-20.6-14.4c-0.3-1.6-0.9-1.9-2.4-2.1c-11.2-1.6-17.1-10.4-14.4-21.3
		c2-8,6.7-13.7,14.2-17.3C502.8,283.3,504.7,284.2,506.9,282.6z"/>
	<path fill="#010100" d="M389.5,156.2c2.3-1,5.1-1.1,5.7-4.3c4.4,3.1,4.5,8.7,0.3,13.2c-1.6,1.7-3.4,3.2-5.3,5
		c5.2,2.3,11.2,1.7,17,5.1c-5.8,1.1-10.6,0.3-15.1-0.9c-7.8-2.1-15.8,0-23.6-2.1c-8-2.1-16-4.6-24.3-5.6c-0.6-0.1-1.1-0.5-1.5-1.3
		c1.9,0,4-0.6,5.6,0.1c3,1.3,4.4-2.5,7.1-1.7c0.1-0.4,0.4-0.9,0.4-1.3c-0.5-9.4,2.3-18.3,3.6-27.4c0.1-0.6,0.1-1.2,0.1-1.9
		c0.4-6.7-0.4-7.5-7-7.8c-1.2-0.1-2.6-0.2-3.6-0.8c-8-5-13.8-11.7-14.8-21.3c-1-9.3,6.9-16.9,17.7-18c9.3-0.9,22.2,6.4,25.8,14.9
		c3,6.9,2.5,14.1,0.6,21.2c-1.4,5.4-2.7,10.9-4.4,16.2c-0.9,3,0.3,5,2.2,6.5c1.9,1.5,4.3,2.2,6.9,0.4c2.6-1.9,5.6-3.4,8.8-4.1
		c3-0.7,4.3,0.7,3.5,3.6c-1.2,4.4-2.8,8.5-6.4,11.6c-4.5,3.6-9.4,3.6-14.6,1.5c3.2,2.1,5.9,2.3,10.5,0.8
		C386.2,157.2,387.7,156.3,389.5,156.2z"/>
	<path fill="#000001" d="M654.1,140.9c-0.2-10.5-5-19.4-10.3-28c-1.1-1.8-2.6-0.9-4-0.5c-5.3,1.3-10.5,2.3-16.1,0.5
		c-11.1-3.7-14.8-12.8-9.6-23.4c4.8-9.7,11.8-10,21.9-7.3c6.9,1.9,11.6,6.6,14.7,13c2.1,4.5,4.1,9.1,6,13.7c2,4.8,1.9,4.8,6.6,2.9
		c2-0.8,3.9-1.9,5.9-2.2c4.1-0.7,4.6-2.7,3.7-6.4c-1.9-7.7-4.3-15.3-7-22.9c-0.7-1.8-1.5-2.1-3.3-1.7c-5.6,1.2-11,2.2-17,1.4
		c-7.3-1-13.3-9.1-12.8-15.9c0.3-4.2,0.8-8.3,2-12.4c2-7,12.5-15.1,19.6-14.7c3.1,0.2,6.3,1.5,8.5,3.5c3.5,3.3,6.8,6.8,9.2,11.2
		c7,12.8,10,26.8,13.7,40.6c3.1,11.6,6.3,23.1,7.2,35.1c0.4,4.6-1.1,8-5.6,9.7c-3.1,1.2-6.2,2.6-9.3,3.8c-4.2,1.6-8.4,3.1-12,6
		c-0.7,0.6-1.4,1-2.2,1.4c-6.4,3.6-10,1.5-9.9-5.8C654.1,141.9,654.1,141.4,654.1,140.9z"/>
	<path fill="#010100" d="M490,73c0.5,11.1,1.6,22.1,4.7,32.9c0.5,1.9,1.1,2.8,3.5,2.4c7.7-1.2,14,1.9,17.3,8.2
		c4.1,7.6,3.5,14-1.9,20.6c-5.6,6.7-13.7,6.8-19.7-0.1c-4.4-5.1-7.1-11.1-9.7-17.3c-1.7-4.2-3.2-8.2-3.7-12.7
		c-0.2-1.6-1.2-1.4-2.2-0.9c-2.4,1.1-4.7,2.3-7,3.5c-1.2,0.6-1.7,1.6-1.7,3c0,6,0.6,12,1.3,17.9c0.2,1.9,0.9,2,2.6,1.9
		c12.2-0.3,19,5.6,17.8,17.2c-0.7,6.2-2.3,12.2-6.2,17.4c-6.2,8.3-14.5,8-19.8-0.9c-4.3-7.2-5.9-15.3-6.9-23.5
		c-2-15.8-3.8-31.7-4.5-47.7c0-0.1,0-0.2,0-0.4c-0.1-13.9,0.3-12.5,10.8-17.4c6.3-2.9,12.3-6.7,18.5-9.8c6.1-3.1,7.2-2.3,6.7,4.3
		C490,72.3,490,72.6,490,73z"/>
	<path fill="#010001" d="M618.1,272.4c1.4-1.7,3.5-1,5.2-1.2c4.4-0.6,8.2-2.3,11.1-5.7c3.5-4.1,4-9.9,1.5-14
		c-2.4-3.9-8.1-6.1-13.6-5.1c-3.7,0.7-7.4,1.5-10.5,3.5c-2.5,1.6-4.8,1.1-6.6-0.3c-6.4-5.3-10.9-12.2-15.3-19.1
		c-1.2-1.8,0.3-3.1,2.1-3.5c3.4-0.8,6.1-2.5,8.5-5.1c1.9-2.1,4.2-1.8,5.8,0.4c3.6,5.1,9.4,7.9,13.2,13.1c4.6,6.3,17.7,8,24.6,4.2
		c4.5-2.5,5.4-7.8,2.2-12.2c-4-5.5-12.1-7.5-19.7-4.8c-1.9,0.7-3.5,2.6-5.8,2.1c-3.7-0.8-6.5-3.2-9-5.9
		c-5.7-6.1-11.2-12.4-15.4-19.6c-1.5-2.6-2.6-2.5-4.8-0.8c-6.8,5.1-13.7,10-20.7,14.8c-1.6,1.1-1.9,2.2-1.3,4
		c2.6,7.6,7.1,14.2,11.9,20.5c9.1,11.8,19,22.8,32.2,30.3c1.7,1,3.5,2,3.6,4.4c-1,0.1-1.9,0.5-2.9-0.1
		c-17.5-11.6-31.3-26.7-42.3-44.5c-0.1-0.2-0.3-0.4-0.4-0.6c-6.8-11.6-6.5-12.8,4.6-20.3c5.5-3.7,10.9-7.5,16.3-11.3
		c2.5-1.8,4.1-1.4,5.6,1.4c3.4,6.4,7.8,12.2,12.5,17.7c2.1,2.5,5.2,3.8,7.7,5.9c1.2,1,2.1-0.2,3-0.7c9.4-5.7,21.1-4.1,28.5,3.9
		c5.4,5.9,4.1,12.6-2.8,16.5c-3.7,2.1-7.4,3.4-12.1,3.3c2.1,2.9,4.4,5.1,5.2,8.3c2.6,9.7-6.1,20.6-16,21.4
		C622.1,273.1,619.9,274.1,618.1,272.4z"/>
	<path fill="#000100" d="M602.9,379.9c-1.1,1.4-1.8,2.1-2.3,3c-0.8,1.6-2.4,2.7-3.8,2.4c-1.7-0.3-3-2-3.6-3.9
		c-2.5-8.2,0.2-13.1,8.5-15.2c0.8-0.2,1.4-0.6,1.2-1.5c-5.4,0.2-7.1-1.4-7.4-7.1c-0.1-1.5-0.2-3,0.1-4.5c0.6-2.8,1.4-5.6,4.5-6.9
		c2.3-1,3.8-0.4,7.9,3c4.1-8.2,10.5-13.7,19.1-16.8c4.7-1.7,10.6,0.4,13.3,4.6c6.8,10.5,4.8,30.1-4.7,37.2
		c-3.3,2.4-6.7,3.6-10.7,2.9c-4.6-0.8-4.6-0.8-5.2,3.9c-1.1,10,5.9,16.9,14.6,13.9c2.9-1,5.4-3,8.2-4.5c1-0.5,2.2-1.8,3.3-0.6
		c1.3,1.3,0.1,2.7-0.8,3.6c-5,4.9-8.7,11.5-16.2,13.4c-4,1-8.1,1.7-12.2,1.5c-3.6-0.1-6-2-7.7-5.1
		C605.4,396.2,604.1,388.5,602.9,379.9z"/>
	<path fill="#010101" d="M440.6,341.5c0-0.9,0-1.7,0-2.6c0.1-1.3-0.8-3,1-3.5c1.5-0.4,2,1.2,2.6,2.2c2.9,4.6,4.8,9.6,5.4,15
		c0.5,4.5-1.2,8.1-5.3,10.2c-2.3,1.2-2.3,2.2-0.8,4.1c6.4,8.5,13.2,16.6,17.8,26.3c2,4.2,3.3,8.5,3.5,13.2c0.4,8.8-8.8,15-16.9,11.3
		c-8.2-3.8-14.3-15.7-12.4-24c0.4-1.9,1.2-4,2.7-4.8c3-1.7,1.8-3.3,0.7-5.4c-4.8-9.1-9.8-18.2-13.6-27.9c-1.1-2.9-3.9-6.4-1.3-9
		c2.4-2.4,5.8,0.3,8.6,1.4C440.4,350.9,440.9,350.6,440.6,341.5z"/>
	<path fill="#D6D6D6" d="M389.5,156.2c-2.6,1.4-5.4,2.3-8.3,3.1c-4.1,1.1-7.3,0.3-10.2-4.1c6.2,1.8,12,3.9,17.6,0.3
		C389,155.7,389.2,155.9,389.5,156.2z"/>
	<path d="M187.1,249.8c27.9-0.5,57.8-0.9,87.8-1.6c10.4-0.2,20.7-1.8,31.1-1.5c6.9,0.2,13.6,1.1,20.1,3.7
		c10.4,4.3,15.6,12.3,16.1,23.2c0.8,13.8,0.9,27.7,1.5,41.6c1.8,38.7,2.4,77.4,5.8,116c1.6,17.9,3,35.9,2.8,53.9
		c0,4.2-0.3,8.5-0.8,12.7c-0.5,4.1-2.3,7.4-5.3,10c-7.8,6.7-16.4,11.4-27,12.3c-12.6,1.1-25.2,0.2-37.8,1.3
		c-19.9,1.7-39.9,2.9-59.8,4.3c-26.2,1.9-52.3,3.7-78.5,5.6c-8.3,0.6-16.6,1.7-25,2.5c-5.8,0.5-11.5,0.1-17.1-1.3
		c-11.3-2.8-16.9-10.5-18.7-21.7c-2.6-15.9-3.4-32-4.3-48.1c-1-18.5-3.4-36.8-5.7-55.1c-5.4-42.7-11.3-85.4-13.8-128.4
		c-0.5-9.3,3.3-15.1,9.8-20.2c7.1-5.7,15.5-7.8,24.3-8.5c6.1-0.5,12.2-0.3,18.3-0.1C135.7,251,160.3,249.6,187.1,249.8z"/>
	<path fill="#E6E6E6" d="M887.4,207.9c3.7,1,6.8,3.1,9.4,5.9c4.7,5,3.3,10.2-3.2,12.3c-1.5,0.5-4.6,0.7-4.1,1.9c1,2.3,3.2,0,4.8-0.4
		c3-0.6,5.4-2.4,7.1-5.5c0.9,1.6,0.3,3,0.3,4.4c0,0.6-0.2,1.3,0.6,1.5c0.8,0.2,1.2-0.3,1.3-1c0.1-2.5,1.8-2.1,3.4-2
		c6,0.4,11.7,2,17.3,4.3c4.9,2,10.2,3.2,15.3,5c6.1,2.2,11.5,11.7,7.9,16.6c-4.6,6.3-2.5,13-3.8,19.4c-1.3,6.8-1.6,13.9-2.2,20.8
		c-1.9,19.9-3.8,39.8-5.6,59.7c-2.1,22.6-4.3,45.2-6.4,67.9c-2,21.4-4.5,42.7-5.8,64.2c-1.1,18.1-1.4,36.2-3.9,54.2
		c-1.4,9.5-3.3,18.9-7,27.8c-1,2.3-2.2,3.2-4.7,3.1c-11.4-0.3-22.6-2-33.8-3.7c-29.1-4.4-58.1-9.3-87.5-11.7
		c-19.7-1.7-39.5-3.7-58.7-9c-16.4-4.5-14.3-2.4-16.4-19.3c-1.8-14.3,0.1-28.7,1.6-43c1.6-16.1,1.9-32.2,2.7-48.3
		c1.6-32.8,3.2-65.6,4.3-98.5c1-31.4,4.8-62.5,5.9-93.8c0.2-6.6,2-10,8.1-12.3c5.5-2.1,10.8-4.4,16.5-5.7c1.5-0.4,2.8-1,3.8-2.1
		c2.3-2.5,4.6-2.5,6.5,0.4c2.3,3.8,5.9,5.6,9.9,6.9c0.7,0.2,1.7,0.9,2.2-0.4c0.5-1.3-0.2-1.7-1.4-2c-2.1-0.7-4.2-1.4-6-2.9
		c-3.3-2.6-4.3-6.3-2.4-9.9c3.8-7.3,14.2-10.2,20.2-5.6c-2.4-0.2-4-0.3-5.6-0.5c-1-0.1-2-0.5-2.2,1.1c-0.2,1.7,1,1.5,1.9,1.5
		c5.8,0.5,11.7,1,17.6,1.4c28.6,1.8,57.2,1.5,85.7-0.6C882.9,209.4,885.8,210.6,887.4,207.9z"/>
	<path fill="#DFDFDF" d="M719.3,279.7c-0.1-18.8,1.8-35.5,4.9-40.2c-0.8,21.9-3.2,43.1-4.9,64.3c-1.8-0.6-0.8-2-0.7-3.1
		c0.1-2.2,0.2-4.4,0.3-6.6C719.5,289.4,718.6,284.5,719.3,279.7z"/>
	<path fill="#A3A3A3" d="M718.6,300.7c0.2,1,0.5,2.1,0.7,3.1c-0.5,11.5-0.9,22.9-1.4,34.4c-1,22.5-2.1,45.1-3.1,67.6
		c-1.8-1.6-0.9-3.5-0.7-5.3c0.9-22.3,1.9-44.6,2.8-66.9c0.4-8.9,0.7-17.7,1.1-26.6C718,304.9,717.8,302.8,718.6,300.7z"/>
	<path fill="#7B7B7B" d="M714.1,400.5c0.6,1.7-0.5,3.7,0.7,5.3c-0.6,13.1-1.1,26.1-1.7,39.2c-0.3,7.7-0.7,15.4-1.2,23.1
		c-0.2,3.9-0.7,7.7-1.4,11.5c0-3.7-0.1-7.3,0-11c0.6-13.1,1.4-26.1,2-39.2c0.4-8.8,0.6-17.7,1-26.5
		C713.6,402.2,713.9,401.4,714.1,400.5z"/>
	<path fill="#838383" d="M947.4,258.6c0.2,12.1-1.3,24.1-3.4,36C944.2,282.5,946,270.6,947.4,258.6z"/>
	<path fill="#3F3F3F" d="M930.7,435.6c-1.2,12.3-2.4,24.5-3.6,36.8c-0.4,0-0.8-0.1-1.2-0.1c1.2-12.3,2.4-24.6,3.6-36.8
		C930,435.5,930.3,435.6,930.7,435.6z"/>
	<path fill="#BABABA" d="M871.4,208.1c4.4-2.5,8.8-2.7,13.4-0.9C880.4,208,875.9,208.9,871.4,208.1z"/>
	<path fill="#3B3B3B" d="M930.3,433.2c0.4-2.9-0.9-6,1-9.4C932.3,427.6,930.7,430.3,930.3,433.2z"/>
	<path fill="#A3A3A3" d="M719.3,279.7c0.3,4.8,0.7,9.7-0.5,14.4C718.7,289.3,718.6,284.5,719.3,279.7z"/>
	<path fill="#BABABA" d="M887.4,207.9c-1.5,3.3-4.3,2.3-6.9,2.2C883,209.7,885.3,209.1,887.4,207.9z"/>
	<path fill="#7F7F7F" d="M171,200.2c3.1-1,6.2-1.2,9.1,0.8C177.1,200.8,174,200.5,171,200.2z"/>
	<path fill="#060207" d="M592,209.2c2.5,0.1,4.2,1.3,5.1,3.3c0.8,1.9-0.7,3.2-2.2,4.1c-1.9,1.2-3.8,2.3-5.7,3.5
		c-2.8,1.9-4.7,1.2-6.3-1.6c-1.5-2.7,0.3-3.8,2-5C587.2,211.9,589.1,209.6,592,209.2z"/>
	<path fill="#FD005E" d="M509.9,282.9c-0.4-7.1,0.1-14.2-2.8-20.9c-1.6-3.6-4.1-6.4-7.7-8.3c-1.3-0.7-1.8-0.4-2,1
		c-0.4,4.6-0.9,9.2,0.4,13.7c1.1,3.9,3.8,6.3,7.5,8.3c-7.3,2.7-10.8-2.6-13.9-6.9c-5-6.7-6.8-14.6-5.3-23.1
		c1.8-10.2,9.8-13.3,18.2-7.1c6.9,5.1,8.9,12.3,9.6,20.2c0.2,2.4,0,4.7,0.1,7.1C514.2,272.7,509.5,277.1,509.9,282.9z"/>
	<path fill="#FD005E" d="M514.9,281.4c1.6-0.9,3-0.3,4.5-0.1c0.8,0.1,1.5,0.1,1.7-0.9c0.3-1.3-0.6-1.4-1.5-1.5
		c-1.3-0.1-2.6-0.3-3.8-1.2c1.6,0,3.3,0,4.9,0c0.9,0,2.2,0.5,2.3-1.1c0.1-1.6-1.2-1.1-2.1-1.3c-1.7-0.2-3.4,0.6-5.1-0.4
		c5.4-3.3,18.7-0.1,23,5.5c4.8,6.2,2.5,17.4-5.5,25.2c3.4-8.1,2.3-15-2.5-21.3c-0.6-0.8-1-2.6-2.3-1.6c-1.4,1,0.3,2,0.8,2.7
		c4,5.9,3.8,11.7,2.1,18.7c-2.4,10.1-10.4,10.3-17.4,13c-0.8,0.3-1.6,0.5-2-0.8c-0.9-3.2,0.4-5.8,3.6-6.9c4.2-1.4,7.4-4.1,9.9-7.6
		c4.4-6.1,2.2-14.5-4.7-18.2C518.9,282.8,517,282,514.9,281.4z"/>
	<path fill="#FAFAFA" d="M512.4,302.3c0.2-2.1,0.4-4.2,0.5-6.4c0.1-2.5,1.3-2.6,2.6-1.1c1.6,1.8,3.7,2.1,5.8,2.6
		c0.8,0.2,1.7,0.6,2.3-0.4c0.5-0.9,0-1.7-0.5-2.4c-2.1-2.9-4.8-5.4-7.4-7.9c-0.7-0.7-1.9-1.1-1.4-2.3c0.6-1.4,1.7-0.4,2.6-0.1
		c4.1,1.4,7.4,3.6,8.3,8.2c1,4.7-1.1,8.2-4.4,11.2c-0.7,0.7-1.6,1.3-2.4,1.7c-1.7,0.9-3.7,2.8-5.4,1.9
		C511.2,306.5,512.9,304,512.4,302.3z"/>
	<path fill="#F7005C" d="M513,328.3c5.5,4.2,8.8,4.1,13-0.9c1.5-1.9,2-0.6,2.5,0.6c1.7,3.8-0.7,8-4.9,8.8
		c-8.8,1.5-17.6-5.6-17.9-14.4c-0.1-2.6,0-5.2,0-8.8c1.4,3.3,1.1,5.9,1.7,8.4c0.6,2.4,1.2,4.8,2.5,7c0.5,0.8,0.5,2,1.9,1.8
		C513.6,330.6,512.4,329.1,513,328.3z"/>
	<path fill="#F4005B" d="M502.7,320.1c-10.6-0.7-16-8.7-13.1-18c1.9-5.8,4.2-11.2,9.7-14.6c1.8-1.1,3.7-2.1,5.9-2.2
		c0.7,0,1.6-0.4,1.8,0.7c0.1,1-0.8,1-1.6,1.2c-11.8,2.9-16.7,19.6-8.5,28.8C498.3,317.6,500.2,318.7,502.7,320.1z"/>
	<path fill="#E20053" d="M506.5,289.2c-8.3,4.1-9.6,6.4-8.5,14.8c0.2,1.6-1.1,2.9-0.1,4.6c1.1,2,1.6,4.4,4.2,5.2
		c1.2,0.4,1.9,1.6,1.1,2.7c-0.8,1.2-1.8,0-2.5-0.4c-5.2-3-7.2-12.1-4.4-19.2C498.4,291.6,501.6,289.1,506.5,289.2z"/>
	<path fill="#F5F5F5" d="M499.7,301.2c0-4.3,1.9-7.7,4.6-8.5c1.6-0.5,2-0.2,1.8,1.4c-0.6,3.8-1.1,7.6-1.5,11.4
		c-0.3,2.6-1.4,2.2-2.8,1C500.2,305.2,499.6,303.3,499.7,301.2z"/>
	<path fill="#F3F3F3" d="M506.8,270.1c-4-1.6-8-8.5-7.2-12.3c0.4-1.7,1-1.2,1.9-0.4C504.6,260.3,506.6,265,506.8,270.1z"/>
	<path fill="#D0004C" d="M508.3,274.1c-5.3-0.5-7.7-2.8-8.3-7.5C502.3,269.4,504.8,271.6,508.3,274.1z"/>
	<path fill="#DC0051" d="M524.2,325.7c-0.8,1.9-2.4,2.4-3.7,3.3c-0.8,0.5-1.4,0.3-1.9-0.4c-0.6-0.9,0.1-1.3,0.7-1.8
		C520.7,325.7,522.3,325.4,524.2,325.7z"/>
	<path fill="#BC0044" d="M500.6,308.4c1.5,0.7,3.2,0.5,3.4,2.4c0.1,0.7-0.3,1.3-1,1.2C501.4,311.6,500.6,310.5,500.6,308.4z"/>
	<path fill="#970035" d="M516.3,292.3c-1.8,0.2-2.6-0.4-3.1-1.5c-0.1-0.2,0.3-0.8,0.5-0.8C515,290,515.5,291,516.3,292.3z"/>
	<path fill="#FEDB00" d="M392.4,142.7c-0.6,8.7-7.7,14.1-15.6,12c-1.9-0.5-3.9-1.1-5.8-1.5c-1.2-0.3-2.6-0.3-3.2,1.2
		c-0.4,1.1,0.1,1.9,1,2.9c2.7,2.7,5.4,5,9.5,5.1c2.8,0.1,5-1.5,7.5-2.2c3.4-1,6.6-2.7,10-4c0.8,7.3-6.2,14-12.9,12.7
		c-6.1-1.2-12.2-2.4-18.4-3.5c-4.6-0.8-5.5-1.7-5-6.4c0.7-6.6,1.6-13.1,2.5-19.7c0.5-3.5,0.7-7,0.5-10.5c-0.2-3.2-1.3-5.4-4.9-6.4
		c-6.4-1.7-11.9-5-16-10.4c-5.4-7.1-3.5-16.4,4.3-20.3c4.2-2.1,8.7-1.8,13.1-0.3c3.2,1.2,6.1,2.8,8.8,4.8c1.4,1,2.4,3.6,5.2,1.8
		c0.6-0.4,1.5,1.7,2,2.7c2.2,5.1,1.9,10.5,1.1,15.8c-0.7,5-2.3,9.8-4.4,14.5c-0.8,1.6-0.6,3.7-1,5.5c-0.8,3.9,0.4,7.2,3.7,9.1
		c3.2,1.9,6.6,3,10.4,0.4C387,144.7,389.3,143.1,392.4,142.7z"/>
	<path fill="#9A8400" d="M346.5,119c1.6,1,3.1,2,5.3,3.3C348.4,122.1,348.2,122,346.5,119z"/>
	<path fill="#2700FE" d="M648.4,41.1c4.4-2.6,10.7-1.6,14.2,1.7c5.9,5.7,9.4,12.5,11.8,20.3c4.5,14.5,9.3,29,12.9,43.8
		c1.7,7.1,3.3,14.2,3.6,21.6c0.1,2.8-0.9,4.8-3.5,6c-2.5,1.1-4.9,2.5-7.5,3.4c-5.7,1.9-11.2,4.2-16,8c-1.8,1.4-4.2,3-6.1,1.5
		c-1.7-1.3-2.4-3.6-1.8-6.3c0.8-3.5-0.4-6.9-1.5-10.3c-2.1-6.9-5.5-13.1-9.3-19.1c-1.6-2.5-3.3-3.7-6.4-2.2
		c-3.7,1.8-7.7,1.9-11.7,1.3c-7.1-1.1-11.5-6.6-11-13.6c0.4-6.3,5.7-11.1,12.6-11.5c2.2-0.1,4.7,1.1,6.6-1.1
		c0.2-0.2,1.4,0.2,2.1,0.5c4.4,1.9,7.7,5,10.2,9c0.3,0.5,0.9,1.3,0.8,1.6c-1.6,2.7,0.4,4.5,1.6,6.3c2.6,3.8,5.1,7.7,6.6,12.1
		c0.6,1.6,1.4,2,3.1,1.3c4.5-1.9,9-3.6,13.6-5.2c1.9-0.7,2.5-1.8,2.2-3.7c-1.7-10.1-5.2-19.8-8.7-29.4c-0.8-2.1-2.5-2.4-4.6-1.9
		c-3.8,0.9-7.5,1.5-11.5,1.4c-11.5-0.4-18.2-10.5-14.2-21.2c1.7-4.6,3.9-8.6,8.5-10.9c3.9-2,7.8-2.1,12-1c1,0.3,1.9,0.6,2.9,0.9
		c0.7,0.2,1.6,0.2,1.7-0.8c0.1-0.9-0.8-0.8-1.3-1C656.4,41.2,652.5,40.1,648.4,41.1z"/>
	<path fill="#1600A7" d="M630.8,83.9c-4.4-0.1-8.5,1-12.5,4C620.6,83.2,625.5,81.8,630.8,83.9z"/>
	<path fill="#FEAB79" d="M491.3,123c-1.5-6.5-5.3-12.4-5.2-19.4c0-1.8-1.4-2.9-3.4-2.1c-4.2,1.8-8.6,3.3-12.5,5.8
		c-2.3,1.4-3.2,3.2-3.1,5.9c0.3,6.2,0.6,12.5,1.6,18.6c0.9,5.6,3.4,7.2,9,5.5c6.1-1.9,10.9,1.2,11.3,7.6c0.5,7.9-1.5,15.1-6.1,21.5
		c-2,2.8-6.3,3.4-8.9,1.6c-0.7-0.5-1.3-2.1-2.4-1.2c-1.7,1.3,1.1,1.8,0.6,3.2c-2.7-1.1-3.9-3.2-4.7-5.7c-2.5-7.9-4-16-5.6-24
		c-0.1-0.7-0.5-1.7,0.3-2c3.3-1.1,1.7-3.2,1.1-4.9c-3.8-10-3.2-20.7-4.5-31c-0.7-5.4-0.7-11-1.2-16.4c-0.1-1.7,0.1-3,1.8-3.6
		c9.2-3.6,17.4-9.3,26.2-13.6c3-1.5,2.8-0.2,2.8,2.2c-0.2,13.3,1.6,26.3,5.8,39c0.8,2.3,2.4,3,4.6,2c5.6-2.4,10.3-0.5,13.7,3.8
		c3.8,4.7,4.9,10.4,2.3,16.2c-2,4.4-5.2,5.5-11.4,4.2c-1.2-0.2-2.3-0.6-2.7,1c-0.5,1.8,1.2,1,1.9,1.5c0.3,0.2,0.7,0.3,1,0.5
		c-4.7,1.6-11.6-6.2-14.5-13.5C488,123,490.7,124,491.3,123z"/>
	<path fill="#B57955" d="M491.3,123c-0.5,1.1-2.4,0.8-2.3,2.5c-2.2-3.3-3.2-6.9-3.8-11.7c2.4,2.5,2.5,5,3,7.1
		C488.8,122.8,489.5,123.4,491.3,123z"/>
	<path fill="#A36D4C" d="M483.4,104c1.5,2.5,1.1,5,0.5,7.6C483.3,109.1,482.3,106.6,483.4,104z"/>
	<path fill="#FDFDFD" d="M622,240.7c-5.8,1.7-11.1,2.6-15.8,5.4c-1,0.6-1.6,0.2-2.2-0.5c-3.9-4.7-8.3-9-11.2-14.4
		c-0.9-1.6-0.7-2.4,1.1-2.9c2.7-0.6,5.1-1.8,6.9-4.1c1.7-2.1,3.1-1.3,4.5,0.4C610.3,230.3,615.1,235.9,622,240.7z"/>
	<path fill="#8B129C" d="M650.4,233.9c-0.7-3.9-1.6-7-4.1-9.9C650.4,226.2,651.8,229.3,650.4,233.9z"/>
	<path fill="#640072" d="M614,245.7c-1.8,1.8-4.1,2.4-7.4,3.6C609.3,246.7,611.6,246,614,245.7z"/>
	<path fill="#7B008D" d="M631.9,218.3c-2,1.5-3.5,1.8-5.4,1.4C627.9,217.9,629.6,218.5,631.9,218.3z"/>
	<path fill="#5CFE53" d="M639.1,395.9c-7.3,10-15.3,10.6-22.8,7.8c-2.6-1-4.4-2.6-5.2-5.4c-2.3-7.5-1.8-15.1-0.9-22.6
		c1.3-10.3,3.8-20.3,10.2-28.9c4-5.3,8.9-9,16.1-8.4c1.1,0.1,2.1,0.1,2.8,1.4c4.8,8.1,3.8,26.1-4.3,32.7c-3.7,3-7.7,3.7-12.2,2.4
		c-0.5-0.2-1.3-0.1-1.4-1c-0.1-0.8,0.5-2-0.8-2c-1.4,0-1,1.5-1.2,2.3c-1.5,6-2.4,11.8,0,17.9c0.8,2,2.1,2.6,3.5,3.3
		C628.2,398.1,633.6,400.5,639.1,395.9z"/>
	<path fill="#58F44F" d="M607.1,388.1c-2.4-7.6-1.8-15.3-0.1-22.9c2.4-10.9,7-20.7,16.8-26.9c3-1.9,6-5,10.3-3.7
		c0.6,0.2,1.2,0.3,1.5,1.2c-14.9,1.9-20.3,13.1-24.3,25.4C608.4,370,607.1,378.9,607.1,388.1z"/>
	<path fill="#59F951" d="M605.5,353.8c0,3-0.4,5.8-2.9,7.8c-1.9,1.5-3.3,1.2-4.2-1.3c-1.4-4,0.7-7.5,1.4-11.2c0.2-1,1.6-1.1,2.6-1
		c1.2,0.1,2.3,0.4,2.5,1.7C605.2,351.1,605.3,352.4,605.5,353.8z"/>
	<path fill="#5AF951" d="M603.1,371.5c-0.5,3.8-2.3,7.1-4.2,10.3c-1,1.7-1.8,0.6-2.5-0.3c-2-2.5-0.5-10.6,2.2-12.3
		c1.1-0.7,2.2-1.1,3.5-0.3C603,369.6,603.2,370.5,603.1,371.5z"/>
	<path fill="#9FFEFE" d="M441.9,369.1c2.2,2.7,4.5,5.4,6.4,8.2c0.9,1.3,3.8,2.5,0.6,4.7c-0.8,0.6,0.6,1.6,1.1,2.4
		c4.4,5.6,8.7,11.2,11.4,17.9c1,2.5,1.7,5,1.2,7.7c-0.3,1.4-0.2,3.7-2.9,2.2c-1.2-0.7-1.4,0.5-2,1.1c-3.2,3.6-6.4,4.1-10.5,1.3
		c-5.2-3.5-8.3-8.5-9.7-14.6c-0.9-3.9-0.7-7.4,4-9c2.4-0.9,3-2.6,1.6-5.2c-5.6-10.1-11.2-20.3-15.8-30.9c-0.6-1.4-1.3-2.7-1.3-4.4
		c2.6-0.3,4.8,0.9,7.1,1.7c7.2,2.3,9.3,0.8,9.7-6.7c0-0.8-0.4-1.7,0.7-2.6c2.2,4.1,3.6,8.2,2.8,12.8c-0.6,4-3.4,5.9-7.1,6.8
		c-4,1-4.5,2-2.5,5.6c2.8,5,5.6,10,8.4,15c0.4,0.7,0.7,1.9,1.8,1.3c1.2-0.7,0.2-1.5-0.1-2.2c-1.9-3.8-3.8-7.5-5.8-11.3
		C440.6,369.7,440.7,369.1,441.9,369.1z"/>
	<path fill="#70B5B5" d="M441.9,369.1c-0.8,0.2-0.6,0.9-0.7,1.5c-0.9-1.6-1.9-3.3-2.8-4.9C440.4,366.2,441.3,367.6,441.9,369.1z"/>
	<path fill="#E8E8E8" d="M190.2,256c22.8-0.5,53.4-0.3,84-1.6c10.1-0.4,20.2-1.8,30.3-1.5c4.4,0.1,8.7,0.6,13,1.6
		c13.2,3.2,19.2,10.3,19.3,23.8c0.2,28.6,2.4,57.2,3.2,85.7c1,32,3.9,63.8,6.4,95.7c0.9,11.8,1,23.7,0.6,35.6
		c-0.3,10.7-6.8,15.8-15.4,19.4c-8.3,3.4-17.1,3.5-25.8,3.5c-24.4-0.1-48.6,2.7-72.9,4.3c-29.5,2-59,4.2-88.6,6.4
		c-10.1,0.8-20,2.7-30.2,2.8c-4.5,0-9-0.5-13.3-1.6c-11-3-15-11.4-16.5-21.7c-2.6-17.5-3.2-35.1-4.4-52.6c-1.1-17.1-3.5-34-5.7-51
		c-4.3-33.5-9.2-67-11.8-100.8c-0.6-7.6-0.5-15.3-1.7-22.8c-1.2-7.7,2.9-12.2,8-16.5c8.2-6.9,18.2-7.8,28.3-7.7
		C125.4,257.2,153.9,256.5,190.2,256z"/>
	<path fill="#D5D5D5" d="M83.4,254.5c7.6-1.9,15.3-1.8,23.1-1.7c35.5,0.5,71-0.7,106.4-1.1c20.1-0.2,40.2-0.4,60.3-1
		c12.2-0.4,24.4-2.2,36.7-1.4c5.4,0.4,10.6,1.3,15.6,3.4c8.6,3.6,13.7,10.2,14.2,19.4c0.9,14.6,1.1,29.2,1.7,43.8
		c1.2,27.8,2.2,55.7,3.7,83.5c0.9,17.2,2.7,34.4,3.9,51.5c1.1,15.4,2.4,30.9,0.6,46.4c-0.2,1.4-0.3,2.7-1.3,4.2
		c-0.7-3.4,0.4-6.5,0.5-9.5c0.6-18.2-0.6-36.2-2.4-54.3c-2.5-26-3.6-52.1-4.7-78.2c-0.9-22.8-1.9-45.7-2.8-68.5
		c-0.2-5.5,0.3-11-0.4-16.5c-1.4-11.9-7.3-18.6-19-21.7c-8.8-2.3-17.8-2.7-26.8-1.9c-35.3,2.9-70.7,2.2-106,2.8
		c-25.7,0.4-51.5,0.8-77.2,1c-8.2,0.1-16.5-0.3-24.7,0.7C84.2,255.4,83.3,255.9,83.4,254.5z"/>
	<path fill="#707070" d="M83.4,254.5c0.2,0.8,1.1,0.5,1.5,0.8c-2.6,0.7-5.1,1.4-7.7,2.2C79,255.5,81.1,254.9,83.4,254.5z"/>
	<path d="M829.8,249.2c17.5,0.9,34.9,1.7,52.4,2.6c9,0.5,18-0.6,26.9,0.9c1.8,0.3,3.7,0.6,5.5,1.1c9.1,2.8,12.2,7.2,11.9,16.9
		c-1,32.1-4.3,64-8,95.9c-3.8,32.9-7.4,65.8-9.4,98.8c-1.4,23.7-2.7,47.4-6.4,70.9c-1.2,7.9-5.8,12.4-13.6,13.7
		c-9.4,1.6-18.7,0.6-28-0.4c-21-2.1-41.7-6.5-62.5-9.7c-10.4-1.6-20.9-1.7-31.3-2.7c-9.2-0.9-18.3-2.3-27.1-5.3
		c-8.8-2.9-12.8-9.2-14.1-17.9c-1.5-9.6-1-19.2,0.2-28.8c2.9-22.1,3.1-44.3,4.3-66.5c1.6-28.8,2.8-57.6,4.3-86.5
		c0.7-14.2,0.8-28.5,1.1-42.7c0.2-10.2,1-20.4,4.8-30.1c2.7-6.8,7.3-10.6,14.8-11.1c22.6-1.4,45.2-0.8,67.8,0.4
		C825.5,248.9,827.6,249,829.8,249.2C829.8,249.2,829.8,249.2,829.8,249.2z"/>
	<path fill="#EFEFEF" d="M587.8,217.6c-1.4,0.1-2.3-0.2-2.6-1.1c-0.3-0.9,0.7-1.3,1.2-1.6c1.7-1,3-2.6,5-3.1c1-0.3,2-0.1,2.6,0.9
		c0.9,1.4-0.5,1.6-1.2,2.1C591.1,215.9,589.5,217.4,587.8,217.6z"/>
	<path fill="#110005" d="M510.2,257.8c-0.1,0.2-0.4,0.6-0.7,0.9c-0.6,0.5-1.2,0.3-1.6-0.3c-1.7-2.4-3.5-4.7-6.5-5.8
		c-0.4-0.2-0.8-0.6-0.4-1.2c0.2-0.3,0.5-0.6,0.8-0.6C503.6,250.5,510,255.7,510.2,257.8z"/>
	<path d="M492.4,261.1c0.8-1.9-0.5-4.9,1.1-4.8c2.1,0.1,0.9,3,1.1,4.7c0.2,1.5,1.4,4.3-0.9,4.3C490.7,265.2,493.6,262.2,492.4,261.1
		z"/>
	<path fill="#120006" d="M505.9,246.1c-0.2,0.9-0.7,1.3-1.6,0.8c-1.7-0.9-3.5-1.8-5.2-2.8c-1.6-0.9-0.3-1.7,0.3-2.2
		C500,241.4,505.9,245.3,505.9,246.1z"/>
	<path fill="#020207" d="M662.9,131.6c-0.2-5.7,2.4-8.8,5.9-11.1c2.9-1.9,5.9-1.4,8.8,0.4c3.1,1.9,3.4,4.3,0.6,6.5
		c-3.6,2.9-8.1,4.3-12.4,5.7C663.8,133.7,663.1,132.2,662.9,131.6z"/>
	<path fill="#050403" d="M465.6,94.7c-0.1-1.9,0.7-4,2.7-5.6c3.6-2.8,7.8-4.4,11.7-6.6c1.6-0.8,2.9,0.6,2.9,1.2
		c0,2.7,0.5,5.6-1.8,7.9c-3.2,3.1-7.2,4.9-11.1,6.7C466.6,99.8,465.6,99.1,465.6,94.7z"/>
	<path d="M296.2,514.5c-20.6-0.1-41.1,2.3-61.7,3.6c-22.9,1.5-45.8,3.3-68.7,4.9c-12.3,0.8-24.6,1.9-36.9,3.3
		c-7.5,0.9-14.9,1-22.3-1c-3.7-1-7-2.7-10-4.9c-2.7-1.9-3.9-4.4-4.2-7.7c-2.3-22.8-4.8-45.7-7.2-68.5c-3.1-29.4-6.1-58.8-9.3-88.2
		c-1.9-17.7-4.2-35.4-6.3-53.2c-0.9-7.4-1.4-14.9-1.1-22.4c0.4-10.1,3.3-13.7,13.1-16.3c8.4-2.3,17-2.6,25.6-2.2
		c25.9,1.3,51.7-0.1,77.6-0.4c28.1-0.3,56.2-0.8,84.3-1.4c10-0.2,20-1.1,29.9-1.1c8.3,0,16.7,0.4,24.6,4c4.7,2.1,6.9,5.8,7.5,10.7
		c4.1,31.8,5,63.7,5.6,95.7c0.5,23.9,0.3,47.7,2,71.5c0.8,11.8,2.2,23.6,3.2,35.4c0.3,4.1,0.4,8.2,0.5,12.3
		c0.7,14.3-6.4,20.7-18.9,23.8C314.4,514.7,305.3,514.6,296.2,514.5z"/>
	<path fill="#E6E6E6" d="M742.7,397.8c2-34.4,3.5-68.9,3.2-103.4c-0.1-8.4,0.7-16.7,2.7-24.9c1.4-6.1,4-8.2,10.2-9.1
		c7.5-1,14.9,0.2,22.4,0.7c15.1,1.2,30.2,1.2,45.3,1.6c24.1,0.6,48.2,1.9,72.3,1.4c1.2,0,2.5,0,3.7,0.2c8.2,1,11.2,4,11.5,12.3
		c0.4,12.2-1.3,24.2-3,36.1c-3.2,22-5.1,44.1-7.1,66.3c-2.1,24-4.2,48-6.4,72c-2,21.5-3.8,43-4.1,64.7c-0.1,5.9-0.9,11.7-2.5,17.4
		c-1.5,5.3-3.3,6.6-8.7,7c-8.2,0.6-16.1-1.5-24-3c-13.3-2.4-26.8-3-40.1-4.6c-23.4-2.8-46.9-4.9-69.7-11.1
		c-11.7-3.2-11.7-3.4-11.1-15.5c1.7-32.2,3.3-64.4,4.9-96.6C742.2,405.5,742.5,401.7,742.7,397.8z"/>
	<path fill="#E4E4E4" d="M920.6,272.1c1.2,8.6,0.7,17.2,0.2,25.7c-1.6,30.3-6.3,60.3-9.2,90.5c-3,31.3-5.4,62.7-8.7,93.9
		c-1.8,17.1-1.9,34.4-3.6,51.5c-0.2,1.7-0.6,3.4-1.1,5.1c-2.1,6.8-5.2,9-12.6,8.9c-1,0-2.2,1-2.6-0.7c1.8-0.5,3.6-0.9,5.4-1.5
		c4.2-1.5,6.8-4.4,7.5-8.9c2.7-17.4,3.3-35,4.3-52.6c1.2-19.2,3.3-38.3,4.9-57.4c2.1-24.4,4.5-48.7,6.4-73.1
		c1.5-18.7,4-37.2,7.1-55.7c1.3-7.9,1.5-15.9,1-23.9C919.7,273.2,919.8,272.5,920.6,272.1z"/>
	<path fill="#E5E5E5" d="M920.6,272.1c-0.1,0.7-0.2,1.4-0.9,1.8c-1.5-9.7-6.6-13.2-16.7-13.5c-17.8-0.5-35.7-0.4-53.5-0.9
		c-24.8-0.7-49.7-1.4-74.5-2.2c-6.7-0.2-13.4-1.5-20.1-0.1c-5.8,1.2-9.3,4.6-10.6,10.3c-1,4.6-1.6,9.3-2.4,14
		c-1.9-1.6-0.9-3.5-0.8-5.4c0.1-3.6,1.1-7.1,1.5-10.7c0.9-6.4,4.6-9.1,10.5-10.2c15.1-2.8,30.3-2.3,45.5-2.1
		c23.6,0.4,47.1,1.9,70.7,3.4c10.6,0.7,21.2-0.1,31.8,0c1.5,0,3,0.2,4.5,0.3C916.6,257.6,920,261.1,920.6,272.1z"/>
	<path fill="#E3E3E3" d="M740.5,343.8c-0.8,16.5-1.5,32.9-2.3,49.4c-1.8,37-3.6,74-5.5,111.1c-0.2,3.1-0.4,6.2-0.6,9.3
		c-0.3,3.8,0,7.4,2.4,10.6c0.2,0.9-0.1,1.2-1,1.1c-3.3-2.5-3.5-6.4-4.1-10c-1.7-8.7-1-17.5,0.1-26.1c3.3-25.6,3.6-51.3,5-77
		c1.5-27.7,2.8-55.4,4.2-83.1c0.5-9.4,0.7-18.7,1.1-28.1c0.9,0,1,0.5,1,1.2C740.7,316,741.1,329.9,740.5,343.8z"/>
	<path fill="#E0E0E0" d="M893.6,535c-2.6,7.5-5.3,9.5-13.6,9.5c-8.2,0-16-2.7-24-3.7c-15.5-1.9-31-3.4-46.5-5.2
		c-21.5-2.5-43.2-4.3-64.4-9c-4.6-1-8.8-2.9-10.7-7.8c-0.2-0.6-0.4-1.2-0.5-1.7c0-0.2,0.2-0.4,0.4-0.7c5.6,6.2,13.5,7.3,21,8.9
		c25,5.5,50.5,8.1,75.9,10.6c12.8,1.3,25.5,2.8,38.1,5.5c3.6,0.8,7.4,1,11.2,1c6.1,0,10.9-2.1,12.3-8.8
		C894.3,533.4,893.7,534.3,893.6,535z"/>
	<path fill="#A5A5A5" d="M911.4,330.2c-0.8,10.2-1.6,20.3-2.5,30.5c-1.1,12.4-2.2,24.8-3.4,37.3c-1.4,15.4-2.9,30.8-4.2,46.2
		c-1.5,16.9-3.1,33.8-4,50.7c-0.2,4.9-0.7,9.7-1.2,14.5c-1.1-12.8,0.4-25.4,1.5-38.1c1.4-15.7,2.8-31.3,4.2-47
		c1.6-18.1,3.3-36.3,5-54.4c1.1-12,2.2-24.1,3.2-36.2c0.1-1.3,0.7-2.4,0.9-3.6C911,330.2,911.2,330.2,911.4,330.2z"/>
	<path fill="#DFDFDF" d="M883,547c0.7,0.8,1.7,0.6,2.6,0.7c-8.1,1.5-16.1,0.3-24.1-0.5c-17.2-1.7-34.2-5-51.2-7.9
		c0.9-1.8,2.4-0.9,3.7-0.7c18.6,2,37.3,3.1,55.6,7.3C874,546.9,878.5,547.1,883,547z"/>
	<path fill="#757575" d="M804.1,250c8-0.4,15.9,0.6,23.9,0.9c10.8,0.4,21.6,1.4,32.4,1.9c8.1,0.4,16.2,0.7,24.9,1.1
		c-1.7,1.7-3.4,1.3-4.8,1.2c-15.9-0.9-31.8-2-47.8-2.7c-13.1-0.6-26.2-0.7-39.3-1.1c-1.5,0-3,0.4-4.4-0.5c3.5-1.1,7.1-0.2,10.6-0.5
		C801.1,250.1,802.6,250.5,804.1,250z"/>
	<path fill="#CDCDCD" d="M733.5,525.3c0.3-0.4,0.7-0.7,1-1.1c5.6,4.6,12.6,5.6,19.4,6.8c7.7,1.4,15.4,2.2,23.2,3.3
		c-1.5,2-3.5,0.8-5.3,0.8c-10.4-0.7-20.7-1.8-30.6-5.5C738.5,528.6,735.7,527.4,733.5,525.3z"/>
	<path fill="#C6C6C6" d="M804.1,250c-5,1.3-10-0.1-15,0.8c-2.4,0-4.8,0-7.3,0c-3.5,0.6-7.1-0.2-10.7,0.5c-8.4,0.5-16.8,0.8-25.1,4
		c2.4-3.3,4.5-4.3,8.8-4.6C771.3,249.4,787.7,249.8,804.1,250z"/>
	<path fill="#C0C0C0" d="M913.7,309.9c1-11,2.8-22,2.5-33.1c-0.1-4-0.5-7.9-3.5-11c4.1,2,4.5,5.8,4.8,9.6c1,11.4-0.8,22.6-2.8,33.8
		c-0.1,0.7-0.2,1.5-0.3,2.2C913.1,311.4,913.3,310.7,913.7,309.9z"/>
	<path fill="#BBBBBB" d="M740.5,343.8c-0.1-13-0.1-26-0.2-38.9c0-1.3,0.5-2.8-0.5-4c-0.3-8.4,0.1-16.7,1.3-24.9
		c0.7,1.7-0.6,3.7,0.8,5.4c-1.2,20.3-0.6,40.7-1,61.1C740.9,342.9,740.7,343.4,740.5,343.8z"/>
	<path fill="#B0B0B0" d="M918.3,258.5c6.4,2.1,6.4,7.2,5.1,17.1c-0.2-1.9-0.4-3.9-0.8-5.8c-0.3-2-0.8-3.9-1.3-5.8
		C920.9,261.9,919.9,260.1,918.3,258.5z"/>
	<path fill="#606060" d="M913.7,309.9c0.2,0.5,0.5,1,0.7,1.4c-1,6.3-2,12.6-3,18.9c0,0-0.2,0.1-0.2,0.1l-0.2,0
		C911.5,323.4,912,316.6,913.7,309.9z"/>
	<path fill="#777777" d="M771.8,535.1c1.7-0.7,3.7,0.8,5.3-0.8c3.6,0,7,0.6,10.4,1.7C782.3,535.8,777,536.2,771.8,535.1z"/>
	<path fill="#727272" d="M814,538.6c-1.2,0.5-2.7-0.6-3.7,0.7c-3.4,0-6.7-1-10-1.9C805,537,809.5,537.5,814,538.6z"/>
	<path fill="#565656" d="M742.9,331.8c0-3.8,0-7.5,0-11.3c0.1,0,0.2,0,0.4,0c0,3.8,0,7.5,0,11.3C743.1,331.8,743,331.8,742.9,331.8z
		"/>
	<path fill="#8E8E8E" d="M893.6,535c-0.3-0.5-0.5-1-0.8-1.5c0.4-1.9,0.7-3.8,1.1-5.6C894.4,530.4,894.6,532.8,893.6,535z"/>
	<path fill="#757575" d="M771.1,251.2c3.5-1,7.1-0.7,10.7-0.5C778.3,251.7,774.7,251.5,771.1,251.2z"/>
	<path fill="#F8F8F8" d="M676.9,124c0.1,1.7-0.9,2.2-1.9,2.8c-2.7,1.4-5.5,2.3-8.3,3.3c-1.7,0.6-2,0.1-1.6-1.5
		c0.8-3.4,5.9-7.3,9.2-6.8C675.6,121.9,676.6,122.8,676.9,124z"/>
	<path fill="#F0F0F0" d="M468.2,95.9c-1-3.8,1.5-5,3.7-6.4c1-0.7,2.1-1.3,3.3-1.7c1-0.3,2.2-2.2,3-0.4c0.6,1.4,0.8,3.3-1.5,4.3
		C473.9,92.9,471.2,94.4,468.2,95.9z"/>
	<path fill="#E8E8E8" d="M186.1,266.1c31-0.6,60.8-1.1,90.5-2c9.8-0.3,19.6-1.9,29.5-1.4c4.5,0.2,8.9,0.9,13,2.9
		c4,1.9,6.4,4.9,7.4,9.3c1.2,5.2,1.5,10.4,1.2,15.6c-0.9,16.3,0.3,32.5,1,48.7c1.6,35.9,3.3,71.9,5,107.8
		c0.5,10.1,1.4,20.2,2.1,30.3c0.3,4.7,0,9.5-0.6,14.2c-0.9,7.5-3.3,10.1-10.6,12.2c-7.4,2.1-15.1,2.5-22.7,2.3
		c-16.8-0.4-33.4,1.1-50.1,2.2c-31.2,2.1-62.3,4.2-93.4,6.5c-11.7,0.8-23.4,2.2-35.1,3.1c-7.2,0.5-14.2-0.6-20.2-5.3
		c-1.7-1.3-2.6-2.7-2.9-4.9c-2.6-26.2-5.3-52.4-8.1-78.6c-3.1-30.1-6.4-60.1-9.4-90.2c-1.7-16.8-5.3-33.3-5.7-50.2
		c-0.1-3.7-0.1-7.5,0.5-11.2c0.7-4.8,3.4-7.8,8-9.4c7.8-2.6,15.8-2.6,23.7-2c23,1.7,46,0.2,68.9,0.2
		C181.4,266.1,184.4,266.1,186.1,266.1z"/>
	<path fill="#E7E7E7" d="M339,470.5c0.4,7.1,1.1,14.2,0.8,21.3c-0.3,8.4-4.4,13.8-12.4,16.8c-8.3,3.1-16.9,3.6-25.5,3.4
		c-15.3-0.3-30.5,0.9-45.7,1.9c-24.3,1.6-48.6,3.3-72.9,5.1c-18.8,1.4-37.6,2.5-56.4,4.7c-9.5,1.2-19,0.8-27.5-4.6
		c-3.5-2.2-5.3-4.9-5.7-9.3c-2.4-25-5.2-49.9-7.8-74.9c-2.6-25-5.2-49.9-7.8-74.9c-1.9-18-3.9-36-6.3-53.9c-1.2-8.9-2-17.9-1.3-26.9
		c0.6-8.7,2.2-10.6,10.6-13.1c0.8-0.5,1.5-0.6,1.5,0.7c-7,3.2-7.1,9.8-7.3,16c-0.5,11.8,1.3,23.4,3.1,35c2.9,18.6,4.3,37.4,6.4,56.1
		c2.6,23.1,4.8,46.2,7.2,69.2c2.1,19.9,4.9,39.7,6,59.6c0.7,12.7,7.5,15.2,17.7,16.9c9.2,1.6,18.4-0.7,27.6-1.5
		c16.5-1.3,33.1-2.5,49.7-3.7c23.3-1.6,46.6-3,69.8-4.9c16.7-1.4,33.4-1,50.1-1.8c6.1-0.3,12.1-1.3,17.7-4c3.6-1.8,5.8-4.6,6.6-8.5
		c1.1-5.5,1.3-11.1,1.3-16.8C338.3,476,336.9,473.1,339,470.5z"/>
	<path fill="#DDDDDD" d="M334.5,384.2c0,0.5,0,0.9,0,1.4c-0.2,0.6-0.5,1-1.2,0.7c-1.2-25.5-2.4-50.9-3.6-76.4
		c-0.3-5.9,0.1-11.7,0.7-17.6c2.5,23,3.3,46,3.6,69.1c0.5,6.2,0.1,12.4,0.2,18.6C334.3,381.5,334,382.9,334.5,384.2z"/>
	<path fill="#7A7A7A" d="M339,470.5c-1.1,2.6,0.1,5.5-0.7,8.2c-0.5-6.8-1.1-13.6-1.5-20.4c-0.2-3.9-1.4-7.8-0.3-12.4
		C337.7,454.5,338.8,462.5,339,470.5z"/>
	<path fill="#8E8E8E" d="M333.3,386.3c0.4-0.2,0.8-0.5,1.2-0.7c0,7.7,0,15.3,0,23C334.1,401.2,332.9,393.8,333.3,386.3z"/>
	<path fill="#8E8E8E" d="M334.5,384.2c-1-7.5-0.7-15.1-0.5-22.7C334.8,369.1,334.7,376.6,334.5,384.2z"/>
	<path fill="#878787" d="M82.6,267.1c-0.2-0.8-1-0.5-1.5-0.7c1.9-1.3,4.1-1.4,6.5-1C85.9,265.9,84.2,266.5,82.6,267.1z"/>
</g>
</svg>
