<?xml version="1.0" encoding="utf-8"?>
<!-- Generator: Adobe Illustrator 18.0.0, SVG Export Plug-In . SVG Version: 6.00 Build 0)  -->
<!DOCTYPE svg PUBLIC "-//W3C//DTD SVG 1.1//EN" "http://www.w3.org/Graphics/SVG/1.1/DTD/svg11.dtd">
<svg version="1.1" id="Layer_1" xmlns="http://www.w3.org/2000/svg" xmlns:xlink="http://www.w3.org/1999/xlink" x="0px" y="0px"
	 viewBox="0 0 1033.8 650.5" enable-background="new 0 0 1033.8 650.5" xml:space="preserve">
	 	 <style>
	#Layer_1:hover {
	fill:yellow;
	}

</style>
<g>
	<path fill="#FEFEFE" d="M516.8,0.1c171.1,0,342.3,0,513.4-0.1c3.1,0,3.6,0.7,3.6,3.7c-0.1,214.4-0.1,428.8,0,643.1
		c0,2.9-0.5,3.7-3.6,3.7c-342.1-0.1-684.3-0.1-1026.4,0c-3.2,0-3.8-0.8-3.8-3.9C0.1,432.3,0.1,217.9,0,3.5C0,0.8,0.5,0,3.4,0
		C174.5,0.1,345.7,0.1,516.8,0.1z"/>
	<path fill="#E8E8E8" d="M150.8,205.5c0.1-1.4,1.3-1.6,2.3-2.1c1.9,0.3,3.8-0.1,5.5-0.8c7.9-3.1,15.8-1.1,23.7-0.7c1,0,2,0.4,3,0.3
		c11-0.5,21.9,0.8,32.9,0.4c16.8-0.6,33.7-0.5,50.4-2.6c1.7-0.2,3.1-0.6,4.4-1.7c6.3-4.8,16.4,0.7,17.6,7.2c0.2,0.9,0.2,1.7-0.2,2.6
		c-0.8,2.1-6.5,8.2-8.7,9.4c2.8-0.6,4-3.1,5.5-5.1c2.5-3.5,5.9-4.4,9.9-4.1c1.9,0.1,3.5,0.9,4.2,2.7c0.9,2.4,2.7,2.5,4.8,2.5
		c13.9-0.2,27.7-1.2,41.6-0.8c7.1,0.2,13.9,1.4,20.6,3.5c5.1,1.6,5.6,2.7,3.8,7.9c-0.2,0.7-0.4,1.4-0.5,2.1c0.8-1.9,0.7-5,3.5-4.9
		c2.4,0.1,2.6,3,3.1,5c1.9,7.5,2.6,15.3,2.9,22.9c0.3,8,0.9,15.9,1,23.9c0.2,21.8,1.3,43.6,2.1,65.5c0.3,9,0.6,18,0.9,26.9
		c0.6,21,1.5,41.9,2.1,62.9c0.4,13.5,0.9,26.9,1.3,40.4c0.3,9.7,0.4,19.5,0.6,29.2c0.2,11.2,0.2,22.5-3.2,33.4
		c-0.7,2.4-1.5,4.8-3,6.9c-0.6,0.9-1.3,2.2-2.6,1.5c-1-0.5-0.6-1.7-0.5-2.7c1.1-7.1,1.9-14.3,2.3-21.6c0.6-11.5,0-22.9-0.7-34.4
		c-1.1-18.8-2.9-37.5-3.3-56.4c-0.3-15-1-29.9-1.5-44.9c-0.5-13.3-0.8-26.7-1.5-40c-0.8-16.2-1.2-32.4-1.9-48.6
		c-0.5-11.6-1.2-23.2-1-34.8c0-2.4-0.1-4.7-0.8-7c1.2,16.8,0.9,33.6,2.1,50.3c0.5,6.8,0.5,13.7,0.7,20.6c0.2,10.9,0.7,21.7,1.1,32.6
		c0.7,16.1,0.8,32.1,2,48.2c0.5,7.3,0.6,14.7,0.7,22.1c0.4,21.7,2.6,43.3,3.8,65c1,17.2,0.7,34.4-2.6,51.5c-0.7,3.8-2.6,6-6.1,7.2
		c-6.4,2-12.9,3-19.5,3.4c-13.2,0.9-26.4,1.2-39.6,1.7c-11.1,0.5-22.1,1.7-33.2,2.6c-7.8,0.6-15.7,1.2-23.5,1.8
		c-10.9,0.9-21.8,1.7-32.8,2.7c-7.3,0.7-14.6,1.2-22,1.8c-8.4,0.6-16.9,1.3-25.3,2c-7.4,0.6-14.9,1.2-22.3,1.7
		c-8.6,0.6-17.1,1.6-25.6,2.6c-14.8,1.7-29.7,3.9-44.7,2c-6.8-0.8-10.9-4.3-13.2-10.5c-2.8-7.6-4.1-15.4-5.2-23.3
		c-1.8-12.5-2.8-25-3.7-37.5c-1.3-17.4-3.6-34.7-5.6-52c-2.1-18.7-4.3-37.4-6.4-56.1c-2.9-25.6-5.9-51.3-8.7-76.9
		c-1.7-14.9-4.8-29.6-6.2-44.5c-1.1-11.4-0.4-22.6,3.2-33.7c1.8-5.5,5.1-8.7,10.9-10c17.7-4,35.7-5.6,53.7-7.8
		c12.8-1.6,25.6-1.5,38.5-2.1c4.6-0.2,9.3-0.6,12.8,3.6c-0.4-0.5,0.3-0.2,0.2-0.3c-4.4-2-6.3-5.2-4.4-10
		C151,207.2,151.5,206.3,150.8,205.5z"/>
	<path d="M712.2,503.1c1.3-24.3,2.7-48.6,3.8-73c1.6-32.8,3-65.6,4.4-98.5c1-24.1,1.9-48.2,3-72.3c0.4-8.5,2-16.8,4.9-24.9
		c0.7-2,1.6-3.4,3.6-4.4c7.6-3.6,14.7-8.5,23.4-9.5c1.1-0.1,1.8-0.7,2.2-1.7c0.4-1.1,1.2-2.2,2.3-2.2c4.2,0,5.3-3,7-6
		c4.2-7.3,16-11.6,24.3-4.3c1,0.9,2.1,1.2,3.4,1.3c24.1,2,48.2,2.2,72.3,1.4c2.5-0.1,4.6-0.6,6.7-2.3c6.1-4.9,16.6-4.4,24.6,0.8
		c3,1.9,5.4,4.3,7.6,7.1c1.7,2.1,4.2,3.5,3.9,6.8c-0.1,1.1,1.3,0.9,2.1,1c11.8,1.6,22.9,6,34.2,9.4c5.9,1.8,8.6,6.1,9.3,12.2
		c1.4,13.6-0.4,26.9-2,40.3c-2.8,22.7-4.7,45.5-7,68.2c-2.2,21.9-4.3,43.7-6.4,65.6c-1.9,19.3-3.7,38.5-5.7,57.8
		c-2.2,20.9-2.1,41.9-5.2,62.7c-1.3,8.7-2.6,17.5-6.9,25.5c-2.2,4.1-5,6.4-10,6.1c-14-0.7-27.8-2.9-41.6-5.1
		c-25.1-4-50.3-7.8-75.6-10.2c-21.2-2-42.5-4.3-63.2-9.6c-1.4-0.4-2.9-0.9-4.3-1.3c-12.2-3.7-12.9-6.1-14.5-18.7
		c-0.5-3.7-0.5-7.5-0.6-11.2c-0.1-3.7,0-7.5,0-11.2C712.1,503.1,712.1,503.1,712.2,503.1z"/>
	<path d="M150.8,205.5c1.6-0.6,2.2-0.4,1.5,1.5c-2.3,6.7-1.6,8,5,10.5c0.8,0.3,1.8,0.2,1.5,1.5c-0.4,1.5-1.4,1.2-2.4,0.9
		c-1.2-0.4-2.6-0.7-3.3-1.6c-2.8-3.2-6.4-2.6-10-2.6c-28.5,0-56.8,3.4-84.9,8c-2.5,0.4-4.9,1.2-7.3,1.5c-6.7,0.8-9.6,5.1-11.4,11.1
		c-4.3,13.8-3.7,27.7-1.5,41.6c3.9,24.2,6.7,48.5,9.4,72.8c3.3,29.5,6.8,59,10.2,88.6c3.2,27.8,6.3,55.6,8.6,83.5
		c0.9,11.4,2.6,22.8,5.9,33.9c2.1,7,6.2,11,13.7,11.6c10,0.9,20,0.6,29.9-0.6c36.1-4.5,72.4-6.7,108.6-9.6c30.5-2.5,61-5.1,91.5-7.2
		c14.9-1,30-0.6,44.9-2.5c4.7-0.6,9.4-1.4,13.9-3.1c2-0.7,3.1-1.9,3.6-4.2c3.7-16.8,4.3-33.7,3-50.7c-4.3-56.6-5.5-113.3-7.7-170
		c-0.9-23.5-1.9-46.9-2.8-70.4c-0.1-1.4-1.3-4.1,1.2-4.2c2.3-0.1,1.2,2.6,1.3,3.9c1.8,49.3,3.7,98.6,5.2,148
		c1,33.5,3.6,66.9,5.1,100.3c0.6,14-0.1,28-3.3,42.7c3.5-3.9,4.5-7.9,5.4-11.8c3.4-14.8,2.7-29.8,2.5-44.7
		c-0.6-34.1-2.1-68.2-3.2-102.2c-1.1-33.1-2.4-66.2-3.5-99.3c-0.5-13.9-0.4-27.7-1.7-41.6c-0.6-6.7-1.3-13.4-4-20
		c-2.2,2.2-2.8,4.6-2.9,7.2c0,0.8,0.1,2.1-1,2.1c-1.6,0-0.9-1.5-1-2.3c-0.3-2,0.1-4.1,1.2-5.8c2-3,0-3.8-2.3-4.6
		c-10.9-3.8-22.3-4.3-33.7-4c-10,0.3-20,0.8-30,1.3c-2.1,0.1-3.8-0.3-4.9-2.4c-1.7-3.6-7.9-4.5-10.9-1.6c-1.4,1.4-2.6,3-3.7,4.7
		c-1.8,2.7-4.6,3.2-7.5,3.6c-0.7,0.1-1.2,0.1-1.3-0.7c-0.1-0.9,0.4-1.1,1.1-1.1c6.1-0.5,7.2-6.8,11.3-9.6c0.5-0.4,0-1.4-0.2-2.1
		c-2-6.1-9.1-10.6-14.5-7.2c-7.7,4.8-15.8,3.3-23.6,3.8c-27.3,2-54.7,2.3-82-0.3c-3.7-0.4-7.1,0.7-10.6,1.7c-1.9,0.5-4.1,2.3-6-0.4
		c2.2-1.9,4.9-2.3,7.5-3.1c3.6-1.1,7.2-1.9,10.8-3c6.1-1.8,11.6,0.3,17,2.4c1.6,0.6,3.1,1.3,4.8,1.4c23.3,0.9,46.5,0.2,69.7-1.4
		c2-0.1,3.8-0.7,5.6-1.7c7.5-4.2,15.3-3.4,20.3,1.9c0.2,0.2,0.4,0.3,0.5,0.5c1.7,4.7,4.5,7.8,10.1,7.1c1-0.1,2.1,0.8,2.3,1.7
		c1,3.7,3.8,3.1,6.5,3c13.6-0.3,27.2-1.8,40.8-0.9c6.4,0.4,12.6,1.7,18.8,3.1c8.2,1.8,11.6,7,12.8,14.9c2.3,16,2.4,32.1,2.9,48.2
		c1.4,44.2,2.9,88.4,4.3,132.6c0.6,17.5,0.9,35,1.8,52.4c0.7,14.6,1.6,29.2,1.2,43.8c-0.3,8.1-0.9,16.2-2.8,24.1
		c-2.4,10.2-8,16.9-19,18.9c-13.7,2.5-27.6,3-41.4,3.3c-18.1,0.4-36.2,2.3-54.2,3.6c-24,1.8-48.1,3.6-72.1,5.7
		c-26.5,2.3-53.1,3.7-79.5,7.1c-12,1.6-24.1,2.5-36.2,1.2c-8.1-0.9-12.9-4.9-15.2-12.6c-3.7-12.3-5.4-24.9-6.4-37.6
		c-2.1-26.1-5-52.2-8-78.2c-2.7-23.2-5.1-46.4-7.9-69.6c-3.7-30.8-6.4-61.8-11.5-92.5c-2.1-12.5-3-25.1-0.4-37.6
		c1-4.8,2.7-9.3,4.7-13.8c0.9-2,2.7-2.9,4.6-3.5c9.8-3.5,20.1-4.7,30.4-6c16.2-2,32.5-3.9,48.8-5.4c7.1-0.6,14.2-0.1,21.4,0.1
		c2.1,0,3.2-0.2,3-2.7C148.7,209.1,149.9,207.3,150.8,205.5z"/>
	<path fill="#010000" d="M501.1,270.1c-2.1-2-3.5-3.3-4.9-4.7c-12.1-11.9-10.7-34.6-2.6-43.7c5.6-6.2,12-5.4,17.2-0.1
		c9.6,9.6,10.6,21.2,6.3,33.5c-1.1,3-3.8,6.3-3.1,8.7c0.6,2.2,5.1,3,7.6,4.8c5.5,3.9,10.5,8.2,13.1,14.9c2.8,7.5-0.9,15.2-6.5,19.4
		c-10.2,7.9-21.8,7.9-33.8,6c-1.3-0.2-3.6-2-3.5,1.1c0,2,0.1,4.7,3.5,4.8c2.2,0,4.3-0.3,6.5,0.8c3.7,2,5.3,4.9,4.3,8.4
		c-1,3.4-4.6,6-8.3,5.8c-4.1-0.2-7.3-2.3-10.1-5.1c-5-5.1-8.5-10.9-5.8-18.4c0.5-1.4,0.3-2.1-0.9-3.1c-8.5-7.1-9.1-16.1-4.3-25.1
		c3.7-6.9,12.4-13,23.3-8.4C499.4,270,499.7,269.9,501.1,270.1z"/>
	<path fill="#0A0067" d="M671.5,176.2c-0.3-2.3-0.6-4.6-0.9-7c-0.7-5.3-5.3-4-8.5-4.8c-8.7-2-16.3-7.3-16.4-17
		c0-7.3,6.4-16.1,12.5-18.6c13-5.4,20.5,4.3,23.8,13.9c3.1,9.2,4.2,18.7,4,28.4c0,2.4,0.8,3.1,3.1,3.4c10.1,1.3,10.2,1.4,11.5-9
		c0.8-6.3,1.4-12.7,2.3-19c0.4-2.7,0-3.9-3.2-4.2c-8.6-0.6-15.2-5-19-12.7c-3.5-7-1-13.6,2.7-19.9c1.2-2,2.9-3.7,3.2-6.2
		c0.1-0.4,0.4-1,0.8-1.1c6.2-2.3,12-6.7,19.1-5.4c5.4,1,8.7,5,10.7,10c1.9,4.5,2.3,9.3,3,14.1c0.4,4.4,0.4,8.9,0,13.3
		c-0.6,9.6-1.7,19.2-3.6,28.7c-1,5-1.1,10.2-1.7,15.3c-1,9.1-2.4,18.2-5.5,26.8c-1.1,3.1-3.6,4.8-7.4,4.9c-4.2,0-8.3-1-12.6-0.9
		c-5.7,0.1-11.3,1.4-17.1,0.8c-3.6-0.4-4.6-1.5-3.5-5c1.6-4.7,1.8-9.6,2.6-14.4C672,185.9,672,181,671.5,176.2z"/>
	<path fill="#010001" d="M561,234c-0.2-7.2,1.1-9.2,7.1-9.4c6.6-0.1,12.3-3,18.5-4.3c5.1-1,5.9-0.7,7.7,4.4
		c2.6,6.9,3.8,14.2,5.9,21.2c0.8,2.8,1.7,5.5,2.4,8.2c0.7,2.7,2.1,3.8,5.2,3.9c9.8,0.4,16.9,5.6,21.5,14c4.7,8.5-0.9,18.9-10.9,20
		c-3.2,0.3-2.8,1.4-2.3,3.6c2.7,10.7-7.6,22.4-18.1,20.3c-5.5-1.1-9.2-5.2-12.3-9.8c-8.6-12.6-13.6-26.8-18-41.3
		C564.7,254.3,561.9,243.7,561,234z"/>
	<path fill="#010100" d="M531.1,61.3c8.6,1.4,18.7,1.1,28.8,1.4c2.7,0.1,3.3,0.9,2.6,3.5c-3.1,11.4-6.1,22.9-8.7,34.4
		c-0.7,3.2-0.3,5,3.2,5.8c6.4,1.6,10.8,6,13.9,11.7c3.1,5.6,0.9,14.1-4.9,19.3c-4.5,4-11.5,4.2-17,0.9
		c-11.6-7.1-12.6-18.9-10.1-29.2c1-4.1,0.7-8.5,2.3-12.5c0.6-1.4-0.3-1.8-1.5-1.8c-4-0.2-7.9-1-11.9-0.8c-2.4,0.1-4,1-4.7,3.4
		c-1.6,5-3.1,10-4.1,15.1c-0.5,2.4,0,3.3,2.4,3.9c9.3,2.2,13.2,9.8,16.3,17.6c1.7,4.4-0.5,8.7-3.2,12.5c-6,8.3-14.8,11.1-23.6,6.7
		c-6.1-3.1-9-8.7-9.9-15.4c-1.1-8.1,0.2-16,2.6-23.6c4.6-14.7,8.9-29.6,13.4-44.3C519.6,61.3,520.8,60.7,531.1,61.3z"/>
	<path fill="#000100" d="M535.5,401.1c-4.3,4.4-10,3.9-12.8,2.6c-2.3-1.1-3.7-6.2-2.8-9.1c1.1-3.6,5.7-6.1,11.1-6
		c4.2,0.1,6.2,1.8,7.3,6.4c3.5-3.6,5.7-8.2,9.8-11.1c3.9-2.7,7.4-6,11.9-7.6c1.4-0.5,1.3-2.6,2.8-2.2c1.7,0.5,3.1-0.3,4.6-0.7
		c10.3-2.5,18.6,1.3,25.1,9.5c7.1,9.1,5.8,17.7-0.2,26c-4.6,6.4-13.8,12.8-24.2,9.9c-4.3-1.2-8.1-3.3-10.7-7
		c-1.6-2.3-2.6-2.5-4.4,0.2c-5.8,8.4-1,20.4,9.4,25.9c5.4,2.8,11.3,3,17,3.9c1.3,0.2,3.2,0.1,3.5,1.6c0.4,1.8-1.6,2.3-2.8,3
		c-1.7,1.1-3.6,1.4-5.7,1.6c-10.3,0.7-20.1-0.7-29.5-5.1c-2.8-1.3-5.6-2.9-7.9-4.9c-4.5-3.7-7-8-5.9-14.4
		C532.3,416.1,531.5,408.2,535.5,401.1z"/>
	<path fill="#010100" d="M455.2,105c5.6,0.6,6.6,2.6,3.5,7.1c-5.7,8.5-12.6,9.8-20.9,3.8c-2-1.5-3.9-3.1-5.4-5.1
		c-1-1.4-2-2.3-4.3-1.3c-3.6,1.6-5.6-0.3-5-4.4c1-6.5,4.2-12.2,6.8-18.1c2.2-5,4.8-9.9,7.2-14.8c1.3-2.5,1.3-4.7-1.6-6.2
		c-5.9-3-7.8-8.8-9.9-14.4c-2-5.4,2.1-16.7,7-19.6c5-3,13.5-5.2,19.9,1.4c5.5,5.7,11.4,11.3,12.6,19.8c0.6,4-0.6,7.7-2.7,11
		c-2.7,4.2-5.9,8-9.5,11.4c-2.9,2.8-5.3,6-6.4,9.9c-1.5,5.2,2.1,9.3,7.3,8.4c1.5-0.3,2.9-0.5,4.4-0.8c1.7-0.4,3.5-0.3,4.4,1.2
		c1.1,1.7,0.1,3.3-0.9,4.8C460.2,101.4,457.7,102.9,455.2,105z"/>
	<path fill="#010101" d="M421.9,299.3c3.1-4.1,3.6-8.7,5-12.9c0.3-1,0.1-2.8,1.8-2.8c1.8,0.1,1.4,1.8,1.5,2.9
		c0.6,5.5,0.5,11-0.9,16.4c-1,4.2-3.1,7.6-7.2,9.5c-1.7,0.8-1.6,1.8-1.4,3.3c1.2,9.3,2.7,18.5,2.9,27.9c0.1,5.3-0.2,10.5-1.8,15.6
		c-0.8,2.5-2.2,4.4-3.7,6.4c-3.2,4.5-10.6,3.9-12.9-1.7c-3.3-8-3.8-16.2-0.7-24.4c0.6-1.5,1.4-3.1,2.6-3.5c3.4-1.3,2.9-4,3-6.7
		c0.3-10.7,0.3-21.5,1.4-32.2c0.1-0.6,0-1.3,0.2-1.9c0.6-1.7,0.3-4,2.7-4.4c2.3-0.4,3.2,1.5,4.2,3.1
		C419.9,295.6,420.7,297.3,421.9,299.3z"/>
	<path fill="#060806" d="M542.6,369c2.3,0.2,5,0.9,6.5,3.5c1.5,2.6,0.4,5-1.1,7.3c-4,6-7.6,7.8-12.4,6c-3.5-1.4-5-4.4-4-8
		C533,372.9,537.6,369.1,542.6,369z"/>
	<path fill="#7E7E7E" d="M671.5,176.2c1.1,4.9,1.1,9.7,0,14.6C671.5,185.9,671.5,181,671.5,176.2z"/>
	<path fill="#7E7E7E" d="M720.3,134.6c0-4.4,0-8.9,0-13.3C721,125.8,721.3,130.2,720.3,134.6z"/>
	<path d="M193,249.8c27.3-0.5,57.2-0.9,87.2-1.6c10.4-0.2,20.7-1.8,31.1-1.5c6.8,0.2,13.4,1.1,19.8,3.6
		c10.8,4.3,15.9,12.5,16.4,23.7c0.7,14.1,0.8,28.2,1.5,42.3c1.8,38.2,2.4,76.4,5.8,114.5c1.6,18,3,36.1,2.8,54.2
		c0,4.2-0.3,8.5-0.8,12.7c-0.5,3.9-2.2,7.2-5.1,9.7c-7.7,6.8-16.3,11.7-26.9,12.4c-16.4,1.2-32.9,0.6-49.4,2.1
		c-22.5,2-45.1,3.3-67.6,4.9c-19.4,1.4-38.9,2.7-58.3,4.3c-8.7,0.7-17.4,1.8-26.1,2.5c-5.8,0.5-11.5,0.1-17.1-1.3
		c-11.3-2.8-16.9-10.6-18.7-21.7c-2.6-15.9-3.4-32-4.3-48.1c-1-18.4-3.4-36.5-5.7-54.7c-5.4-42.7-11.3-85.4-13.9-128.4
		c-0.6-9.6,3.4-15.5,10.2-20.8c7.1-5.5,15.3-7.6,24.1-8.2c6-0.4,12-0.3,18-0.1C140.8,250.9,165.5,249.6,193,249.8z"/>
	<path fill="#E6E6E6" d="M892.7,207.9c3.7,1,6.8,3.1,9.4,5.9c4.7,5,3.3,10.2-3.2,12.3c-1.5,0.5-4.6,0.7-4.1,1.9c1,2.3,3.2,0,4.8-0.4
		c3-0.6,5.4-2.4,7.1-5.5c0.9,1.6,0.3,3,0.3,4.4c0,0.6-0.2,1.3,0.6,1.5c0.8,0.2,1.2-0.3,1.3-1c0.1-2.5,1.8-2.1,3.4-2
		c6,0.4,11.7,2,17.3,4.3c4.9,2,10.2,3.2,15.3,5c6.1,2.2,11.5,11.7,7.9,16.6c-4.6,6.3-2.5,13-3.8,19.4c-1.3,6.8-1.6,13.9-2.2,20.8
		c-1.9,19.9-3.8,39.8-5.6,59.7c-2.1,22.6-4.3,45.2-6.4,67.9c-2,21.4-4.5,42.7-5.8,64.2c-1.1,18.1-1.4,36.2-3.9,54.2
		c-1.4,9.5-3.3,18.9-7,27.8c-1,2.3-2.2,3.2-4.7,3.1c-11.4-0.3-22.6-2-33.8-3.7c-29.1-4.4-58.1-9.3-87.5-11.7
		c-19.7-1.7-39.5-3.7-58.7-9c-16.3-4.5-14.3-2.4-16.4-19.3c-1.8-14.3,0.1-28.7,1.6-43c1.6-16.1,1.9-32.2,2.7-48.3
		c1.6-32.8,3.2-65.6,4.3-98.5c1-31.4,4.8-62.5,5.9-93.8c0.2-6.6,2-10,8.1-12.3c5.5-2.1,10.8-4.4,16.5-5.7c1.5-0.4,2.8-1,3.8-2.1
		c2.3-2.5,4.6-2.5,6.5,0.5c2.3,3.8,5.9,5.6,9.9,6.9c0.7,0.2,1.7,0.9,2.2-0.4c0.5-1.3-0.2-1.7-1.4-2c-2.1-0.7-4.2-1.4-6-2.9
		c-3.3-2.6-4.3-6.3-2.4-9.9c3.8-7.4,14.2-10.2,20.2-5.6c-2.4-0.2-4-0.3-5.6-0.5c-1-0.1-2-0.5-2.2,1.1c-0.2,1.7,1,1.5,1.9,1.5
		c5.8,0.5,11.7,1,17.6,1.4c28.6,1.8,57.2,1.5,85.7-0.6C888.1,209.4,891,210.6,892.7,207.9z"/>
	<path fill="#DFDFDF" d="M724.5,279.7c-0.1-18.8,1.8-35.5,4.9-40.2c-0.8,21.9-3.2,43.1-4.9,64.3c-1.8-0.6-0.8-2-0.7-3.1
		c0.1-2.2,0.2-4.4,0.3-6.6C724.8,289.4,723.9,284.5,724.5,279.7z"/>
	<path fill="#A3A3A3" d="M723.8,300.7c0.2,1,0.5,2.1,0.7,3.1c-0.5,11.5-0.9,22.9-1.4,34.4c-1,22.5-2.1,45.1-3.1,67.6
		c-1.8-1.6-0.9-3.5-0.7-5.3c0.9-22.3,1.9-44.6,2.8-66.9c0.4-8.9,0.7-17.7,1.1-26.6C723.3,304.9,723,302.8,723.8,300.7z"/>
	<path fill="#7B7B7B" d="M719.3,400.5c0.6,1.7-0.5,3.7,0.7,5.3c-0.6,13.1-1.1,26.1-1.7,39.2c-0.3,7.7-0.7,15.4-1.2,23.1
		c-0.2,3.9-0.7,7.7-1.4,11.5c0-3.7-0.1-7.3,0-11c0.6-13.1,1.4-26.1,2-39.2c0.4-8.8,0.6-17.7,1-26.5
		C718.8,402.2,719.1,401.3,719.3,400.5z"/>
	<path fill="#838383" d="M952.7,258.6c0,12.2-1.3,24.2-3.5,36.2C949.5,282.7,951.1,270.6,952.7,258.6z"/>
	<path fill="#3F3F3F" d="M931.2,472.1c1.2-12.2,2.4-24.5,3.6-36.7c0.4,0,0.7,0.1,1.1,0.1c-1.2,12.3-2.3,24.5-3.5,36.8
		C932,472.3,931.6,472.2,931.2,472.1z"/>
	<path fill="#BABABA" d="M890.5,207.5c-4.9,0.5-9.3,1.2-14,1C879.5,205.6,886,205.1,890.5,207.5z"/>
	<path fill="#3B3B3B" d="M936.4,423.5c1.1,4.1-0.4,6.9-0.8,9.8C935.7,430.3,934.9,427.3,936.4,423.5z"/>
	<path fill="#A3A3A3" d="M724.5,279.7c0.3,4.8,0.7,9.7-0.5,14.4C723.9,289.3,723.8,284.5,724.5,279.7z"/>
	<path fill="#BABABA" d="M892.7,207.9c-1.5,3.3-4.3,2.3-6.9,2.2C888.2,209.7,890.6,209.1,892.7,207.9z"/>
	<path fill="#7F7F7F" d="M186.6,200.5c-4.2,1.1-7.2-0.6-10.3-0.5C179.4,199.3,182.5,199.1,186.6,200.5z"/>
	<path fill="#FD005E" d="M504.1,267.7c1.9-5.5,3.9-10.4,3.9-15.9c0-3-0.7-5.7-1.7-8.4c-0.6-1.6-1.4-3.3-3.3-3.1
		c-1.7,0.1-2.2,1.9-2.4,3.4c-1,5.2-0.3,10.2,2.1,14.9c0.5,0.9,1.5,1.7,1.3,3c-4.5-1.3-7.4-7-6.4-12.6c0.5-3.1,1.6-6,2.9-8.9
		c0.4-0.7,1.2-1.6,0.1-2.3c-1.2-0.7-1.4,0.7-1.7,1.3c-5.2,9-4.9,16,1.2,24c-4-0.4-5.5-3.5-6.9-6.4c-4.6-10.2-5.1-20.5,0.1-30.6
		c3.8-7.4,10.7-8.2,16.4-2.1c7.9,8.6,9.2,18.5,5.5,29.2c-0.9,2.7-2,5.4-3.3,8c-0.7,1.5-1,3.5-3.9,2.7
		C506.2,263.3,506.2,266.6,504.1,267.7z"/>
	<path fill="#FD005E" d="M495.3,296.1c-1.4,1.4-0.9,2.2,0.6,3.1c4.5,2.6,9.1,3.6,13.8,0.7c5-3.2,6.8-8.1,6.3-13.9
		c-0.5-4.9-3-8.9-6.9-12.9c2.3,0.5,3.4,1.7,4.6,2.6c0.8,0.6,1.3,0.5,1.8-0.3c0.5-0.8,0.4-1.3-0.5-1.8c-1.7-1-3.4-2.2-4.7-4
		c2.1,1.2,4.2,2.4,6.3,3.6c0.9,0.6,1.8,1,2.4-0.4c0.6-1.3-0.6-1.4-1.2-1.8c-2.1-1.3-4.7-1.8-6.9-4.4c3.4,0.2,5.5,1.9,7.6,3.2
		c6.1,3.5,11.6,7.8,14.1,14.8c2.2,6.1-0.3,13.1-5.7,16.7c-0.5,0.3-1.4,1-1.6,0.8c-3.2-2.7-4.9,0.6-6.8,1.9c-5.6,4-11.4,4.8-17.9,2.5
		c-2.3-0.8-4.8-1.2-7.3-1.7c-1.9-0.3-2.2-1.2-1.6-2.9c0.9-2.6,1.8-5.1,3.4-7.4c0.6,0.2,0.9,0.7,0.8,1.3
		C495.8,296.1,495.5,296.1,495.3,296.1z"/>
	<path fill="#FBFBFB" d="M495.3,296.1c-0.1-0.4-0.2-0.9-0.3-1.3c2.2-4.4,4.3-8.8,7.7-13c1.5,2.1,1.7,4.3,2.5,6.3
		c0.6,1.4,1.1,2.9,3.1,2.5c1.8-0.4,2.4-1.7,2.6-3.2c0.4-3.7-0.7-7.1-2-10.7c3.9,2.9,5.9,8.5,4.7,13.6c-1,4.2-3.3,7.4-7.9,8.6
		C501.7,299.9,498.7,297.5,495.3,296.1z"/>
	<path fill="#F7005C" d="M486.9,307.6c0.1-0.5,0.1-0.9,0.2-1.4c0.7-0.1,1,0,0.7,0.8c-0.1,3-0.4,6,0.4,8.9c1.1,3.9,3,5.3,7,4.9
		c1.5-0.1,3-0.3,4.5-0.3c0.9,0,2.1-0.7,2.7,0.5c0.6,1.2,0.4,2.5-0.3,3.6c-2,3-4.9,3.4-7.9,2.4c-8.9-2.8-13.7-13.8-9.6-22.8
		c-0.2,3.6-1,6.5-0.8,9.6c0.1,1.6,0.6,2.3,2.2,2.1C487.5,313.2,485.8,310.2,486.9,307.6z"/>
	<path fill="#F4005B" d="M497.3,276.3c-9.2,1.9-11.5,5.6-9.8,14.5c0.3,1.5-0.1,3-1.6,3.2c-1.4,0.1-1.2-1.5-1.3-2.6
		c0-0.2,0.1-0.5,0-0.7c-0.4-1.3,1.2-3.8-1.3-3.8c-2.1,0-0.8,2.4-1,3.7c-0.4,1.9,0.2,3.7,1.6,5.1c1.1,1.1,1,2.4-0.1,3.2
		c-1.1,0.8-1.7-0.6-2.3-1.3c-3.1-3.3-3.5-7.7-1.4-12.2C483.1,279.3,490.7,274.9,497.3,276.3z"/>
	<path fill="#F7005C" d="M476.9,295.2c-3-6.1-1.8-13.8,3.1-19.2c4.3-4.8,9.6-7,16.1-5.2c1.1,0.3,2.9,0.3,2.8,1.9
		c-0.2,1.7-2,1.1-3.1,1.1c-9.5,0.4-17.5,6.7-19,15C476.3,290.9,477,293,476.9,295.2z"/>
	<path fill="#EAEAEA" d="M503.1,242.1c3.4,5.1,3.9,10.9,1.5,16C502,252.9,501.3,247.9,503.1,242.1z"/>
	<path fill="#B60042" d="M487.7,307c-0.2-0.3-0.5-0.5-0.7-0.8c1.4-8.8,6-16.2,10.6-23.6C494.5,290.8,489.9,298.4,487.7,307z"/>
	<path fill="#E3E3E3" d="M495,279.9c-1.9,3.1-3.6,6.1-5.5,9.2C487.6,284.5,489.9,280.6,495,279.9z"/>
	<path fill="#7A0029" d="M506.6,284.9c-1.3-1.9-2-3.1-2.3-4.6C506.3,281.4,506.3,281.4,506.6,284.9z"/>
	<path fill="#B60042" d="M486.9,307.6c-0.3,2.7,1.1,5.7-0.9,8.2C486.7,313.1,485.4,310.2,486.9,307.6z"/>
	<path fill="#8B0030" d="M496.9,317.7c-1.6,1.3-2.6,1.2-4,0.3C494.1,316.9,495.2,317.3,496.9,317.7z"/>
	<path fill="#2400E8" d="M681.9,120.9c1.1-7.1,4.5-12.8,10.3-16.8c6.3-4.3,11.8-3.8,16.8,1.5c0.7,0.8,1.5,2.7,2.9,1.2
		c1-1.1-0.6-1.9-1.2-2.7c-1.4-1.8-3.3-3-5.6-4.5c4.6,0.6,8,3,9.7,6.9c2.8,6.4,4.9,13.8,3.1,20c-2.4,8.3-1.5,16.4-2.5,24.5
		c-1.4,11.2-2.4,22.6-3.6,33.8c-0.7,5.9-1.6,11.7-3.6,17.3c-2,5.8-4.3,7-10,5.3c-3.9-1.2-7.9-0.8-11.9-0.3
		c-4.1,0.5-8.2,0.4-12.3,0.5c-2.2,0-3.1-0.4-2.4-3c3.5-13,3.1-26.2,0.7-39.4c-0.4-2.2-1.5-3.9-4-3.6c-8.4,1-13.7-4.4-19.1-9.4
		c-1.8-1.7-0.8-4.5-0.5-6.8c0.5-3.7,2.3-6.9,4.6-9.7c3.4-4.2,7.7-4.6,13.9-1.7c1.2,0.6,2.9,3.1,4,1.1c1-1.9-2-2.3-3.2-3.2
		c-1.3-0.9-2.9-1.3-5.3-2.4c6.2-0.3,10.4,2.1,13.4,6c5.1,6.6,6.3,14.8,7.5,22.8c0.4,2.6,0.5,5.2,0.5,7.8c-1.3-3.4-1.7-7.1-1.9-10.7
		c-0.1-1.2,0.3-2.8-1.6-2.7c-2,0.1-1.4,1.8-1.3,2.9c0.5,6.1,2.4,12,2.9,18.1c0.1,1.7,1.3,2.9,3.3,3c4.2,0.2,8.5,0.5,12.7,0.9
		c2.4,0.2,3.8-0.8,4.2-3.2c1.7-10.6,3.1-21.2,3.9-32c0.2-3.1-1.4-4.3-4-4.7c-2-0.3-4-0.6-5.9-0.7c-6.4-0.2-10.7-3.5-13.3-9.3
		C682.4,125.7,680.9,123.4,681.9,120.9z"/>
	<path fill="#8B8B8B" d="M681.9,120.9c-0.5,2.5,1.4,4.7,0.8,7.2C681.3,125.8,680.6,123.5,681.9,120.9z"/>
	<path fill="#DF00FE" d="M614,288.5c-3.5,0.4-5.1-2.2-6.8-4.4c-5.1-6.6-7.7-14.5-10.8-22.1c-1.2-3-2.4-6-4.1-8.8
		c-1.6-2.5-3.7-3.1-6.4-2.4c-0.2,0.1-0.5,0.2-0.7,0.3c-9.1,2.7-9.6,3.5-6.8,12.8c1.9,6.5,4.2,12.8,8.2,18.4c1,1.5,1.8,1.8,3.4,1.9
		c7.8,0.5,15,2.7,20.1,9.1c4.1,5,3.7,10.1-0.6,14.8c-1.6,1.7-3.4,3-5.3,4.1c-4.1,2.4-9,1.1-12.7-2.8c-6.2-6.7-10.1-14.8-13.7-23
		c-6.5-15.2-11.4-31-14-47.3c-2.1-13-1.6-11.8,9.1-12.8c4.5-0.4,8.5-2.6,12.9-3.6c2.1-0.5,2.7-0.1,3.3,2c2.4,9.2,4.7,18.4,8,27.3
		c0.8,2.2,1.6,4.5,2.8,6.5c1.5,2.6,3.3,4.4,6.9,4.4c7.9,0.1,16.1,8.7,16.5,16.7C623.5,285,619.4,288.9,614,288.5z"/>
	<path fill="#FDFDFD" d="M601.2,279.3c-3.7-0.3-7.2-0.5-10.6-0.9c-2.6-0.2-3.9-2-4.5-4.3c-1.4-5.3-3-10.5-4.3-15.9
		c-0.4-1.5-2.1-3.7,1.1-4.5c2.9-0.7,6-2.9,8.2,1.1c1.2,2.2,2.1,4.5,3,6.8C596.4,267.5,598.7,273.2,601.2,279.3z"/>
	<path fill="#D201EF" d="M623.2,287c4.2-8.4,2.1-15.3-7.4-23.8c5.3,0.5,12.6,9.1,12.9,14.5C628.9,281.9,626.9,285.4,623.2,287z"/>
	<path fill="#AC05C4" d="M604.9,285.5c-5.8-2.8-11.5-4.1-17.4-4.7c3.1,0,6.2-0.3,9.3,0.1C599.7,281.2,603.6,280.3,604.9,285.5z"/>
	<path fill="#B3B3B3" d="M597.1,245.2c-1-3.7-2-7.4-3.1-11.1c-0.2-1-0.7-2,0.7-2.5c1.1,4.6,2.2,9.2,3.3,13.7
		C597.7,245.7,597.4,245.6,597.1,245.2z"/>
	<path fill="#691476" d="M597.1,245.2c0.3,0.1,0.6,0.1,1,0.2c1.2,3.7,2.5,7.4,3.7,11.1C599.1,253.1,597.8,249.3,597.1,245.2z"/>
	<path fill="#7F258C" d="M594.7,231.7c-0.2,0.8-0.5,1.7-0.7,2.5c-1.2-3-1.9-6.1-2.3-9.8C593.9,226.7,593.9,229.3,594.7,231.7z"/>
	<path fill="#FEAB79" d="M509.7,107.2c1.8-14,6-27.3,10.5-40.6c0.9-2.7,2.8-3.5,5.5-3.4c11,0.5,21.9,2,32.9,1.6
		c2.9-0.1,1.6,1.7,1.3,3c-3.1,12.1-6.6,24-8.8,36.3c-0.6,3.3,0,5.1,3.7,5.8c3.5,0.7,6.8,2.5,9.8,4.5c4.5,3.1,5.4,7.7,4.6,12.6
		c-0.7,4.5-3.4,8.2-7.7,10c-4.1,1.7-7.7-0.4-11.1-2.8c-1.1-0.8-1.8-2.9-3.8-1c-0.7,0.6-1.6-0.9-2.2-1.6c-3.2-4.1-4.4-8.9-4.4-14
		c0-0.6,0-1.7,0.5-1.6c4,0.3,2.6-2.9,2.9-4.6c0.8-5,0.6-10.2,1.9-15.2c0.5-1.7-0.2-3.3-2.3-3.5c-5.3-0.5-10.7-1.4-16.1-1.1
		c-2.9,0.2-4.9,1.4-5.9,4.3c-2.2,6.2-4,12.6-4.9,19.2c-0.4,2.7,0.2,4.7,3,5.6c0.8,0.3,1.6,0.8,2.4,1.1c11.2,5.4,13.3,9.2,11.8,21.5
		c-0.7,5.4-10.7,10.9-16.7,9.5c-8.3-1.8-13.7-10.2-13.9-17.6c-0.2-6.7,0.9-13.2,2.4-19.6c0.3-1.2,0.5-3.3,2.3-0.7
		c0.9,1.3,1.6,0.2,1.8-0.9C509.4,111.7,509.5,109.4,509.7,107.2z"/>
	<path fill="#6C4730" d="M541.2,107.8c0.8,2.9-0.1,4.7-0.8,6.5C539.9,112.4,539.8,110.5,541.2,107.8z"/>
	<path fill="#5CFE53" d="M555.4,386.3c2.6-1.6,5.5-2.6,8.4-3.6c0.9-0.3,1.1-0.9,1.1-1.6l0,0c6.5,0.4,13.2-1,19.6,1.2
		c5.3,1.9,9.6,4.5,10.7,10.7c0.3,2,0.1,3.8-0.4,5.5c-2.5,9.2-8.3,15.6-17.5,18.3c-8.4,2.5-15.8-1.9-20.5-8.6c-1.7-2.5-2.2-1.8-3.5,0
		c-8.1,10.2-7.6,18.6,2,27.6c4.7,4.4,9.7,8.6,17,7.9c1.6-0.1,3.2,0.3,4.8,0.8c-3.5,1.4-7.2,1.1-10.7,0.9
		c-10.6-0.5-20.4-3.2-28.1-11.3c-2.5-2.7-3.5-5.3-2.9-9.1c1.2-6.6,1-13.4,3.8-19.7c2.8-6.3,6.8-11.5,11.9-16.1
		c2.1-1.9,4.7-0.3,6.9-1.8c-1-0.3-1.9-0.5-2.8-0.8C555,386.4,555,386.3,555.4,386.3z"/>
	<path fill="#5BFC52" d="M531,390.9c2,0.2,4.7,0.2,4.6,3.8c-0.1,4.2-4.1,7.7-8.8,7.8c-2.4,0-4.8-3-4.7-6
		C522.2,393.2,525.6,390.9,531,390.9z"/>
	<path fill="#57EF4F" d="M564.9,381.1c-0.7-0.4-2.1,0.6-2.2-1.1c-0.1-1.3,0.8-1.6,1.8-1.8c2.2-0.5,4.3-1.1,6.5-1.5
		c1.2-0.2,2.5-0.2,3-1.7c3.7-0.6,6.7,1.6,10.1,2.3c1.3,1,2.7,2.1,4,3.1c-6.9-1.4-13.6-2.6-20.5-1.1
		C566.5,379.7,564.8,379.1,564.9,381.1C564.9,381.2,564.9,381.1,564.9,381.1z"/>
	<path fill="#5EC349" d="M555.1,386.7c-0.9-1.1-1.7-2.1-3.2-0.6c-0.7,0.7-1.7,1.4-3.5,0.7c3.6-3.1,7-5.7,11.7-6.1
		c-1.7,1.8-5,2.1-4.8,5.6C555.3,386.4,555.3,386.6,555.1,386.7z"/>
	<path fill="#2C8627" d="M540.4,397.5c2.3-3.5,3.7-7.9,8.2-9.5C546.1,391.4,543.1,394.3,540.4,397.5z"/>
	<path fill="#C7C7C7" d="M584.1,377.4c-3.6,0.2-6.6-1.9-10.1-2.3C577.9,373.6,580.9,375.8,584.1,377.4z"/>
	<path fill="#FEDB00" d="M463,58.3c-2.2,6.8-7.1,12-12.4,16.1c-2.6,2.1-4.6,4.2-6.5,6.7c-3.4,4.5-0.8,13,5.7,15.3
		c2.4,0.9,4.6-0.6,6.9-0.8c1-0.1,2.4-1.1,3.1,0.2c0.6,1.2-0.3,2.3-1.2,3.3c-5.6,6.2-13.9,5.5-18.4-1.4c-1-1.5-1.9-4.1-4-2.7
		c-1.5,1-2.2,3.6-1.2,5.8c1.4,3.2,4.2,5.2,6.6,7.5c3,2.8,5.9,1.8,9.2,0.8c1.8-0.6,3.9-1.5,6.1-0.9c-0.9,6.2-8.4,10.6-14,8.3
		c-3.3-1.4-5.9-3.6-8.4-6.1c-1.7-1.7-2.7-4.6-6.1-4.1c-1.2,0.2-0.8-1.3-0.8-2.1c0-3.5,0.5-7,2-10.2c3.3-7.2,6.6-14.5,10.2-21.7
		c1.8-3.6,1.3-6.3-2-8.3c-6.7-4.1-9.6-10.1-9.5-17.8c0.1-7.1,1.7-9.7,7.8-12.1c5-2,10.1-0.6,14.2,3.8c2.6,2.9,4.6,6.2,6.3,9.7
		c0.4,0.8,0.4,2.1,2,1.5c1.6-0.6,0.5-1.6,0.4-2.5c-0.5-0.9-0.5-1.5,0.8-1.5c1.2,1.2,1.8,2.8,2.3,4.4C463.4,52.3,463.6,55.3,463,58.3
		z"/>
	<path fill="#A6A6A6" d="M449,106.5c-4.4,1.8-6.1,0.8-9-5.4C442.9,103.7,445.1,106.5,449,106.5z"/>
	<path fill="#A28B00" d="M459.9,45.1c-0.8,0.2-0.6,0.9-0.8,1.5c-1.8-2.8-3.5-5.5-5.3-8.3C456.6,40,458.6,42.3,459.9,45.1z"/>
	<path fill="#959595" d="M463,58.3c-0.2-2.9-0.5-5.9-0.7-8.8C464.1,52.3,464.2,55.2,463,58.3z"/>
	<path fill="#9FFDFD" d="M417,335.4c1.5,8.9,2.8,17.8-0.2,26.6c-0.5,1.6-0.6,5.1-3.9,2.1c-0.2-0.1-0.5-0.3-0.7-0.2
		c-5,3.2-5-1.6-5.9-4c-1.9-5.2-2.1-10.8-0.9-16.2c0.6-2.7,1-5.7,4.9-6.1c1-0.1,2.4-1.1,2.4-2.8c0.3-1.7,2.1-0.7,2.8-1.6l0.1,0.1
		C417.6,332.9,416.2,334.9,417,335.4z"/>
	<path fill="#9DFAFA" d="M413.3,307.5c0-3.6,0-7.1,0-10.7c0.3-0.1,0.6-0.2,1-0.2c1.9,2.6,3.2,6.4,7.3,5.5c3.7-0.8,4-4.7,6-8.1
		c-0.4,5-1.1,9-3.1,12.8c-1.4,2.8-3.6,4.6-6.9,3.6c-1.5-0.5-2.3,0.4-3.3,1C412.1,310.6,413.2,308.9,413.3,307.5z"/>
	<path fill="#95EEEE" d="M417,335.4c-0.5-0.7-0.9-1.5-1.4-2.2c0.3-6.6,0.6-13.3,0.8-19.9c0.3,0,0.6-0.1,1-0.1c1.6,5.5,2,11.3,2.7,17
		c0.3,1.1,1.1,2.3-0.6,2.9C417.1,331.9,417.1,331.9,417,335.4z"/>
	<path fill="#64A3A3" d="M413.3,307.5c0.6,1.2-0.4,2.8,0.9,3.9c0,6.3-0.1,12.7-0.1,19c0,1.1-0.7,2.7,1.5,2.6
		c-0.6,1.2-2.2,0.5-2.8,1.6C412.6,325.6,412.2,316.6,413.3,307.5z"/>
	<path fill="#65A3A3" d="M419.5,333.1c0.9-0.8,0.3-2,0.6-2.9c1.7,7.2,1.7,14.4,0.8,21.8C420.5,345.6,420,339.3,419.5,333.1z"/>
	<path fill="#4A7B7B" d="M416.8,294.5c1.5,1.7,2.4,2.7,2.4,4.8C417.5,298.2,416.9,296.9,416.8,294.5z"/>
	<path fill="#5BFB52" d="M539.5,383.9c-1.8-0.3-4-0.3-5.2-2.5c-1.3-2.3-0.1-4.4,1.2-6.2c2.3-3.3,5.9-4.7,9.1-3.5
		c1.4,0.5,2.7,1.2,3.1,3C548.1,377.7,542.9,383.9,539.5,383.9z"/>
	<path fill="#E8E8E8" d="M194.7,256c23.4-0.5,54-0.3,84.6-1.6c10.2-0.4,20.4-1.8,30.7-1.5c4.4,0.1,8.7,0.6,13,1.6
		c12.9,3.2,18.9,10.4,19,23.7c0.2,28.7,2.4,57.4,3.2,86.1c1,31.8,3.9,63.6,6.3,95.3c0.9,11.4,1.4,22.9,0.5,34.4
		c-0.8,11.5-5.3,17.3-16.3,21c-8.1,2.7-16.5,3.1-24.8,3c-24-0.2-47.9,2.6-71.8,4.2c-29.9,2-59.8,4.3-89.7,6.5
		c-10.1,0.8-20,2.7-30.2,2.8c-4.6,0-9.2-0.5-13.7-1.7c-11.1-3.1-14.7-11.6-16.2-21.9c-2.6-17.5-3.2-35.1-4.4-52.6
		c-1.1-17.1-3.6-34-5.7-51c-4.2-33.4-9.2-66.8-11.7-100.4c-0.6-7.6-0.5-15.3-1.7-22.8c-1.2-7.7,2.8-12.2,7.9-16.5
		c8.2-6.9,18.2-7.8,28.3-7.8C130.6,257.2,159.1,256.5,194.7,256z"/>
	<path fill="#D5D5D5" d="M88.7,254.5c7.6-1.9,15.3-1.8,23.1-1.7c35.5,0.5,71-0.7,106.4-1.1c20.1-0.2,40.2-0.4,60.3-1
		c12.2-0.4,24.4-2.2,36.7-1.4c5.4,0.4,10.6,1.3,15.6,3.4c8.6,3.6,13.7,10.2,14.2,19.4c0.9,14.6,1.1,29.2,1.7,43.8
		c1.2,27.8,2.2,55.7,3.7,83.5c0.9,17.2,2.7,34.4,3.9,51.6c1.1,15.4,2.4,30.9,0.6,46.4c-0.2,1.4-0.3,2.7-1.3,4.2
		c-0.7-3.4,0.4-6.5,0.5-9.5c0.6-18.2-0.6-36.2-2.4-54.3c-2.5-26-3.6-52.1-4.7-78.2c-0.9-22.8-1.9-45.7-2.8-68.5
		c-0.2-5.5,0.3-11-0.4-16.5c-1.4-11.9-7.3-18.6-19-21.7c-8.8-2.3-17.8-2.7-26.8-1.9c-35.3,2.9-70.7,2.2-106,2.8
		c-25.7,0.4-51.5,0.8-77.2,1c-8.2,0.1-16.5-0.3-24.7,0.7C89.4,255.4,88.6,255.9,88.7,254.5z"/>
	<path fill="#707070" d="M88.7,254.5c0.2,0.8,1.1,0.5,1.5,0.8c-2.6,0.7-5.1,1.4-7.7,2.2C84.2,255.5,86.4,254.8,88.7,254.5z"/>
	<path d="M835.3,249.2c17.5,0.9,34.9,1.7,52.4,2.6c8.9,0.5,17.8-0.6,26.6,0.9c1.8,0.3,3.7,0.5,5.5,1.1c9.1,2.7,12.2,7.2,11.9,16.8
		c-0.9,29.9-3.9,59.6-7.2,89.2c-4,35.1-8.2,70.2-10.1,105.5c-1.3,22.4-2.8,44.9-5.8,67.2c-0.7,5-1.5,9.7-5.6,13.4
		c-2.6,2.4-5.3,3.5-8.6,4c-9.4,1.6-18.7,0.6-28-0.3c-21.1-2.1-41.9-6.6-62.9-9.8c-10.3-1.6-20.7-1.7-31-2.6
		c-9.1-0.9-18-2.3-26.7-5.1c-9.1-3-13.2-9.3-14.6-18.3c-1.4-9.5-1-19,0.2-28.4c2.9-22.2,3.1-44.6,4.3-66.9
		c1.6-28.7,2.8-57.4,4.3-86.1c0.7-14.2,0.8-28.5,1.1-42.7c0.2-10.2,0.9-20.4,4.8-30.1c2.8-7,7.5-10.7,15.2-11.2
		c22.5-1.4,45-0.8,67.4,0.4C830.8,248.9,833.1,249,835.3,249.2C835.3,249.1,835.3,249.2,835.3,249.2z"/>
	<path fill="#0D0004" d="M511.5,247.3c0.3,1.1-0.6,1.2-1.2,1.5c-0.9,0.4-1-0.3-1.2-0.9c-1-3.4-2.3-6.6-4.9-9.1
		c-0.4-0.4-0.7-1.2,0-1.6c0.3-0.2,1,0.1,1.3,0.3C508.7,240.1,510.3,243.6,511.5,247.3z"/>
	<path fill="#150007" d="M511.6,234.8c-0.2,0.3-0.3,0.7-0.5,0.9c-0.4,0.4-0.9,0.3-1.3-0.1c-1.6-1.9-3.2-3.7-4.8-5.6
		c-0.6-0.7-0.1-1.4,0.5-1.9c0.4-0.4,0.9-0.4,1.3,0.1C508.4,230.3,509.9,232.5,511.6,234.8z"/>
	<path fill="#010000" d="M492.7,246.7c-0.7-0.4-2-0.2-1.5-1.6c0.8-2.2,1.7-4.4,2.7-6.5c0.3-0.6,0.8-1,1.5-0.7c0.8,0.4,0.4,1,0.2,1.5
		c-0.6,1.9-1.1,3.8-1.7,5.7C493.7,245.7,493.7,246.6,492.7,246.7z"/>
	<path fill="#080002" d="M522,288.6c0.2,6.7-2.9,11.7-7.8,15.8c-0.7,0.6-1.4,1.5-2.4,0.3c-1.1-1.3,0.2-1.8,0.9-2.3
		c6.4-4.8,7.9-11.4,7-18.9c-0.1-0.8-1-2.3,0.5-2.5c1.8-0.3,1.2,1.5,1.3,2.4C521.7,285.1,521.8,286.8,522,288.6z"/>
	<path fill="#04040B" d="M686.4,196.5c-2-0.3-4.8,0.9-5-2c-0.2-2.5,0.4-5.1,3.6-6.5c3.9-1.7,7.6-1.9,11.4,0c1.6,0.8,2.7,2,2.6,3.7
		c-0.1,1.7-1.5,2.5-2.9,3.1C693,196.2,689.6,196.3,686.4,196.5z"/>
	<path fill="#080209" d="M576.8,243.7c-2.2-0.3-2.8-2.2-3.5-4.3c-0.6-2.1,0.6-3.2,2.1-3.6c2.8-0.7,5.6-1,8.5-0.3
		c2.8,0.7,3.3,2.6,1.2,4.6C583,242.4,580,242.9,576.8,243.7z"/>
	<path fill="#0B0907" d="M535.3,83.4c-1.7,0-3.5-0.2-5.2,0c-3.2,0.5-3.7-1.3-3.2-3.7c0.5-2.5,2-4.1,4.5-4.9
		c5.3-1.7,10.6-1.1,15.9-0.6c1.8,0.2,2.3,1.5,1.8,3.3c-1,3.7-3.5,5.8-7.5,6C539.5,83.5,537.4,83.5,535.3,83.4
		C535.3,83.4,535.3,83.4,535.3,83.4z"/>
	<path fill="#240000" d="M562,402.2c0-3.3,0-6.7,0-10.4C564.9,395.6,561.5,399.1,562,402.2z"/>
	<path d="M576.4,387.7c-3.4,0-6.9,0-10.3,0c0-0.1,0-0.3,0-0.4c3.4,0,6.8,0,10.2,0C576.3,387.5,576.4,387.6,576.4,387.7z"/>
	<path d="M204.8,260.1c23.1,0,46.2,0.1,69.3-0.1c10-0.1,20-1.1,29.9-1.1c8.3,0,16.7,0.4,24.6,4c4.7,2.1,6.9,5.8,7.5,10.7
		c4.1,31.8,5,63.7,5.6,95.7c0.5,23.7,0.3,47.5,2,71.2c0.9,12,2.2,23.9,3.2,35.8c0.3,4.1,0.3,8.2,0.5,12.3
		c0.7,14.2-6.5,20.6-18.9,23.8c-6,1.6-12.1,2.1-18.2,2c-31.4-0.3-62.6,3.3-93.9,5.3c-22.1,1.4-44.1,3.1-66.1,4.7
		c-9.8,0.7-19.5,2.8-29.5,2.2c-6.7-0.4-13-2-18.6-5.9c-2.8-1.9-4.5-4.2-4.8-7.8c-3.6-34.9-7.3-69.8-11-104.6
		c-2.8-26.7-5.5-53.4-8.5-80c-1.3-11.5-3.3-23-4.1-34.6c-0.3-4.7-0.5-9.5-0.2-14.2c0.6-9.8,3.4-12.9,13-15.6
		c10-2.8,20.3-2.6,30.5-2.1c24.7,1.1,49.5-0.5,74.2-0.5c4.5,0,9,0,13.5,0C204.8,261,204.8,260.5,204.8,260.1z"/>
	<path fill="#E6E6E6" d="M747.9,397.9c2.1-34.4,3.6-68.9,3.2-103.4c-0.1-8.4,0.7-16.7,2.6-24.9c1.5-6.2,4-8.3,10.5-9.2
		c7.3-0.9,14.4,0,21.6,0.8c12.1,1.2,24.2,1.1,36.3,1.4c26.7,0.6,53.4,2.1,80.2,1.6c14.2-0.3,17.6,3.7,16.9,18
		c-0.9,17.5-3.7,34.7-5.9,52.1c-2.2,17.6-3.3,35.3-5,52.9c-2.2,23.7-4.1,47.5-6.4,71.3c-1.9,19-3,38.1-3.4,57.2
		c-0.2,6.2-1.1,12.4-2.8,18.4c-1.1,4-3.7,5.7-7.6,6c-8.5,0.7-16.6-1.4-24.8-2.9c-13.3-2.5-26.8-3-40.1-4.6
		c-23.5-2.8-47.1-4.9-70.1-11.2c-0.2-0.1-0.5-0.1-0.7-0.1c-10.5-3-10.7-3.6-10.1-14.5c1.5-26.9,2.8-53.9,4.1-80.8
		C747,416.6,747.4,407.2,747.9,397.9z"/>
	<path fill="#E4E4E4" d="M888.2,547c1.8-0.5,3.6-0.9,5.4-1.5c4.2-1.5,6.8-4.4,7.5-8.9c2.7-17.4,3.3-35,4.3-52.6
		c1.2-19.2,3.3-38.3,4.9-57.4c2.1-24.4,4.5-48.7,6.4-73.1c1.5-18.7,4-37.2,7.1-55.7c1.3-7.9,1.5-15.9,1-23.9
		c0.1-0.7,0.2-1.5,0.9-1.8c1.2,8.6,0.7,17.2,0.2,25.7c-1.6,30.3-6.3,60.3-9.2,90.5c-3,31.3-5.4,62.7-8.7,93.9
		c-1.8,17.1-1.9,34.4-3.6,51.5c-0.2,1.7-0.6,3.4-1.1,5.1c-2.1,6.8-5.2,9-12.6,8.9C889.9,547.8,888.6,548.8,888.2,547z"/>
	<path fill="#E5E5E5" d="M925.8,272.1c-0.1,0.7-0.2,1.4-0.9,1.8c-1.5-9.7-6.6-13.2-16.7-13.5c-17.8-0.5-35.7-0.4-53.5-0.9
		c-24.8-0.7-49.7-1.4-74.5-2.2c-6.7-0.2-13.4-1.5-20.1-0.1c-5.8,1.2-9.3,4.6-10.6,10.3c-1,4.6-1.6,9.3-2.4,14
		c-1.9-1.6-0.9-3.5-0.8-5.4c0.1-3.6,1.1-7.1,1.5-10.7c0.9-6.4,4.6-9.1,10.5-10.2c15.1-2.8,30.3-2.3,45.5-2.1
		c23.6,0.4,47.1,1.9,70.7,3.4c10.6,0.7,21.2-0.1,31.8,0c1.5,0,3,0.2,4.5,0.3C921.9,257.6,925.3,261,925.8,272.1z"/>
	<path fill="#E3E3E3" d="M738.8,525.2c-3.3-2.5-3.5-6.4-4.1-10c-1.7-8.7-1-17.5,0.1-26.1c3.3-25.6,3.6-51.3,5-77
		c1.5-27.7,2.8-55.4,4.2-83.1c0.5-9.4,0.7-18.7,1.1-28.1c0.9,0,1,0.5,1,1.2c-0.1,13.9,0.3,27.8-0.2,41.7
		c-0.8,16.5-1.5,32.9-2.3,49.4c-1.8,37-3.6,74-5.5,111.1c-0.2,3.1-0.4,6.2-0.6,9.3c-0.3,3.8,0,7.4,2.4,10.6
		C740,525.1,739.7,525.4,738.8,525.2z"/>
	<path fill="#E0E0E0" d="M898.8,535c-3.1,8-6.9,10.1-16.3,9.4c-7.2-0.6-14.2-2.8-21.3-3.7c-15.5-1.9-31-3.4-46.5-5.2
		c-21.4-2.5-42.9-4.2-64-8.9c-4.8-1.1-9-2.9-11.1-7.9c-0.3-0.8-0.9-1.5,0-2.4c5.6,6.2,13.5,7.3,20.9,8.9c25,5.5,50.5,8.1,75.9,10.6
		c12.8,1.3,25.5,2.8,38.1,5.5c3.6,0.8,7.4,1,11.2,1c6.1,0,10.9-2.1,12.3-8.8C899.5,533.4,899,534.3,898.8,535z"/>
	<path fill="#A5A5A5" d="M916.6,330.2c-0.8,10.2-1.6,20.3-2.5,30.5c-1.1,12.4-2.2,24.8-3.4,37.3c-1.4,15.4-2.9,30.8-4.2,46.2
		c-1.5,16.9-3.1,33.8-4,50.8c-0.2,4.9-0.7,9.7-1.2,14.5c-1.1-12.8,0.4-25.4,1.5-38.1c1.4-15.7,2.8-31.3,4.2-47
		c1.6-18.1,3.3-36.3,5-54.4c1.1-12,2.2-24.1,3.2-36.2c0.1-1.3,0.7-2.4,0.9-3.6C916.3,330.2,916.4,330.2,916.6,330.2z"/>
	<path fill="#DFDFDF" d="M888.2,547c0.7,0.8,1.7,0.6,2.6,0.7c-8.1,1.5-16.1,0.3-24.1-0.5c-17.2-1.7-34.2-5-51.2-7.9
		c0.9-1.8,2.4-0.9,3.7-0.7c18.6,2,37.3,3.1,55.6,7.3C879.2,546.9,883.7,547,888.2,547z"/>
	<path fill="#757575" d="M809.3,250c8-0.4,15.9,0.6,23.9,0.9c10.8,0.4,21.6,1.4,32.4,1.9c8.1,0.4,16.2,0.7,24.9,1.1
		c-1.7,1.7-3.4,1.3-4.8,1.2c-15.9-0.9-31.8-2-47.8-2.7c-13.1-0.6-26.2-0.7-39.3-1.1c-1.5,0-3,0.4-4.4-0.5c3.5-1.1,7.1-0.2,10.6-0.5
		C806.4,250.1,807.9,250.5,809.3,250z"/>
	<path fill="#CDCDCD" d="M738.8,525.2c0.3-0.4,0.7-0.7,1-1.1c5.6,4.6,12.6,5.6,19.4,6.8c7.7,1.4,15.4,2.2,23.2,3.3
		c-1.5,2-3.5,0.8-5.3,0.8c-10.4-0.7-20.7-1.8-30.6-5.5C743.7,528.5,740.9,527.4,738.8,525.2z"/>
	<path fill="#C6C6C6" d="M809.3,250c-5,1.3-10-0.1-15,0.8c-2.4,0-4.8,0-7.3,0c-3.5,0.6-7.1-0.2-10.7,0.5c-8.4,0.5-16.8,0.8-25.1,4
		c2.4-3.3,4.5-4.3,8.8-4.6C776.5,249.3,792.9,249.8,809.3,250z"/>
	<path fill="#C0C0C0" d="M918.9,309.8c1-11,2.8-22,2.5-33.1c-0.1-4-0.6-7.9-3.5-11c4,2,4.5,5.8,4.8,9.6c1,11.4-0.8,22.6-2.8,33.8
		c-0.1,0.7-0.2,1.5-0.3,2.2C918.3,311.3,918.5,310.6,918.9,309.8z"/>
	<path fill="#BBBBBB" d="M745.8,343.8c-0.1-13-0.1-26-0.2-38.9c0-1.3,0.5-2.8-0.5-4c-0.3-8.4,0.1-16.7,1.3-24.9
		c0.7,1.7-0.6,3.7,0.8,5.4c-1.2,20.3-0.6,40.7-1,61.1C746.1,342.9,745.9,343.3,745.8,343.8z"/>
	<path fill="#B0B0B0" d="M928.9,275.5c-1.5-5.9-0.8-12.3-5.7-17.2C930,260,930,266.4,928.9,275.5z"/>
	<path fill="#606060" d="M918.9,309.8c0.2,0.5,0.5,1,0.7,1.4c-1,6.3-2,12.6-3,18.9c0,0-0.2,0.1-0.2,0.1s-0.2,0-0.2,0
		C916.8,323.4,917.2,316.5,918.9,309.8z"/>
	<path fill="#777777" d="M777.1,535.1c1.7-0.7,3.7,0.8,5.3-0.8c3.6,0,7,0.6,10.4,1.7C787.5,535.8,782.3,536.2,777.1,535.1z"/>
	<path fill="#727272" d="M819.2,538.6c-1.2,0.5-2.7-0.6-3.7,0.7c-3.4,0-6.7-1-10-1.9C810.2,537,814.7,537.5,819.2,538.6z"/>
	<path fill="#565656" d="M748.1,331.7c0-3.8,0-7.5,0-11.3c0.1,0,0.3,0,0.4,0c0,3.7,0,7.4,0,11.2
		C748.4,331.6,748.2,331.6,748.1,331.7z"/>
	<path fill="#8B8B8B" d="M898.8,535c-0.3-0.5-0.5-1-0.8-1.5c0.3-1.9,0.7-3.8,1-5.7c0.3,0,0.6,0.1,0.9,0.1
		C899.7,530.3,899.9,532.7,898.8,535z"/>
	<path fill="#757575" d="M776.4,251.2c3.5-1,7.1-0.7,10.7-0.5C783.5,251.7,780,251.5,776.4,251.2z"/>
	<path fill="#F9F9F9" d="M688,194.1c-1.2-0.7-3.4,0.9-3.5-1.5c-0.1-1.8,1.2-3.3,3.3-3.4c2.3-0.2,4.7-0.5,7,0.5
		c0.8,0.4,1.6,0.9,1.4,1.9c-0.1,0.9-0.9,1.1-1.6,1.3C692.4,193.3,690.2,193.7,688,194.1z"/>
	<path fill="#D9D9D9" d="M584,238.1c-1.8,1.5-3.3,2.9-5.6,2.1c-0.7-0.3-1-1.9-0.4-2.3C579.9,236.5,581.9,237,584,238.1z"/>
	<path fill="#FAFAFA" d="M529.1,80.8c0.2-2.5,1.8-3.6,3.8-4.1c3.9-0.9,7.9-0.5,11.8-0.2c1.5,0.1,1.4,0.7,1,1.9
		c-0.9,2.6-2.9,3.1-5.3,3C536.7,81.3,533,81,529.1,80.8z"/>
	<path fill="#E8E8E8" d="M191.2,266.1c31.2-0.6,60.9-1.1,90.6-2c9.8-0.3,19.6-1.9,29.5-1.4c4.5,0.2,8.9,0.9,13,2.9
		c4,1.9,6.4,4.9,7.4,9.2c1.2,5.2,1.5,10.4,1.2,15.6c-0.9,16.3,0.3,32.5,1,48.7c1.6,35.9,3.3,71.9,5,107.8
		c0.5,10.1,1.4,20.2,2.1,30.3c0.3,4.6,0,9.2-0.5,13.8c-1,8-3.2,10.5-10.9,12.7c-6.6,1.8-13.3,2.3-20,2.2
		c-16.3-0.4-32.5,0.8-48.7,1.9c-30.3,2.1-60.5,4.3-90.8,6.2c-13.8,0.9-27.6,2.7-41.4,3.6c-7.2,0.4-14.2-0.6-20.2-5.3
		c-1.7-1.3-2.7-2.7-2.9-4.9c-2.6-26.2-5.3-52.4-8.1-78.6c-3.1-30.1-6.4-60.1-9.4-90.2c-1.7-16.9-5.4-33.5-5.7-50.6
		c-0.1-3.6,0-7.2,0.5-10.8c0.7-4.8,3.4-7.8,8-9.4c7.8-2.6,15.8-2.6,23.7-2c23,1.7,46,0.2,68.9,0.2
		C186.6,266.1,189.6,266.1,191.2,266.1z"/>
	<path fill="#E7E7E7" d="M344.2,470.5c0.4,7.1,1.1,14.2,0.8,21.3c-0.3,8.4-4.4,13.8-12.4,16.8c-8.3,3.1-16.9,3.6-25.5,3.4
		c-15.3-0.3-30.5,0.9-45.7,1.9c-24.3,1.6-48.6,3.3-72.9,5.1c-18.8,1.4-37.6,2.5-56.4,4.7c-9.5,1.2-19,0.8-27.5-4.6
		c-3.5-2.2-5.3-4.9-5.7-9.3c-2.4-25-5.2-49.9-7.8-74.9c-2.6-25-5.2-49.9-7.8-74.9c-1.9-18-3.9-36-6.3-53.9c-1.2-8.9-2-17.9-1.3-26.9
		c0.6-8.7,2.2-10.6,10.6-13.1c0.8-0.5,1.5-0.6,1.5,0.7c-7,3.2-7.1,9.8-7.3,16c-0.5,11.8,1.3,23.4,3.1,35c2.9,18.6,4.3,37.4,6.4,56.1
		c2.6,23.1,4.8,46.2,7.2,69.2c2.1,19.9,4.9,39.7,6,59.6c0.7,12.7,7.6,15.2,17.7,16.9c9.2,1.6,18.4-0.7,27.6-1.5
		c16.5-1.3,33.1-2.5,49.7-3.7c23.3-1.6,46.6-3,69.8-4.9c16.7-1.4,33.4-1,50.1-1.8c6.1-0.3,12.1-1.3,17.7-4c3.6-1.8,5.8-4.6,6.6-8.5
		c1.1-5.5,1.3-11.1,1.3-16.8C343.5,475.9,342.2,473.1,344.2,470.5z"/>
	<path fill="#DDDDDD" d="M338.5,386.3c-1.2-25.5-2.4-50.9-3.6-76.4c-0.3-5.9,0.1-11.7,0.7-17.6c2.5,23,3.3,46,3.6,69.1
		c0.5,6.2,0.1,12.4,0.2,18.6c0,1.4-0.2,2.7,0.2,4.1c0,0.5,0,0.9,0,1.4C339.5,386.2,339.2,386.6,338.5,386.3z"/>
	<path fill="#7A7A7A" d="M344.2,470.5c-1.1,2.6,0.1,5.5-0.7,8.2c-0.5-6.8-1.1-13.6-1.5-20.4c-0.2-3.9-1.4-7.8-0.3-12.4
		C343,454.5,344.1,462.4,344.2,470.5z"/>
	<path fill="#8E8E8E" d="M338.5,386.3c0.4-0.2,0.8-0.5,1.2-0.7c0,7.7,0,15.3,0,23C339.4,401.2,338.1,393.8,338.5,386.3z"/>
	<path fill="#8E8E8E" d="M339.7,384.2c-1-7.5-0.7-15.1-0.5-22.7C340.1,369.1,340,376.6,339.7,384.2z"/>
	<path fill="#878787" d="M87.8,267.1c-0.2-0.8-1-0.5-1.5-0.7c1.9-1.4,4.1-1.4,6.5-1C91.1,265.9,89.5,266.5,87.8,267.1z"/>
</g>
</svg>
